G04 EAGLE Gerber RS-274X export*
G75*
%MOMM*%
%FSLAX34Y34*%
%LPD*%
%IN*%
%IPPOS*%
%AMOC8*
5,1,8,0,0,1.08239X$1,22.5*%
G01*
%ADD10C,0.254000*%


D10*
X2540Y369570D02*
X3810Y361950D01*
X7620Y350520D01*
X12700Y340360D01*
X20320Y327660D01*
X34290Y308610D01*
X50800Y294640D01*
X72390Y279400D01*
X90170Y267970D01*
X107950Y259080D01*
X135890Y251460D01*
X201930Y241300D01*
X226060Y241300D01*
X254000Y245110D01*
X290830Y251460D01*
X321310Y257810D01*
X353060Y266700D01*
X375920Y273050D01*
X400050Y283210D01*
X431800Y293370D01*
X436880Y294640D01*
X438150Y294640D01*
X443230Y292100D01*
X447040Y287020D01*
X450850Y280670D01*
X453390Y265430D01*
X454660Y254000D01*
X454660Y223520D01*
X452120Y207010D01*
X450850Y195580D01*
X447040Y180340D01*
X441960Y170180D01*
X426720Y134620D01*
X421640Y121920D01*
X420370Y111760D01*
X421640Y96520D01*
X429260Y81280D01*
X441960Y66040D01*
X449580Y59690D01*
X461010Y54610D01*
X476250Y50800D01*
X485140Y49530D01*
X496570Y46990D01*
X504190Y44450D01*
X509270Y41910D01*
X513080Y39370D01*
X518160Y34290D01*
X521970Y29210D01*
X528320Y21590D01*
X532130Y17780D01*
X537210Y15240D01*
X557530Y7620D01*
X568960Y6350D01*
X584200Y3810D01*
X600710Y2540D01*
X621030Y5080D01*
X635000Y11430D01*
X647700Y17780D01*
X654050Y21590D01*
X668020Y30480D01*
X680720Y41910D01*
X697230Y58420D01*
X708660Y68580D01*
X725170Y86360D01*
X732790Y92710D01*
X749300Y96520D01*
X762000Y107950D01*
X772160Y129540D01*
X777240Y156210D01*
X778510Y173990D01*
X773430Y205740D01*
X769620Y223520D01*
X765810Y237490D01*
X760730Y252730D01*
X749300Y276860D01*
X739140Y303530D01*
X730250Y332740D01*
X723900Y363220D01*
X717550Y398780D01*
X716280Y421640D01*
X716280Y430530D01*
X721360Y434340D01*
X734060Y444500D01*
X773430Y474980D01*
X821690Y518160D01*
X875030Y575310D01*
X915670Y622300D01*
X942340Y652780D01*
X961390Y681990D01*
X975360Y711200D01*
X986790Y735330D01*
X990600Y753110D01*
X994410Y791210D01*
X995680Y816610D01*
X994410Y835660D01*
X990600Y853440D01*
X984250Y867410D01*
X976630Y876300D01*
X963930Y887730D01*
X944880Y900430D01*
X927100Y905510D01*
X895350Y908050D01*
X876300Y906780D01*
X849630Y901700D01*
X838200Y896620D01*
X812800Y885190D01*
X788670Y877570D01*
X768350Y876300D01*
X749300Y878840D01*
X732790Y881380D01*
X736600Y896620D01*
X772160Y897890D01*
X795020Y939800D01*
X713740Y979170D01*
X689610Y938530D01*
X697230Y932180D01*
X699770Y929640D01*
X687070Y913130D01*
X680720Y918210D01*
X646430Y941070D01*
X609600Y962660D01*
X567690Y980440D01*
X529590Y990600D01*
X476250Y995680D01*
X448310Y996950D01*
X422910Y995680D01*
X402590Y990600D01*
X375920Y980440D01*
X340360Y965200D01*
X325120Y957580D01*
X285750Y929640D01*
X259080Y905510D01*
X240030Y880110D01*
X218440Y838200D01*
X204470Y802640D01*
X200660Y774700D01*
X199390Y760730D01*
X196850Y735330D01*
X193040Y711200D01*
X186690Y689610D01*
X176530Y655320D01*
X171450Y640080D01*
X146050Y599440D01*
X127000Y577850D01*
X106680Y558800D01*
X81280Y541020D01*
X52070Y510540D01*
X29210Y478790D01*
X12700Y447040D01*
X7620Y424180D01*
X3810Y398780D01*
X2540Y378460D01*
X2540Y369570D01*
X293370Y905510D02*
X303276Y886968D01*
X408686Y944118D01*
X398780Y961390D01*
X396240Y962660D01*
X384810Y963930D01*
X372110Y962660D01*
X361950Y958850D01*
X347980Y952500D01*
X327660Y941070D01*
X303530Y925830D01*
X298450Y919480D01*
X294640Y911860D01*
X293370Y905510D01*
M02*
