G04 EAGLE Gerber RS-274X export*
G75*
%MOMM*%
%FSLAX34Y34*%
%LPD*%
%INSilkscreen Top*%
%IPPOS*%
%AMOC8*
5,1,8,0,0,1.08239X$1,22.5*%
G01*
%ADD10R,1.600000X0.400000*%
%ADD11R,0.400000X0.400000*%
%ADD12R,15.200000X0.400000*%
%ADD13R,15.600000X0.400000*%
%ADD14R,16.800000X0.400000*%
%ADD15R,17.200000X0.400000*%
%ADD16R,17.600000X0.400000*%
%ADD17R,19.600000X0.400000*%
%ADD18R,14.400000X0.400000*%
%ADD19R,14.000000X0.400000*%
%ADD20R,13.200000X0.400000*%
%ADD21R,12.800000X0.400000*%
%ADD22R,12.400000X0.400000*%
%ADD23R,11.600000X0.400000*%
%ADD24R,11.200000X0.400000*%
%ADD25R,10.000000X0.400000*%
%ADD26R,8.800000X0.400000*%
%ADD27R,6.800000X0.400000*%
%ADD28R,4.400000X0.400000*%
%ADD29R,7.200000X0.400000*%
%ADD30R,9.600000X0.400000*%
%ADD31R,2.000000X0.400000*%
%ADD32R,2.800000X0.400000*%
%ADD33R,3.600000X0.400000*%
%ADD34R,16.000000X0.400000*%
%ADD35R,4.800000X0.400000*%
%ADD36R,5.600000X0.400000*%
%ADD37R,6.000000X0.400000*%
%ADD38R,6.400000X0.400000*%
%ADD39R,5.200000X0.400000*%
%ADD40R,8.000000X0.400000*%
%ADD41R,7.600000X0.400000*%
%ADD42R,8.400000X0.400000*%
%ADD43R,9.200000X0.400000*%
%ADD44R,10.800000X0.400000*%
%ADD45R,12.000000X0.400000*%
%ADD46R,4.000000X0.400000*%
%ADD47R,13.600000X0.400000*%
%ADD48R,3.200000X0.400000*%
%ADD49R,14.800000X0.400000*%
%ADD50R,2.400000X0.400000*%
%ADD51R,16.400000X0.400000*%
%ADD52R,1.200000X0.400000*%
%ADD53C,0.152400*%
%ADD54R,0.250000X0.250000*%
%ADD55R,0.250000X0.250000*%

G36*
X461663Y575619D02*
X461663Y575619D01*
X461678Y575625D01*
X461690Y575626D01*
X478324Y580689D01*
X478342Y580697D01*
X478349Y580698D01*
X478352Y580699D01*
X478362Y580701D01*
X490046Y584765D01*
X490202Y584846D01*
X490269Y584876D01*
X490271Y584878D01*
X490275Y584879D01*
X513262Y600204D01*
X513349Y600282D01*
X513411Y600325D01*
X542748Y629196D01*
X542839Y629315D01*
X542891Y629373D01*
X551019Y642073D01*
X551043Y642126D01*
X551060Y642150D01*
X551068Y642175D01*
X551100Y642226D01*
X559228Y661530D01*
X559229Y661534D01*
X559231Y661537D01*
X562787Y670173D01*
X562816Y670286D01*
X562843Y670356D01*
X566907Y690168D01*
X566911Y690243D01*
X566924Y690297D01*
X568956Y717729D01*
X568951Y717809D01*
X568957Y717867D01*
X567433Y742251D01*
X567421Y742313D01*
X567420Y742362D01*
X563356Y765730D01*
X563318Y765850D01*
X563302Y765925D01*
X555174Y786753D01*
X555137Y786819D01*
X555118Y786872D01*
X546482Y802620D01*
X546312Y802848D01*
X546311Y802849D01*
X546310Y802850D01*
X510301Y838858D01*
X507810Y842346D01*
X507756Y842403D01*
X507709Y842466D01*
X507665Y842499D01*
X507614Y842552D01*
X507501Y842618D01*
X507438Y842664D01*
X499310Y846728D01*
X499069Y846809D01*
X499046Y846817D01*
X477734Y850877D01*
X465057Y853919D01*
X464918Y853932D01*
X464841Y853947D01*
X440457Y854455D01*
X440433Y854452D01*
X440414Y854455D01*
X417046Y853947D01*
X416912Y853925D01*
X416834Y853920D01*
X386862Y846808D01*
X386831Y846796D01*
X386799Y846791D01*
X386729Y846756D01*
X386597Y846704D01*
X386544Y846664D01*
X386499Y846641D01*
X369771Y834475D01*
X362190Y829927D01*
X362074Y829833D01*
X362009Y829789D01*
X337117Y805913D01*
X337022Y805792D01*
X336970Y805735D01*
X332886Y799473D01*
X332860Y799418D01*
X332832Y799380D01*
X317612Y769574D01*
X317589Y769506D01*
X317562Y769459D01*
X313618Y758614D01*
X313598Y758520D01*
X313570Y758428D01*
X313569Y758382D01*
X313560Y758336D01*
X313567Y758240D01*
X313565Y758144D01*
X313577Y758099D01*
X313579Y758075D01*
X313552Y758015D01*
X308836Y739150D01*
X308821Y739002D01*
X308806Y738925D01*
X307849Y693950D01*
X307854Y693907D01*
X307850Y693873D01*
X309374Y665933D01*
X309428Y665659D01*
X309429Y665654D01*
X313493Y653970D01*
X313543Y653874D01*
X313568Y653806D01*
X329316Y625866D01*
X329397Y625759D01*
X329427Y625709D01*
X329448Y625689D01*
X329467Y625662D01*
X341151Y613470D01*
X341160Y613462D01*
X341166Y613454D01*
X361486Y593134D01*
X361557Y593080D01*
X361615Y593027D01*
X361641Y593013D01*
X361666Y592991D01*
X373858Y585371D01*
X373908Y585349D01*
X373942Y585324D01*
X374640Y584975D01*
X374712Y584951D01*
X374761Y584924D01*
X399144Y576443D01*
X399423Y576388D01*
X399446Y576390D01*
X399464Y576387D01*
X461381Y575582D01*
X461663Y575619D01*
G37*
G36*
X849518Y580157D02*
X849518Y580157D01*
X849596Y580161D01*
X854168Y581177D01*
X854197Y581188D01*
X854226Y581192D01*
X854303Y581226D01*
X854393Y581255D01*
X854410Y581268D01*
X854434Y581277D01*
X854462Y581298D01*
X854486Y581308D01*
X854553Y581365D01*
X854662Y581447D01*
X854664Y581449D01*
X854666Y581450D01*
X882098Y608882D01*
X882109Y608897D01*
X882117Y608904D01*
X882133Y608928D01*
X882163Y608954D01*
X898925Y629272D01*
X918737Y653148D01*
X918753Y653174D01*
X918771Y653191D01*
X930455Y668939D01*
X930469Y668964D01*
X930485Y668981D01*
X946741Y693365D01*
X946772Y693430D01*
X946804Y693474D01*
X958996Y717858D01*
X959020Y717929D01*
X959047Y717978D01*
X967175Y741346D01*
X967190Y741425D01*
X967212Y741481D01*
X975340Y782121D01*
X975344Y782200D01*
X975357Y782257D01*
X976373Y798513D01*
X976369Y798574D01*
X976374Y798621D01*
X975358Y821481D01*
X975330Y821634D01*
X975321Y821711D01*
X970749Y837967D01*
X970706Y838065D01*
X970686Y838134D01*
X963066Y853882D01*
X963065Y853883D01*
X963065Y853885D01*
X963057Y853895D01*
X962907Y854118D01*
X962884Y854138D01*
X962870Y854158D01*
X950678Y866350D01*
X950592Y866415D01*
X950540Y866465D01*
X938856Y874593D01*
X938765Y874639D01*
X938708Y874679D01*
X930072Y878743D01*
X929923Y878789D01*
X929851Y878817D01*
X905975Y883897D01*
X905937Y883900D01*
X905900Y883910D01*
X905823Y883908D01*
X905692Y883917D01*
X905620Y883901D01*
X905565Y883900D01*
X897945Y882376D01*
X897787Y882320D01*
X897715Y882300D01*
X890095Y878744D01*
X890059Y878721D01*
X890026Y878709D01*
X881898Y874137D01*
X881898Y874136D01*
X881897Y874136D01*
X862085Y862960D01*
X862052Y862935D01*
X862021Y862921D01*
X849829Y854793D01*
X849826Y854790D01*
X849823Y854789D01*
X849801Y854768D01*
X849617Y854603D01*
X849599Y854576D01*
X849580Y854557D01*
X837388Y838301D01*
X837373Y838274D01*
X837355Y838255D01*
X829227Y826063D01*
X829214Y826035D01*
X829198Y826016D01*
X817514Y806204D01*
X817481Y806126D01*
X817449Y806073D01*
X809321Y786261D01*
X809294Y786156D01*
X809267Y786089D01*
X801647Y750529D01*
X801640Y750433D01*
X801626Y750367D01*
X799594Y709727D01*
X799599Y709677D01*
X799594Y709637D01*
X801118Y670013D01*
X801136Y669912D01*
X801139Y669842D01*
X808759Y633774D01*
X808796Y633670D01*
X808813Y633599D01*
X816941Y613787D01*
X816962Y613750D01*
X816972Y613718D01*
X825100Y597462D01*
X825103Y597457D01*
X825105Y597452D01*
X825129Y597420D01*
X825261Y597228D01*
X825289Y597206D01*
X825306Y597183D01*
X837498Y585499D01*
X837577Y585442D01*
X837624Y585398D01*
X837673Y585373D01*
X837728Y585333D01*
X837749Y585326D01*
X837764Y585315D01*
X848432Y580235D01*
X848486Y580218D01*
X848537Y580192D01*
X848606Y580181D01*
X848703Y580150D01*
X848801Y580148D01*
X848868Y580137D01*
X849376Y580137D01*
X849518Y580157D01*
G37*
G36*
X434417Y316493D02*
X434417Y316493D01*
X434458Y316492D01*
X434657Y316544D01*
X434714Y316556D01*
X486022Y336876D01*
X486026Y336878D01*
X486029Y336879D01*
X526161Y353135D01*
X526163Y353136D01*
X526165Y353137D01*
X545977Y361265D01*
X546007Y361282D01*
X546035Y361290D01*
X578547Y377038D01*
X578556Y377045D01*
X578566Y377048D01*
X602435Y389236D01*
X626302Y400916D01*
X626312Y400923D01*
X626322Y400926D01*
X642070Y409054D01*
X642099Y409075D01*
X642126Y409085D01*
X662446Y421277D01*
X662451Y421281D01*
X662456Y421283D01*
X682268Y433475D01*
X682271Y433478D01*
X682274Y433479D01*
X694466Y441099D01*
X694479Y441110D01*
X694491Y441115D01*
X706683Y449243D01*
X706776Y449326D01*
X706838Y449370D01*
X718522Y461054D01*
X718540Y461078D01*
X718563Y461097D01*
X718604Y461164D01*
X718693Y461281D01*
X718715Y461340D01*
X718741Y461382D01*
X721281Y467478D01*
X721294Y467528D01*
X721316Y467576D01*
X721330Y467665D01*
X721353Y467753D01*
X721351Y467805D01*
X721359Y467857D01*
X721348Y467929D01*
X721345Y468037D01*
X721317Y468124D01*
X721307Y468189D01*
X719275Y474285D01*
X719238Y474360D01*
X719210Y474438D01*
X719179Y474479D01*
X719148Y474540D01*
X719054Y474642D01*
X719006Y474705D01*
X710878Y482325D01*
X710797Y482382D01*
X710747Y482429D01*
X686363Y498685D01*
X686305Y498713D01*
X686266Y498742D01*
X670518Y506870D01*
X670476Y506885D01*
X670439Y506907D01*
X670364Y506924D01*
X670249Y506964D01*
X670169Y506968D01*
X670112Y506982D01*
X626932Y509522D01*
X626865Y509516D01*
X626814Y509522D01*
X582618Y506982D01*
X582504Y506959D01*
X582430Y506953D01*
X549918Y498825D01*
X549907Y498820D01*
X549897Y498819D01*
X521957Y491199D01*
X521901Y491175D01*
X521854Y491165D01*
X510170Y486593D01*
X510082Y486544D01*
X510018Y486519D01*
X497318Y478899D01*
X497170Y478779D01*
X497116Y478740D01*
X465620Y446736D01*
X465574Y446673D01*
X465532Y446633D01*
X453340Y430377D01*
X453309Y430321D01*
X453278Y430284D01*
X441594Y410472D01*
X441559Y410388D01*
X441525Y410333D01*
X433397Y390013D01*
X433381Y389946D01*
X433359Y389898D01*
X429295Y374658D01*
X429284Y374562D01*
X429271Y374522D01*
X429270Y374511D01*
X429265Y374491D01*
X426725Y347567D01*
X426730Y347463D01*
X426724Y347393D01*
X428756Y321485D01*
X428763Y321452D01*
X428763Y321445D01*
X428773Y321406D01*
X428780Y321332D01*
X428803Y321271D01*
X428818Y321207D01*
X428832Y321182D01*
X428835Y321170D01*
X428858Y321130D01*
X428883Y321067D01*
X428918Y321023D01*
X428954Y320958D01*
X428971Y320940D01*
X428980Y320925D01*
X429049Y320860D01*
X429094Y320805D01*
X433666Y316741D01*
X433754Y316682D01*
X433838Y316617D01*
X433872Y316604D01*
X433902Y316584D01*
X434004Y316552D01*
X434103Y316513D01*
X434139Y316509D01*
X434173Y316499D01*
X434280Y316496D01*
X434386Y316486D01*
X434417Y316493D01*
G37*
G36*
X146313Y268734D02*
X146313Y268734D01*
X146322Y268733D01*
X146455Y268754D01*
X146586Y268773D01*
X146594Y268776D01*
X146603Y268778D01*
X146652Y268803D01*
X146845Y268889D01*
X146875Y268914D01*
X146903Y268928D01*
X160111Y278580D01*
X160184Y278651D01*
X160240Y278692D01*
X178020Y296980D01*
X178082Y297066D01*
X178132Y297117D01*
X186768Y309817D01*
X186802Y309888D01*
X186823Y309919D01*
X186833Y309950D01*
X186860Y310005D01*
X186887Y310054D01*
X195015Y333422D01*
X195015Y333424D01*
X195016Y333425D01*
X195018Y333437D01*
X195034Y333519D01*
X195041Y333541D01*
X195041Y333556D01*
X195070Y333701D01*
X195067Y333732D01*
X195071Y333756D01*
X195071Y373888D01*
X195051Y374032D01*
X195047Y374111D01*
X190475Y394431D01*
X190453Y394488D01*
X190445Y394535D01*
X182317Y418411D01*
X182295Y418454D01*
X182286Y418491D01*
X175174Y434747D01*
X175081Y434899D01*
X175047Y434962D01*
X162855Y450710D01*
X162802Y450761D01*
X162770Y450806D01*
X146514Y467062D01*
X146508Y467066D01*
X146503Y467073D01*
X146462Y467101D01*
X146287Y467233D01*
X146252Y467246D01*
X146227Y467263D01*
X129971Y474883D01*
X129914Y474901D01*
X129874Y474923D01*
X118190Y478987D01*
X118182Y478988D01*
X118177Y478991D01*
X105985Y483055D01*
X105705Y483106D01*
X105683Y483104D01*
X105664Y483107D01*
X61976Y483107D01*
X61947Y483103D01*
X61918Y483106D01*
X61842Y483088D01*
X61695Y483067D01*
X61638Y483042D01*
X61591Y483031D01*
X41779Y474903D01*
X41736Y474879D01*
X41690Y474862D01*
X41631Y474817D01*
X41533Y474760D01*
X41473Y474697D01*
X41423Y474658D01*
X33803Y466530D01*
X33798Y466522D01*
X33790Y466516D01*
X33760Y466468D01*
X33640Y466298D01*
X33627Y466260D01*
X33610Y466233D01*
X24974Y445913D01*
X24952Y445834D01*
X24927Y445779D01*
X17307Y417331D01*
X17303Y417292D01*
X17292Y417263D01*
X12720Y393895D01*
X12713Y393775D01*
X12701Y393700D01*
X12701Y365760D01*
X12701Y365759D01*
X12701Y365757D01*
X12703Y365745D01*
X12741Y365479D01*
X12753Y365451D01*
X12757Y365426D01*
X16821Y353742D01*
X16827Y353730D01*
X16829Y353720D01*
X21401Y341528D01*
X21436Y341463D01*
X21439Y341455D01*
X21443Y341439D01*
X21446Y341435D01*
X21454Y341411D01*
X26534Y331759D01*
X26535Y331757D01*
X26536Y331754D01*
X26552Y331733D01*
X26700Y331529D01*
X26725Y331509D01*
X26741Y331488D01*
X33840Y324897D01*
X45510Y313226D01*
X45519Y313219D01*
X45525Y313212D01*
X58225Y301020D01*
X58344Y300934D01*
X58403Y300883D01*
X85327Y284627D01*
X85395Y284598D01*
X85441Y284568D01*
X111857Y272884D01*
X111917Y272867D01*
X111951Y272849D01*
X112000Y272841D01*
X112053Y272820D01*
X130849Y268756D01*
X130987Y268746D01*
X131064Y268733D01*
X146304Y268733D01*
X146313Y268734D01*
G37*
%LPC*%
G36*
X457784Y619249D02*
X457784Y619249D01*
X425923Y622789D01*
X413901Y626796D01*
X405899Y630797D01*
X394818Y638353D01*
X374621Y655015D01*
X362524Y670641D01*
X354958Y682242D01*
X346885Y698387D01*
X342858Y709967D01*
X338805Y726178D01*
X338800Y726192D01*
X338798Y726204D01*
X331178Y753636D01*
X331151Y753697D01*
X331134Y753762D01*
X331095Y753827D01*
X331075Y753873D01*
X337719Y753873D01*
X341554Y753106D01*
X341602Y753103D01*
X341639Y753093D01*
X397480Y746801D01*
X401947Y745312D01*
X409998Y741286D01*
X417606Y737228D01*
X417642Y737215D01*
X417667Y737198D01*
X432354Y730589D01*
X432452Y730561D01*
X432549Y730524D01*
X432588Y730521D01*
X432627Y730510D01*
X432730Y730510D01*
X432832Y730502D01*
X432871Y730510D01*
X432911Y730510D01*
X433010Y730538D01*
X433111Y730559D01*
X433146Y730577D01*
X433184Y730588D01*
X433271Y730643D01*
X433362Y730691D01*
X433391Y730718D01*
X433425Y730739D01*
X433494Y730816D01*
X433568Y730887D01*
X433585Y730918D01*
X433614Y730951D01*
X433697Y731124D01*
X433729Y731182D01*
X442901Y757552D01*
X446943Y766140D01*
X446960Y766197D01*
X446983Y766238D01*
X451001Y777791D01*
X459039Y789346D01*
X471209Y805572D01*
X490404Y829313D01*
X495597Y832775D01*
X498809Y828759D01*
X501010Y826008D01*
X505517Y813991D01*
X509553Y801379D01*
X513087Y781688D01*
X516127Y737103D01*
X513597Y694097D01*
X509061Y677970D01*
X505026Y665863D01*
X497487Y650283D01*
X481332Y630594D01*
X469992Y618761D01*
X457784Y619249D01*
G37*
%LPD*%
D10*
X138000Y272000D03*
D11*
X436000Y320000D03*
D12*
X114000Y324000D03*
D10*
X438000Y324000D03*
D13*
X112000Y328000D03*
D14*
X110000Y336000D03*
D15*
X108000Y344000D03*
X108000Y352000D03*
D16*
X106000Y360000D03*
X106000Y364000D03*
X102000Y376000D03*
X102000Y384000D03*
D17*
X544000Y412000D03*
D12*
X98000Y432000D03*
D18*
X98000Y436000D03*
X98000Y440000D03*
D19*
X96000Y444000D03*
D20*
X96000Y448000D03*
D21*
X94000Y452000D03*
D22*
X92000Y456000D03*
D23*
X92000Y460000D03*
D24*
X90000Y464000D03*
D25*
X88000Y468000D03*
D26*
X86000Y472000D03*
D27*
X84000Y476000D03*
D28*
X84000Y480000D03*
D29*
X430000Y580000D03*
D30*
X430000Y584000D03*
D23*
X432000Y588000D03*
D31*
X848000Y588000D03*
D21*
X434000Y592000D03*
D32*
X848000Y592000D03*
D19*
X432000Y596000D03*
D33*
X848000Y596000D03*
D12*
X434000Y600000D03*
D28*
X848000Y600000D03*
D34*
X434000Y604000D03*
D35*
X850000Y604000D03*
D14*
X434000Y608000D03*
D36*
X850000Y608000D03*
D16*
X434000Y612000D03*
D37*
X852000Y612000D03*
D23*
X400000Y616000D03*
D36*
X498000Y616000D03*
D38*
X850000Y616000D03*
D26*
X382000Y620000D03*
D39*
X504000Y620000D03*
D27*
X852000Y620000D03*
D40*
X374000Y624000D03*
D39*
X508000Y624000D03*
D41*
X852000Y624000D03*
X368000Y628000D03*
D36*
X510000Y628000D03*
D40*
X854000Y628000D03*
D27*
X364000Y632000D03*
D36*
X514000Y632000D03*
D42*
X856000Y632000D03*
D27*
X360000Y636000D03*
D39*
X516000Y636000D03*
D26*
X854000Y636000D03*
D38*
X354000Y640000D03*
D39*
X520000Y640000D03*
D43*
X856000Y640000D03*
D37*
X352000Y644000D03*
D39*
X524000Y644000D03*
D30*
X858000Y644000D03*
D37*
X348000Y648000D03*
D39*
X524000Y648000D03*
D25*
X860000Y648000D03*
D36*
X346000Y652000D03*
D39*
X528000Y652000D03*
D44*
X860000Y652000D03*
D36*
X342000Y656000D03*
D39*
X528000Y656000D03*
D24*
X862000Y656000D03*
D39*
X340000Y660000D03*
D35*
X530000Y660000D03*
D24*
X862000Y660000D03*
D35*
X338000Y664000D03*
D39*
X532000Y664000D03*
D23*
X864000Y664000D03*
D39*
X336000Y668000D03*
D35*
X534000Y668000D03*
D45*
X866000Y668000D03*
D35*
X334000Y672000D03*
D39*
X536000Y672000D03*
D21*
X866000Y672000D03*
D28*
X332000Y676000D03*
D39*
X536000Y676000D03*
D21*
X866000Y676000D03*
D28*
X332000Y680000D03*
D35*
X538000Y680000D03*
D20*
X868000Y680000D03*
D46*
X330000Y684000D03*
D35*
X538000Y684000D03*
D47*
X870000Y684000D03*
D46*
X330000Y688000D03*
D35*
X538000Y688000D03*
D19*
X872000Y688000D03*
D33*
X328000Y692000D03*
D39*
X540000Y692000D03*
D19*
X872000Y692000D03*
D33*
X328000Y696000D03*
D35*
X542000Y696000D03*
D18*
X874000Y696000D03*
D48*
X326000Y700000D03*
D35*
X542000Y700000D03*
D18*
X874000Y700000D03*
D48*
X326000Y704000D03*
D35*
X542000Y704000D03*
D49*
X876000Y704000D03*
D48*
X326000Y708000D03*
D35*
X542000Y708000D03*
D49*
X876000Y708000D03*
D32*
X324000Y712000D03*
D35*
X542000Y712000D03*
D12*
X878000Y712000D03*
D32*
X324000Y716000D03*
D35*
X542000Y716000D03*
D12*
X878000Y716000D03*
D32*
X324000Y720000D03*
D35*
X542000Y720000D03*
D13*
X880000Y720000D03*
D32*
X324000Y724000D03*
D35*
X542000Y724000D03*
D13*
X880000Y724000D03*
D50*
X322000Y728000D03*
D35*
X542000Y728000D03*
D13*
X880000Y728000D03*
D50*
X322000Y732000D03*
D35*
X542000Y732000D03*
D34*
X882000Y732000D03*
D50*
X322000Y736000D03*
D11*
X428000Y736000D03*
D35*
X542000Y736000D03*
D34*
X882000Y736000D03*
D31*
X320000Y740000D03*
D10*
X426000Y740000D03*
D35*
X542000Y740000D03*
D34*
X882000Y740000D03*
D10*
X322000Y744000D03*
D50*
X422000Y744000D03*
D28*
X540000Y744000D03*
D51*
X884000Y744000D03*
D10*
X322000Y748000D03*
D33*
X420000Y748000D03*
D28*
X540000Y748000D03*
D51*
X884000Y748000D03*
D10*
X322000Y752000D03*
D35*
X414000Y752000D03*
D28*
X540000Y752000D03*
D34*
X886000Y752000D03*
D31*
X324000Y756000D03*
D42*
X396000Y756000D03*
D28*
X540000Y756000D03*
D34*
X886000Y756000D03*
D22*
X380000Y760000D03*
D28*
X540000Y760000D03*
D34*
X886000Y760000D03*
D22*
X380000Y764000D03*
D28*
X540000Y764000D03*
D51*
X888000Y764000D03*
D21*
X382000Y768000D03*
D46*
X538000Y768000D03*
D34*
X890000Y768000D03*
D22*
X384000Y772000D03*
D46*
X538000Y772000D03*
D34*
X890000Y772000D03*
D22*
X384000Y776000D03*
D46*
X538000Y776000D03*
D34*
X890000Y776000D03*
D22*
X388000Y780000D03*
D33*
X536000Y780000D03*
D34*
X890000Y780000D03*
D22*
X388000Y784000D03*
D46*
X534000Y784000D03*
D51*
X892000Y784000D03*
D22*
X392000Y788000D03*
D33*
X532000Y788000D03*
D34*
X894000Y788000D03*
D21*
X394000Y792000D03*
D33*
X532000Y792000D03*
D34*
X894000Y792000D03*
D22*
X396000Y796000D03*
D48*
X530000Y796000D03*
D13*
X896000Y796000D03*
D22*
X400000Y800000D03*
D48*
X530000Y800000D03*
D13*
X896000Y800000D03*
D21*
X402000Y804000D03*
D48*
X526000Y804000D03*
D13*
X896000Y804000D03*
D21*
X406000Y808000D03*
D32*
X524000Y808000D03*
D12*
X898000Y808000D03*
D22*
X408000Y812000D03*
D50*
X522000Y812000D03*
D49*
X900000Y812000D03*
D22*
X412000Y816000D03*
D50*
X518000Y816000D03*
D49*
X900000Y816000D03*
D22*
X416000Y820000D03*
D31*
X516000Y820000D03*
D18*
X902000Y820000D03*
D22*
X420000Y824000D03*
D10*
X514000Y824000D03*
D19*
X900000Y824000D03*
D22*
X424000Y828000D03*
D10*
X510000Y828000D03*
D47*
X902000Y828000D03*
D45*
X430000Y832000D03*
D52*
X508000Y832000D03*
D20*
X904000Y832000D03*
X444000Y836000D03*
X904000Y836000D03*
D22*
X445080Y840000D03*
X904000Y840000D03*
D24*
X443080Y844000D03*
D45*
X906000Y844000D03*
D24*
X906000Y848000D03*
X906000Y852000D03*
D25*
X908000Y856000D03*
D43*
X908000Y860000D03*
D40*
X910000Y864000D03*
D38*
X910000Y868000D03*
D36*
X910000Y872000D03*
D46*
X910000Y876000D03*
D10*
X906000Y880000D03*
D29*
X441430Y847970D03*
D35*
X440670Y851060D03*
D53*
X603188Y379984D02*
X603190Y380049D01*
X603196Y380114D01*
X603206Y380178D01*
X603219Y380242D01*
X603237Y380305D01*
X603258Y380366D01*
X603283Y380426D01*
X603311Y380485D01*
X603343Y380542D01*
X603379Y380596D01*
X603417Y380649D01*
X603459Y380699D01*
X603504Y380746D01*
X603551Y380791D01*
X603601Y380833D01*
X603654Y380871D01*
X603708Y380907D01*
X603765Y380939D01*
X603824Y380967D01*
X603884Y380992D01*
X603945Y381013D01*
X604008Y381031D01*
X604072Y381044D01*
X604136Y381054D01*
X604201Y381060D01*
X604266Y381062D01*
X604331Y381060D01*
X604396Y381054D01*
X604460Y381044D01*
X604524Y381031D01*
X604587Y381013D01*
X604648Y380992D01*
X604708Y380967D01*
X604767Y380939D01*
X604824Y380907D01*
X604878Y380871D01*
X604931Y380833D01*
X604981Y380791D01*
X605028Y380746D01*
X605073Y380699D01*
X605115Y380649D01*
X605153Y380596D01*
X605189Y380542D01*
X605221Y380485D01*
X605249Y380426D01*
X605274Y380366D01*
X605295Y380305D01*
X605313Y380242D01*
X605326Y380178D01*
X605336Y380114D01*
X605342Y380049D01*
X605344Y379984D01*
X605342Y379919D01*
X605336Y379854D01*
X605326Y379790D01*
X605313Y379726D01*
X605295Y379663D01*
X605274Y379602D01*
X605249Y379542D01*
X605221Y379483D01*
X605189Y379426D01*
X605153Y379372D01*
X605115Y379319D01*
X605073Y379269D01*
X605028Y379222D01*
X604981Y379177D01*
X604931Y379135D01*
X604878Y379097D01*
X604824Y379061D01*
X604767Y379029D01*
X604708Y379001D01*
X604648Y378976D01*
X604587Y378955D01*
X604524Y378937D01*
X604460Y378924D01*
X604396Y378914D01*
X604331Y378908D01*
X604266Y378906D01*
X604201Y378908D01*
X604136Y378914D01*
X604072Y378924D01*
X604008Y378937D01*
X603945Y378955D01*
X603884Y378976D01*
X603824Y379001D01*
X603765Y379029D01*
X603708Y379061D01*
X603654Y379097D01*
X603601Y379135D01*
X603551Y379177D01*
X603504Y379222D01*
X603459Y379269D01*
X603417Y379319D01*
X603379Y379372D01*
X603343Y379426D01*
X603311Y379483D01*
X603283Y379542D01*
X603258Y379602D01*
X603237Y379663D01*
X603219Y379726D01*
X603206Y379790D01*
X603196Y379854D01*
X603190Y379919D01*
X603188Y379984D01*
X417768Y305816D02*
X417770Y305881D01*
X417776Y305946D01*
X417786Y306010D01*
X417799Y306074D01*
X417817Y306137D01*
X417838Y306198D01*
X417863Y306258D01*
X417891Y306317D01*
X417923Y306374D01*
X417959Y306428D01*
X417997Y306481D01*
X418039Y306531D01*
X418084Y306578D01*
X418131Y306623D01*
X418181Y306665D01*
X418234Y306703D01*
X418288Y306739D01*
X418345Y306771D01*
X418404Y306799D01*
X418464Y306824D01*
X418525Y306845D01*
X418588Y306863D01*
X418652Y306876D01*
X418716Y306886D01*
X418781Y306892D01*
X418846Y306894D01*
X418911Y306892D01*
X418976Y306886D01*
X419040Y306876D01*
X419104Y306863D01*
X419167Y306845D01*
X419228Y306824D01*
X419288Y306799D01*
X419347Y306771D01*
X419404Y306739D01*
X419458Y306703D01*
X419511Y306665D01*
X419561Y306623D01*
X419608Y306578D01*
X419653Y306531D01*
X419695Y306481D01*
X419733Y306428D01*
X419769Y306374D01*
X419801Y306317D01*
X419829Y306258D01*
X419854Y306198D01*
X419875Y306137D01*
X419893Y306074D01*
X419906Y306010D01*
X419916Y305946D01*
X419922Y305881D01*
X419924Y305816D01*
X419922Y305751D01*
X419916Y305686D01*
X419906Y305622D01*
X419893Y305558D01*
X419875Y305495D01*
X419854Y305434D01*
X419829Y305374D01*
X419801Y305315D01*
X419769Y305258D01*
X419733Y305204D01*
X419695Y305151D01*
X419653Y305101D01*
X419608Y305054D01*
X419561Y305009D01*
X419511Y304967D01*
X419458Y304929D01*
X419404Y304893D01*
X419347Y304861D01*
X419288Y304833D01*
X419228Y304808D01*
X419167Y304787D01*
X419104Y304769D01*
X419040Y304756D01*
X418976Y304746D01*
X418911Y304740D01*
X418846Y304738D01*
X418781Y304740D01*
X418716Y304746D01*
X418652Y304756D01*
X418588Y304769D01*
X418525Y304787D01*
X418464Y304808D01*
X418404Y304833D01*
X418345Y304861D01*
X418288Y304893D01*
X418234Y304929D01*
X418181Y304967D01*
X418131Y305009D01*
X418084Y305054D01*
X418039Y305101D01*
X417997Y305151D01*
X417959Y305204D01*
X417923Y305258D01*
X417891Y305315D01*
X417863Y305374D01*
X417838Y305434D01*
X417817Y305495D01*
X417799Y305558D01*
X417786Y305622D01*
X417776Y305686D01*
X417770Y305751D01*
X417768Y305816D01*
X286704Y267208D02*
X286706Y267273D01*
X286712Y267338D01*
X286722Y267402D01*
X286735Y267466D01*
X286753Y267529D01*
X286774Y267590D01*
X286799Y267650D01*
X286827Y267709D01*
X286859Y267766D01*
X286895Y267820D01*
X286933Y267873D01*
X286975Y267923D01*
X287020Y267970D01*
X287067Y268015D01*
X287117Y268057D01*
X287170Y268095D01*
X287224Y268131D01*
X287281Y268163D01*
X287340Y268191D01*
X287400Y268216D01*
X287461Y268237D01*
X287524Y268255D01*
X287588Y268268D01*
X287652Y268278D01*
X287717Y268284D01*
X287782Y268286D01*
X287847Y268284D01*
X287912Y268278D01*
X287976Y268268D01*
X288040Y268255D01*
X288103Y268237D01*
X288164Y268216D01*
X288224Y268191D01*
X288283Y268163D01*
X288340Y268131D01*
X288394Y268095D01*
X288447Y268057D01*
X288497Y268015D01*
X288544Y267970D01*
X288589Y267923D01*
X288631Y267873D01*
X288669Y267820D01*
X288705Y267766D01*
X288737Y267709D01*
X288765Y267650D01*
X288790Y267590D01*
X288811Y267529D01*
X288829Y267466D01*
X288842Y267402D01*
X288852Y267338D01*
X288858Y267273D01*
X288860Y267208D01*
X288858Y267143D01*
X288852Y267078D01*
X288842Y267014D01*
X288829Y266950D01*
X288811Y266887D01*
X288790Y266826D01*
X288765Y266766D01*
X288737Y266707D01*
X288705Y266650D01*
X288669Y266596D01*
X288631Y266543D01*
X288589Y266493D01*
X288544Y266446D01*
X288497Y266401D01*
X288447Y266359D01*
X288394Y266321D01*
X288340Y266285D01*
X288283Y266253D01*
X288224Y266225D01*
X288164Y266200D01*
X288103Y266179D01*
X288040Y266161D01*
X287976Y266148D01*
X287912Y266138D01*
X287847Y266132D01*
X287782Y266130D01*
X287717Y266132D01*
X287652Y266138D01*
X287588Y266148D01*
X287524Y266161D01*
X287461Y266179D01*
X287400Y266200D01*
X287340Y266225D01*
X287281Y266253D01*
X287224Y266285D01*
X287170Y266321D01*
X287117Y266359D01*
X287067Y266401D01*
X287020Y266446D01*
X286975Y266493D01*
X286933Y266543D01*
X286895Y266596D01*
X286859Y266650D01*
X286827Y266707D01*
X286799Y266766D01*
X286774Y266826D01*
X286753Y266887D01*
X286735Y266950D01*
X286722Y267014D01*
X286712Y267078D01*
X286706Y267143D01*
X286704Y267208D01*
X122112Y268478D02*
X122114Y268543D01*
X122120Y268608D01*
X122130Y268672D01*
X122143Y268736D01*
X122161Y268799D01*
X122182Y268860D01*
X122207Y268920D01*
X122235Y268979D01*
X122267Y269036D01*
X122303Y269090D01*
X122341Y269143D01*
X122383Y269193D01*
X122428Y269240D01*
X122475Y269285D01*
X122525Y269327D01*
X122578Y269365D01*
X122632Y269401D01*
X122689Y269433D01*
X122748Y269461D01*
X122808Y269486D01*
X122869Y269507D01*
X122932Y269525D01*
X122996Y269538D01*
X123060Y269548D01*
X123125Y269554D01*
X123190Y269556D01*
X123255Y269554D01*
X123320Y269548D01*
X123384Y269538D01*
X123448Y269525D01*
X123511Y269507D01*
X123572Y269486D01*
X123632Y269461D01*
X123691Y269433D01*
X123748Y269401D01*
X123802Y269365D01*
X123855Y269327D01*
X123905Y269285D01*
X123952Y269240D01*
X123997Y269193D01*
X124039Y269143D01*
X124077Y269090D01*
X124113Y269036D01*
X124145Y268979D01*
X124173Y268920D01*
X124198Y268860D01*
X124219Y268799D01*
X124237Y268736D01*
X124250Y268672D01*
X124260Y268608D01*
X124266Y268543D01*
X124268Y268478D01*
X124266Y268413D01*
X124260Y268348D01*
X124250Y268284D01*
X124237Y268220D01*
X124219Y268157D01*
X124198Y268096D01*
X124173Y268036D01*
X124145Y267977D01*
X124113Y267920D01*
X124077Y267866D01*
X124039Y267813D01*
X123997Y267763D01*
X123952Y267716D01*
X123905Y267671D01*
X123855Y267629D01*
X123802Y267591D01*
X123748Y267555D01*
X123691Y267523D01*
X123632Y267495D01*
X123572Y267470D01*
X123511Y267449D01*
X123448Y267431D01*
X123384Y267418D01*
X123320Y267408D01*
X123255Y267402D01*
X123190Y267400D01*
X123125Y267402D01*
X123060Y267408D01*
X122996Y267418D01*
X122932Y267431D01*
X122869Y267449D01*
X122808Y267470D01*
X122748Y267495D01*
X122689Y267523D01*
X122632Y267555D01*
X122578Y267591D01*
X122525Y267629D01*
X122475Y267671D01*
X122428Y267716D01*
X122383Y267763D01*
X122341Y267813D01*
X122303Y267866D01*
X122267Y267920D01*
X122235Y267977D01*
X122207Y268036D01*
X122182Y268096D01*
X122161Y268157D01*
X122143Y268220D01*
X122130Y268284D01*
X122120Y268348D01*
X122114Y268413D01*
X122112Y268478D01*
X15178Y354330D02*
X15180Y354395D01*
X15186Y354460D01*
X15196Y354524D01*
X15209Y354588D01*
X15227Y354651D01*
X15248Y354712D01*
X15273Y354772D01*
X15301Y354831D01*
X15333Y354888D01*
X15369Y354942D01*
X15407Y354995D01*
X15449Y355045D01*
X15494Y355092D01*
X15541Y355137D01*
X15591Y355179D01*
X15644Y355217D01*
X15698Y355253D01*
X15755Y355285D01*
X15814Y355313D01*
X15874Y355338D01*
X15935Y355359D01*
X15998Y355377D01*
X16062Y355390D01*
X16126Y355400D01*
X16191Y355406D01*
X16256Y355408D01*
X16321Y355406D01*
X16386Y355400D01*
X16450Y355390D01*
X16514Y355377D01*
X16577Y355359D01*
X16638Y355338D01*
X16698Y355313D01*
X16757Y355285D01*
X16814Y355253D01*
X16868Y355217D01*
X16921Y355179D01*
X16971Y355137D01*
X17018Y355092D01*
X17063Y355045D01*
X17105Y354995D01*
X17143Y354942D01*
X17179Y354888D01*
X17211Y354831D01*
X17239Y354772D01*
X17264Y354712D01*
X17285Y354651D01*
X17303Y354588D01*
X17316Y354524D01*
X17326Y354460D01*
X17332Y354395D01*
X17334Y354330D01*
X17332Y354265D01*
X17326Y354200D01*
X17316Y354136D01*
X17303Y354072D01*
X17285Y354009D01*
X17264Y353948D01*
X17239Y353888D01*
X17211Y353829D01*
X17179Y353772D01*
X17143Y353718D01*
X17105Y353665D01*
X17063Y353615D01*
X17018Y353568D01*
X16971Y353523D01*
X16921Y353481D01*
X16868Y353443D01*
X16814Y353407D01*
X16757Y353375D01*
X16698Y353347D01*
X16638Y353322D01*
X16577Y353301D01*
X16514Y353283D01*
X16450Y353270D01*
X16386Y353260D01*
X16321Y353254D01*
X16256Y353252D01*
X16191Y353254D01*
X16126Y353260D01*
X16062Y353270D01*
X15998Y353283D01*
X15935Y353301D01*
X15874Y353322D01*
X15814Y353347D01*
X15755Y353375D01*
X15698Y353407D01*
X15644Y353443D01*
X15591Y353481D01*
X15541Y353523D01*
X15494Y353568D01*
X15449Y353615D01*
X15407Y353665D01*
X15369Y353718D01*
X15333Y353772D01*
X15301Y353829D01*
X15273Y353888D01*
X15248Y353948D01*
X15227Y354009D01*
X15209Y354072D01*
X15196Y354136D01*
X15186Y354200D01*
X15180Y354265D01*
X15178Y354330D01*
X70296Y507238D02*
X70298Y507303D01*
X70304Y507368D01*
X70314Y507432D01*
X70327Y507496D01*
X70345Y507559D01*
X70366Y507620D01*
X70391Y507680D01*
X70419Y507739D01*
X70451Y507796D01*
X70487Y507850D01*
X70525Y507903D01*
X70567Y507953D01*
X70612Y508000D01*
X70659Y508045D01*
X70709Y508087D01*
X70762Y508125D01*
X70816Y508161D01*
X70873Y508193D01*
X70932Y508221D01*
X70992Y508246D01*
X71053Y508267D01*
X71116Y508285D01*
X71180Y508298D01*
X71244Y508308D01*
X71309Y508314D01*
X71374Y508316D01*
X71439Y508314D01*
X71504Y508308D01*
X71568Y508298D01*
X71632Y508285D01*
X71695Y508267D01*
X71756Y508246D01*
X71816Y508221D01*
X71875Y508193D01*
X71932Y508161D01*
X71986Y508125D01*
X72039Y508087D01*
X72089Y508045D01*
X72136Y508000D01*
X72181Y507953D01*
X72223Y507903D01*
X72261Y507850D01*
X72297Y507796D01*
X72329Y507739D01*
X72357Y507680D01*
X72382Y507620D01*
X72403Y507559D01*
X72421Y507496D01*
X72434Y507432D01*
X72444Y507368D01*
X72450Y507303D01*
X72452Y507238D01*
X72450Y507173D01*
X72444Y507108D01*
X72434Y507044D01*
X72421Y506980D01*
X72403Y506917D01*
X72382Y506856D01*
X72357Y506796D01*
X72329Y506737D01*
X72297Y506680D01*
X72261Y506626D01*
X72223Y506573D01*
X72181Y506523D01*
X72136Y506476D01*
X72089Y506431D01*
X72039Y506389D01*
X71986Y506351D01*
X71932Y506315D01*
X71875Y506283D01*
X71816Y506255D01*
X71756Y506230D01*
X71695Y506209D01*
X71632Y506191D01*
X71568Y506178D01*
X71504Y506168D01*
X71439Y506162D01*
X71374Y506160D01*
X71309Y506162D01*
X71244Y506168D01*
X71180Y506178D01*
X71116Y506191D01*
X71053Y506209D01*
X70992Y506230D01*
X70932Y506255D01*
X70873Y506283D01*
X70816Y506315D01*
X70762Y506351D01*
X70709Y506389D01*
X70659Y506431D01*
X70612Y506476D01*
X70567Y506523D01*
X70525Y506573D01*
X70487Y506626D01*
X70451Y506680D01*
X70419Y506737D01*
X70391Y506796D01*
X70366Y506856D01*
X70345Y506917D01*
X70327Y506980D01*
X70314Y507044D01*
X70304Y507108D01*
X70298Y507173D01*
X70296Y507238D01*
X131256Y560832D02*
X131258Y560897D01*
X131264Y560962D01*
X131274Y561026D01*
X131287Y561090D01*
X131305Y561153D01*
X131326Y561214D01*
X131351Y561274D01*
X131379Y561333D01*
X131411Y561390D01*
X131447Y561444D01*
X131485Y561497D01*
X131527Y561547D01*
X131572Y561594D01*
X131619Y561639D01*
X131669Y561681D01*
X131722Y561719D01*
X131776Y561755D01*
X131833Y561787D01*
X131892Y561815D01*
X131952Y561840D01*
X132013Y561861D01*
X132076Y561879D01*
X132140Y561892D01*
X132204Y561902D01*
X132269Y561908D01*
X132334Y561910D01*
X132399Y561908D01*
X132464Y561902D01*
X132528Y561892D01*
X132592Y561879D01*
X132655Y561861D01*
X132716Y561840D01*
X132776Y561815D01*
X132835Y561787D01*
X132892Y561755D01*
X132946Y561719D01*
X132999Y561681D01*
X133049Y561639D01*
X133096Y561594D01*
X133141Y561547D01*
X133183Y561497D01*
X133221Y561444D01*
X133257Y561390D01*
X133289Y561333D01*
X133317Y561274D01*
X133342Y561214D01*
X133363Y561153D01*
X133381Y561090D01*
X133394Y561026D01*
X133404Y560962D01*
X133410Y560897D01*
X133412Y560832D01*
X133410Y560767D01*
X133404Y560702D01*
X133394Y560638D01*
X133381Y560574D01*
X133363Y560511D01*
X133342Y560450D01*
X133317Y560390D01*
X133289Y560331D01*
X133257Y560274D01*
X133221Y560220D01*
X133183Y560167D01*
X133141Y560117D01*
X133096Y560070D01*
X133049Y560025D01*
X132999Y559983D01*
X132946Y559945D01*
X132892Y559909D01*
X132835Y559877D01*
X132776Y559849D01*
X132716Y559824D01*
X132655Y559803D01*
X132592Y559785D01*
X132528Y559772D01*
X132464Y559762D01*
X132399Y559756D01*
X132334Y559754D01*
X132269Y559756D01*
X132204Y559762D01*
X132140Y559772D01*
X132076Y559785D01*
X132013Y559803D01*
X131952Y559824D01*
X131892Y559849D01*
X131833Y559877D01*
X131776Y559909D01*
X131722Y559945D01*
X131669Y559983D01*
X131619Y560025D01*
X131572Y560070D01*
X131527Y560117D01*
X131485Y560167D01*
X131447Y560220D01*
X131411Y560274D01*
X131379Y560331D01*
X131351Y560390D01*
X131326Y560450D01*
X131305Y560511D01*
X131287Y560574D01*
X131274Y560638D01*
X131264Y560702D01*
X131258Y560767D01*
X131256Y560832D01*
X190438Y651256D02*
X190440Y651321D01*
X190446Y651386D01*
X190456Y651450D01*
X190469Y651514D01*
X190487Y651577D01*
X190508Y651638D01*
X190533Y651698D01*
X190561Y651757D01*
X190593Y651814D01*
X190629Y651868D01*
X190667Y651921D01*
X190709Y651971D01*
X190754Y652018D01*
X190801Y652063D01*
X190851Y652105D01*
X190904Y652143D01*
X190958Y652179D01*
X191015Y652211D01*
X191074Y652239D01*
X191134Y652264D01*
X191195Y652285D01*
X191258Y652303D01*
X191322Y652316D01*
X191386Y652326D01*
X191451Y652332D01*
X191516Y652334D01*
X191581Y652332D01*
X191646Y652326D01*
X191710Y652316D01*
X191774Y652303D01*
X191837Y652285D01*
X191898Y652264D01*
X191958Y652239D01*
X192017Y652211D01*
X192074Y652179D01*
X192128Y652143D01*
X192181Y652105D01*
X192231Y652063D01*
X192278Y652018D01*
X192323Y651971D01*
X192365Y651921D01*
X192403Y651868D01*
X192439Y651814D01*
X192471Y651757D01*
X192499Y651698D01*
X192524Y651638D01*
X192545Y651577D01*
X192563Y651514D01*
X192576Y651450D01*
X192586Y651386D01*
X192592Y651321D01*
X192594Y651256D01*
X192592Y651191D01*
X192586Y651126D01*
X192576Y651062D01*
X192563Y650998D01*
X192545Y650935D01*
X192524Y650874D01*
X192499Y650814D01*
X192471Y650755D01*
X192439Y650698D01*
X192403Y650644D01*
X192365Y650591D01*
X192323Y650541D01*
X192278Y650494D01*
X192231Y650449D01*
X192181Y650407D01*
X192128Y650369D01*
X192074Y650333D01*
X192017Y650301D01*
X191958Y650273D01*
X191898Y650248D01*
X191837Y650227D01*
X191774Y650209D01*
X191710Y650196D01*
X191646Y650186D01*
X191581Y650180D01*
X191516Y650178D01*
X191451Y650180D01*
X191386Y650186D01*
X191322Y650196D01*
X191258Y650209D01*
X191195Y650227D01*
X191134Y650248D01*
X191074Y650273D01*
X191015Y650301D01*
X190958Y650333D01*
X190904Y650369D01*
X190851Y650407D01*
X190801Y650449D01*
X190754Y650494D01*
X190709Y650541D01*
X190667Y650591D01*
X190629Y650644D01*
X190593Y650698D01*
X190561Y650755D01*
X190533Y650814D01*
X190508Y650874D01*
X190487Y650935D01*
X190469Y650998D01*
X190456Y651062D01*
X190446Y651126D01*
X190440Y651191D01*
X190438Y651256D01*
X222188Y784860D02*
X222190Y784925D01*
X222196Y784990D01*
X222206Y785054D01*
X222219Y785118D01*
X222237Y785181D01*
X222258Y785242D01*
X222283Y785302D01*
X222311Y785361D01*
X222343Y785418D01*
X222379Y785472D01*
X222417Y785525D01*
X222459Y785575D01*
X222504Y785622D01*
X222551Y785667D01*
X222601Y785709D01*
X222654Y785747D01*
X222708Y785783D01*
X222765Y785815D01*
X222824Y785843D01*
X222884Y785868D01*
X222945Y785889D01*
X223008Y785907D01*
X223072Y785920D01*
X223136Y785930D01*
X223201Y785936D01*
X223266Y785938D01*
X223331Y785936D01*
X223396Y785930D01*
X223460Y785920D01*
X223524Y785907D01*
X223587Y785889D01*
X223648Y785868D01*
X223708Y785843D01*
X223767Y785815D01*
X223824Y785783D01*
X223878Y785747D01*
X223931Y785709D01*
X223981Y785667D01*
X224028Y785622D01*
X224073Y785575D01*
X224115Y785525D01*
X224153Y785472D01*
X224189Y785418D01*
X224221Y785361D01*
X224249Y785302D01*
X224274Y785242D01*
X224295Y785181D01*
X224313Y785118D01*
X224326Y785054D01*
X224336Y784990D01*
X224342Y784925D01*
X224344Y784860D01*
X224342Y784795D01*
X224336Y784730D01*
X224326Y784666D01*
X224313Y784602D01*
X224295Y784539D01*
X224274Y784478D01*
X224249Y784418D01*
X224221Y784359D01*
X224189Y784302D01*
X224153Y784248D01*
X224115Y784195D01*
X224073Y784145D01*
X224028Y784098D01*
X223981Y784053D01*
X223931Y784011D01*
X223878Y783973D01*
X223824Y783937D01*
X223767Y783905D01*
X223708Y783877D01*
X223648Y783852D01*
X223587Y783831D01*
X223524Y783813D01*
X223460Y783800D01*
X223396Y783790D01*
X223331Y783784D01*
X223266Y783782D01*
X223201Y783784D01*
X223136Y783790D01*
X223072Y783800D01*
X223008Y783813D01*
X222945Y783831D01*
X222884Y783852D01*
X222824Y783877D01*
X222765Y783905D01*
X222708Y783937D01*
X222654Y783973D01*
X222601Y784011D01*
X222551Y784053D01*
X222504Y784098D01*
X222459Y784145D01*
X222417Y784195D01*
X222379Y784248D01*
X222343Y784302D01*
X222311Y784359D01*
X222283Y784418D01*
X222258Y784478D01*
X222237Y784539D01*
X222219Y784602D01*
X222206Y784666D01*
X222196Y784730D01*
X222190Y784795D01*
X222188Y784860D01*
X245048Y858012D02*
X245050Y858077D01*
X245056Y858142D01*
X245066Y858206D01*
X245079Y858270D01*
X245097Y858333D01*
X245118Y858394D01*
X245143Y858454D01*
X245171Y858513D01*
X245203Y858570D01*
X245239Y858624D01*
X245277Y858677D01*
X245319Y858727D01*
X245364Y858774D01*
X245411Y858819D01*
X245461Y858861D01*
X245514Y858899D01*
X245568Y858935D01*
X245625Y858967D01*
X245684Y858995D01*
X245744Y859020D01*
X245805Y859041D01*
X245868Y859059D01*
X245932Y859072D01*
X245996Y859082D01*
X246061Y859088D01*
X246126Y859090D01*
X246191Y859088D01*
X246256Y859082D01*
X246320Y859072D01*
X246384Y859059D01*
X246447Y859041D01*
X246508Y859020D01*
X246568Y858995D01*
X246627Y858967D01*
X246684Y858935D01*
X246738Y858899D01*
X246791Y858861D01*
X246841Y858819D01*
X246888Y858774D01*
X246933Y858727D01*
X246975Y858677D01*
X247013Y858624D01*
X247049Y858570D01*
X247081Y858513D01*
X247109Y858454D01*
X247134Y858394D01*
X247155Y858333D01*
X247173Y858270D01*
X247186Y858206D01*
X247196Y858142D01*
X247202Y858077D01*
X247204Y858012D01*
X247202Y857947D01*
X247196Y857882D01*
X247186Y857818D01*
X247173Y857754D01*
X247155Y857691D01*
X247134Y857630D01*
X247109Y857570D01*
X247081Y857511D01*
X247049Y857454D01*
X247013Y857400D01*
X246975Y857347D01*
X246933Y857297D01*
X246888Y857250D01*
X246841Y857205D01*
X246791Y857163D01*
X246738Y857125D01*
X246684Y857089D01*
X246627Y857057D01*
X246568Y857029D01*
X246508Y857004D01*
X246447Y856983D01*
X246384Y856965D01*
X246320Y856952D01*
X246256Y856942D01*
X246191Y856936D01*
X246126Y856934D01*
X246061Y856936D01*
X245996Y856942D01*
X245932Y856952D01*
X245868Y856965D01*
X245805Y856983D01*
X245744Y857004D01*
X245684Y857029D01*
X245625Y857057D01*
X245568Y857089D01*
X245514Y857125D01*
X245461Y857163D01*
X245411Y857205D01*
X245364Y857250D01*
X245319Y857297D01*
X245277Y857347D01*
X245239Y857400D01*
X245203Y857454D01*
X245171Y857511D01*
X245143Y857570D01*
X245118Y857630D01*
X245097Y857691D01*
X245079Y857754D01*
X245066Y857818D01*
X245056Y857882D01*
X245050Y857947D01*
X245048Y858012D01*
X385256Y896620D02*
X385258Y896685D01*
X385264Y896750D01*
X385274Y896814D01*
X385287Y896878D01*
X385305Y896941D01*
X385326Y897002D01*
X385351Y897062D01*
X385379Y897121D01*
X385411Y897178D01*
X385447Y897232D01*
X385485Y897285D01*
X385527Y897335D01*
X385572Y897382D01*
X385619Y897427D01*
X385669Y897469D01*
X385722Y897507D01*
X385776Y897543D01*
X385833Y897575D01*
X385892Y897603D01*
X385952Y897628D01*
X386013Y897649D01*
X386076Y897667D01*
X386140Y897680D01*
X386204Y897690D01*
X386269Y897696D01*
X386334Y897698D01*
X386399Y897696D01*
X386464Y897690D01*
X386528Y897680D01*
X386592Y897667D01*
X386655Y897649D01*
X386716Y897628D01*
X386776Y897603D01*
X386835Y897575D01*
X386892Y897543D01*
X386946Y897507D01*
X386999Y897469D01*
X387049Y897427D01*
X387096Y897382D01*
X387141Y897335D01*
X387183Y897285D01*
X387221Y897232D01*
X387257Y897178D01*
X387289Y897121D01*
X387317Y897062D01*
X387342Y897002D01*
X387363Y896941D01*
X387381Y896878D01*
X387394Y896814D01*
X387404Y896750D01*
X387410Y896685D01*
X387412Y896620D01*
X387410Y896555D01*
X387404Y896490D01*
X387394Y896426D01*
X387381Y896362D01*
X387363Y896299D01*
X387342Y896238D01*
X387317Y896178D01*
X387289Y896119D01*
X387257Y896062D01*
X387221Y896008D01*
X387183Y895955D01*
X387141Y895905D01*
X387096Y895858D01*
X387049Y895813D01*
X386999Y895771D01*
X386946Y895733D01*
X386892Y895697D01*
X386835Y895665D01*
X386776Y895637D01*
X386716Y895612D01*
X386655Y895591D01*
X386592Y895573D01*
X386528Y895560D01*
X386464Y895550D01*
X386399Y895544D01*
X386334Y895542D01*
X386269Y895544D01*
X386204Y895550D01*
X386140Y895560D01*
X386076Y895573D01*
X386013Y895591D01*
X385952Y895612D01*
X385892Y895637D01*
X385833Y895665D01*
X385776Y895697D01*
X385722Y895733D01*
X385669Y895771D01*
X385619Y895813D01*
X385572Y895858D01*
X385527Y895905D01*
X385485Y895955D01*
X385447Y896008D01*
X385411Y896062D01*
X385379Y896119D01*
X385351Y896178D01*
X385326Y896238D01*
X385305Y896299D01*
X385287Y896362D01*
X385274Y896426D01*
X385264Y896490D01*
X385258Y896555D01*
X385256Y896620D01*
X467552Y980694D02*
X467554Y980759D01*
X467560Y980824D01*
X467570Y980888D01*
X467583Y980952D01*
X467601Y981015D01*
X467622Y981076D01*
X467647Y981136D01*
X467675Y981195D01*
X467707Y981252D01*
X467743Y981306D01*
X467781Y981359D01*
X467823Y981409D01*
X467868Y981456D01*
X467915Y981501D01*
X467965Y981543D01*
X468018Y981581D01*
X468072Y981617D01*
X468129Y981649D01*
X468188Y981677D01*
X468248Y981702D01*
X468309Y981723D01*
X468372Y981741D01*
X468436Y981754D01*
X468500Y981764D01*
X468565Y981770D01*
X468630Y981772D01*
X468695Y981770D01*
X468760Y981764D01*
X468824Y981754D01*
X468888Y981741D01*
X468951Y981723D01*
X469012Y981702D01*
X469072Y981677D01*
X469131Y981649D01*
X469188Y981617D01*
X469242Y981581D01*
X469295Y981543D01*
X469345Y981501D01*
X469392Y981456D01*
X469437Y981409D01*
X469479Y981359D01*
X469517Y981306D01*
X469553Y981252D01*
X469585Y981195D01*
X469613Y981136D01*
X469638Y981076D01*
X469659Y981015D01*
X469677Y980952D01*
X469690Y980888D01*
X469700Y980824D01*
X469706Y980759D01*
X469708Y980694D01*
X469706Y980629D01*
X469700Y980564D01*
X469690Y980500D01*
X469677Y980436D01*
X469659Y980373D01*
X469638Y980312D01*
X469613Y980252D01*
X469585Y980193D01*
X469553Y980136D01*
X469517Y980082D01*
X469479Y980029D01*
X469437Y979979D01*
X469392Y979932D01*
X469345Y979887D01*
X469295Y979845D01*
X469242Y979807D01*
X469188Y979771D01*
X469131Y979739D01*
X469072Y979711D01*
X469012Y979686D01*
X468951Y979665D01*
X468888Y979647D01*
X468824Y979634D01*
X468760Y979624D01*
X468695Y979618D01*
X468630Y979616D01*
X468565Y979618D01*
X468500Y979624D01*
X468436Y979634D01*
X468372Y979647D01*
X468309Y979665D01*
X468248Y979686D01*
X468188Y979711D01*
X468129Y979739D01*
X468072Y979771D01*
X468018Y979807D01*
X467965Y979845D01*
X467915Y979887D01*
X467868Y979932D01*
X467823Y979979D01*
X467781Y980029D01*
X467743Y980082D01*
X467707Y980136D01*
X467675Y980193D01*
X467647Y980252D01*
X467622Y980312D01*
X467601Y980373D01*
X467583Y980436D01*
X467570Y980500D01*
X467560Y980564D01*
X467554Y980629D01*
X467552Y980694D01*
X545022Y969518D02*
X545024Y969583D01*
X545030Y969648D01*
X545040Y969712D01*
X545053Y969776D01*
X545071Y969839D01*
X545092Y969900D01*
X545117Y969960D01*
X545145Y970019D01*
X545177Y970076D01*
X545213Y970130D01*
X545251Y970183D01*
X545293Y970233D01*
X545338Y970280D01*
X545385Y970325D01*
X545435Y970367D01*
X545488Y970405D01*
X545542Y970441D01*
X545599Y970473D01*
X545658Y970501D01*
X545718Y970526D01*
X545779Y970547D01*
X545842Y970565D01*
X545906Y970578D01*
X545970Y970588D01*
X546035Y970594D01*
X546100Y970596D01*
X546165Y970594D01*
X546230Y970588D01*
X546294Y970578D01*
X546358Y970565D01*
X546421Y970547D01*
X546482Y970526D01*
X546542Y970501D01*
X546601Y970473D01*
X546658Y970441D01*
X546712Y970405D01*
X546765Y970367D01*
X546815Y970325D01*
X546862Y970280D01*
X546907Y970233D01*
X546949Y970183D01*
X546987Y970130D01*
X547023Y970076D01*
X547055Y970019D01*
X547083Y969960D01*
X547108Y969900D01*
X547129Y969839D01*
X547147Y969776D01*
X547160Y969712D01*
X547170Y969648D01*
X547176Y969583D01*
X547178Y969518D01*
X547176Y969453D01*
X547170Y969388D01*
X547160Y969324D01*
X547147Y969260D01*
X547129Y969197D01*
X547108Y969136D01*
X547083Y969076D01*
X547055Y969017D01*
X547023Y968960D01*
X546987Y968906D01*
X546949Y968853D01*
X546907Y968803D01*
X546862Y968756D01*
X546815Y968711D01*
X546765Y968669D01*
X546712Y968631D01*
X546658Y968595D01*
X546601Y968563D01*
X546542Y968535D01*
X546482Y968510D01*
X546421Y968489D01*
X546358Y968471D01*
X546294Y968458D01*
X546230Y968448D01*
X546165Y968442D01*
X546100Y968440D01*
X546035Y968442D01*
X545970Y968448D01*
X545906Y968458D01*
X545842Y968471D01*
X545779Y968489D01*
X545718Y968510D01*
X545658Y968535D01*
X545599Y968563D01*
X545542Y968595D01*
X545488Y968631D01*
X545435Y968669D01*
X545385Y968711D01*
X545338Y968756D01*
X545293Y968803D01*
X545251Y968853D01*
X545213Y968906D01*
X545177Y968960D01*
X545145Y969017D01*
X545117Y969076D01*
X545092Y969136D01*
X545071Y969197D01*
X545053Y969260D01*
X545040Y969324D01*
X545030Y969388D01*
X545024Y969453D01*
X545022Y969518D01*
X642050Y924560D02*
X642052Y924625D01*
X642058Y924690D01*
X642068Y924754D01*
X642081Y924818D01*
X642099Y924881D01*
X642120Y924942D01*
X642145Y925002D01*
X642173Y925061D01*
X642205Y925118D01*
X642241Y925172D01*
X642279Y925225D01*
X642321Y925275D01*
X642366Y925322D01*
X642413Y925367D01*
X642463Y925409D01*
X642516Y925447D01*
X642570Y925483D01*
X642627Y925515D01*
X642686Y925543D01*
X642746Y925568D01*
X642807Y925589D01*
X642870Y925607D01*
X642934Y925620D01*
X642998Y925630D01*
X643063Y925636D01*
X643128Y925638D01*
X643193Y925636D01*
X643258Y925630D01*
X643322Y925620D01*
X643386Y925607D01*
X643449Y925589D01*
X643510Y925568D01*
X643570Y925543D01*
X643629Y925515D01*
X643686Y925483D01*
X643740Y925447D01*
X643793Y925409D01*
X643843Y925367D01*
X643890Y925322D01*
X643935Y925275D01*
X643977Y925225D01*
X644015Y925172D01*
X644051Y925118D01*
X644083Y925061D01*
X644111Y925002D01*
X644136Y924942D01*
X644157Y924881D01*
X644175Y924818D01*
X644188Y924754D01*
X644198Y924690D01*
X644204Y924625D01*
X644206Y924560D01*
X644204Y924495D01*
X644198Y924430D01*
X644188Y924366D01*
X644175Y924302D01*
X644157Y924239D01*
X644136Y924178D01*
X644111Y924118D01*
X644083Y924059D01*
X644051Y924002D01*
X644015Y923948D01*
X643977Y923895D01*
X643935Y923845D01*
X643890Y923798D01*
X643843Y923753D01*
X643793Y923711D01*
X643740Y923673D01*
X643686Y923637D01*
X643629Y923605D01*
X643570Y923577D01*
X643510Y923552D01*
X643449Y923531D01*
X643386Y923513D01*
X643322Y923500D01*
X643258Y923490D01*
X643193Y923484D01*
X643128Y923482D01*
X643063Y923484D01*
X642998Y923490D01*
X642934Y923500D01*
X642870Y923513D01*
X642807Y923531D01*
X642746Y923552D01*
X642686Y923577D01*
X642627Y923605D01*
X642570Y923637D01*
X642516Y923673D01*
X642463Y923711D01*
X642413Y923753D01*
X642366Y923798D01*
X642321Y923845D01*
X642279Y923895D01*
X642241Y923948D01*
X642205Y924002D01*
X642173Y924059D01*
X642145Y924118D01*
X642120Y924178D01*
X642099Y924239D01*
X642081Y924302D01*
X642068Y924366D01*
X642058Y924430D01*
X642052Y924495D01*
X642050Y924560D01*
X757620Y859790D02*
X757622Y859855D01*
X757628Y859920D01*
X757638Y859984D01*
X757651Y860048D01*
X757669Y860111D01*
X757690Y860172D01*
X757715Y860232D01*
X757743Y860291D01*
X757775Y860348D01*
X757811Y860402D01*
X757849Y860455D01*
X757891Y860505D01*
X757936Y860552D01*
X757983Y860597D01*
X758033Y860639D01*
X758086Y860677D01*
X758140Y860713D01*
X758197Y860745D01*
X758256Y860773D01*
X758316Y860798D01*
X758377Y860819D01*
X758440Y860837D01*
X758504Y860850D01*
X758568Y860860D01*
X758633Y860866D01*
X758698Y860868D01*
X758763Y860866D01*
X758828Y860860D01*
X758892Y860850D01*
X758956Y860837D01*
X759019Y860819D01*
X759080Y860798D01*
X759140Y860773D01*
X759199Y860745D01*
X759256Y860713D01*
X759310Y860677D01*
X759363Y860639D01*
X759413Y860597D01*
X759460Y860552D01*
X759505Y860505D01*
X759547Y860455D01*
X759585Y860402D01*
X759621Y860348D01*
X759653Y860291D01*
X759681Y860232D01*
X759706Y860172D01*
X759727Y860111D01*
X759745Y860048D01*
X759758Y859984D01*
X759768Y859920D01*
X759774Y859855D01*
X759776Y859790D01*
X759774Y859725D01*
X759768Y859660D01*
X759758Y859596D01*
X759745Y859532D01*
X759727Y859469D01*
X759706Y859408D01*
X759681Y859348D01*
X759653Y859289D01*
X759621Y859232D01*
X759585Y859178D01*
X759547Y859125D01*
X759505Y859075D01*
X759460Y859028D01*
X759413Y858983D01*
X759363Y858941D01*
X759310Y858903D01*
X759256Y858867D01*
X759199Y858835D01*
X759140Y858807D01*
X759080Y858782D01*
X759019Y858761D01*
X758956Y858743D01*
X758892Y858730D01*
X758828Y858720D01*
X758763Y858714D01*
X758698Y858712D01*
X758633Y858714D01*
X758568Y858720D01*
X758504Y858730D01*
X758440Y858743D01*
X758377Y858761D01*
X758316Y858782D01*
X758256Y858807D01*
X758197Y858835D01*
X758140Y858867D01*
X758086Y858903D01*
X758033Y858941D01*
X757983Y858983D01*
X757936Y859028D01*
X757891Y859075D01*
X757849Y859125D01*
X757811Y859178D01*
X757775Y859232D01*
X757743Y859289D01*
X757715Y859348D01*
X757690Y859408D01*
X757669Y859469D01*
X757651Y859532D01*
X757638Y859596D01*
X757628Y859660D01*
X757622Y859725D01*
X757620Y859790D01*
X894526Y892810D02*
X894528Y892875D01*
X894534Y892940D01*
X894544Y893004D01*
X894557Y893068D01*
X894575Y893131D01*
X894596Y893192D01*
X894621Y893252D01*
X894649Y893311D01*
X894681Y893368D01*
X894717Y893422D01*
X894755Y893475D01*
X894797Y893525D01*
X894842Y893572D01*
X894889Y893617D01*
X894939Y893659D01*
X894992Y893697D01*
X895046Y893733D01*
X895103Y893765D01*
X895162Y893793D01*
X895222Y893818D01*
X895283Y893839D01*
X895346Y893857D01*
X895410Y893870D01*
X895474Y893880D01*
X895539Y893886D01*
X895604Y893888D01*
X895669Y893886D01*
X895734Y893880D01*
X895798Y893870D01*
X895862Y893857D01*
X895925Y893839D01*
X895986Y893818D01*
X896046Y893793D01*
X896105Y893765D01*
X896162Y893733D01*
X896216Y893697D01*
X896269Y893659D01*
X896319Y893617D01*
X896366Y893572D01*
X896411Y893525D01*
X896453Y893475D01*
X896491Y893422D01*
X896527Y893368D01*
X896559Y893311D01*
X896587Y893252D01*
X896612Y893192D01*
X896633Y893131D01*
X896651Y893068D01*
X896664Y893004D01*
X896674Y892940D01*
X896680Y892875D01*
X896682Y892810D01*
X896680Y892745D01*
X896674Y892680D01*
X896664Y892616D01*
X896651Y892552D01*
X896633Y892489D01*
X896612Y892428D01*
X896587Y892368D01*
X896559Y892309D01*
X896527Y892252D01*
X896491Y892198D01*
X896453Y892145D01*
X896411Y892095D01*
X896366Y892048D01*
X896319Y892003D01*
X896269Y891961D01*
X896216Y891923D01*
X896162Y891887D01*
X896105Y891855D01*
X896046Y891827D01*
X895986Y891802D01*
X895925Y891781D01*
X895862Y891763D01*
X895798Y891750D01*
X895734Y891740D01*
X895669Y891734D01*
X895604Y891732D01*
X895539Y891734D01*
X895474Y891740D01*
X895410Y891750D01*
X895346Y891763D01*
X895283Y891781D01*
X895222Y891802D01*
X895162Y891827D01*
X895103Y891855D01*
X895046Y891887D01*
X894992Y891923D01*
X894939Y891961D01*
X894889Y892003D01*
X894842Y892048D01*
X894797Y892095D01*
X894755Y892145D01*
X894717Y892198D01*
X894681Y892252D01*
X894649Y892309D01*
X894621Y892368D01*
X894596Y892428D01*
X894575Y892489D01*
X894557Y892552D01*
X894544Y892616D01*
X894534Y892680D01*
X894528Y892745D01*
X894526Y892810D01*
X978346Y811022D02*
X978348Y811087D01*
X978354Y811152D01*
X978364Y811216D01*
X978377Y811280D01*
X978395Y811343D01*
X978416Y811404D01*
X978441Y811464D01*
X978469Y811523D01*
X978501Y811580D01*
X978537Y811634D01*
X978575Y811687D01*
X978617Y811737D01*
X978662Y811784D01*
X978709Y811829D01*
X978759Y811871D01*
X978812Y811909D01*
X978866Y811945D01*
X978923Y811977D01*
X978982Y812005D01*
X979042Y812030D01*
X979103Y812051D01*
X979166Y812069D01*
X979230Y812082D01*
X979294Y812092D01*
X979359Y812098D01*
X979424Y812100D01*
X979489Y812098D01*
X979554Y812092D01*
X979618Y812082D01*
X979682Y812069D01*
X979745Y812051D01*
X979806Y812030D01*
X979866Y812005D01*
X979925Y811977D01*
X979982Y811945D01*
X980036Y811909D01*
X980089Y811871D01*
X980139Y811829D01*
X980186Y811784D01*
X980231Y811737D01*
X980273Y811687D01*
X980311Y811634D01*
X980347Y811580D01*
X980379Y811523D01*
X980407Y811464D01*
X980432Y811404D01*
X980453Y811343D01*
X980471Y811280D01*
X980484Y811216D01*
X980494Y811152D01*
X980500Y811087D01*
X980502Y811022D01*
X980500Y810957D01*
X980494Y810892D01*
X980484Y810828D01*
X980471Y810764D01*
X980453Y810701D01*
X980432Y810640D01*
X980407Y810580D01*
X980379Y810521D01*
X980347Y810464D01*
X980311Y810410D01*
X980273Y810357D01*
X980231Y810307D01*
X980186Y810260D01*
X980139Y810215D01*
X980089Y810173D01*
X980036Y810135D01*
X979982Y810099D01*
X979925Y810067D01*
X979866Y810039D01*
X979806Y810014D01*
X979745Y809993D01*
X979682Y809975D01*
X979618Y809962D01*
X979554Y809952D01*
X979489Y809946D01*
X979424Y809944D01*
X979359Y809946D01*
X979294Y809952D01*
X979230Y809962D01*
X979166Y809975D01*
X979103Y809993D01*
X979042Y810014D01*
X978982Y810039D01*
X978923Y810067D01*
X978866Y810099D01*
X978812Y810135D01*
X978759Y810173D01*
X978709Y810215D01*
X978662Y810260D01*
X978617Y810307D01*
X978575Y810357D01*
X978537Y810410D01*
X978501Y810464D01*
X978469Y810521D01*
X978441Y810580D01*
X978416Y810640D01*
X978395Y810701D01*
X978377Y810764D01*
X978364Y810828D01*
X978354Y810892D01*
X978348Y810957D01*
X978346Y811022D01*
X948374Y690626D02*
X948376Y690691D01*
X948382Y690756D01*
X948392Y690820D01*
X948405Y690884D01*
X948423Y690947D01*
X948444Y691008D01*
X948469Y691068D01*
X948497Y691127D01*
X948529Y691184D01*
X948565Y691238D01*
X948603Y691291D01*
X948645Y691341D01*
X948690Y691388D01*
X948737Y691433D01*
X948787Y691475D01*
X948840Y691513D01*
X948894Y691549D01*
X948951Y691581D01*
X949010Y691609D01*
X949070Y691634D01*
X949131Y691655D01*
X949194Y691673D01*
X949258Y691686D01*
X949322Y691696D01*
X949387Y691702D01*
X949452Y691704D01*
X949517Y691702D01*
X949582Y691696D01*
X949646Y691686D01*
X949710Y691673D01*
X949773Y691655D01*
X949834Y691634D01*
X949894Y691609D01*
X949953Y691581D01*
X950010Y691549D01*
X950064Y691513D01*
X950117Y691475D01*
X950167Y691433D01*
X950214Y691388D01*
X950259Y691341D01*
X950301Y691291D01*
X950339Y691238D01*
X950375Y691184D01*
X950407Y691127D01*
X950435Y691068D01*
X950460Y691008D01*
X950481Y690947D01*
X950499Y690884D01*
X950512Y690820D01*
X950522Y690756D01*
X950528Y690691D01*
X950530Y690626D01*
X950528Y690561D01*
X950522Y690496D01*
X950512Y690432D01*
X950499Y690368D01*
X950481Y690305D01*
X950460Y690244D01*
X950435Y690184D01*
X950407Y690125D01*
X950375Y690068D01*
X950339Y690014D01*
X950301Y689961D01*
X950259Y689911D01*
X950214Y689864D01*
X950167Y689819D01*
X950117Y689777D01*
X950064Y689739D01*
X950010Y689703D01*
X949953Y689671D01*
X949894Y689643D01*
X949834Y689618D01*
X949773Y689597D01*
X949710Y689579D01*
X949646Y689566D01*
X949582Y689556D01*
X949517Y689550D01*
X949452Y689548D01*
X949387Y689550D01*
X949322Y689556D01*
X949258Y689566D01*
X949194Y689579D01*
X949131Y689597D01*
X949070Y689618D01*
X949010Y689643D01*
X948951Y689671D01*
X948894Y689703D01*
X948840Y689739D01*
X948787Y689777D01*
X948737Y689819D01*
X948690Y689864D01*
X948645Y689911D01*
X948603Y689961D01*
X948565Y690014D01*
X948529Y690068D01*
X948497Y690125D01*
X948469Y690184D01*
X948444Y690244D01*
X948423Y690305D01*
X948405Y690368D01*
X948392Y690432D01*
X948382Y690496D01*
X948376Y690561D01*
X948374Y690626D01*
X851346Y573024D02*
X851348Y573089D01*
X851354Y573154D01*
X851364Y573218D01*
X851377Y573282D01*
X851395Y573345D01*
X851416Y573406D01*
X851441Y573466D01*
X851469Y573525D01*
X851501Y573582D01*
X851537Y573636D01*
X851575Y573689D01*
X851617Y573739D01*
X851662Y573786D01*
X851709Y573831D01*
X851759Y573873D01*
X851812Y573911D01*
X851866Y573947D01*
X851923Y573979D01*
X851982Y574007D01*
X852042Y574032D01*
X852103Y574053D01*
X852166Y574071D01*
X852230Y574084D01*
X852294Y574094D01*
X852359Y574100D01*
X852424Y574102D01*
X852489Y574100D01*
X852554Y574094D01*
X852618Y574084D01*
X852682Y574071D01*
X852745Y574053D01*
X852806Y574032D01*
X852866Y574007D01*
X852925Y573979D01*
X852982Y573947D01*
X853036Y573911D01*
X853089Y573873D01*
X853139Y573831D01*
X853186Y573786D01*
X853231Y573739D01*
X853273Y573689D01*
X853311Y573636D01*
X853347Y573582D01*
X853379Y573525D01*
X853407Y573466D01*
X853432Y573406D01*
X853453Y573345D01*
X853471Y573282D01*
X853484Y573218D01*
X853494Y573154D01*
X853500Y573089D01*
X853502Y573024D01*
X853500Y572959D01*
X853494Y572894D01*
X853484Y572830D01*
X853471Y572766D01*
X853453Y572703D01*
X853432Y572642D01*
X853407Y572582D01*
X853379Y572523D01*
X853347Y572466D01*
X853311Y572412D01*
X853273Y572359D01*
X853231Y572309D01*
X853186Y572262D01*
X853139Y572217D01*
X853089Y572175D01*
X853036Y572137D01*
X852982Y572101D01*
X852925Y572069D01*
X852866Y572041D01*
X852806Y572016D01*
X852745Y571995D01*
X852682Y571977D01*
X852618Y571964D01*
X852554Y571954D01*
X852489Y571948D01*
X852424Y571946D01*
X852359Y571948D01*
X852294Y571954D01*
X852230Y571964D01*
X852166Y571977D01*
X852103Y571995D01*
X852042Y572016D01*
X851982Y572041D01*
X851923Y572069D01*
X851866Y572101D01*
X851812Y572137D01*
X851759Y572175D01*
X851709Y572217D01*
X851662Y572262D01*
X851617Y572309D01*
X851575Y572359D01*
X851537Y572412D01*
X851501Y572466D01*
X851469Y572523D01*
X851441Y572582D01*
X851416Y572642D01*
X851395Y572703D01*
X851377Y572766D01*
X851364Y572830D01*
X851354Y572894D01*
X851348Y572959D01*
X851346Y573024D01*
X739586Y472948D02*
X739588Y473013D01*
X739594Y473078D01*
X739604Y473142D01*
X739617Y473206D01*
X739635Y473269D01*
X739656Y473330D01*
X739681Y473390D01*
X739709Y473449D01*
X739741Y473506D01*
X739777Y473560D01*
X739815Y473613D01*
X739857Y473663D01*
X739902Y473710D01*
X739949Y473755D01*
X739999Y473797D01*
X740052Y473835D01*
X740106Y473871D01*
X740163Y473903D01*
X740222Y473931D01*
X740282Y473956D01*
X740343Y473977D01*
X740406Y473995D01*
X740470Y474008D01*
X740534Y474018D01*
X740599Y474024D01*
X740664Y474026D01*
X740729Y474024D01*
X740794Y474018D01*
X740858Y474008D01*
X740922Y473995D01*
X740985Y473977D01*
X741046Y473956D01*
X741106Y473931D01*
X741165Y473903D01*
X741222Y473871D01*
X741276Y473835D01*
X741329Y473797D01*
X741379Y473755D01*
X741426Y473710D01*
X741471Y473663D01*
X741513Y473613D01*
X741551Y473560D01*
X741587Y473506D01*
X741619Y473449D01*
X741647Y473390D01*
X741672Y473330D01*
X741693Y473269D01*
X741711Y473206D01*
X741724Y473142D01*
X741734Y473078D01*
X741740Y473013D01*
X741742Y472948D01*
X741740Y472883D01*
X741734Y472818D01*
X741724Y472754D01*
X741711Y472690D01*
X741693Y472627D01*
X741672Y472566D01*
X741647Y472506D01*
X741619Y472447D01*
X741587Y472390D01*
X741551Y472336D01*
X741513Y472283D01*
X741471Y472233D01*
X741426Y472186D01*
X741379Y472141D01*
X741329Y472099D01*
X741276Y472061D01*
X741222Y472025D01*
X741165Y471993D01*
X741106Y471965D01*
X741046Y471940D01*
X740985Y471919D01*
X740922Y471901D01*
X740858Y471888D01*
X740794Y471878D01*
X740729Y471872D01*
X740664Y471870D01*
X740599Y471872D01*
X740534Y471878D01*
X740470Y471888D01*
X740406Y471901D01*
X740343Y471919D01*
X740282Y471940D01*
X740222Y471965D01*
X740163Y471993D01*
X740106Y472025D01*
X740052Y472061D01*
X739999Y472099D01*
X739949Y472141D01*
X739902Y472186D01*
X739857Y472233D01*
X739815Y472283D01*
X739777Y472336D01*
X739741Y472390D01*
X739709Y472447D01*
X739681Y472506D01*
X739656Y472566D01*
X739635Y472627D01*
X739617Y472690D01*
X739604Y472754D01*
X739594Y472818D01*
X739588Y472883D01*
X739586Y472948D01*
X433516Y569976D02*
X433518Y570041D01*
X433524Y570106D01*
X433534Y570170D01*
X433547Y570234D01*
X433565Y570297D01*
X433586Y570358D01*
X433611Y570418D01*
X433639Y570477D01*
X433671Y570534D01*
X433707Y570588D01*
X433745Y570641D01*
X433787Y570691D01*
X433832Y570738D01*
X433879Y570783D01*
X433929Y570825D01*
X433982Y570863D01*
X434036Y570899D01*
X434093Y570931D01*
X434152Y570959D01*
X434212Y570984D01*
X434273Y571005D01*
X434336Y571023D01*
X434400Y571036D01*
X434464Y571046D01*
X434529Y571052D01*
X434594Y571054D01*
X434659Y571052D01*
X434724Y571046D01*
X434788Y571036D01*
X434852Y571023D01*
X434915Y571005D01*
X434976Y570984D01*
X435036Y570959D01*
X435095Y570931D01*
X435152Y570899D01*
X435206Y570863D01*
X435259Y570825D01*
X435309Y570783D01*
X435356Y570738D01*
X435401Y570691D01*
X435443Y570641D01*
X435481Y570588D01*
X435517Y570534D01*
X435549Y570477D01*
X435577Y570418D01*
X435602Y570358D01*
X435623Y570297D01*
X435641Y570234D01*
X435654Y570170D01*
X435664Y570106D01*
X435670Y570041D01*
X435672Y569976D01*
X435670Y569911D01*
X435664Y569846D01*
X435654Y569782D01*
X435641Y569718D01*
X435623Y569655D01*
X435602Y569594D01*
X435577Y569534D01*
X435549Y569475D01*
X435517Y569418D01*
X435481Y569364D01*
X435443Y569311D01*
X435401Y569261D01*
X435356Y569214D01*
X435309Y569169D01*
X435259Y569127D01*
X435206Y569089D01*
X435152Y569053D01*
X435095Y569021D01*
X435036Y568993D01*
X434976Y568968D01*
X434915Y568947D01*
X434852Y568929D01*
X434788Y568916D01*
X434724Y568906D01*
X434659Y568900D01*
X434594Y568898D01*
X434529Y568900D01*
X434464Y568906D01*
X434400Y568916D01*
X434336Y568929D01*
X434273Y568947D01*
X434212Y568968D01*
X434152Y568993D01*
X434093Y569021D01*
X434036Y569053D01*
X433982Y569089D01*
X433929Y569127D01*
X433879Y569169D01*
X433832Y569214D01*
X433787Y569261D01*
X433745Y569311D01*
X433707Y569364D01*
X433671Y569418D01*
X433639Y569475D01*
X433611Y569534D01*
X433586Y569594D01*
X433565Y569655D01*
X433547Y569718D01*
X433534Y569782D01*
X433524Y569846D01*
X433518Y569911D01*
X433516Y569976D01*
X344362Y600456D02*
X344364Y600521D01*
X344370Y600586D01*
X344380Y600650D01*
X344393Y600714D01*
X344411Y600777D01*
X344432Y600838D01*
X344457Y600898D01*
X344485Y600957D01*
X344517Y601014D01*
X344553Y601068D01*
X344591Y601121D01*
X344633Y601171D01*
X344678Y601218D01*
X344725Y601263D01*
X344775Y601305D01*
X344828Y601343D01*
X344882Y601379D01*
X344939Y601411D01*
X344998Y601439D01*
X345058Y601464D01*
X345119Y601485D01*
X345182Y601503D01*
X345246Y601516D01*
X345310Y601526D01*
X345375Y601532D01*
X345440Y601534D01*
X345505Y601532D01*
X345570Y601526D01*
X345634Y601516D01*
X345698Y601503D01*
X345761Y601485D01*
X345822Y601464D01*
X345882Y601439D01*
X345941Y601411D01*
X345998Y601379D01*
X346052Y601343D01*
X346105Y601305D01*
X346155Y601263D01*
X346202Y601218D01*
X346247Y601171D01*
X346289Y601121D01*
X346327Y601068D01*
X346363Y601014D01*
X346395Y600957D01*
X346423Y600898D01*
X346448Y600838D01*
X346469Y600777D01*
X346487Y600714D01*
X346500Y600650D01*
X346510Y600586D01*
X346516Y600521D01*
X346518Y600456D01*
X346516Y600391D01*
X346510Y600326D01*
X346500Y600262D01*
X346487Y600198D01*
X346469Y600135D01*
X346448Y600074D01*
X346423Y600014D01*
X346395Y599955D01*
X346363Y599898D01*
X346327Y599844D01*
X346289Y599791D01*
X346247Y599741D01*
X346202Y599694D01*
X346155Y599649D01*
X346105Y599607D01*
X346052Y599569D01*
X345998Y599533D01*
X345941Y599501D01*
X345882Y599473D01*
X345822Y599448D01*
X345761Y599427D01*
X345698Y599409D01*
X345634Y599396D01*
X345570Y599386D01*
X345505Y599380D01*
X345440Y599378D01*
X345375Y599380D01*
X345310Y599386D01*
X345246Y599396D01*
X345182Y599409D01*
X345119Y599427D01*
X345058Y599448D01*
X344998Y599473D01*
X344939Y599501D01*
X344882Y599533D01*
X344828Y599569D01*
X344775Y599607D01*
X344725Y599649D01*
X344678Y599694D01*
X344633Y599741D01*
X344591Y599791D01*
X344553Y599844D01*
X344517Y599898D01*
X344485Y599955D01*
X344457Y600014D01*
X344432Y600074D01*
X344411Y600135D01*
X344393Y600198D01*
X344380Y600262D01*
X344370Y600326D01*
X344364Y600391D01*
X344362Y600456D01*
X301944Y694436D02*
X301946Y694501D01*
X301952Y694566D01*
X301962Y694630D01*
X301975Y694694D01*
X301993Y694757D01*
X302014Y694818D01*
X302039Y694878D01*
X302067Y694937D01*
X302099Y694994D01*
X302135Y695048D01*
X302173Y695101D01*
X302215Y695151D01*
X302260Y695198D01*
X302307Y695243D01*
X302357Y695285D01*
X302410Y695323D01*
X302464Y695359D01*
X302521Y695391D01*
X302580Y695419D01*
X302640Y695444D01*
X302701Y695465D01*
X302764Y695483D01*
X302828Y695496D01*
X302892Y695506D01*
X302957Y695512D01*
X303022Y695514D01*
X303087Y695512D01*
X303152Y695506D01*
X303216Y695496D01*
X303280Y695483D01*
X303343Y695465D01*
X303404Y695444D01*
X303464Y695419D01*
X303523Y695391D01*
X303580Y695359D01*
X303634Y695323D01*
X303687Y695285D01*
X303737Y695243D01*
X303784Y695198D01*
X303829Y695151D01*
X303871Y695101D01*
X303909Y695048D01*
X303945Y694994D01*
X303977Y694937D01*
X304005Y694878D01*
X304030Y694818D01*
X304051Y694757D01*
X304069Y694694D01*
X304082Y694630D01*
X304092Y694566D01*
X304098Y694501D01*
X304100Y694436D01*
X304098Y694371D01*
X304092Y694306D01*
X304082Y694242D01*
X304069Y694178D01*
X304051Y694115D01*
X304030Y694054D01*
X304005Y693994D01*
X303977Y693935D01*
X303945Y693878D01*
X303909Y693824D01*
X303871Y693771D01*
X303829Y693721D01*
X303784Y693674D01*
X303737Y693629D01*
X303687Y693587D01*
X303634Y693549D01*
X303580Y693513D01*
X303523Y693481D01*
X303464Y693453D01*
X303404Y693428D01*
X303343Y693407D01*
X303280Y693389D01*
X303216Y693376D01*
X303152Y693366D01*
X303087Y693360D01*
X303022Y693358D01*
X302957Y693360D01*
X302892Y693366D01*
X302828Y693376D01*
X302764Y693389D01*
X302701Y693407D01*
X302640Y693428D01*
X302580Y693453D01*
X302521Y693481D01*
X302464Y693513D01*
X302410Y693549D01*
X302357Y693587D01*
X302307Y693629D01*
X302260Y693674D01*
X302215Y693721D01*
X302173Y693771D01*
X302135Y693824D01*
X302099Y693878D01*
X302067Y693935D01*
X302039Y693994D01*
X302014Y694054D01*
X301993Y694115D01*
X301975Y694178D01*
X301962Y694242D01*
X301952Y694306D01*
X301946Y694371D01*
X301944Y694436D01*
X316422Y781304D02*
X316424Y781369D01*
X316430Y781434D01*
X316440Y781498D01*
X316453Y781562D01*
X316471Y781625D01*
X316492Y781686D01*
X316517Y781746D01*
X316545Y781805D01*
X316577Y781862D01*
X316613Y781916D01*
X316651Y781969D01*
X316693Y782019D01*
X316738Y782066D01*
X316785Y782111D01*
X316835Y782153D01*
X316888Y782191D01*
X316942Y782227D01*
X316999Y782259D01*
X317058Y782287D01*
X317118Y782312D01*
X317179Y782333D01*
X317242Y782351D01*
X317306Y782364D01*
X317370Y782374D01*
X317435Y782380D01*
X317500Y782382D01*
X317565Y782380D01*
X317630Y782374D01*
X317694Y782364D01*
X317758Y782351D01*
X317821Y782333D01*
X317882Y782312D01*
X317942Y782287D01*
X318001Y782259D01*
X318058Y782227D01*
X318112Y782191D01*
X318165Y782153D01*
X318215Y782111D01*
X318262Y782066D01*
X318307Y782019D01*
X318349Y781969D01*
X318387Y781916D01*
X318423Y781862D01*
X318455Y781805D01*
X318483Y781746D01*
X318508Y781686D01*
X318529Y781625D01*
X318547Y781562D01*
X318560Y781498D01*
X318570Y781434D01*
X318576Y781369D01*
X318578Y781304D01*
X318576Y781239D01*
X318570Y781174D01*
X318560Y781110D01*
X318547Y781046D01*
X318529Y780983D01*
X318508Y780922D01*
X318483Y780862D01*
X318455Y780803D01*
X318423Y780746D01*
X318387Y780692D01*
X318349Y780639D01*
X318307Y780589D01*
X318262Y780542D01*
X318215Y780497D01*
X318165Y780455D01*
X318112Y780417D01*
X318058Y780381D01*
X318001Y780349D01*
X317942Y780321D01*
X317882Y780296D01*
X317821Y780275D01*
X317758Y780257D01*
X317694Y780244D01*
X317630Y780234D01*
X317565Y780228D01*
X317500Y780226D01*
X317435Y780228D01*
X317370Y780234D01*
X317306Y780244D01*
X317242Y780257D01*
X317179Y780275D01*
X317118Y780296D01*
X317058Y780321D01*
X316999Y780349D01*
X316942Y780381D01*
X316888Y780417D01*
X316835Y780455D01*
X316785Y780497D01*
X316738Y780542D01*
X316693Y780589D01*
X316651Y780639D01*
X316613Y780692D01*
X316577Y780746D01*
X316545Y780803D01*
X316517Y780862D01*
X316492Y780922D01*
X316471Y780983D01*
X316453Y781046D01*
X316440Y781110D01*
X316430Y781174D01*
X316424Y781239D01*
X316422Y781304D01*
X376112Y846582D02*
X376114Y846647D01*
X376120Y846712D01*
X376130Y846776D01*
X376143Y846840D01*
X376161Y846903D01*
X376182Y846964D01*
X376207Y847024D01*
X376235Y847083D01*
X376267Y847140D01*
X376303Y847194D01*
X376341Y847247D01*
X376383Y847297D01*
X376428Y847344D01*
X376475Y847389D01*
X376525Y847431D01*
X376578Y847469D01*
X376632Y847505D01*
X376689Y847537D01*
X376748Y847565D01*
X376808Y847590D01*
X376869Y847611D01*
X376932Y847629D01*
X376996Y847642D01*
X377060Y847652D01*
X377125Y847658D01*
X377190Y847660D01*
X377255Y847658D01*
X377320Y847652D01*
X377384Y847642D01*
X377448Y847629D01*
X377511Y847611D01*
X377572Y847590D01*
X377632Y847565D01*
X377691Y847537D01*
X377748Y847505D01*
X377802Y847469D01*
X377855Y847431D01*
X377905Y847389D01*
X377952Y847344D01*
X377997Y847297D01*
X378039Y847247D01*
X378077Y847194D01*
X378113Y847140D01*
X378145Y847083D01*
X378173Y847024D01*
X378198Y846964D01*
X378219Y846903D01*
X378237Y846840D01*
X378250Y846776D01*
X378260Y846712D01*
X378266Y846647D01*
X378268Y846582D01*
X378266Y846517D01*
X378260Y846452D01*
X378250Y846388D01*
X378237Y846324D01*
X378219Y846261D01*
X378198Y846200D01*
X378173Y846140D01*
X378145Y846081D01*
X378113Y846024D01*
X378077Y845970D01*
X378039Y845917D01*
X377997Y845867D01*
X377952Y845820D01*
X377905Y845775D01*
X377855Y845733D01*
X377802Y845695D01*
X377748Y845659D01*
X377691Y845627D01*
X377632Y845599D01*
X377572Y845574D01*
X377511Y845553D01*
X377448Y845535D01*
X377384Y845522D01*
X377320Y845512D01*
X377255Y845506D01*
X377190Y845504D01*
X377125Y845506D01*
X377060Y845512D01*
X376996Y845522D01*
X376932Y845535D01*
X376869Y845553D01*
X376808Y845574D01*
X376748Y845599D01*
X376689Y845627D01*
X376632Y845659D01*
X376578Y845695D01*
X376525Y845733D01*
X376475Y845775D01*
X376428Y845820D01*
X376383Y845867D01*
X376341Y845917D01*
X376303Y845970D01*
X376267Y846024D01*
X376235Y846081D01*
X376207Y846140D01*
X376182Y846200D01*
X376161Y846261D01*
X376143Y846324D01*
X376130Y846388D01*
X376120Y846452D01*
X376114Y846517D01*
X376112Y846582D01*
X462472Y858266D02*
X462474Y858331D01*
X462480Y858396D01*
X462490Y858460D01*
X462503Y858524D01*
X462521Y858587D01*
X462542Y858648D01*
X462567Y858708D01*
X462595Y858767D01*
X462627Y858824D01*
X462663Y858878D01*
X462701Y858931D01*
X462743Y858981D01*
X462788Y859028D01*
X462835Y859073D01*
X462885Y859115D01*
X462938Y859153D01*
X462992Y859189D01*
X463049Y859221D01*
X463108Y859249D01*
X463168Y859274D01*
X463229Y859295D01*
X463292Y859313D01*
X463356Y859326D01*
X463420Y859336D01*
X463485Y859342D01*
X463550Y859344D01*
X463615Y859342D01*
X463680Y859336D01*
X463744Y859326D01*
X463808Y859313D01*
X463871Y859295D01*
X463932Y859274D01*
X463992Y859249D01*
X464051Y859221D01*
X464108Y859189D01*
X464162Y859153D01*
X464215Y859115D01*
X464265Y859073D01*
X464312Y859028D01*
X464357Y858981D01*
X464399Y858931D01*
X464437Y858878D01*
X464473Y858824D01*
X464505Y858767D01*
X464533Y858708D01*
X464558Y858648D01*
X464579Y858587D01*
X464597Y858524D01*
X464610Y858460D01*
X464620Y858396D01*
X464626Y858331D01*
X464628Y858266D01*
X464626Y858201D01*
X464620Y858136D01*
X464610Y858072D01*
X464597Y858008D01*
X464579Y857945D01*
X464558Y857884D01*
X464533Y857824D01*
X464505Y857765D01*
X464473Y857708D01*
X464437Y857654D01*
X464399Y857601D01*
X464357Y857551D01*
X464312Y857504D01*
X464265Y857459D01*
X464215Y857417D01*
X464162Y857379D01*
X464108Y857343D01*
X464051Y857311D01*
X463992Y857283D01*
X463932Y857258D01*
X463871Y857237D01*
X463808Y857219D01*
X463744Y857206D01*
X463680Y857196D01*
X463615Y857190D01*
X463550Y857188D01*
X463485Y857190D01*
X463420Y857196D01*
X463356Y857206D01*
X463292Y857219D01*
X463229Y857237D01*
X463168Y857258D01*
X463108Y857283D01*
X463049Y857311D01*
X462992Y857343D01*
X462938Y857379D01*
X462885Y857417D01*
X462835Y857459D01*
X462788Y857504D01*
X462743Y857551D01*
X462701Y857601D01*
X462663Y857654D01*
X462627Y857708D01*
X462595Y857765D01*
X462567Y857824D01*
X462542Y857884D01*
X462521Y857945D01*
X462503Y858008D01*
X462490Y858072D01*
X462480Y858136D01*
X462474Y858201D01*
X462472Y858266D01*
X535116Y820166D02*
X535118Y820231D01*
X535124Y820296D01*
X535134Y820360D01*
X535147Y820424D01*
X535165Y820487D01*
X535186Y820548D01*
X535211Y820608D01*
X535239Y820667D01*
X535271Y820724D01*
X535307Y820778D01*
X535345Y820831D01*
X535387Y820881D01*
X535432Y820928D01*
X535479Y820973D01*
X535529Y821015D01*
X535582Y821053D01*
X535636Y821089D01*
X535693Y821121D01*
X535752Y821149D01*
X535812Y821174D01*
X535873Y821195D01*
X535936Y821213D01*
X536000Y821226D01*
X536064Y821236D01*
X536129Y821242D01*
X536194Y821244D01*
X536259Y821242D01*
X536324Y821236D01*
X536388Y821226D01*
X536452Y821213D01*
X536515Y821195D01*
X536576Y821174D01*
X536636Y821149D01*
X536695Y821121D01*
X536752Y821089D01*
X536806Y821053D01*
X536859Y821015D01*
X536909Y820973D01*
X536956Y820928D01*
X537001Y820881D01*
X537043Y820831D01*
X537081Y820778D01*
X537117Y820724D01*
X537149Y820667D01*
X537177Y820608D01*
X537202Y820548D01*
X537223Y820487D01*
X537241Y820424D01*
X537254Y820360D01*
X537264Y820296D01*
X537270Y820231D01*
X537272Y820166D01*
X537270Y820101D01*
X537264Y820036D01*
X537254Y819972D01*
X537241Y819908D01*
X537223Y819845D01*
X537202Y819784D01*
X537177Y819724D01*
X537149Y819665D01*
X537117Y819608D01*
X537081Y819554D01*
X537043Y819501D01*
X537001Y819451D01*
X536956Y819404D01*
X536909Y819359D01*
X536859Y819317D01*
X536806Y819279D01*
X536752Y819243D01*
X536695Y819211D01*
X536636Y819183D01*
X536576Y819158D01*
X536515Y819137D01*
X536452Y819119D01*
X536388Y819106D01*
X536324Y819096D01*
X536259Y819090D01*
X536194Y819088D01*
X536129Y819090D01*
X536064Y819096D01*
X536000Y819106D01*
X535936Y819119D01*
X535873Y819137D01*
X535812Y819158D01*
X535752Y819183D01*
X535693Y819211D01*
X535636Y819243D01*
X535582Y819279D01*
X535529Y819317D01*
X535479Y819359D01*
X535432Y819404D01*
X535387Y819451D01*
X535345Y819501D01*
X535307Y819554D01*
X535271Y819608D01*
X535239Y819665D01*
X535211Y819724D01*
X535186Y819784D01*
X535165Y819845D01*
X535147Y819908D01*
X535134Y819972D01*
X535124Y820036D01*
X535118Y820101D01*
X535116Y820166D01*
X569914Y750062D02*
X569916Y750127D01*
X569922Y750192D01*
X569932Y750256D01*
X569945Y750320D01*
X569963Y750383D01*
X569984Y750444D01*
X570009Y750504D01*
X570037Y750563D01*
X570069Y750620D01*
X570105Y750674D01*
X570143Y750727D01*
X570185Y750777D01*
X570230Y750824D01*
X570277Y750869D01*
X570327Y750911D01*
X570380Y750949D01*
X570434Y750985D01*
X570491Y751017D01*
X570550Y751045D01*
X570610Y751070D01*
X570671Y751091D01*
X570734Y751109D01*
X570798Y751122D01*
X570862Y751132D01*
X570927Y751138D01*
X570992Y751140D01*
X571057Y751138D01*
X571122Y751132D01*
X571186Y751122D01*
X571250Y751109D01*
X571313Y751091D01*
X571374Y751070D01*
X571434Y751045D01*
X571493Y751017D01*
X571550Y750985D01*
X571604Y750949D01*
X571657Y750911D01*
X571707Y750869D01*
X571754Y750824D01*
X571799Y750777D01*
X571841Y750727D01*
X571879Y750674D01*
X571915Y750620D01*
X571947Y750563D01*
X571975Y750504D01*
X572000Y750444D01*
X572021Y750383D01*
X572039Y750320D01*
X572052Y750256D01*
X572062Y750192D01*
X572068Y750127D01*
X572070Y750062D01*
X572068Y749997D01*
X572062Y749932D01*
X572052Y749868D01*
X572039Y749804D01*
X572021Y749741D01*
X572000Y749680D01*
X571975Y749620D01*
X571947Y749561D01*
X571915Y749504D01*
X571879Y749450D01*
X571841Y749397D01*
X571799Y749347D01*
X571754Y749300D01*
X571707Y749255D01*
X571657Y749213D01*
X571604Y749175D01*
X571550Y749139D01*
X571493Y749107D01*
X571434Y749079D01*
X571374Y749054D01*
X571313Y749033D01*
X571250Y749015D01*
X571186Y749002D01*
X571122Y748992D01*
X571057Y748986D01*
X570992Y748984D01*
X570927Y748986D01*
X570862Y748992D01*
X570798Y749002D01*
X570734Y749015D01*
X570671Y749033D01*
X570610Y749054D01*
X570550Y749079D01*
X570491Y749107D01*
X570434Y749139D01*
X570380Y749175D01*
X570327Y749213D01*
X570277Y749255D01*
X570230Y749300D01*
X570185Y749347D01*
X570143Y749397D01*
X570105Y749450D01*
X570069Y749504D01*
X570037Y749561D01*
X570009Y749620D01*
X569984Y749680D01*
X569963Y749741D01*
X569945Y749804D01*
X569932Y749868D01*
X569922Y749932D01*
X569916Y749997D01*
X569914Y750062D01*
X571438Y686054D02*
X571440Y686119D01*
X571446Y686184D01*
X571456Y686248D01*
X571469Y686312D01*
X571487Y686375D01*
X571508Y686436D01*
X571533Y686496D01*
X571561Y686555D01*
X571593Y686612D01*
X571629Y686666D01*
X571667Y686719D01*
X571709Y686769D01*
X571754Y686816D01*
X571801Y686861D01*
X571851Y686903D01*
X571904Y686941D01*
X571958Y686977D01*
X572015Y687009D01*
X572074Y687037D01*
X572134Y687062D01*
X572195Y687083D01*
X572258Y687101D01*
X572322Y687114D01*
X572386Y687124D01*
X572451Y687130D01*
X572516Y687132D01*
X572581Y687130D01*
X572646Y687124D01*
X572710Y687114D01*
X572774Y687101D01*
X572837Y687083D01*
X572898Y687062D01*
X572958Y687037D01*
X573017Y687009D01*
X573074Y686977D01*
X573128Y686941D01*
X573181Y686903D01*
X573231Y686861D01*
X573278Y686816D01*
X573323Y686769D01*
X573365Y686719D01*
X573403Y686666D01*
X573439Y686612D01*
X573471Y686555D01*
X573499Y686496D01*
X573524Y686436D01*
X573545Y686375D01*
X573563Y686312D01*
X573576Y686248D01*
X573586Y686184D01*
X573592Y686119D01*
X573594Y686054D01*
X573592Y685989D01*
X573586Y685924D01*
X573576Y685860D01*
X573563Y685796D01*
X573545Y685733D01*
X573524Y685672D01*
X573499Y685612D01*
X573471Y685553D01*
X573439Y685496D01*
X573403Y685442D01*
X573365Y685389D01*
X573323Y685339D01*
X573278Y685292D01*
X573231Y685247D01*
X573181Y685205D01*
X573128Y685167D01*
X573074Y685131D01*
X573017Y685099D01*
X572958Y685071D01*
X572898Y685046D01*
X572837Y685025D01*
X572774Y685007D01*
X572710Y684994D01*
X572646Y684984D01*
X572581Y684978D01*
X572516Y684976D01*
X572451Y684978D01*
X572386Y684984D01*
X572322Y684994D01*
X572258Y685007D01*
X572195Y685025D01*
X572134Y685046D01*
X572074Y685071D01*
X572015Y685099D01*
X571958Y685131D01*
X571904Y685167D01*
X571851Y685205D01*
X571801Y685247D01*
X571754Y685292D01*
X571709Y685339D01*
X571667Y685389D01*
X571629Y685442D01*
X571593Y685496D01*
X571561Y685553D01*
X571533Y685612D01*
X571508Y685672D01*
X571487Y685733D01*
X571469Y685796D01*
X571456Y685860D01*
X571446Y685924D01*
X571440Y685989D01*
X571438Y686054D01*
X530290Y604774D02*
X530292Y604839D01*
X530298Y604904D01*
X530308Y604968D01*
X530321Y605032D01*
X530339Y605095D01*
X530360Y605156D01*
X530385Y605216D01*
X530413Y605275D01*
X530445Y605332D01*
X530481Y605386D01*
X530519Y605439D01*
X530561Y605489D01*
X530606Y605536D01*
X530653Y605581D01*
X530703Y605623D01*
X530756Y605661D01*
X530810Y605697D01*
X530867Y605729D01*
X530926Y605757D01*
X530986Y605782D01*
X531047Y605803D01*
X531110Y605821D01*
X531174Y605834D01*
X531238Y605844D01*
X531303Y605850D01*
X531368Y605852D01*
X531433Y605850D01*
X531498Y605844D01*
X531562Y605834D01*
X531626Y605821D01*
X531689Y605803D01*
X531750Y605782D01*
X531810Y605757D01*
X531869Y605729D01*
X531926Y605697D01*
X531980Y605661D01*
X532033Y605623D01*
X532083Y605581D01*
X532130Y605536D01*
X532175Y605489D01*
X532217Y605439D01*
X532255Y605386D01*
X532291Y605332D01*
X532323Y605275D01*
X532351Y605216D01*
X532376Y605156D01*
X532397Y605095D01*
X532415Y605032D01*
X532428Y604968D01*
X532438Y604904D01*
X532444Y604839D01*
X532446Y604774D01*
X532444Y604709D01*
X532438Y604644D01*
X532428Y604580D01*
X532415Y604516D01*
X532397Y604453D01*
X532376Y604392D01*
X532351Y604332D01*
X532323Y604273D01*
X532291Y604216D01*
X532255Y604162D01*
X532217Y604109D01*
X532175Y604059D01*
X532130Y604012D01*
X532083Y603967D01*
X532033Y603925D01*
X531980Y603887D01*
X531926Y603851D01*
X531869Y603819D01*
X531810Y603791D01*
X531750Y603766D01*
X531689Y603745D01*
X531626Y603727D01*
X531562Y603714D01*
X531498Y603704D01*
X531433Y603698D01*
X531368Y603696D01*
X531303Y603698D01*
X531238Y603704D01*
X531174Y603714D01*
X531110Y603727D01*
X531047Y603745D01*
X530986Y603766D01*
X530926Y603791D01*
X530867Y603819D01*
X530810Y603851D01*
X530756Y603887D01*
X530703Y603925D01*
X530653Y603967D01*
X530606Y604012D01*
X530561Y604059D01*
X530519Y604109D01*
X530481Y604162D01*
X530445Y604216D01*
X530413Y604273D01*
X530385Y604332D01*
X530360Y604392D01*
X530339Y604453D01*
X530321Y604516D01*
X530308Y604580D01*
X530298Y604644D01*
X530292Y604709D01*
X530290Y604774D01*
D54*
X450304Y859546D03*
D55*
G36*
X366211Y837926D02*
X364842Y840017D01*
X366933Y841386D01*
X368302Y839295D01*
X366211Y837926D01*
G37*
G36*
X420749Y569989D02*
X420893Y572483D01*
X423387Y572339D01*
X423243Y569845D01*
X420749Y569989D01*
G37*
G36*
X334820Y608950D02*
X336566Y610738D01*
X338354Y608992D01*
X336608Y607204D01*
X334820Y608950D01*
G37*
G36*
X313159Y767310D02*
X310857Y768282D01*
X311829Y770584D01*
X314131Y769612D01*
X313159Y767310D01*
G37*
G36*
X305067Y680328D02*
X302572Y680189D01*
X302433Y682684D01*
X304928Y682823D01*
X305067Y680328D01*
G37*
G36*
X253320Y870237D02*
X255392Y868839D01*
X253994Y866767D01*
X251922Y868165D01*
X253320Y870237D01*
G37*
G36*
X194996Y665305D02*
X197383Y664566D01*
X196644Y662179D01*
X194257Y662918D01*
X194996Y665305D01*
G37*
G36*
X656232Y917426D02*
X654816Y915366D01*
X652756Y916782D01*
X654172Y918842D01*
X656232Y917426D01*
G37*
G36*
X773370Y861704D02*
X773492Y859208D01*
X770996Y859086D01*
X770874Y861582D01*
X773370Y861704D01*
G37*
G36*
X141384Y572246D02*
X143184Y570512D01*
X141450Y568712D01*
X139650Y570446D01*
X141384Y572246D01*
G37*
G36*
X63423Y495374D02*
X61457Y496916D01*
X62999Y498882D01*
X64965Y497340D01*
X63423Y495374D01*
G37*
G36*
X520025Y596290D02*
X518749Y598438D01*
X520897Y599714D01*
X522173Y597566D01*
X520025Y596290D01*
G37*
G36*
X571464Y671642D02*
X569008Y672106D01*
X569472Y674562D01*
X571928Y674098D01*
X571464Y671642D01*
G37*
G36*
X19927Y361629D02*
X22325Y362335D01*
X23031Y359937D01*
X20633Y359231D01*
X19927Y361629D01*
G37*
G36*
X110410Y275411D02*
X111498Y277661D01*
X113748Y276573D01*
X112660Y274323D01*
X110410Y275411D01*
G37*
G36*
X525479Y829244D02*
X527237Y831020D01*
X529013Y829262D01*
X527255Y827486D01*
X525479Y829244D01*
G37*
G36*
X568292Y763802D02*
X570768Y764142D01*
X571108Y761666D01*
X568632Y761326D01*
X568292Y763802D01*
G37*
G36*
X374393Y888111D02*
X373113Y890257D01*
X375259Y891537D01*
X376539Y889391D01*
X374393Y888111D01*
G37*
D54*
X455266Y980756D03*
D55*
G36*
X729193Y464223D02*
X727817Y466309D01*
X729903Y467685D01*
X731279Y465599D01*
X729193Y464223D01*
G37*
G36*
X591905Y372333D02*
X590785Y374567D01*
X593019Y375687D01*
X594139Y373453D01*
X591905Y372333D01*
G37*
G36*
X431830Y311386D02*
X432640Y309022D01*
X430276Y308212D01*
X429466Y310576D01*
X431830Y311386D01*
G37*
G36*
X301261Y272291D02*
X301879Y269869D01*
X299457Y269251D01*
X298839Y271673D01*
X301261Y272291D01*
G37*
G36*
X941635Y678120D02*
X939629Y679610D01*
X941119Y681616D01*
X943125Y680126D01*
X941635Y678120D01*
G37*
G36*
X841580Y561964D02*
X840024Y563920D01*
X841980Y565476D01*
X843536Y563520D01*
X841580Y561964D01*
G37*
G36*
X910202Y892343D02*
X909910Y889861D01*
X907428Y890153D01*
X907720Y892635D01*
X910202Y892343D01*
G37*
G36*
X979629Y796653D02*
X977135Y796819D01*
X977301Y799313D01*
X979795Y799147D01*
X979629Y796653D01*
G37*
G36*
X217830Y770843D02*
X215355Y771186D01*
X215698Y773661D01*
X218173Y773318D01*
X217830Y770843D01*
G37*
G36*
X560377Y966270D02*
X559638Y963883D01*
X557251Y964622D01*
X557990Y967009D01*
X560377Y966270D01*
G37*
D53*
X753062Y916124D02*
X764427Y910458D01*
X753062Y916124D02*
X750212Y924640D01*
X755879Y936006D01*
X764395Y938856D01*
X750212Y924640D02*
X741696Y921791D01*
X730330Y927458D01*
X727481Y935974D01*
X733148Y947340D01*
X741664Y950189D01*
X753030Y944522D01*
X755879Y936006D01*
X778610Y924673D02*
X772944Y913307D01*
X764427Y910458D01*
X778610Y924673D02*
X775761Y933189D01*
X764395Y938856D01*
X727481Y935974D02*
X718965Y933124D01*
X707599Y938791D01*
X704750Y947307D01*
X710416Y958673D01*
X718933Y961522D01*
X730298Y955856D01*
X733148Y947340D01*
M02*
