G04 EAGLE Gerber RS-274X export*
G75*
%MOMM*%
%FSLAX34Y34*%
%LPD*%
%INSoldermask Top*%
%IPPOS*%
%AMOC8*
5,1,8,0,0,1.08239X$1,22.5*%
G01*
%ADD10R,1.003200X1.003200*%
%ADD11R,1.003200X1.003200*%
%ADD12C,1.727200*%
%ADD13C,0.959600*%


D10*
X456554Y859546D03*
X441554Y859546D03*
D11*
G36*
X370352Y836136D02*
X364859Y844529D01*
X373252Y850022D01*
X378745Y841629D01*
X370352Y836136D01*
G37*
G36*
X357800Y827922D02*
X352307Y836315D01*
X360700Y841808D01*
X366193Y833415D01*
X357800Y827922D01*
G37*
G36*
X423012Y566086D02*
X423590Y576100D01*
X433604Y575522D01*
X433026Y565508D01*
X423012Y566086D01*
G37*
G36*
X408036Y566950D02*
X408614Y576964D01*
X418628Y576386D01*
X418050Y566372D01*
X408036Y566950D01*
G37*
G36*
X333967Y604520D02*
X340974Y611699D01*
X348153Y604692D01*
X341146Y597513D01*
X333967Y604520D01*
G37*
G36*
X323231Y614996D02*
X330238Y622175D01*
X337417Y615168D01*
X330410Y607989D01*
X323231Y614996D01*
G37*
G36*
X317594Y768133D02*
X308354Y772037D01*
X312258Y781277D01*
X321498Y777373D01*
X317594Y768133D01*
G37*
G36*
X311758Y754315D02*
X302518Y758219D01*
X306422Y767459D01*
X315662Y763555D01*
X311758Y754315D01*
G37*
G36*
X308689Y683018D02*
X298673Y682458D01*
X298113Y692474D01*
X308129Y693034D01*
X308689Y683018D01*
G37*
G36*
X309527Y668042D02*
X299511Y667482D01*
X298951Y677498D01*
X308967Y678058D01*
X309527Y668042D01*
G37*
G36*
X248809Y870283D02*
X257125Y864673D01*
X251515Y856357D01*
X243199Y861967D01*
X248809Y870283D01*
G37*
G36*
X257197Y882719D02*
X265513Y877109D01*
X259903Y868793D01*
X251587Y874403D01*
X257197Y882719D01*
G37*
G36*
X190664Y664045D02*
X200246Y661079D01*
X197280Y651497D01*
X187698Y654463D01*
X190664Y664045D01*
G37*
G36*
X195100Y678375D02*
X204682Y675409D01*
X201716Y665827D01*
X192134Y668793D01*
X195100Y678375D01*
G37*
G36*
X656317Y921936D02*
X650635Y913670D01*
X642369Y919352D01*
X648051Y927618D01*
X656317Y921936D01*
G37*
G36*
X668679Y913440D02*
X662997Y905174D01*
X654731Y910856D01*
X660413Y919122D01*
X668679Y913440D01*
G37*
G36*
X770705Y865345D02*
X771196Y855326D01*
X761177Y854835D01*
X760686Y864854D01*
X770705Y865345D01*
G37*
G36*
X785687Y866077D02*
X786178Y856058D01*
X776159Y855567D01*
X775668Y865586D01*
X785687Y866077D01*
G37*
G36*
X136947Y573068D02*
X144175Y566112D01*
X137219Y558884D01*
X129991Y565840D01*
X136947Y573068D01*
G37*
G36*
X147349Y583876D02*
X154577Y576920D01*
X147621Y569692D01*
X140393Y576648D01*
X147349Y583876D01*
G37*
G36*
X67920Y495004D02*
X60026Y501194D01*
X66216Y509088D01*
X74110Y502898D01*
X67920Y495004D01*
G37*
G36*
X58664Y483200D02*
X50770Y489390D01*
X56960Y497284D01*
X64854Y491094D01*
X58664Y483200D01*
G37*
G36*
X524083Y594320D02*
X518962Y602945D01*
X527587Y608066D01*
X532708Y599441D01*
X524083Y594320D01*
G37*
G36*
X511185Y586662D02*
X506064Y595287D01*
X514689Y600408D01*
X519810Y591783D01*
X511185Y586662D01*
G37*
G36*
X575625Y673384D02*
X565768Y675247D01*
X567631Y685104D01*
X577488Y683241D01*
X575625Y673384D01*
G37*
G36*
X572841Y658644D02*
X562984Y660507D01*
X564847Y670364D01*
X574704Y668501D01*
X572841Y658644D01*
G37*
G36*
X17016Y358182D02*
X26639Y361015D01*
X29472Y351392D01*
X19849Y348559D01*
X17016Y358182D01*
G37*
G36*
X12780Y372572D02*
X22403Y375405D01*
X25236Y365782D01*
X15613Y362949D01*
X12780Y372572D01*
G37*
G36*
X111007Y270940D02*
X115374Y279971D01*
X124405Y275604D01*
X120038Y266573D01*
X111007Y270940D01*
G37*
G36*
X97503Y277468D02*
X101870Y286499D01*
X110901Y282132D01*
X106534Y273101D01*
X97503Y277468D01*
G37*
G36*
X524596Y824820D02*
X531652Y831950D01*
X538782Y824894D01*
X531726Y817764D01*
X524596Y824820D01*
G37*
G36*
X513934Y835370D02*
X520990Y842500D01*
X528120Y835444D01*
X521064Y828314D01*
X513934Y835370D01*
G37*
G36*
X564898Y760829D02*
X574836Y762191D01*
X576198Y752253D01*
X566260Y750891D01*
X564898Y760829D01*
G37*
G36*
X562862Y775691D02*
X572800Y777053D01*
X574162Y767115D01*
X564224Y765753D01*
X562862Y775691D01*
G37*
G36*
X378454Y886148D02*
X373318Y894764D01*
X381934Y899900D01*
X387070Y891284D01*
X378454Y886148D01*
G37*
G36*
X365570Y878468D02*
X360434Y887084D01*
X369050Y892220D01*
X374186Y883604D01*
X365570Y878468D01*
G37*
D10*
X461516Y980756D03*
X446516Y980756D03*
D11*
G36*
X733339Y462447D02*
X727817Y470821D01*
X736191Y476343D01*
X741713Y467969D01*
X733339Y462447D01*
G37*
G36*
X720817Y454189D02*
X715295Y462563D01*
X723669Y468085D01*
X729191Y459711D01*
X720817Y454189D01*
G37*
G36*
X595811Y370077D02*
X591319Y379047D01*
X600289Y383539D01*
X604781Y374569D01*
X595811Y370077D01*
G37*
G36*
X582399Y363361D02*
X577907Y372331D01*
X586877Y376823D01*
X591369Y367853D01*
X582399Y363361D01*
G37*
G36*
X428260Y314145D02*
X431510Y304655D01*
X422020Y301405D01*
X418770Y310895D01*
X428260Y314145D01*
G37*
G36*
X442452Y319003D02*
X445702Y309513D01*
X436212Y306263D01*
X432962Y315753D01*
X442452Y319003D01*
G37*
G36*
X297923Y275327D02*
X300401Y265607D01*
X290681Y263129D01*
X288203Y272849D01*
X297923Y275327D01*
G37*
G36*
X312459Y279031D02*
X314937Y269311D01*
X305217Y266833D01*
X302739Y276553D01*
X312459Y279031D01*
G37*
G36*
X946140Y677868D02*
X938087Y683849D01*
X944068Y691902D01*
X952121Y685921D01*
X946140Y677868D01*
G37*
G36*
X937196Y665826D02*
X929143Y671807D01*
X935124Y679860D01*
X943177Y673879D01*
X937196Y665826D01*
G37*
G36*
X845869Y560563D02*
X839624Y568414D01*
X847475Y574659D01*
X853720Y566808D01*
X845869Y560563D01*
G37*
G36*
X834129Y551225D02*
X827884Y559076D01*
X835735Y565321D01*
X841980Y557470D01*
X834129Y551225D01*
G37*
G36*
X908173Y896373D02*
X907003Y886411D01*
X897041Y887581D01*
X898211Y897543D01*
X908173Y896373D01*
G37*
G36*
X923071Y894623D02*
X921901Y884661D01*
X911939Y885831D01*
X913109Y895793D01*
X923071Y894623D01*
G37*
G36*
X983551Y798883D02*
X973542Y799548D01*
X974207Y809557D01*
X984216Y808892D01*
X983551Y798883D01*
G37*
G36*
X982557Y783915D02*
X972548Y784580D01*
X973213Y794589D01*
X983222Y793924D01*
X982557Y783915D01*
G37*
G36*
X221901Y772786D02*
X211966Y774165D01*
X213345Y784100D01*
X223280Y782721D01*
X221901Y772786D01*
G37*
G36*
X219839Y757928D02*
X209904Y759307D01*
X211283Y769242D01*
X221218Y767863D01*
X219839Y757928D01*
G37*
G36*
X559117Y970602D02*
X556151Y961020D01*
X546569Y963986D01*
X549535Y973568D01*
X559117Y970602D01*
G37*
G36*
X573447Y966166D02*
X570481Y956584D01*
X560899Y959550D01*
X563865Y969132D01*
X573447Y966166D01*
G37*
D12*
X761011Y917837D02*
X767811Y931476D01*
X745080Y942809D02*
X738280Y929171D01*
X715549Y940504D02*
X722349Y954143D01*
D13*
X707392Y697232D03*
X405332Y322580D03*
X766290Y762762D03*
X717550Y742612D03*
X255270Y725170D03*
X576580Y881380D03*
X356870Y869950D03*
X426720Y904240D03*
X507238Y908558D03*
X783590Y803910D03*
X816610Y854710D03*
X651510Y589280D03*
X257810Y803910D03*
X904240Y726440D03*
X359250Y834865D03*
X456554Y859546D03*
X413332Y571668D03*
X722243Y461137D03*
X917505Y890227D03*
X978879Y804220D03*
X582899Y807751D03*
X652388Y880748D03*
X760730Y842010D03*
X598050Y376808D03*
X330324Y615082D03*
X303401Y687746D03*
X117706Y273272D03*
X294302Y269228D03*
X439332Y312633D03*
X309090Y760887D03*
X428308Y570814D03*
X446516Y980756D03*
X380194Y893024D03*
X521027Y835407D03*
X258550Y875756D03*
X570548Y756541D03*
X215561Y763585D03*
X67068Y502046D03*
X371802Y843079D03*
X846672Y567611D03*
X936160Y672843D03*
X217366Y788386D03*
X367310Y885344D03*
X461516Y980756D03*
X552843Y967294D03*
X608330Y836930D03*
X147485Y576784D03*
X560070Y855980D03*
X217623Y778443D03*
X531689Y824857D03*
X649343Y920644D03*
X780923Y860822D03*
X567173Y962858D03*
X902607Y891977D03*
X977885Y789252D03*
X637540Y726830D03*
X308838Y272932D03*
X425140Y307775D03*
X23244Y354787D03*
X222250Y664094D03*
X584638Y370092D03*
X734765Y469395D03*
X945104Y684885D03*
X834932Y558273D03*
X765941Y860090D03*
X661705Y912148D03*
X779874Y850115D03*
X310231Y644834D03*
X222250Y635000D03*
X664210Y800100D03*
X673806Y798830D03*
X683402Y798830D03*
X695867Y834012D03*
M02*
