G04 EAGLE Gerber RS-274X export*
G75*
%MOMM*%
%FSLAX34Y34*%
%LPD*%
%INSolderpaste Bottom*%
%IPPOS*%
%AMOC8*
5,1,8,0,0,1.08239X$1,22.5*%
G01*
%ADD10R,0.900000X0.250000*%
%ADD11R,0.250000X0.900000*%
%ADD12R,2.500000X4.000000*%
%ADD13R,5.500000X4.000000*%
%ADD14R,1.000000X1.100000*%
%ADD15R,1.100000X1.000000*%
%ADD16R,2.550000X2.500000*%
%ADD17R,2.300000X1.600000*%
%ADD18R,1.200000X2.500000*%
%ADD19R,1.400000X1.000000*%
%ADD20R,0.700000X0.500000*%
%ADD21R,1.600000X1.803000*%

G36*
X643668Y770955D02*
X643668Y770955D01*
X643693Y770952D01*
X643788Y770975D01*
X643885Y770990D01*
X643906Y771002D01*
X643930Y771008D01*
X644014Y771059D01*
X644100Y771105D01*
X644117Y771123D01*
X644138Y771136D01*
X644200Y771212D01*
X644267Y771284D01*
X644277Y771306D01*
X644293Y771325D01*
X644327Y771416D01*
X644368Y771506D01*
X644370Y771530D01*
X644379Y771553D01*
X644393Y771700D01*
X644393Y793200D01*
X644389Y793224D01*
X644392Y793249D01*
X644370Y793344D01*
X644354Y793441D01*
X644342Y793462D01*
X644336Y793486D01*
X644285Y793570D01*
X644239Y793656D01*
X644221Y793673D01*
X644208Y793694D01*
X644132Y793756D01*
X644061Y793823D01*
X644038Y793833D01*
X644019Y793849D01*
X643928Y793883D01*
X643838Y793924D01*
X643814Y793926D01*
X643791Y793935D01*
X643644Y793949D01*
X622144Y793949D01*
X622120Y793945D01*
X622095Y793948D01*
X622000Y793926D01*
X621903Y793910D01*
X621882Y793898D01*
X621858Y793892D01*
X621774Y793841D01*
X621688Y793795D01*
X621671Y793777D01*
X621650Y793764D01*
X621588Y793688D01*
X621521Y793617D01*
X621511Y793594D01*
X621496Y793575D01*
X621461Y793484D01*
X621420Y793394D01*
X621418Y793370D01*
X621409Y793347D01*
X621395Y793200D01*
X621395Y773700D01*
X621413Y773589D01*
X621428Y773478D01*
X621433Y773469D01*
X621434Y773459D01*
X621487Y773360D01*
X621538Y773260D01*
X621545Y773253D01*
X621549Y773244D01*
X621631Y773168D01*
X621711Y773088D01*
X621722Y773082D01*
X621728Y773077D01*
X621744Y773070D01*
X621840Y773015D01*
X622427Y772755D01*
X622860Y772416D01*
X623199Y771983D01*
X623459Y771396D01*
X623521Y771303D01*
X623580Y771206D01*
X623588Y771200D01*
X623593Y771192D01*
X623682Y771123D01*
X623769Y771052D01*
X623778Y771048D01*
X623786Y771042D01*
X623892Y771005D01*
X623997Y770965D01*
X624009Y770964D01*
X624016Y770962D01*
X624034Y770962D01*
X624144Y770951D01*
X643644Y770951D01*
X643668Y770955D01*
G37*
D10*
X612394Y772450D03*
X612394Y777450D03*
X612394Y782450D03*
X612394Y787450D03*
X612394Y792450D03*
D11*
X622894Y802950D03*
X627894Y802950D03*
X632894Y802950D03*
X637894Y802950D03*
X642894Y802950D03*
D10*
X653394Y792450D03*
X653394Y787450D03*
X653394Y782450D03*
X653394Y777450D03*
X653394Y772450D03*
D11*
X642894Y761950D03*
X637894Y761950D03*
X632894Y761950D03*
X627894Y761950D03*
X622894Y761950D03*
D12*
G36*
X71592Y339878D02*
X55523Y359029D01*
X86164Y384740D01*
X102233Y365589D01*
X71592Y339878D01*
G37*
D13*
G36*
X179363Y410730D02*
X144011Y452861D01*
X174653Y478572D01*
X210005Y436441D01*
X179363Y410730D01*
G37*
G36*
X407377Y673850D02*
X442729Y631719D01*
X412087Y606008D01*
X376735Y648139D01*
X407377Y673850D01*
G37*
D12*
G36*
X515148Y744702D02*
X531217Y725551D01*
X500576Y699840D01*
X484507Y718991D01*
X515148Y744702D01*
G37*
G36*
X475452Y426238D02*
X459383Y445389D01*
X490024Y471100D01*
X506093Y451949D01*
X475452Y426238D01*
G37*
D13*
G36*
X583223Y497090D02*
X547871Y539221D01*
X578513Y564932D01*
X613865Y522801D01*
X583223Y497090D01*
G37*
G36*
X811237Y760210D02*
X846589Y718079D01*
X815947Y692368D01*
X780595Y734499D01*
X811237Y760210D01*
G37*
D12*
G36*
X919008Y831062D02*
X935077Y811911D01*
X904436Y786200D01*
X888367Y805351D01*
X919008Y831062D01*
G37*
D14*
X592700Y819150D03*
X575700Y819150D03*
X592700Y798830D03*
X575700Y798830D03*
X592700Y777240D03*
X575700Y777240D03*
X592700Y756920D03*
X575700Y756920D03*
X592700Y736600D03*
X575700Y736600D03*
D15*
X637540Y743830D03*
X637540Y726830D03*
D14*
X638810Y823350D03*
X638810Y840350D03*
D16*
X627230Y881380D03*
X576730Y881380D03*
D17*
G36*
X680739Y779859D02*
X698357Y794642D01*
X708641Y782385D01*
X691023Y767602D01*
X680739Y779859D01*
G37*
G36*
X728999Y820355D02*
X746617Y835138D01*
X756901Y822881D01*
X739283Y808098D01*
X728999Y820355D01*
G37*
D14*
G36*
X690210Y822085D02*
X682551Y815657D01*
X675480Y824083D01*
X683139Y830511D01*
X690210Y822085D01*
G37*
G36*
X703232Y833013D02*
X695573Y826585D01*
X688502Y835011D01*
X696161Y841439D01*
X703232Y833013D01*
G37*
D18*
G36*
X363473Y344766D02*
X372666Y352480D01*
X388735Y333330D01*
X379542Y325616D01*
X363473Y344766D01*
G37*
G36*
X344322Y328697D02*
X353515Y336411D01*
X369584Y317261D01*
X360391Y309547D01*
X344322Y328697D01*
G37*
G36*
X325171Y312627D02*
X334364Y320341D01*
X350433Y301191D01*
X341240Y293477D01*
X325171Y312627D01*
G37*
G36*
X290461Y353994D02*
X299654Y361708D01*
X315723Y342558D01*
X306530Y334844D01*
X290461Y353994D01*
G37*
G36*
X309612Y370063D02*
X318805Y377777D01*
X334874Y358627D01*
X325681Y350913D01*
X309612Y370063D01*
G37*
G36*
X328763Y386133D02*
X337956Y393847D01*
X354025Y374697D01*
X344832Y366983D01*
X328763Y386133D01*
G37*
D19*
X902794Y852424D03*
X880794Y861924D03*
X880794Y842924D03*
D20*
X242428Y305562D03*
X255428Y305562D03*
D21*
X212848Y299212D03*
X184408Y299212D03*
M02*
