G04 EAGLE Gerber RS-274X export*
G75*
%MOMM*%
%FSLAX34Y34*%
%LPD*%
%INSoldermask Bottom*%
%IPPOS*%
%AMOC8*
5,1,8,0,0,1.08239X$1,22.5*%
G01*
%ADD10R,1.050000X0.350000*%
%ADD11R,0.350000X1.050000*%
%ADD12R,2.703200X4.203200*%
%ADD13R,5.703200X4.203200*%
%ADD14R,1.203200X1.303200*%
%ADD15R,1.303200X1.203200*%
%ADD16R,2.753200X2.703200*%
%ADD17R,2.503200X1.803200*%
%ADD18C,1.727200*%
%ADD19R,1.403200X2.703200*%
%ADD20R,1.603200X1.203200*%
%ADD21R,0.903200X0.703200*%
%ADD22R,0.838200X1.473200*%
%ADD23R,1.803200X2.006200*%
%ADD24C,0.959600*%

G36*
X640199Y774501D02*
X640199Y774501D01*
X640218Y774504D01*
X640237Y774502D01*
X640338Y774525D01*
X640440Y774542D01*
X640457Y774551D01*
X640475Y774556D01*
X640563Y774609D01*
X640654Y774659D01*
X640667Y774673D01*
X640684Y774683D01*
X640750Y774762D01*
X640820Y774838D01*
X640828Y774855D01*
X640840Y774870D01*
X640877Y774967D01*
X640919Y775061D01*
X640921Y775080D01*
X640928Y775098D01*
X640943Y775245D01*
X641043Y789545D01*
X641039Y789569D01*
X641042Y789593D01*
X641020Y789689D01*
X641005Y789786D01*
X640994Y789808D01*
X640988Y789831D01*
X640937Y789915D01*
X640892Y790002D01*
X640874Y790019D01*
X640861Y790040D01*
X640786Y790102D01*
X640715Y790170D01*
X640693Y790180D01*
X640674Y790196D01*
X640582Y790231D01*
X640493Y790272D01*
X640469Y790275D01*
X640446Y790284D01*
X640299Y790299D01*
X625799Y790399D01*
X625770Y790395D01*
X625740Y790397D01*
X625650Y790376D01*
X625558Y790361D01*
X625532Y790347D01*
X625503Y790340D01*
X625424Y790291D01*
X625342Y790248D01*
X625322Y790226D01*
X625297Y790210D01*
X625238Y790138D01*
X625174Y790071D01*
X625162Y790044D01*
X625143Y790021D01*
X625111Y789934D01*
X625072Y789849D01*
X625069Y789820D01*
X625058Y789792D01*
X625045Y789645D01*
X625143Y775645D01*
X625092Y775596D01*
X625083Y775578D01*
X625068Y775562D01*
X625027Y775470D01*
X624981Y775379D01*
X624978Y775358D01*
X624969Y775339D01*
X624960Y775239D01*
X624945Y775138D01*
X624949Y775117D01*
X624947Y775096D01*
X624970Y774998D01*
X624988Y774898D01*
X624999Y774880D01*
X625004Y774859D01*
X625058Y774773D01*
X625107Y774685D01*
X625122Y774670D01*
X625134Y774653D01*
X625212Y774589D01*
X625288Y774521D01*
X625307Y774512D01*
X625323Y774499D01*
X625418Y774464D01*
X625511Y774423D01*
X625532Y774422D01*
X625552Y774414D01*
X625699Y774401D01*
X640199Y774501D01*
G37*
G36*
X250890Y335673D02*
X250890Y335673D01*
X250956Y335675D01*
X250999Y335693D01*
X251046Y335701D01*
X251103Y335735D01*
X251163Y335760D01*
X251198Y335791D01*
X251239Y335816D01*
X251281Y335867D01*
X251329Y335911D01*
X251351Y335953D01*
X251380Y335990D01*
X251401Y336052D01*
X251432Y336111D01*
X251440Y336165D01*
X251452Y336202D01*
X251451Y336242D01*
X251459Y336296D01*
X251459Y338836D01*
X251448Y338901D01*
X251446Y338967D01*
X251428Y339010D01*
X251420Y339057D01*
X251386Y339114D01*
X251361Y339174D01*
X251330Y339209D01*
X251305Y339250D01*
X251254Y339292D01*
X251210Y339340D01*
X251168Y339362D01*
X251131Y339391D01*
X251069Y339412D01*
X251010Y339443D01*
X250956Y339451D01*
X250919Y339463D01*
X250879Y339462D01*
X250825Y339470D01*
X247015Y339470D01*
X246950Y339459D01*
X246884Y339457D01*
X246841Y339439D01*
X246794Y339431D01*
X246737Y339397D01*
X246677Y339372D01*
X246642Y339341D01*
X246601Y339316D01*
X246560Y339265D01*
X246511Y339221D01*
X246489Y339179D01*
X246460Y339142D01*
X246439Y339080D01*
X246408Y339021D01*
X246400Y338967D01*
X246388Y338930D01*
X246388Y338927D01*
X246389Y338890D01*
X246381Y338836D01*
X246381Y336296D01*
X246392Y336231D01*
X246394Y336165D01*
X246412Y336122D01*
X246420Y336075D01*
X246454Y336018D01*
X246479Y335958D01*
X246510Y335923D01*
X246535Y335882D01*
X246586Y335841D01*
X246630Y335792D01*
X246672Y335770D01*
X246709Y335741D01*
X246771Y335720D01*
X246830Y335689D01*
X246884Y335681D01*
X246921Y335669D01*
X246961Y335670D01*
X247015Y335662D01*
X250825Y335662D01*
X250890Y335673D01*
G37*
D10*
X616894Y772450D03*
X616894Y777450D03*
X616894Y782450D03*
X616894Y787450D03*
X616894Y792450D03*
D11*
X622894Y798450D03*
X627894Y798450D03*
X632894Y798450D03*
X637894Y798450D03*
X642894Y798450D03*
D10*
X648894Y792450D03*
X648894Y787450D03*
X648894Y782450D03*
X648894Y777450D03*
X648894Y772450D03*
D11*
X642894Y766450D03*
X637894Y766450D03*
X632894Y766450D03*
X627894Y766450D03*
X622894Y766450D03*
D12*
G36*
X71467Y338447D02*
X54091Y359155D01*
X86289Y386171D01*
X103665Y365463D01*
X71467Y338447D01*
G37*
D13*
G36*
X179238Y409298D02*
X142580Y452986D01*
X174778Y480004D01*
X211436Y436316D01*
X179238Y409298D01*
G37*
G36*
X407502Y675282D02*
X444160Y631594D01*
X411962Y604576D01*
X375304Y648264D01*
X407502Y675282D01*
G37*
D12*
G36*
X515273Y746133D02*
X532649Y725425D01*
X500451Y698409D01*
X483075Y719117D01*
X515273Y746133D01*
G37*
G36*
X475327Y424807D02*
X457951Y445515D01*
X490149Y472531D01*
X507525Y451823D01*
X475327Y424807D01*
G37*
D13*
G36*
X583098Y495658D02*
X546440Y539346D01*
X578638Y566364D01*
X615296Y522676D01*
X583098Y495658D01*
G37*
G36*
X811362Y761642D02*
X848020Y717954D01*
X815822Y690936D01*
X779164Y734624D01*
X811362Y761642D01*
G37*
D12*
G36*
X919133Y832493D02*
X936509Y811785D01*
X904311Y784769D01*
X886935Y805477D01*
X919133Y832493D01*
G37*
D14*
X592700Y819150D03*
X575700Y819150D03*
X592700Y798830D03*
X575700Y798830D03*
X592700Y777240D03*
X575700Y777240D03*
X592700Y756920D03*
X575700Y756920D03*
X592700Y736600D03*
X575700Y736600D03*
D15*
X637540Y743830D03*
X637540Y726830D03*
D14*
X638810Y823350D03*
X638810Y840350D03*
D16*
X627230Y881380D03*
X576730Y881380D03*
D17*
G36*
X679307Y779984D02*
X698482Y796073D01*
X710073Y782260D01*
X690898Y766171D01*
X679307Y779984D01*
G37*
G36*
X727567Y820480D02*
X746742Y836569D01*
X758333Y822756D01*
X739158Y806667D01*
X727567Y820480D01*
G37*
D18*
X761011Y917837D02*
X767811Y931476D01*
X745080Y942809D02*
X738280Y929171D01*
X715549Y940504D02*
X722349Y954143D01*
D14*
G36*
X691641Y821960D02*
X682425Y814226D01*
X674049Y824208D01*
X683265Y831942D01*
X691641Y821960D01*
G37*
G36*
X704663Y832888D02*
X695447Y825154D01*
X687071Y835136D01*
X696287Y842870D01*
X704663Y832888D01*
G37*
D19*
G36*
X362042Y344892D02*
X372791Y353911D01*
X390166Y333204D01*
X379417Y324185D01*
X362042Y344892D01*
G37*
G36*
X342891Y328823D02*
X353640Y337842D01*
X371015Y317135D01*
X360266Y308116D01*
X342891Y328823D01*
G37*
G36*
X323740Y312753D02*
X334489Y321772D01*
X351864Y301065D01*
X341115Y292046D01*
X323740Y312753D01*
G37*
G36*
X289030Y354120D02*
X299779Y363139D01*
X317154Y342432D01*
X306405Y333413D01*
X289030Y354120D01*
G37*
G36*
X308181Y370189D02*
X318930Y379208D01*
X336305Y358501D01*
X325556Y349482D01*
X308181Y370189D01*
G37*
G36*
X327332Y386259D02*
X338081Y395278D01*
X355456Y374571D01*
X344707Y365552D01*
X327332Y386259D01*
G37*
D20*
X902794Y852424D03*
X880794Y861924D03*
X880794Y842924D03*
D21*
X242428Y305562D03*
X255428Y305562D03*
D22*
X243840Y337566D03*
X254000Y337566D03*
X917194Y871982D03*
X909066Y871982D03*
D23*
X212848Y299212D03*
X184408Y299212D03*
D24*
X707392Y697232D03*
X405332Y322580D03*
X766290Y762762D03*
X717550Y742612D03*
X255270Y725170D03*
X576580Y881380D03*
X356870Y869950D03*
X426720Y904240D03*
X507238Y908558D03*
X783590Y803910D03*
X816610Y854710D03*
X651510Y589280D03*
X257810Y803910D03*
X904240Y726440D03*
X359250Y834865D03*
X456554Y859546D03*
X413332Y571668D03*
X722243Y461137D03*
X917505Y890227D03*
X978879Y804220D03*
X582899Y807751D03*
X652388Y880748D03*
X760730Y842010D03*
X598050Y376808D03*
X330324Y615082D03*
X303401Y687746D03*
X117706Y273272D03*
X294302Y269228D03*
X439332Y312633D03*
X309090Y760887D03*
X428308Y570814D03*
X446516Y980756D03*
X380194Y893024D03*
X521027Y835407D03*
X258550Y875756D03*
X570548Y756541D03*
X215561Y763585D03*
X67068Y502046D03*
X371802Y843079D03*
X846672Y567611D03*
X936160Y672843D03*
X217366Y788386D03*
X367310Y885344D03*
X461516Y980756D03*
X552843Y967294D03*
X608330Y836930D03*
X147485Y576784D03*
X560070Y855980D03*
X217623Y778443D03*
X531689Y824857D03*
X649343Y920644D03*
X780923Y860822D03*
X567173Y962858D03*
X902607Y891977D03*
X977885Y789252D03*
X637540Y726830D03*
X308838Y272932D03*
X425140Y307775D03*
X23244Y354787D03*
X222250Y664094D03*
X584638Y370092D03*
X734765Y469395D03*
X945104Y684885D03*
X834932Y558273D03*
X765941Y860090D03*
X661705Y912148D03*
X779874Y850115D03*
X310231Y644834D03*
X222250Y635000D03*
X664210Y800100D03*
X673806Y798830D03*
X683402Y798830D03*
X695867Y834012D03*
M02*
