G04 EAGLE Gerber RS-274X export*
G75*
%MOMM*%
%FSLAX34Y34*%
%LPD*%
%INSolder paste top*%
%IPPOS*%
%AMOC8*
5,1,8,0,0,1.08239X$1,22.5*%
G01*
%ADD10C,0.152400*%
%ADD11R,0.800000X0.800000*%
%ADD12R,0.800000X0.800000*%


D10*
X201930Y241300D02*
X135890Y251460D01*
X107950Y259080D01*
X90170Y267970D01*
X72390Y279400D01*
X50800Y294640D01*
X34290Y308610D01*
X20320Y327660D01*
X12700Y340360D01*
X7620Y350520D01*
X3810Y361950D01*
X2540Y369570D01*
X2540Y378460D01*
X3810Y398780D01*
X7620Y424180D01*
X12700Y447040D01*
X29210Y478790D01*
X52070Y510540D01*
X81280Y541020D01*
X106680Y558800D01*
X127000Y577850D01*
X146050Y599440D01*
X171450Y640080D01*
X176530Y655320D01*
X186690Y689610D01*
X193040Y711200D01*
X196850Y735330D01*
X199390Y760730D01*
X200660Y774700D01*
X204470Y802640D01*
X218440Y838200D01*
X240030Y880110D01*
X259080Y905510D01*
X285750Y929640D01*
X325120Y957580D01*
X340360Y965200D01*
X375920Y980440D01*
X402590Y990600D01*
X422910Y995680D01*
X448310Y996950D01*
X476250Y995680D01*
X529590Y990600D01*
X567690Y980440D01*
X609600Y962660D01*
X646430Y941070D01*
X680720Y918210D01*
X732790Y881380D02*
X749300Y878840D01*
X768350Y876300D01*
X788670Y877570D01*
X812800Y885190D01*
X838200Y896620D01*
X849630Y901700D01*
X876300Y906780D01*
X895350Y908050D01*
X927100Y905510D01*
X944880Y900430D01*
X963930Y887730D01*
X976630Y876300D01*
X984250Y867410D01*
X990600Y853440D01*
X994410Y835660D01*
X995680Y816610D01*
X994410Y791210D01*
X990600Y753110D01*
X986790Y735330D01*
X975360Y711200D01*
X961390Y681990D01*
X942340Y652780D01*
X915670Y622300D01*
X875030Y575310D01*
X821690Y518160D01*
X773430Y474980D01*
X734060Y444500D01*
X721360Y434340D01*
X716280Y430530D01*
X716280Y421640D01*
X717550Y398780D01*
X723900Y363220D01*
X730250Y332740D01*
X739140Y303530D01*
X749300Y276860D01*
X760730Y252730D01*
X765810Y237490D01*
X769620Y223520D01*
X773430Y205740D01*
X778510Y173990D01*
X777240Y156210D01*
X772160Y129540D01*
X762000Y107950D01*
X749300Y96520D01*
X732790Y92710D01*
X725170Y86360D01*
X708660Y68580D01*
X697230Y58420D01*
X680720Y41910D01*
X668020Y30480D01*
X654050Y21590D01*
X647700Y17780D01*
X635000Y11430D01*
X621030Y5080D01*
X600710Y2540D01*
X584200Y3810D01*
X568960Y6350D01*
X557530Y7620D01*
X537210Y15240D01*
X532130Y17780D01*
X528320Y21590D01*
X521970Y29210D01*
X518160Y34290D01*
X513080Y39370D01*
X509270Y41910D01*
X504190Y44450D01*
X496570Y46990D01*
X485140Y49530D01*
X476250Y50800D01*
X461010Y54610D01*
X449580Y59690D01*
X441960Y66040D01*
X429260Y81280D01*
X421640Y96520D01*
X420370Y111760D01*
X421640Y121920D01*
X426720Y134620D01*
X441960Y170180D01*
X447040Y180340D01*
X450850Y195580D01*
X452120Y207010D01*
X454660Y223520D01*
X454660Y254000D01*
X453390Y265430D01*
X450850Y280670D01*
X447040Y287020D01*
X443230Y292100D01*
X438150Y294640D01*
X436880Y294640D01*
X431800Y293370D01*
X400050Y283210D01*
X375920Y273050D01*
X353060Y266700D01*
X321310Y257810D01*
X290830Y251460D01*
X254000Y245110D01*
X226060Y241300D01*
X201930Y241300D01*
X303530Y925830D02*
X327660Y941070D01*
X347980Y952500D01*
X361950Y958850D01*
X372110Y962660D01*
X384810Y963930D01*
X396240Y962660D01*
X398780Y961390D01*
X408686Y944118D01*
X303276Y886968D01*
X293370Y905510D01*
X294640Y911860D01*
X298450Y919480D01*
X303530Y925830D01*
X736600Y896620D02*
X772160Y897890D01*
X697230Y932180D02*
X689610Y938530D01*
X713740Y979170D01*
X795020Y939800D01*
X772160Y897890D01*
X687070Y913130D02*
X680720Y918210D01*
X687070Y913130D02*
X699770Y929640D01*
X697230Y932180D01*
X736600Y896620D02*
X732790Y881380D01*
D11*
X456554Y859546D03*
X441554Y859546D03*
D12*
G36*
X370646Y837542D02*
X366265Y844235D01*
X372958Y848616D01*
X377339Y841923D01*
X370646Y837542D01*
G37*
G36*
X358094Y829328D02*
X353713Y836021D01*
X360406Y840402D01*
X364787Y833709D01*
X358094Y829328D01*
G37*
G36*
X424085Y567041D02*
X424545Y575027D01*
X432531Y574567D01*
X432071Y566581D01*
X424085Y567041D01*
G37*
G36*
X409109Y567905D02*
X409569Y575891D01*
X417555Y575431D01*
X417095Y567445D01*
X409109Y567905D01*
G37*
G36*
X335404Y604537D02*
X340991Y610262D01*
X346716Y604675D01*
X341129Y598950D01*
X335404Y604537D01*
G37*
G36*
X324668Y615013D02*
X330255Y620738D01*
X335980Y615151D01*
X330393Y609426D01*
X324668Y615013D01*
G37*
G36*
X317054Y769464D02*
X309685Y772577D01*
X312798Y779946D01*
X320167Y776833D01*
X317054Y769464D01*
G37*
G36*
X311218Y755646D02*
X303849Y758759D01*
X306962Y766128D01*
X314331Y763015D01*
X311218Y755646D01*
G37*
G36*
X307618Y683976D02*
X299631Y683529D01*
X299184Y691516D01*
X307171Y691963D01*
X307618Y683976D01*
G37*
G36*
X308456Y669000D02*
X300469Y668553D01*
X300022Y676540D01*
X308009Y676987D01*
X308456Y669000D01*
G37*
G36*
X249083Y868872D02*
X255714Y864399D01*
X251241Y857768D01*
X244610Y862241D01*
X249083Y868872D01*
G37*
G36*
X257471Y881308D02*
X264102Y876835D01*
X259629Y870204D01*
X252998Y874677D01*
X257471Y881308D01*
G37*
G36*
X191334Y662774D02*
X198975Y660409D01*
X196610Y652768D01*
X188969Y655133D01*
X191334Y662774D01*
G37*
G36*
X195770Y677104D02*
X203411Y674739D01*
X201046Y667098D01*
X193405Y669463D01*
X195770Y677104D01*
G37*
G36*
X654905Y921674D02*
X650373Y915082D01*
X643781Y919614D01*
X648313Y926206D01*
X654905Y921674D01*
G37*
G36*
X667267Y913178D02*
X662735Y906586D01*
X656143Y911118D01*
X660675Y917710D01*
X667267Y913178D01*
G37*
G36*
X769740Y864280D02*
X770131Y856291D01*
X762142Y855900D01*
X761751Y863889D01*
X769740Y864280D01*
G37*
G36*
X784722Y865012D02*
X785113Y857023D01*
X777124Y856632D01*
X776733Y864621D01*
X784722Y865012D01*
G37*
G36*
X136975Y571631D02*
X142738Y566084D01*
X137191Y560321D01*
X131428Y565868D01*
X136975Y571631D01*
G37*
G36*
X147377Y582439D02*
X153140Y576892D01*
X147593Y571129D01*
X141830Y576676D01*
X147377Y582439D01*
G37*
G36*
X67747Y496431D02*
X61453Y501367D01*
X66389Y507661D01*
X72683Y502725D01*
X67747Y496431D01*
G37*
G36*
X58491Y484627D02*
X52197Y489563D01*
X57133Y495857D01*
X63427Y490921D01*
X58491Y484627D01*
G37*
G36*
X524438Y595712D02*
X520354Y602590D01*
X527232Y606674D01*
X531316Y599796D01*
X524438Y595712D01*
G37*
G36*
X511540Y588054D02*
X507456Y594932D01*
X514334Y599016D01*
X518418Y592138D01*
X511540Y588054D01*
G37*
G36*
X574815Y674571D02*
X566955Y676057D01*
X568441Y683917D01*
X576301Y682431D01*
X574815Y674571D01*
G37*
G36*
X572031Y659831D02*
X564171Y661317D01*
X565657Y669177D01*
X573517Y667691D01*
X572031Y659831D01*
G37*
G36*
X18278Y357494D02*
X25951Y359753D01*
X28210Y352080D01*
X20537Y349821D01*
X18278Y357494D01*
G37*
G36*
X14042Y371884D02*
X21715Y374143D01*
X23974Y366470D01*
X16301Y364211D01*
X14042Y371884D01*
G37*
G36*
X112364Y271412D02*
X115846Y278614D01*
X123048Y275132D01*
X119566Y267930D01*
X112364Y271412D01*
G37*
G36*
X98860Y277940D02*
X102342Y285142D01*
X109544Y281660D01*
X106062Y274458D01*
X98860Y277940D01*
G37*
G36*
X526033Y824828D02*
X531660Y830513D01*
X537345Y824886D01*
X531718Y819201D01*
X526033Y824828D01*
G37*
G36*
X515371Y835378D02*
X520998Y841063D01*
X526683Y835436D01*
X521056Y829751D01*
X515371Y835378D01*
G37*
G36*
X566043Y759961D02*
X573968Y761046D01*
X575053Y753121D01*
X567128Y752036D01*
X566043Y759961D01*
G37*
G36*
X564007Y774823D02*
X571932Y775908D01*
X573017Y767983D01*
X565092Y766898D01*
X564007Y774823D01*
G37*
G36*
X378807Y887540D02*
X374710Y894411D01*
X381581Y898508D01*
X385678Y891637D01*
X378807Y887540D01*
G37*
G36*
X365923Y879860D02*
X361826Y886731D01*
X368697Y890828D01*
X372794Y883957D01*
X365923Y879860D01*
G37*
D11*
X461516Y980756D03*
X446516Y980756D03*
D12*
G36*
X733628Y463854D02*
X729224Y470532D01*
X735902Y474936D01*
X740306Y468258D01*
X733628Y463854D01*
G37*
G36*
X721106Y455596D02*
X716702Y462274D01*
X723380Y466678D01*
X727784Y460000D01*
X721106Y455596D01*
G37*
G36*
X596265Y371441D02*
X592683Y378593D01*
X599835Y382175D01*
X603417Y375023D01*
X596265Y371441D01*
G37*
G36*
X582853Y364725D02*
X579271Y371877D01*
X586423Y375459D01*
X590005Y368307D01*
X582853Y364725D01*
G37*
G36*
X427628Y312855D02*
X430220Y305287D01*
X422652Y302695D01*
X420060Y310263D01*
X427628Y312855D01*
G37*
G36*
X441820Y317713D02*
X444412Y310145D01*
X436844Y307553D01*
X434252Y315121D01*
X441820Y317713D01*
G37*
G36*
X297190Y274092D02*
X299166Y266340D01*
X291414Y264364D01*
X289438Y272116D01*
X297190Y274092D01*
G37*
G36*
X311726Y277796D02*
X313702Y270044D01*
X305950Y268068D01*
X303974Y275820D01*
X311726Y277796D01*
G37*
G36*
X945930Y679289D02*
X939508Y684059D01*
X944278Y690481D01*
X950700Y685711D01*
X945930Y679289D01*
G37*
G36*
X936986Y667247D02*
X930564Y672017D01*
X935334Y678439D01*
X941756Y673669D01*
X936986Y667247D01*
G37*
G36*
X846032Y561991D02*
X841052Y568251D01*
X847312Y573231D01*
X852292Y566971D01*
X846032Y561991D01*
G37*
G36*
X834292Y552653D02*
X829312Y558913D01*
X835572Y563893D01*
X840552Y557633D01*
X834292Y552653D01*
G37*
G36*
X907046Y895482D02*
X906112Y887538D01*
X898168Y888472D01*
X899102Y896416D01*
X907046Y895482D01*
G37*
G36*
X921944Y893732D02*
X921010Y885788D01*
X913066Y886722D01*
X914000Y894666D01*
X921944Y893732D01*
G37*
G36*
X982605Y799964D02*
X974623Y800494D01*
X975153Y808476D01*
X983135Y807946D01*
X982605Y799964D01*
G37*
G36*
X981611Y784996D02*
X973629Y785526D01*
X974159Y793508D01*
X982141Y792978D01*
X981611Y784996D01*
G37*
G36*
X221035Y773932D02*
X213112Y775031D01*
X214211Y782954D01*
X222134Y781855D01*
X221035Y773932D01*
G37*
G36*
X218973Y759074D02*
X211050Y760173D01*
X212149Y768096D01*
X220072Y766997D01*
X218973Y759074D01*
G37*
G36*
X557846Y969932D02*
X555481Y962291D01*
X547840Y964656D01*
X550205Y972297D01*
X557846Y969932D01*
G37*
G36*
X572176Y965496D02*
X569811Y957855D01*
X562170Y960220D01*
X564535Y967861D01*
X572176Y965496D01*
G37*
M02*
