M48
;GenerationSoftware,Autodesk,EAGLE,9.3.0*%
;CreationDate,2019-02-08T03:55:19Z*%
FMAT,2
ICI,OFF
METRIC,TZ,000.000
T3C0.350
T2C1.016
%
G90
M71
T2
X71895Y94732
X74168Y93599
X76441Y92466
T3
X63754Y72683
X93616Y67284
X97788Y78925
X90261Y89198
X56717Y96286
X78092Y86082
X64934Y92064
X53169Y82486
X21762Y77844
X56007Y85598
X14748Y57678
X60833Y83693
X55284Y96729
X46152Y98076
X36731Y88534
X21737Y78839
X84667Y56761
X76594Y86009
X69587Y83401
X68340Y79883
X67381Y79883
X66421Y80010
X22225Y63500
X31023Y64483
X77987Y85011
X66170Y91215
X30884Y27293
X83493Y55827
X94510Y68489
X73477Y46939
X58464Y37009
X22225Y66409
X2324Y35479
X42514Y30777
X81661Y85471
X58290Y80775
X97888Y80422
X91750Y89023
X72224Y46114
X41333Y57167
X45655Y85955
X35925Y83487
X25781Y80391
X65151Y58928
X65239Y88075
X78359Y80391
X78994Y73406
X50292Y91186
X42672Y90424
X35687Y86995
X57658Y88138
X25527Y72517
X40533Y32258
X42831Y57081
X37180Y84308
X6707Y50205
X21556Y76359
X57055Y75654
X25855Y87576
X52103Y83541
X38019Y89302
X44652Y98076
X70739Y69723
X30909Y76089
X43933Y31263
X29430Y26923
X11771Y27327
X30340Y68775
X33032Y61508
X59805Y37681
X76073Y84201
M30