G04 EAGLE Gerber RS-274X export*
G75*
%MOMM*%
%FSLAX34Y34*%
%LPD*%
%INBottom layer*%
%IPPOS*%
%AMOC8*
5,1,8,0,0,1.08239X$1,22.5*%
G01*
%ADD10C,0.152400*%
%ADD11R,1.422400X0.101600*%
%ADD12R,2.641600X0.101600*%
%ADD13R,1.625600X0.101600*%
%ADD14R,0.101600X0.050800*%
%ADD15R,0.406400X0.050800*%
%ADD16R,0.508000X0.050800*%
%ADD17R,0.660400X0.050800*%
%ADD18R,0.762000X0.050800*%
%ADD19R,0.304800X0.050800*%
%ADD20R,0.355600X0.050800*%
%ADD21R,0.254000X0.050800*%
%ADD22R,0.914400X0.050800*%
%ADD23R,1.117600X0.050800*%
%ADD24R,1.270000X0.050800*%
%ADD25R,1.422400X0.050800*%
%ADD26R,0.558800X0.050800*%
%ADD27R,0.457200X0.050800*%
%ADD28R,0.609600X0.050800*%
%ADD29R,0.812800X0.050800*%
%ADD30R,0.965200X0.050800*%
%ADD31R,1.168400X0.050800*%
%ADD32R,1.320800X0.050800*%
%ADD33R,0.203200X0.050800*%
%ADD34R,0.050800X0.050800*%
%ADD35R,1.219200X0.050800*%
%ADD36R,0.152400X0.050800*%
%ADD37R,0.711200X0.050800*%
%ADD38C,0.508000*%
%ADD39R,0.950000X0.300000*%
%ADD40R,2.450000X2.450000*%
%ADD41R,0.300000X0.950000*%
%ADD42R,2.500000X4.000000*%
%ADD43R,5.500000X4.000000*%
%ADD44R,1.000000X1.100000*%
%ADD45R,1.100000X1.000000*%
%ADD46R,2.550000X2.500000*%
%ADD47R,2.300000X1.600000*%
%ADD48C,1.524000*%
%ADD49R,0.800000X0.600000*%
%ADD50R,1.200000X2.500000*%
%ADD51C,0.203200*%
%ADD52C,0.406400*%
%ADD53C,0.756400*%
%ADD54C,0.304800*%
%ADD55C,1.016000*%

G36*
X225023Y256292D02*
X225023Y256292D01*
X225094Y256294D01*
X251700Y259922D01*
X251710Y259925D01*
X251726Y259926D01*
X286485Y265919D01*
X286510Y265927D01*
X286537Y265929D01*
X286626Y265967D01*
X286717Y265999D01*
X286738Y266015D01*
X286763Y266026D01*
X286894Y266131D01*
X288265Y267501D01*
X288318Y267575D01*
X288377Y267645D01*
X288389Y267675D01*
X288408Y267701D01*
X288435Y267788D01*
X288469Y267873D01*
X288474Y267914D01*
X288481Y267936D01*
X288480Y267968D01*
X288488Y268040D01*
X288488Y270384D01*
X289373Y272521D01*
X291009Y274157D01*
X293146Y275042D01*
X295490Y275042D01*
X295580Y275057D01*
X295671Y275064D01*
X295701Y275077D01*
X295733Y275082D01*
X295814Y275125D01*
X295898Y275160D01*
X295930Y275186D01*
X295950Y275197D01*
X295973Y275220D01*
X296028Y275265D01*
X302001Y281237D01*
X302001Y281238D01*
X304010Y283246D01*
X315425Y283246D01*
X318403Y280268D01*
X318477Y280215D01*
X318547Y280156D01*
X318577Y280144D01*
X318603Y280125D01*
X318690Y280098D01*
X318775Y280064D01*
X318816Y280059D01*
X318838Y280052D01*
X318870Y280053D01*
X318942Y280045D01*
X329962Y280045D01*
X329982Y280049D01*
X330002Y280046D01*
X330167Y280073D01*
X336695Y281901D01*
X336705Y281906D01*
X336721Y281909D01*
X369824Y292436D01*
X369837Y292443D01*
X369860Y292449D01*
X386250Y298595D01*
X386329Y298640D01*
X386412Y298679D01*
X386435Y298701D01*
X386463Y298717D01*
X386524Y298786D01*
X386590Y298848D01*
X386610Y298882D01*
X386627Y298892D01*
X386658Y298927D01*
X387842Y299306D01*
X387855Y299312D01*
X387877Y299318D01*
X391835Y300802D01*
X391850Y300811D01*
X391876Y300819D01*
X409381Y308573D01*
X409396Y308583D01*
X409516Y308650D01*
X410976Y309697D01*
X410984Y309705D01*
X410998Y309713D01*
X419392Y316201D01*
X419413Y316224D01*
X419464Y316265D01*
X419903Y316704D01*
X419927Y316737D01*
X419957Y316764D01*
X420045Y316901D01*
X420047Y316904D01*
X420047Y316905D01*
X420137Y317087D01*
X420491Y317207D01*
X420571Y317250D01*
X420654Y317285D01*
X420687Y317311D01*
X420708Y317322D01*
X420725Y317341D01*
X420727Y317342D01*
X420733Y317348D01*
X420785Y317390D01*
X421048Y317653D01*
X421684Y317653D01*
X421724Y317660D01*
X421764Y317658D01*
X421924Y317693D01*
X421927Y317693D01*
X421928Y317694D01*
X425806Y319006D01*
X425834Y319021D01*
X425927Y319059D01*
X426744Y319506D01*
X426801Y319489D01*
X426826Y319486D01*
X426850Y319476D01*
X426948Y319471D01*
X427045Y319459D01*
X427070Y319464D01*
X427096Y319463D01*
X427260Y319499D01*
X427316Y319518D01*
X428151Y319105D01*
X428181Y319096D01*
X428274Y319057D01*
X434997Y317083D01*
X435073Y317074D01*
X435148Y317055D01*
X435195Y317059D01*
X435242Y317053D01*
X435317Y317068D01*
X435393Y317074D01*
X435436Y317093D01*
X435483Y317102D01*
X435549Y317140D01*
X435619Y317170D01*
X435669Y317210D01*
X435695Y317225D01*
X435713Y317245D01*
X435750Y317275D01*
X436038Y317563D01*
X438175Y318448D01*
X440488Y318448D01*
X442625Y317563D01*
X444261Y315927D01*
X445146Y313790D01*
X445146Y311477D01*
X444261Y309340D01*
X442625Y307704D01*
X440594Y306862D01*
X440534Y306825D01*
X440469Y306797D01*
X440430Y306761D01*
X440385Y306733D01*
X440340Y306678D01*
X440287Y306631D01*
X440262Y306584D01*
X440228Y306543D01*
X440203Y306477D01*
X440168Y306415D01*
X440159Y306363D01*
X440140Y306314D01*
X440137Y306243D01*
X440124Y306174D01*
X440132Y306121D01*
X440129Y306068D01*
X440149Y306000D01*
X440159Y305930D01*
X440183Y305883D01*
X440198Y305832D01*
X440238Y305774D01*
X440270Y305711D01*
X440308Y305673D01*
X440338Y305630D01*
X440395Y305587D01*
X440445Y305538D01*
X440493Y305515D01*
X440535Y305483D01*
X440603Y305461D01*
X440666Y305430D01*
X440738Y305417D01*
X440769Y305407D01*
X440792Y305407D01*
X440831Y305400D01*
X441092Y305381D01*
X442664Y304595D01*
X442683Y304589D01*
X442713Y304573D01*
X444337Y303900D01*
X444533Y303704D01*
X444564Y303682D01*
X444590Y303653D01*
X444654Y303611D01*
X444673Y303595D01*
X444690Y303588D01*
X444731Y303562D01*
X444732Y303561D01*
X444733Y303561D01*
X446419Y302718D01*
X446456Y302706D01*
X446489Y302687D01*
X446652Y302645D01*
X446654Y302645D01*
X446926Y302606D01*
X448438Y301710D01*
X448457Y301703D01*
X448486Y301684D01*
X450058Y300898D01*
X450239Y300689D01*
X450269Y300664D01*
X450293Y300634D01*
X450427Y300533D01*
X450665Y300392D01*
X450977Y299976D01*
X450990Y299963D01*
X450999Y299948D01*
X451017Y299933D01*
X451034Y299908D01*
X451097Y299860D01*
X451154Y299805D01*
X451181Y299793D01*
X451186Y299788D01*
X451198Y299783D01*
X451230Y299759D01*
X451305Y299734D01*
X451377Y299700D01*
X451421Y299695D01*
X451463Y299681D01*
X451542Y299681D01*
X451621Y299672D01*
X451665Y299681D01*
X451709Y299681D01*
X451831Y299715D01*
X451846Y299718D01*
X451851Y299721D01*
X451862Y299723D01*
X451865Y299725D01*
X451871Y299726D01*
X541305Y335844D01*
X541312Y335848D01*
X541324Y335852D01*
X611174Y366332D01*
X611201Y366350D01*
X611264Y366379D01*
X665874Y399399D01*
X665882Y399406D01*
X665898Y399414D01*
X705014Y425083D01*
X705048Y425115D01*
X705087Y425138D01*
X705138Y425197D01*
X705195Y425250D01*
X705217Y425290D01*
X705247Y425325D01*
X705276Y425397D01*
X705313Y425465D01*
X705322Y425511D01*
X705339Y425553D01*
X705354Y425689D01*
X705357Y425707D01*
X705356Y425712D01*
X705357Y425720D01*
X705357Y429057D01*
X705355Y429068D01*
X705357Y429080D01*
X705333Y429246D01*
X705160Y429924D01*
X705350Y431253D01*
X705349Y431285D01*
X705357Y431360D01*
X705357Y431959D01*
X705352Y431994D01*
X705354Y432029D01*
X705332Y432115D01*
X705318Y432202D01*
X705301Y432233D01*
X705292Y432267D01*
X705244Y432341D01*
X705202Y432419D01*
X705177Y432444D01*
X705158Y432473D01*
X705088Y432528D01*
X705024Y432589D01*
X704992Y432604D01*
X704965Y432625D01*
X704881Y432655D01*
X704801Y432692D01*
X704766Y432696D01*
X704733Y432708D01*
X704645Y432710D01*
X704557Y432720D01*
X704522Y432712D01*
X704487Y432713D01*
X704403Y432686D01*
X704316Y432667D01*
X704286Y432649D01*
X704253Y432639D01*
X704112Y432547D01*
X701633Y430506D01*
X701608Y430476D01*
X701576Y430454D01*
X701527Y430384D01*
X701471Y430321D01*
X701456Y430285D01*
X701434Y430253D01*
X701382Y430110D01*
X700529Y429587D01*
X700505Y429566D01*
X700443Y429526D01*
X699670Y428889D01*
X699648Y428887D01*
X699610Y428893D01*
X699526Y428879D01*
X699441Y428874D01*
X699405Y428859D01*
X699367Y428853D01*
X699215Y428781D01*
X623033Y382058D01*
X623029Y382054D01*
X623023Y382052D01*
X622892Y381947D01*
X622230Y381285D01*
X622159Y381254D01*
X622127Y381229D01*
X622106Y381218D01*
X622084Y381194D01*
X622028Y381150D01*
X607808Y366929D01*
X593928Y366929D01*
X593924Y366933D01*
X593894Y366945D01*
X593868Y366964D01*
X593781Y366990D01*
X593696Y367025D01*
X593655Y367029D01*
X593633Y367036D01*
X593600Y367035D01*
X593529Y367043D01*
X590128Y367043D01*
X590038Y367028D01*
X589947Y367021D01*
X589917Y367009D01*
X589885Y367003D01*
X589804Y366961D01*
X589720Y366925D01*
X589688Y366899D01*
X589668Y366888D01*
X589645Y366865D01*
X589589Y366820D01*
X587932Y365162D01*
X585794Y364277D01*
X583481Y364277D01*
X581344Y365162D01*
X579708Y366798D01*
X578823Y368935D01*
X578823Y371248D01*
X579708Y373386D01*
X581344Y375021D01*
X583481Y375907D01*
X585794Y375907D01*
X587932Y375021D01*
X589589Y373363D01*
X589663Y373310D01*
X589733Y373251D01*
X589763Y373239D01*
X589789Y373220D01*
X589876Y373193D01*
X589961Y373159D01*
X590002Y373154D01*
X590024Y373148D01*
X590056Y373148D01*
X590128Y373141D01*
X592136Y373141D01*
X592182Y373148D01*
X592227Y373146D01*
X592302Y373168D01*
X592379Y373180D01*
X592420Y373202D01*
X592464Y373215D01*
X592528Y373259D01*
X592596Y373295D01*
X592628Y373329D01*
X592666Y373355D01*
X592712Y373417D01*
X592766Y373474D01*
X592785Y373515D01*
X592813Y373552D01*
X592837Y373626D01*
X592869Y373697D01*
X592874Y373742D01*
X592889Y373786D01*
X592888Y373864D01*
X592897Y373941D01*
X592887Y373986D01*
X592886Y374032D01*
X592848Y374163D01*
X592844Y374182D01*
X592842Y374186D01*
X592840Y374193D01*
X592235Y375652D01*
X592235Y377996D01*
X592221Y378086D01*
X592214Y378177D01*
X592201Y378207D01*
X592196Y378239D01*
X592153Y378319D01*
X592117Y378403D01*
X592092Y378435D01*
X592081Y378456D01*
X592057Y378478D01*
X592012Y378534D01*
X564697Y405850D01*
X564623Y405903D01*
X564553Y405963D01*
X564523Y405975D01*
X564497Y405994D01*
X564410Y406020D01*
X564325Y406055D01*
X564284Y406059D01*
X564262Y406066D01*
X564230Y406065D01*
X564158Y406073D01*
X481775Y406073D01*
X410284Y477565D01*
X410284Y566178D01*
X410269Y566268D01*
X410262Y566359D01*
X410249Y566389D01*
X410244Y566421D01*
X410201Y566501D01*
X410166Y566585D01*
X410140Y566617D01*
X410129Y566638D01*
X410105Y566660D01*
X410061Y566716D01*
X408403Y568374D01*
X407518Y570511D01*
X407518Y572824D01*
X408169Y574397D01*
X408179Y574441D01*
X408199Y574483D01*
X408207Y574560D01*
X408225Y574636D01*
X408221Y574682D01*
X408226Y574727D01*
X408209Y574803D01*
X408202Y574881D01*
X408183Y574923D01*
X408174Y574968D01*
X408134Y575035D01*
X408102Y575106D01*
X408071Y575139D01*
X408047Y575179D01*
X407988Y575229D01*
X407936Y575287D01*
X407895Y575309D01*
X407860Y575339D01*
X407788Y575368D01*
X407720Y575405D01*
X407675Y575413D01*
X407632Y575431D01*
X407496Y575446D01*
X407478Y575449D01*
X407473Y575448D01*
X407466Y575449D01*
X365646Y575449D01*
X332050Y609044D01*
X331976Y609098D01*
X331907Y609157D01*
X331877Y609169D01*
X331851Y609188D01*
X331764Y609215D01*
X331679Y609249D01*
X331638Y609253D01*
X331616Y609260D01*
X331583Y609259D01*
X331512Y609267D01*
X329168Y609267D01*
X327030Y610153D01*
X325395Y611788D01*
X324510Y613925D01*
X324510Y616270D01*
X324495Y616360D01*
X324488Y616451D01*
X324475Y616481D01*
X324470Y616513D01*
X324427Y616593D01*
X324391Y616677D01*
X324366Y616709D01*
X324355Y616730D01*
X324331Y616752D01*
X324287Y616808D01*
X300353Y640742D01*
X300353Y682256D01*
X300338Y682346D01*
X300331Y682437D01*
X300318Y682467D01*
X300313Y682499D01*
X300270Y682580D01*
X300234Y682664D01*
X300209Y682696D01*
X300198Y682717D01*
X300174Y682739D01*
X300130Y682795D01*
X298472Y684452D01*
X297587Y686590D01*
X297587Y688903D01*
X298472Y691040D01*
X300130Y692698D01*
X300183Y692772D01*
X300220Y692815D01*
X300221Y692816D01*
X300242Y692841D01*
X300254Y692871D01*
X300273Y692898D01*
X300300Y692985D01*
X300306Y692999D01*
X300324Y693039D01*
X300325Y693048D01*
X300334Y693069D01*
X300339Y693110D01*
X300346Y693133D01*
X300345Y693165D01*
X300353Y693236D01*
X300353Y756462D01*
X303052Y759161D01*
X303105Y759235D01*
X303164Y759304D01*
X303177Y759335D01*
X303195Y759361D01*
X303222Y759448D01*
X303256Y759533D01*
X303261Y759573D01*
X303268Y759596D01*
X303267Y759628D01*
X303275Y759699D01*
X303275Y762044D01*
X304160Y764181D01*
X305796Y765817D01*
X307933Y766702D01*
X310277Y766702D01*
X310367Y766717D01*
X310458Y766724D01*
X310488Y766736D01*
X310520Y766742D01*
X310601Y766784D01*
X310685Y766820D01*
X310717Y766846D01*
X310738Y766857D01*
X310760Y766880D01*
X310816Y766925D01*
X318806Y774915D01*
X318861Y774992D01*
X318922Y775065D01*
X318933Y775092D01*
X318950Y775115D01*
X318977Y775205D01*
X319012Y775294D01*
X319013Y775322D01*
X319022Y775350D01*
X319019Y775445D01*
X319024Y775539D01*
X319016Y775567D01*
X319016Y775596D01*
X318983Y775685D01*
X318957Y775776D01*
X318941Y775800D01*
X318931Y775827D01*
X318872Y775901D01*
X318818Y775979D01*
X318795Y775996D01*
X318777Y776019D01*
X318698Y776070D01*
X318622Y776127D01*
X318588Y776140D01*
X318570Y776152D01*
X318539Y776160D01*
X318466Y776188D01*
X313130Y777626D01*
X313114Y777627D01*
X313099Y777634D01*
X312932Y777652D01*
X255530Y777652D01*
X255478Y777644D01*
X255425Y777645D01*
X255358Y777624D01*
X255287Y777612D01*
X255241Y777588D01*
X255190Y777572D01*
X255095Y777510D01*
X255070Y777497D01*
X255063Y777490D01*
X255050Y777481D01*
X254936Y777389D01*
X254707Y777412D01*
X252405Y777648D01*
X252378Y777646D01*
X252328Y777652D01*
X249784Y777652D01*
X249680Y777755D01*
X249638Y777786D01*
X249601Y777824D01*
X249538Y777857D01*
X249481Y777899D01*
X249430Y777914D01*
X249384Y777939D01*
X249273Y777963D01*
X249246Y777971D01*
X249235Y777971D01*
X249220Y777974D01*
X224861Y780469D01*
X224779Y780464D01*
X224697Y780468D01*
X224657Y780457D01*
X224616Y780454D01*
X224576Y780438D01*
X224294Y780474D01*
X224227Y780471D01*
X224159Y780479D01*
X224105Y780467D01*
X224048Y780465D01*
X223985Y780441D01*
X223919Y780427D01*
X223871Y780398D01*
X223818Y780378D01*
X223766Y780335D01*
X223708Y780300D01*
X223671Y780258D01*
X223628Y780222D01*
X223592Y780165D01*
X223548Y780113D01*
X223527Y780061D01*
X223497Y780014D01*
X223481Y779948D01*
X223456Y779885D01*
X223447Y779807D01*
X223440Y779775D01*
X223441Y779754D01*
X223438Y779719D01*
X223438Y777286D01*
X222552Y775149D01*
X220917Y773513D01*
X218779Y772628D01*
X216466Y772628D01*
X214329Y773513D01*
X212944Y774898D01*
X212928Y774910D01*
X212915Y774926D01*
X212828Y774982D01*
X212744Y775042D01*
X212725Y775048D01*
X212708Y775059D01*
X212607Y775084D01*
X212509Y775114D01*
X212489Y775114D01*
X212469Y775119D01*
X212366Y775111D01*
X212263Y775108D01*
X212244Y775101D01*
X212224Y775099D01*
X212129Y775059D01*
X212032Y775023D01*
X212016Y775011D01*
X211998Y775003D01*
X211921Y774934D01*
X211840Y774870D01*
X211829Y774853D01*
X211814Y774839D01*
X211763Y774750D01*
X211707Y774663D01*
X211702Y774643D01*
X211692Y774626D01*
X211651Y774463D01*
X211518Y773484D01*
X211518Y773471D01*
X211514Y773450D01*
X211132Y769251D01*
X211138Y769171D01*
X211135Y769091D01*
X211147Y769050D01*
X211150Y769006D01*
X211181Y768932D01*
X211203Y768855D01*
X211228Y768819D01*
X211245Y768779D01*
X211298Y768719D01*
X211344Y768653D01*
X211379Y768627D01*
X211407Y768594D01*
X211477Y768554D01*
X211541Y768506D01*
X211582Y768493D01*
X211620Y768471D01*
X211699Y768455D01*
X211775Y768430D01*
X211818Y768431D01*
X211861Y768422D01*
X211941Y768432D01*
X212021Y768433D01*
X212076Y768449D01*
X212105Y768452D01*
X212130Y768464D01*
X212182Y768479D01*
X214405Y769400D01*
X216718Y769400D01*
X218855Y768515D01*
X220491Y766879D01*
X221376Y764742D01*
X221376Y762429D01*
X220491Y760291D01*
X218855Y758656D01*
X218031Y758314D01*
X217991Y758289D01*
X217946Y758273D01*
X217887Y758225D01*
X217822Y758185D01*
X217792Y758148D01*
X217755Y758119D01*
X217714Y758054D01*
X217665Y757995D01*
X217648Y757951D01*
X217623Y757911D01*
X217584Y757785D01*
X217577Y757766D01*
X217577Y757760D01*
X217574Y757751D01*
X202622Y677609D01*
X202621Y677570D01*
X202611Y677531D01*
X202618Y677447D01*
X202616Y677363D01*
X202628Y677325D01*
X202631Y677286D01*
X202683Y677147D01*
X202365Y676195D01*
X202360Y676163D01*
X202339Y676093D01*
X202155Y675105D01*
X202141Y675092D01*
X202107Y675072D01*
X202053Y675007D01*
X201992Y674949D01*
X201973Y674914D01*
X201948Y674884D01*
X201878Y674732D01*
X191194Y642681D01*
X191193Y642678D01*
X191192Y642675D01*
X191174Y642555D01*
X191155Y642438D01*
X191155Y642435D01*
X191155Y642432D01*
X191175Y642266D01*
X191217Y642088D01*
X190786Y641393D01*
X190785Y641389D01*
X190782Y641385D01*
X190711Y641233D01*
X190453Y640458D01*
X190290Y640376D01*
X190287Y640375D01*
X190285Y640374D01*
X190189Y640303D01*
X190090Y640232D01*
X190089Y640230D01*
X190086Y640228D01*
X189983Y640096D01*
X184619Y631438D01*
X184583Y631352D01*
X184541Y631270D01*
X184537Y631239D01*
X184525Y631210D01*
X184522Y631177D01*
X184039Y630391D01*
X184037Y630388D01*
X184035Y630385D01*
X183965Y630233D01*
X183705Y629452D01*
X183547Y629373D01*
X183544Y629371D01*
X183540Y629369D01*
X183444Y629299D01*
X183348Y629229D01*
X183345Y629226D01*
X183342Y629223D01*
X183239Y629091D01*
X152890Y579752D01*
X152879Y579726D01*
X152862Y579703D01*
X152832Y579613D01*
X152796Y579525D01*
X152794Y579496D01*
X152786Y579469D01*
X152787Y579374D01*
X152780Y579279D01*
X152788Y579252D01*
X152788Y579223D01*
X152835Y579062D01*
X153299Y577941D01*
X153299Y575628D01*
X152414Y573490D01*
X150778Y571855D01*
X148641Y570969D01*
X146297Y570969D01*
X146207Y570955D01*
X146116Y570948D01*
X146086Y570935D01*
X146054Y570930D01*
X145973Y570887D01*
X145889Y570851D01*
X145857Y570826D01*
X145837Y570815D01*
X145814Y570791D01*
X145758Y570746D01*
X74009Y498997D01*
X72558Y498997D01*
X72468Y498983D01*
X72377Y498975D01*
X72347Y498963D01*
X72315Y498958D01*
X72234Y498915D01*
X72150Y498879D01*
X72118Y498853D01*
X72097Y498842D01*
X72075Y498819D01*
X72019Y498774D01*
X70362Y497117D01*
X68224Y496231D01*
X65911Y496231D01*
X63774Y497117D01*
X62138Y498752D01*
X61253Y500889D01*
X61253Y502241D01*
X61251Y502250D01*
X61253Y502260D01*
X61232Y502371D01*
X61213Y502483D01*
X61209Y502492D01*
X61207Y502501D01*
X61151Y502601D01*
X61098Y502701D01*
X61091Y502707D01*
X61087Y502716D01*
X61002Y502792D01*
X60920Y502870D01*
X60911Y502874D01*
X60904Y502881D01*
X60800Y502926D01*
X60697Y502974D01*
X60687Y502975D01*
X60678Y502979D01*
X60565Y502988D01*
X60452Y503001D01*
X60443Y502999D01*
X60433Y503000D01*
X60323Y502973D01*
X60212Y502949D01*
X60204Y502944D01*
X60194Y502941D01*
X60098Y502880D01*
X60001Y502822D01*
X59995Y502815D01*
X59986Y502810D01*
X59874Y502685D01*
X38568Y473094D01*
X38554Y473065D01*
X38511Y473001D01*
X23098Y443360D01*
X23093Y443346D01*
X23084Y443333D01*
X23030Y443174D01*
X22716Y441763D01*
X22715Y441731D01*
X22705Y441701D01*
X22708Y441609D01*
X22703Y441517D01*
X22711Y441487D01*
X22712Y441455D01*
X22743Y441369D01*
X22768Y441280D01*
X22785Y441254D01*
X22796Y441224D01*
X22854Y441152D01*
X22905Y441076D01*
X22930Y441057D01*
X22950Y441032D01*
X23027Y440982D01*
X23100Y440927D01*
X23130Y440916D01*
X23157Y440899D01*
X23246Y440877D01*
X23333Y440847D01*
X23365Y440847D01*
X23395Y440839D01*
X23487Y440846D01*
X23579Y440846D01*
X23609Y440856D01*
X23641Y440858D01*
X23725Y440894D01*
X23813Y440923D01*
X23838Y440942D01*
X23867Y440955D01*
X23998Y441059D01*
X216212Y633274D01*
X216265Y633348D01*
X216325Y633417D01*
X216337Y633447D01*
X216356Y633474D01*
X216383Y633561D01*
X216417Y633645D01*
X216421Y633686D01*
X216428Y633709D01*
X216427Y633741D01*
X216435Y633812D01*
X216435Y636157D01*
X217321Y638294D01*
X218978Y639952D01*
X219031Y640026D01*
X219091Y640095D01*
X219103Y640125D01*
X219122Y640151D01*
X219149Y640238D01*
X219183Y640323D01*
X219187Y640364D01*
X219194Y640386D01*
X219193Y640419D01*
X219201Y640490D01*
X219201Y658604D01*
X219187Y658694D01*
X219179Y658785D01*
X219167Y658814D01*
X219162Y658846D01*
X219119Y658927D01*
X219083Y659011D01*
X219057Y659043D01*
X219046Y659064D01*
X219023Y659086D01*
X218978Y659142D01*
X217321Y660800D01*
X216435Y662937D01*
X216435Y665250D01*
X217321Y667387D01*
X218956Y669023D01*
X221093Y669908D01*
X223407Y669908D01*
X225544Y669023D01*
X227179Y667387D01*
X228065Y665250D01*
X228065Y662937D01*
X227179Y660800D01*
X225522Y659142D01*
X225469Y659068D01*
X225409Y658999D01*
X225397Y658968D01*
X225378Y658942D01*
X225351Y658855D01*
X225317Y658770D01*
X225313Y658729D01*
X225306Y658707D01*
X225307Y658675D01*
X225299Y658604D01*
X225299Y640490D01*
X225313Y640400D01*
X225321Y640309D01*
X225333Y640279D01*
X225338Y640247D01*
X225381Y640166D01*
X225417Y640083D01*
X225443Y640050D01*
X225454Y640030D01*
X225477Y640008D01*
X225522Y639952D01*
X227179Y638294D01*
X228065Y636157D01*
X228065Y633843D01*
X227179Y631706D01*
X225544Y630071D01*
X223407Y629185D01*
X221062Y629185D01*
X220972Y629171D01*
X220881Y629163D01*
X220851Y629151D01*
X220819Y629146D01*
X220739Y629103D01*
X220655Y629067D01*
X220623Y629041D01*
X220602Y629030D01*
X220580Y629007D01*
X220524Y628962D01*
X26515Y434954D01*
X26473Y434895D01*
X26428Y434847D01*
X26420Y434831D01*
X26403Y434810D01*
X26391Y434780D01*
X26372Y434754D01*
X26347Y434672D01*
X26324Y434624D01*
X26323Y434612D01*
X26311Y434582D01*
X26306Y434541D01*
X26299Y434519D01*
X26300Y434487D01*
X26292Y434415D01*
X26292Y360277D01*
X26307Y360187D01*
X26314Y360096D01*
X26327Y360066D01*
X26332Y360034D01*
X26375Y359954D01*
X26410Y359870D01*
X26436Y359838D01*
X26447Y359817D01*
X26470Y359795D01*
X26515Y359739D01*
X28173Y358081D01*
X29058Y355944D01*
X29058Y353631D01*
X28173Y351493D01*
X26537Y349858D01*
X24400Y348972D01*
X22074Y348972D01*
X22007Y348988D01*
X21913Y349017D01*
X21888Y349016D01*
X21864Y349022D01*
X21765Y349013D01*
X21667Y349010D01*
X21644Y349001D01*
X21619Y348999D01*
X21529Y348959D01*
X21437Y348925D01*
X21417Y348909D01*
X21394Y348899D01*
X21321Y348832D01*
X21245Y348770D01*
X21232Y348749D01*
X21213Y348732D01*
X21166Y348646D01*
X21113Y348563D01*
X21107Y348539D01*
X21094Y348517D01*
X21077Y348420D01*
X21053Y348324D01*
X21055Y348299D01*
X21051Y348275D01*
X21065Y348177D01*
X21073Y348079D01*
X21084Y348050D01*
X21087Y348031D01*
X21102Y348002D01*
X21131Y347922D01*
X22269Y345646D01*
X22281Y345629D01*
X22297Y345595D01*
X29408Y333742D01*
X29425Y333723D01*
X29447Y333684D01*
X42280Y316185D01*
X42284Y316181D01*
X42287Y316176D01*
X42402Y316054D01*
X57465Y303309D01*
X57485Y303297D01*
X57517Y303268D01*
X78482Y288469D01*
X78494Y288464D01*
X78510Y288451D01*
X95547Y277498D01*
X95573Y277487D01*
X95618Y277458D01*
X111527Y269503D01*
X111621Y269474D01*
X111713Y269439D01*
X111738Y269438D01*
X111762Y269430D01*
X111860Y269433D01*
X111959Y269429D01*
X111983Y269436D01*
X112008Y269436D01*
X112100Y269470D01*
X112195Y269497D01*
X112215Y269511D01*
X112239Y269520D01*
X112316Y269581D01*
X112397Y269637D01*
X112412Y269658D01*
X112431Y269673D01*
X112485Y269756D01*
X112544Y269835D01*
X112551Y269859D01*
X112565Y269880D01*
X112589Y269975D01*
X112620Y270069D01*
X112620Y270094D01*
X112626Y270118D01*
X112618Y270216D01*
X112617Y270315D01*
X112609Y270345D01*
X112607Y270363D01*
X112595Y270394D01*
X112571Y270476D01*
X111892Y272115D01*
X111892Y274428D01*
X112777Y276566D01*
X114413Y278201D01*
X116550Y279086D01*
X118863Y279086D01*
X121000Y278201D01*
X122636Y276566D01*
X123183Y275244D01*
X123192Y275230D01*
X123196Y275215D01*
X123256Y275126D01*
X123313Y275035D01*
X123325Y275025D01*
X123334Y275011D01*
X123419Y274947D01*
X123502Y274878D01*
X123517Y274872D01*
X123530Y274863D01*
X123686Y274801D01*
X172893Y261381D01*
X172922Y261378D01*
X172977Y261363D01*
X205916Y256296D01*
X205949Y256296D01*
X206031Y256287D01*
X224991Y256287D01*
X225023Y256292D01*
G37*
G36*
X602606Y380841D02*
X602606Y380841D01*
X602709Y380844D01*
X602728Y380850D01*
X602748Y380852D01*
X602843Y380892D01*
X602940Y380928D01*
X602956Y380941D01*
X602974Y380948D01*
X603105Y381053D01*
X603909Y381857D01*
X603910Y381858D01*
X603911Y381859D01*
X603983Y381961D01*
X604052Y382056D01*
X604053Y382058D01*
X604054Y382060D01*
X604111Y382218D01*
X604154Y382400D01*
X604847Y382825D01*
X604851Y382828D01*
X604856Y382831D01*
X604987Y382935D01*
X605562Y383510D01*
X605750Y383510D01*
X605751Y383510D01*
X605753Y383510D01*
X605876Y383531D01*
X605992Y383550D01*
X605994Y383551D01*
X605996Y383551D01*
X606148Y383622D01*
X609329Y385573D01*
X609330Y385574D01*
X609332Y385575D01*
X697162Y439996D01*
X697186Y440017D01*
X697245Y440055D01*
X703264Y445012D01*
X703285Y445037D01*
X703341Y445085D01*
X716288Y459166D01*
X716344Y459250D01*
X716404Y459332D01*
X716411Y459353D01*
X716423Y459372D01*
X716449Y459469D01*
X716480Y459566D01*
X716480Y459588D01*
X716486Y459610D01*
X716479Y459710D01*
X716478Y459811D01*
X716470Y459838D01*
X716469Y459855D01*
X716457Y459885D01*
X716431Y459973D01*
X716428Y459981D01*
X716428Y462294D01*
X717313Y464431D01*
X718949Y466067D01*
X721086Y466952D01*
X723399Y466952D01*
X725536Y466067D01*
X725793Y465810D01*
X725809Y465799D01*
X725822Y465783D01*
X725909Y465727D01*
X725993Y465667D01*
X726012Y465661D01*
X726028Y465650D01*
X726129Y465625D01*
X726228Y465594D01*
X726248Y465595D01*
X726267Y465590D01*
X726370Y465598D01*
X726474Y465601D01*
X726492Y465608D01*
X726512Y465609D01*
X726607Y465650D01*
X726705Y465685D01*
X726720Y465698D01*
X726739Y465706D01*
X726870Y465810D01*
X727610Y466550D01*
X727611Y466553D01*
X727613Y466554D01*
X727717Y466686D01*
X728155Y467387D01*
X728323Y467426D01*
X728327Y467428D01*
X728332Y467429D01*
X728439Y467474D01*
X728550Y467520D01*
X728554Y467523D01*
X728558Y467525D01*
X728689Y467630D01*
X728728Y467668D01*
X728781Y467742D01*
X728840Y467812D01*
X728852Y467842D01*
X728871Y467868D01*
X728898Y467955D01*
X728932Y468040D01*
X728937Y468081D01*
X728944Y468103D01*
X728943Y468135D01*
X728951Y468207D01*
X728951Y470551D01*
X729836Y472688D01*
X731472Y474324D01*
X733609Y475209D01*
X735922Y475209D01*
X736029Y475165D01*
X736121Y475143D01*
X736211Y475115D01*
X736240Y475115D01*
X736269Y475109D01*
X736363Y475118D01*
X736457Y475119D01*
X736485Y475129D01*
X736514Y475132D01*
X736600Y475170D01*
X736689Y475202D01*
X736719Y475223D01*
X736738Y475232D01*
X736762Y475254D01*
X736826Y475299D01*
X828862Y556962D01*
X828933Y557051D01*
X829007Y557137D01*
X829011Y557146D01*
X829017Y557153D01*
X829057Y557259D01*
X829099Y557365D01*
X829101Y557377D01*
X829103Y557384D01*
X829104Y557408D01*
X829118Y557532D01*
X829118Y559430D01*
X830003Y561567D01*
X831639Y563203D01*
X833776Y564088D01*
X836032Y564088D01*
X836051Y564091D01*
X836071Y564089D01*
X836172Y564111D01*
X836274Y564128D01*
X836292Y564137D01*
X836311Y564141D01*
X836400Y564194D01*
X836492Y564243D01*
X836505Y564257D01*
X836522Y564267D01*
X836590Y564346D01*
X836661Y564421D01*
X836669Y564439D01*
X836682Y564454D01*
X836721Y564550D01*
X836765Y564644D01*
X836767Y564664D01*
X836774Y564682D01*
X836793Y564849D01*
X836793Y573738D01*
X872857Y609802D01*
X872911Y609876D01*
X872970Y609946D01*
X872982Y609976D01*
X873001Y610002D01*
X873028Y610089D01*
X873062Y610174D01*
X873066Y610215D01*
X873073Y610237D01*
X873072Y610269D01*
X873080Y610341D01*
X873080Y620893D01*
X873066Y620983D01*
X873059Y621074D01*
X873046Y621103D01*
X873041Y621135D01*
X872998Y621216D01*
X872962Y621300D01*
X872937Y621332D01*
X872926Y621353D01*
X872902Y621375D01*
X872857Y621431D01*
X871250Y623038D01*
X871248Y623070D01*
X871235Y623100D01*
X871230Y623132D01*
X871187Y623212D01*
X871152Y623296D01*
X871126Y623328D01*
X871115Y623349D01*
X871092Y623371D01*
X871047Y623427D01*
X776408Y718066D01*
X774399Y720075D01*
X774399Y732690D01*
X774388Y732761D01*
X774386Y732833D01*
X774368Y732882D01*
X774360Y732933D01*
X774326Y732996D01*
X774302Y733064D01*
X774269Y733104D01*
X774245Y733150D01*
X774193Y733200D01*
X774148Y733256D01*
X774104Y733284D01*
X774066Y733320D01*
X774001Y733350D01*
X773941Y733389D01*
X773890Y733401D01*
X773843Y733423D01*
X773772Y733431D01*
X773702Y733449D01*
X773651Y733445D01*
X773599Y733450D01*
X773529Y733435D01*
X773457Y733430D01*
X773409Y733409D01*
X773358Y733398D01*
X773297Y733361D01*
X773231Y733333D01*
X773175Y733288D01*
X773147Y733272D01*
X773132Y733254D01*
X773100Y733228D01*
X718813Y678941D01*
X632467Y678941D01*
X622530Y688878D01*
X622456Y688931D01*
X622387Y688991D01*
X622357Y689003D01*
X622330Y689022D01*
X622243Y689049D01*
X622159Y689083D01*
X622118Y689087D01*
X622095Y689094D01*
X622063Y689093D01*
X621992Y689101D01*
X621037Y689101D01*
X581294Y728844D01*
X581220Y728897D01*
X581151Y728957D01*
X581121Y728969D01*
X581094Y728988D01*
X581007Y729015D01*
X580923Y729049D01*
X580882Y729053D01*
X580859Y729060D01*
X580827Y729059D01*
X580756Y729067D01*
X569858Y729067D01*
X568667Y730258D01*
X568667Y738616D01*
X568653Y738706D01*
X568645Y738797D01*
X568633Y738827D01*
X568628Y738859D01*
X568585Y738939D01*
X568549Y739023D01*
X568523Y739055D01*
X568512Y739076D01*
X568489Y739098D01*
X568444Y739154D01*
X541250Y766348D01*
X541176Y766401D01*
X541107Y766461D01*
X541077Y766473D01*
X541050Y766492D01*
X540963Y766519D01*
X540879Y766553D01*
X540838Y766557D01*
X540815Y766564D01*
X540783Y766563D01*
X540712Y766571D01*
X325148Y766571D01*
X325058Y766557D01*
X324967Y766549D01*
X324937Y766537D01*
X324905Y766532D01*
X324825Y766489D01*
X324741Y766453D01*
X324709Y766427D01*
X324688Y766416D01*
X324666Y766393D01*
X324610Y766348D01*
X319191Y760930D01*
X319138Y760856D01*
X319079Y760786D01*
X319067Y760756D01*
X319048Y760730D01*
X319021Y760643D01*
X318987Y760558D01*
X318982Y760517D01*
X318975Y760495D01*
X318976Y760463D01*
X318968Y760392D01*
X318968Y756795D01*
X313182Y751008D01*
X311769Y751008D01*
X311679Y750994D01*
X311588Y750986D01*
X311558Y750974D01*
X311526Y750969D01*
X311445Y750926D01*
X311361Y750890D01*
X311329Y750864D01*
X311308Y750854D01*
X311286Y750830D01*
X311230Y750785D01*
X310737Y750292D01*
X310684Y750218D01*
X310625Y750149D01*
X310612Y750119D01*
X310594Y750092D01*
X310567Y750005D01*
X310533Y749921D01*
X310528Y749880D01*
X310521Y749857D01*
X310522Y749825D01*
X310514Y749754D01*
X310514Y694920D01*
X310529Y694830D01*
X310536Y694739D01*
X310549Y694709D01*
X310554Y694677D01*
X310597Y694596D01*
X310632Y694512D01*
X310658Y694480D01*
X310669Y694459D01*
X310692Y694437D01*
X310737Y694381D01*
X313280Y691838D01*
X313280Y683654D01*
X310737Y681111D01*
X310684Y681037D01*
X310624Y680968D01*
X310612Y680938D01*
X310593Y680911D01*
X310567Y680825D01*
X310533Y680740D01*
X310528Y680699D01*
X310521Y680676D01*
X310522Y680644D01*
X310514Y680573D01*
X310514Y651410D01*
X310517Y651390D01*
X310515Y651371D01*
X310537Y651269D01*
X310554Y651167D01*
X310563Y651150D01*
X310567Y651130D01*
X310621Y651041D01*
X310669Y650950D01*
X310683Y650936D01*
X310694Y650919D01*
X310772Y650852D01*
X310847Y650781D01*
X310865Y650772D01*
X310880Y650759D01*
X310977Y650721D01*
X311070Y650677D01*
X311090Y650675D01*
X311109Y650667D01*
X311275Y650649D01*
X311388Y650649D01*
X313525Y649764D01*
X315161Y648128D01*
X316046Y645991D01*
X316046Y643678D01*
X315161Y641540D01*
X313525Y639905D01*
X311953Y639254D01*
X311914Y639229D01*
X311871Y639214D01*
X311810Y639165D01*
X311744Y639124D01*
X311715Y639088D01*
X311679Y639060D01*
X311637Y638994D01*
X311587Y638934D01*
X311571Y638892D01*
X311546Y638853D01*
X311527Y638777D01*
X311499Y638705D01*
X311497Y638659D01*
X311486Y638614D01*
X311492Y638537D01*
X311489Y638459D01*
X311501Y638415D01*
X311505Y638369D01*
X311535Y638298D01*
X311557Y638223D01*
X311583Y638185D01*
X311601Y638143D01*
X311687Y638036D01*
X311697Y638021D01*
X311701Y638018D01*
X311706Y638012D01*
X328598Y621120D01*
X328672Y621067D01*
X328742Y621007D01*
X328772Y620995D01*
X328798Y620976D01*
X328885Y620949D01*
X328970Y620915D01*
X329011Y620911D01*
X329033Y620904D01*
X329065Y620905D01*
X329136Y620897D01*
X331481Y620897D01*
X333618Y620012D01*
X335254Y618376D01*
X336139Y616239D01*
X336139Y613894D01*
X336154Y613804D01*
X336161Y613713D01*
X336174Y613683D01*
X336179Y613652D01*
X336221Y613571D01*
X336257Y613487D01*
X336283Y613455D01*
X336294Y613434D01*
X336317Y613412D01*
X336362Y613356D01*
X367948Y581770D01*
X368022Y581716D01*
X368092Y581657D01*
X368122Y581645D01*
X368148Y581626D01*
X368235Y581599D01*
X368320Y581565D01*
X368361Y581560D01*
X368383Y581554D01*
X368415Y581554D01*
X368487Y581547D01*
X417424Y581547D01*
X423582Y575389D01*
X423598Y575377D01*
X423611Y575362D01*
X423698Y575306D01*
X423782Y575245D01*
X423801Y575239D01*
X423818Y575229D01*
X423918Y575203D01*
X424017Y575173D01*
X424037Y575173D01*
X424056Y575169D01*
X424159Y575177D01*
X424263Y575179D01*
X424282Y575186D01*
X424301Y575188D01*
X424396Y575228D01*
X424494Y575264D01*
X424509Y575276D01*
X424528Y575284D01*
X424659Y575389D01*
X425014Y575744D01*
X427151Y576629D01*
X429464Y576629D01*
X431601Y575744D01*
X433237Y574108D01*
X434122Y571971D01*
X434122Y569658D01*
X433237Y567521D01*
X431601Y565885D01*
X429464Y565000D01*
X427151Y565000D01*
X425014Y565885D01*
X423356Y567543D01*
X423282Y567596D01*
X423213Y567655D01*
X423182Y567667D01*
X423156Y567686D01*
X423069Y567713D01*
X422984Y567747D01*
X422943Y567752D01*
X422921Y567759D01*
X422889Y567758D01*
X422818Y567766D01*
X422582Y567766D01*
X420155Y570193D01*
X420117Y570220D01*
X420086Y570254D01*
X420018Y570291D01*
X419955Y570337D01*
X419911Y570350D01*
X419871Y570372D01*
X419794Y570386D01*
X419720Y570409D01*
X419674Y570408D01*
X419629Y570416D01*
X419552Y570405D01*
X419474Y570403D01*
X419431Y570387D01*
X419385Y570380D01*
X419316Y570345D01*
X419243Y570318D01*
X419207Y570290D01*
X419166Y570269D01*
X419112Y570213D01*
X419051Y570164D01*
X419026Y570126D01*
X418994Y570093D01*
X418928Y569973D01*
X418918Y569958D01*
X418917Y569953D01*
X418913Y569946D01*
X418262Y568374D01*
X416604Y566716D01*
X416551Y566642D01*
X416492Y566573D01*
X416479Y566543D01*
X416461Y566516D01*
X416434Y566429D01*
X416400Y566345D01*
X416395Y566304D01*
X416388Y566281D01*
X416389Y566249D01*
X416381Y566178D01*
X416381Y480406D01*
X416396Y480316D01*
X416403Y480225D01*
X416416Y480195D01*
X416421Y480163D01*
X416464Y480082D01*
X416499Y479998D01*
X416525Y479966D01*
X416536Y479946D01*
X416559Y479923D01*
X416604Y479867D01*
X484078Y412393D01*
X484152Y412340D01*
X484222Y412281D01*
X484252Y412269D01*
X484278Y412250D01*
X484365Y412223D01*
X484450Y412189D01*
X484491Y412184D01*
X484513Y412178D01*
X484545Y412178D01*
X484616Y412170D01*
X567000Y412170D01*
X596324Y382846D01*
X596398Y382793D01*
X596467Y382733D01*
X596498Y382721D01*
X596524Y382702D01*
X596611Y382676D01*
X596696Y382641D01*
X596737Y382637D01*
X596759Y382630D01*
X596791Y382631D01*
X596862Y382623D01*
X599207Y382623D01*
X601344Y381738D01*
X602029Y381053D01*
X602045Y381042D01*
X602057Y381026D01*
X602145Y380970D01*
X602228Y380910D01*
X602247Y380904D01*
X602264Y380893D01*
X602365Y380868D01*
X602463Y380837D01*
X602483Y380838D01*
X602503Y380833D01*
X602606Y380841D01*
G37*
G36*
X879957Y618128D02*
X879957Y618128D01*
X879979Y618125D01*
X880078Y618147D01*
X880179Y618163D01*
X880198Y618173D01*
X880219Y618178D01*
X880307Y618230D01*
X880397Y618277D01*
X880416Y618296D01*
X880430Y618304D01*
X880451Y618329D01*
X880519Y618392D01*
X921159Y666182D01*
X921190Y666234D01*
X921230Y666280D01*
X921254Y666339D01*
X921286Y666393D01*
X921299Y666452D01*
X921322Y666509D01*
X921332Y666601D01*
X921339Y666633D01*
X921337Y666649D01*
X921340Y666675D01*
X921340Y671994D01*
X932068Y682722D01*
X938313Y682722D01*
X938403Y682736D01*
X938494Y682743D01*
X938524Y682756D01*
X938556Y682761D01*
X938637Y682804D01*
X938721Y682840D01*
X938753Y682866D01*
X938773Y682876D01*
X938796Y682900D01*
X938852Y682945D01*
X939066Y683159D01*
X939119Y683233D01*
X939179Y683302D01*
X939191Y683332D01*
X939209Y683359D01*
X939236Y683446D01*
X939270Y683531D01*
X939275Y683571D01*
X939282Y683594D01*
X939281Y683626D01*
X939289Y683697D01*
X939289Y686042D01*
X940174Y688179D01*
X941810Y689815D01*
X943947Y690700D01*
X946260Y690700D01*
X948397Y689815D01*
X950033Y688179D01*
X950395Y687306D01*
X950395Y687305D01*
X950395Y687304D01*
X950459Y687202D01*
X950524Y687097D01*
X950525Y687097D01*
X950526Y687096D01*
X950621Y687017D01*
X950714Y686940D01*
X950715Y686940D01*
X950716Y686939D01*
X950830Y686896D01*
X950943Y686852D01*
X950944Y686852D01*
X950945Y686852D01*
X951064Y686847D01*
X951189Y686842D01*
X951190Y686842D01*
X951191Y686842D01*
X951307Y686876D01*
X951425Y686910D01*
X951426Y686911D01*
X951427Y686911D01*
X951526Y686980D01*
X951627Y687051D01*
X951628Y687051D01*
X951629Y687052D01*
X951735Y687182D01*
X951820Y687311D01*
X951833Y687340D01*
X951869Y687398D01*
X965498Y715896D01*
X965498Y715897D01*
X965499Y715898D01*
X976338Y738779D01*
X976339Y738783D01*
X976341Y738787D01*
X976394Y738946D01*
X979783Y754761D01*
X979785Y754790D01*
X979796Y754845D01*
X982706Y783940D01*
X982699Y784049D01*
X982696Y784159D01*
X982691Y784172D01*
X982690Y784186D01*
X982649Y784287D01*
X982612Y784390D01*
X982603Y784401D01*
X982598Y784414D01*
X982526Y784496D01*
X982458Y784582D01*
X982446Y784589D01*
X982437Y784600D01*
X982343Y784656D01*
X982251Y784715D01*
X982237Y784718D01*
X982225Y784725D01*
X982118Y784748D01*
X982013Y784775D01*
X981999Y784773D01*
X981985Y784776D01*
X981876Y784764D01*
X981767Y784755D01*
X981754Y784750D01*
X981740Y784748D01*
X981642Y784702D01*
X981541Y784659D01*
X981528Y784648D01*
X981518Y784644D01*
X981497Y784624D01*
X981410Y784554D01*
X981179Y784323D01*
X979042Y783438D01*
X976728Y783438D01*
X974591Y784323D01*
X972955Y785959D01*
X972070Y788096D01*
X972070Y790409D01*
X972955Y792546D01*
X974230Y793821D01*
X974242Y793837D01*
X974257Y793850D01*
X974313Y793937D01*
X974374Y794021D01*
X974380Y794040D01*
X974390Y794057D01*
X974416Y794157D01*
X974446Y794256D01*
X974446Y794276D01*
X974450Y794295D01*
X974442Y794398D01*
X974440Y794502D01*
X974433Y794520D01*
X974431Y794540D01*
X974391Y794635D01*
X974355Y794733D01*
X974343Y794748D01*
X974335Y794767D01*
X974230Y794898D01*
X969000Y800128D01*
X969000Y808311D01*
X971594Y810905D01*
X971645Y810977D01*
X971703Y811044D01*
X971717Y811076D01*
X971737Y811105D01*
X971763Y811189D01*
X971797Y811271D01*
X971802Y811316D01*
X971810Y811340D01*
X971809Y811371D01*
X971817Y811438D01*
X971856Y817111D01*
X971856Y817112D01*
X972018Y840237D01*
X972013Y840270D01*
X972012Y840346D01*
X971018Y847638D01*
X971016Y847644D01*
X971016Y847654D01*
X970763Y849259D01*
X970755Y849283D01*
X970754Y849309D01*
X970717Y849400D01*
X970687Y849492D01*
X970671Y849513D01*
X970661Y849537D01*
X970559Y849670D01*
X970299Y849939D01*
X970276Y849955D01*
X970239Y849994D01*
X952990Y864405D01*
X952928Y864442D01*
X952871Y864487D01*
X952823Y864504D01*
X952779Y864530D01*
X952708Y864545D01*
X952640Y864570D01*
X952569Y864575D01*
X951831Y865258D01*
X950540Y866451D01*
X950528Y866459D01*
X950512Y866476D01*
X949420Y867388D01*
X948389Y868249D01*
X948384Y868295D01*
X948362Y868341D01*
X948349Y868391D01*
X948310Y868452D01*
X948279Y868517D01*
X948233Y868571D01*
X948215Y868597D01*
X948197Y868612D01*
X948169Y868644D01*
X934595Y881196D01*
X934532Y881238D01*
X934473Y881288D01*
X934429Y881305D01*
X934390Y881331D01*
X934316Y881351D01*
X934245Y881380D01*
X934182Y881387D01*
X934152Y881395D01*
X934126Y881393D01*
X934078Y881398D01*
X922962Y881398D01*
X922872Y881383D01*
X922781Y881376D01*
X922751Y881364D01*
X922719Y881358D01*
X922639Y881316D01*
X922555Y881280D01*
X922523Y881254D01*
X922502Y881243D01*
X922480Y881220D01*
X922424Y881175D01*
X921597Y880348D01*
X913413Y880348D01*
X906835Y886926D01*
X906741Y886994D01*
X906647Y887064D01*
X906641Y887066D01*
X906635Y887069D01*
X906524Y887104D01*
X906413Y887140D01*
X906406Y887140D01*
X906400Y887142D01*
X906284Y887139D01*
X906167Y887138D01*
X906159Y887135D01*
X906155Y887135D01*
X906137Y887129D01*
X906006Y887091D01*
X903764Y886162D01*
X901451Y886162D01*
X899313Y887048D01*
X898592Y887769D01*
X898559Y887793D01*
X898533Y887822D01*
X898460Y887864D01*
X898392Y887913D01*
X898354Y887925D01*
X898319Y887944D01*
X898237Y887961D01*
X898157Y887985D01*
X898117Y887984D01*
X898078Y887992D01*
X897911Y887979D01*
X839665Y876885D01*
X839638Y876875D01*
X839583Y876864D01*
X796418Y863531D01*
X796417Y863531D01*
X796416Y863531D01*
X796305Y863475D01*
X796198Y863422D01*
X796197Y863421D01*
X796196Y863420D01*
X796072Y863308D01*
X795801Y863000D01*
X794508Y862919D01*
X794502Y862917D01*
X794495Y862918D01*
X794331Y862886D01*
X793887Y862750D01*
X793887Y862749D01*
X793012Y862479D01*
X792922Y862434D01*
X792829Y862395D01*
X792807Y862377D01*
X792792Y862370D01*
X792769Y862346D01*
X792698Y862290D01*
X792473Y862065D01*
X791785Y862065D01*
X791755Y862060D01*
X791725Y862062D01*
X791560Y862031D01*
X790903Y861828D01*
X790621Y861977D01*
X790526Y862009D01*
X790433Y862046D01*
X790405Y862049D01*
X790388Y862055D01*
X790355Y862055D01*
X790266Y862065D01*
X787499Y862065D01*
X787479Y862061D01*
X787460Y862064D01*
X787358Y862042D01*
X787256Y862025D01*
X787239Y862016D01*
X787219Y862011D01*
X787130Y861958D01*
X787039Y861910D01*
X787025Y861895D01*
X787008Y861885D01*
X786941Y861807D01*
X786870Y861732D01*
X786861Y861713D01*
X786848Y861698D01*
X786809Y861602D01*
X786766Y861508D01*
X786764Y861489D01*
X786756Y861470D01*
X786738Y861303D01*
X786738Y859666D01*
X785853Y857529D01*
X784217Y855893D01*
X783928Y855773D01*
X783888Y855749D01*
X783845Y855733D01*
X783785Y855685D01*
X783719Y855643D01*
X783689Y855608D01*
X783653Y855579D01*
X783611Y855514D01*
X783562Y855454D01*
X783545Y855411D01*
X783520Y855372D01*
X783501Y855297D01*
X783474Y855224D01*
X783472Y855178D01*
X783460Y855134D01*
X783466Y855056D01*
X783463Y854979D01*
X783476Y854934D01*
X783479Y854889D01*
X783510Y854817D01*
X783532Y854742D01*
X783558Y854705D01*
X783576Y854662D01*
X783661Y854556D01*
X783672Y854540D01*
X783676Y854537D01*
X783681Y854531D01*
X784804Y853408D01*
X785689Y851271D01*
X785689Y848958D01*
X784804Y846821D01*
X783168Y845185D01*
X781031Y844300D01*
X778718Y844300D01*
X776580Y845185D01*
X774945Y846821D01*
X774633Y847575D01*
X774608Y847614D01*
X774593Y847657D01*
X774544Y847718D01*
X774503Y847784D01*
X774468Y847813D01*
X774439Y847849D01*
X774373Y847891D01*
X774313Y847940D01*
X774271Y847957D01*
X774232Y847982D01*
X774156Y848001D01*
X774084Y848029D01*
X774038Y848031D01*
X773993Y848042D01*
X773916Y848036D01*
X773838Y848039D01*
X773794Y848026D01*
X773748Y848023D01*
X773677Y847992D01*
X773602Y847971D01*
X773564Y847944D01*
X773522Y847926D01*
X773415Y847841D01*
X773400Y847830D01*
X773397Y847826D01*
X773391Y847822D01*
X773066Y847496D01*
X773013Y847422D01*
X772953Y847353D01*
X772941Y847323D01*
X772922Y847297D01*
X772896Y847210D01*
X772861Y847125D01*
X772857Y847084D01*
X772850Y847062D01*
X772851Y847029D01*
X772843Y846958D01*
X772843Y819839D01*
X770834Y817831D01*
X770834Y817830D01*
X762732Y809728D01*
X762679Y809654D01*
X762619Y809585D01*
X762607Y809555D01*
X762588Y809528D01*
X762561Y809441D01*
X762527Y809357D01*
X762523Y809316D01*
X762516Y809293D01*
X762517Y809261D01*
X762509Y809190D01*
X762509Y761455D01*
X762523Y761365D01*
X762531Y761274D01*
X762543Y761244D01*
X762548Y761212D01*
X762591Y761131D01*
X762627Y761047D01*
X762653Y761015D01*
X762664Y760994D01*
X762687Y760972D01*
X762732Y760916D01*
X780497Y743151D01*
X780497Y739367D01*
X780503Y739329D01*
X780501Y739290D01*
X780523Y739208D01*
X780537Y739124D01*
X780555Y739090D01*
X780565Y739053D01*
X780612Y738982D01*
X780652Y738907D01*
X780680Y738880D01*
X780701Y738848D01*
X780769Y738796D01*
X780830Y738738D01*
X780865Y738721D01*
X780896Y738698D01*
X780976Y738670D01*
X781053Y738634D01*
X781092Y738630D01*
X781128Y738617D01*
X781213Y738616D01*
X781298Y738607D01*
X781335Y738615D01*
X781374Y738615D01*
X781455Y738641D01*
X781538Y738659D01*
X781571Y738679D01*
X781608Y738691D01*
X781748Y738784D01*
X793116Y748323D01*
X811446Y726477D01*
X795346Y712967D01*
X781841Y729061D01*
X781762Y729130D01*
X781686Y729202D01*
X781669Y729210D01*
X781655Y729222D01*
X781558Y729261D01*
X781463Y729305D01*
X781445Y729307D01*
X781427Y729314D01*
X781322Y729321D01*
X781219Y729332D01*
X781200Y729328D01*
X781182Y729329D01*
X781081Y729302D01*
X780978Y729280D01*
X780962Y729270D01*
X780944Y729265D01*
X780857Y729208D01*
X780767Y729154D01*
X780755Y729140D01*
X780739Y729129D01*
X780675Y729046D01*
X780607Y728967D01*
X780600Y728949D01*
X780589Y728935D01*
X780555Y728836D01*
X780515Y728739D01*
X780513Y728716D01*
X780508Y728702D01*
X780508Y728670D01*
X780497Y728572D01*
X780497Y722916D01*
X780499Y722903D01*
X780498Y722894D01*
X780508Y722845D01*
X780512Y722826D01*
X780519Y722735D01*
X780531Y722705D01*
X780537Y722673D01*
X780579Y722592D01*
X780615Y722508D01*
X780641Y722476D01*
X780652Y722455D01*
X780675Y722433D01*
X780720Y722377D01*
X810219Y692879D01*
X810292Y692826D01*
X810360Y692767D01*
X810391Y692754D01*
X810418Y692735D01*
X810504Y692709D01*
X810588Y692675D01*
X810622Y692672D01*
X810653Y692663D01*
X810744Y692665D01*
X810834Y692659D01*
X810866Y692668D01*
X810899Y692669D01*
X810984Y692700D01*
X811071Y692723D01*
X811099Y692742D01*
X811130Y692753D01*
X811201Y692810D01*
X811276Y692860D01*
X811296Y692886D01*
X811322Y692907D01*
X811371Y692983D01*
X811426Y693054D01*
X811437Y693086D01*
X811455Y693114D01*
X811477Y693202D01*
X811507Y693287D01*
X811507Y693320D01*
X811515Y693353D01*
X811508Y693442D01*
X811509Y693533D01*
X811499Y693565D01*
X811496Y693598D01*
X811461Y693681D01*
X811433Y693767D01*
X811409Y693802D01*
X811400Y693824D01*
X811368Y693864D01*
X811340Y693906D01*
X797304Y710634D01*
X813404Y724144D01*
X831735Y702298D01*
X817325Y690206D01*
X816719Y689923D01*
X816060Y689807D01*
X815393Y689866D01*
X815221Y689928D01*
X815142Y689943D01*
X815064Y689967D01*
X815022Y689966D01*
X814980Y689974D01*
X814900Y689963D01*
X814819Y689961D01*
X814778Y689946D01*
X814736Y689940D01*
X814664Y689904D01*
X814588Y689876D01*
X814554Y689849D01*
X814516Y689830D01*
X814459Y689773D01*
X814396Y689722D01*
X814372Y689686D01*
X814342Y689656D01*
X814306Y689584D01*
X814263Y689516D01*
X814252Y689474D01*
X814233Y689436D01*
X814222Y689355D01*
X814202Y689277D01*
X814206Y689234D01*
X814200Y689192D01*
X814215Y689112D01*
X814222Y689032D01*
X814238Y688992D01*
X814246Y688950D01*
X814286Y688880D01*
X814318Y688805D01*
X814353Y688762D01*
X814367Y688736D01*
X814389Y688717D01*
X814423Y688674D01*
X875358Y627739D01*
X877387Y625711D01*
X877389Y625679D01*
X877402Y625649D01*
X877407Y625617D01*
X877450Y625536D01*
X877485Y625452D01*
X877511Y625420D01*
X877522Y625400D01*
X877545Y625377D01*
X877590Y625321D01*
X879178Y623734D01*
X879178Y618886D01*
X879194Y618785D01*
X879205Y618683D01*
X879214Y618664D01*
X879218Y618643D01*
X879265Y618553D01*
X879308Y618460D01*
X879323Y618444D01*
X879333Y618426D01*
X879407Y618355D01*
X879477Y618281D01*
X879496Y618271D01*
X879511Y618256D01*
X879604Y618213D01*
X879694Y618165D01*
X879715Y618162D01*
X879734Y618153D01*
X879835Y618141D01*
X879936Y618124D01*
X879957Y618128D01*
G37*
G36*
X528774Y781492D02*
X528774Y781492D01*
X528864Y781506D01*
X528955Y781513D01*
X528985Y781526D01*
X529017Y781531D01*
X529097Y781574D01*
X529181Y781610D01*
X529213Y781635D01*
X529234Y781646D01*
X529256Y781670D01*
X529312Y781715D01*
X537215Y789617D01*
X537268Y789691D01*
X537327Y789760D01*
X537339Y789791D01*
X537358Y789817D01*
X537385Y789904D01*
X537419Y789989D01*
X537424Y790029D01*
X537430Y790052D01*
X537430Y790084D01*
X537437Y790155D01*
X537437Y820544D01*
X537426Y820615D01*
X537424Y820686D01*
X537406Y820735D01*
X537398Y820787D01*
X537364Y820850D01*
X537340Y820917D01*
X537307Y820958D01*
X537283Y821004D01*
X537231Y821053D01*
X537186Y821109D01*
X537142Y821138D01*
X537104Y821173D01*
X537039Y821204D01*
X536979Y821242D01*
X536928Y821255D01*
X536881Y821277D01*
X536810Y821285D01*
X536740Y821302D01*
X536689Y821298D01*
X536637Y821304D01*
X536567Y821289D01*
X536495Y821283D01*
X536447Y821263D01*
X536396Y821252D01*
X536335Y821215D01*
X536269Y821187D01*
X536213Y821142D01*
X536185Y821126D01*
X536170Y821108D01*
X536138Y821082D01*
X534983Y819927D01*
X532846Y819042D01*
X530532Y819042D01*
X528395Y819927D01*
X526759Y821563D01*
X525874Y823700D01*
X525874Y826013D01*
X526759Y828150D01*
X528395Y829786D01*
X530532Y830671D01*
X532846Y830671D01*
X534983Y829786D01*
X536138Y828631D01*
X536196Y828589D01*
X536248Y828540D01*
X536295Y828518D01*
X536338Y828487D01*
X536406Y828466D01*
X536471Y828436D01*
X536523Y828430D01*
X536573Y828415D01*
X536645Y828417D01*
X536716Y828409D01*
X536767Y828420D01*
X536819Y828421D01*
X536886Y828446D01*
X536956Y828461D01*
X537001Y828488D01*
X537050Y828506D01*
X537106Y828551D01*
X537167Y828587D01*
X537201Y828627D01*
X537242Y828659D01*
X537280Y828720D01*
X537327Y828774D01*
X537347Y828823D01*
X537375Y828866D01*
X537392Y828936D01*
X537419Y829002D01*
X537427Y829074D01*
X537435Y829105D01*
X537433Y829128D01*
X537437Y829169D01*
X537437Y882109D01*
X539446Y884118D01*
X579021Y923693D01*
X635310Y923693D01*
X635355Y923700D01*
X635400Y923698D01*
X635475Y923720D01*
X635553Y923733D01*
X635593Y923754D01*
X635636Y923766D01*
X635701Y923811D01*
X635770Y923848D01*
X635801Y923880D01*
X635839Y923906D01*
X635885Y923969D01*
X635939Y924026D01*
X635959Y924067D01*
X635986Y924104D01*
X636010Y924178D01*
X636043Y924249D01*
X636048Y924294D01*
X636062Y924337D01*
X636061Y924416D01*
X636070Y924493D01*
X636060Y924538D01*
X636060Y924583D01*
X636035Y924657D01*
X636018Y924734D01*
X635995Y924773D01*
X635980Y924816D01*
X635932Y924878D01*
X635892Y924945D01*
X635857Y924974D01*
X635829Y925010D01*
X635718Y925093D01*
X635705Y925105D01*
X635700Y925107D01*
X635695Y925111D01*
X602608Y944506D01*
X602579Y944518D01*
X602521Y944550D01*
X571023Y957913D01*
X570931Y957935D01*
X570841Y957965D01*
X570812Y957964D01*
X570784Y957971D01*
X570690Y957963D01*
X570595Y957962D01*
X570560Y957952D01*
X570539Y957950D01*
X570509Y957937D01*
X570434Y957915D01*
X568329Y957043D01*
X566016Y957043D01*
X563879Y957929D01*
X562243Y959564D01*
X561358Y961702D01*
X561358Y964015D01*
X562243Y966152D01*
X563879Y967788D01*
X565069Y968280D01*
X565127Y968317D01*
X565190Y968344D01*
X565230Y968381D01*
X565278Y968410D01*
X565321Y968463D01*
X565372Y968509D01*
X565399Y968557D01*
X565434Y968600D01*
X565459Y968664D01*
X565492Y968723D01*
X565503Y968778D01*
X565523Y968829D01*
X565525Y968898D01*
X565538Y968965D01*
X565531Y969020D01*
X565533Y969075D01*
X565514Y969141D01*
X565505Y969209D01*
X565480Y969258D01*
X565464Y969311D01*
X565425Y969367D01*
X565395Y969429D01*
X565356Y969468D01*
X565324Y969513D01*
X565269Y969554D01*
X565221Y969602D01*
X565153Y969640D01*
X565127Y969660D01*
X565106Y969667D01*
X565074Y969685D01*
X564182Y970063D01*
X564150Y970071D01*
X564080Y970098D01*
X558707Y971531D01*
X558685Y971533D01*
X558665Y971541D01*
X558563Y971545D01*
X558462Y971555D01*
X558441Y971550D01*
X558420Y971551D01*
X558322Y971523D01*
X558222Y971500D01*
X558204Y971489D01*
X558183Y971483D01*
X558100Y971425D01*
X558013Y971371D01*
X557999Y971355D01*
X557981Y971343D01*
X557920Y971261D01*
X557855Y971183D01*
X557847Y971162D01*
X557835Y971145D01*
X557803Y971048D01*
X557766Y970953D01*
X557765Y970932D01*
X557758Y970911D01*
X557759Y970809D01*
X557755Y970708D01*
X557760Y970687D01*
X557761Y970665D01*
X557807Y970504D01*
X558658Y968450D01*
X558658Y966137D01*
X557773Y964000D01*
X556137Y962364D01*
X554000Y961479D01*
X551687Y961479D01*
X549550Y962364D01*
X547914Y964000D01*
X547029Y966137D01*
X547029Y968482D01*
X547014Y968572D01*
X547007Y968663D01*
X546994Y968692D01*
X546989Y968724D01*
X546946Y968805D01*
X546911Y968889D01*
X546885Y968921D01*
X546874Y968942D01*
X546851Y968964D01*
X546806Y969020D01*
X544934Y970892D01*
X544844Y970956D01*
X544805Y970990D01*
X544792Y970995D01*
X544748Y971028D01*
X544739Y971032D01*
X544734Y971035D01*
X544713Y971042D01*
X544592Y971089D01*
X530580Y974826D01*
X530565Y974827D01*
X530551Y974833D01*
X530384Y974851D01*
X516990Y974851D01*
X516936Y974842D01*
X516880Y974843D01*
X516815Y974823D01*
X516747Y974812D01*
X516698Y974786D01*
X516646Y974769D01*
X516607Y974743D01*
X515511Y974848D01*
X515485Y974846D01*
X515439Y974851D01*
X514342Y974851D01*
X514289Y974879D01*
X514233Y974919D01*
X514181Y974935D01*
X514131Y974961D01*
X514027Y974982D01*
X513998Y974991D01*
X513986Y974991D01*
X513967Y974995D01*
X485523Y977704D01*
X485497Y977702D01*
X485451Y977707D01*
X467006Y977707D01*
X466916Y977693D01*
X466825Y977685D01*
X466795Y977673D01*
X466763Y977668D01*
X466682Y977625D01*
X466599Y977589D01*
X466566Y977563D01*
X466546Y977552D01*
X466524Y977529D01*
X466468Y977484D01*
X464810Y975827D01*
X462673Y974941D01*
X460359Y974941D01*
X458222Y975827D01*
X456587Y977462D01*
X455701Y979599D01*
X455701Y981913D01*
X456587Y984050D01*
X456887Y984350D01*
X456919Y984395D01*
X456958Y984432D01*
X456990Y984494D01*
X457031Y984550D01*
X457047Y984602D01*
X457072Y984650D01*
X457083Y984719D01*
X457103Y984785D01*
X457102Y984840D01*
X457110Y984893D01*
X457098Y984962D01*
X457097Y985031D01*
X457078Y985082D01*
X457069Y985136D01*
X457036Y985197D01*
X457012Y985262D01*
X456978Y985305D01*
X456952Y985353D01*
X456902Y985400D01*
X456858Y985454D01*
X456812Y985484D01*
X456773Y985521D01*
X456710Y985550D01*
X456652Y985587D01*
X456599Y985600D01*
X456549Y985623D01*
X456442Y985640D01*
X456413Y985647D01*
X456401Y985646D01*
X456383Y985649D01*
X451496Y985871D01*
X451408Y985861D01*
X451319Y985859D01*
X451286Y985847D01*
X451251Y985843D01*
X451171Y985805D01*
X451088Y985774D01*
X451060Y985752D01*
X451029Y985737D01*
X450965Y985676D01*
X450896Y985620D01*
X450877Y985591D01*
X450852Y985567D01*
X450811Y985488D01*
X450763Y985413D01*
X450754Y985380D01*
X450738Y985349D01*
X450724Y985261D01*
X450703Y985175D01*
X450705Y985140D01*
X450700Y985106D01*
X450715Y985018D01*
X450722Y984930D01*
X450735Y984898D01*
X450741Y984863D01*
X450783Y984785D01*
X450818Y984703D01*
X450846Y984669D01*
X450858Y984647D01*
X450881Y984625D01*
X450923Y984572D01*
X451446Y984050D01*
X452331Y981913D01*
X452331Y979599D01*
X451445Y977462D01*
X449810Y975827D01*
X447673Y974941D01*
X446962Y974941D01*
X446904Y974932D01*
X446846Y974932D01*
X446784Y974912D01*
X446719Y974902D01*
X446667Y974874D01*
X446612Y974856D01*
X446559Y974817D01*
X446501Y974786D01*
X446461Y974744D01*
X446415Y974710D01*
X446354Y974631D01*
X446332Y974608D01*
X446326Y974595D01*
X446312Y974577D01*
X423979Y938044D01*
X422966Y936387D01*
X422966Y936386D01*
X422965Y936385D01*
X422918Y936270D01*
X422873Y936159D01*
X422873Y936158D01*
X422873Y936157D01*
X422854Y935990D01*
X422854Y935800D01*
X422282Y935227D01*
X422278Y935222D01*
X422273Y935218D01*
X422170Y935086D01*
X421748Y934395D01*
X421563Y934350D01*
X421562Y934350D01*
X421560Y934350D01*
X421452Y934304D01*
X421336Y934255D01*
X421335Y934254D01*
X421334Y934253D01*
X421203Y934149D01*
X416888Y929834D01*
X416828Y929749D01*
X416762Y929667D01*
X416753Y929646D01*
X416745Y929634D01*
X416736Y929604D01*
X416697Y929512D01*
X416613Y929228D01*
X415989Y928890D01*
X415969Y928874D01*
X415945Y928864D01*
X415814Y928759D01*
X415312Y928258D01*
X415016Y928258D01*
X414912Y928241D01*
X414808Y928229D01*
X414787Y928220D01*
X414773Y928218D01*
X414745Y928203D01*
X414653Y928166D01*
X376771Y907627D01*
X376709Y907579D01*
X376643Y907540D01*
X376613Y907505D01*
X376576Y907476D01*
X376533Y907412D01*
X376483Y907353D01*
X376465Y907310D01*
X376440Y907272D01*
X376420Y907197D01*
X376391Y907125D01*
X376384Y907063D01*
X376376Y907034D01*
X376378Y907007D01*
X376372Y906958D01*
X376372Y901473D01*
X376387Y901383D01*
X376394Y901292D01*
X376407Y901262D01*
X376412Y901230D01*
X376455Y901150D01*
X376490Y901066D01*
X376516Y901034D01*
X376527Y901013D01*
X376550Y900991D01*
X376595Y900935D01*
X378468Y899062D01*
X378542Y899009D01*
X378611Y898949D01*
X378642Y898937D01*
X378668Y898918D01*
X378755Y898892D01*
X378840Y898858D01*
X378881Y898853D01*
X378903Y898846D01*
X378935Y898847D01*
X379006Y898839D01*
X381351Y898839D01*
X383488Y897954D01*
X385146Y896296D01*
X385220Y896243D01*
X385289Y896183D01*
X385319Y896171D01*
X385346Y896152D01*
X385432Y896126D01*
X385517Y896092D01*
X385558Y896087D01*
X385581Y896080D01*
X385613Y896081D01*
X385684Y896073D01*
X390527Y896073D01*
X417189Y869412D01*
X417262Y869359D01*
X417332Y869299D01*
X417362Y869287D01*
X417388Y869268D01*
X417475Y869241D01*
X417560Y869207D01*
X417601Y869203D01*
X417623Y869196D01*
X417656Y869197D01*
X417727Y869189D01*
X451911Y869189D01*
X452001Y869203D01*
X452092Y869211D01*
X452121Y869223D01*
X452153Y869228D01*
X452234Y869271D01*
X452318Y869307D01*
X452350Y869333D01*
X452371Y869344D01*
X452393Y869367D01*
X452449Y869412D01*
X452462Y869425D01*
X491321Y869425D01*
X519301Y841445D01*
X519375Y841392D01*
X519444Y841333D01*
X519474Y841320D01*
X519501Y841302D01*
X519588Y841275D01*
X519672Y841241D01*
X519713Y841236D01*
X519736Y841229D01*
X519768Y841230D01*
X519839Y841222D01*
X522184Y841222D01*
X524321Y840337D01*
X525956Y838701D01*
X526842Y836564D01*
X526842Y834251D01*
X525956Y832114D01*
X524321Y830478D01*
X522184Y829593D01*
X519870Y829593D01*
X517733Y830478D01*
X516098Y832114D01*
X515212Y834251D01*
X515212Y836595D01*
X515198Y836685D01*
X515190Y836776D01*
X515178Y836806D01*
X515173Y836838D01*
X515130Y836919D01*
X515094Y837003D01*
X515068Y837035D01*
X515057Y837055D01*
X515034Y837078D01*
X514989Y837134D01*
X489019Y863104D01*
X488945Y863157D01*
X488875Y863217D01*
X488845Y863229D01*
X488819Y863248D01*
X488732Y863275D01*
X488647Y863309D01*
X488606Y863313D01*
X488584Y863320D01*
X488552Y863319D01*
X488480Y863327D01*
X462421Y863327D01*
X462376Y863320D01*
X462330Y863322D01*
X462255Y863300D01*
X462178Y863288D01*
X462138Y863266D01*
X462093Y863253D01*
X462029Y863209D01*
X461961Y863172D01*
X461929Y863139D01*
X461891Y863113D01*
X461845Y863050D01*
X461791Y862994D01*
X461772Y862952D01*
X461745Y862916D01*
X461721Y862842D01*
X461688Y862771D01*
X461683Y862725D01*
X461668Y862682D01*
X461669Y862604D01*
X461661Y862527D01*
X461670Y862482D01*
X461671Y862436D01*
X461709Y862304D01*
X461713Y862286D01*
X461715Y862282D01*
X461718Y862275D01*
X462369Y860703D01*
X462369Y858389D01*
X461483Y856252D01*
X459848Y854617D01*
X457711Y853731D01*
X455366Y853731D01*
X455276Y853717D01*
X455185Y853709D01*
X455155Y853697D01*
X455123Y853692D01*
X455043Y853649D01*
X454959Y853613D01*
X454927Y853587D01*
X454906Y853576D01*
X454884Y853553D01*
X454828Y853508D01*
X433136Y831817D01*
X364740Y831817D01*
X364650Y831802D01*
X364559Y831795D01*
X364529Y831782D01*
X364497Y831777D01*
X364417Y831734D01*
X364333Y831698D01*
X364301Y831673D01*
X364280Y831662D01*
X364258Y831638D01*
X364255Y831637D01*
X364253Y831634D01*
X364202Y831594D01*
X362544Y829936D01*
X360407Y829051D01*
X358094Y829051D01*
X355956Y829936D01*
X354321Y831571D01*
X353436Y833709D01*
X353436Y834765D01*
X353424Y834836D01*
X353422Y834908D01*
X353404Y834956D01*
X353396Y835008D01*
X353362Y835071D01*
X353338Y835139D01*
X353305Y835179D01*
X353281Y835225D01*
X353229Y835274D01*
X353184Y835330D01*
X353140Y835359D01*
X353102Y835394D01*
X353037Y835425D01*
X352977Y835463D01*
X352926Y835476D01*
X352879Y835498D01*
X352808Y835506D01*
X352738Y835523D01*
X352686Y835519D01*
X352635Y835525D01*
X352565Y835510D01*
X352493Y835504D01*
X352445Y835484D01*
X352394Y835473D01*
X352333Y835436D01*
X352267Y835408D01*
X352211Y835363D01*
X352183Y835347D01*
X352168Y835329D01*
X352136Y835303D01*
X352087Y835254D01*
X352034Y835180D01*
X351975Y835111D01*
X351962Y835081D01*
X351944Y835054D01*
X351917Y834967D01*
X351883Y834883D01*
X351878Y834842D01*
X351871Y834819D01*
X351872Y834787D01*
X351864Y834716D01*
X351864Y818830D01*
X349856Y816821D01*
X349855Y816821D01*
X317090Y784056D01*
X317035Y783979D01*
X316974Y783906D01*
X316963Y783879D01*
X316947Y783856D01*
X316919Y783765D01*
X316884Y783677D01*
X316883Y783648D01*
X316874Y783621D01*
X316877Y783526D01*
X316872Y783431D01*
X316880Y783404D01*
X316881Y783375D01*
X316913Y783286D01*
X316939Y783195D01*
X316955Y783171D01*
X316965Y783144D01*
X317024Y783070D01*
X317078Y782992D01*
X317101Y782974D01*
X317119Y782952D01*
X317198Y782900D01*
X317274Y782843D01*
X317308Y782830D01*
X317326Y782819D01*
X317358Y782811D01*
X317430Y782782D01*
X322124Y781518D01*
X322140Y781516D01*
X322155Y781510D01*
X322322Y781492D01*
X471986Y781492D01*
X528774Y781492D01*
G37*
G36*
X716062Y685053D02*
X716062Y685053D01*
X716153Y685061D01*
X716183Y685073D01*
X716215Y685078D01*
X716295Y685121D01*
X716379Y685157D01*
X716411Y685183D01*
X716432Y685194D01*
X716454Y685217D01*
X716510Y685262D01*
X772598Y741350D01*
X772610Y741366D01*
X772626Y741379D01*
X772682Y741466D01*
X772742Y741550D01*
X772748Y741569D01*
X772759Y741585D01*
X772784Y741686D01*
X772814Y741785D01*
X772814Y741805D01*
X772819Y741824D01*
X772811Y741927D01*
X772808Y742031D01*
X772801Y742049D01*
X772799Y742069D01*
X772759Y742164D01*
X772723Y742262D01*
X772711Y742277D01*
X772703Y742296D01*
X772598Y742426D01*
X756411Y758614D01*
X756411Y812031D01*
X758420Y814040D01*
X766522Y822142D01*
X766568Y822205D01*
X766590Y822229D01*
X766594Y822238D01*
X766635Y822285D01*
X766647Y822316D01*
X766666Y822342D01*
X766693Y822429D01*
X766727Y822514D01*
X766731Y822554D01*
X766738Y822577D01*
X766737Y822609D01*
X766745Y822680D01*
X766745Y837964D01*
X766734Y838035D01*
X766732Y838107D01*
X766714Y838156D01*
X766706Y838207D01*
X766672Y838270D01*
X766647Y838338D01*
X766615Y838378D01*
X766591Y838424D01*
X766539Y838474D01*
X766494Y838530D01*
X766450Y838558D01*
X766412Y838594D01*
X766347Y838624D01*
X766287Y838663D01*
X766236Y838675D01*
X766189Y838697D01*
X766118Y838705D01*
X766048Y838723D01*
X765996Y838719D01*
X765945Y838725D01*
X765875Y838709D01*
X765803Y838704D01*
X765755Y838683D01*
X765704Y838672D01*
X765643Y838635D01*
X765577Y838607D01*
X765521Y838563D01*
X765493Y838546D01*
X765478Y838528D01*
X765446Y838503D01*
X764024Y837081D01*
X761887Y836195D01*
X759573Y836195D01*
X757436Y837081D01*
X755801Y838716D01*
X754915Y840853D01*
X754915Y843167D01*
X755801Y845304D01*
X757436Y846939D01*
X757753Y847071D01*
X757792Y847095D01*
X757835Y847111D01*
X757896Y847159D01*
X757902Y847163D01*
X757918Y847172D01*
X757921Y847175D01*
X757962Y847200D01*
X757991Y847236D01*
X758027Y847264D01*
X758069Y847330D01*
X758076Y847338D01*
X758087Y847350D01*
X758089Y847354D01*
X758119Y847390D01*
X758135Y847433D01*
X758160Y847471D01*
X758179Y847547D01*
X758181Y847552D01*
X758191Y847573D01*
X758192Y847579D01*
X758207Y847619D01*
X758209Y847665D01*
X758220Y847710D01*
X758215Y847785D01*
X758218Y847817D01*
X758216Y847827D01*
X758218Y847865D01*
X758205Y847909D01*
X758201Y847955D01*
X758175Y848018D01*
X758166Y848058D01*
X758158Y848071D01*
X758149Y848101D01*
X758123Y848139D01*
X758105Y848181D01*
X758054Y848245D01*
X758040Y848269D01*
X758024Y848282D01*
X758020Y848288D01*
X758009Y848304D01*
X758005Y848307D01*
X758000Y848312D01*
X757623Y848690D01*
X757549Y848743D01*
X757479Y848802D01*
X757449Y848815D01*
X757423Y848833D01*
X757336Y848860D01*
X757251Y848894D01*
X757210Y848899D01*
X757188Y848906D01*
X757156Y848905D01*
X757084Y848913D01*
X717157Y848913D01*
X688594Y877476D01*
X688520Y877529D01*
X688451Y877589D01*
X688421Y877601D01*
X688394Y877620D01*
X688307Y877646D01*
X688223Y877681D01*
X688182Y877685D01*
X688159Y877692D01*
X688127Y877691D01*
X688056Y877699D01*
X657877Y877699D01*
X657787Y877684D01*
X657696Y877677D01*
X657667Y877664D01*
X657635Y877659D01*
X657554Y877617D01*
X657470Y877581D01*
X657438Y877555D01*
X657417Y877544D01*
X657395Y877521D01*
X657339Y877476D01*
X655681Y875818D01*
X653544Y874933D01*
X651231Y874933D01*
X649094Y875818D01*
X647458Y877454D01*
X646573Y879591D01*
X646573Y881904D01*
X647458Y884042D01*
X649094Y885677D01*
X651231Y886562D01*
X653544Y886562D01*
X655681Y885677D01*
X657339Y884019D01*
X657413Y883966D01*
X657483Y883907D01*
X657513Y883895D01*
X657539Y883876D01*
X657626Y883849D01*
X657711Y883815D01*
X657752Y883810D01*
X657774Y883804D01*
X657806Y883804D01*
X657877Y883796D01*
X686183Y883796D01*
X686254Y883808D01*
X686326Y883810D01*
X686375Y883828D01*
X686426Y883836D01*
X686489Y883870D01*
X686557Y883894D01*
X686597Y883927D01*
X686643Y883951D01*
X686693Y884003D01*
X686749Y884048D01*
X686777Y884092D01*
X686813Y884130D01*
X686843Y884195D01*
X686882Y884255D01*
X686894Y884306D01*
X686916Y884353D01*
X686924Y884424D01*
X686942Y884493D01*
X686938Y884545D01*
X686943Y884597D01*
X686928Y884667D01*
X686923Y884739D01*
X686902Y884787D01*
X686891Y884838D01*
X686854Y884899D01*
X686826Y884965D01*
X686782Y885021D01*
X686765Y885049D01*
X686747Y885064D01*
X686722Y885096D01*
X681524Y890294D01*
X681504Y890308D01*
X681409Y890388D01*
X663888Y902140D01*
X663872Y902147D01*
X663859Y902159D01*
X663760Y902199D01*
X663664Y902242D01*
X663647Y902244D01*
X663630Y902251D01*
X663464Y902269D01*
X657162Y902269D01*
X655153Y904278D01*
X648303Y911128D01*
X646294Y913137D01*
X646294Y915154D01*
X646280Y915244D01*
X646272Y915335D01*
X646260Y915365D01*
X646255Y915397D01*
X646212Y915478D01*
X646176Y915561D01*
X646150Y915594D01*
X646139Y915614D01*
X646116Y915636D01*
X646071Y915692D01*
X644391Y917372D01*
X644317Y917425D01*
X644248Y917485D01*
X644218Y917497D01*
X644192Y917516D01*
X644105Y917543D01*
X644020Y917577D01*
X643979Y917581D01*
X643957Y917588D01*
X643924Y917587D01*
X643853Y917595D01*
X581862Y917595D01*
X581772Y917581D01*
X581681Y917573D01*
X581651Y917561D01*
X581619Y917556D01*
X581539Y917513D01*
X581455Y917477D01*
X581423Y917451D01*
X581402Y917440D01*
X581380Y917417D01*
X581324Y917372D01*
X543758Y879806D01*
X543705Y879732D01*
X543645Y879663D01*
X543633Y879633D01*
X543614Y879607D01*
X543588Y879520D01*
X543553Y879435D01*
X543549Y879394D01*
X543542Y879372D01*
X543543Y879339D01*
X543535Y879268D01*
X543535Y826286D01*
X543549Y826201D01*
X543554Y826124D01*
X543535Y824722D01*
X543536Y824718D01*
X543535Y824712D01*
X543535Y787314D01*
X541526Y785305D01*
X534948Y778727D01*
X534906Y778669D01*
X534857Y778617D01*
X534835Y778570D01*
X534804Y778527D01*
X534783Y778459D01*
X534753Y778394D01*
X534747Y778342D01*
X534732Y778292D01*
X534734Y778221D01*
X534726Y778149D01*
X534737Y778098D01*
X534738Y778046D01*
X534763Y777979D01*
X534778Y777909D01*
X534805Y777864D01*
X534823Y777815D01*
X534868Y777759D01*
X534904Y777698D01*
X534944Y777664D01*
X534976Y777623D01*
X535037Y777585D01*
X535091Y777538D01*
X535140Y777518D01*
X535183Y777490D01*
X535253Y777473D01*
X535319Y777446D01*
X535391Y777438D01*
X535422Y777430D01*
X535445Y777432D01*
X535486Y777428D01*
X567906Y777428D01*
X567926Y777431D01*
X567945Y777429D01*
X568047Y777451D01*
X568149Y777467D01*
X568166Y777477D01*
X568186Y777481D01*
X568275Y777534D01*
X568366Y777582D01*
X568380Y777597D01*
X568397Y777607D01*
X568464Y777686D01*
X568536Y777761D01*
X568544Y777779D01*
X568557Y777794D01*
X568596Y777890D01*
X568639Y777984D01*
X568641Y778004D01*
X568649Y778022D01*
X568667Y778189D01*
X568667Y783582D01*
X569858Y784773D01*
X581542Y784773D01*
X582733Y783582D01*
X582733Y781050D01*
X582736Y781030D01*
X582734Y781011D01*
X582756Y780909D01*
X582772Y780807D01*
X582782Y780790D01*
X582786Y780770D01*
X582839Y780681D01*
X582888Y780590D01*
X582902Y780576D01*
X582912Y780559D01*
X582991Y780492D01*
X583066Y780420D01*
X583084Y780412D01*
X583099Y780399D01*
X583195Y780360D01*
X583289Y780317D01*
X583309Y780315D01*
X583327Y780307D01*
X583494Y780289D01*
X584906Y780289D01*
X584926Y780292D01*
X584945Y780290D01*
X585047Y780312D01*
X585149Y780328D01*
X585166Y780338D01*
X585186Y780342D01*
X585275Y780395D01*
X585366Y780444D01*
X585380Y780458D01*
X585397Y780468D01*
X585464Y780547D01*
X585536Y780622D01*
X585544Y780640D01*
X585557Y780655D01*
X585596Y780751D01*
X585639Y780845D01*
X585641Y780865D01*
X585649Y780883D01*
X585667Y781050D01*
X585667Y783582D01*
X586858Y784773D01*
X595606Y784773D01*
X595696Y784787D01*
X595787Y784795D01*
X595817Y784807D01*
X595849Y784812D01*
X595929Y784855D01*
X596013Y784891D01*
X596045Y784917D01*
X596066Y784928D01*
X596088Y784951D01*
X596144Y784996D01*
X596647Y785499D01*
X599882Y785499D01*
X599953Y785510D01*
X600024Y785512D01*
X600073Y785530D01*
X600125Y785538D01*
X600188Y785572D01*
X600255Y785597D01*
X600296Y785629D01*
X600342Y785654D01*
X600391Y785706D01*
X600447Y785750D01*
X600476Y785794D01*
X600511Y785832D01*
X600542Y785897D01*
X600580Y785957D01*
X600593Y786008D01*
X600615Y786055D01*
X600623Y786126D01*
X600640Y786196D01*
X600636Y786248D01*
X600642Y786299D01*
X600627Y786369D01*
X600621Y786441D01*
X600601Y786489D01*
X600590Y786540D01*
X600553Y786601D01*
X600525Y786667D01*
X600480Y786723D01*
X600464Y786751D01*
X600446Y786766D01*
X600420Y786798D01*
X596144Y791074D01*
X596070Y791127D01*
X596001Y791187D01*
X595971Y791199D01*
X595944Y791218D01*
X595857Y791245D01*
X595773Y791279D01*
X595732Y791283D01*
X595709Y791290D01*
X595677Y791289D01*
X595606Y791297D01*
X586858Y791297D01*
X585667Y792488D01*
X585667Y794766D01*
X585664Y794786D01*
X585666Y794805D01*
X585644Y794907D01*
X585628Y795009D01*
X585618Y795026D01*
X585614Y795046D01*
X585561Y795135D01*
X585512Y795226D01*
X585498Y795240D01*
X585488Y795257D01*
X585409Y795324D01*
X585334Y795396D01*
X585316Y795404D01*
X585301Y795417D01*
X585205Y795456D01*
X585111Y795499D01*
X585091Y795501D01*
X585073Y795509D01*
X584906Y795527D01*
X583494Y795527D01*
X583474Y795524D01*
X583455Y795526D01*
X583353Y795504D01*
X583251Y795488D01*
X583234Y795478D01*
X583214Y795474D01*
X583125Y795421D01*
X583034Y795372D01*
X583020Y795358D01*
X583003Y795348D01*
X582936Y795269D01*
X582864Y795194D01*
X582856Y795176D01*
X582843Y795161D01*
X582804Y795065D01*
X582761Y794971D01*
X582759Y794951D01*
X582751Y794933D01*
X582733Y794766D01*
X582733Y792488D01*
X581542Y791297D01*
X569858Y791297D01*
X568667Y792488D01*
X568667Y805172D01*
X569858Y806363D01*
X576323Y806363D01*
X576343Y806366D01*
X576362Y806364D01*
X576464Y806386D01*
X576566Y806402D01*
X576583Y806412D01*
X576603Y806416D01*
X576692Y806469D01*
X576783Y806518D01*
X576797Y806532D01*
X576814Y806542D01*
X576881Y806621D01*
X576952Y806696D01*
X576961Y806714D01*
X576974Y806729D01*
X577012Y806825D01*
X577056Y806919D01*
X577058Y806939D01*
X577066Y806957D01*
X577084Y807124D01*
X577084Y808908D01*
X577770Y810565D01*
X577781Y810609D01*
X577800Y810651D01*
X577809Y810728D01*
X577827Y810804D01*
X577822Y810850D01*
X577827Y810895D01*
X577811Y810972D01*
X577804Y811049D01*
X577785Y811091D01*
X577775Y811136D01*
X577735Y811203D01*
X577704Y811274D01*
X577672Y811308D01*
X577649Y811347D01*
X577590Y811398D01*
X577537Y811455D01*
X577497Y811477D01*
X577462Y811507D01*
X577390Y811536D01*
X577322Y811573D01*
X577276Y811582D01*
X577234Y811599D01*
X577098Y811614D01*
X577080Y811617D01*
X577075Y811616D01*
X577067Y811617D01*
X569858Y811617D01*
X568667Y812808D01*
X568667Y821556D01*
X568653Y821646D01*
X568645Y821737D01*
X568633Y821767D01*
X568628Y821799D01*
X568585Y821879D01*
X568549Y821963D01*
X568523Y821995D01*
X568512Y822016D01*
X568489Y822038D01*
X568444Y822094D01*
X557021Y833517D01*
X557021Y850490D01*
X557007Y850580D01*
X556999Y850671D01*
X556987Y850701D01*
X556982Y850733D01*
X556939Y850814D01*
X556903Y850897D01*
X556877Y850930D01*
X556866Y850950D01*
X556843Y850972D01*
X556798Y851028D01*
X555141Y852686D01*
X554255Y854823D01*
X554255Y857137D01*
X555141Y859274D01*
X556776Y860909D01*
X558913Y861795D01*
X561227Y861795D01*
X563364Y860909D01*
X564999Y859274D01*
X565885Y857137D01*
X565885Y854823D01*
X564999Y852686D01*
X563342Y851028D01*
X563289Y850954D01*
X563229Y850885D01*
X563217Y850855D01*
X563198Y850829D01*
X563171Y850742D01*
X563137Y850657D01*
X563133Y850616D01*
X563126Y850594D01*
X563127Y850561D01*
X563119Y850490D01*
X563119Y836358D01*
X563122Y836339D01*
X563120Y836320D01*
X563135Y836250D01*
X563141Y836177D01*
X563153Y836147D01*
X563158Y836115D01*
X563168Y836097D01*
X563172Y836079D01*
X563207Y836020D01*
X563237Y835951D01*
X563263Y835919D01*
X563274Y835898D01*
X563289Y835883D01*
X563298Y835868D01*
X563313Y835855D01*
X563342Y835820D01*
X572256Y826906D01*
X572330Y826853D01*
X572399Y826793D01*
X572429Y826781D01*
X572456Y826762D01*
X572543Y826735D01*
X572627Y826701D01*
X572668Y826697D01*
X572691Y826690D01*
X572723Y826691D01*
X572794Y826683D01*
X578606Y826683D01*
X578696Y826697D01*
X578787Y826705D01*
X578817Y826717D01*
X578849Y826722D01*
X578929Y826765D01*
X579013Y826801D01*
X579045Y826827D01*
X579066Y826838D01*
X579088Y826861D01*
X579144Y826906D01*
X592217Y839979D01*
X602840Y839979D01*
X602930Y839993D01*
X603021Y840001D01*
X603051Y840013D01*
X603083Y840018D01*
X603164Y840061D01*
X603247Y840097D01*
X603280Y840123D01*
X603300Y840134D01*
X603322Y840157D01*
X603378Y840202D01*
X605036Y841859D01*
X607173Y842745D01*
X609487Y842745D01*
X611624Y841859D01*
X613259Y840224D01*
X614145Y838087D01*
X614145Y835773D01*
X613259Y833636D01*
X611624Y832001D01*
X609487Y831115D01*
X607173Y831115D01*
X605036Y832001D01*
X603378Y833658D01*
X603304Y833711D01*
X603235Y833771D01*
X603205Y833783D01*
X603179Y833802D01*
X603092Y833829D01*
X603007Y833863D01*
X602966Y833867D01*
X602944Y833874D01*
X602911Y833873D01*
X602840Y833881D01*
X595058Y833881D01*
X594968Y833867D01*
X594877Y833859D01*
X594847Y833847D01*
X594815Y833842D01*
X594735Y833799D01*
X594651Y833763D01*
X594619Y833737D01*
X594598Y833726D01*
X594576Y833703D01*
X594520Y833658D01*
X588844Y827982D01*
X588802Y827924D01*
X588753Y827872D01*
X588731Y827825D01*
X588700Y827783D01*
X588679Y827714D01*
X588649Y827649D01*
X588643Y827597D01*
X588628Y827547D01*
X588630Y827476D01*
X588622Y827405D01*
X588633Y827354D01*
X588634Y827302D01*
X588659Y827234D01*
X588674Y827164D01*
X588701Y827119D01*
X588719Y827071D01*
X588764Y827015D01*
X588800Y826953D01*
X588840Y826919D01*
X588872Y826879D01*
X588933Y826840D01*
X588987Y826793D01*
X589036Y826774D01*
X589079Y826746D01*
X589149Y826728D01*
X589215Y826701D01*
X589287Y826693D01*
X589318Y826685D01*
X589341Y826687D01*
X589382Y826683D01*
X598542Y826683D01*
X599733Y825492D01*
X599733Y816744D01*
X599747Y816654D01*
X599755Y816563D01*
X599767Y816533D01*
X599772Y816501D01*
X599815Y816421D01*
X599851Y816337D01*
X599877Y816305D01*
X599888Y816284D01*
X599911Y816262D01*
X599956Y816206D01*
X615443Y800719D01*
X615443Y796744D01*
X615444Y796737D01*
X615444Y796735D01*
X615446Y796726D01*
X615446Y796724D01*
X615444Y796705D01*
X615466Y796603D01*
X615482Y796501D01*
X615492Y796484D01*
X615496Y796464D01*
X615549Y796375D01*
X615598Y796284D01*
X615612Y796270D01*
X615622Y796253D01*
X615701Y796186D01*
X615776Y796114D01*
X615794Y796106D01*
X615809Y796093D01*
X615905Y796054D01*
X615999Y796011D01*
X616019Y796009D01*
X616037Y796001D01*
X616204Y795983D01*
X618018Y795983D01*
X618108Y795997D01*
X618199Y796005D01*
X618229Y796017D01*
X618261Y796022D01*
X618342Y796065D01*
X618426Y796101D01*
X618458Y796127D01*
X618478Y796138D01*
X618501Y796161D01*
X618557Y796206D01*
X619138Y796787D01*
X619191Y796861D01*
X619251Y796931D01*
X619263Y796961D01*
X619282Y796987D01*
X619309Y797074D01*
X619343Y797159D01*
X619347Y797200D01*
X619354Y797222D01*
X619353Y797254D01*
X619361Y797326D01*
X619361Y808542D01*
X620552Y809733D01*
X629629Y809733D01*
X629742Y809751D01*
X629856Y809767D01*
X629866Y809771D01*
X629872Y809772D01*
X629892Y809783D01*
X630010Y809835D01*
X630413Y810068D01*
X631060Y810241D01*
X632133Y810241D01*
X632133Y802950D01*
X632133Y795659D01*
X632132Y795659D01*
X632112Y795656D01*
X632093Y795658D01*
X631991Y795636D01*
X631889Y795620D01*
X631872Y795610D01*
X631852Y795606D01*
X631763Y795553D01*
X631672Y795504D01*
X631658Y795490D01*
X631641Y795480D01*
X631574Y795401D01*
X631503Y795326D01*
X631494Y795308D01*
X631481Y795293D01*
X631442Y795197D01*
X631399Y795103D01*
X631397Y795083D01*
X631389Y795065D01*
X631371Y794898D01*
X631371Y783212D01*
X631374Y783192D01*
X631372Y783173D01*
X631394Y783071D01*
X631411Y782969D01*
X631420Y782952D01*
X631424Y782932D01*
X631477Y782843D01*
X631526Y782752D01*
X631540Y782738D01*
X631550Y782721D01*
X631629Y782654D01*
X631704Y782583D01*
X631722Y782574D01*
X631737Y782561D01*
X631833Y782522D01*
X631927Y782479D01*
X631947Y782477D01*
X631965Y782469D01*
X632132Y782451D01*
X633656Y782451D01*
X633676Y782454D01*
X633695Y782452D01*
X633797Y782474D01*
X633899Y782491D01*
X633916Y782500D01*
X633936Y782504D01*
X634025Y782557D01*
X634116Y782606D01*
X634130Y782620D01*
X634147Y782630D01*
X634214Y782709D01*
X634285Y782784D01*
X634294Y782802D01*
X634307Y782817D01*
X634346Y782913D01*
X634389Y783007D01*
X634391Y783027D01*
X634399Y783045D01*
X634417Y783212D01*
X634417Y794898D01*
X634414Y794918D01*
X634416Y794937D01*
X634394Y795039D01*
X634377Y795141D01*
X634368Y795158D01*
X634364Y795178D01*
X634311Y795267D01*
X634262Y795358D01*
X634248Y795372D01*
X634238Y795389D01*
X634159Y795456D01*
X634084Y795528D01*
X634066Y795536D01*
X634051Y795549D01*
X633955Y795588D01*
X633861Y795631D01*
X633841Y795633D01*
X633823Y795641D01*
X633656Y795659D01*
X633655Y795659D01*
X633655Y802950D01*
X633655Y810250D01*
X633717Y810264D01*
X633819Y810280D01*
X633836Y810290D01*
X633856Y810294D01*
X633945Y810347D01*
X634036Y810396D01*
X634050Y810410D01*
X634067Y810420D01*
X634134Y810499D01*
X634206Y810574D01*
X634214Y810592D01*
X634227Y810607D01*
X634266Y810703D01*
X634309Y810797D01*
X634311Y810817D01*
X634319Y810835D01*
X634337Y811002D01*
X634337Y815056D01*
X634335Y815071D01*
X634336Y815084D01*
X634335Y815088D01*
X634336Y815095D01*
X634314Y815197D01*
X634298Y815299D01*
X634288Y815316D01*
X634284Y815336D01*
X634231Y815425D01*
X634182Y815516D01*
X634168Y815530D01*
X634158Y815547D01*
X634079Y815614D01*
X634004Y815686D01*
X633986Y815694D01*
X633971Y815707D01*
X633875Y815746D01*
X633781Y815789D01*
X633761Y815791D01*
X633743Y815799D01*
X633576Y815817D01*
X632968Y815817D01*
X631777Y817008D01*
X631777Y822487D01*
X631763Y822577D01*
X631755Y822668D01*
X631743Y822698D01*
X631738Y822730D01*
X631695Y822810D01*
X631659Y822894D01*
X631633Y822926D01*
X631622Y822947D01*
X631599Y822969D01*
X631554Y823025D01*
X623165Y831414D01*
X623165Y866086D01*
X623162Y866106D01*
X623164Y866125D01*
X623142Y866227D01*
X623126Y866329D01*
X623116Y866346D01*
X623112Y866366D01*
X623059Y866455D01*
X623010Y866546D01*
X622996Y866560D01*
X622986Y866577D01*
X622907Y866644D01*
X622832Y866716D01*
X622814Y866724D01*
X622799Y866737D01*
X622703Y866776D01*
X622609Y866819D01*
X622589Y866821D01*
X622571Y866829D01*
X622404Y866847D01*
X613638Y866847D01*
X612447Y868038D01*
X612447Y894722D01*
X613638Y895913D01*
X640822Y895913D01*
X642013Y894722D01*
X642013Y868038D01*
X640822Y866847D01*
X632056Y866847D01*
X632036Y866844D01*
X632017Y866846D01*
X631915Y866824D01*
X631813Y866808D01*
X631796Y866798D01*
X631776Y866794D01*
X631687Y866741D01*
X631596Y866692D01*
X631582Y866678D01*
X631565Y866668D01*
X631498Y866589D01*
X631426Y866514D01*
X631418Y866496D01*
X631405Y866481D01*
X631366Y866385D01*
X631323Y866291D01*
X631321Y866271D01*
X631313Y866253D01*
X631295Y866086D01*
X631295Y848650D01*
X631310Y848556D01*
X631319Y848461D01*
X631330Y848435D01*
X631334Y848407D01*
X631379Y848323D01*
X631417Y848236D01*
X631436Y848215D01*
X631450Y848190D01*
X631519Y848124D01*
X631583Y848054D01*
X631607Y848040D01*
X631628Y848021D01*
X631714Y847980D01*
X631798Y847934D01*
X631825Y847929D01*
X631851Y847917D01*
X631946Y847906D01*
X632039Y847889D01*
X632067Y847893D01*
X632095Y847890D01*
X632189Y847910D01*
X632283Y847923D01*
X632315Y847938D01*
X632336Y847942D01*
X632364Y847959D01*
X632437Y847991D01*
X632829Y848218D01*
X633476Y848391D01*
X637287Y848391D01*
X637287Y841112D01*
X637290Y841092D01*
X637288Y841073D01*
X637310Y840971D01*
X637327Y840869D01*
X637336Y840852D01*
X637340Y840832D01*
X637393Y840743D01*
X637442Y840652D01*
X637456Y840638D01*
X637466Y840621D01*
X637545Y840554D01*
X637620Y840483D01*
X637638Y840474D01*
X637653Y840461D01*
X637749Y840422D01*
X637843Y840379D01*
X637863Y840377D01*
X637881Y840369D01*
X638048Y840351D01*
X638811Y840351D01*
X638811Y839588D01*
X638814Y839568D01*
X638812Y839549D01*
X638834Y839447D01*
X638851Y839345D01*
X638860Y839328D01*
X638864Y839308D01*
X638917Y839219D01*
X638966Y839128D01*
X638980Y839114D01*
X638990Y839097D01*
X639069Y839030D01*
X639144Y838959D01*
X639162Y838950D01*
X639177Y838937D01*
X639273Y838898D01*
X639367Y838855D01*
X639387Y838853D01*
X639405Y838845D01*
X639572Y838827D01*
X646351Y838827D01*
X646351Y834516D01*
X646178Y833869D01*
X645843Y833290D01*
X645370Y832817D01*
X644791Y832482D01*
X644406Y832379D01*
X644384Y832369D01*
X644360Y832365D01*
X644272Y832319D01*
X644182Y832278D01*
X644164Y832262D01*
X644143Y832250D01*
X644074Y832179D01*
X644001Y832111D01*
X643990Y832090D01*
X643973Y832072D01*
X643931Y831982D01*
X643884Y831895D01*
X643880Y831871D01*
X643870Y831849D01*
X643859Y831750D01*
X643842Y831652D01*
X643845Y831628D01*
X643843Y831605D01*
X643864Y831508D01*
X643879Y831409D01*
X643890Y831388D01*
X643895Y831364D01*
X643946Y831279D01*
X643991Y831190D01*
X644009Y831174D01*
X644021Y831153D01*
X644097Y831088D01*
X644168Y831019D01*
X644190Y831009D01*
X644208Y830993D01*
X644300Y830956D01*
X644390Y830913D01*
X644414Y830910D01*
X644436Y830901D01*
X644603Y830883D01*
X644652Y830883D01*
X645843Y829692D01*
X645843Y822381D01*
X645857Y822291D01*
X645865Y822200D01*
X645877Y822170D01*
X645882Y822138D01*
X645925Y822058D01*
X645961Y821974D01*
X645987Y821942D01*
X645998Y821921D01*
X646021Y821899D01*
X646066Y821843D01*
X654596Y813312D01*
X654670Y813259D01*
X654740Y813199D01*
X654770Y813187D01*
X654796Y813168D01*
X654883Y813142D01*
X654968Y813108D01*
X655009Y813103D01*
X655031Y813096D01*
X655063Y813097D01*
X655135Y813089D01*
X680419Y813089D01*
X680457Y813095D01*
X680495Y813093D01*
X680577Y813115D01*
X680661Y813129D01*
X680695Y813147D01*
X680733Y813157D01*
X680804Y813204D01*
X680879Y813244D01*
X680905Y813272D01*
X680938Y813293D01*
X680990Y813361D01*
X681048Y813422D01*
X681064Y813457D01*
X681088Y813488D01*
X681116Y813568D01*
X681152Y813645D01*
X681156Y813684D01*
X681169Y813720D01*
X681169Y813805D01*
X681179Y813890D01*
X681171Y813928D01*
X681171Y813966D01*
X681145Y814047D01*
X681127Y814130D01*
X681107Y814163D01*
X681095Y814200D01*
X681002Y814340D01*
X673381Y823422D01*
X673527Y825100D01*
X682478Y832610D01*
X684155Y832463D01*
X692309Y822747D01*
X692162Y821069D01*
X688064Y817631D01*
X687994Y817549D01*
X687920Y817470D01*
X687914Y817456D01*
X687903Y817444D01*
X687863Y817344D01*
X687818Y817246D01*
X687817Y817231D01*
X687811Y817216D01*
X687804Y817108D01*
X687793Y817002D01*
X687797Y816983D01*
X687796Y816971D01*
X687804Y816942D01*
X687822Y816836D01*
X688745Y813639D01*
X688760Y813606D01*
X688768Y813570D01*
X688813Y813496D01*
X688850Y813417D01*
X688876Y813391D01*
X688894Y813359D01*
X688961Y813303D01*
X689021Y813240D01*
X689054Y813223D01*
X689081Y813199D01*
X689162Y813167D01*
X689240Y813127D01*
X689276Y813121D01*
X689309Y813108D01*
X689476Y813089D01*
X692555Y813089D01*
X695159Y810485D01*
X719011Y786633D01*
X721615Y784029D01*
X721615Y740928D01*
X711679Y730993D01*
X711626Y730919D01*
X711567Y730850D01*
X711555Y730819D01*
X711536Y730793D01*
X711509Y730706D01*
X711475Y730621D01*
X711470Y730580D01*
X711463Y730558D01*
X711464Y730526D01*
X711456Y730455D01*
X711456Y701706D01*
X711471Y701615D01*
X711478Y701525D01*
X711491Y701495D01*
X711496Y701463D01*
X711539Y701382D01*
X711575Y701298D01*
X711600Y701266D01*
X711611Y701245D01*
X711635Y701223D01*
X711679Y701167D01*
X712321Y700525D01*
X713206Y698388D01*
X713206Y696075D01*
X712321Y693938D01*
X710685Y692302D01*
X708548Y691417D01*
X706235Y691417D01*
X704098Y692302D01*
X702462Y693938D01*
X701577Y696075D01*
X701577Y698388D01*
X702462Y700525D01*
X703104Y701167D01*
X703157Y701241D01*
X703216Y701311D01*
X703229Y701341D01*
X703247Y701367D01*
X703274Y701454D01*
X703308Y701539D01*
X703313Y701580D01*
X703320Y701602D01*
X703319Y701634D01*
X703327Y701706D01*
X703327Y734137D01*
X713262Y744073D01*
X713315Y744147D01*
X713375Y744216D01*
X713387Y744246D01*
X713406Y744272D01*
X713433Y744359D01*
X713467Y744444D01*
X713471Y744485D01*
X713478Y744508D01*
X713477Y744540D01*
X713485Y744611D01*
X713485Y780346D01*
X713471Y780436D01*
X713463Y780527D01*
X713451Y780557D01*
X713446Y780589D01*
X713403Y780670D01*
X713367Y780754D01*
X713341Y780786D01*
X713330Y780806D01*
X713307Y780829D01*
X713262Y780885D01*
X711923Y782224D01*
X711892Y782246D01*
X711866Y782275D01*
X711792Y782318D01*
X711723Y782367D01*
X711686Y782379D01*
X711653Y782398D01*
X711569Y782415D01*
X711488Y782440D01*
X711450Y782439D01*
X711412Y782446D01*
X711327Y782436D01*
X711242Y782433D01*
X711206Y782420D01*
X711168Y782415D01*
X711091Y782378D01*
X711011Y782349D01*
X710981Y782325D01*
X710946Y782308D01*
X710886Y782248D01*
X710819Y782195D01*
X710798Y782163D01*
X710771Y782136D01*
X710732Y782060D01*
X710686Y781988D01*
X710677Y781951D01*
X710659Y781916D01*
X710626Y781752D01*
X710593Y781370D01*
X691684Y765503D01*
X690006Y765650D01*
X686987Y769249D01*
X686965Y769268D01*
X686948Y769292D01*
X686872Y769348D01*
X686800Y769410D01*
X686773Y769420D01*
X686750Y769438D01*
X686660Y769466D01*
X686572Y769502D01*
X686543Y769504D01*
X686516Y769513D01*
X686421Y769511D01*
X686327Y769517D01*
X686299Y769510D01*
X686270Y769509D01*
X686181Y769478D01*
X686089Y769453D01*
X686065Y769437D01*
X686038Y769428D01*
X685901Y769331D01*
X674998Y759741D01*
X674986Y759727D01*
X674962Y759708D01*
X674121Y758867D01*
X674087Y758862D01*
X674028Y758830D01*
X674009Y758823D01*
X672819Y758900D01*
X672801Y758898D01*
X672770Y758901D01*
X647188Y758901D01*
X647168Y758898D01*
X647149Y758900D01*
X647047Y758878D01*
X646945Y758862D01*
X646928Y758852D01*
X646908Y758848D01*
X646819Y758795D01*
X646728Y758746D01*
X646714Y758732D01*
X646697Y758722D01*
X646630Y758643D01*
X646558Y758568D01*
X646550Y758550D01*
X646537Y758535D01*
X646498Y758439D01*
X646455Y758345D01*
X646453Y758325D01*
X646445Y758307D01*
X646427Y758140D01*
X646427Y756358D01*
X645236Y755167D01*
X641350Y755167D01*
X641330Y755164D01*
X641311Y755166D01*
X641209Y755144D01*
X641107Y755128D01*
X641090Y755118D01*
X641070Y755114D01*
X640981Y755061D01*
X640890Y755012D01*
X640876Y754998D01*
X640859Y754988D01*
X640792Y754909D01*
X640720Y754834D01*
X640712Y754816D01*
X640699Y754801D01*
X640660Y754705D01*
X640617Y754611D01*
X640615Y754591D01*
X640607Y754573D01*
X640589Y754406D01*
X640589Y751624D01*
X640592Y751604D01*
X640590Y751585D01*
X640612Y751483D01*
X640628Y751381D01*
X640638Y751364D01*
X640642Y751344D01*
X640695Y751255D01*
X640744Y751164D01*
X640758Y751150D01*
X640768Y751133D01*
X640847Y751066D01*
X640922Y750994D01*
X640940Y750986D01*
X640955Y750973D01*
X641051Y750934D01*
X641145Y750891D01*
X641165Y750889D01*
X641183Y750881D01*
X641350Y750863D01*
X643882Y750863D01*
X645073Y749672D01*
X645073Y737988D01*
X643882Y736797D01*
X631198Y736797D01*
X630007Y737988D01*
X630007Y749672D01*
X631198Y750863D01*
X633730Y750863D01*
X633750Y750866D01*
X633769Y750864D01*
X633871Y750886D01*
X633973Y750902D01*
X633990Y750912D01*
X634010Y750916D01*
X634099Y750969D01*
X634190Y751018D01*
X634204Y751032D01*
X634221Y751042D01*
X634288Y751121D01*
X634360Y751196D01*
X634368Y751214D01*
X634381Y751229D01*
X634420Y751325D01*
X634463Y751419D01*
X634465Y751439D01*
X634473Y751457D01*
X634491Y751624D01*
X634491Y754406D01*
X634488Y754426D01*
X634490Y754445D01*
X634468Y754547D01*
X634452Y754649D01*
X634442Y754666D01*
X634438Y754686D01*
X634385Y754775D01*
X634336Y754866D01*
X634322Y754880D01*
X634312Y754897D01*
X634233Y754964D01*
X634158Y755036D01*
X634140Y755044D01*
X634125Y755057D01*
X634029Y755096D01*
X633935Y755139D01*
X633915Y755141D01*
X633897Y755149D01*
X633730Y755167D01*
X620552Y755167D01*
X619361Y756358D01*
X619361Y767574D01*
X619347Y767664D01*
X619339Y767755D01*
X619327Y767785D01*
X619322Y767817D01*
X619279Y767898D01*
X619243Y767982D01*
X619217Y768014D01*
X619206Y768034D01*
X619183Y768057D01*
X619138Y768113D01*
X618557Y768694D01*
X618483Y768747D01*
X618413Y768807D01*
X618383Y768819D01*
X618357Y768838D01*
X618270Y768865D01*
X618185Y768899D01*
X618144Y768903D01*
X618122Y768910D01*
X618090Y768909D01*
X618018Y768917D01*
X613488Y768917D01*
X613398Y768903D01*
X613307Y768895D01*
X613277Y768883D01*
X613245Y768878D01*
X613165Y768835D01*
X613081Y768799D01*
X613049Y768773D01*
X613028Y768762D01*
X613006Y768739D01*
X612950Y768694D01*
X611932Y767676D01*
X611879Y767602D01*
X611819Y767533D01*
X611807Y767503D01*
X611788Y767476D01*
X611761Y767389D01*
X611727Y767305D01*
X611723Y767264D01*
X611716Y767241D01*
X611717Y767209D01*
X611709Y767138D01*
X611709Y756807D01*
X599327Y744425D01*
X599315Y744408D01*
X599299Y744396D01*
X599243Y744309D01*
X599183Y744225D01*
X599177Y744206D01*
X599166Y744189D01*
X599141Y744089D01*
X599111Y743990D01*
X599111Y743970D01*
X599106Y743951D01*
X599114Y743848D01*
X599117Y743744D01*
X599124Y743725D01*
X599126Y743705D01*
X599166Y743610D01*
X599202Y743513D01*
X599214Y743497D01*
X599222Y743479D01*
X599327Y743348D01*
X599733Y742942D01*
X599733Y730258D01*
X598542Y729067D01*
X591532Y729067D01*
X591461Y729056D01*
X591390Y729054D01*
X591341Y729036D01*
X591289Y729028D01*
X591226Y728994D01*
X591159Y728969D01*
X591118Y728937D01*
X591072Y728912D01*
X591023Y728860D01*
X590967Y728816D01*
X590938Y728772D01*
X590903Y728734D01*
X590872Y728669D01*
X590834Y728609D01*
X590821Y728558D01*
X590799Y728511D01*
X590791Y728440D01*
X590774Y728370D01*
X590778Y728318D01*
X590772Y728267D01*
X590787Y728196D01*
X590793Y728125D01*
X590813Y728077D01*
X590824Y728026D01*
X590861Y727965D01*
X590889Y727899D01*
X590934Y727843D01*
X590950Y727815D01*
X590968Y727800D01*
X590994Y727768D01*
X623340Y695422D01*
X623414Y695369D01*
X623483Y695309D01*
X623513Y695297D01*
X623540Y695278D01*
X623627Y695251D01*
X623711Y695217D01*
X623752Y695213D01*
X623775Y695206D01*
X623807Y695207D01*
X623878Y695199D01*
X624833Y695199D01*
X634770Y685262D01*
X634844Y685209D01*
X634913Y685149D01*
X634943Y685137D01*
X634970Y685118D01*
X635057Y685091D01*
X635141Y685057D01*
X635182Y685053D01*
X635205Y685046D01*
X635237Y685047D01*
X635308Y685039D01*
X715972Y685039D01*
X716062Y685053D01*
G37*
G36*
X312000Y787828D02*
X312000Y787828D01*
X312091Y787835D01*
X312120Y787848D01*
X312152Y787853D01*
X312233Y787896D01*
X312317Y787932D01*
X312349Y787957D01*
X312370Y787968D01*
X312392Y787992D01*
X312448Y788037D01*
X345544Y821132D01*
X345597Y821206D01*
X345656Y821276D01*
X345669Y821306D01*
X345687Y821332D01*
X345714Y821419D01*
X345748Y821504D01*
X345753Y821545D01*
X345760Y821567D01*
X345759Y821599D01*
X345767Y821671D01*
X345767Y837557D01*
X354337Y846127D01*
X366312Y846127D01*
X366402Y846142D01*
X366493Y846149D01*
X366523Y846162D01*
X366555Y846167D01*
X366635Y846210D01*
X366719Y846246D01*
X366751Y846271D01*
X366772Y846282D01*
X366794Y846306D01*
X366850Y846350D01*
X368508Y848008D01*
X370645Y848893D01*
X372958Y848893D01*
X375096Y848008D01*
X376731Y846373D01*
X377616Y844235D01*
X377616Y841922D01*
X376731Y839785D01*
X376160Y839214D01*
X376118Y839155D01*
X376069Y839103D01*
X376047Y839056D01*
X376016Y839014D01*
X375995Y838945D01*
X375965Y838880D01*
X375959Y838828D01*
X375944Y838779D01*
X375946Y838707D01*
X375938Y838636D01*
X375949Y838585D01*
X375950Y838533D01*
X375975Y838465D01*
X375990Y838395D01*
X376017Y838351D01*
X376035Y838302D01*
X376080Y838246D01*
X376116Y838184D01*
X376156Y838150D01*
X376188Y838110D01*
X376249Y838071D01*
X376303Y838024D01*
X376352Y838005D01*
X376395Y837977D01*
X376465Y837959D01*
X376531Y837932D01*
X376603Y837925D01*
X376634Y837917D01*
X376657Y837919D01*
X376698Y837914D01*
X430295Y837914D01*
X430385Y837929D01*
X430476Y837936D01*
X430506Y837948D01*
X430538Y837954D01*
X430619Y837996D01*
X430702Y838032D01*
X430735Y838058D01*
X430755Y838069D01*
X430777Y838092D01*
X430833Y838137D01*
X450516Y857820D01*
X450569Y857894D01*
X450629Y857963D01*
X450641Y857993D01*
X450660Y858020D01*
X450687Y858107D01*
X450721Y858191D01*
X450725Y858232D01*
X450732Y858255D01*
X450731Y858287D01*
X450739Y858358D01*
X450739Y860703D01*
X451293Y862039D01*
X451303Y862083D01*
X451323Y862125D01*
X451331Y862202D01*
X451349Y862278D01*
X451345Y862324D01*
X451350Y862369D01*
X451333Y862446D01*
X451326Y862523D01*
X451307Y862565D01*
X451297Y862610D01*
X451257Y862677D01*
X451226Y862748D01*
X451195Y862782D01*
X451171Y862821D01*
X451112Y862872D01*
X451059Y862929D01*
X451019Y862951D01*
X450984Y862981D01*
X450912Y863010D01*
X450844Y863047D01*
X450799Y863056D01*
X450756Y863073D01*
X450620Y863088D01*
X450602Y863091D01*
X450597Y863090D01*
X450589Y863091D01*
X414886Y863091D01*
X388224Y889753D01*
X388150Y889806D01*
X388081Y889865D01*
X388051Y889877D01*
X388025Y889896D01*
X387938Y889923D01*
X387853Y889957D01*
X387812Y889962D01*
X387790Y889969D01*
X387757Y889968D01*
X387686Y889976D01*
X385684Y889976D01*
X385594Y889961D01*
X385503Y889954D01*
X385473Y889941D01*
X385441Y889936D01*
X385361Y889893D01*
X385277Y889857D01*
X385245Y889832D01*
X385224Y889821D01*
X385202Y889797D01*
X385146Y889753D01*
X383488Y888095D01*
X381351Y887210D01*
X379038Y887210D01*
X376900Y888095D01*
X375265Y889730D01*
X374379Y891868D01*
X374379Y894212D01*
X374375Y894240D01*
X374376Y894254D01*
X374364Y894310D01*
X374358Y894393D01*
X374345Y894423D01*
X374340Y894455D01*
X374328Y894478D01*
X374324Y894494D01*
X374291Y894549D01*
X374261Y894619D01*
X374236Y894652D01*
X374225Y894672D01*
X374208Y894688D01*
X374198Y894705D01*
X374181Y894719D01*
X374156Y894750D01*
X370275Y898632D01*
X370275Y902826D01*
X370261Y902911D01*
X370256Y902996D01*
X370241Y903031D01*
X370235Y903069D01*
X370195Y903145D01*
X370163Y903224D01*
X370138Y903253D01*
X370120Y903287D01*
X370058Y903345D01*
X370003Y903410D01*
X369970Y903429D01*
X369942Y903456D01*
X369864Y903492D01*
X369791Y903535D01*
X369753Y903543D01*
X369719Y903560D01*
X369634Y903569D01*
X369550Y903587D01*
X369512Y903582D01*
X369474Y903587D01*
X369391Y903569D01*
X369306Y903559D01*
X369260Y903540D01*
X369234Y903534D01*
X369208Y903519D01*
X369151Y903496D01*
X352491Y894464D01*
X352445Y894428D01*
X352394Y894401D01*
X352349Y894353D01*
X352297Y894313D01*
X352265Y894265D01*
X352225Y894222D01*
X352197Y894163D01*
X352161Y894108D01*
X352146Y894052D01*
X352121Y893999D01*
X352114Y893934D01*
X352097Y893871D01*
X352100Y893813D01*
X352094Y893755D01*
X352108Y893691D01*
X352112Y893625D01*
X352134Y893571D01*
X352146Y893515D01*
X352180Y893458D01*
X352205Y893397D01*
X352243Y893353D01*
X352272Y893303D01*
X352322Y893261D01*
X352365Y893211D01*
X352415Y893181D01*
X352459Y893144D01*
X352520Y893119D01*
X352577Y893085D01*
X352633Y893073D01*
X352688Y893052D01*
X352786Y893041D01*
X352817Y893034D01*
X352831Y893036D01*
X352854Y893033D01*
X363932Y893033D01*
X365584Y891381D01*
X365658Y891328D01*
X365727Y891269D01*
X365757Y891257D01*
X365783Y891238D01*
X365870Y891211D01*
X365955Y891177D01*
X365996Y891172D01*
X366018Y891165D01*
X366051Y891166D01*
X366122Y891158D01*
X368466Y891158D01*
X370604Y890273D01*
X372239Y888637D01*
X373125Y886500D01*
X373125Y884187D01*
X372239Y882050D01*
X370604Y880414D01*
X368466Y879529D01*
X366153Y879529D01*
X364016Y880414D01*
X362380Y882050D01*
X361495Y884187D01*
X361495Y886174D01*
X361492Y886194D01*
X361494Y886214D01*
X361472Y886315D01*
X361455Y886417D01*
X361446Y886435D01*
X361442Y886454D01*
X361389Y886543D01*
X361340Y886635D01*
X361326Y886648D01*
X361316Y886665D01*
X361237Y886733D01*
X361162Y886804D01*
X361144Y886812D01*
X361129Y886825D01*
X361032Y886864D01*
X360939Y886908D01*
X360919Y886910D01*
X360901Y886917D01*
X360734Y886936D01*
X347326Y886936D01*
X347223Y886919D01*
X347119Y886907D01*
X347098Y886898D01*
X347084Y886896D01*
X347056Y886881D01*
X346963Y886844D01*
X329400Y877321D01*
X329336Y877286D01*
X329273Y877238D01*
X329206Y877197D01*
X329177Y877163D01*
X329141Y877136D01*
X329137Y877129D01*
X327980Y876551D01*
X327972Y876545D01*
X327958Y876539D01*
X327369Y876220D01*
X327285Y876155D01*
X327197Y876093D01*
X327185Y876077D01*
X327175Y876070D01*
X327158Y876044D01*
X327092Y875963D01*
X326764Y875453D01*
X326592Y875186D01*
X325973Y875051D01*
X325963Y875047D01*
X325953Y875046D01*
X325850Y875002D01*
X325744Y874960D01*
X325736Y874954D01*
X325727Y874950D01*
X325596Y874845D01*
X317767Y867016D01*
X312008Y867016D01*
X312002Y867015D01*
X311997Y867016D01*
X311880Y866995D01*
X311765Y866976D01*
X311760Y866973D01*
X311754Y866972D01*
X311603Y866900D01*
X311153Y866617D01*
X311024Y866537D01*
X309023Y866996D01*
X309021Y866997D01*
X309019Y866997D01*
X308852Y867016D01*
X300754Y867016D01*
X300470Y867300D01*
X300412Y867342D01*
X300360Y867391D01*
X300313Y867413D01*
X300270Y867444D01*
X300202Y867465D01*
X300137Y867495D01*
X300066Y867506D01*
X300035Y867516D01*
X300012Y867515D01*
X299972Y867522D01*
X278761Y868642D01*
X278745Y868640D01*
X278721Y868643D01*
X265723Y868643D01*
X265633Y868628D01*
X265542Y868621D01*
X265512Y868609D01*
X265480Y868603D01*
X265400Y868561D01*
X265316Y868525D01*
X265284Y868499D01*
X265263Y868488D01*
X265241Y868465D01*
X265185Y868420D01*
X263742Y866977D01*
X263723Y866950D01*
X263666Y866888D01*
X263093Y866106D01*
X263076Y866103D01*
X263044Y866093D01*
X263011Y866090D01*
X262928Y866055D01*
X262842Y866027D01*
X262816Y866007D01*
X262785Y865994D01*
X262654Y865889D01*
X262642Y865877D01*
X261672Y865877D01*
X261639Y865872D01*
X261556Y865868D01*
X251633Y864333D01*
X251601Y864323D01*
X251568Y864321D01*
X251485Y864285D01*
X251399Y864257D01*
X251372Y864237D01*
X251342Y864224D01*
X251211Y864119D01*
X246015Y858923D01*
X245995Y858896D01*
X245969Y858873D01*
X245876Y858734D01*
X232129Y832047D01*
X232120Y832021D01*
X232097Y831977D01*
X220468Y802376D01*
X220460Y802339D01*
X220446Y802308D01*
X220443Y802288D01*
X220434Y802264D01*
X220423Y802166D01*
X220416Y802135D01*
X220418Y802121D01*
X220415Y802097D01*
X220415Y793876D01*
X220430Y793786D01*
X220437Y793695D01*
X220450Y793666D01*
X220455Y793634D01*
X220498Y793553D01*
X220533Y793469D01*
X220559Y793437D01*
X220570Y793416D01*
X220593Y793394D01*
X220638Y793338D01*
X222296Y791680D01*
X222440Y791333D01*
X222481Y791267D01*
X222514Y791196D01*
X222545Y791163D01*
X222569Y791124D01*
X222630Y791074D01*
X222684Y791018D01*
X222724Y790996D01*
X222759Y790968D01*
X222832Y790939D01*
X222901Y790903D01*
X222960Y790890D01*
X222988Y790879D01*
X223015Y790878D01*
X223065Y790867D01*
X252847Y787818D01*
X252874Y787819D01*
X252925Y787814D01*
X311910Y787814D01*
X312000Y787828D01*
G37*
%LPC*%
G36*
X474436Y424287D02*
X474436Y424287D01*
X457283Y444728D01*
X457430Y446405D01*
X489362Y473199D01*
X491040Y473052D01*
X494554Y468864D01*
X494569Y468851D01*
X494580Y468834D01*
X494662Y468771D01*
X494741Y468703D01*
X494759Y468696D01*
X494775Y468684D01*
X494873Y468650D01*
X494969Y468611D01*
X494989Y468609D01*
X495007Y468603D01*
X495111Y468602D01*
X495214Y468596D01*
X495233Y468601D01*
X495253Y468601D01*
X495352Y468633D01*
X495452Y468660D01*
X495468Y468671D01*
X495487Y468677D01*
X495627Y468770D01*
X558835Y521808D01*
X558848Y521823D01*
X558864Y521834D01*
X558928Y521916D01*
X558995Y521994D01*
X559003Y522012D01*
X559015Y522028D01*
X559049Y522126D01*
X559088Y522222D01*
X559089Y522242D01*
X559095Y522261D01*
X559096Y522364D01*
X559103Y522467D01*
X559098Y522487D01*
X559098Y522507D01*
X559066Y522605D01*
X559039Y522705D01*
X559028Y522721D01*
X559022Y522740D01*
X558929Y522880D01*
X545772Y538559D01*
X545919Y540237D01*
X548231Y542177D01*
X548239Y542187D01*
X548250Y542194D01*
X548319Y542280D01*
X548391Y542364D01*
X548396Y542375D01*
X548404Y542385D01*
X548442Y542489D01*
X548484Y542591D01*
X548485Y542604D01*
X548489Y542616D01*
X548492Y542726D01*
X548499Y542837D01*
X548496Y542849D01*
X548496Y542862D01*
X548464Y542968D01*
X548435Y543074D01*
X548428Y543085D01*
X548424Y543097D01*
X548360Y543187D01*
X548299Y543279D01*
X548288Y543287D01*
X548281Y543297D01*
X548150Y543402D01*
X430616Y618207D01*
X430591Y618217D01*
X430570Y618234D01*
X430479Y618265D01*
X430390Y618303D01*
X430363Y618306D01*
X430338Y618315D01*
X430241Y618315D01*
X430145Y618323D01*
X430119Y618317D01*
X430092Y618317D01*
X430000Y618287D01*
X429906Y618264D01*
X429884Y618249D01*
X429858Y618241D01*
X429718Y618148D01*
X412750Y603909D01*
X411072Y604056D01*
X374636Y647478D01*
X374783Y649156D01*
X406715Y675950D01*
X408392Y675803D01*
X421549Y660124D01*
X421564Y660111D01*
X421575Y660094D01*
X421657Y660031D01*
X421735Y659963D01*
X421754Y659956D01*
X421770Y659944D01*
X421867Y659910D01*
X421963Y659871D01*
X421983Y659869D01*
X422002Y659863D01*
X422105Y659862D01*
X422209Y659856D01*
X422228Y659861D01*
X422248Y659861D01*
X422346Y659893D01*
X422446Y659920D01*
X422463Y659931D01*
X422482Y659937D01*
X422621Y660030D01*
X485829Y713068D01*
X485842Y713083D01*
X485859Y713094D01*
X485922Y713176D01*
X485990Y713254D01*
X485997Y713272D01*
X486009Y713288D01*
X486043Y713386D01*
X486082Y713482D01*
X486084Y713502D01*
X486090Y713521D01*
X486091Y713624D01*
X486097Y713727D01*
X486092Y713747D01*
X486092Y713767D01*
X486060Y713865D01*
X486033Y713965D01*
X486022Y713981D01*
X486016Y714000D01*
X485923Y714140D01*
X482408Y718329D01*
X482555Y720006D01*
X514487Y746800D01*
X516164Y746653D01*
X533317Y726212D01*
X533170Y724535D01*
X501238Y697741D01*
X499560Y697888D01*
X496046Y702076D01*
X496031Y702089D01*
X496020Y702106D01*
X495938Y702169D01*
X495859Y702237D01*
X495841Y702244D01*
X495825Y702256D01*
X495727Y702290D01*
X495631Y702329D01*
X495611Y702331D01*
X495593Y702337D01*
X495489Y702338D01*
X495386Y702344D01*
X495367Y702339D01*
X495347Y702339D01*
X495248Y702307D01*
X495148Y702280D01*
X495132Y702269D01*
X495113Y702263D01*
X494973Y702170D01*
X431765Y649132D01*
X431752Y649117D01*
X431736Y649106D01*
X431672Y649024D01*
X431605Y648946D01*
X431597Y648928D01*
X431585Y648912D01*
X431551Y648814D01*
X431512Y648718D01*
X431511Y648698D01*
X431505Y648679D01*
X431504Y648576D01*
X431497Y648473D01*
X431502Y648453D01*
X431502Y648433D01*
X431534Y648335D01*
X431561Y648235D01*
X431572Y648219D01*
X431578Y648200D01*
X431671Y648060D01*
X444828Y632381D01*
X444681Y630703D01*
X442369Y628763D01*
X442361Y628753D01*
X442350Y628746D01*
X442281Y628660D01*
X442209Y628576D01*
X442204Y628565D01*
X442196Y628555D01*
X442158Y628451D01*
X442116Y628349D01*
X442115Y628336D01*
X442111Y628324D01*
X442108Y628213D01*
X442101Y628103D01*
X442104Y628091D01*
X442104Y628078D01*
X442136Y627972D01*
X442165Y627866D01*
X442172Y627855D01*
X442176Y627843D01*
X442240Y627753D01*
X442301Y627661D01*
X442312Y627653D01*
X442319Y627643D01*
X442450Y627538D01*
X559984Y552733D01*
X560009Y552723D01*
X560030Y552706D01*
X560121Y552675D01*
X560210Y552636D01*
X560237Y552634D01*
X560262Y552625D01*
X560359Y552625D01*
X560455Y552617D01*
X560481Y552623D01*
X560508Y552623D01*
X560600Y552653D01*
X560694Y552676D01*
X560716Y552691D01*
X560742Y552699D01*
X560882Y552792D01*
X577851Y567031D01*
X579528Y566884D01*
X615964Y523462D01*
X615817Y521784D01*
X583885Y494990D01*
X582208Y495137D01*
X569051Y510816D01*
X569036Y510829D01*
X569025Y510846D01*
X568943Y510909D01*
X568865Y510977D01*
X568846Y510984D01*
X568830Y510996D01*
X568733Y511030D01*
X568637Y511069D01*
X568617Y511071D01*
X568598Y511077D01*
X568495Y511078D01*
X568391Y511084D01*
X568372Y511079D01*
X568352Y511079D01*
X568254Y511047D01*
X568154Y511020D01*
X568137Y511009D01*
X568118Y511003D01*
X567979Y510910D01*
X504771Y457872D01*
X504758Y457857D01*
X504741Y457846D01*
X504678Y457764D01*
X504610Y457686D01*
X504603Y457668D01*
X504591Y457652D01*
X504557Y457554D01*
X504518Y457458D01*
X504517Y457438D01*
X504510Y457419D01*
X504509Y457316D01*
X504503Y457213D01*
X504508Y457193D01*
X504508Y457173D01*
X504540Y457075D01*
X504567Y456975D01*
X504578Y456959D01*
X504584Y456940D01*
X504677Y456800D01*
X508192Y452611D01*
X508045Y450934D01*
X476113Y424140D01*
X474436Y424287D01*
G37*
%LPD*%
%LPC*%
G36*
X340225Y291525D02*
X340225Y291525D01*
X323073Y311966D01*
X323219Y313644D01*
X331199Y320339D01*
X331267Y320419D01*
X331339Y320494D01*
X331347Y320511D01*
X331359Y320526D01*
X331399Y320623D01*
X331443Y320717D01*
X331445Y320736D01*
X331452Y320754D01*
X331458Y320858D01*
X331470Y320962D01*
X331466Y320980D01*
X331467Y320999D01*
X331440Y321100D01*
X331417Y321202D01*
X331408Y321218D01*
X331403Y321237D01*
X331345Y321324D01*
X331291Y321413D01*
X331277Y321426D01*
X331266Y321441D01*
X331184Y321505D01*
X331104Y321573D01*
X331087Y321580D01*
X331072Y321592D01*
X330973Y321626D01*
X330876Y321665D01*
X330853Y321668D01*
X330840Y321672D01*
X330808Y321673D01*
X330709Y321684D01*
X294226Y321684D01*
X291622Y324288D01*
X195338Y420572D01*
X195249Y420636D01*
X195162Y420703D01*
X195149Y420708D01*
X195138Y420716D01*
X195034Y420748D01*
X194930Y420784D01*
X194916Y420784D01*
X194903Y420788D01*
X194794Y420785D01*
X194684Y420786D01*
X194671Y420782D01*
X194657Y420782D01*
X194554Y420744D01*
X194450Y420710D01*
X194436Y420701D01*
X194426Y420697D01*
X194404Y420679D01*
X194310Y420617D01*
X180025Y408630D01*
X178348Y408777D01*
X165191Y424456D01*
X165176Y424469D01*
X165165Y424486D01*
X165083Y424549D01*
X165005Y424617D01*
X164986Y424624D01*
X164970Y424636D01*
X164873Y424670D01*
X164777Y424709D01*
X164757Y424711D01*
X164738Y424717D01*
X164635Y424718D01*
X164531Y424724D01*
X164512Y424719D01*
X164492Y424719D01*
X164394Y424687D01*
X164294Y424660D01*
X164277Y424649D01*
X164258Y424643D01*
X164119Y424550D01*
X100911Y371512D01*
X100898Y371497D01*
X100881Y371486D01*
X100818Y371404D01*
X100750Y371326D01*
X100743Y371308D01*
X100731Y371292D01*
X100697Y371194D01*
X100658Y371098D01*
X100657Y371078D01*
X100650Y371059D01*
X100649Y370956D01*
X100643Y370853D01*
X100648Y370833D01*
X100648Y370813D01*
X100680Y370715D01*
X100707Y370615D01*
X100718Y370599D01*
X100724Y370580D01*
X100817Y370440D01*
X104332Y366251D01*
X104185Y364574D01*
X72253Y337780D01*
X70576Y337927D01*
X53423Y358368D01*
X53570Y360045D01*
X85502Y386839D01*
X87180Y386692D01*
X90694Y382504D01*
X90709Y382491D01*
X90720Y382474D01*
X90802Y382411D01*
X90881Y382343D01*
X90899Y382336D01*
X90915Y382324D01*
X91013Y382290D01*
X91109Y382251D01*
X91129Y382249D01*
X91147Y382243D01*
X91251Y382242D01*
X91354Y382236D01*
X91373Y382241D01*
X91393Y382241D01*
X91492Y382273D01*
X91592Y382300D01*
X91608Y382311D01*
X91627Y382317D01*
X91767Y382410D01*
X154975Y435448D01*
X154988Y435463D01*
X155004Y435474D01*
X155068Y435556D01*
X155135Y435634D01*
X155143Y435652D01*
X155155Y435668D01*
X155189Y435766D01*
X155228Y435862D01*
X155229Y435882D01*
X155235Y435901D01*
X155236Y436004D01*
X155243Y436107D01*
X155238Y436127D01*
X155238Y436147D01*
X155206Y436245D01*
X155179Y436345D01*
X155168Y436361D01*
X155162Y436380D01*
X155069Y436520D01*
X141912Y452199D01*
X142059Y453877D01*
X173991Y480671D01*
X175668Y480524D01*
X212104Y437102D01*
X211957Y435424D01*
X201732Y426845D01*
X201698Y426804D01*
X201656Y426771D01*
X201618Y426712D01*
X201572Y426658D01*
X201552Y426609D01*
X201523Y426564D01*
X201506Y426496D01*
X201479Y426430D01*
X201476Y426377D01*
X201463Y426326D01*
X201469Y426255D01*
X201464Y426185D01*
X201478Y426134D01*
X201482Y426081D01*
X201510Y426016D01*
X201528Y425947D01*
X201558Y425903D01*
X201579Y425854D01*
X201649Y425767D01*
X201665Y425743D01*
X201673Y425736D01*
X201684Y425723D01*
X297371Y330036D01*
X297445Y329983D01*
X297514Y329924D01*
X297544Y329911D01*
X297570Y329893D01*
X297657Y329866D01*
X297742Y329832D01*
X297783Y329827D01*
X297806Y329820D01*
X297838Y329821D01*
X297909Y329813D01*
X342212Y329813D01*
X342270Y329823D01*
X342328Y329822D01*
X342390Y329842D01*
X342455Y329853D01*
X342506Y329880D01*
X342562Y329898D01*
X342644Y329953D01*
X342672Y329968D01*
X342682Y329978D01*
X342702Y329991D01*
X343915Y331009D01*
X343928Y331024D01*
X343945Y331036D01*
X344008Y331117D01*
X344075Y331196D01*
X344083Y331214D01*
X344095Y331230D01*
X344129Y331328D01*
X344168Y331424D01*
X344169Y331444D01*
X344176Y331462D01*
X344177Y331566D01*
X344183Y331669D01*
X344178Y331688D01*
X344178Y331708D01*
X344146Y331807D01*
X344119Y331907D01*
X344108Y331923D01*
X344102Y331942D01*
X344009Y332082D01*
X328960Y350017D01*
X328945Y350030D01*
X328934Y350046D01*
X328852Y350110D01*
X328773Y350177D01*
X328755Y350185D01*
X328739Y350197D01*
X328641Y350231D01*
X328545Y350270D01*
X328525Y350271D01*
X328507Y350277D01*
X328403Y350278D01*
X328300Y350285D01*
X328281Y350279D01*
X328261Y350280D01*
X328162Y350248D01*
X328062Y350221D01*
X328046Y350210D01*
X328027Y350203D01*
X327887Y350110D01*
X326343Y348815D01*
X324665Y348961D01*
X307513Y369402D01*
X307660Y371080D01*
X318143Y379876D01*
X319820Y379729D01*
X336972Y359288D01*
X336825Y357610D01*
X335281Y356315D01*
X335268Y356299D01*
X335252Y356288D01*
X335188Y356206D01*
X335121Y356128D01*
X335113Y356110D01*
X335101Y356094D01*
X335067Y355996D01*
X335028Y355900D01*
X335027Y355880D01*
X335020Y355862D01*
X335019Y355758D01*
X335013Y355655D01*
X335018Y355635D01*
X335018Y355616D01*
X335050Y355517D01*
X335077Y355417D01*
X335088Y355401D01*
X335094Y355382D01*
X335187Y355242D01*
X350236Y337307D01*
X350251Y337294D01*
X350262Y337278D01*
X350344Y337214D01*
X350423Y337147D01*
X350441Y337139D01*
X350457Y337127D01*
X350555Y337093D01*
X350651Y337054D01*
X350671Y337053D01*
X350689Y337047D01*
X350793Y337046D01*
X350896Y337039D01*
X350915Y337044D01*
X350935Y337044D01*
X351034Y337076D01*
X351134Y337103D01*
X351150Y337114D01*
X351169Y337121D01*
X351309Y337214D01*
X352853Y338509D01*
X354531Y338363D01*
X371683Y317922D01*
X371536Y316244D01*
X361053Y307448D01*
X359376Y307595D01*
X347782Y321412D01*
X347781Y321412D01*
X347781Y321413D01*
X347687Y321494D01*
X347596Y321572D01*
X347595Y321573D01*
X347594Y321573D01*
X347479Y321620D01*
X347368Y321665D01*
X347367Y321665D01*
X347366Y321665D01*
X347199Y321684D01*
X337523Y321684D01*
X337485Y321677D01*
X337447Y321680D01*
X337364Y321658D01*
X337281Y321644D01*
X337246Y321626D01*
X337209Y321616D01*
X337138Y321569D01*
X337063Y321529D01*
X337037Y321501D01*
X337004Y321479D01*
X336952Y321412D01*
X336894Y321350D01*
X336877Y321315D01*
X336854Y321285D01*
X336826Y321205D01*
X336790Y321127D01*
X336786Y321089D01*
X336773Y321053D01*
X336772Y320967D01*
X336763Y320883D01*
X336771Y320845D01*
X336771Y320807D01*
X336797Y320726D01*
X336815Y320643D01*
X336835Y320609D01*
X336847Y320573D01*
X336940Y320433D01*
X352532Y301852D01*
X352385Y300174D01*
X341902Y291378D01*
X340225Y291525D01*
G37*
%LPD*%
%LPC*%
G36*
X378527Y323665D02*
X378527Y323665D01*
X361375Y344106D01*
X361522Y345783D01*
X363066Y347079D01*
X363079Y347094D01*
X363096Y347105D01*
X363159Y347187D01*
X363226Y347266D01*
X363234Y347284D01*
X363246Y347300D01*
X363280Y347397D01*
X363319Y347493D01*
X363320Y347513D01*
X363327Y347532D01*
X363328Y347636D01*
X363334Y347739D01*
X363329Y347758D01*
X363329Y347778D01*
X363297Y347877D01*
X363270Y347976D01*
X363259Y347993D01*
X363253Y348012D01*
X363160Y348152D01*
X348111Y366086D01*
X348096Y366099D01*
X348085Y366116D01*
X348003Y366179D01*
X347924Y366247D01*
X347906Y366254D01*
X347890Y366266D01*
X347793Y366300D01*
X347697Y366339D01*
X347677Y366341D01*
X347658Y366347D01*
X347554Y366348D01*
X347451Y366354D01*
X347432Y366349D01*
X347412Y366349D01*
X347313Y366317D01*
X347214Y366290D01*
X347197Y366279D01*
X347178Y366273D01*
X347038Y366180D01*
X345494Y364884D01*
X343816Y365031D01*
X326664Y385472D01*
X326811Y387150D01*
X337294Y395946D01*
X338971Y395799D01*
X356123Y375358D01*
X355977Y373680D01*
X354432Y372384D01*
X354419Y372369D01*
X354403Y372358D01*
X354339Y372276D01*
X354272Y372198D01*
X354264Y372179D01*
X354252Y372164D01*
X354218Y372066D01*
X354179Y371970D01*
X354178Y371950D01*
X354171Y371931D01*
X354171Y371828D01*
X354164Y371724D01*
X354169Y371705D01*
X354169Y371685D01*
X354201Y371587D01*
X354228Y371487D01*
X354239Y371470D01*
X354245Y371451D01*
X354338Y371312D01*
X369387Y353377D01*
X369402Y353364D01*
X369414Y353347D01*
X369495Y353284D01*
X369574Y353217D01*
X369592Y353209D01*
X369608Y353197D01*
X369706Y353163D01*
X369802Y353124D01*
X369822Y353123D01*
X369840Y353116D01*
X369944Y353115D01*
X370047Y353109D01*
X370067Y353114D01*
X370086Y353114D01*
X370185Y353146D01*
X370285Y353173D01*
X370301Y353184D01*
X370320Y353190D01*
X370460Y353283D01*
X372114Y354671D01*
X372190Y354759D01*
X372197Y354767D01*
X372248Y354821D01*
X372251Y354828D01*
X372267Y354846D01*
X372270Y354852D01*
X372274Y354858D01*
X372318Y354965D01*
X372364Y355072D01*
X372365Y355080D01*
X372367Y355086D01*
X372368Y355106D01*
X372386Y355238D01*
X373932Y427339D01*
X373924Y427395D01*
X373926Y427451D01*
X373907Y427516D01*
X373897Y427583D01*
X373872Y427633D01*
X373856Y427687D01*
X373801Y427775D01*
X373969Y429233D01*
X373968Y429259D01*
X373974Y429304D01*
X374005Y430774D01*
X374039Y430806D01*
X374072Y430866D01*
X374113Y430920D01*
X374130Y430973D01*
X374157Y431022D01*
X374180Y431124D01*
X375330Y432036D01*
X375347Y432055D01*
X375384Y432083D01*
X375949Y432624D01*
X376008Y432703D01*
X376073Y432779D01*
X376082Y432801D01*
X376096Y432820D01*
X376128Y432914D01*
X376165Y433007D01*
X376168Y433037D01*
X376174Y433054D01*
X376174Y433087D01*
X376183Y433173D01*
X376183Y436150D01*
X377374Y437341D01*
X387058Y437341D01*
X388249Y436150D01*
X388249Y428466D01*
X387058Y427275D01*
X382807Y427275D01*
X382795Y427273D01*
X382784Y427275D01*
X382674Y427254D01*
X382564Y427236D01*
X382554Y427230D01*
X382542Y427228D01*
X382445Y427173D01*
X382347Y427120D01*
X382339Y427112D01*
X382328Y427106D01*
X382254Y427023D01*
X382177Y426942D01*
X382172Y426931D01*
X382165Y426923D01*
X382121Y426820D01*
X382074Y426719D01*
X382072Y426707D01*
X382068Y426697D01*
X382046Y426530D01*
X380336Y346796D01*
X380345Y346730D01*
X380345Y346663D01*
X380363Y346609D01*
X380371Y346552D01*
X380401Y346493D01*
X380421Y346430D01*
X380466Y346362D01*
X380481Y346332D01*
X380495Y346318D01*
X380514Y346290D01*
X390834Y333991D01*
X390687Y332314D01*
X380205Y323518D01*
X378527Y323665D01*
G37*
%LPD*%
%LPC*%
G36*
X404175Y316765D02*
X404175Y316765D01*
X402038Y317651D01*
X400402Y319286D01*
X399517Y321423D01*
X399517Y323737D01*
X400402Y325874D01*
X401044Y326516D01*
X401097Y326590D01*
X401157Y326659D01*
X401169Y326689D01*
X401187Y326715D01*
X401214Y326802D01*
X401248Y326887D01*
X401253Y326928D01*
X401260Y326950D01*
X401259Y326983D01*
X401267Y327054D01*
X401267Y421464D01*
X401264Y421480D01*
X401266Y421496D01*
X401244Y421602D01*
X401227Y421707D01*
X401220Y421721D01*
X401216Y421737D01*
X401139Y421886D01*
X401015Y422073D01*
X401252Y423254D01*
X401253Y423276D01*
X401267Y423403D01*
X401267Y424607D01*
X401426Y424766D01*
X401435Y424779D01*
X401448Y424789D01*
X401481Y424839D01*
X401497Y424856D01*
X401508Y424881D01*
X401569Y424966D01*
X401574Y424981D01*
X401583Y424995D01*
X401634Y425154D01*
X402032Y427137D01*
X402033Y427181D01*
X402044Y427223D01*
X402038Y427303D01*
X402041Y427383D01*
X402028Y427425D01*
X402025Y427468D01*
X401994Y427542D01*
X401971Y427619D01*
X401946Y427655D01*
X401929Y427695D01*
X401837Y427809D01*
X401829Y427820D01*
X401827Y427822D01*
X401824Y427825D01*
X401183Y428466D01*
X401183Y436150D01*
X402374Y437341D01*
X412058Y437341D01*
X413249Y436150D01*
X413249Y428466D01*
X412058Y427275D01*
X410975Y427275D01*
X410908Y427264D01*
X410840Y427263D01*
X410787Y427245D01*
X410732Y427236D01*
X410672Y427204D01*
X410608Y427181D01*
X410564Y427147D01*
X410515Y427120D01*
X410468Y427071D01*
X410415Y427029D01*
X410384Y426983D01*
X410345Y426942D01*
X410317Y426880D01*
X410279Y426824D01*
X410256Y426749D01*
X410242Y426719D01*
X410239Y426698D01*
X410229Y426664D01*
X409411Y422594D01*
X409410Y422571D01*
X409396Y422444D01*
X409396Y327054D01*
X409398Y327046D01*
X409397Y327044D01*
X409400Y327031D01*
X409411Y326964D01*
X409418Y326873D01*
X409431Y326843D01*
X409436Y326811D01*
X409479Y326730D01*
X409515Y326647D01*
X409540Y326614D01*
X409551Y326594D01*
X409575Y326572D01*
X409619Y326516D01*
X410261Y325874D01*
X411146Y323737D01*
X411146Y321423D01*
X410261Y319286D01*
X408625Y317651D01*
X406488Y316765D01*
X404175Y316765D01*
G37*
%LPD*%
%LPC*%
G36*
X795449Y750281D02*
X795449Y750281D01*
X809859Y762373D01*
X810466Y762655D01*
X811125Y762772D01*
X811791Y762713D01*
X812420Y762484D01*
X812968Y762101D01*
X829880Y741945D01*
X813780Y728435D01*
X795449Y750281D01*
G37*
%LPD*%
%LPC*%
G36*
X815738Y726102D02*
X815738Y726102D01*
X831838Y739612D01*
X848751Y719456D01*
X849034Y718850D01*
X849150Y718191D01*
X849092Y717524D01*
X848863Y716896D01*
X848479Y716348D01*
X834069Y704256D01*
X815738Y726102D01*
G37*
%LPD*%
%LPC*%
G36*
X305514Y332892D02*
X305514Y332892D01*
X288362Y353333D01*
X288509Y355010D01*
X298991Y363806D01*
X300669Y363659D01*
X317821Y343218D01*
X317674Y341541D01*
X307192Y332745D01*
X305514Y332892D01*
G37*
%LPD*%
%LPC*%
G36*
X913868Y808443D02*
X913868Y808443D01*
X929969Y821953D01*
X937239Y813288D01*
X937522Y812681D01*
X937638Y812022D01*
X937580Y811356D01*
X937351Y810727D01*
X936968Y810179D01*
X922557Y798088D01*
X913868Y808443D01*
G37*
%LPD*%
%LPC*%
G36*
X903221Y821131D02*
X903221Y821131D01*
X917632Y833223D01*
X918238Y833506D01*
X918897Y833622D01*
X919563Y833564D01*
X920192Y833335D01*
X920740Y832951D01*
X928011Y824286D01*
X911910Y810776D01*
X903221Y821131D01*
G37*
%LPD*%
%LPC*%
G36*
X886205Y803973D02*
X886205Y803973D01*
X885923Y804580D01*
X885807Y805239D01*
X885865Y805905D01*
X886094Y806534D01*
X886477Y807082D01*
X900888Y819173D01*
X909577Y808818D01*
X893476Y795308D01*
X886205Y803973D01*
G37*
%LPD*%
%LPC*%
G36*
X903882Y783697D02*
X903882Y783697D01*
X903253Y783926D01*
X902705Y784310D01*
X895434Y792975D01*
X911535Y806485D01*
X920224Y796130D01*
X905813Y784038D01*
X905207Y783755D01*
X904548Y783639D01*
X903882Y783697D01*
G37*
%LPD*%
%LPC*%
G36*
X631198Y719797D02*
X631198Y719797D01*
X630007Y720988D01*
X630007Y732672D01*
X631198Y733863D01*
X643882Y733863D01*
X645073Y732672D01*
X645073Y720988D01*
X643882Y719797D01*
X631198Y719797D01*
G37*
%LPD*%
%LPC*%
G36*
X694557Y824633D02*
X694557Y824633D01*
X686403Y834349D01*
X686550Y836027D01*
X695501Y843537D01*
X697178Y843390D01*
X705331Y833674D01*
X705185Y831996D01*
X696234Y824486D01*
X694557Y824633D01*
G37*
%LPD*%
%LPC*%
G36*
X578253Y882903D02*
X578253Y882903D01*
X578253Y896421D01*
X589814Y896421D01*
X590461Y896248D01*
X591040Y895913D01*
X591513Y895440D01*
X591848Y894861D01*
X592021Y894214D01*
X592021Y882903D01*
X578253Y882903D01*
G37*
%LPD*%
%LPC*%
G36*
X561439Y882903D02*
X561439Y882903D01*
X561439Y894214D01*
X561612Y894861D01*
X561947Y895440D01*
X562420Y895913D01*
X562999Y896248D01*
X563646Y896421D01*
X575207Y896421D01*
X575207Y882903D01*
X561439Y882903D01*
G37*
%LPD*%
%LPC*%
G36*
X578253Y866339D02*
X578253Y866339D01*
X578253Y879857D01*
X592021Y879857D01*
X592021Y868546D01*
X591848Y867899D01*
X591513Y867320D01*
X591040Y866847D01*
X590461Y866512D01*
X589814Y866339D01*
X578253Y866339D01*
G37*
%LPD*%
%LPC*%
G36*
X563646Y866339D02*
X563646Y866339D01*
X562999Y866512D01*
X562420Y866847D01*
X561947Y867320D01*
X561612Y867899D01*
X561439Y868546D01*
X561439Y879857D01*
X575207Y879857D01*
X575207Y866339D01*
X563646Y866339D01*
G37*
%LPD*%
%LPC*%
G36*
X737342Y830672D02*
X737342Y830672D01*
X745241Y837299D01*
X745847Y837582D01*
X746506Y837698D01*
X747172Y837640D01*
X747801Y837411D01*
X748349Y837028D01*
X752727Y831810D01*
X743138Y823764D01*
X737342Y830672D01*
G37*
%LPD*%
%LPC*%
G36*
X745096Y821430D02*
X745096Y821430D01*
X754685Y829476D01*
X759063Y824258D01*
X759346Y823652D01*
X759462Y822993D01*
X759404Y822327D01*
X759175Y821698D01*
X758792Y821150D01*
X750893Y814522D01*
X745096Y821430D01*
G37*
%LPD*%
%LPC*%
G36*
X738729Y805595D02*
X738729Y805595D01*
X738100Y805824D01*
X737552Y806208D01*
X733174Y811426D01*
X742763Y819472D01*
X748559Y812564D01*
X740660Y805936D01*
X740054Y805653D01*
X739395Y805537D01*
X738729Y805595D01*
G37*
%LPD*%
%LPC*%
G36*
X726837Y818977D02*
X726837Y818977D01*
X726555Y819583D01*
X726438Y820242D01*
X726497Y820909D01*
X726726Y821537D01*
X727109Y822085D01*
X735008Y828713D01*
X740804Y821806D01*
X731216Y813759D01*
X726837Y818977D01*
G37*
%LPD*%
%LPC*%
G36*
X640333Y841873D02*
X640333Y841873D01*
X640333Y848391D01*
X644145Y848391D01*
X644791Y848218D01*
X645370Y847883D01*
X645843Y847410D01*
X646178Y846831D01*
X646351Y846184D01*
X646351Y841873D01*
X640333Y841873D01*
G37*
%LPD*%
%LPC*%
G36*
X576729Y881379D02*
X576729Y881379D01*
X576729Y881381D01*
X576731Y881381D01*
X576731Y881379D01*
X576729Y881379D01*
G37*
%LPD*%
%LPC*%
G36*
X813591Y726290D02*
X813591Y726290D01*
X813592Y726291D01*
X813593Y726289D01*
X813592Y726288D01*
X813591Y726290D01*
G37*
%LPD*%
%LPC*%
G36*
X742949Y821618D02*
X742949Y821618D01*
X742951Y821619D01*
X742952Y821618D01*
X742950Y821617D01*
X742949Y821618D01*
G37*
%LPD*%
%LPC*%
G36*
X911721Y808631D02*
X911721Y808631D01*
X911723Y808632D01*
X911724Y808630D01*
X911722Y808629D01*
X911721Y808631D01*
G37*
%LPD*%
D10*
X201930Y241300D02*
X135890Y251460D01*
X107950Y259080D01*
X90170Y267970D01*
X72390Y279400D01*
X50800Y294640D01*
X34290Y308610D01*
X20320Y327660D01*
X12700Y340360D01*
X7620Y350520D01*
X3810Y361950D01*
X2540Y369570D01*
X2540Y378460D01*
X3810Y398780D01*
X7620Y424180D01*
X12700Y447040D01*
X29210Y478790D01*
X52070Y510540D01*
X81280Y541020D01*
X106680Y558800D01*
X127000Y577850D01*
X146050Y599440D01*
X171450Y640080D01*
X176530Y655320D01*
X186690Y689610D01*
X193040Y711200D01*
X196850Y735330D01*
X199390Y760730D01*
X200660Y774700D01*
X204470Y802640D01*
X218440Y838200D01*
X240030Y880110D01*
X259080Y905510D01*
X285750Y929640D01*
X325120Y957580D01*
X340360Y965200D01*
X375920Y980440D01*
X402590Y990600D01*
X422910Y995680D01*
X448310Y996950D01*
X476250Y995680D01*
X529590Y990600D01*
X567690Y980440D01*
X609600Y962660D01*
X646430Y941070D01*
X680720Y918210D01*
X732790Y881380D02*
X749300Y878840D01*
X768350Y876300D01*
X788670Y877570D01*
X812800Y885190D01*
X838200Y896620D01*
X849630Y901700D01*
X876300Y906780D01*
X895350Y908050D01*
X927100Y905510D01*
X944880Y900430D01*
X963930Y887730D01*
X976630Y876300D01*
X984250Y867410D01*
X990600Y853440D01*
X994410Y835660D01*
X995680Y816610D01*
X994410Y791210D01*
X990600Y753110D01*
X986790Y735330D01*
X975360Y711200D01*
X961390Y681990D01*
X942340Y652780D01*
X915670Y622300D01*
X875030Y575310D01*
X821690Y518160D01*
X773430Y474980D01*
X734060Y444500D01*
X721360Y434340D01*
X716280Y430530D01*
X716280Y421640D01*
X717550Y398780D01*
X723900Y363220D01*
X730250Y332740D01*
X739140Y303530D01*
X749300Y276860D01*
X760730Y252730D01*
X765810Y237490D01*
X769620Y223520D01*
X773430Y205740D01*
X778510Y173990D01*
X777240Y156210D01*
X772160Y129540D01*
X762000Y107950D01*
X749300Y96520D01*
X732790Y92710D01*
X725170Y86360D01*
X708660Y68580D01*
X697230Y58420D01*
X680720Y41910D01*
X668020Y30480D01*
X654050Y21590D01*
X647700Y17780D01*
X635000Y11430D01*
X621030Y5080D01*
X600710Y2540D01*
X584200Y3810D01*
X568960Y6350D01*
X557530Y7620D01*
X537210Y15240D01*
X532130Y17780D01*
X528320Y21590D01*
X521970Y29210D01*
X518160Y34290D01*
X513080Y39370D01*
X509270Y41910D01*
X504190Y44450D01*
X496570Y46990D01*
X485140Y49530D01*
X476250Y50800D01*
X461010Y54610D01*
X449580Y59690D01*
X441960Y66040D01*
X429260Y81280D01*
X421640Y96520D01*
X420370Y111760D01*
X421640Y121920D01*
X426720Y134620D01*
X441960Y170180D01*
X447040Y180340D01*
X450850Y195580D01*
X452120Y207010D01*
X454660Y223520D01*
X454660Y254000D01*
X453390Y265430D01*
X450850Y280670D01*
X447040Y287020D01*
X443230Y292100D01*
X438150Y294640D01*
X436880Y294640D01*
X431800Y293370D01*
X400050Y283210D01*
X375920Y273050D01*
X353060Y266700D01*
X321310Y257810D01*
X290830Y251460D01*
X254000Y245110D01*
X226060Y241300D01*
X201930Y241300D01*
X303530Y925830D02*
X327660Y941070D01*
X347980Y952500D01*
X361950Y958850D01*
X372110Y962660D01*
X384810Y963930D01*
X396240Y962660D01*
X398780Y961390D01*
X408686Y944118D01*
X303276Y886968D01*
X293370Y905510D01*
X294640Y911860D01*
X298450Y919480D01*
X303530Y925830D01*
X736600Y896620D02*
X772160Y897890D01*
X697230Y932180D02*
X689610Y938530D01*
X713740Y979170D01*
X795020Y939800D01*
X772160Y897890D01*
X687070Y913130D02*
X680720Y918210D01*
X687070Y913130D02*
X699770Y929640D01*
X697230Y932180D01*
X736600Y896620D02*
X732790Y881380D01*
D11*
X482092Y110236D03*
X482092Y111252D03*
D12*
X482092Y112268D03*
X482092Y113284D03*
X482092Y114300D03*
X482092Y115316D03*
D11*
X461772Y116332D03*
X482092Y116332D03*
D13*
X503428Y116332D03*
D11*
X461772Y117348D03*
X482092Y117348D03*
D13*
X503428Y117348D03*
D11*
X461772Y118364D03*
X482092Y118364D03*
D13*
X503428Y118364D03*
D11*
X461772Y119380D03*
X482092Y119380D03*
D13*
X503428Y119380D03*
D11*
X461772Y120396D03*
X482092Y120396D03*
D13*
X503428Y120396D03*
D11*
X461772Y121412D03*
X482092Y121412D03*
D13*
X503428Y121412D03*
D11*
X461772Y122428D03*
X482092Y122428D03*
D13*
X503428Y122428D03*
D11*
X461772Y123444D03*
X482092Y123444D03*
D13*
X503428Y123444D03*
D11*
X461772Y124460D03*
X482092Y124460D03*
D13*
X503428Y124460D03*
D11*
X461772Y125476D03*
X482092Y125476D03*
D13*
X503428Y125476D03*
D12*
X482092Y126492D03*
X482092Y127508D03*
X482092Y128524D03*
X482092Y129540D03*
D11*
X482092Y130556D03*
X482092Y131572D03*
D14*
X738378Y116840D03*
D15*
X738378Y117348D03*
D16*
X738378Y117856D03*
D17*
X738124Y118364D03*
D18*
X738124Y118872D03*
D19*
X735838Y119380D03*
D20*
X740664Y119380D03*
D21*
X735584Y119888D03*
D19*
X740918Y119888D03*
X735330Y120396D03*
X741426Y120396D03*
D21*
X735076Y120904D03*
X741680Y120904D03*
D19*
X734822Y121412D03*
D21*
X742188Y121412D03*
X734568Y121920D03*
D19*
X742442Y121920D03*
D21*
X734568Y122428D03*
D19*
X742442Y122428D03*
D21*
X734568Y122936D03*
D19*
X742950Y122936D03*
D21*
X734060Y123444D03*
X743204Y123444D03*
X734060Y123952D03*
X743204Y123952D03*
X734060Y124460D03*
D19*
X743458Y124460D03*
X733806Y124968D03*
D21*
X743712Y124968D03*
D19*
X733806Y125476D03*
D21*
X743712Y125476D03*
X733552Y125984D03*
D19*
X743966Y125984D03*
D21*
X733552Y126492D03*
X744220Y126492D03*
X733552Y127000D03*
D19*
X744474Y127000D03*
D21*
X733552Y127508D03*
D19*
X744474Y127508D03*
X733298Y128016D03*
D21*
X744728Y128016D03*
X733044Y128524D03*
X744728Y128524D03*
X733044Y129032D03*
X744728Y129032D03*
X733044Y129540D03*
X745236Y129540D03*
X733044Y130048D03*
D19*
X744982Y130048D03*
D21*
X733044Y130556D03*
X745236Y130556D03*
X733044Y131064D03*
X745236Y131064D03*
X733044Y131572D03*
X745236Y131572D03*
D19*
X732790Y132080D03*
D21*
X745236Y132080D03*
X732536Y132588D03*
X745236Y132588D03*
D19*
X732790Y133096D03*
X745490Y133096D03*
X732790Y133604D03*
D21*
X745236Y133604D03*
X732536Y134112D03*
X745744Y134112D03*
X732536Y134620D03*
X745744Y134620D03*
D19*
X732790Y135128D03*
D21*
X745744Y135128D03*
X732536Y135636D03*
D19*
X745490Y135636D03*
D21*
X732536Y136144D03*
D19*
X745490Y136144D03*
D21*
X732536Y136652D03*
X745744Y136652D03*
X732536Y137160D03*
X745744Y137160D03*
X732536Y137668D03*
X745744Y137668D03*
X732536Y138176D03*
X745744Y138176D03*
X732536Y138684D03*
X745744Y138684D03*
X732536Y139192D03*
X745744Y139192D03*
X732536Y139700D03*
X745744Y139700D03*
X732536Y140208D03*
X745744Y140208D03*
X732536Y140716D03*
X745744Y140716D03*
X732536Y141224D03*
D19*
X745490Y141224D03*
D21*
X732536Y141732D03*
D19*
X745490Y141732D03*
D21*
X732536Y142240D03*
D19*
X745490Y142240D03*
D21*
X732536Y142748D03*
X745236Y142748D03*
X732536Y143256D03*
X745236Y143256D03*
X732536Y143764D03*
D19*
X745490Y143764D03*
D21*
X732536Y144272D03*
X745236Y144272D03*
X732536Y144780D03*
X745236Y144780D03*
X732536Y145288D03*
X745236Y145288D03*
X732536Y145796D03*
X745236Y145796D03*
D19*
X732790Y146304D03*
D21*
X745236Y146304D03*
X732536Y146812D03*
D19*
X744982Y146812D03*
X732790Y147320D03*
D21*
X744728Y147320D03*
D19*
X732790Y147828D03*
D21*
X744728Y147828D03*
D19*
X732790Y148336D03*
D21*
X744728Y148336D03*
D19*
X732790Y148844D03*
D21*
X744728Y148844D03*
D19*
X732790Y149352D03*
X744474Y149352D03*
X732790Y149860D03*
D21*
X744220Y149860D03*
D19*
X732790Y150368D03*
D21*
X744220Y150368D03*
D19*
X732790Y150876D03*
D21*
X744220Y150876D03*
D19*
X732790Y151384D03*
X743966Y151384D03*
D20*
X703072Y151892D03*
D21*
X733044Y151892D03*
D19*
X743966Y151892D03*
D17*
X703072Y152400D03*
D19*
X732790Y152400D03*
D21*
X743712Y152400D03*
D22*
X702818Y152908D03*
D19*
X732790Y152908D03*
D21*
X743712Y152908D03*
D23*
X702818Y153416D03*
D19*
X732790Y153416D03*
X743458Y153416D03*
D24*
X702564Y153924D03*
D21*
X733044Y153924D03*
X743204Y153924D03*
D25*
X702310Y154432D03*
D21*
X733044Y154432D03*
X743204Y154432D03*
D26*
X697992Y154940D03*
D15*
X707390Y154940D03*
D21*
X733044Y154940D03*
X743204Y154940D03*
D16*
X696722Y155448D03*
D20*
X708152Y155448D03*
D21*
X733044Y155448D03*
D19*
X742950Y155448D03*
D27*
X695960Y155956D03*
D19*
X708406Y155956D03*
D21*
X733044Y155956D03*
X742696Y155956D03*
D15*
X695198Y156464D03*
D21*
X708660Y156464D03*
X733044Y156464D03*
X742696Y156464D03*
D15*
X694690Y156972D03*
D19*
X708914Y156972D03*
X733298Y156972D03*
D21*
X742696Y156972D03*
D15*
X694182Y157480D03*
D19*
X708914Y157480D03*
X733298Y157480D03*
X742442Y157480D03*
D15*
X693674Y157988D03*
D21*
X709168Y157988D03*
D19*
X733298Y157988D03*
D21*
X742188Y157988D03*
D20*
X693420Y158496D03*
D21*
X709168Y158496D03*
D19*
X733298Y158496D03*
X741934Y158496D03*
D20*
X692912Y159004D03*
D21*
X709168Y159004D03*
D19*
X733298Y159004D03*
D21*
X741680Y159004D03*
D20*
X692404Y159512D03*
D21*
X709168Y159512D03*
X733552Y159512D03*
X741680Y159512D03*
D20*
X691896Y160020D03*
D21*
X709168Y160020D03*
X733552Y160020D03*
D19*
X741426Y160020D03*
X691642Y160528D03*
D21*
X709168Y160528D03*
X733552Y160528D03*
D19*
X741426Y160528D03*
D20*
X691388Y161036D03*
D21*
X709168Y161036D03*
D19*
X733806Y161036D03*
D21*
X741172Y161036D03*
D20*
X690880Y161544D03*
D19*
X708914Y161544D03*
X733806Y161544D03*
X740918Y161544D03*
X690626Y162052D03*
D21*
X708660Y162052D03*
D19*
X733806Y162052D03*
D21*
X740664Y162052D03*
D20*
X690372Y162560D03*
D21*
X708660Y162560D03*
D19*
X733806Y162560D03*
D21*
X740664Y162560D03*
D19*
X690118Y163068D03*
X708406Y163068D03*
X733806Y163068D03*
X740410Y163068D03*
D21*
X689864Y163576D03*
D19*
X708406Y163576D03*
X733806Y163576D03*
D21*
X740156Y163576D03*
D19*
X689610Y164084D03*
X707898Y164084D03*
D21*
X734060Y164084D03*
D19*
X739902Y164084D03*
X689610Y164592D03*
X707898Y164592D03*
D21*
X734060Y164592D03*
X739648Y164592D03*
D19*
X689102Y165100D03*
X707390Y165100D03*
X733806Y165100D03*
X739394Y165100D03*
X689102Y165608D03*
D20*
X707136Y165608D03*
D21*
X734060Y165608D03*
X739140Y165608D03*
X688848Y166116D03*
D19*
X706882Y166116D03*
D21*
X734060Y166116D03*
D19*
X738886Y166116D03*
X688594Y166624D03*
X706374Y166624D03*
X734314Y166624D03*
X738886Y166624D03*
D21*
X688340Y167132D03*
D20*
X706120Y167132D03*
D19*
X734314Y167132D03*
D21*
X738632Y167132D03*
X688340Y167640D03*
D20*
X705612Y167640D03*
D19*
X734314Y167640D03*
D21*
X738124Y167640D03*
D19*
X688086Y168148D03*
D20*
X705612Y168148D03*
D19*
X734314Y168148D03*
D21*
X738124Y168148D03*
X687832Y168656D03*
D20*
X705104Y168656D03*
D21*
X734568Y168656D03*
D19*
X737870Y168656D03*
X688086Y169164D03*
D20*
X704596Y169164D03*
D26*
X736092Y169164D03*
D21*
X687832Y169672D03*
D15*
X704342Y169672D03*
D28*
X735838Y169672D03*
D21*
X687832Y170180D03*
D15*
X703834Y170180D03*
D16*
X735838Y170180D03*
D21*
X687832Y170688D03*
D15*
X703326Y170688D03*
D16*
X735838Y170688D03*
D21*
X687832Y171196D03*
D20*
X703072Y171196D03*
D27*
X735584Y171196D03*
D21*
X687832Y171704D03*
D20*
X702564Y171704D03*
D15*
X735330Y171704D03*
D21*
X687832Y172212D03*
D15*
X701802Y172212D03*
X735330Y172212D03*
D21*
X687832Y172720D03*
D20*
X701548Y172720D03*
X735076Y172720D03*
D21*
X687832Y173228D03*
D15*
X700786Y173228D03*
D20*
X735076Y173228D03*
D21*
X687832Y173736D03*
D15*
X700278Y173736D03*
D19*
X734822Y173736D03*
D21*
X687832Y174244D03*
D15*
X699770Y174244D03*
D20*
X734568Y174244D03*
D21*
X687832Y174752D03*
D15*
X699262Y174752D03*
D20*
X734568Y174752D03*
D19*
X688086Y175260D03*
D15*
X698754Y175260D03*
X734314Y175260D03*
D19*
X688086Y175768D03*
D15*
X698246Y175768D03*
D16*
X734314Y175768D03*
D19*
X688086Y176276D03*
D27*
X697484Y176276D03*
D26*
X734060Y176276D03*
D21*
X688340Y176784D03*
D15*
X697230Y176784D03*
D26*
X734060Y176784D03*
D19*
X688594Y177292D03*
D27*
X696468Y177292D03*
D28*
X733806Y177292D03*
D19*
X688594Y177800D03*
D27*
X695960Y177800D03*
D15*
X718058Y177800D03*
D17*
X733552Y177800D03*
D19*
X688594Y178308D03*
D15*
X695198Y178308D03*
D17*
X717804Y178308D03*
D20*
X731520Y178308D03*
D19*
X735330Y178308D03*
D21*
X688848Y178816D03*
D15*
X694690Y178816D03*
D29*
X718058Y178816D03*
D20*
X731012Y178816D03*
D21*
X735584Y178816D03*
D19*
X689102Y179324D03*
D27*
X693928Y179324D03*
D22*
X718058Y179324D03*
D19*
X730758Y179324D03*
D21*
X735584Y179324D03*
D18*
X691896Y179832D03*
D30*
X717804Y179832D03*
D19*
X730250Y179832D03*
X735838Y179832D03*
D17*
X691388Y180340D03*
D15*
X714502Y180340D03*
D20*
X721360Y180340D03*
X729996Y180340D03*
D19*
X735838Y180340D03*
D26*
X690880Y180848D03*
D20*
X713740Y180848D03*
D21*
X721868Y180848D03*
D20*
X729488Y180848D03*
D19*
X735838Y180848D03*
D27*
X690880Y181356D03*
D14*
X697230Y181356D03*
D20*
X713232Y181356D03*
D21*
X722376Y181356D03*
D20*
X728980Y181356D03*
D19*
X735838Y181356D03*
D15*
X690626Y181864D03*
D19*
X697230Y181864D03*
X712978Y181864D03*
D21*
X722376Y181864D03*
D20*
X728472Y181864D03*
D19*
X735838Y181864D03*
D16*
X690626Y182372D03*
D15*
X696722Y182372D03*
D19*
X712470Y182372D03*
D21*
X722376Y182372D03*
D20*
X727964Y182372D03*
D19*
X735838Y182372D03*
D31*
X693420Y182880D03*
D21*
X712216Y182880D03*
X722376Y182880D03*
D20*
X727456Y182880D03*
D19*
X735838Y182880D03*
D32*
X693166Y183388D03*
D21*
X712216Y183388D03*
X722376Y183388D03*
D20*
X726948Y183388D03*
D19*
X735838Y183388D03*
D20*
X687832Y183896D03*
D23*
X696214Y183896D03*
D33*
X711962Y183896D03*
D21*
X722376Y183896D03*
D20*
X726440Y183896D03*
D19*
X736346Y183896D03*
D20*
X687324Y184404D03*
D31*
X696976Y184404D03*
D21*
X711708Y184404D03*
X722376Y184404D03*
D20*
X725932Y184404D03*
D21*
X736092Y184404D03*
D20*
X686816Y184912D03*
D31*
X697484Y184912D03*
D21*
X711708Y184912D03*
D28*
X724154Y184912D03*
D19*
X736346Y184912D03*
D27*
X679196Y185420D03*
D19*
X686054Y185420D03*
D34*
X693928Y185420D03*
D29*
X699770Y185420D03*
D33*
X711454Y185420D03*
D26*
X723900Y185420D03*
D19*
X736346Y185420D03*
D17*
X679196Y185928D03*
D20*
X685800Y185928D03*
D22*
X699770Y185928D03*
D33*
X711454Y185928D03*
D16*
X723138Y185928D03*
D19*
X736346Y185928D03*
D29*
X678942Y186436D03*
D19*
X685038Y186436D03*
D27*
X696976Y186436D03*
D21*
X703072Y186436D03*
D33*
X711454Y186436D03*
D26*
X722376Y186436D03*
D19*
X736346Y186436D03*
D24*
X680212Y186944D03*
D27*
X696468Y186944D03*
D21*
X703580Y186944D03*
D33*
X711454Y186944D03*
D28*
X721614Y186944D03*
D19*
X736346Y186944D03*
D35*
X679450Y187452D03*
D19*
X695706Y187452D03*
D21*
X703580Y187452D03*
D33*
X711454Y187452D03*
D26*
X720852Y187452D03*
D19*
X736346Y187452D03*
D16*
X675386Y187960D03*
X682498Y187960D03*
D21*
X694944Y187960D03*
X703580Y187960D03*
D33*
X711454Y187960D03*
D26*
X720344Y187960D03*
D19*
X736346Y187960D03*
D15*
X674370Y188468D03*
X683006Y188468D03*
D19*
X694690Y188468D03*
D33*
X703834Y188468D03*
X710946Y188468D03*
D26*
X719836Y188468D03*
D21*
X736600Y188468D03*
D15*
X673862Y188976D03*
D19*
X683006Y188976D03*
D21*
X694436Y188976D03*
X703580Y188976D03*
D33*
X710946Y188976D03*
D21*
X718312Y188976D03*
X721360Y188976D03*
X736600Y188976D03*
D20*
X673608Y189484D03*
D19*
X683006Y189484D03*
D21*
X694436Y189484D03*
D36*
X703580Y189484D03*
D33*
X710946Y189484D03*
D21*
X717804Y189484D03*
D33*
X721106Y189484D03*
D21*
X736600Y189484D03*
X673100Y189992D03*
D20*
X682752Y189992D03*
D21*
X693928Y189992D03*
D36*
X703580Y189992D03*
D33*
X710946Y189992D03*
X717550Y189992D03*
X721106Y189992D03*
D19*
X736854Y189992D03*
D33*
X672846Y190500D03*
D15*
X682498Y190500D03*
D19*
X693674Y190500D03*
D33*
X703326Y190500D03*
D21*
X710692Y190500D03*
D33*
X717550Y190500D03*
X721106Y190500D03*
D19*
X736854Y190500D03*
D14*
X672338Y191008D03*
D33*
X680974Y191008D03*
D21*
X683768Y191008D03*
X693420Y191008D03*
D33*
X703326Y191008D03*
D21*
X710692Y191008D03*
D36*
X717296Y191008D03*
D33*
X720598Y191008D03*
D19*
X736854Y191008D03*
D36*
X680720Y191516D03*
D33*
X683514Y191516D03*
D21*
X693420Y191516D03*
D33*
X703326Y191516D03*
D21*
X710692Y191516D03*
X717296Y191516D03*
X720344Y191516D03*
D19*
X736854Y191516D03*
D36*
X680720Y192024D03*
D33*
X683514Y192024D03*
X693166Y192024D03*
X702818Y192024D03*
X710438Y192024D03*
D27*
X718820Y192024D03*
D19*
X736854Y192024D03*
D36*
X680212Y192532D03*
D33*
X683514Y192532D03*
D21*
X692912Y192532D03*
D33*
X702818Y192532D03*
D15*
X709422Y192532D03*
X718566Y192532D03*
D19*
X736854Y192532D03*
D36*
X680212Y193040D03*
D33*
X683514Y193040D03*
D21*
X692912Y193040D03*
D33*
X702310Y193040D03*
D16*
X708914Y193040D03*
D19*
X718566Y193040D03*
X736854Y193040D03*
D36*
X679704Y193548D03*
D33*
X683514Y193548D03*
D21*
X692912Y193548D03*
X702056Y193548D03*
D28*
X708406Y193548D03*
D21*
X737108Y193548D03*
D36*
X679704Y194056D03*
D33*
X683514Y194056D03*
X692658Y194056D03*
D21*
X701548Y194056D03*
D28*
X707898Y194056D03*
D21*
X737108Y194056D03*
D36*
X679704Y194564D03*
D33*
X683006Y194564D03*
X692658Y194564D03*
D21*
X701040Y194564D03*
D27*
X707136Y194564D03*
D19*
X737362Y194564D03*
D14*
X679450Y195072D03*
D33*
X683006Y195072D03*
X692658Y195072D03*
D20*
X700024Y195072D03*
D33*
X705866Y195072D03*
D21*
X737108Y195072D03*
D36*
X679196Y195580D03*
D33*
X683006Y195580D03*
X692658Y195580D03*
D15*
X699262Y195580D03*
D19*
X737362Y195580D03*
D36*
X679196Y196088D03*
X682752Y196088D03*
D33*
X692658Y196088D03*
D27*
X698500Y196088D03*
D19*
X737362Y196088D03*
D36*
X679196Y196596D03*
D33*
X682498Y196596D03*
X692658Y196596D03*
D16*
X697230Y196596D03*
D19*
X737362Y196596D03*
D36*
X679196Y197104D03*
X682244Y197104D03*
D29*
X695706Y197104D03*
D19*
X737362Y197104D03*
D36*
X679196Y197612D03*
D33*
X681990Y197612D03*
D18*
X695960Y197612D03*
D19*
X737362Y197612D03*
D15*
X680466Y198120D03*
D37*
X695706Y198120D03*
D19*
X737362Y198120D03*
X680466Y198628D03*
D21*
X694436Y198628D03*
X698500Y198628D03*
D19*
X737362Y198628D03*
D33*
X680466Y199136D03*
X698246Y199136D03*
D19*
X737362Y199136D03*
D21*
X698500Y199644D03*
D19*
X737362Y199644D03*
D33*
X698246Y200152D03*
D19*
X737362Y200152D03*
D33*
X698246Y200660D03*
D19*
X737362Y200660D03*
D21*
X697992Y201168D03*
D19*
X737362Y201168D03*
D21*
X697992Y201676D03*
D19*
X737362Y201676D03*
D33*
X698246Y202184D03*
D21*
X737616Y202184D03*
X697992Y202692D03*
X737616Y202692D03*
X697992Y203200D03*
X737616Y203200D03*
X697992Y203708D03*
X737616Y203708D03*
D19*
X697738Y204216D03*
D21*
X737616Y204216D03*
X697484Y204724D03*
X737616Y204724D03*
X697484Y205232D03*
D19*
X737362Y205232D03*
D36*
X697484Y205740D03*
D21*
X737616Y205740D03*
X737616Y206248D03*
X737616Y206756D03*
X737616Y207264D03*
X737616Y207772D03*
X737616Y208280D03*
X737616Y208788D03*
X737616Y209296D03*
X737616Y209804D03*
X737616Y210312D03*
X737616Y210820D03*
X737616Y211328D03*
X737616Y211836D03*
X737616Y212344D03*
X737616Y212852D03*
X737616Y213360D03*
X737616Y213868D03*
X737616Y214376D03*
D19*
X737362Y214884D03*
D21*
X737616Y215392D03*
D19*
X737362Y215900D03*
D21*
X737616Y216408D03*
D33*
X737362Y216916D03*
X737362Y217424D03*
D21*
X737108Y217932D03*
X737108Y218440D03*
X737108Y218948D03*
X737108Y219456D03*
D33*
X736854Y219964D03*
X736854Y220472D03*
X736854Y220980D03*
X736854Y221488D03*
X736854Y221996D03*
D36*
X736600Y222504D03*
D33*
X736346Y223012D03*
X736346Y223520D03*
D21*
X736092Y224028D03*
D33*
X735838Y224536D03*
D36*
X735584Y225044D03*
D14*
X735330Y225552D03*
D38*
X484237Y89916D02*
X478592Y89916D01*
X484237Y89916D02*
X484353Y89918D01*
X484468Y89924D01*
X484583Y89934D01*
X484698Y89948D01*
X484812Y89965D01*
X484926Y89987D01*
X485039Y90012D01*
X485151Y90042D01*
X485262Y90075D01*
X485371Y90112D01*
X485480Y90152D01*
X485586Y90196D01*
X485692Y90244D01*
X485795Y90296D01*
X485897Y90351D01*
X485997Y90409D01*
X486095Y90471D01*
X486190Y90536D01*
X486284Y90604D01*
X486375Y90676D01*
X486463Y90750D01*
X486549Y90828D01*
X486632Y90908D01*
X486712Y90991D01*
X486790Y91077D01*
X486864Y91166D01*
X486936Y91256D01*
X487004Y91350D01*
X487069Y91445D01*
X487131Y91543D01*
X487189Y91643D01*
X487244Y91745D01*
X487296Y91848D01*
X487344Y91954D01*
X487388Y92060D01*
X487428Y92169D01*
X487465Y92278D01*
X487498Y92389D01*
X487528Y92501D01*
X487553Y92614D01*
X487575Y92728D01*
X487592Y92842D01*
X487606Y92957D01*
X487616Y93072D01*
X487622Y93187D01*
X487624Y93303D01*
X487624Y100076D01*
X487622Y100192D01*
X487616Y100307D01*
X487606Y100422D01*
X487592Y100537D01*
X487575Y100651D01*
X487553Y100765D01*
X487528Y100878D01*
X487498Y100990D01*
X487465Y101101D01*
X487428Y101210D01*
X487388Y101319D01*
X487344Y101425D01*
X487296Y101531D01*
X487244Y101634D01*
X487189Y101736D01*
X487131Y101836D01*
X487069Y101934D01*
X487004Y102029D01*
X486936Y102123D01*
X486864Y102213D01*
X486790Y102302D01*
X486712Y102388D01*
X486632Y102471D01*
X486549Y102551D01*
X486463Y102629D01*
X486374Y102703D01*
X486284Y102775D01*
X486190Y102843D01*
X486095Y102908D01*
X485997Y102970D01*
X485897Y103028D01*
X485795Y103083D01*
X485692Y103135D01*
X485586Y103183D01*
X485480Y103227D01*
X485371Y103267D01*
X485262Y103304D01*
X485151Y103337D01*
X485039Y103367D01*
X484926Y103392D01*
X484812Y103414D01*
X484698Y103431D01*
X484583Y103445D01*
X484468Y103455D01*
X484353Y103461D01*
X484237Y103463D01*
X478592Y103463D01*
X478592Y86529D01*
X478594Y86413D01*
X478600Y86298D01*
X478610Y86183D01*
X478624Y86068D01*
X478641Y85954D01*
X478663Y85840D01*
X478688Y85727D01*
X478718Y85615D01*
X478751Y85504D01*
X478788Y85395D01*
X478828Y85286D01*
X478872Y85180D01*
X478920Y85074D01*
X478972Y84971D01*
X479027Y84869D01*
X479085Y84769D01*
X479147Y84671D01*
X479212Y84576D01*
X479280Y84482D01*
X479352Y84392D01*
X479426Y84303D01*
X479504Y84217D01*
X479584Y84134D01*
X479667Y84054D01*
X479753Y83976D01*
X479842Y83902D01*
X479932Y83830D01*
X480026Y83762D01*
X480121Y83697D01*
X480219Y83635D01*
X480319Y83577D01*
X480421Y83522D01*
X480524Y83470D01*
X480630Y83422D01*
X480736Y83378D01*
X480845Y83338D01*
X480954Y83301D01*
X481065Y83268D01*
X481177Y83238D01*
X481290Y83213D01*
X481404Y83191D01*
X481518Y83174D01*
X481633Y83160D01*
X481748Y83150D01*
X481863Y83144D01*
X481979Y83142D01*
X481979Y83143D02*
X486495Y83143D01*
D39*
X612394Y772450D03*
X612394Y777450D03*
X612394Y782450D03*
X612394Y787450D03*
X612394Y792450D03*
D40*
X632894Y782450D03*
D41*
X622894Y802950D03*
X627894Y802950D03*
X632894Y802950D03*
X637894Y802950D03*
X642894Y802950D03*
D39*
X653394Y792450D03*
X653394Y787450D03*
X653394Y782450D03*
X653394Y777450D03*
X653394Y772450D03*
D41*
X642894Y761950D03*
X637894Y761950D03*
X632894Y761950D03*
X627894Y761950D03*
X622894Y761950D03*
D42*
G36*
X71592Y339878D02*
X55523Y359029D01*
X86164Y384740D01*
X102233Y365589D01*
X71592Y339878D01*
G37*
D43*
G36*
X179363Y410730D02*
X144011Y452861D01*
X174653Y478572D01*
X210005Y436441D01*
X179363Y410730D01*
G37*
G36*
X407377Y673850D02*
X442729Y631719D01*
X412087Y606008D01*
X376735Y648139D01*
X407377Y673850D01*
G37*
D42*
G36*
X515148Y744702D02*
X531217Y725551D01*
X500576Y699840D01*
X484507Y718991D01*
X515148Y744702D01*
G37*
G36*
X475452Y426238D02*
X459383Y445389D01*
X490024Y471100D01*
X506093Y451949D01*
X475452Y426238D01*
G37*
D43*
G36*
X583223Y497090D02*
X547871Y539221D01*
X578513Y564932D01*
X613865Y522801D01*
X583223Y497090D01*
G37*
G36*
X811237Y760210D02*
X846589Y718079D01*
X815947Y692368D01*
X780595Y734499D01*
X811237Y760210D01*
G37*
D42*
G36*
X919008Y831062D02*
X935077Y811911D01*
X904436Y786200D01*
X888367Y805351D01*
X919008Y831062D01*
G37*
D44*
X592700Y819150D03*
X575700Y819150D03*
X592700Y798830D03*
X575700Y798830D03*
X592700Y777240D03*
X575700Y777240D03*
X592700Y756920D03*
X575700Y756920D03*
X592700Y736600D03*
X575700Y736600D03*
D45*
X637540Y743830D03*
X637540Y726830D03*
D44*
X638810Y823350D03*
X638810Y840350D03*
D46*
X627230Y881380D03*
X576730Y881380D03*
D47*
G36*
X680739Y779859D02*
X698357Y794642D01*
X708641Y782385D01*
X691023Y767602D01*
X680739Y779859D01*
G37*
G36*
X728999Y820355D02*
X746617Y835138D01*
X756901Y822881D01*
X739283Y808098D01*
X728999Y820355D01*
G37*
D48*
X761011Y917837D02*
X767811Y931476D01*
X745080Y942809D02*
X738280Y929171D01*
X715549Y940504D02*
X722349Y954143D01*
D49*
X407216Y432308D03*
X382216Y432308D03*
D44*
G36*
X690210Y822085D02*
X682551Y815657D01*
X675480Y824083D01*
X683139Y830511D01*
X690210Y822085D01*
G37*
G36*
X703232Y833013D02*
X695573Y826585D01*
X688502Y835011D01*
X696161Y841439D01*
X703232Y833013D01*
G37*
D50*
G36*
X363473Y344766D02*
X372666Y352480D01*
X388735Y333330D01*
X379542Y325616D01*
X363473Y344766D01*
G37*
G36*
X344322Y328697D02*
X353515Y336411D01*
X369584Y317261D01*
X360391Y309547D01*
X344322Y328697D01*
G37*
G36*
X325171Y312627D02*
X334364Y320341D01*
X350433Y301191D01*
X341240Y293477D01*
X325171Y312627D01*
G37*
G36*
X290461Y353994D02*
X299654Y361708D01*
X315723Y342558D01*
X306530Y334844D01*
X290461Y353994D01*
G37*
G36*
X309612Y370063D02*
X318805Y377777D01*
X334874Y358627D01*
X325681Y350913D01*
X309612Y370063D01*
G37*
G36*
X328763Y386133D02*
X337956Y393847D01*
X354025Y374697D01*
X344832Y366983D01*
X328763Y386133D01*
G37*
D51*
X637894Y822434D02*
X627294Y833034D01*
D52*
X638810Y823350D02*
X653136Y809024D01*
X686904Y809024D01*
X690871Y809024D02*
X717550Y782345D01*
X717550Y742612D01*
D53*
X707392Y697232D03*
D52*
X707392Y732454D01*
X717550Y742612D01*
X638810Y823350D02*
X636978Y823350D01*
X627294Y833034D01*
X627230Y833098D02*
X627230Y881380D01*
X627230Y833098D02*
X627294Y833034D01*
D54*
X637894Y822434D02*
X637894Y802950D01*
X637894Y822434D02*
X638810Y823350D01*
D52*
X407216Y432308D02*
X405332Y422924D01*
X405332Y322580D01*
D53*
X405332Y322580D03*
D51*
X686904Y809024D02*
X682845Y823084D01*
D52*
X686904Y809024D02*
X690871Y809024D01*
D53*
X255270Y725170D03*
X576580Y881380D03*
X356870Y869950D03*
X426720Y904240D03*
X502920Y911860D03*
D55*
X813592Y726289D02*
X911722Y808631D01*
D53*
X789940Y734060D03*
X783590Y803910D03*
X816610Y854710D03*
X651510Y589280D03*
X257810Y803910D03*
X359250Y834865D03*
D51*
X431873Y834865D01*
X456554Y859546D01*
D53*
X456554Y859546D03*
X413332Y571668D03*
X722243Y461137D03*
X917505Y890227D03*
X978879Y804220D03*
D51*
X979135Y840749D01*
X565737Y409122D02*
X483038Y409122D01*
X413332Y478828D01*
X413332Y571668D01*
D53*
X582899Y807751D03*
D51*
X582899Y806029D01*
X575700Y798830D01*
X977513Y852652D02*
X977486Y852962D01*
X976404Y853866D01*
X975452Y854907D01*
X955224Y871808D01*
X937457Y888238D01*
X977513Y852652D02*
X977724Y852422D01*
X977679Y851434D01*
X979135Y840749D01*
D53*
X652388Y880748D03*
X760730Y842010D03*
D51*
X610927Y382977D02*
X606825Y380461D01*
X610927Y382977D02*
X698985Y437539D01*
X705406Y442827D01*
X722243Y461137D01*
X606825Y380461D02*
X603172Y376808D01*
X598050Y376808D02*
X565737Y409122D01*
X598050Y376808D02*
X598050Y376808D01*
X603172Y376808D01*
X598050Y376808D02*
X598050Y376808D01*
D53*
X598050Y376808D03*
D51*
X919221Y888511D02*
X917505Y890227D01*
X935490Y888511D02*
X937093Y888574D01*
X935490Y888511D02*
X919221Y888511D01*
X718420Y851962D02*
X689634Y880748D01*
X652388Y880748D01*
X758663Y851962D02*
X761428Y849196D01*
X758663Y851962D02*
X718420Y851962D01*
X761428Y849196D02*
X761428Y842708D01*
X760730Y842010D01*
X937093Y888574D02*
X937457Y888238D01*
D53*
X330324Y615082D03*
D51*
X303401Y642005D01*
X303401Y687746D01*
D53*
X303401Y687746D03*
X117706Y273272D03*
D51*
X172300Y258383D01*
X205740Y253238D01*
D53*
X294302Y269228D03*
D51*
X225250Y253238D02*
X205740Y253238D01*
X225250Y253238D02*
X252179Y256910D01*
X288195Y263120D01*
X294302Y269228D01*
X305272Y280198D01*
D53*
X439332Y312633D03*
D51*
X427097Y316225D01*
X303401Y687746D02*
X303401Y755199D01*
X309090Y760887D01*
D53*
X309090Y760887D03*
X428308Y570814D03*
D51*
X423845Y570814D01*
X416162Y578498D02*
X366909Y578498D01*
X330324Y615082D01*
X416162Y578498D02*
X423845Y570814D01*
X309090Y760887D02*
X322581Y774379D01*
X571179Y774379D01*
X314162Y280198D02*
X305272Y280198D01*
X314162Y280198D02*
X317363Y276997D01*
X330485Y276997D02*
X337581Y278983D01*
X330485Y276997D02*
X317363Y276997D01*
X337581Y278983D02*
X370840Y289560D01*
X388788Y296290D01*
X388860Y296431D01*
X393009Y297987D01*
X410973Y305944D01*
X412808Y307259D01*
X421448Y313938D01*
X421644Y313938D02*
X422311Y314605D01*
X421644Y313938D02*
X421448Y313938D01*
X422311Y314605D02*
X427097Y316225D01*
X571179Y774379D02*
X575700Y777240D01*
D53*
X446516Y980756D03*
D51*
X389264Y893024D02*
X380194Y893024D01*
D53*
X380194Y893024D03*
D51*
X389264Y893024D02*
X416149Y866140D01*
X453489Y866140D01*
X453725Y866376D01*
X490058Y866376D02*
X521027Y835407D01*
D53*
X521027Y835407D03*
D51*
X490058Y866376D02*
X453725Y866376D01*
D53*
X258550Y875756D03*
D51*
X570926Y756920D02*
X575700Y756920D01*
X570926Y756920D02*
X570548Y756541D01*
D53*
X570548Y756541D03*
D51*
X380194Y893024D02*
X373324Y899895D01*
X373324Y908558D01*
X414049Y931306D02*
X419806Y937063D01*
X421228Y939389D02*
X446516Y980756D01*
X421228Y939389D02*
X419806Y937063D01*
X414049Y931306D02*
X374783Y910017D01*
X373324Y908558D01*
X374783Y910017D02*
X350641Y896928D01*
X325025Y883040D01*
X278928Y875756D02*
X258550Y875756D01*
X278928Y875756D02*
X303363Y874466D01*
X314347Y874466D01*
X321286Y881404D01*
X322962Y882137D02*
X325025Y883040D01*
X322962Y882137D02*
X322547Y882047D01*
X322465Y881920D01*
X321286Y881404D01*
D53*
X215561Y763585D03*
X67068Y502046D03*
D51*
X72746Y502046D01*
D53*
X371802Y843079D03*
D51*
X147485Y576784D02*
X72746Y502046D01*
X252730Y784765D02*
X313488Y784765D01*
X348816Y820093D01*
D53*
X846672Y567611D03*
D51*
X936160Y672843D01*
D53*
X936160Y672843D03*
X217366Y788386D03*
D51*
X252730Y784765D01*
D53*
X367310Y885344D03*
X461516Y980756D03*
D51*
X485632Y980756D01*
X515620Y977900D01*
D53*
X552843Y967294D03*
D51*
X530883Y977900D02*
X515620Y977900D01*
X530883Y977900D02*
X546366Y973771D01*
X552843Y967294D01*
D53*
X608330Y836930D03*
D51*
X593480Y836930D01*
X575700Y819150D01*
X217366Y802819D02*
X217366Y788386D01*
X217366Y802819D02*
X229330Y833271D01*
X243438Y860658D01*
X249936Y867156D01*
X215561Y763585D02*
X199390Y676910D01*
X187960Y642620D01*
X181294Y631860D01*
X181212Y631614D01*
X355600Y843079D02*
X371802Y843079D01*
X355600Y843079D02*
X348816Y836294D01*
X348816Y820093D01*
X181212Y631614D02*
X147485Y576784D01*
D53*
X147485Y576784D03*
D51*
X261379Y868926D02*
X264145Y871692D01*
X261379Y868926D02*
X249936Y867156D01*
X362669Y889984D02*
X367310Y885344D01*
X362669Y889984D02*
X346360Y889984D01*
X326560Y879249D01*
X301592Y870489D02*
X278821Y871692D01*
X301592Y870489D02*
X302017Y870065D01*
X309284Y870065D02*
X310476Y869791D01*
X310913Y870065D01*
X324231Y877792D02*
X324710Y877896D01*
X325056Y878434D01*
X326560Y879249D01*
X316504Y870065D02*
X310913Y870065D01*
X316504Y870065D02*
X324231Y877792D01*
X309284Y870065D02*
X302017Y870065D01*
X326560Y879249D02*
X326560Y879249D01*
X278821Y871692D02*
X264145Y871692D01*
X560070Y834780D02*
X575700Y819150D01*
X560070Y834780D02*
X560070Y855980D01*
D53*
X560070Y855980D03*
X217623Y778443D03*
D51*
X321818Y778443D02*
X470408Y778443D01*
D53*
X531689Y824857D03*
X649343Y920644D03*
X780923Y860822D03*
X567173Y962858D03*
D51*
X649343Y920644D02*
X649343Y914400D01*
X603938Y947261D02*
X567173Y962858D01*
X603938Y947261D02*
X649343Y920644D01*
D53*
X902607Y891977D03*
D51*
X785214Y865113D02*
X780923Y860822D01*
X838886Y879840D02*
X902607Y891977D01*
X791210Y865113D02*
X785214Y865113D01*
X794495Y866128D02*
X838886Y879840D01*
X794495Y866128D02*
X794350Y865964D01*
X793865Y865933D01*
X791210Y865113D01*
D53*
X977885Y789252D03*
D51*
X906096Y891977D02*
X902607Y891977D01*
X649343Y920644D02*
X580284Y920644D01*
X540486Y880846D01*
D53*
X637540Y726830D03*
D51*
X664534Y905318D02*
X664570Y905354D01*
X658425Y905318D02*
X649343Y914400D01*
X658425Y905318D02*
X664534Y905318D01*
X217623Y778984D02*
X217623Y778443D01*
X217623Y778984D02*
X222423Y783783D01*
X223622Y783632D01*
X313436Y780701D02*
X321818Y778443D01*
X254175Y780701D02*
X253991Y780550D01*
X252523Y780701D01*
X251047Y780701D01*
X250878Y780869D01*
X224309Y783590D01*
X223622Y783632D01*
X254175Y780701D02*
X313436Y780701D01*
X973588Y850923D02*
X974033Y848089D01*
X975069Y840488D01*
X974916Y818668D01*
X972049Y807049D02*
X972049Y801390D01*
X977885Y795554D02*
X977885Y789252D01*
X977885Y795554D02*
X972049Y801390D01*
X974854Y809854D02*
X974916Y818668D01*
X974854Y809854D02*
X972049Y807049D01*
X973588Y850923D02*
X972349Y852204D01*
X953819Y867686D01*
X953701Y867681D01*
X952540Y868754D01*
X951327Y869768D01*
X951316Y869886D01*
X935570Y884447D01*
X920334Y883397D02*
X914676Y883397D01*
X921384Y884447D02*
X935570Y884447D01*
X921384Y884447D02*
X920334Y883397D01*
X914676Y883397D02*
X906096Y891977D01*
X768770Y853260D02*
X763112Y853260D01*
X760346Y856026D01*
X776333Y860822D02*
X780923Y860822D01*
X776333Y860822D02*
X768770Y853260D01*
X760346Y856026D02*
X720104Y856026D01*
X683417Y892713D01*
X664570Y905354D01*
X540486Y788577D02*
X530352Y778443D01*
X470408Y778443D01*
X540486Y824738D02*
X540486Y880846D01*
X540486Y824738D02*
X540486Y788577D01*
X540486Y824738D02*
X531689Y824857D01*
D53*
X308838Y272932D03*
X425140Y307775D03*
D51*
X344094Y276587D02*
X331043Y272932D01*
X344094Y276587D02*
X345098Y276875D01*
X345100Y276879D01*
X373934Y285167D01*
X377362Y286610D01*
X331043Y272932D02*
X308838Y272932D01*
X392601Y293361D02*
X425140Y307775D01*
X392601Y293361D02*
X391702Y293073D01*
X391628Y292930D01*
X377362Y286610D01*
D53*
X23244Y354787D03*
X222250Y664094D03*
D51*
X222250Y635000D01*
D53*
X584638Y370092D03*
X734765Y469395D03*
D51*
X730074Y464703D01*
X734765Y469395D02*
X834932Y558273D01*
D53*
X945104Y684885D03*
X834932Y558273D03*
D51*
X840350Y563690D01*
D53*
X765941Y860090D03*
X661705Y912148D03*
D51*
X685776Y896101D01*
X721787Y860090D02*
X765941Y860090D01*
X721787Y860090D02*
X685776Y896101D01*
D53*
X779874Y850115D03*
D51*
X779874Y849630D01*
D53*
X310231Y644834D03*
X222250Y635000D03*
D51*
X575700Y736600D02*
X577850Y736600D01*
X575700Y736600D02*
X575310Y736600D01*
X777448Y721337D02*
X874319Y624467D01*
X777448Y721337D02*
X777448Y740664D01*
X777448Y741888D01*
X622300Y692150D02*
X577850Y736600D01*
X622300Y692150D02*
X623570Y692150D01*
X633730Y681990D01*
X717550Y681990D01*
X777448Y741888D01*
X939891Y679673D02*
X945104Y684885D01*
X939891Y679673D02*
X933331Y679673D01*
X924389Y670731D01*
X874319Y624467D02*
X874319Y624282D01*
X876129Y622471D01*
X840350Y564274D02*
X840350Y563690D01*
X840350Y564274D02*
X839842Y564782D01*
X839842Y572475D01*
X876129Y608763D01*
X877484Y610117D01*
X924389Y665274D01*
X924389Y670731D01*
X876129Y622471D02*
X876129Y608763D01*
X777448Y741888D02*
X759460Y759876D01*
X759460Y810768D01*
X575310Y736600D02*
X542290Y769620D01*
X222250Y635000D02*
X23244Y435994D01*
X23244Y354787D01*
X621055Y384421D02*
X698710Y432047D01*
X731404Y458972D01*
X730074Y464703D01*
X621055Y384421D02*
X620988Y384421D01*
X595221Y369978D02*
X595107Y370092D01*
X584638Y370092D01*
X606545Y369978D02*
X620988Y384421D01*
X606545Y369978D02*
X595221Y369978D01*
X759460Y810768D02*
X769794Y821102D01*
X315920Y761970D02*
X315920Y758058D01*
X311919Y754057D01*
X310190Y754057D01*
X307465Y751332D01*
X315920Y761970D02*
X323570Y769620D01*
X307465Y751332D02*
X307465Y693341D01*
X310231Y690575D01*
X310231Y684917D01*
X307465Y682151D01*
X307465Y647600D01*
X310231Y644834D01*
X323570Y769620D02*
X542290Y769620D01*
X769794Y848536D02*
X773683Y852425D01*
X777079Y852425D01*
X779874Y849630D01*
X769794Y848536D02*
X769794Y821102D01*
X664210Y800100D02*
X653394Y792450D01*
D53*
X664210Y800100D03*
X673806Y798830D03*
D51*
X653846Y787902D02*
X653394Y787450D01*
X672599Y798830D02*
X673806Y798830D01*
X661671Y787902D02*
X653846Y787902D01*
X661671Y787902D02*
X672599Y798830D01*
D53*
X683402Y798830D03*
D51*
X653846Y782902D02*
X653394Y782450D01*
X680636Y796001D02*
X680636Y796064D01*
X683402Y798830D01*
X667537Y782902D02*
X653846Y782902D01*
X667537Y782902D02*
X680636Y796001D01*
D53*
X695867Y834012D03*
D55*
X507862Y722271D02*
X409732Y639929D01*
X580868Y531011D02*
X482738Y448669D01*
X580868Y531011D02*
X409732Y639929D01*
D51*
X608660Y768716D02*
X612394Y772450D01*
X592700Y742110D02*
X592700Y736600D01*
X608660Y758070D02*
X608660Y768716D01*
X608660Y758070D02*
X592700Y742110D01*
X592700Y756920D02*
X592700Y757756D01*
X611942Y776998D02*
X612394Y777450D01*
X611942Y776998D02*
X606382Y776998D01*
X604596Y775213D01*
X604596Y769652D02*
X592700Y757756D01*
X604596Y769652D02*
X604596Y775213D01*
X597910Y782450D02*
X612394Y782450D01*
X597910Y782450D02*
X592700Y777240D01*
X604080Y787450D02*
X612394Y787450D01*
X604080Y787450D02*
X592700Y798830D01*
X612394Y799456D02*
X592700Y819150D01*
X612394Y799456D02*
X612394Y792450D01*
X637894Y761950D02*
X637540Y761596D01*
X637540Y743830D01*
D55*
X177008Y444651D02*
X78878Y362309D01*
D52*
X177008Y444651D02*
X295910Y325748D01*
X349724Y325748D01*
X356953Y322979D01*
X322243Y364345D01*
D51*
X642894Y761950D02*
X672892Y761950D01*
X694690Y781122D01*
D52*
X382216Y432308D02*
X378033Y428991D01*
X376104Y339048D01*
X341394Y380415D01*
D51*
X580898Y798576D02*
X588518Y798576D01*
X588010Y777240D02*
X580136Y777240D01*
X580136Y756666D02*
X588010Y756666D01*
X587756Y736346D02*
X580136Y736346D01*
X580136Y819150D02*
X587756Y819150D01*
M02*
