G04 EAGLE Gerber RS-274X export*
G75*
%MOMM*%
%FSLAX34Y34*%
%LPD*%
%INSolder Mask bottom*%
%IPPOS*%
%AMOC8*
5,1,8,0,0,1.08239X$1,22.5*%
G01*
%ADD10C,0.152400*%
%ADD11R,1.050000X0.350000*%
%ADD12R,0.350000X1.050000*%
%ADD13R,2.703200X4.203200*%
%ADD14R,5.703200X4.203200*%
%ADD15R,1.203200X1.303200*%
%ADD16R,1.303200X1.203200*%
%ADD17R,2.753200X2.703200*%
%ADD18R,2.503200X1.803200*%
%ADD19C,1.727200*%
%ADD20R,1.003200X0.803200*%
%ADD21R,1.403200X2.703200*%
%ADD22C,0.959600*%

G36*
X644918Y769705D02*
X644918Y769705D01*
X644943Y769702D01*
X645038Y769725D01*
X645135Y769740D01*
X645156Y769752D01*
X645180Y769758D01*
X645264Y769809D01*
X645350Y769855D01*
X645367Y769873D01*
X645388Y769886D01*
X645450Y769962D01*
X645517Y770034D01*
X645527Y770056D01*
X645543Y770075D01*
X645577Y770166D01*
X645618Y770256D01*
X645620Y770280D01*
X645629Y770303D01*
X645643Y770450D01*
X645643Y794450D01*
X645641Y794465D01*
X645642Y794475D01*
X645640Y794482D01*
X645642Y794499D01*
X645620Y794594D01*
X645604Y794691D01*
X645592Y794712D01*
X645586Y794736D01*
X645535Y794820D01*
X645489Y794906D01*
X645471Y794923D01*
X645458Y794944D01*
X645382Y795006D01*
X645311Y795073D01*
X645288Y795083D01*
X645269Y795099D01*
X645178Y795133D01*
X645088Y795174D01*
X645064Y795176D01*
X645041Y795185D01*
X644894Y795199D01*
X620894Y795199D01*
X620870Y795195D01*
X620845Y795198D01*
X620750Y795176D01*
X620653Y795160D01*
X620632Y795148D01*
X620608Y795142D01*
X620524Y795091D01*
X620438Y795045D01*
X620421Y795027D01*
X620400Y795014D01*
X620338Y794938D01*
X620271Y794867D01*
X620261Y794844D01*
X620246Y794825D01*
X620211Y794734D01*
X620170Y794644D01*
X620168Y794620D01*
X620159Y794597D01*
X620145Y794450D01*
X620145Y772950D01*
X620159Y772861D01*
X620166Y772772D01*
X620179Y772742D01*
X620184Y772709D01*
X620227Y772630D01*
X620262Y772547D01*
X620284Y772523D01*
X620299Y772494D01*
X620365Y772433D01*
X620425Y772366D01*
X620454Y772350D01*
X620478Y772327D01*
X620559Y772290D01*
X620638Y772246D01*
X620681Y772235D01*
X620700Y772226D01*
X620723Y772224D01*
X620781Y772209D01*
X621327Y772126D01*
X621748Y771946D01*
X622110Y771666D01*
X622390Y771304D01*
X622570Y770883D01*
X622653Y770337D01*
X622681Y770251D01*
X622702Y770164D01*
X622719Y770136D01*
X622729Y770105D01*
X622783Y770033D01*
X622830Y769956D01*
X622856Y769936D01*
X622875Y769909D01*
X622949Y769859D01*
X623019Y769802D01*
X623049Y769790D01*
X623076Y769771D01*
X623163Y769747D01*
X623247Y769715D01*
X623292Y769711D01*
X623311Y769705D01*
X623335Y769707D01*
X623394Y769701D01*
X644894Y769701D01*
X644918Y769705D01*
G37*
D10*
X201930Y241300D02*
X135890Y251460D01*
X107950Y259080D01*
X90170Y267970D01*
X72390Y279400D01*
X50800Y294640D01*
X34290Y308610D01*
X20320Y327660D01*
X12700Y340360D01*
X7620Y350520D01*
X3810Y361950D01*
X2540Y369570D01*
X2540Y378460D01*
X3810Y398780D01*
X7620Y424180D01*
X12700Y447040D01*
X29210Y478790D01*
X52070Y510540D01*
X81280Y541020D01*
X106680Y558800D01*
X127000Y577850D01*
X146050Y599440D01*
X171450Y640080D01*
X176530Y655320D01*
X186690Y689610D01*
X193040Y711200D01*
X196850Y735330D01*
X199390Y760730D01*
X200660Y774700D01*
X204470Y802640D01*
X218440Y838200D01*
X240030Y880110D01*
X259080Y905510D01*
X285750Y929640D01*
X325120Y957580D01*
X340360Y965200D01*
X375920Y980440D01*
X402590Y990600D01*
X422910Y995680D01*
X448310Y996950D01*
X476250Y995680D01*
X529590Y990600D01*
X567690Y980440D01*
X609600Y962660D01*
X646430Y941070D01*
X680720Y918210D01*
X732790Y881380D02*
X749300Y878840D01*
X768350Y876300D01*
X788670Y877570D01*
X812800Y885190D01*
X838200Y896620D01*
X849630Y901700D01*
X876300Y906780D01*
X895350Y908050D01*
X927100Y905510D01*
X944880Y900430D01*
X963930Y887730D01*
X976630Y876300D01*
X984250Y867410D01*
X990600Y853440D01*
X994410Y835660D01*
X995680Y816610D01*
X994410Y791210D01*
X990600Y753110D01*
X986790Y735330D01*
X975360Y711200D01*
X961390Y681990D01*
X942340Y652780D01*
X915670Y622300D01*
X875030Y575310D01*
X821690Y518160D01*
X773430Y474980D01*
X734060Y444500D01*
X721360Y434340D01*
X716280Y430530D01*
X716280Y421640D01*
X717550Y398780D01*
X723900Y363220D01*
X730250Y332740D01*
X739140Y303530D01*
X749300Y276860D01*
X760730Y252730D01*
X765810Y237490D01*
X769620Y223520D01*
X773430Y205740D01*
X778510Y173990D01*
X777240Y156210D01*
X772160Y129540D01*
X762000Y107950D01*
X749300Y96520D01*
X732790Y92710D01*
X725170Y86360D01*
X708660Y68580D01*
X697230Y58420D01*
X680720Y41910D01*
X668020Y30480D01*
X654050Y21590D01*
X647700Y17780D01*
X635000Y11430D01*
X621030Y5080D01*
X600710Y2540D01*
X584200Y3810D01*
X568960Y6350D01*
X557530Y7620D01*
X537210Y15240D01*
X532130Y17780D01*
X528320Y21590D01*
X521970Y29210D01*
X518160Y34290D01*
X513080Y39370D01*
X509270Y41910D01*
X504190Y44450D01*
X496570Y46990D01*
X485140Y49530D01*
X476250Y50800D01*
X461010Y54610D01*
X449580Y59690D01*
X441960Y66040D01*
X429260Y81280D01*
X421640Y96520D01*
X420370Y111760D01*
X421640Y121920D01*
X426720Y134620D01*
X441960Y170180D01*
X447040Y180340D01*
X450850Y195580D01*
X452120Y207010D01*
X454660Y223520D01*
X454660Y254000D01*
X453390Y265430D01*
X450850Y280670D01*
X447040Y287020D01*
X443230Y292100D01*
X438150Y294640D01*
X436880Y294640D01*
X431800Y293370D01*
X400050Y283210D01*
X375920Y273050D01*
X353060Y266700D01*
X321310Y257810D01*
X290830Y251460D01*
X254000Y245110D01*
X226060Y241300D01*
X201930Y241300D01*
X303530Y925830D02*
X327660Y941070D01*
X347980Y952500D01*
X361950Y958850D01*
X372110Y962660D01*
X384810Y963930D01*
X396240Y962660D01*
X398780Y961390D01*
X408686Y944118D01*
X303276Y886968D01*
X293370Y905510D01*
X294640Y911860D01*
X298450Y919480D01*
X303530Y925830D01*
X736600Y896620D02*
X772160Y897890D01*
X697230Y932180D02*
X689610Y938530D01*
X713740Y979170D01*
X795020Y939800D01*
X772160Y897890D01*
X687070Y913130D02*
X680720Y918210D01*
X687070Y913130D02*
X699770Y929640D01*
X697230Y932180D01*
X736600Y896620D02*
X732790Y881380D01*
D11*
X612394Y772450D03*
X612394Y777450D03*
X612394Y782450D03*
X612394Y787450D03*
X612394Y792450D03*
D12*
X622894Y802950D03*
X627894Y802950D03*
X632894Y802950D03*
X637894Y802950D03*
X642894Y802950D03*
D11*
X653394Y792450D03*
X653394Y787450D03*
X653394Y782450D03*
X653394Y777450D03*
X653394Y772450D03*
D12*
X642894Y761950D03*
X637894Y761950D03*
X632894Y761950D03*
X627894Y761950D03*
X622894Y761950D03*
D13*
G36*
X71467Y338447D02*
X54091Y359155D01*
X86289Y386171D01*
X103665Y365463D01*
X71467Y338447D01*
G37*
D14*
G36*
X179238Y409298D02*
X142580Y452986D01*
X174778Y480004D01*
X211436Y436316D01*
X179238Y409298D01*
G37*
G36*
X407502Y675282D02*
X444160Y631594D01*
X411962Y604576D01*
X375304Y648264D01*
X407502Y675282D01*
G37*
D13*
G36*
X515273Y746133D02*
X532649Y725425D01*
X500451Y698409D01*
X483075Y719117D01*
X515273Y746133D01*
G37*
G36*
X475327Y424807D02*
X457951Y445515D01*
X490149Y472531D01*
X507525Y451823D01*
X475327Y424807D01*
G37*
D14*
G36*
X583098Y495658D02*
X546440Y539346D01*
X578638Y566364D01*
X615296Y522676D01*
X583098Y495658D01*
G37*
G36*
X811362Y761642D02*
X848020Y717954D01*
X815822Y690936D01*
X779164Y734624D01*
X811362Y761642D01*
G37*
D13*
G36*
X919133Y832493D02*
X936509Y811785D01*
X904311Y784769D01*
X886935Y805477D01*
X919133Y832493D01*
G37*
D15*
X592700Y819150D03*
X575700Y819150D03*
X592700Y798830D03*
X575700Y798830D03*
X592700Y777240D03*
X575700Y777240D03*
X592700Y756920D03*
X575700Y756920D03*
X592700Y736600D03*
X575700Y736600D03*
D16*
X637540Y743830D03*
X637540Y726830D03*
D15*
X638810Y823350D03*
X638810Y840350D03*
D17*
X627230Y881380D03*
X576730Y881380D03*
D18*
G36*
X679307Y779984D02*
X698482Y796073D01*
X710073Y782260D01*
X690898Y766171D01*
X679307Y779984D01*
G37*
G36*
X727567Y820480D02*
X746742Y836569D01*
X758333Y822756D01*
X739158Y806667D01*
X727567Y820480D01*
G37*
D19*
X761011Y917837D02*
X767811Y931476D01*
X745080Y942809D02*
X738280Y929171D01*
X715549Y940504D02*
X722349Y954143D01*
D20*
X407216Y432308D03*
X382216Y432308D03*
D15*
G36*
X691641Y821960D02*
X682425Y814226D01*
X674049Y824208D01*
X683265Y831942D01*
X691641Y821960D01*
G37*
G36*
X704663Y832888D02*
X695447Y825154D01*
X687071Y835136D01*
X696287Y842870D01*
X704663Y832888D01*
G37*
D21*
G36*
X362042Y344892D02*
X372791Y353911D01*
X390166Y333204D01*
X379417Y324185D01*
X362042Y344892D01*
G37*
G36*
X342891Y328823D02*
X353640Y337842D01*
X371015Y317135D01*
X360266Y308116D01*
X342891Y328823D01*
G37*
G36*
X323740Y312753D02*
X334489Y321772D01*
X351864Y301065D01*
X341115Y292046D01*
X323740Y312753D01*
G37*
G36*
X289030Y354120D02*
X299779Y363139D01*
X317154Y342432D01*
X306405Y333413D01*
X289030Y354120D01*
G37*
G36*
X308181Y370189D02*
X318930Y379208D01*
X336305Y358501D01*
X325556Y349482D01*
X308181Y370189D01*
G37*
G36*
X327332Y386259D02*
X338081Y395278D01*
X355456Y374571D01*
X344707Y365552D01*
X327332Y386259D01*
G37*
D22*
X707392Y697232D03*
X405332Y322580D03*
X255270Y725170D03*
X576580Y881380D03*
X356870Y869950D03*
X426720Y904240D03*
X502920Y911860D03*
X789940Y734060D03*
X783590Y803910D03*
X816610Y854710D03*
X651510Y589280D03*
X257810Y803910D03*
X359250Y834865D03*
X456554Y859546D03*
X413332Y571668D03*
X722243Y461137D03*
X917505Y890227D03*
X978879Y804220D03*
X582899Y807751D03*
X652388Y880748D03*
X760730Y842010D03*
X598050Y376808D03*
X330324Y615082D03*
X303401Y687746D03*
X117706Y273272D03*
X294302Y269228D03*
X439332Y312633D03*
X309090Y760887D03*
X428308Y570814D03*
X446516Y980756D03*
X380194Y893024D03*
X521027Y835407D03*
X258550Y875756D03*
X570548Y756541D03*
X215561Y763585D03*
X67068Y502046D03*
X371802Y843079D03*
X846672Y567611D03*
X936160Y672843D03*
X217366Y788386D03*
X367310Y885344D03*
X461516Y980756D03*
X552843Y967294D03*
X608330Y836930D03*
X147485Y576784D03*
X560070Y855980D03*
X217623Y778443D03*
X531689Y824857D03*
X649343Y920644D03*
X780923Y860822D03*
X567173Y962858D03*
X902607Y891977D03*
X977885Y789252D03*
X637540Y726830D03*
X308838Y272932D03*
X425140Y307775D03*
X23244Y354787D03*
X222250Y664094D03*
X584638Y370092D03*
X734765Y469395D03*
X945104Y684885D03*
X834932Y558273D03*
X765941Y860090D03*
X661705Y912148D03*
X779874Y850115D03*
X310231Y644834D03*
X222250Y635000D03*
X664210Y800100D03*
X673806Y798830D03*
X683402Y798830D03*
X695867Y834012D03*
M02*
