G04 EAGLE Gerber RS-274X export*
G75*
%MOMM*%
%FSLAX34Y34*%
%LPD*%
%INSilk bottom*%
%IPPOS*%
%AMOC8*
5,1,8,0,0,1.08239X$1,22.5*%
G01*
%ADD10C,0.152400*%
%ADD11C,0.406400*%
%ADD12C,0.203200*%
%ADD13C,0.254000*%
%ADD14C,0.127000*%
%ADD15C,0.101600*%
%ADD16R,0.600000X1.100000*%


D10*
X201930Y241300D02*
X135890Y251460D01*
X107950Y259080D01*
X90170Y267970D01*
X72390Y279400D01*
X50800Y294640D01*
X34290Y308610D01*
X20320Y327660D01*
X12700Y340360D01*
X7620Y350520D01*
X3810Y361950D01*
X2540Y369570D01*
X2540Y378460D01*
X3810Y398780D01*
X7620Y424180D01*
X12700Y447040D01*
X29210Y478790D01*
X52070Y510540D01*
X81280Y541020D01*
X106680Y558800D01*
X127000Y577850D01*
X146050Y599440D01*
X171450Y640080D01*
X176530Y655320D01*
X186690Y689610D01*
X193040Y711200D01*
X196850Y735330D01*
X199390Y760730D01*
X200660Y774700D01*
X204470Y802640D01*
X218440Y838200D01*
X240030Y880110D01*
X259080Y905510D01*
X285750Y929640D01*
X325120Y957580D01*
X340360Y965200D01*
X375920Y980440D01*
X402590Y990600D01*
X422910Y995680D01*
X448310Y996950D01*
X476250Y995680D01*
X529590Y990600D01*
X567690Y980440D01*
X609600Y962660D01*
X646430Y941070D01*
X680720Y918210D01*
X732790Y881380D02*
X749300Y878840D01*
X768350Y876300D01*
X788670Y877570D01*
X812800Y885190D01*
X838200Y896620D01*
X849630Y901700D01*
X876300Y906780D01*
X895350Y908050D01*
X927100Y905510D01*
X944880Y900430D01*
X963930Y887730D01*
X976630Y876300D01*
X984250Y867410D01*
X990600Y853440D01*
X994410Y835660D01*
X995680Y816610D01*
X994410Y791210D01*
X990600Y753110D01*
X986790Y735330D01*
X975360Y711200D01*
X961390Y681990D01*
X942340Y652780D01*
X915670Y622300D01*
X875030Y575310D01*
X821690Y518160D01*
X773430Y474980D01*
X734060Y444500D01*
X721360Y434340D01*
X716280Y430530D01*
X716280Y421640D01*
X717550Y398780D01*
X723900Y363220D01*
X730250Y332740D01*
X739140Y303530D01*
X749300Y276860D01*
X760730Y252730D01*
X765810Y237490D01*
X769620Y223520D01*
X773430Y205740D01*
X778510Y173990D01*
X777240Y156210D01*
X772160Y129540D01*
X762000Y107950D01*
X749300Y96520D01*
X732790Y92710D01*
X725170Y86360D01*
X708660Y68580D01*
X697230Y58420D01*
X680720Y41910D01*
X668020Y30480D01*
X654050Y21590D01*
X647700Y17780D01*
X635000Y11430D01*
X621030Y5080D01*
X600710Y2540D01*
X584200Y3810D01*
X568960Y6350D01*
X557530Y7620D01*
X537210Y15240D01*
X532130Y17780D01*
X528320Y21590D01*
X521970Y29210D01*
X518160Y34290D01*
X513080Y39370D01*
X509270Y41910D01*
X504190Y44450D01*
X496570Y46990D01*
X485140Y49530D01*
X476250Y50800D01*
X461010Y54610D01*
X449580Y59690D01*
X441960Y66040D01*
X429260Y81280D01*
X421640Y96520D01*
X420370Y111760D01*
X421640Y121920D01*
X426720Y134620D01*
X441960Y170180D01*
X447040Y180340D01*
X450850Y195580D01*
X452120Y207010D01*
X454660Y223520D01*
X454660Y254000D01*
X453390Y265430D01*
X450850Y280670D01*
X447040Y287020D01*
X443230Y292100D01*
X438150Y294640D01*
X436880Y294640D01*
X431800Y293370D01*
X400050Y283210D01*
X375920Y273050D01*
X353060Y266700D01*
X321310Y257810D01*
X290830Y251460D01*
X254000Y245110D01*
X226060Y241300D01*
X201930Y241300D01*
X303530Y925830D02*
X327660Y941070D01*
X347980Y952500D01*
X361950Y958850D01*
X372110Y962660D01*
X384810Y963930D01*
X396240Y962660D01*
X398780Y961390D01*
X408686Y944118D01*
X303276Y886968D01*
X293370Y905510D01*
X294640Y911860D01*
X298450Y919480D01*
X303530Y925830D01*
X736600Y896620D02*
X772160Y897890D01*
X697230Y932180D02*
X689610Y938530D01*
X713740Y979170D01*
X795020Y939800D01*
X772160Y897890D01*
X687070Y913130D02*
X680720Y918210D01*
X687070Y913130D02*
X699770Y929640D01*
X697230Y932180D01*
X736600Y896620D02*
X732790Y881380D01*
D11*
X319000Y429000D02*
X298000Y411000D01*
X306000Y428000D02*
X319000Y429000D01*
X317000Y417000D02*
X306000Y428000D01*
X319000Y429000D02*
X317000Y417000D01*
X276000Y396000D02*
X255000Y378000D01*
X268000Y379000D01*
X257000Y390000D01*
X255000Y378000D01*
D12*
X613910Y763466D02*
X613910Y769434D01*
X613910Y763466D02*
X619878Y763466D01*
X619878Y801434D02*
X613910Y801434D01*
X613910Y795466D01*
X651878Y795466D02*
X651878Y801434D01*
X645910Y801434D01*
X645910Y763466D02*
X651878Y763466D01*
X651878Y769434D01*
D13*
X616206Y681836D02*
X606046Y678450D01*
X606046Y685223D02*
X616206Y681836D01*
X608586Y684376D02*
X608586Y679296D01*
X606046Y692504D02*
X616206Y692504D01*
X616206Y689682D02*
X616206Y695326D01*
X616206Y702410D02*
X606046Y702410D01*
X616206Y699588D02*
X616206Y705232D01*
X616206Y710792D02*
X606046Y710792D01*
X606046Y709663D02*
X606046Y711921D01*
X616206Y711921D02*
X616206Y709663D01*
X616206Y717495D02*
X606046Y717495D01*
X606046Y723139D02*
X616206Y717495D01*
X616206Y723139D02*
X606046Y723139D01*
X611408Y732128D02*
X616206Y728742D01*
X611408Y732128D02*
X616206Y735515D01*
X611408Y732128D02*
X606046Y732128D01*
X616206Y743840D02*
X616204Y743940D01*
X616198Y744039D01*
X616188Y744139D01*
X616175Y744237D01*
X616157Y744336D01*
X616136Y744433D01*
X616111Y744529D01*
X616082Y744625D01*
X616049Y744719D01*
X616013Y744812D01*
X615973Y744903D01*
X615929Y744993D01*
X615882Y745081D01*
X615832Y745167D01*
X615778Y745251D01*
X615721Y745333D01*
X615661Y745412D01*
X615597Y745490D01*
X615531Y745564D01*
X615462Y745636D01*
X615390Y745705D01*
X615316Y745771D01*
X615238Y745835D01*
X615159Y745895D01*
X615077Y745952D01*
X614993Y746006D01*
X614907Y746056D01*
X614819Y746103D01*
X614729Y746147D01*
X614638Y746187D01*
X614545Y746223D01*
X614451Y746256D01*
X614355Y746285D01*
X614259Y746310D01*
X614162Y746331D01*
X614063Y746349D01*
X613965Y746362D01*
X613865Y746372D01*
X613766Y746378D01*
X613666Y746380D01*
X616206Y743840D02*
X616204Y743729D01*
X616198Y743618D01*
X616189Y743508D01*
X616176Y743398D01*
X616159Y743288D01*
X616138Y743179D01*
X616114Y743071D01*
X616086Y742964D01*
X616055Y742857D01*
X616019Y742752D01*
X615981Y742648D01*
X615938Y742546D01*
X615893Y742445D01*
X615843Y742345D01*
X615791Y742248D01*
X615735Y742152D01*
X615676Y742058D01*
X615614Y741966D01*
X615549Y741876D01*
X615481Y741789D01*
X615409Y741704D01*
X615335Y741621D01*
X615259Y741541D01*
X615179Y741464D01*
X615097Y741389D01*
X615013Y741317D01*
X614926Y741248D01*
X614837Y741183D01*
X614745Y741120D01*
X614652Y741060D01*
X614556Y741004D01*
X614459Y740950D01*
X614360Y740901D01*
X614259Y740854D01*
X614157Y740811D01*
X614053Y740772D01*
X613948Y740736D01*
X611691Y745533D02*
X611761Y745605D01*
X611834Y745674D01*
X611910Y745740D01*
X611988Y745803D01*
X612068Y745863D01*
X612151Y745920D01*
X612235Y745975D01*
X612322Y746026D01*
X612410Y746074D01*
X612500Y746118D01*
X612591Y746159D01*
X612684Y746197D01*
X612779Y746232D01*
X612874Y746263D01*
X612971Y746290D01*
X613068Y746314D01*
X613167Y746334D01*
X613266Y746350D01*
X613365Y746363D01*
X613465Y746373D01*
X613566Y746378D01*
X613666Y746380D01*
X611690Y745534D02*
X606046Y740736D01*
X606046Y746380D01*
X611126Y752166D02*
X611326Y752168D01*
X611526Y752176D01*
X611725Y752187D01*
X611924Y752204D01*
X612123Y752226D01*
X612321Y752252D01*
X612519Y752283D01*
X612715Y752318D01*
X612911Y752359D01*
X613106Y752403D01*
X613300Y752453D01*
X613492Y752507D01*
X613683Y752566D01*
X613873Y752629D01*
X614061Y752697D01*
X614247Y752769D01*
X614432Y752846D01*
X614614Y752927D01*
X614795Y753013D01*
X614879Y753044D01*
X614961Y753078D01*
X615042Y753116D01*
X615122Y753157D01*
X615199Y753202D01*
X615274Y753249D01*
X615348Y753300D01*
X615419Y753355D01*
X615487Y753412D01*
X615554Y753472D01*
X615617Y753535D01*
X615678Y753600D01*
X615736Y753668D01*
X615791Y753738D01*
X615843Y753811D01*
X615891Y753886D01*
X615937Y753963D01*
X615979Y754041D01*
X616018Y754122D01*
X616053Y754204D01*
X616085Y754287D01*
X616113Y754372D01*
X616138Y754458D01*
X616158Y754545D01*
X616176Y754632D01*
X616189Y754721D01*
X616198Y754810D01*
X616204Y754899D01*
X616206Y754988D01*
X616204Y755077D01*
X616198Y755166D01*
X616189Y755255D01*
X616176Y755344D01*
X616158Y755431D01*
X616138Y755518D01*
X616113Y755604D01*
X616085Y755689D01*
X616053Y755772D01*
X616018Y755854D01*
X615979Y755935D01*
X615937Y756013D01*
X615891Y756090D01*
X615843Y756165D01*
X615791Y756238D01*
X615736Y756308D01*
X615678Y756376D01*
X615617Y756442D01*
X615553Y756504D01*
X615487Y756564D01*
X615419Y756621D01*
X615348Y756676D01*
X615274Y756727D01*
X615199Y756774D01*
X615122Y756819D01*
X615042Y756860D01*
X614961Y756898D01*
X614879Y756932D01*
X614795Y756963D01*
X614614Y757049D01*
X614431Y757130D01*
X614247Y757207D01*
X614060Y757279D01*
X613872Y757347D01*
X613683Y757410D01*
X613492Y757469D01*
X613299Y757523D01*
X613106Y757573D01*
X612911Y757617D01*
X612715Y757658D01*
X612519Y757693D01*
X612321Y757724D01*
X612123Y757750D01*
X611924Y757772D01*
X611725Y757789D01*
X611526Y757800D01*
X611326Y757808D01*
X611126Y757810D01*
X611126Y752166D02*
X610926Y752168D01*
X610726Y752176D01*
X610527Y752187D01*
X610328Y752204D01*
X610129Y752226D01*
X609931Y752252D01*
X609733Y752283D01*
X609537Y752318D01*
X609341Y752359D01*
X609146Y752403D01*
X608952Y752453D01*
X608760Y752507D01*
X608569Y752566D01*
X608379Y752629D01*
X608191Y752697D01*
X608005Y752769D01*
X607820Y752846D01*
X607638Y752927D01*
X607457Y753013D01*
X607373Y753044D01*
X607291Y753078D01*
X607210Y753116D01*
X607130Y753157D01*
X607053Y753202D01*
X606978Y753249D01*
X606904Y753301D01*
X606833Y753355D01*
X606765Y753412D01*
X606698Y753472D01*
X606635Y753535D01*
X606574Y753600D01*
X606516Y753668D01*
X606461Y753738D01*
X606409Y753811D01*
X606361Y753886D01*
X606315Y753963D01*
X606273Y754041D01*
X606234Y754122D01*
X606199Y754204D01*
X606167Y754287D01*
X606139Y754372D01*
X606114Y754458D01*
X606094Y754545D01*
X606076Y754632D01*
X606063Y754721D01*
X606054Y754810D01*
X606048Y754899D01*
X606046Y754988D01*
X607457Y756964D02*
X607638Y757050D01*
X607820Y757131D01*
X608005Y757208D01*
X608191Y757280D01*
X608379Y757348D01*
X608569Y757411D01*
X608760Y757470D01*
X608952Y757524D01*
X609146Y757574D01*
X609341Y757618D01*
X609537Y757659D01*
X609733Y757694D01*
X609931Y757725D01*
X610129Y757751D01*
X610328Y757773D01*
X610527Y757790D01*
X610726Y757801D01*
X610926Y757809D01*
X611126Y757811D01*
X607457Y756963D02*
X607373Y756932D01*
X607291Y756898D01*
X607210Y756860D01*
X607130Y756819D01*
X607053Y756774D01*
X606978Y756727D01*
X606904Y756676D01*
X606833Y756621D01*
X606765Y756564D01*
X606698Y756504D01*
X606635Y756441D01*
X606574Y756376D01*
X606516Y756308D01*
X606461Y756238D01*
X606409Y756165D01*
X606361Y756090D01*
X606315Y756013D01*
X606273Y755935D01*
X606234Y755854D01*
X606199Y755772D01*
X606167Y755689D01*
X606139Y755604D01*
X606114Y755518D01*
X606094Y755431D01*
X606076Y755344D01*
X606063Y755255D01*
X606054Y755166D01*
X606048Y755077D01*
X606046Y754988D01*
X608304Y752730D02*
X613948Y757246D01*
D14*
X543965Y648131D02*
X145621Y313882D01*
X543965Y648131D02*
X441119Y770698D01*
X42775Y436449D01*
X145621Y313882D01*
D13*
X321048Y572146D02*
X330173Y566539D01*
X324984Y562186D02*
X321048Y572146D01*
X327891Y567941D02*
X324000Y564676D01*
X321417Y559192D02*
X312292Y564798D01*
X316228Y554839D01*
X315244Y557329D02*
X319135Y560594D01*
X303412Y551453D02*
X301250Y549638D01*
X301170Y549568D01*
X301094Y549496D01*
X301019Y549421D01*
X300948Y549343D01*
X300880Y549263D01*
X300814Y549180D01*
X300752Y549095D01*
X300693Y549007D01*
X300638Y548917D01*
X300586Y548826D01*
X300537Y548732D01*
X300492Y548637D01*
X300450Y548540D01*
X300412Y548441D01*
X300378Y548341D01*
X300347Y548240D01*
X300321Y548138D01*
X300298Y548035D01*
X300279Y547931D01*
X300264Y547827D01*
X300253Y547722D01*
X300246Y547617D01*
X300242Y547511D01*
X300243Y547406D01*
X300247Y547300D01*
X300256Y547195D01*
X300268Y547090D01*
X300285Y546986D01*
X300305Y546882D01*
X300329Y546780D01*
X300357Y546678D01*
X300389Y546577D01*
X300424Y546478D01*
X300464Y546380D01*
X300506Y546283D01*
X300553Y546189D01*
X300603Y546096D01*
X300656Y546005D01*
X300713Y545916D01*
X300773Y545829D01*
X300836Y545744D01*
X300902Y545662D01*
X300972Y545582D01*
X301044Y545506D01*
X301119Y545431D01*
X301197Y545360D01*
X301277Y545292D01*
X301360Y545226D01*
X301445Y545164D01*
X301533Y545105D01*
X301623Y545050D01*
X301714Y544998D01*
X301808Y544949D01*
X301903Y544904D01*
X302000Y544862D01*
X302099Y544824D01*
X302199Y544790D01*
X302300Y544759D01*
X302402Y544733D01*
X302505Y544710D01*
X302609Y544691D01*
X302713Y544676D01*
X302818Y544665D01*
X302923Y544658D01*
X303029Y544654D01*
X303134Y544655D01*
X303240Y544659D01*
X303345Y544668D01*
X303450Y544680D01*
X303554Y544697D01*
X303658Y544717D01*
X303760Y544741D01*
X303862Y544769D01*
X303963Y544801D01*
X304062Y544836D01*
X304160Y544876D01*
X304257Y544918D01*
X304351Y544965D01*
X304444Y545015D01*
X304535Y545068D01*
X304624Y545125D01*
X304711Y545185D01*
X304796Y545248D01*
X304878Y545314D01*
X304878Y545315D02*
X307040Y547129D01*
X300509Y554912D01*
X298347Y553098D01*
X298276Y553036D01*
X298209Y552972D01*
X298144Y552905D01*
X298082Y552835D01*
X298023Y552763D01*
X297966Y552688D01*
X297913Y552612D01*
X297864Y552533D01*
X297817Y552452D01*
X297774Y552369D01*
X297734Y552285D01*
X297698Y552198D01*
X297666Y552111D01*
X297637Y552022D01*
X297612Y551932D01*
X297590Y551842D01*
X297573Y551750D01*
X297559Y551658D01*
X297549Y551565D01*
X297542Y551472D01*
X297540Y551378D01*
X297542Y551285D01*
X297547Y551192D01*
X297556Y551099D01*
X297569Y551007D01*
X297586Y550915D01*
X297607Y550824D01*
X297631Y550734D01*
X297659Y550645D01*
X297691Y550557D01*
X297726Y550470D01*
X297765Y550386D01*
X297807Y550302D01*
X297853Y550221D01*
X297902Y550142D01*
X297954Y550064D01*
X298010Y549989D01*
X298068Y549917D01*
X298130Y549846D01*
X298194Y549779D01*
X298261Y549714D01*
X298331Y549652D01*
X298403Y549593D01*
X298478Y549536D01*
X298554Y549483D01*
X298633Y549434D01*
X298714Y549387D01*
X298797Y549344D01*
X298881Y549304D01*
X298968Y549268D01*
X299055Y549236D01*
X299144Y549207D01*
X299234Y549182D01*
X299324Y549160D01*
X299416Y549143D01*
X299508Y549129D01*
X299601Y549119D01*
X299694Y549112D01*
X299788Y549110D01*
X299881Y549112D01*
X299974Y549117D01*
X300067Y549126D01*
X300159Y549139D01*
X300251Y549156D01*
X300342Y549177D01*
X300432Y549201D01*
X300521Y549229D01*
X300609Y549261D01*
X300696Y549296D01*
X300780Y549335D01*
X300864Y549377D01*
X300945Y549423D01*
X301024Y549472D01*
X301102Y549524D01*
X301177Y549580D01*
X301249Y549638D01*
X294980Y542167D02*
X293034Y540534D01*
X294980Y542168D02*
X295048Y542222D01*
X295119Y542274D01*
X295191Y542322D01*
X295266Y542368D01*
X295343Y542410D01*
X295422Y542448D01*
X295502Y542483D01*
X295583Y542514D01*
X295666Y542542D01*
X295750Y542566D01*
X295835Y542586D01*
X295921Y542602D01*
X296008Y542615D01*
X296095Y542624D01*
X296182Y542629D01*
X296269Y542630D01*
X296357Y542627D01*
X296444Y542620D01*
X296531Y542610D01*
X296617Y542596D01*
X296703Y542577D01*
X296787Y542556D01*
X296871Y542530D01*
X296953Y542501D01*
X297034Y542468D01*
X297114Y542431D01*
X297191Y542391D01*
X297267Y542348D01*
X297341Y542301D01*
X297413Y542251D01*
X297483Y542198D01*
X297550Y542142D01*
X297614Y542083D01*
X297676Y542022D01*
X297735Y541957D01*
X297791Y541890D01*
X297845Y541821D01*
X297895Y541749D01*
X297942Y541675D01*
X297985Y541600D01*
X298025Y541522D01*
X298062Y541443D01*
X298095Y541362D01*
X298124Y541279D01*
X298150Y541196D01*
X298172Y541111D01*
X298191Y541026D01*
X298205Y540940D01*
X298216Y540853D01*
X298223Y540766D01*
X298226Y540678D01*
X298225Y540591D01*
X298220Y540504D01*
X298212Y540417D01*
X298199Y540330D01*
X298183Y540244D01*
X298163Y540159D01*
X298139Y540075D01*
X298112Y539992D01*
X298081Y539910D01*
X298046Y539830D01*
X298008Y539751D01*
X297966Y539674D01*
X297921Y539599D01*
X297873Y539527D01*
X297821Y539456D01*
X297767Y539388D01*
X297709Y539322D01*
X297649Y539258D01*
X297586Y539198D01*
X297520Y539140D01*
X295574Y537508D01*
X292309Y541399D01*
X292309Y541400D02*
X292259Y541463D01*
X292212Y541528D01*
X292167Y541595D01*
X292127Y541665D01*
X292089Y541736D01*
X292055Y541809D01*
X292024Y541884D01*
X291998Y541960D01*
X291974Y542037D01*
X291955Y542115D01*
X291939Y542194D01*
X291927Y542274D01*
X291918Y542354D01*
X291914Y542434D01*
X291913Y542515D01*
X291916Y542595D01*
X291923Y542676D01*
X291934Y542756D01*
X291949Y542835D01*
X291967Y542913D01*
X291989Y542991D01*
X292015Y543067D01*
X292044Y543142D01*
X292077Y543216D01*
X292114Y543288D01*
X292153Y543358D01*
X292196Y543426D01*
X292243Y543492D01*
X292292Y543556D01*
X292344Y543617D01*
X292399Y543676D01*
X292457Y543732D01*
X292518Y543785D01*
X292517Y543785D02*
X294247Y545236D01*
X287579Y539641D02*
X284985Y537464D01*
X284537Y541510D02*
X289980Y535024D01*
X289980Y535023D02*
X290030Y534960D01*
X290077Y534895D01*
X290122Y534828D01*
X290162Y534758D01*
X290200Y534687D01*
X290234Y534614D01*
X290265Y534539D01*
X290291Y534463D01*
X290315Y534386D01*
X290334Y534308D01*
X290350Y534229D01*
X290362Y534149D01*
X290371Y534069D01*
X290375Y533989D01*
X290376Y533908D01*
X290373Y533828D01*
X290366Y533747D01*
X290355Y533667D01*
X290340Y533588D01*
X290322Y533510D01*
X290300Y533432D01*
X290274Y533356D01*
X290245Y533281D01*
X290212Y533207D01*
X290175Y533135D01*
X290136Y533065D01*
X290093Y532997D01*
X290046Y532931D01*
X289997Y532867D01*
X289945Y532806D01*
X289890Y532747D01*
X289832Y532691D01*
X289771Y532638D01*
X289339Y532275D01*
X282034Y534988D02*
X279439Y532811D01*
X278992Y536856D02*
X284434Y530371D01*
X284434Y530370D02*
X284484Y530307D01*
X284531Y530242D01*
X284576Y530175D01*
X284616Y530105D01*
X284654Y530034D01*
X284688Y529961D01*
X284719Y529886D01*
X284745Y529810D01*
X284769Y529733D01*
X284788Y529655D01*
X284804Y529576D01*
X284816Y529496D01*
X284825Y529416D01*
X284829Y529336D01*
X284830Y529255D01*
X284827Y529175D01*
X284820Y529094D01*
X284809Y529014D01*
X284794Y528935D01*
X284776Y528857D01*
X284754Y528779D01*
X284728Y528703D01*
X284699Y528628D01*
X284666Y528554D01*
X284629Y528482D01*
X284590Y528412D01*
X284547Y528344D01*
X284500Y528278D01*
X284451Y528214D01*
X284399Y528153D01*
X284344Y528094D01*
X284286Y528038D01*
X284225Y527985D01*
X284226Y527985D02*
X283793Y527622D01*
X278686Y523337D02*
X276524Y521523D01*
X278686Y523337D02*
X278747Y523390D01*
X278805Y523446D01*
X278860Y523505D01*
X278912Y523566D01*
X278961Y523630D01*
X279008Y523696D01*
X279051Y523764D01*
X279090Y523834D01*
X279127Y523906D01*
X279160Y523980D01*
X279189Y524055D01*
X279215Y524131D01*
X279237Y524209D01*
X279255Y524287D01*
X279270Y524367D01*
X279281Y524446D01*
X279288Y524527D01*
X279291Y524607D01*
X279290Y524688D01*
X279286Y524768D01*
X279277Y524848D01*
X279265Y524928D01*
X279249Y525007D01*
X279230Y525085D01*
X279206Y525162D01*
X279179Y525238D01*
X279149Y525313D01*
X279115Y525386D01*
X279077Y525457D01*
X279037Y525527D01*
X278992Y525594D01*
X278945Y525659D01*
X278895Y525722D01*
X277081Y527884D01*
X277019Y527955D01*
X276955Y528022D01*
X276888Y528087D01*
X276818Y528149D01*
X276746Y528208D01*
X276672Y528265D01*
X276595Y528318D01*
X276516Y528367D01*
X276435Y528414D01*
X276352Y528457D01*
X276268Y528497D01*
X276181Y528533D01*
X276094Y528565D01*
X276005Y528594D01*
X275915Y528619D01*
X275825Y528641D01*
X275733Y528658D01*
X275641Y528672D01*
X275548Y528682D01*
X275455Y528689D01*
X275361Y528691D01*
X275268Y528689D01*
X275175Y528684D01*
X275082Y528675D01*
X274990Y528662D01*
X274898Y528645D01*
X274807Y528624D01*
X274717Y528600D01*
X274628Y528572D01*
X274540Y528540D01*
X274453Y528505D01*
X274369Y528466D01*
X274285Y528424D01*
X274204Y528378D01*
X274125Y528329D01*
X274047Y528277D01*
X273972Y528221D01*
X273900Y528163D01*
X273829Y528101D01*
X273762Y528037D01*
X273697Y527970D01*
X273635Y527900D01*
X273576Y527828D01*
X273519Y527753D01*
X273466Y527677D01*
X273417Y527598D01*
X273370Y527517D01*
X273327Y527434D01*
X273287Y527350D01*
X273251Y527263D01*
X273219Y527176D01*
X273190Y527087D01*
X273165Y526997D01*
X273143Y526907D01*
X273126Y526815D01*
X273112Y526723D01*
X273102Y526630D01*
X273095Y526537D01*
X273093Y526443D01*
X273095Y526350D01*
X273100Y526257D01*
X273109Y526164D01*
X273122Y526072D01*
X273139Y525980D01*
X273160Y525889D01*
X273184Y525799D01*
X273212Y525710D01*
X273244Y525622D01*
X273279Y525535D01*
X273318Y525451D01*
X273360Y525367D01*
X273406Y525286D01*
X273455Y525207D01*
X273507Y525129D01*
X273563Y525054D01*
X273621Y524982D01*
X273622Y524982D02*
X274347Y524117D01*
X277806Y527020D01*
X272014Y517738D02*
X267660Y522927D01*
X265066Y520750D01*
X265791Y519885D01*
X268735Y510565D02*
X267870Y509840D01*
X258745Y515446D01*
X262204Y518348D02*
X264828Y511708D01*
X243966Y468316D02*
X236183Y461786D01*
X243966Y468316D02*
X242152Y470478D01*
X242082Y470558D01*
X242010Y470634D01*
X241935Y470709D01*
X241857Y470780D01*
X241777Y470848D01*
X241694Y470914D01*
X241609Y470976D01*
X241521Y471035D01*
X241431Y471090D01*
X241340Y471142D01*
X241246Y471191D01*
X241151Y471236D01*
X241054Y471278D01*
X240955Y471316D01*
X240855Y471350D01*
X240754Y471381D01*
X240652Y471407D01*
X240549Y471430D01*
X240445Y471449D01*
X240341Y471464D01*
X240236Y471475D01*
X240131Y471482D01*
X240025Y471486D01*
X239920Y471485D01*
X239814Y471481D01*
X239709Y471472D01*
X239604Y471460D01*
X239500Y471443D01*
X239396Y471423D01*
X239294Y471399D01*
X239192Y471371D01*
X239091Y471339D01*
X238992Y471304D01*
X238894Y471264D01*
X238797Y471222D01*
X238703Y471175D01*
X238610Y471125D01*
X238519Y471072D01*
X238430Y471015D01*
X238343Y470955D01*
X238258Y470892D01*
X238176Y470826D01*
X238096Y470756D01*
X238020Y470684D01*
X237945Y470609D01*
X237874Y470531D01*
X237806Y470451D01*
X237740Y470368D01*
X237678Y470283D01*
X237619Y470195D01*
X237564Y470105D01*
X237512Y470014D01*
X237463Y469920D01*
X237418Y469825D01*
X237376Y469728D01*
X237338Y469629D01*
X237304Y469529D01*
X237273Y469428D01*
X237247Y469326D01*
X237224Y469223D01*
X237205Y469119D01*
X237190Y469015D01*
X237179Y468910D01*
X237172Y468805D01*
X237168Y468699D01*
X237169Y468594D01*
X237173Y468488D01*
X237182Y468383D01*
X237194Y468278D01*
X237211Y468174D01*
X237231Y468070D01*
X237255Y467968D01*
X237283Y467866D01*
X237315Y467765D01*
X237350Y467666D01*
X237390Y467568D01*
X237432Y467471D01*
X237479Y467377D01*
X237529Y467284D01*
X237582Y467193D01*
X237639Y467103D01*
X237699Y467017D01*
X237762Y466932D01*
X237828Y466850D01*
X239642Y464688D01*
X231433Y471837D02*
X234893Y474739D01*
X234892Y474739D02*
X234972Y474809D01*
X235048Y474881D01*
X235123Y474956D01*
X235194Y475034D01*
X235262Y475114D01*
X235328Y475197D01*
X235390Y475282D01*
X235449Y475370D01*
X235504Y475460D01*
X235556Y475551D01*
X235605Y475645D01*
X235650Y475740D01*
X235692Y475837D01*
X235730Y475936D01*
X235764Y476036D01*
X235795Y476137D01*
X235821Y476239D01*
X235844Y476342D01*
X235863Y476446D01*
X235878Y476550D01*
X235889Y476655D01*
X235896Y476760D01*
X235900Y476866D01*
X235899Y476971D01*
X235895Y477077D01*
X235886Y477182D01*
X235874Y477287D01*
X235857Y477391D01*
X235837Y477495D01*
X235813Y477597D01*
X235785Y477699D01*
X235753Y477800D01*
X235718Y477899D01*
X235678Y477997D01*
X235636Y478094D01*
X235589Y478188D01*
X235539Y478281D01*
X235486Y478372D01*
X235429Y478461D01*
X235369Y478548D01*
X235306Y478633D01*
X235240Y478715D01*
X235170Y478795D01*
X235098Y478871D01*
X235023Y478946D01*
X234945Y479017D01*
X234865Y479085D01*
X234782Y479151D01*
X234697Y479213D01*
X234609Y479272D01*
X234519Y479327D01*
X234428Y479379D01*
X234334Y479428D01*
X234239Y479473D01*
X234142Y479515D01*
X234043Y479553D01*
X233943Y479587D01*
X233842Y479618D01*
X233740Y479644D01*
X233637Y479667D01*
X233533Y479686D01*
X233429Y479701D01*
X233324Y479712D01*
X233219Y479719D01*
X233113Y479723D01*
X233008Y479722D01*
X232902Y479718D01*
X232797Y479709D01*
X232692Y479697D01*
X232588Y479680D01*
X232484Y479660D01*
X232382Y479636D01*
X232280Y479608D01*
X232179Y479576D01*
X232080Y479541D01*
X231982Y479501D01*
X231885Y479459D01*
X231791Y479412D01*
X231698Y479362D01*
X231607Y479309D01*
X231518Y479252D01*
X231431Y479192D01*
X231346Y479129D01*
X231264Y479063D01*
X227805Y476161D01*
X227725Y476091D01*
X227649Y476019D01*
X227574Y475944D01*
X227503Y475866D01*
X227435Y475786D01*
X227369Y475703D01*
X227307Y475618D01*
X227248Y475530D01*
X227193Y475440D01*
X227141Y475349D01*
X227092Y475255D01*
X227047Y475160D01*
X227005Y475063D01*
X226967Y474964D01*
X226933Y474864D01*
X226902Y474763D01*
X226876Y474661D01*
X226853Y474558D01*
X226834Y474454D01*
X226819Y474350D01*
X226808Y474245D01*
X226801Y474140D01*
X226797Y474034D01*
X226798Y473929D01*
X226802Y473823D01*
X226811Y473718D01*
X226823Y473613D01*
X226840Y473509D01*
X226860Y473405D01*
X226884Y473303D01*
X226912Y473201D01*
X226944Y473100D01*
X226979Y473001D01*
X227019Y472903D01*
X227061Y472806D01*
X227108Y472712D01*
X227158Y472619D01*
X227211Y472528D01*
X227268Y472439D01*
X227328Y472352D01*
X227391Y472267D01*
X227457Y472185D01*
X227527Y472105D01*
X227599Y472029D01*
X227674Y471954D01*
X227752Y471883D01*
X227832Y471815D01*
X227915Y471749D01*
X228000Y471687D01*
X228088Y471628D01*
X228178Y471573D01*
X228269Y471521D01*
X228363Y471472D01*
X228458Y471427D01*
X228555Y471385D01*
X228654Y471347D01*
X228754Y471313D01*
X228855Y471282D01*
X228957Y471256D01*
X229060Y471233D01*
X229164Y471214D01*
X229268Y471199D01*
X229373Y471188D01*
X229478Y471181D01*
X229584Y471177D01*
X229689Y471178D01*
X229795Y471182D01*
X229900Y471191D01*
X230005Y471203D01*
X230109Y471220D01*
X230213Y471240D01*
X230315Y471264D01*
X230417Y471292D01*
X230518Y471324D01*
X230617Y471359D01*
X230715Y471399D01*
X230812Y471441D01*
X230906Y471488D01*
X230999Y471538D01*
X231090Y471591D01*
X231180Y471648D01*
X231266Y471708D01*
X231351Y471771D01*
X231433Y471837D01*
X219992Y481081D02*
X219934Y481153D01*
X219878Y481228D01*
X219826Y481306D01*
X219777Y481385D01*
X219731Y481466D01*
X219689Y481550D01*
X219650Y481634D01*
X219615Y481721D01*
X219583Y481809D01*
X219555Y481898D01*
X219531Y481988D01*
X219510Y482079D01*
X219493Y482171D01*
X219480Y482263D01*
X219471Y482356D01*
X219466Y482449D01*
X219464Y482542D01*
X219466Y482636D01*
X219473Y482729D01*
X219483Y482822D01*
X219497Y482914D01*
X219514Y483005D01*
X219536Y483096D01*
X219561Y483186D01*
X219590Y483275D01*
X219622Y483362D01*
X219658Y483448D01*
X219698Y483533D01*
X219741Y483616D01*
X219788Y483697D01*
X219837Y483776D01*
X219890Y483852D01*
X219946Y483927D01*
X220006Y483999D01*
X220068Y484069D01*
X220133Y484136D01*
X220200Y484200D01*
X220271Y484262D01*
X219992Y481081D02*
X220080Y480979D01*
X220171Y480880D01*
X220264Y480783D01*
X220360Y480689D01*
X220459Y480598D01*
X220560Y480509D01*
X220664Y480424D01*
X220770Y480341D01*
X220879Y480262D01*
X220990Y480185D01*
X221102Y480112D01*
X221217Y480042D01*
X221334Y479975D01*
X221452Y479911D01*
X221573Y479851D01*
X221695Y479794D01*
X221818Y479741D01*
X221943Y479691D01*
X222069Y479645D01*
X222197Y479602D01*
X222326Y479563D01*
X222455Y479528D01*
X222586Y479496D01*
X222718Y479468D01*
X222850Y479444D01*
X222983Y479423D01*
X223116Y479407D01*
X223250Y479393D01*
X228041Y483782D02*
X228112Y483844D01*
X228179Y483908D01*
X228244Y483975D01*
X228306Y484045D01*
X228366Y484117D01*
X228422Y484192D01*
X228475Y484268D01*
X228524Y484347D01*
X228571Y484428D01*
X228614Y484511D01*
X228654Y484595D01*
X228690Y484682D01*
X228722Y484769D01*
X228751Y484858D01*
X228776Y484948D01*
X228798Y485038D01*
X228815Y485130D01*
X228829Y485222D01*
X228839Y485315D01*
X228846Y485408D01*
X228848Y485502D01*
X228846Y485595D01*
X228841Y485688D01*
X228832Y485781D01*
X228819Y485873D01*
X228802Y485965D01*
X228781Y486056D01*
X228757Y486146D01*
X228729Y486235D01*
X228697Y486323D01*
X228662Y486410D01*
X228623Y486494D01*
X228581Y486578D01*
X228535Y486659D01*
X228486Y486738D01*
X228434Y486816D01*
X228378Y486891D01*
X228320Y486963D01*
X228235Y487061D01*
X228147Y487156D01*
X228056Y487249D01*
X227963Y487339D01*
X227866Y487426D01*
X227768Y487510D01*
X227666Y487591D01*
X227562Y487669D01*
X227456Y487743D01*
X227348Y487814D01*
X227237Y487882D01*
X227125Y487947D01*
X227010Y488008D01*
X226894Y488065D01*
X226776Y488119D01*
X226656Y488169D01*
X226535Y488216D01*
X226413Y488259D01*
X226289Y488298D01*
X226164Y488333D01*
X226038Y488364D01*
X225802Y483377D02*
X225892Y483347D01*
X225984Y483321D01*
X226077Y483299D01*
X226170Y483281D01*
X226264Y483266D01*
X226359Y483255D01*
X226454Y483249D01*
X226549Y483246D01*
X226644Y483247D01*
X226739Y483252D01*
X226834Y483262D01*
X226928Y483275D01*
X227022Y483292D01*
X227115Y483312D01*
X227207Y483337D01*
X227298Y483366D01*
X227387Y483398D01*
X227476Y483434D01*
X227562Y483473D01*
X227647Y483516D01*
X227730Y483563D01*
X227811Y483613D01*
X227890Y483666D01*
X227967Y483723D01*
X228041Y483782D01*
X222510Y484667D02*
X222420Y484696D01*
X222328Y484723D01*
X222236Y484745D01*
X222142Y484763D01*
X222048Y484778D01*
X221953Y484789D01*
X221858Y484795D01*
X221763Y484798D01*
X221668Y484797D01*
X221573Y484792D01*
X221478Y484782D01*
X221384Y484769D01*
X221290Y484752D01*
X221197Y484732D01*
X221105Y484707D01*
X221014Y484678D01*
X220925Y484646D01*
X220836Y484610D01*
X220750Y484571D01*
X220665Y484528D01*
X220582Y484481D01*
X220501Y484431D01*
X220422Y484378D01*
X220345Y484321D01*
X220271Y484262D01*
X222510Y484667D02*
X225802Y483377D01*
X217967Y489642D02*
X213613Y494830D01*
X213196Y490059D02*
X218384Y494413D01*
X246068Y437930D02*
X246025Y437701D01*
X245976Y437474D01*
X245922Y437248D01*
X245862Y437023D01*
X245797Y436800D01*
X245727Y436578D01*
X245651Y436359D01*
X245570Y436141D01*
X245484Y435925D01*
X245393Y435711D01*
X245297Y435499D01*
X245195Y435290D01*
X245089Y435084D01*
X244977Y434880D01*
X244861Y434678D01*
X244740Y434480D01*
X244614Y434284D01*
X244483Y434092D01*
X244348Y433903D01*
X244209Y433717D01*
X244065Y433534D01*
X243916Y433355D01*
X243764Y433180D01*
X243607Y433008D01*
X243446Y432841D01*
X243281Y432677D01*
X243112Y432517D01*
X242940Y432361D01*
X242763Y432210D01*
X242764Y432209D02*
X242584Y432062D01*
X242401Y431919D01*
X242214Y431781D01*
X242024Y431647D01*
X241831Y431517D01*
X241635Y431393D01*
X241436Y431273D01*
X241233Y431158D01*
X241029Y431048D01*
X240821Y430942D01*
X240612Y430842D01*
X240399Y430747D01*
X240185Y430657D01*
X239969Y430572D01*
X239750Y430493D01*
X239530Y430418D01*
X239308Y430349D01*
X239084Y430286D01*
X238859Y430228D01*
X238633Y430175D01*
X238405Y430127D01*
X238176Y430086D01*
X237947Y430049D01*
X237716Y430019D01*
X237485Y429993D01*
X237254Y429974D01*
X237021Y429959D01*
X236789Y429951D01*
X236557Y429948D01*
X233871Y434904D02*
X241654Y441435D01*
X238195Y438532D02*
X234567Y442856D01*
X238026Y445759D02*
X230243Y439228D01*
X228230Y447775D02*
X226597Y449720D01*
X228230Y447775D02*
X228284Y447707D01*
X228336Y447636D01*
X228384Y447564D01*
X228430Y447489D01*
X228472Y447412D01*
X228510Y447333D01*
X228545Y447253D01*
X228576Y447172D01*
X228604Y447089D01*
X228628Y447005D01*
X228648Y446920D01*
X228664Y446834D01*
X228677Y446747D01*
X228686Y446660D01*
X228691Y446573D01*
X228692Y446486D01*
X228689Y446398D01*
X228682Y446311D01*
X228672Y446224D01*
X228658Y446138D01*
X228639Y446052D01*
X228618Y445968D01*
X228592Y445884D01*
X228563Y445802D01*
X228530Y445721D01*
X228493Y445641D01*
X228453Y445564D01*
X228410Y445488D01*
X228363Y445414D01*
X228313Y445342D01*
X228260Y445272D01*
X228204Y445205D01*
X228145Y445141D01*
X228084Y445079D01*
X228019Y445020D01*
X227952Y444964D01*
X227883Y444910D01*
X227811Y444860D01*
X227737Y444813D01*
X227662Y444770D01*
X227584Y444730D01*
X227505Y444693D01*
X227424Y444660D01*
X227341Y444631D01*
X227258Y444605D01*
X227173Y444583D01*
X227088Y444564D01*
X227002Y444550D01*
X226915Y444539D01*
X226828Y444532D01*
X226740Y444529D01*
X226653Y444530D01*
X226566Y444535D01*
X226479Y444543D01*
X226392Y444556D01*
X226306Y444572D01*
X226221Y444592D01*
X226137Y444616D01*
X226054Y444643D01*
X225972Y444674D01*
X225892Y444709D01*
X225813Y444747D01*
X225736Y444789D01*
X225661Y444834D01*
X225589Y444882D01*
X225518Y444934D01*
X225450Y444988D01*
X225384Y445046D01*
X225320Y445106D01*
X225260Y445169D01*
X225202Y445235D01*
X225203Y445235D02*
X223570Y447181D01*
X227462Y450446D01*
X227525Y450496D01*
X227590Y450543D01*
X227657Y450588D01*
X227727Y450628D01*
X227798Y450666D01*
X227871Y450700D01*
X227946Y450731D01*
X228022Y450757D01*
X228099Y450781D01*
X228177Y450800D01*
X228256Y450816D01*
X228336Y450828D01*
X228416Y450837D01*
X228496Y450841D01*
X228577Y450842D01*
X228657Y450839D01*
X228738Y450832D01*
X228818Y450821D01*
X228897Y450806D01*
X228975Y450788D01*
X229053Y450766D01*
X229129Y450740D01*
X229204Y450711D01*
X229278Y450678D01*
X229350Y450641D01*
X229420Y450602D01*
X229488Y450559D01*
X229554Y450512D01*
X229618Y450463D01*
X229679Y450411D01*
X229738Y450356D01*
X229794Y450298D01*
X229847Y450237D01*
X231299Y448508D01*
X222277Y454869D02*
X219598Y456305D01*
X222276Y454869D02*
X222343Y454835D01*
X222412Y454805D01*
X222483Y454778D01*
X222554Y454755D01*
X222627Y454735D01*
X222700Y454720D01*
X222775Y454708D01*
X222850Y454700D01*
X222925Y454696D01*
X223000Y454695D01*
X223075Y454699D01*
X223150Y454706D01*
X223224Y454718D01*
X223298Y454733D01*
X223371Y454752D01*
X223443Y454774D01*
X223513Y454800D01*
X223582Y454830D01*
X223650Y454863D01*
X223715Y454900D01*
X223779Y454940D01*
X223841Y454983D01*
X223900Y455030D01*
X223957Y455079D01*
X224011Y455131D01*
X224062Y455186D01*
X224111Y455244D01*
X224156Y455304D01*
X224199Y455366D01*
X224238Y455430D01*
X224273Y455496D01*
X224306Y455564D01*
X224335Y455634D01*
X224360Y455705D01*
X224381Y455777D01*
X224399Y455850D01*
X224413Y455924D01*
X224423Y455998D01*
X224429Y456073D01*
X224432Y456149D01*
X224431Y456224D01*
X224425Y456299D01*
X224416Y456374D01*
X224403Y456448D01*
X224387Y456521D01*
X224366Y456593D01*
X224342Y456665D01*
X224314Y456735D01*
X224283Y456803D01*
X224248Y456870D01*
X224210Y456934D01*
X224168Y456997D01*
X224124Y457058D01*
X224076Y457116D01*
X224076Y457115D02*
X223974Y457230D01*
X223869Y457343D01*
X223761Y457454D01*
X223651Y457561D01*
X223538Y457667D01*
X223423Y457769D01*
X223306Y457868D01*
X223185Y457965D01*
X223063Y458059D01*
X222939Y458150D01*
X222812Y458237D01*
X222683Y458322D01*
X222552Y458404D01*
X222420Y458482D01*
X222285Y458557D01*
X222149Y458629D01*
X222011Y458698D01*
X219598Y456306D02*
X219531Y456340D01*
X219462Y456370D01*
X219391Y456397D01*
X219320Y456420D01*
X219247Y456440D01*
X219174Y456455D01*
X219099Y456467D01*
X219024Y456475D01*
X218949Y456479D01*
X218874Y456480D01*
X218799Y456476D01*
X218724Y456469D01*
X218650Y456457D01*
X218576Y456442D01*
X218503Y456423D01*
X218431Y456401D01*
X218361Y456375D01*
X218292Y456345D01*
X218224Y456312D01*
X218159Y456275D01*
X218095Y456235D01*
X218033Y456192D01*
X217974Y456145D01*
X217917Y456096D01*
X217863Y456044D01*
X217812Y455989D01*
X217763Y455931D01*
X217718Y455871D01*
X217675Y455809D01*
X217636Y455745D01*
X217601Y455679D01*
X217568Y455611D01*
X217539Y455541D01*
X217514Y455470D01*
X217493Y455398D01*
X217475Y455325D01*
X217461Y455251D01*
X217451Y455177D01*
X217445Y455102D01*
X217442Y455026D01*
X217443Y454951D01*
X217449Y454876D01*
X217458Y454801D01*
X217471Y454727D01*
X217487Y454654D01*
X217508Y454582D01*
X217532Y454510D01*
X217560Y454440D01*
X217591Y454372D01*
X217626Y454305D01*
X217664Y454241D01*
X217706Y454178D01*
X217750Y454117D01*
X217798Y454059D01*
X217798Y454058D02*
X217948Y453889D01*
X218102Y453723D01*
X218260Y453561D01*
X218422Y453402D01*
X218587Y453247D01*
X218756Y453097D01*
X218929Y452950D01*
X219105Y452807D01*
X219284Y452669D01*
X219466Y452535D01*
X219652Y452405D01*
X219840Y452280D01*
X220032Y452159D01*
X220226Y452043D01*
X213270Y468237D02*
X211456Y470399D01*
X211386Y470479D01*
X211314Y470555D01*
X211239Y470630D01*
X211161Y470701D01*
X211081Y470769D01*
X210998Y470835D01*
X210913Y470897D01*
X210825Y470956D01*
X210735Y471011D01*
X210644Y471063D01*
X210550Y471112D01*
X210455Y471157D01*
X210358Y471199D01*
X210259Y471237D01*
X210159Y471271D01*
X210058Y471302D01*
X209956Y471328D01*
X209853Y471351D01*
X209749Y471370D01*
X209645Y471385D01*
X209540Y471396D01*
X209435Y471403D01*
X209329Y471407D01*
X209224Y471406D01*
X209118Y471402D01*
X209013Y471393D01*
X208908Y471381D01*
X208804Y471364D01*
X208700Y471344D01*
X208598Y471320D01*
X208496Y471292D01*
X208395Y471260D01*
X208296Y471225D01*
X208198Y471185D01*
X208101Y471143D01*
X208007Y471096D01*
X207914Y471046D01*
X207823Y470993D01*
X207734Y470936D01*
X207647Y470876D01*
X207562Y470813D01*
X207480Y470747D01*
X207400Y470677D01*
X207324Y470605D01*
X207249Y470530D01*
X207178Y470452D01*
X207110Y470372D01*
X207044Y470289D01*
X206982Y470204D01*
X206923Y470116D01*
X206868Y470026D01*
X206816Y469935D01*
X206767Y469841D01*
X206722Y469746D01*
X206680Y469649D01*
X206642Y469550D01*
X206608Y469450D01*
X206577Y469349D01*
X206551Y469247D01*
X206528Y469144D01*
X206509Y469040D01*
X206494Y468936D01*
X206483Y468831D01*
X206476Y468726D01*
X206472Y468620D01*
X206473Y468515D01*
X206477Y468409D01*
X206486Y468304D01*
X206498Y468199D01*
X206515Y468095D01*
X206535Y467991D01*
X206559Y467889D01*
X206587Y467787D01*
X206619Y467686D01*
X206654Y467587D01*
X206694Y467489D01*
X206736Y467392D01*
X206783Y467298D01*
X206833Y467205D01*
X206886Y467114D01*
X206943Y467025D01*
X207003Y466938D01*
X207066Y466853D01*
X207132Y466771D01*
X208946Y464609D01*
X216729Y471140D01*
X214915Y473302D01*
X214915Y473301D02*
X214853Y473372D01*
X214789Y473439D01*
X214722Y473504D01*
X214652Y473566D01*
X214580Y473625D01*
X214505Y473682D01*
X214429Y473735D01*
X214350Y473784D01*
X214269Y473831D01*
X214186Y473874D01*
X214102Y473914D01*
X214015Y473950D01*
X213928Y473982D01*
X213839Y474011D01*
X213749Y474036D01*
X213659Y474058D01*
X213567Y474075D01*
X213475Y474089D01*
X213382Y474099D01*
X213289Y474106D01*
X213195Y474108D01*
X213102Y474106D01*
X213009Y474101D01*
X212916Y474092D01*
X212824Y474079D01*
X212732Y474062D01*
X212641Y474041D01*
X212551Y474017D01*
X212462Y473989D01*
X212374Y473957D01*
X212287Y473922D01*
X212203Y473883D01*
X212119Y473841D01*
X212038Y473795D01*
X211959Y473746D01*
X211881Y473694D01*
X211806Y473638D01*
X211734Y473580D01*
X211663Y473518D01*
X211596Y473454D01*
X211531Y473387D01*
X211469Y473317D01*
X211410Y473245D01*
X211353Y473170D01*
X211300Y473094D01*
X211251Y473015D01*
X211204Y472934D01*
X211161Y472851D01*
X211121Y472767D01*
X211085Y472680D01*
X211053Y472593D01*
X211024Y472504D01*
X210999Y472414D01*
X210977Y472324D01*
X210960Y472232D01*
X210946Y472140D01*
X210936Y472047D01*
X210929Y471954D01*
X210927Y471860D01*
X210929Y471767D01*
X210934Y471674D01*
X210943Y471581D01*
X210956Y471489D01*
X210973Y471397D01*
X210994Y471306D01*
X211018Y471216D01*
X211046Y471127D01*
X211078Y471039D01*
X211113Y470952D01*
X211152Y470868D01*
X211194Y470784D01*
X211240Y470703D01*
X211289Y470624D01*
X211341Y470546D01*
X211397Y470471D01*
X211455Y470399D01*
X207105Y477340D02*
X203213Y474075D01*
X203150Y474025D01*
X203085Y473978D01*
X203018Y473933D01*
X202948Y473893D01*
X202877Y473855D01*
X202804Y473821D01*
X202729Y473790D01*
X202653Y473764D01*
X202576Y473740D01*
X202498Y473721D01*
X202419Y473705D01*
X202339Y473693D01*
X202259Y473684D01*
X202179Y473680D01*
X202098Y473679D01*
X202018Y473682D01*
X201937Y473689D01*
X201858Y473700D01*
X201778Y473715D01*
X201700Y473733D01*
X201622Y473755D01*
X201546Y473781D01*
X201471Y473810D01*
X201397Y473843D01*
X201325Y473880D01*
X201255Y473919D01*
X201187Y473962D01*
X201121Y474009D01*
X201058Y474058D01*
X200996Y474110D01*
X200937Y474165D01*
X200881Y474223D01*
X200828Y474284D01*
X199014Y476446D01*
X204202Y480799D01*
X199994Y485815D02*
X194805Y481461D01*
X199994Y485815D02*
X196728Y489707D01*
X196728Y489706D02*
X196675Y489767D01*
X196619Y489825D01*
X196560Y489880D01*
X196499Y489932D01*
X196435Y489981D01*
X196369Y490028D01*
X196301Y490071D01*
X196231Y490110D01*
X196159Y490147D01*
X196085Y490180D01*
X196010Y490209D01*
X195934Y490235D01*
X195856Y490257D01*
X195778Y490275D01*
X195699Y490290D01*
X195619Y490301D01*
X195538Y490308D01*
X195458Y490311D01*
X195377Y490310D01*
X195297Y490306D01*
X195217Y490297D01*
X195137Y490285D01*
X195058Y490269D01*
X194980Y490250D01*
X194903Y490226D01*
X194827Y490200D01*
X194752Y490169D01*
X194679Y490135D01*
X194608Y490097D01*
X194538Y490057D01*
X194471Y490013D01*
X194406Y489965D01*
X194343Y489915D01*
X190451Y486650D01*
X192628Y484056D02*
X197817Y488410D01*
X191365Y496098D02*
X183582Y489568D01*
X191365Y496098D02*
X189551Y498260D01*
X189498Y498321D01*
X189442Y498379D01*
X189383Y498434D01*
X189322Y498486D01*
X189258Y498535D01*
X189192Y498582D01*
X189124Y498625D01*
X189054Y498664D01*
X188982Y498701D01*
X188908Y498734D01*
X188833Y498763D01*
X188757Y498789D01*
X188679Y498811D01*
X188601Y498829D01*
X188522Y498844D01*
X188442Y498855D01*
X188361Y498862D01*
X188281Y498865D01*
X188200Y498864D01*
X188120Y498860D01*
X188040Y498851D01*
X187960Y498839D01*
X187881Y498823D01*
X187803Y498804D01*
X187726Y498780D01*
X187650Y498754D01*
X187575Y498723D01*
X187502Y498689D01*
X187431Y498651D01*
X187361Y498611D01*
X187294Y498567D01*
X187229Y498519D01*
X187166Y498469D01*
X187165Y498469D02*
X184571Y496292D01*
X184572Y496292D02*
X184511Y496239D01*
X184453Y496183D01*
X184398Y496124D01*
X184346Y496063D01*
X184297Y495999D01*
X184250Y495933D01*
X184207Y495865D01*
X184168Y495795D01*
X184131Y495723D01*
X184098Y495649D01*
X184069Y495574D01*
X184043Y495498D01*
X184021Y495420D01*
X184003Y495342D01*
X183988Y495263D01*
X183977Y495183D01*
X183970Y495102D01*
X183967Y495022D01*
X183968Y494941D01*
X183972Y494861D01*
X183981Y494781D01*
X183993Y494701D01*
X184009Y494622D01*
X184028Y494544D01*
X184052Y494467D01*
X184078Y494391D01*
X184109Y494316D01*
X184143Y494243D01*
X184181Y494172D01*
X184221Y494102D01*
X184265Y494035D01*
X184313Y493970D01*
X184363Y493907D01*
X184362Y493907D02*
X186176Y491745D01*
X179297Y498186D02*
X179340Y498415D01*
X179389Y498642D01*
X179443Y498868D01*
X179503Y499093D01*
X179568Y499316D01*
X179638Y499538D01*
X179714Y499758D01*
X179795Y499976D01*
X179881Y500192D01*
X179972Y500406D01*
X180069Y500617D01*
X180170Y500826D01*
X180277Y501033D01*
X180388Y501237D01*
X180504Y501438D01*
X180625Y501637D01*
X180751Y501832D01*
X180882Y502025D01*
X181017Y502214D01*
X181157Y502400D01*
X181301Y502582D01*
X181449Y502761D01*
X181602Y502937D01*
X181759Y503108D01*
X181919Y503276D01*
X182084Y503440D01*
X182253Y503600D01*
X182426Y503756D01*
X182602Y503907D01*
X182782Y504054D01*
X182966Y504197D01*
X183152Y504335D01*
X183342Y504469D01*
X183536Y504598D01*
X183732Y504723D01*
X183931Y504843D01*
X184133Y504958D01*
X184338Y505068D01*
X184545Y505173D01*
X184755Y505274D01*
X184967Y505369D01*
X185181Y505459D01*
X185398Y505544D01*
X185616Y505623D01*
X185837Y505697D01*
X186059Y505766D01*
X186282Y505830D01*
X186507Y505888D01*
X186734Y505941D01*
X186961Y505988D01*
X187190Y506030D01*
X187420Y506067D01*
X187650Y506097D01*
X187881Y506123D01*
X188113Y506142D01*
X188345Y506157D01*
X188577Y506165D01*
X188810Y506168D01*
X393562Y593152D02*
X401345Y599682D01*
X389934Y597476D01*
X397717Y604006D01*
X385700Y602522D02*
X382798Y605981D01*
X385700Y602522D02*
X393483Y609052D01*
X390581Y612511D01*
X387847Y608744D02*
X390024Y606150D01*
X381142Y616735D02*
X380054Y618032D01*
X375730Y614404D01*
X377907Y611809D01*
X377906Y611809D02*
X377968Y611738D01*
X378032Y611671D01*
X378099Y611606D01*
X378169Y611544D01*
X378241Y611485D01*
X378315Y611428D01*
X378392Y611375D01*
X378471Y611326D01*
X378552Y611279D01*
X378635Y611236D01*
X378719Y611196D01*
X378806Y611160D01*
X378893Y611128D01*
X378982Y611099D01*
X379072Y611074D01*
X379162Y611052D01*
X379254Y611035D01*
X379346Y611021D01*
X379439Y611011D01*
X379532Y611004D01*
X379626Y611002D01*
X379719Y611004D01*
X379812Y611009D01*
X379905Y611018D01*
X379997Y611031D01*
X380089Y611048D01*
X380180Y611069D01*
X380270Y611093D01*
X380359Y611121D01*
X380447Y611153D01*
X380534Y611188D01*
X380618Y611227D01*
X380702Y611269D01*
X380783Y611315D01*
X380862Y611364D01*
X380940Y611416D01*
X381015Y611472D01*
X381087Y611530D01*
X381088Y611531D02*
X385412Y615159D01*
X385411Y615159D02*
X385482Y615221D01*
X385549Y615285D01*
X385614Y615352D01*
X385676Y615422D01*
X385735Y615494D01*
X385792Y615569D01*
X385845Y615645D01*
X385894Y615724D01*
X385941Y615805D01*
X385984Y615888D01*
X386024Y615972D01*
X386060Y616059D01*
X386092Y616146D01*
X386121Y616235D01*
X386146Y616325D01*
X386168Y616415D01*
X386185Y616507D01*
X386199Y616599D01*
X386209Y616692D01*
X386216Y616785D01*
X386218Y616879D01*
X386216Y616972D01*
X386211Y617065D01*
X386202Y617158D01*
X386189Y617250D01*
X386172Y617342D01*
X386151Y617433D01*
X386127Y617523D01*
X386099Y617612D01*
X386067Y617700D01*
X386032Y617786D01*
X385993Y617871D01*
X385951Y617955D01*
X385905Y618036D01*
X385856Y618115D01*
X385804Y618193D01*
X385748Y618268D01*
X385690Y618340D01*
X383513Y620934D01*
X374666Y621818D02*
X370312Y627007D01*
X400046Y573350D02*
X400003Y573121D01*
X399954Y572894D01*
X399900Y572668D01*
X399840Y572443D01*
X399775Y572220D01*
X399705Y571998D01*
X399629Y571779D01*
X399548Y571561D01*
X399462Y571345D01*
X399371Y571131D01*
X399275Y570919D01*
X399173Y570710D01*
X399067Y570504D01*
X398955Y570300D01*
X398839Y570098D01*
X398718Y569900D01*
X398592Y569704D01*
X398461Y569512D01*
X398326Y569323D01*
X398187Y569137D01*
X398043Y568954D01*
X397894Y568775D01*
X397742Y568600D01*
X397585Y568428D01*
X397424Y568261D01*
X397259Y568097D01*
X397090Y567937D01*
X396918Y567781D01*
X396741Y567630D01*
X396741Y567629D02*
X396561Y567482D01*
X396378Y567339D01*
X396191Y567201D01*
X396001Y567067D01*
X395808Y566937D01*
X395612Y566813D01*
X395413Y566693D01*
X395210Y566578D01*
X395006Y566468D01*
X394798Y566362D01*
X394589Y566262D01*
X394376Y566167D01*
X394162Y566077D01*
X393946Y565992D01*
X393727Y565913D01*
X393507Y565838D01*
X393285Y565769D01*
X393061Y565706D01*
X392836Y565648D01*
X392610Y565595D01*
X392382Y565547D01*
X392153Y565506D01*
X391924Y565469D01*
X391693Y565439D01*
X391462Y565413D01*
X391231Y565394D01*
X390998Y565379D01*
X390766Y565371D01*
X390534Y565368D01*
X387824Y570354D02*
X395607Y576885D01*
X392704Y580344D01*
X389245Y577441D02*
X392148Y573982D01*
X383166Y578539D02*
X389652Y583981D01*
X383166Y578539D02*
X383103Y578489D01*
X383038Y578442D01*
X382971Y578397D01*
X382901Y578357D01*
X382830Y578319D01*
X382757Y578285D01*
X382682Y578254D01*
X382606Y578228D01*
X382529Y578204D01*
X382451Y578185D01*
X382372Y578169D01*
X382292Y578157D01*
X382212Y578148D01*
X382132Y578144D01*
X382051Y578143D01*
X381971Y578146D01*
X381890Y578153D01*
X381811Y578164D01*
X381731Y578179D01*
X381653Y578197D01*
X381575Y578219D01*
X381499Y578245D01*
X381424Y578274D01*
X381350Y578307D01*
X381278Y578344D01*
X381208Y578383D01*
X381140Y578426D01*
X381074Y578473D01*
X381011Y578522D01*
X380949Y578574D01*
X380890Y578629D01*
X380834Y578687D01*
X380781Y578748D01*
X379758Y586113D02*
X378126Y588059D01*
X379759Y586113D02*
X379813Y586045D01*
X379865Y585974D01*
X379913Y585902D01*
X379959Y585827D01*
X380001Y585750D01*
X380039Y585671D01*
X380074Y585591D01*
X380105Y585510D01*
X380133Y585427D01*
X380157Y585343D01*
X380177Y585258D01*
X380193Y585172D01*
X380206Y585085D01*
X380215Y584998D01*
X380220Y584911D01*
X380221Y584824D01*
X380218Y584736D01*
X380211Y584649D01*
X380201Y584562D01*
X380187Y584476D01*
X380168Y584390D01*
X380147Y584306D01*
X380121Y584222D01*
X380092Y584140D01*
X380059Y584059D01*
X380022Y583979D01*
X379982Y583902D01*
X379939Y583826D01*
X379892Y583752D01*
X379842Y583680D01*
X379789Y583610D01*
X379733Y583543D01*
X379674Y583479D01*
X379613Y583417D01*
X379548Y583358D01*
X379481Y583302D01*
X379412Y583248D01*
X379340Y583198D01*
X379266Y583151D01*
X379191Y583108D01*
X379113Y583068D01*
X379034Y583031D01*
X378953Y582998D01*
X378870Y582969D01*
X378787Y582943D01*
X378702Y582921D01*
X378617Y582902D01*
X378531Y582888D01*
X378444Y582877D01*
X378357Y582870D01*
X378269Y582867D01*
X378182Y582868D01*
X378095Y582873D01*
X378008Y582881D01*
X377921Y582894D01*
X377835Y582910D01*
X377750Y582930D01*
X377666Y582954D01*
X377583Y582981D01*
X377501Y583012D01*
X377421Y583047D01*
X377342Y583085D01*
X377265Y583127D01*
X377190Y583172D01*
X377118Y583220D01*
X377047Y583272D01*
X376979Y583326D01*
X376913Y583384D01*
X376849Y583444D01*
X376789Y583507D01*
X376731Y583573D01*
X376732Y583573D02*
X375099Y585519D01*
X378991Y588784D01*
X379054Y588834D01*
X379119Y588881D01*
X379186Y588926D01*
X379256Y588966D01*
X379327Y589004D01*
X379400Y589038D01*
X379475Y589069D01*
X379551Y589095D01*
X379628Y589119D01*
X379706Y589138D01*
X379785Y589154D01*
X379865Y589166D01*
X379945Y589175D01*
X380025Y589179D01*
X380106Y589180D01*
X380186Y589177D01*
X380267Y589170D01*
X380347Y589159D01*
X380426Y589144D01*
X380504Y589126D01*
X380582Y589104D01*
X380658Y589078D01*
X380733Y589049D01*
X380807Y589016D01*
X380879Y588979D01*
X380949Y588940D01*
X381017Y588897D01*
X381083Y588850D01*
X381147Y588801D01*
X381208Y588749D01*
X381267Y588694D01*
X381323Y588636D01*
X381376Y588575D01*
X381376Y588576D02*
X382827Y586846D01*
X377232Y593514D02*
X375055Y596108D01*
X379101Y596556D02*
X372615Y591113D01*
X372615Y591114D02*
X372552Y591064D01*
X372487Y591017D01*
X372420Y590972D01*
X372350Y590932D01*
X372279Y590894D01*
X372206Y590860D01*
X372131Y590829D01*
X372055Y590803D01*
X371978Y590779D01*
X371900Y590760D01*
X371821Y590744D01*
X371741Y590732D01*
X371661Y590723D01*
X371581Y590719D01*
X371500Y590718D01*
X371420Y590721D01*
X371339Y590728D01*
X371259Y590739D01*
X371180Y590754D01*
X371102Y590772D01*
X371024Y590794D01*
X370948Y590820D01*
X370873Y590849D01*
X370799Y590882D01*
X370727Y590919D01*
X370657Y590958D01*
X370589Y591001D01*
X370523Y591048D01*
X370459Y591097D01*
X370398Y591149D01*
X370339Y591204D01*
X370283Y591262D01*
X370230Y591323D01*
X370230Y591322D02*
X369867Y591754D01*
X360692Y602688D02*
X360634Y602760D01*
X360578Y602835D01*
X360526Y602913D01*
X360477Y602992D01*
X360431Y603073D01*
X360389Y603157D01*
X360350Y603241D01*
X360315Y603328D01*
X360283Y603416D01*
X360255Y603505D01*
X360231Y603595D01*
X360210Y603686D01*
X360193Y603778D01*
X360180Y603870D01*
X360171Y603963D01*
X360166Y604056D01*
X360164Y604149D01*
X360166Y604243D01*
X360173Y604336D01*
X360183Y604429D01*
X360197Y604521D01*
X360214Y604612D01*
X360236Y604703D01*
X360261Y604793D01*
X360290Y604882D01*
X360322Y604969D01*
X360358Y605055D01*
X360398Y605140D01*
X360441Y605223D01*
X360488Y605304D01*
X360537Y605383D01*
X360590Y605459D01*
X360646Y605534D01*
X360706Y605606D01*
X360768Y605676D01*
X360833Y605743D01*
X360900Y605807D01*
X360971Y605869D01*
X360692Y602688D02*
X360780Y602586D01*
X360871Y602487D01*
X360964Y602390D01*
X361060Y602296D01*
X361159Y602205D01*
X361260Y602116D01*
X361364Y602031D01*
X361470Y601948D01*
X361579Y601869D01*
X361690Y601792D01*
X361802Y601719D01*
X361917Y601649D01*
X362034Y601582D01*
X362152Y601518D01*
X362273Y601458D01*
X362395Y601401D01*
X362518Y601348D01*
X362643Y601298D01*
X362769Y601252D01*
X362897Y601209D01*
X363026Y601170D01*
X363155Y601135D01*
X363286Y601103D01*
X363418Y601075D01*
X363550Y601051D01*
X363683Y601030D01*
X363816Y601014D01*
X363950Y601000D01*
X368741Y605389D02*
X368812Y605451D01*
X368879Y605515D01*
X368944Y605582D01*
X369006Y605652D01*
X369066Y605724D01*
X369122Y605799D01*
X369175Y605875D01*
X369224Y605954D01*
X369271Y606035D01*
X369314Y606118D01*
X369354Y606202D01*
X369390Y606289D01*
X369422Y606376D01*
X369451Y606465D01*
X369476Y606555D01*
X369498Y606645D01*
X369515Y606737D01*
X369529Y606829D01*
X369539Y606922D01*
X369546Y607015D01*
X369548Y607109D01*
X369546Y607202D01*
X369541Y607295D01*
X369532Y607388D01*
X369519Y607480D01*
X369502Y607572D01*
X369481Y607663D01*
X369457Y607753D01*
X369429Y607842D01*
X369397Y607930D01*
X369362Y608017D01*
X369323Y608101D01*
X369281Y608185D01*
X369235Y608266D01*
X369186Y608345D01*
X369134Y608423D01*
X369078Y608498D01*
X369020Y608570D01*
X368935Y608668D01*
X368847Y608763D01*
X368756Y608856D01*
X368663Y608946D01*
X368566Y609033D01*
X368468Y609117D01*
X368366Y609198D01*
X368262Y609276D01*
X368156Y609350D01*
X368048Y609421D01*
X367937Y609489D01*
X367825Y609554D01*
X367710Y609615D01*
X367594Y609672D01*
X367476Y609726D01*
X367356Y609776D01*
X367235Y609823D01*
X367113Y609866D01*
X366989Y609905D01*
X366864Y609940D01*
X366738Y609971D01*
X366502Y604984D02*
X366592Y604954D01*
X366684Y604928D01*
X366777Y604906D01*
X366870Y604888D01*
X366964Y604873D01*
X367059Y604862D01*
X367154Y604856D01*
X367249Y604853D01*
X367344Y604854D01*
X367439Y604859D01*
X367534Y604869D01*
X367628Y604882D01*
X367722Y604899D01*
X367815Y604919D01*
X367907Y604944D01*
X367998Y604973D01*
X368087Y605005D01*
X368176Y605041D01*
X368262Y605080D01*
X368347Y605123D01*
X368430Y605170D01*
X368511Y605220D01*
X368590Y605273D01*
X368667Y605330D01*
X368741Y605389D01*
X363210Y606274D02*
X363120Y606303D01*
X363028Y606330D01*
X362936Y606352D01*
X362842Y606370D01*
X362748Y606385D01*
X362653Y606396D01*
X362558Y606402D01*
X362463Y606405D01*
X362368Y606404D01*
X362273Y606399D01*
X362178Y606389D01*
X362084Y606376D01*
X361990Y606359D01*
X361897Y606339D01*
X361805Y606314D01*
X361714Y606285D01*
X361625Y606253D01*
X361536Y606217D01*
X361450Y606178D01*
X361365Y606135D01*
X361282Y606088D01*
X361201Y606038D01*
X361122Y605985D01*
X361045Y605928D01*
X360971Y605869D01*
X363210Y606274D02*
X366502Y604984D01*
X361346Y612447D02*
X356157Y608093D01*
X363689Y614044D02*
X364122Y614407D01*
X363759Y614840D01*
X363326Y614477D01*
X363689Y614044D01*
X357902Y621819D02*
X350119Y615289D01*
X351933Y613127D01*
X351986Y613066D01*
X352042Y613008D01*
X352101Y612953D01*
X352162Y612901D01*
X352226Y612852D01*
X352292Y612805D01*
X352360Y612762D01*
X352430Y612723D01*
X352502Y612686D01*
X352576Y612653D01*
X352651Y612624D01*
X352727Y612598D01*
X352805Y612576D01*
X352883Y612558D01*
X352963Y612543D01*
X353042Y612532D01*
X353123Y612525D01*
X353203Y612522D01*
X353284Y612523D01*
X353364Y612527D01*
X353444Y612536D01*
X353524Y612548D01*
X353603Y612564D01*
X353681Y612583D01*
X353758Y612607D01*
X353834Y612634D01*
X353909Y612664D01*
X353982Y612698D01*
X354053Y612736D01*
X354123Y612776D01*
X354190Y612821D01*
X354255Y612868D01*
X354318Y612918D01*
X354319Y612918D02*
X356913Y615095D01*
X356974Y615148D01*
X357032Y615204D01*
X357087Y615263D01*
X357139Y615324D01*
X357188Y615388D01*
X357235Y615454D01*
X357278Y615522D01*
X357317Y615592D01*
X357354Y615664D01*
X357387Y615738D01*
X357416Y615813D01*
X357442Y615889D01*
X357464Y615967D01*
X357482Y616045D01*
X357497Y616125D01*
X357508Y616204D01*
X357515Y616285D01*
X357518Y616365D01*
X357517Y616446D01*
X357513Y616526D01*
X357504Y616606D01*
X357492Y616686D01*
X357476Y616765D01*
X357457Y616843D01*
X357433Y616920D01*
X357406Y616996D01*
X357376Y617071D01*
X357342Y617144D01*
X357304Y617215D01*
X357264Y617285D01*
X357219Y617352D01*
X357172Y617417D01*
X357122Y617480D01*
X357122Y617481D02*
X355308Y619643D01*
X345255Y621086D02*
X343441Y623248D01*
X345255Y621086D02*
X345308Y621025D01*
X345364Y620967D01*
X345423Y620912D01*
X345484Y620860D01*
X345548Y620811D01*
X345614Y620764D01*
X345682Y620721D01*
X345752Y620682D01*
X345824Y620645D01*
X345898Y620612D01*
X345973Y620583D01*
X346049Y620557D01*
X346127Y620535D01*
X346205Y620517D01*
X346285Y620502D01*
X346364Y620491D01*
X346445Y620484D01*
X346525Y620481D01*
X346606Y620482D01*
X346686Y620486D01*
X346766Y620495D01*
X346846Y620507D01*
X346925Y620523D01*
X347003Y620542D01*
X347080Y620566D01*
X347156Y620593D01*
X347231Y620623D01*
X347304Y620657D01*
X347375Y620695D01*
X347445Y620735D01*
X347512Y620780D01*
X347577Y620827D01*
X347640Y620877D01*
X349802Y622691D01*
X349873Y622753D01*
X349940Y622817D01*
X350005Y622884D01*
X350067Y622954D01*
X350126Y623026D01*
X350183Y623100D01*
X350236Y623177D01*
X350285Y623256D01*
X350332Y623337D01*
X350375Y623420D01*
X350415Y623504D01*
X350451Y623591D01*
X350483Y623678D01*
X350512Y623767D01*
X350537Y623857D01*
X350559Y623947D01*
X350576Y624039D01*
X350590Y624131D01*
X350600Y624224D01*
X350607Y624317D01*
X350609Y624411D01*
X350607Y624504D01*
X350602Y624597D01*
X350593Y624690D01*
X350580Y624782D01*
X350563Y624874D01*
X350542Y624965D01*
X350518Y625055D01*
X350490Y625144D01*
X350458Y625232D01*
X350423Y625319D01*
X350384Y625403D01*
X350342Y625487D01*
X350296Y625568D01*
X350247Y625647D01*
X350195Y625725D01*
X350139Y625800D01*
X350081Y625872D01*
X350019Y625943D01*
X349955Y626010D01*
X349888Y626075D01*
X349818Y626137D01*
X349746Y626196D01*
X349671Y626253D01*
X349595Y626306D01*
X349516Y626355D01*
X349435Y626402D01*
X349352Y626445D01*
X349268Y626485D01*
X349181Y626521D01*
X349094Y626553D01*
X349005Y626582D01*
X348915Y626607D01*
X348825Y626629D01*
X348733Y626646D01*
X348641Y626660D01*
X348548Y626670D01*
X348455Y626677D01*
X348361Y626679D01*
X348268Y626677D01*
X348175Y626672D01*
X348082Y626663D01*
X347990Y626650D01*
X347898Y626633D01*
X347807Y626612D01*
X347717Y626588D01*
X347628Y626560D01*
X347540Y626528D01*
X347453Y626493D01*
X347369Y626454D01*
X347285Y626412D01*
X347204Y626366D01*
X347125Y626317D01*
X347047Y626265D01*
X346972Y626209D01*
X346900Y626151D01*
X346900Y626150D02*
X346035Y625425D01*
X348937Y621966D01*
X339398Y626309D02*
X339441Y626538D01*
X339490Y626765D01*
X339544Y626991D01*
X339604Y627216D01*
X339669Y627439D01*
X339739Y627661D01*
X339815Y627881D01*
X339896Y628099D01*
X339982Y628315D01*
X340073Y628529D01*
X340170Y628740D01*
X340271Y628949D01*
X340378Y629156D01*
X340489Y629360D01*
X340605Y629561D01*
X340726Y629760D01*
X340852Y629955D01*
X340983Y630148D01*
X341118Y630337D01*
X341258Y630523D01*
X341402Y630705D01*
X341550Y630884D01*
X341703Y631060D01*
X341860Y631231D01*
X342020Y631399D01*
X342185Y631563D01*
X342354Y631723D01*
X342527Y631879D01*
X342703Y632030D01*
X342883Y632177D01*
X343067Y632320D01*
X343253Y632458D01*
X343443Y632592D01*
X343637Y632721D01*
X343833Y632846D01*
X344032Y632966D01*
X344234Y633081D01*
X344439Y633191D01*
X344646Y633296D01*
X344856Y633397D01*
X345068Y633492D01*
X345282Y633582D01*
X345499Y633667D01*
X345717Y633746D01*
X345938Y633820D01*
X346160Y633889D01*
X346383Y633953D01*
X346608Y634011D01*
X346835Y634064D01*
X347062Y634111D01*
X347291Y634153D01*
X347521Y634190D01*
X347751Y634220D01*
X347982Y634246D01*
X348214Y634265D01*
X348446Y634280D01*
X348678Y634288D01*
X348911Y634291D01*
D14*
X549481Y400242D02*
X947825Y734491D01*
X844979Y857058D01*
X446635Y522809D01*
X549481Y400242D01*
D13*
X724908Y658506D02*
X734033Y652899D01*
X728844Y648546D02*
X724908Y658506D01*
X731751Y654301D02*
X727860Y651036D01*
X725277Y645552D02*
X716152Y651158D01*
X720088Y641199D01*
X719104Y643689D02*
X722995Y646954D01*
X707272Y637813D02*
X705110Y635998D01*
X705030Y635928D01*
X704954Y635856D01*
X704879Y635781D01*
X704808Y635703D01*
X704740Y635623D01*
X704674Y635540D01*
X704612Y635455D01*
X704553Y635367D01*
X704498Y635277D01*
X704446Y635186D01*
X704397Y635092D01*
X704352Y634997D01*
X704310Y634900D01*
X704272Y634801D01*
X704238Y634701D01*
X704207Y634600D01*
X704181Y634498D01*
X704158Y634395D01*
X704139Y634291D01*
X704124Y634187D01*
X704113Y634082D01*
X704106Y633977D01*
X704102Y633871D01*
X704103Y633766D01*
X704107Y633660D01*
X704116Y633555D01*
X704128Y633450D01*
X704145Y633346D01*
X704165Y633242D01*
X704189Y633140D01*
X704217Y633038D01*
X704249Y632937D01*
X704284Y632838D01*
X704324Y632740D01*
X704366Y632643D01*
X704413Y632549D01*
X704463Y632456D01*
X704516Y632365D01*
X704573Y632276D01*
X704633Y632189D01*
X704696Y632104D01*
X704762Y632022D01*
X704832Y631942D01*
X704904Y631866D01*
X704979Y631791D01*
X705057Y631720D01*
X705137Y631652D01*
X705220Y631586D01*
X705305Y631524D01*
X705393Y631465D01*
X705483Y631410D01*
X705574Y631358D01*
X705668Y631309D01*
X705763Y631264D01*
X705860Y631222D01*
X705959Y631184D01*
X706059Y631150D01*
X706160Y631119D01*
X706262Y631093D01*
X706365Y631070D01*
X706469Y631051D01*
X706573Y631036D01*
X706678Y631025D01*
X706783Y631018D01*
X706889Y631014D01*
X706994Y631015D01*
X707100Y631019D01*
X707205Y631028D01*
X707310Y631040D01*
X707414Y631057D01*
X707518Y631077D01*
X707620Y631101D01*
X707722Y631129D01*
X707823Y631161D01*
X707922Y631196D01*
X708020Y631236D01*
X708117Y631278D01*
X708211Y631325D01*
X708304Y631375D01*
X708395Y631428D01*
X708484Y631485D01*
X708571Y631545D01*
X708656Y631608D01*
X708738Y631674D01*
X708738Y631675D02*
X710900Y633489D01*
X704369Y641272D01*
X702207Y639458D01*
X702136Y639396D01*
X702069Y639332D01*
X702004Y639265D01*
X701942Y639195D01*
X701883Y639123D01*
X701826Y639048D01*
X701773Y638972D01*
X701724Y638893D01*
X701677Y638812D01*
X701634Y638729D01*
X701594Y638645D01*
X701558Y638558D01*
X701526Y638471D01*
X701497Y638382D01*
X701472Y638292D01*
X701450Y638202D01*
X701433Y638110D01*
X701419Y638018D01*
X701409Y637925D01*
X701402Y637832D01*
X701400Y637738D01*
X701402Y637645D01*
X701407Y637552D01*
X701416Y637459D01*
X701429Y637367D01*
X701446Y637275D01*
X701467Y637184D01*
X701491Y637094D01*
X701519Y637005D01*
X701551Y636917D01*
X701586Y636830D01*
X701625Y636746D01*
X701667Y636662D01*
X701713Y636581D01*
X701762Y636502D01*
X701814Y636424D01*
X701870Y636349D01*
X701928Y636277D01*
X701990Y636206D01*
X702054Y636139D01*
X702121Y636074D01*
X702191Y636012D01*
X702263Y635953D01*
X702338Y635896D01*
X702414Y635843D01*
X702493Y635794D01*
X702574Y635747D01*
X702657Y635704D01*
X702741Y635664D01*
X702828Y635628D01*
X702915Y635596D01*
X703004Y635567D01*
X703094Y635542D01*
X703184Y635520D01*
X703276Y635503D01*
X703368Y635489D01*
X703461Y635479D01*
X703554Y635472D01*
X703648Y635470D01*
X703741Y635472D01*
X703834Y635477D01*
X703927Y635486D01*
X704019Y635499D01*
X704111Y635516D01*
X704202Y635537D01*
X704292Y635561D01*
X704381Y635589D01*
X704469Y635621D01*
X704556Y635656D01*
X704640Y635695D01*
X704724Y635737D01*
X704805Y635783D01*
X704884Y635832D01*
X704962Y635884D01*
X705037Y635940D01*
X705109Y635998D01*
X698840Y628527D02*
X696894Y626894D01*
X698840Y628528D02*
X698908Y628582D01*
X698979Y628634D01*
X699051Y628682D01*
X699126Y628728D01*
X699203Y628770D01*
X699282Y628808D01*
X699362Y628843D01*
X699443Y628874D01*
X699526Y628902D01*
X699610Y628926D01*
X699695Y628946D01*
X699781Y628962D01*
X699868Y628975D01*
X699955Y628984D01*
X700042Y628989D01*
X700129Y628990D01*
X700217Y628987D01*
X700304Y628980D01*
X700391Y628970D01*
X700477Y628956D01*
X700563Y628937D01*
X700647Y628916D01*
X700731Y628890D01*
X700813Y628861D01*
X700894Y628828D01*
X700974Y628791D01*
X701051Y628751D01*
X701127Y628708D01*
X701201Y628661D01*
X701273Y628611D01*
X701343Y628558D01*
X701410Y628502D01*
X701474Y628443D01*
X701536Y628382D01*
X701595Y628317D01*
X701651Y628250D01*
X701705Y628181D01*
X701755Y628109D01*
X701802Y628035D01*
X701845Y627960D01*
X701885Y627882D01*
X701922Y627803D01*
X701955Y627722D01*
X701984Y627639D01*
X702010Y627556D01*
X702032Y627471D01*
X702051Y627386D01*
X702065Y627300D01*
X702076Y627213D01*
X702083Y627126D01*
X702086Y627038D01*
X702085Y626951D01*
X702080Y626864D01*
X702072Y626777D01*
X702059Y626690D01*
X702043Y626604D01*
X702023Y626519D01*
X701999Y626435D01*
X701972Y626352D01*
X701941Y626270D01*
X701906Y626190D01*
X701868Y626111D01*
X701826Y626034D01*
X701781Y625959D01*
X701733Y625887D01*
X701681Y625816D01*
X701627Y625748D01*
X701569Y625682D01*
X701509Y625618D01*
X701446Y625558D01*
X701380Y625500D01*
X699434Y623868D01*
X696169Y627759D01*
X696169Y627760D02*
X696119Y627823D01*
X696072Y627888D01*
X696027Y627955D01*
X695987Y628025D01*
X695949Y628096D01*
X695915Y628169D01*
X695884Y628244D01*
X695858Y628320D01*
X695834Y628397D01*
X695815Y628475D01*
X695799Y628554D01*
X695787Y628634D01*
X695778Y628714D01*
X695774Y628794D01*
X695773Y628875D01*
X695776Y628955D01*
X695783Y629036D01*
X695794Y629116D01*
X695809Y629195D01*
X695827Y629273D01*
X695849Y629351D01*
X695875Y629427D01*
X695904Y629502D01*
X695937Y629576D01*
X695974Y629648D01*
X696013Y629718D01*
X696056Y629786D01*
X696103Y629852D01*
X696152Y629916D01*
X696204Y629977D01*
X696259Y630036D01*
X696317Y630092D01*
X696378Y630145D01*
X696377Y630145D02*
X698107Y631596D01*
X691439Y626001D02*
X688845Y623824D01*
X688397Y627870D02*
X693840Y621384D01*
X693840Y621383D02*
X693890Y621320D01*
X693937Y621255D01*
X693982Y621188D01*
X694022Y621118D01*
X694060Y621047D01*
X694094Y620974D01*
X694125Y620899D01*
X694151Y620823D01*
X694175Y620746D01*
X694194Y620668D01*
X694210Y620589D01*
X694222Y620509D01*
X694231Y620429D01*
X694235Y620349D01*
X694236Y620268D01*
X694233Y620188D01*
X694226Y620107D01*
X694215Y620027D01*
X694200Y619948D01*
X694182Y619870D01*
X694160Y619792D01*
X694134Y619716D01*
X694105Y619641D01*
X694072Y619567D01*
X694035Y619495D01*
X693996Y619425D01*
X693953Y619357D01*
X693906Y619291D01*
X693857Y619227D01*
X693805Y619166D01*
X693750Y619107D01*
X693692Y619051D01*
X693631Y618998D01*
X693199Y618635D01*
X685894Y621348D02*
X683299Y619171D01*
X682852Y623216D02*
X688294Y616731D01*
X688294Y616730D02*
X688344Y616667D01*
X688391Y616602D01*
X688436Y616535D01*
X688476Y616465D01*
X688514Y616394D01*
X688548Y616321D01*
X688579Y616246D01*
X688605Y616170D01*
X688629Y616093D01*
X688648Y616015D01*
X688664Y615936D01*
X688676Y615856D01*
X688685Y615776D01*
X688689Y615696D01*
X688690Y615615D01*
X688687Y615535D01*
X688680Y615454D01*
X688669Y615374D01*
X688654Y615295D01*
X688636Y615217D01*
X688614Y615139D01*
X688588Y615063D01*
X688559Y614988D01*
X688526Y614914D01*
X688489Y614842D01*
X688450Y614772D01*
X688407Y614704D01*
X688360Y614638D01*
X688311Y614574D01*
X688259Y614513D01*
X688204Y614454D01*
X688146Y614398D01*
X688085Y614345D01*
X688086Y614345D02*
X687653Y613982D01*
X682546Y609697D02*
X680384Y607883D01*
X682546Y609697D02*
X682607Y609750D01*
X682665Y609806D01*
X682720Y609865D01*
X682772Y609926D01*
X682821Y609990D01*
X682868Y610056D01*
X682911Y610124D01*
X682950Y610194D01*
X682987Y610266D01*
X683020Y610340D01*
X683049Y610415D01*
X683075Y610491D01*
X683097Y610569D01*
X683115Y610647D01*
X683130Y610727D01*
X683141Y610806D01*
X683148Y610887D01*
X683151Y610967D01*
X683150Y611048D01*
X683146Y611128D01*
X683137Y611208D01*
X683125Y611288D01*
X683109Y611367D01*
X683090Y611445D01*
X683066Y611522D01*
X683039Y611598D01*
X683009Y611673D01*
X682975Y611746D01*
X682937Y611817D01*
X682897Y611887D01*
X682852Y611954D01*
X682805Y612019D01*
X682755Y612082D01*
X680941Y614244D01*
X680879Y614315D01*
X680815Y614382D01*
X680748Y614447D01*
X680678Y614509D01*
X680606Y614568D01*
X680532Y614625D01*
X680455Y614678D01*
X680376Y614727D01*
X680295Y614774D01*
X680212Y614817D01*
X680128Y614857D01*
X680041Y614893D01*
X679954Y614925D01*
X679865Y614954D01*
X679775Y614979D01*
X679685Y615001D01*
X679593Y615018D01*
X679501Y615032D01*
X679408Y615042D01*
X679315Y615049D01*
X679221Y615051D01*
X679128Y615049D01*
X679035Y615044D01*
X678942Y615035D01*
X678850Y615022D01*
X678758Y615005D01*
X678667Y614984D01*
X678577Y614960D01*
X678488Y614932D01*
X678400Y614900D01*
X678313Y614865D01*
X678229Y614826D01*
X678145Y614784D01*
X678064Y614738D01*
X677985Y614689D01*
X677907Y614637D01*
X677832Y614581D01*
X677760Y614523D01*
X677689Y614461D01*
X677622Y614397D01*
X677557Y614330D01*
X677495Y614260D01*
X677436Y614188D01*
X677379Y614113D01*
X677326Y614037D01*
X677277Y613958D01*
X677230Y613877D01*
X677187Y613794D01*
X677147Y613710D01*
X677111Y613623D01*
X677079Y613536D01*
X677050Y613447D01*
X677025Y613357D01*
X677003Y613267D01*
X676986Y613175D01*
X676972Y613083D01*
X676962Y612990D01*
X676955Y612897D01*
X676953Y612803D01*
X676955Y612710D01*
X676960Y612617D01*
X676969Y612524D01*
X676982Y612432D01*
X676999Y612340D01*
X677020Y612249D01*
X677044Y612159D01*
X677072Y612070D01*
X677104Y611982D01*
X677139Y611895D01*
X677178Y611811D01*
X677220Y611727D01*
X677266Y611646D01*
X677315Y611567D01*
X677367Y611489D01*
X677423Y611414D01*
X677481Y611342D01*
X677482Y611342D02*
X678207Y610477D01*
X681666Y613380D01*
X675874Y604098D02*
X671520Y609287D01*
X668926Y607110D01*
X669651Y606245D01*
X672595Y596925D02*
X671730Y596200D01*
X662605Y601806D01*
X666064Y604708D02*
X668688Y598068D01*
X647826Y554676D02*
X640043Y548146D01*
X647826Y554676D02*
X646012Y556838D01*
X645942Y556918D01*
X645870Y556994D01*
X645795Y557069D01*
X645717Y557140D01*
X645637Y557208D01*
X645554Y557274D01*
X645469Y557336D01*
X645381Y557395D01*
X645291Y557450D01*
X645200Y557502D01*
X645106Y557551D01*
X645011Y557596D01*
X644914Y557638D01*
X644815Y557676D01*
X644715Y557710D01*
X644614Y557741D01*
X644512Y557767D01*
X644409Y557790D01*
X644305Y557809D01*
X644201Y557824D01*
X644096Y557835D01*
X643991Y557842D01*
X643885Y557846D01*
X643780Y557845D01*
X643674Y557841D01*
X643569Y557832D01*
X643464Y557820D01*
X643360Y557803D01*
X643256Y557783D01*
X643154Y557759D01*
X643052Y557731D01*
X642951Y557699D01*
X642852Y557664D01*
X642754Y557624D01*
X642657Y557582D01*
X642563Y557535D01*
X642470Y557485D01*
X642379Y557432D01*
X642290Y557375D01*
X642203Y557315D01*
X642118Y557252D01*
X642036Y557186D01*
X641956Y557116D01*
X641880Y557044D01*
X641805Y556969D01*
X641734Y556891D01*
X641666Y556811D01*
X641600Y556728D01*
X641538Y556643D01*
X641479Y556555D01*
X641424Y556465D01*
X641372Y556374D01*
X641323Y556280D01*
X641278Y556185D01*
X641236Y556088D01*
X641198Y555989D01*
X641164Y555889D01*
X641133Y555788D01*
X641107Y555686D01*
X641084Y555583D01*
X641065Y555479D01*
X641050Y555375D01*
X641039Y555270D01*
X641032Y555165D01*
X641028Y555059D01*
X641029Y554954D01*
X641033Y554848D01*
X641042Y554743D01*
X641054Y554638D01*
X641071Y554534D01*
X641091Y554430D01*
X641115Y554328D01*
X641143Y554226D01*
X641175Y554125D01*
X641210Y554026D01*
X641250Y553928D01*
X641292Y553831D01*
X641339Y553737D01*
X641389Y553644D01*
X641442Y553553D01*
X641499Y553463D01*
X641559Y553377D01*
X641622Y553292D01*
X641688Y553210D01*
X643502Y551048D01*
X635293Y558197D02*
X638753Y561099D01*
X638752Y561099D02*
X638832Y561169D01*
X638908Y561241D01*
X638983Y561316D01*
X639054Y561394D01*
X639122Y561474D01*
X639188Y561557D01*
X639250Y561642D01*
X639309Y561730D01*
X639364Y561820D01*
X639416Y561911D01*
X639465Y562005D01*
X639510Y562100D01*
X639552Y562197D01*
X639590Y562296D01*
X639624Y562396D01*
X639655Y562497D01*
X639681Y562599D01*
X639704Y562702D01*
X639723Y562806D01*
X639738Y562910D01*
X639749Y563015D01*
X639756Y563120D01*
X639760Y563226D01*
X639759Y563331D01*
X639755Y563437D01*
X639746Y563542D01*
X639734Y563647D01*
X639717Y563751D01*
X639697Y563855D01*
X639673Y563957D01*
X639645Y564059D01*
X639613Y564160D01*
X639578Y564259D01*
X639538Y564357D01*
X639496Y564454D01*
X639449Y564548D01*
X639399Y564641D01*
X639346Y564732D01*
X639289Y564821D01*
X639229Y564908D01*
X639166Y564993D01*
X639100Y565075D01*
X639030Y565155D01*
X638958Y565231D01*
X638883Y565306D01*
X638805Y565377D01*
X638725Y565445D01*
X638642Y565511D01*
X638557Y565573D01*
X638469Y565632D01*
X638379Y565687D01*
X638288Y565739D01*
X638194Y565788D01*
X638099Y565833D01*
X638002Y565875D01*
X637903Y565913D01*
X637803Y565947D01*
X637702Y565978D01*
X637600Y566004D01*
X637497Y566027D01*
X637393Y566046D01*
X637289Y566061D01*
X637184Y566072D01*
X637079Y566079D01*
X636973Y566083D01*
X636868Y566082D01*
X636762Y566078D01*
X636657Y566069D01*
X636552Y566057D01*
X636448Y566040D01*
X636344Y566020D01*
X636242Y565996D01*
X636140Y565968D01*
X636039Y565936D01*
X635940Y565901D01*
X635842Y565861D01*
X635745Y565819D01*
X635651Y565772D01*
X635558Y565722D01*
X635467Y565669D01*
X635378Y565612D01*
X635291Y565552D01*
X635206Y565489D01*
X635124Y565423D01*
X631665Y562521D01*
X631585Y562451D01*
X631509Y562379D01*
X631434Y562304D01*
X631363Y562226D01*
X631295Y562146D01*
X631229Y562063D01*
X631167Y561978D01*
X631108Y561890D01*
X631053Y561800D01*
X631001Y561709D01*
X630952Y561615D01*
X630907Y561520D01*
X630865Y561423D01*
X630827Y561324D01*
X630793Y561224D01*
X630762Y561123D01*
X630736Y561021D01*
X630713Y560918D01*
X630694Y560814D01*
X630679Y560710D01*
X630668Y560605D01*
X630661Y560500D01*
X630657Y560394D01*
X630658Y560289D01*
X630662Y560183D01*
X630671Y560078D01*
X630683Y559973D01*
X630700Y559869D01*
X630720Y559765D01*
X630744Y559663D01*
X630772Y559561D01*
X630804Y559460D01*
X630839Y559361D01*
X630879Y559263D01*
X630921Y559166D01*
X630968Y559072D01*
X631018Y558979D01*
X631071Y558888D01*
X631128Y558799D01*
X631188Y558712D01*
X631251Y558627D01*
X631317Y558545D01*
X631387Y558465D01*
X631459Y558389D01*
X631534Y558314D01*
X631612Y558243D01*
X631692Y558175D01*
X631775Y558109D01*
X631860Y558047D01*
X631948Y557988D01*
X632038Y557933D01*
X632129Y557881D01*
X632223Y557832D01*
X632318Y557787D01*
X632415Y557745D01*
X632514Y557707D01*
X632614Y557673D01*
X632715Y557642D01*
X632817Y557616D01*
X632920Y557593D01*
X633024Y557574D01*
X633128Y557559D01*
X633233Y557548D01*
X633338Y557541D01*
X633444Y557537D01*
X633549Y557538D01*
X633655Y557542D01*
X633760Y557551D01*
X633865Y557563D01*
X633969Y557580D01*
X634073Y557600D01*
X634175Y557624D01*
X634277Y557652D01*
X634378Y557684D01*
X634477Y557719D01*
X634575Y557759D01*
X634672Y557801D01*
X634766Y557848D01*
X634859Y557898D01*
X634950Y557951D01*
X635040Y558008D01*
X635126Y558068D01*
X635211Y558131D01*
X635293Y558197D01*
X623852Y567441D02*
X623794Y567513D01*
X623738Y567588D01*
X623686Y567666D01*
X623637Y567745D01*
X623591Y567826D01*
X623549Y567910D01*
X623510Y567994D01*
X623475Y568081D01*
X623443Y568169D01*
X623415Y568258D01*
X623391Y568348D01*
X623370Y568439D01*
X623353Y568531D01*
X623340Y568623D01*
X623331Y568716D01*
X623326Y568809D01*
X623324Y568902D01*
X623326Y568996D01*
X623333Y569089D01*
X623343Y569182D01*
X623357Y569274D01*
X623374Y569365D01*
X623396Y569456D01*
X623421Y569546D01*
X623450Y569635D01*
X623482Y569722D01*
X623518Y569808D01*
X623558Y569893D01*
X623601Y569976D01*
X623648Y570057D01*
X623697Y570136D01*
X623750Y570212D01*
X623806Y570287D01*
X623866Y570359D01*
X623928Y570429D01*
X623993Y570496D01*
X624060Y570560D01*
X624131Y570622D01*
X623852Y567441D02*
X623940Y567339D01*
X624031Y567240D01*
X624124Y567143D01*
X624220Y567049D01*
X624319Y566958D01*
X624420Y566869D01*
X624524Y566784D01*
X624630Y566701D01*
X624739Y566622D01*
X624850Y566545D01*
X624962Y566472D01*
X625077Y566402D01*
X625194Y566335D01*
X625312Y566271D01*
X625433Y566211D01*
X625555Y566154D01*
X625678Y566101D01*
X625803Y566051D01*
X625929Y566005D01*
X626057Y565962D01*
X626186Y565923D01*
X626315Y565888D01*
X626446Y565856D01*
X626578Y565828D01*
X626710Y565804D01*
X626843Y565783D01*
X626976Y565767D01*
X627110Y565753D01*
X631901Y570142D02*
X631972Y570204D01*
X632039Y570268D01*
X632104Y570335D01*
X632166Y570405D01*
X632226Y570477D01*
X632282Y570552D01*
X632335Y570628D01*
X632384Y570707D01*
X632431Y570788D01*
X632474Y570871D01*
X632514Y570955D01*
X632550Y571042D01*
X632582Y571129D01*
X632611Y571218D01*
X632636Y571308D01*
X632658Y571398D01*
X632675Y571490D01*
X632689Y571582D01*
X632699Y571675D01*
X632706Y571768D01*
X632708Y571862D01*
X632706Y571955D01*
X632701Y572048D01*
X632692Y572141D01*
X632679Y572233D01*
X632662Y572325D01*
X632641Y572416D01*
X632617Y572506D01*
X632589Y572595D01*
X632557Y572683D01*
X632522Y572770D01*
X632483Y572854D01*
X632441Y572938D01*
X632395Y573019D01*
X632346Y573098D01*
X632294Y573176D01*
X632238Y573251D01*
X632180Y573323D01*
X632095Y573421D01*
X632007Y573516D01*
X631916Y573609D01*
X631823Y573699D01*
X631726Y573786D01*
X631628Y573870D01*
X631526Y573951D01*
X631422Y574029D01*
X631316Y574103D01*
X631208Y574174D01*
X631097Y574242D01*
X630985Y574307D01*
X630870Y574368D01*
X630754Y574425D01*
X630636Y574479D01*
X630516Y574529D01*
X630395Y574576D01*
X630273Y574619D01*
X630149Y574658D01*
X630024Y574693D01*
X629898Y574724D01*
X629662Y569737D02*
X629752Y569707D01*
X629844Y569681D01*
X629937Y569659D01*
X630030Y569641D01*
X630124Y569626D01*
X630219Y569615D01*
X630314Y569609D01*
X630409Y569606D01*
X630504Y569607D01*
X630599Y569612D01*
X630694Y569622D01*
X630788Y569635D01*
X630882Y569652D01*
X630975Y569672D01*
X631067Y569697D01*
X631158Y569726D01*
X631247Y569758D01*
X631336Y569794D01*
X631422Y569833D01*
X631507Y569876D01*
X631590Y569923D01*
X631671Y569973D01*
X631750Y570026D01*
X631827Y570083D01*
X631901Y570142D01*
X626370Y571027D02*
X626280Y571056D01*
X626188Y571083D01*
X626096Y571105D01*
X626002Y571123D01*
X625908Y571138D01*
X625813Y571149D01*
X625718Y571155D01*
X625623Y571158D01*
X625528Y571157D01*
X625433Y571152D01*
X625338Y571142D01*
X625244Y571129D01*
X625150Y571112D01*
X625057Y571092D01*
X624965Y571067D01*
X624874Y571038D01*
X624785Y571006D01*
X624696Y570970D01*
X624610Y570931D01*
X624525Y570888D01*
X624442Y570841D01*
X624361Y570791D01*
X624282Y570738D01*
X624205Y570681D01*
X624131Y570622D01*
X626370Y571027D02*
X629662Y569737D01*
X621827Y576002D02*
X617473Y581190D01*
X617056Y576419D02*
X622244Y580773D01*
X649928Y524290D02*
X649885Y524061D01*
X649836Y523834D01*
X649782Y523608D01*
X649722Y523383D01*
X649657Y523160D01*
X649587Y522938D01*
X649511Y522719D01*
X649430Y522501D01*
X649344Y522285D01*
X649253Y522071D01*
X649157Y521859D01*
X649055Y521650D01*
X648949Y521444D01*
X648837Y521240D01*
X648721Y521038D01*
X648600Y520840D01*
X648474Y520644D01*
X648343Y520452D01*
X648208Y520263D01*
X648069Y520077D01*
X647925Y519894D01*
X647776Y519715D01*
X647624Y519540D01*
X647467Y519368D01*
X647306Y519201D01*
X647141Y519037D01*
X646972Y518877D01*
X646800Y518721D01*
X646623Y518570D01*
X646624Y518569D02*
X646444Y518422D01*
X646261Y518279D01*
X646074Y518141D01*
X645884Y518007D01*
X645691Y517877D01*
X645495Y517753D01*
X645296Y517633D01*
X645093Y517518D01*
X644889Y517408D01*
X644681Y517302D01*
X644472Y517202D01*
X644259Y517107D01*
X644045Y517017D01*
X643829Y516932D01*
X643610Y516853D01*
X643390Y516778D01*
X643168Y516709D01*
X642944Y516646D01*
X642719Y516588D01*
X642493Y516535D01*
X642265Y516487D01*
X642036Y516446D01*
X641807Y516409D01*
X641576Y516379D01*
X641345Y516353D01*
X641114Y516334D01*
X640881Y516319D01*
X640649Y516311D01*
X640417Y516308D01*
X637731Y521264D02*
X645514Y527795D01*
X642055Y524892D02*
X638427Y529216D01*
X641886Y532119D02*
X634103Y525588D01*
X632090Y534135D02*
X630457Y536080D01*
X632090Y534135D02*
X632144Y534067D01*
X632196Y533996D01*
X632244Y533924D01*
X632290Y533849D01*
X632332Y533772D01*
X632370Y533693D01*
X632405Y533613D01*
X632436Y533532D01*
X632464Y533449D01*
X632488Y533365D01*
X632508Y533280D01*
X632524Y533194D01*
X632537Y533107D01*
X632546Y533020D01*
X632551Y532933D01*
X632552Y532846D01*
X632549Y532758D01*
X632542Y532671D01*
X632532Y532584D01*
X632518Y532498D01*
X632499Y532412D01*
X632478Y532328D01*
X632452Y532244D01*
X632423Y532162D01*
X632390Y532081D01*
X632353Y532001D01*
X632313Y531924D01*
X632270Y531848D01*
X632223Y531774D01*
X632173Y531702D01*
X632120Y531632D01*
X632064Y531565D01*
X632005Y531501D01*
X631944Y531439D01*
X631879Y531380D01*
X631812Y531324D01*
X631743Y531270D01*
X631671Y531220D01*
X631597Y531173D01*
X631522Y531130D01*
X631444Y531090D01*
X631365Y531053D01*
X631284Y531020D01*
X631201Y530991D01*
X631118Y530965D01*
X631033Y530943D01*
X630948Y530924D01*
X630862Y530910D01*
X630775Y530899D01*
X630688Y530892D01*
X630600Y530889D01*
X630513Y530890D01*
X630426Y530895D01*
X630339Y530903D01*
X630252Y530916D01*
X630166Y530932D01*
X630081Y530952D01*
X629997Y530976D01*
X629914Y531003D01*
X629832Y531034D01*
X629752Y531069D01*
X629673Y531107D01*
X629596Y531149D01*
X629521Y531194D01*
X629449Y531242D01*
X629378Y531294D01*
X629310Y531348D01*
X629244Y531406D01*
X629180Y531466D01*
X629120Y531529D01*
X629062Y531595D01*
X629063Y531595D02*
X627430Y533541D01*
X631322Y536806D01*
X631385Y536856D01*
X631450Y536903D01*
X631517Y536948D01*
X631587Y536988D01*
X631658Y537026D01*
X631731Y537060D01*
X631806Y537091D01*
X631882Y537117D01*
X631959Y537141D01*
X632037Y537160D01*
X632116Y537176D01*
X632196Y537188D01*
X632276Y537197D01*
X632356Y537201D01*
X632437Y537202D01*
X632517Y537199D01*
X632598Y537192D01*
X632678Y537181D01*
X632757Y537166D01*
X632835Y537148D01*
X632913Y537126D01*
X632989Y537100D01*
X633064Y537071D01*
X633138Y537038D01*
X633210Y537001D01*
X633280Y536962D01*
X633348Y536919D01*
X633414Y536872D01*
X633478Y536823D01*
X633539Y536771D01*
X633598Y536716D01*
X633654Y536658D01*
X633707Y536597D01*
X635159Y534868D01*
X626137Y541229D02*
X623458Y542665D01*
X626136Y541229D02*
X626203Y541195D01*
X626272Y541165D01*
X626343Y541138D01*
X626414Y541115D01*
X626487Y541095D01*
X626560Y541080D01*
X626635Y541068D01*
X626710Y541060D01*
X626785Y541056D01*
X626860Y541055D01*
X626935Y541059D01*
X627010Y541066D01*
X627084Y541078D01*
X627158Y541093D01*
X627231Y541112D01*
X627303Y541134D01*
X627373Y541160D01*
X627442Y541190D01*
X627510Y541223D01*
X627575Y541260D01*
X627639Y541300D01*
X627701Y541343D01*
X627760Y541390D01*
X627817Y541439D01*
X627871Y541491D01*
X627922Y541546D01*
X627971Y541604D01*
X628016Y541664D01*
X628059Y541726D01*
X628098Y541790D01*
X628133Y541856D01*
X628166Y541924D01*
X628195Y541994D01*
X628220Y542065D01*
X628241Y542137D01*
X628259Y542210D01*
X628273Y542284D01*
X628283Y542358D01*
X628289Y542433D01*
X628292Y542509D01*
X628291Y542584D01*
X628285Y542659D01*
X628276Y542734D01*
X628263Y542808D01*
X628247Y542881D01*
X628226Y542953D01*
X628202Y543025D01*
X628174Y543095D01*
X628143Y543163D01*
X628108Y543230D01*
X628070Y543294D01*
X628028Y543357D01*
X627984Y543418D01*
X627936Y543476D01*
X627936Y543475D02*
X627834Y543590D01*
X627729Y543703D01*
X627621Y543814D01*
X627511Y543921D01*
X627398Y544027D01*
X627283Y544129D01*
X627166Y544228D01*
X627045Y544325D01*
X626923Y544419D01*
X626799Y544510D01*
X626672Y544597D01*
X626543Y544682D01*
X626412Y544764D01*
X626280Y544842D01*
X626145Y544917D01*
X626009Y544989D01*
X625871Y545058D01*
X623458Y542666D02*
X623391Y542700D01*
X623322Y542730D01*
X623251Y542757D01*
X623180Y542780D01*
X623107Y542800D01*
X623034Y542815D01*
X622959Y542827D01*
X622884Y542835D01*
X622809Y542839D01*
X622734Y542840D01*
X622659Y542836D01*
X622584Y542829D01*
X622510Y542817D01*
X622436Y542802D01*
X622363Y542783D01*
X622291Y542761D01*
X622221Y542735D01*
X622152Y542705D01*
X622084Y542672D01*
X622019Y542635D01*
X621955Y542595D01*
X621893Y542552D01*
X621834Y542505D01*
X621777Y542456D01*
X621723Y542404D01*
X621672Y542349D01*
X621623Y542291D01*
X621578Y542231D01*
X621535Y542169D01*
X621496Y542105D01*
X621461Y542039D01*
X621428Y541971D01*
X621399Y541901D01*
X621374Y541830D01*
X621353Y541758D01*
X621335Y541685D01*
X621321Y541611D01*
X621311Y541537D01*
X621305Y541462D01*
X621302Y541386D01*
X621303Y541311D01*
X621309Y541236D01*
X621318Y541161D01*
X621331Y541087D01*
X621347Y541014D01*
X621368Y540942D01*
X621392Y540870D01*
X621420Y540800D01*
X621451Y540732D01*
X621486Y540665D01*
X621524Y540601D01*
X621566Y540538D01*
X621610Y540477D01*
X621658Y540419D01*
X621658Y540418D02*
X621808Y540249D01*
X621962Y540083D01*
X622120Y539921D01*
X622282Y539762D01*
X622447Y539607D01*
X622616Y539457D01*
X622789Y539310D01*
X622965Y539167D01*
X623144Y539029D01*
X623326Y538895D01*
X623512Y538765D01*
X623700Y538640D01*
X623892Y538519D01*
X624086Y538403D01*
X617130Y554597D02*
X615316Y556759D01*
X615246Y556839D01*
X615174Y556915D01*
X615099Y556990D01*
X615021Y557061D01*
X614941Y557129D01*
X614858Y557195D01*
X614773Y557257D01*
X614685Y557316D01*
X614595Y557371D01*
X614504Y557423D01*
X614410Y557472D01*
X614315Y557517D01*
X614218Y557559D01*
X614119Y557597D01*
X614019Y557631D01*
X613918Y557662D01*
X613816Y557688D01*
X613713Y557711D01*
X613609Y557730D01*
X613505Y557745D01*
X613400Y557756D01*
X613295Y557763D01*
X613189Y557767D01*
X613084Y557766D01*
X612978Y557762D01*
X612873Y557753D01*
X612768Y557741D01*
X612664Y557724D01*
X612560Y557704D01*
X612458Y557680D01*
X612356Y557652D01*
X612255Y557620D01*
X612156Y557585D01*
X612058Y557545D01*
X611961Y557503D01*
X611867Y557456D01*
X611774Y557406D01*
X611683Y557353D01*
X611594Y557296D01*
X611507Y557236D01*
X611422Y557173D01*
X611340Y557107D01*
X611260Y557037D01*
X611184Y556965D01*
X611109Y556890D01*
X611038Y556812D01*
X610970Y556732D01*
X610904Y556649D01*
X610842Y556564D01*
X610783Y556476D01*
X610728Y556386D01*
X610676Y556295D01*
X610627Y556201D01*
X610582Y556106D01*
X610540Y556009D01*
X610502Y555910D01*
X610468Y555810D01*
X610437Y555709D01*
X610411Y555607D01*
X610388Y555504D01*
X610369Y555400D01*
X610354Y555296D01*
X610343Y555191D01*
X610336Y555086D01*
X610332Y554980D01*
X610333Y554875D01*
X610337Y554769D01*
X610346Y554664D01*
X610358Y554559D01*
X610375Y554455D01*
X610395Y554351D01*
X610419Y554249D01*
X610447Y554147D01*
X610479Y554046D01*
X610514Y553947D01*
X610554Y553849D01*
X610596Y553752D01*
X610643Y553658D01*
X610693Y553565D01*
X610746Y553474D01*
X610803Y553385D01*
X610863Y553298D01*
X610926Y553213D01*
X610992Y553131D01*
X612806Y550969D01*
X620589Y557500D01*
X618775Y559662D01*
X618775Y559661D02*
X618713Y559732D01*
X618649Y559799D01*
X618582Y559864D01*
X618512Y559926D01*
X618440Y559985D01*
X618365Y560042D01*
X618289Y560095D01*
X618210Y560144D01*
X618129Y560191D01*
X618046Y560234D01*
X617962Y560274D01*
X617875Y560310D01*
X617788Y560342D01*
X617699Y560371D01*
X617609Y560396D01*
X617519Y560418D01*
X617427Y560435D01*
X617335Y560449D01*
X617242Y560459D01*
X617149Y560466D01*
X617055Y560468D01*
X616962Y560466D01*
X616869Y560461D01*
X616776Y560452D01*
X616684Y560439D01*
X616592Y560422D01*
X616501Y560401D01*
X616411Y560377D01*
X616322Y560349D01*
X616234Y560317D01*
X616147Y560282D01*
X616063Y560243D01*
X615979Y560201D01*
X615898Y560155D01*
X615819Y560106D01*
X615741Y560054D01*
X615666Y559998D01*
X615594Y559940D01*
X615523Y559878D01*
X615456Y559814D01*
X615391Y559747D01*
X615329Y559677D01*
X615270Y559605D01*
X615213Y559530D01*
X615160Y559454D01*
X615111Y559375D01*
X615064Y559294D01*
X615021Y559211D01*
X614981Y559127D01*
X614945Y559040D01*
X614913Y558953D01*
X614884Y558864D01*
X614859Y558774D01*
X614837Y558684D01*
X614820Y558592D01*
X614806Y558500D01*
X614796Y558407D01*
X614789Y558314D01*
X614787Y558220D01*
X614789Y558127D01*
X614794Y558034D01*
X614803Y557941D01*
X614816Y557849D01*
X614833Y557757D01*
X614854Y557666D01*
X614878Y557576D01*
X614906Y557487D01*
X614938Y557399D01*
X614973Y557312D01*
X615012Y557228D01*
X615054Y557144D01*
X615100Y557063D01*
X615149Y556984D01*
X615201Y556906D01*
X615257Y556831D01*
X615315Y556759D01*
X610965Y563700D02*
X607073Y560435D01*
X607010Y560385D01*
X606945Y560338D01*
X606878Y560293D01*
X606808Y560253D01*
X606737Y560215D01*
X606664Y560181D01*
X606589Y560150D01*
X606513Y560124D01*
X606436Y560100D01*
X606358Y560081D01*
X606279Y560065D01*
X606199Y560053D01*
X606119Y560044D01*
X606039Y560040D01*
X605958Y560039D01*
X605878Y560042D01*
X605797Y560049D01*
X605718Y560060D01*
X605638Y560075D01*
X605560Y560093D01*
X605482Y560115D01*
X605406Y560141D01*
X605331Y560170D01*
X605257Y560203D01*
X605185Y560240D01*
X605115Y560279D01*
X605047Y560322D01*
X604981Y560369D01*
X604918Y560418D01*
X604856Y560470D01*
X604797Y560525D01*
X604741Y560583D01*
X604688Y560644D01*
X602874Y562806D01*
X608062Y567159D01*
X603854Y572175D02*
X598665Y567821D01*
X603854Y572175D02*
X600588Y576067D01*
X600588Y576066D02*
X600535Y576127D01*
X600479Y576185D01*
X600420Y576240D01*
X600359Y576292D01*
X600295Y576341D01*
X600229Y576388D01*
X600161Y576431D01*
X600091Y576470D01*
X600019Y576507D01*
X599945Y576540D01*
X599870Y576569D01*
X599794Y576595D01*
X599716Y576617D01*
X599638Y576635D01*
X599559Y576650D01*
X599479Y576661D01*
X599398Y576668D01*
X599318Y576671D01*
X599237Y576670D01*
X599157Y576666D01*
X599077Y576657D01*
X598997Y576645D01*
X598918Y576629D01*
X598840Y576610D01*
X598763Y576586D01*
X598687Y576560D01*
X598612Y576529D01*
X598539Y576495D01*
X598468Y576457D01*
X598398Y576417D01*
X598331Y576373D01*
X598266Y576325D01*
X598203Y576275D01*
X594311Y573010D01*
X596488Y570416D02*
X601677Y574770D01*
X595225Y582458D02*
X587442Y575928D01*
X595225Y582458D02*
X593411Y584620D01*
X593358Y584681D01*
X593302Y584739D01*
X593243Y584794D01*
X593182Y584846D01*
X593118Y584895D01*
X593052Y584942D01*
X592984Y584985D01*
X592914Y585024D01*
X592842Y585061D01*
X592768Y585094D01*
X592693Y585123D01*
X592617Y585149D01*
X592539Y585171D01*
X592461Y585189D01*
X592382Y585204D01*
X592302Y585215D01*
X592221Y585222D01*
X592141Y585225D01*
X592060Y585224D01*
X591980Y585220D01*
X591900Y585211D01*
X591820Y585199D01*
X591741Y585183D01*
X591663Y585164D01*
X591586Y585140D01*
X591510Y585114D01*
X591435Y585083D01*
X591362Y585049D01*
X591291Y585011D01*
X591221Y584971D01*
X591154Y584927D01*
X591089Y584879D01*
X591026Y584829D01*
X591025Y584829D02*
X588431Y582652D01*
X588432Y582652D02*
X588371Y582599D01*
X588313Y582543D01*
X588258Y582484D01*
X588206Y582423D01*
X588157Y582359D01*
X588110Y582293D01*
X588067Y582225D01*
X588028Y582155D01*
X587991Y582083D01*
X587958Y582009D01*
X587929Y581934D01*
X587903Y581858D01*
X587881Y581780D01*
X587863Y581702D01*
X587848Y581623D01*
X587837Y581543D01*
X587830Y581462D01*
X587827Y581382D01*
X587828Y581301D01*
X587832Y581221D01*
X587841Y581141D01*
X587853Y581061D01*
X587869Y580982D01*
X587888Y580904D01*
X587912Y580827D01*
X587938Y580751D01*
X587969Y580676D01*
X588003Y580603D01*
X588041Y580532D01*
X588081Y580462D01*
X588125Y580395D01*
X588173Y580330D01*
X588223Y580267D01*
X588222Y580267D02*
X590036Y578105D01*
X583157Y584546D02*
X583200Y584775D01*
X583249Y585002D01*
X583303Y585228D01*
X583363Y585453D01*
X583428Y585676D01*
X583498Y585898D01*
X583574Y586118D01*
X583655Y586336D01*
X583741Y586552D01*
X583832Y586766D01*
X583929Y586977D01*
X584030Y587186D01*
X584137Y587393D01*
X584248Y587597D01*
X584364Y587798D01*
X584485Y587997D01*
X584611Y588192D01*
X584742Y588385D01*
X584877Y588574D01*
X585017Y588760D01*
X585161Y588942D01*
X585309Y589121D01*
X585462Y589297D01*
X585619Y589468D01*
X585779Y589636D01*
X585944Y589800D01*
X586113Y589960D01*
X586286Y590116D01*
X586462Y590267D01*
X586642Y590414D01*
X586826Y590557D01*
X587012Y590695D01*
X587202Y590829D01*
X587396Y590958D01*
X587592Y591083D01*
X587791Y591203D01*
X587993Y591318D01*
X588198Y591428D01*
X588405Y591533D01*
X588615Y591634D01*
X588827Y591729D01*
X589041Y591819D01*
X589258Y591904D01*
X589476Y591983D01*
X589697Y592057D01*
X589919Y592126D01*
X590142Y592190D01*
X590367Y592248D01*
X590594Y592301D01*
X590821Y592348D01*
X591050Y592390D01*
X591280Y592427D01*
X591510Y592457D01*
X591741Y592483D01*
X591973Y592502D01*
X592205Y592517D01*
X592437Y592525D01*
X592670Y592528D01*
X797422Y679512D02*
X805205Y686042D01*
X793794Y683836D01*
X801577Y690366D01*
X789560Y688882D02*
X786658Y692341D01*
X789560Y688882D02*
X797343Y695412D01*
X794441Y698871D01*
X791707Y695104D02*
X793884Y692510D01*
X785002Y703095D02*
X783914Y704392D01*
X779590Y700764D01*
X781767Y698169D01*
X781766Y698169D02*
X781828Y698098D01*
X781892Y698031D01*
X781959Y697966D01*
X782029Y697904D01*
X782101Y697845D01*
X782175Y697788D01*
X782252Y697735D01*
X782331Y697686D01*
X782412Y697639D01*
X782495Y697596D01*
X782579Y697556D01*
X782666Y697520D01*
X782753Y697488D01*
X782842Y697459D01*
X782932Y697434D01*
X783022Y697412D01*
X783114Y697395D01*
X783206Y697381D01*
X783299Y697371D01*
X783392Y697364D01*
X783486Y697362D01*
X783579Y697364D01*
X783672Y697369D01*
X783765Y697378D01*
X783857Y697391D01*
X783949Y697408D01*
X784040Y697429D01*
X784130Y697453D01*
X784219Y697481D01*
X784307Y697513D01*
X784394Y697548D01*
X784478Y697587D01*
X784562Y697629D01*
X784643Y697675D01*
X784722Y697724D01*
X784800Y697776D01*
X784875Y697832D01*
X784947Y697890D01*
X784948Y697891D02*
X789272Y701519D01*
X789271Y701519D02*
X789342Y701581D01*
X789409Y701645D01*
X789474Y701712D01*
X789536Y701782D01*
X789595Y701854D01*
X789652Y701929D01*
X789705Y702005D01*
X789754Y702084D01*
X789801Y702165D01*
X789844Y702248D01*
X789884Y702332D01*
X789920Y702419D01*
X789952Y702506D01*
X789981Y702595D01*
X790006Y702685D01*
X790028Y702775D01*
X790045Y702867D01*
X790059Y702959D01*
X790069Y703052D01*
X790076Y703145D01*
X790078Y703239D01*
X790076Y703332D01*
X790071Y703425D01*
X790062Y703518D01*
X790049Y703610D01*
X790032Y703702D01*
X790011Y703793D01*
X789987Y703883D01*
X789959Y703972D01*
X789927Y704060D01*
X789892Y704146D01*
X789853Y704231D01*
X789811Y704315D01*
X789765Y704396D01*
X789716Y704475D01*
X789664Y704553D01*
X789608Y704628D01*
X789550Y704700D01*
X787373Y707294D01*
X778526Y708178D02*
X774172Y713367D01*
X803906Y659710D02*
X803863Y659481D01*
X803814Y659254D01*
X803760Y659028D01*
X803700Y658803D01*
X803635Y658580D01*
X803565Y658358D01*
X803489Y658139D01*
X803408Y657921D01*
X803322Y657705D01*
X803231Y657491D01*
X803135Y657279D01*
X803033Y657070D01*
X802927Y656864D01*
X802815Y656660D01*
X802699Y656458D01*
X802578Y656260D01*
X802452Y656064D01*
X802321Y655872D01*
X802186Y655683D01*
X802047Y655497D01*
X801903Y655314D01*
X801754Y655135D01*
X801602Y654960D01*
X801445Y654788D01*
X801284Y654621D01*
X801119Y654457D01*
X800950Y654297D01*
X800778Y654141D01*
X800601Y653990D01*
X800601Y653989D02*
X800421Y653842D01*
X800238Y653699D01*
X800051Y653561D01*
X799861Y653427D01*
X799668Y653297D01*
X799472Y653173D01*
X799273Y653053D01*
X799070Y652938D01*
X798866Y652828D01*
X798658Y652722D01*
X798449Y652622D01*
X798236Y652527D01*
X798022Y652437D01*
X797806Y652352D01*
X797587Y652273D01*
X797367Y652198D01*
X797145Y652129D01*
X796921Y652066D01*
X796696Y652008D01*
X796470Y651955D01*
X796242Y651907D01*
X796013Y651866D01*
X795784Y651829D01*
X795553Y651799D01*
X795322Y651773D01*
X795091Y651754D01*
X794858Y651739D01*
X794626Y651731D01*
X794394Y651728D01*
X791684Y656714D02*
X799467Y663245D01*
X796564Y666704D01*
X793105Y663801D02*
X796008Y660342D01*
X787026Y664899D02*
X793512Y670341D01*
X787026Y664899D02*
X786963Y664849D01*
X786898Y664802D01*
X786831Y664757D01*
X786761Y664717D01*
X786690Y664679D01*
X786617Y664645D01*
X786542Y664614D01*
X786466Y664588D01*
X786389Y664564D01*
X786311Y664545D01*
X786232Y664529D01*
X786152Y664517D01*
X786072Y664508D01*
X785992Y664504D01*
X785911Y664503D01*
X785831Y664506D01*
X785750Y664513D01*
X785671Y664524D01*
X785591Y664539D01*
X785513Y664557D01*
X785435Y664579D01*
X785359Y664605D01*
X785284Y664634D01*
X785210Y664667D01*
X785138Y664704D01*
X785068Y664743D01*
X785000Y664786D01*
X784934Y664833D01*
X784871Y664882D01*
X784809Y664934D01*
X784750Y664989D01*
X784694Y665047D01*
X784641Y665108D01*
X783618Y672473D02*
X781986Y674419D01*
X783619Y672473D02*
X783673Y672405D01*
X783725Y672334D01*
X783773Y672262D01*
X783819Y672187D01*
X783861Y672110D01*
X783899Y672031D01*
X783934Y671951D01*
X783965Y671870D01*
X783993Y671787D01*
X784017Y671703D01*
X784037Y671618D01*
X784053Y671532D01*
X784066Y671445D01*
X784075Y671358D01*
X784080Y671271D01*
X784081Y671184D01*
X784078Y671096D01*
X784071Y671009D01*
X784061Y670922D01*
X784047Y670836D01*
X784028Y670750D01*
X784007Y670666D01*
X783981Y670582D01*
X783952Y670500D01*
X783919Y670419D01*
X783882Y670339D01*
X783842Y670262D01*
X783799Y670186D01*
X783752Y670112D01*
X783702Y670040D01*
X783649Y669970D01*
X783593Y669903D01*
X783534Y669839D01*
X783473Y669777D01*
X783408Y669718D01*
X783341Y669662D01*
X783272Y669608D01*
X783200Y669558D01*
X783126Y669511D01*
X783051Y669468D01*
X782973Y669428D01*
X782894Y669391D01*
X782813Y669358D01*
X782730Y669329D01*
X782647Y669303D01*
X782562Y669281D01*
X782477Y669262D01*
X782391Y669248D01*
X782304Y669237D01*
X782217Y669230D01*
X782129Y669227D01*
X782042Y669228D01*
X781955Y669233D01*
X781868Y669241D01*
X781781Y669254D01*
X781695Y669270D01*
X781610Y669290D01*
X781526Y669314D01*
X781443Y669341D01*
X781361Y669372D01*
X781281Y669407D01*
X781202Y669445D01*
X781125Y669487D01*
X781050Y669532D01*
X780978Y669580D01*
X780907Y669632D01*
X780839Y669686D01*
X780773Y669744D01*
X780709Y669804D01*
X780649Y669867D01*
X780591Y669933D01*
X780592Y669933D02*
X778959Y671879D01*
X782851Y675144D01*
X782914Y675194D01*
X782979Y675241D01*
X783046Y675286D01*
X783116Y675326D01*
X783187Y675364D01*
X783260Y675398D01*
X783335Y675429D01*
X783411Y675455D01*
X783488Y675479D01*
X783566Y675498D01*
X783645Y675514D01*
X783725Y675526D01*
X783805Y675535D01*
X783885Y675539D01*
X783966Y675540D01*
X784046Y675537D01*
X784127Y675530D01*
X784207Y675519D01*
X784286Y675504D01*
X784364Y675486D01*
X784442Y675464D01*
X784518Y675438D01*
X784593Y675409D01*
X784667Y675376D01*
X784739Y675339D01*
X784809Y675300D01*
X784877Y675257D01*
X784943Y675210D01*
X785007Y675161D01*
X785068Y675109D01*
X785127Y675054D01*
X785183Y674996D01*
X785236Y674935D01*
X785236Y674936D02*
X786687Y673206D01*
X781092Y679874D02*
X778915Y682468D01*
X782961Y682916D02*
X776475Y677473D01*
X776475Y677474D02*
X776412Y677424D01*
X776347Y677377D01*
X776280Y677332D01*
X776210Y677292D01*
X776139Y677254D01*
X776066Y677220D01*
X775991Y677189D01*
X775915Y677163D01*
X775838Y677139D01*
X775760Y677120D01*
X775681Y677104D01*
X775601Y677092D01*
X775521Y677083D01*
X775441Y677079D01*
X775360Y677078D01*
X775280Y677081D01*
X775199Y677088D01*
X775119Y677099D01*
X775040Y677114D01*
X774962Y677132D01*
X774884Y677154D01*
X774808Y677180D01*
X774733Y677209D01*
X774659Y677242D01*
X774587Y677279D01*
X774517Y677318D01*
X774449Y677361D01*
X774383Y677408D01*
X774319Y677457D01*
X774258Y677509D01*
X774199Y677564D01*
X774143Y677622D01*
X774090Y677683D01*
X774090Y677682D02*
X773727Y678114D01*
X764552Y689048D02*
X764494Y689120D01*
X764438Y689195D01*
X764386Y689273D01*
X764337Y689352D01*
X764291Y689433D01*
X764249Y689517D01*
X764210Y689601D01*
X764175Y689688D01*
X764143Y689776D01*
X764115Y689865D01*
X764091Y689955D01*
X764070Y690046D01*
X764053Y690138D01*
X764040Y690230D01*
X764031Y690323D01*
X764026Y690416D01*
X764024Y690509D01*
X764026Y690603D01*
X764033Y690696D01*
X764043Y690789D01*
X764057Y690881D01*
X764074Y690972D01*
X764096Y691063D01*
X764121Y691153D01*
X764150Y691242D01*
X764182Y691329D01*
X764218Y691415D01*
X764258Y691500D01*
X764301Y691583D01*
X764348Y691664D01*
X764397Y691743D01*
X764450Y691819D01*
X764506Y691894D01*
X764566Y691966D01*
X764628Y692036D01*
X764693Y692103D01*
X764760Y692167D01*
X764831Y692229D01*
X764552Y689048D02*
X764640Y688946D01*
X764731Y688847D01*
X764824Y688750D01*
X764920Y688656D01*
X765019Y688565D01*
X765120Y688476D01*
X765224Y688391D01*
X765330Y688308D01*
X765439Y688229D01*
X765550Y688152D01*
X765662Y688079D01*
X765777Y688009D01*
X765894Y687942D01*
X766012Y687878D01*
X766133Y687818D01*
X766255Y687761D01*
X766378Y687708D01*
X766503Y687658D01*
X766629Y687612D01*
X766757Y687569D01*
X766886Y687530D01*
X767015Y687495D01*
X767146Y687463D01*
X767278Y687435D01*
X767410Y687411D01*
X767543Y687390D01*
X767676Y687374D01*
X767810Y687360D01*
X772601Y691749D02*
X772672Y691811D01*
X772739Y691875D01*
X772804Y691942D01*
X772866Y692012D01*
X772926Y692084D01*
X772982Y692159D01*
X773035Y692235D01*
X773084Y692314D01*
X773131Y692395D01*
X773174Y692478D01*
X773214Y692562D01*
X773250Y692649D01*
X773282Y692736D01*
X773311Y692825D01*
X773336Y692915D01*
X773358Y693005D01*
X773375Y693097D01*
X773389Y693189D01*
X773399Y693282D01*
X773406Y693375D01*
X773408Y693469D01*
X773406Y693562D01*
X773401Y693655D01*
X773392Y693748D01*
X773379Y693840D01*
X773362Y693932D01*
X773341Y694023D01*
X773317Y694113D01*
X773289Y694202D01*
X773257Y694290D01*
X773222Y694377D01*
X773183Y694461D01*
X773141Y694545D01*
X773095Y694626D01*
X773046Y694705D01*
X772994Y694783D01*
X772938Y694858D01*
X772880Y694930D01*
X772795Y695028D01*
X772707Y695123D01*
X772616Y695216D01*
X772523Y695306D01*
X772426Y695393D01*
X772328Y695477D01*
X772226Y695558D01*
X772122Y695636D01*
X772016Y695710D01*
X771908Y695781D01*
X771797Y695849D01*
X771685Y695914D01*
X771570Y695975D01*
X771454Y696032D01*
X771336Y696086D01*
X771216Y696136D01*
X771095Y696183D01*
X770973Y696226D01*
X770849Y696265D01*
X770724Y696300D01*
X770598Y696331D01*
X770362Y691344D02*
X770452Y691314D01*
X770544Y691288D01*
X770637Y691266D01*
X770730Y691248D01*
X770824Y691233D01*
X770919Y691222D01*
X771014Y691216D01*
X771109Y691213D01*
X771204Y691214D01*
X771299Y691219D01*
X771394Y691229D01*
X771488Y691242D01*
X771582Y691259D01*
X771675Y691279D01*
X771767Y691304D01*
X771858Y691333D01*
X771947Y691365D01*
X772036Y691401D01*
X772122Y691440D01*
X772207Y691483D01*
X772290Y691530D01*
X772371Y691580D01*
X772450Y691633D01*
X772527Y691690D01*
X772601Y691749D01*
X767070Y692634D02*
X766980Y692663D01*
X766888Y692690D01*
X766796Y692712D01*
X766702Y692730D01*
X766608Y692745D01*
X766513Y692756D01*
X766418Y692762D01*
X766323Y692765D01*
X766228Y692764D01*
X766133Y692759D01*
X766038Y692749D01*
X765944Y692736D01*
X765850Y692719D01*
X765757Y692699D01*
X765665Y692674D01*
X765574Y692645D01*
X765485Y692613D01*
X765396Y692577D01*
X765310Y692538D01*
X765225Y692495D01*
X765142Y692448D01*
X765061Y692398D01*
X764982Y692345D01*
X764905Y692288D01*
X764831Y692229D01*
X767070Y692634D02*
X770362Y691344D01*
X765206Y698807D02*
X760017Y694453D01*
X767549Y700404D02*
X767982Y700767D01*
X767619Y701200D01*
X767186Y700837D01*
X767549Y700404D01*
X761762Y708179D02*
X753979Y701649D01*
X755793Y699487D01*
X755846Y699426D01*
X755902Y699368D01*
X755961Y699313D01*
X756022Y699261D01*
X756086Y699212D01*
X756152Y699165D01*
X756220Y699122D01*
X756290Y699083D01*
X756362Y699046D01*
X756436Y699013D01*
X756511Y698984D01*
X756587Y698958D01*
X756665Y698936D01*
X756743Y698918D01*
X756823Y698903D01*
X756902Y698892D01*
X756983Y698885D01*
X757063Y698882D01*
X757144Y698883D01*
X757224Y698887D01*
X757304Y698896D01*
X757384Y698908D01*
X757463Y698924D01*
X757541Y698943D01*
X757618Y698967D01*
X757694Y698994D01*
X757769Y699024D01*
X757842Y699058D01*
X757913Y699096D01*
X757983Y699136D01*
X758050Y699181D01*
X758115Y699228D01*
X758178Y699278D01*
X758179Y699278D02*
X760773Y701455D01*
X760834Y701508D01*
X760892Y701564D01*
X760947Y701623D01*
X760999Y701684D01*
X761048Y701748D01*
X761095Y701814D01*
X761138Y701882D01*
X761177Y701952D01*
X761214Y702024D01*
X761247Y702098D01*
X761276Y702173D01*
X761302Y702249D01*
X761324Y702327D01*
X761342Y702405D01*
X761357Y702485D01*
X761368Y702564D01*
X761375Y702645D01*
X761378Y702725D01*
X761377Y702806D01*
X761373Y702886D01*
X761364Y702966D01*
X761352Y703046D01*
X761336Y703125D01*
X761317Y703203D01*
X761293Y703280D01*
X761266Y703356D01*
X761236Y703431D01*
X761202Y703504D01*
X761164Y703575D01*
X761124Y703645D01*
X761079Y703712D01*
X761032Y703777D01*
X760982Y703840D01*
X760982Y703841D02*
X759168Y706003D01*
X749115Y707446D02*
X747301Y709608D01*
X749115Y707446D02*
X749168Y707385D01*
X749224Y707327D01*
X749283Y707272D01*
X749344Y707220D01*
X749408Y707171D01*
X749474Y707124D01*
X749542Y707081D01*
X749612Y707042D01*
X749684Y707005D01*
X749758Y706972D01*
X749833Y706943D01*
X749909Y706917D01*
X749987Y706895D01*
X750065Y706877D01*
X750145Y706862D01*
X750224Y706851D01*
X750305Y706844D01*
X750385Y706841D01*
X750466Y706842D01*
X750546Y706846D01*
X750626Y706855D01*
X750706Y706867D01*
X750785Y706883D01*
X750863Y706902D01*
X750940Y706926D01*
X751016Y706953D01*
X751091Y706983D01*
X751164Y707017D01*
X751235Y707055D01*
X751305Y707095D01*
X751372Y707140D01*
X751437Y707187D01*
X751500Y707237D01*
X753662Y709051D01*
X753733Y709113D01*
X753800Y709177D01*
X753865Y709244D01*
X753927Y709314D01*
X753986Y709386D01*
X754043Y709460D01*
X754096Y709537D01*
X754145Y709616D01*
X754192Y709697D01*
X754235Y709780D01*
X754275Y709864D01*
X754311Y709951D01*
X754343Y710038D01*
X754372Y710127D01*
X754397Y710217D01*
X754419Y710307D01*
X754436Y710399D01*
X754450Y710491D01*
X754460Y710584D01*
X754467Y710677D01*
X754469Y710771D01*
X754467Y710864D01*
X754462Y710957D01*
X754453Y711050D01*
X754440Y711142D01*
X754423Y711234D01*
X754402Y711325D01*
X754378Y711415D01*
X754350Y711504D01*
X754318Y711592D01*
X754283Y711679D01*
X754244Y711763D01*
X754202Y711847D01*
X754156Y711928D01*
X754107Y712007D01*
X754055Y712085D01*
X753999Y712160D01*
X753941Y712232D01*
X753879Y712303D01*
X753815Y712370D01*
X753748Y712435D01*
X753678Y712497D01*
X753606Y712556D01*
X753531Y712613D01*
X753455Y712666D01*
X753376Y712715D01*
X753295Y712762D01*
X753212Y712805D01*
X753128Y712845D01*
X753041Y712881D01*
X752954Y712913D01*
X752865Y712942D01*
X752775Y712967D01*
X752685Y712989D01*
X752593Y713006D01*
X752501Y713020D01*
X752408Y713030D01*
X752315Y713037D01*
X752221Y713039D01*
X752128Y713037D01*
X752035Y713032D01*
X751942Y713023D01*
X751850Y713010D01*
X751758Y712993D01*
X751667Y712972D01*
X751577Y712948D01*
X751488Y712920D01*
X751400Y712888D01*
X751313Y712853D01*
X751229Y712814D01*
X751145Y712772D01*
X751064Y712726D01*
X750985Y712677D01*
X750907Y712625D01*
X750832Y712569D01*
X750760Y712511D01*
X750760Y712510D02*
X749895Y711785D01*
X752797Y708326D01*
X743258Y712669D02*
X743301Y712898D01*
X743350Y713125D01*
X743404Y713351D01*
X743464Y713576D01*
X743529Y713799D01*
X743599Y714021D01*
X743675Y714241D01*
X743756Y714459D01*
X743842Y714675D01*
X743933Y714889D01*
X744030Y715100D01*
X744131Y715309D01*
X744238Y715516D01*
X744349Y715720D01*
X744465Y715921D01*
X744586Y716120D01*
X744712Y716315D01*
X744843Y716508D01*
X744978Y716697D01*
X745118Y716883D01*
X745262Y717065D01*
X745410Y717244D01*
X745563Y717420D01*
X745720Y717591D01*
X745880Y717759D01*
X746045Y717923D01*
X746214Y718083D01*
X746387Y718239D01*
X746563Y718390D01*
X746743Y718537D01*
X746927Y718680D01*
X747113Y718818D01*
X747303Y718952D01*
X747497Y719081D01*
X747693Y719206D01*
X747892Y719326D01*
X748094Y719441D01*
X748299Y719551D01*
X748506Y719656D01*
X748716Y719757D01*
X748928Y719852D01*
X749142Y719942D01*
X749359Y720027D01*
X749577Y720106D01*
X749798Y720180D01*
X750020Y720249D01*
X750243Y720313D01*
X750468Y720371D01*
X750695Y720424D01*
X750922Y720471D01*
X751151Y720513D01*
X751381Y720550D01*
X751611Y720580D01*
X751842Y720606D01*
X752074Y720625D01*
X752306Y720640D01*
X752538Y720648D01*
X752771Y720651D01*
X566928Y812546D02*
X566928Y822706D01*
X564106Y822706D01*
X564000Y822704D01*
X563895Y822698D01*
X563790Y822688D01*
X563685Y822674D01*
X563581Y822657D01*
X563478Y822635D01*
X563376Y822610D01*
X563274Y822581D01*
X563174Y822548D01*
X563075Y822511D01*
X562978Y822471D01*
X562882Y822427D01*
X562787Y822379D01*
X562695Y822328D01*
X562605Y822273D01*
X562516Y822216D01*
X562430Y822155D01*
X562347Y822090D01*
X562265Y822023D01*
X562187Y821953D01*
X562111Y821879D01*
X562037Y821803D01*
X561967Y821725D01*
X561900Y821643D01*
X561835Y821560D01*
X561774Y821474D01*
X561717Y821385D01*
X561662Y821295D01*
X561611Y821203D01*
X561563Y821108D01*
X561519Y821012D01*
X561479Y820915D01*
X561442Y820816D01*
X561409Y820716D01*
X561380Y820614D01*
X561355Y820512D01*
X561333Y820409D01*
X561316Y820305D01*
X561302Y820200D01*
X561292Y820095D01*
X561286Y819990D01*
X561284Y819884D01*
X561286Y819778D01*
X561292Y819673D01*
X561302Y819568D01*
X561316Y819463D01*
X561333Y819359D01*
X561355Y819256D01*
X561380Y819154D01*
X561409Y819052D01*
X561442Y818952D01*
X561479Y818853D01*
X561519Y818756D01*
X561563Y818660D01*
X561611Y818565D01*
X561662Y818473D01*
X561717Y818383D01*
X561774Y818294D01*
X561835Y818208D01*
X561900Y818125D01*
X561967Y818043D01*
X562037Y817965D01*
X562111Y817889D01*
X562187Y817815D01*
X562265Y817745D01*
X562347Y817678D01*
X562430Y817613D01*
X562516Y817552D01*
X562605Y817495D01*
X562695Y817440D01*
X562787Y817389D01*
X562882Y817341D01*
X562978Y817297D01*
X563075Y817257D01*
X563174Y817220D01*
X563274Y817187D01*
X563376Y817158D01*
X563478Y817133D01*
X563581Y817111D01*
X563685Y817094D01*
X563790Y817080D01*
X563895Y817070D01*
X564000Y817064D01*
X564106Y817062D01*
X566928Y817062D01*
X563541Y817062D02*
X561284Y812546D01*
X555627Y820448D02*
X552805Y822706D01*
X552805Y812546D01*
X555627Y812546D02*
X549982Y812546D01*
X567944Y802894D02*
X567944Y792734D01*
X567944Y802894D02*
X565122Y802894D01*
X565016Y802892D01*
X564911Y802886D01*
X564806Y802876D01*
X564701Y802862D01*
X564597Y802845D01*
X564494Y802823D01*
X564392Y802798D01*
X564290Y802769D01*
X564190Y802736D01*
X564091Y802699D01*
X563994Y802659D01*
X563898Y802615D01*
X563803Y802567D01*
X563711Y802516D01*
X563621Y802461D01*
X563532Y802404D01*
X563446Y802343D01*
X563363Y802278D01*
X563281Y802211D01*
X563203Y802141D01*
X563127Y802067D01*
X563053Y801991D01*
X562983Y801913D01*
X562916Y801831D01*
X562851Y801748D01*
X562790Y801662D01*
X562733Y801573D01*
X562678Y801483D01*
X562627Y801391D01*
X562579Y801296D01*
X562535Y801200D01*
X562495Y801103D01*
X562458Y801004D01*
X562425Y800904D01*
X562396Y800802D01*
X562371Y800700D01*
X562349Y800597D01*
X562332Y800493D01*
X562318Y800388D01*
X562308Y800283D01*
X562302Y800178D01*
X562300Y800072D01*
X562302Y799966D01*
X562308Y799861D01*
X562318Y799756D01*
X562332Y799651D01*
X562349Y799547D01*
X562371Y799444D01*
X562396Y799342D01*
X562425Y799240D01*
X562458Y799140D01*
X562495Y799041D01*
X562535Y798944D01*
X562579Y798848D01*
X562627Y798753D01*
X562678Y798661D01*
X562733Y798571D01*
X562790Y798482D01*
X562851Y798396D01*
X562916Y798313D01*
X562983Y798231D01*
X563053Y798153D01*
X563127Y798077D01*
X563203Y798003D01*
X563281Y797933D01*
X563363Y797866D01*
X563446Y797801D01*
X563532Y797740D01*
X563621Y797683D01*
X563711Y797628D01*
X563803Y797577D01*
X563898Y797529D01*
X563994Y797485D01*
X564091Y797445D01*
X564190Y797408D01*
X564290Y797375D01*
X564392Y797346D01*
X564494Y797321D01*
X564597Y797299D01*
X564701Y797282D01*
X564806Y797268D01*
X564911Y797258D01*
X565016Y797252D01*
X565122Y797250D01*
X567944Y797250D01*
X564557Y797250D02*
X562300Y792734D01*
X553538Y802894D02*
X553438Y802892D01*
X553339Y802886D01*
X553239Y802876D01*
X553141Y802863D01*
X553042Y802845D01*
X552945Y802824D01*
X552849Y802799D01*
X552753Y802770D01*
X552659Y802737D01*
X552566Y802701D01*
X552475Y802661D01*
X552385Y802617D01*
X552297Y802570D01*
X552211Y802520D01*
X552127Y802466D01*
X552045Y802409D01*
X551966Y802349D01*
X551888Y802285D01*
X551814Y802219D01*
X551742Y802150D01*
X551673Y802078D01*
X551607Y802004D01*
X551543Y801926D01*
X551483Y801847D01*
X551426Y801765D01*
X551372Y801681D01*
X551322Y801595D01*
X551275Y801507D01*
X551231Y801417D01*
X551191Y801326D01*
X551155Y801233D01*
X551122Y801139D01*
X551093Y801043D01*
X551068Y800947D01*
X551047Y800850D01*
X551029Y800751D01*
X551016Y800653D01*
X551006Y800553D01*
X551000Y800454D01*
X550998Y800354D01*
X553538Y802894D02*
X553649Y802892D01*
X553760Y802886D01*
X553870Y802877D01*
X553980Y802864D01*
X554090Y802847D01*
X554199Y802826D01*
X554307Y802802D01*
X554414Y802774D01*
X554521Y802743D01*
X554626Y802707D01*
X554730Y802669D01*
X554832Y802626D01*
X554933Y802581D01*
X555033Y802531D01*
X555130Y802479D01*
X555226Y802423D01*
X555320Y802364D01*
X555412Y802302D01*
X555502Y802237D01*
X555589Y802169D01*
X555674Y802097D01*
X555757Y802023D01*
X555837Y801947D01*
X555914Y801867D01*
X555989Y801785D01*
X556061Y801701D01*
X556130Y801614D01*
X556195Y801525D01*
X556258Y801433D01*
X556318Y801340D01*
X556374Y801244D01*
X556428Y801147D01*
X556477Y801048D01*
X556524Y800947D01*
X556567Y800845D01*
X556606Y800741D01*
X556642Y800636D01*
X551846Y798379D02*
X551774Y798449D01*
X551705Y798522D01*
X551639Y798598D01*
X551576Y798676D01*
X551516Y798756D01*
X551459Y798839D01*
X551404Y798923D01*
X551353Y799010D01*
X551305Y799098D01*
X551261Y799188D01*
X551220Y799279D01*
X551182Y799372D01*
X551147Y799467D01*
X551116Y799562D01*
X551089Y799659D01*
X551065Y799756D01*
X551045Y799855D01*
X551029Y799954D01*
X551016Y800053D01*
X551006Y800153D01*
X551001Y800254D01*
X550999Y800354D01*
X551845Y798378D02*
X556643Y792734D01*
X550998Y792734D01*
X567944Y782320D02*
X567944Y772160D01*
X567944Y782320D02*
X565122Y782320D01*
X565016Y782318D01*
X564911Y782312D01*
X564806Y782302D01*
X564701Y782288D01*
X564597Y782271D01*
X564494Y782249D01*
X564392Y782224D01*
X564290Y782195D01*
X564190Y782162D01*
X564091Y782125D01*
X563994Y782085D01*
X563898Y782041D01*
X563803Y781993D01*
X563711Y781942D01*
X563621Y781887D01*
X563532Y781830D01*
X563446Y781769D01*
X563363Y781704D01*
X563281Y781637D01*
X563203Y781567D01*
X563127Y781493D01*
X563053Y781417D01*
X562983Y781339D01*
X562916Y781257D01*
X562851Y781174D01*
X562790Y781088D01*
X562733Y780999D01*
X562678Y780909D01*
X562627Y780817D01*
X562579Y780722D01*
X562535Y780626D01*
X562495Y780529D01*
X562458Y780430D01*
X562425Y780330D01*
X562396Y780228D01*
X562371Y780126D01*
X562349Y780023D01*
X562332Y779919D01*
X562318Y779814D01*
X562308Y779709D01*
X562302Y779604D01*
X562300Y779498D01*
X562302Y779392D01*
X562308Y779287D01*
X562318Y779182D01*
X562332Y779077D01*
X562349Y778973D01*
X562371Y778870D01*
X562396Y778768D01*
X562425Y778666D01*
X562458Y778566D01*
X562495Y778467D01*
X562535Y778370D01*
X562579Y778274D01*
X562627Y778179D01*
X562678Y778087D01*
X562733Y777997D01*
X562790Y777908D01*
X562851Y777822D01*
X562916Y777739D01*
X562983Y777657D01*
X563053Y777579D01*
X563127Y777503D01*
X563203Y777429D01*
X563281Y777359D01*
X563363Y777292D01*
X563446Y777227D01*
X563532Y777166D01*
X563621Y777109D01*
X563711Y777054D01*
X563803Y777003D01*
X563898Y776955D01*
X563994Y776911D01*
X564091Y776871D01*
X564190Y776834D01*
X564290Y776801D01*
X564392Y776772D01*
X564494Y776747D01*
X564597Y776725D01*
X564701Y776708D01*
X564806Y776694D01*
X564911Y776684D01*
X565016Y776678D01*
X565122Y776676D01*
X567944Y776676D01*
X564557Y776676D02*
X562300Y772160D01*
X556643Y772160D02*
X553821Y772160D01*
X553715Y772162D01*
X553610Y772168D01*
X553505Y772178D01*
X553400Y772192D01*
X553296Y772209D01*
X553193Y772231D01*
X553091Y772256D01*
X552989Y772285D01*
X552889Y772318D01*
X552790Y772355D01*
X552693Y772395D01*
X552597Y772439D01*
X552502Y772487D01*
X552410Y772538D01*
X552320Y772593D01*
X552231Y772650D01*
X552145Y772711D01*
X552062Y772776D01*
X551980Y772843D01*
X551902Y772913D01*
X551826Y772987D01*
X551752Y773063D01*
X551682Y773141D01*
X551615Y773223D01*
X551550Y773306D01*
X551489Y773392D01*
X551432Y773481D01*
X551377Y773571D01*
X551326Y773663D01*
X551278Y773758D01*
X551234Y773854D01*
X551194Y773951D01*
X551157Y774050D01*
X551124Y774150D01*
X551095Y774252D01*
X551070Y774354D01*
X551048Y774457D01*
X551031Y774561D01*
X551017Y774666D01*
X551007Y774771D01*
X551001Y774876D01*
X550999Y774982D01*
X551001Y775088D01*
X551007Y775193D01*
X551017Y775298D01*
X551031Y775403D01*
X551048Y775507D01*
X551070Y775610D01*
X551095Y775712D01*
X551124Y775814D01*
X551157Y775914D01*
X551194Y776013D01*
X551234Y776110D01*
X551278Y776206D01*
X551326Y776301D01*
X551377Y776393D01*
X551432Y776483D01*
X551489Y776572D01*
X551550Y776658D01*
X551615Y776741D01*
X551682Y776823D01*
X551752Y776901D01*
X551826Y776977D01*
X551902Y777051D01*
X551980Y777121D01*
X552062Y777188D01*
X552145Y777253D01*
X552231Y777314D01*
X552320Y777371D01*
X552410Y777426D01*
X552502Y777477D01*
X552597Y777525D01*
X552693Y777569D01*
X552790Y777609D01*
X552889Y777646D01*
X552989Y777679D01*
X553091Y777708D01*
X553193Y777733D01*
X553296Y777755D01*
X553400Y777772D01*
X553505Y777786D01*
X553610Y777796D01*
X553715Y777802D01*
X553821Y777804D01*
X553256Y782320D02*
X556643Y782320D01*
X553256Y782320D02*
X553163Y782318D01*
X553070Y782312D01*
X552977Y782303D01*
X552884Y782289D01*
X552793Y782272D01*
X552702Y782251D01*
X552612Y782226D01*
X552523Y782198D01*
X552435Y782166D01*
X552349Y782130D01*
X552264Y782091D01*
X552181Y782048D01*
X552100Y782002D01*
X552021Y781952D01*
X551944Y781900D01*
X551869Y781844D01*
X551797Y781785D01*
X551727Y781723D01*
X551659Y781659D01*
X551595Y781591D01*
X551533Y781521D01*
X551474Y781449D01*
X551418Y781374D01*
X551366Y781297D01*
X551316Y781218D01*
X551270Y781137D01*
X551227Y781054D01*
X551188Y780969D01*
X551152Y780883D01*
X551120Y780795D01*
X551092Y780706D01*
X551067Y780616D01*
X551046Y780525D01*
X551029Y780434D01*
X551015Y780341D01*
X551006Y780248D01*
X551000Y780155D01*
X550998Y780062D01*
X551000Y779969D01*
X551006Y779876D01*
X551015Y779783D01*
X551029Y779690D01*
X551046Y779599D01*
X551067Y779508D01*
X551092Y779418D01*
X551120Y779329D01*
X551152Y779241D01*
X551188Y779155D01*
X551227Y779070D01*
X551270Y778987D01*
X551316Y778906D01*
X551366Y778827D01*
X551418Y778750D01*
X551474Y778675D01*
X551533Y778603D01*
X551595Y778533D01*
X551659Y778465D01*
X551727Y778401D01*
X551797Y778339D01*
X551869Y778280D01*
X551944Y778224D01*
X552021Y778172D01*
X552100Y778122D01*
X552181Y778076D01*
X552264Y778033D01*
X552349Y777994D01*
X552435Y777958D01*
X552523Y777926D01*
X552612Y777898D01*
X552702Y777873D01*
X552793Y777852D01*
X552884Y777835D01*
X552977Y777821D01*
X553070Y777812D01*
X553163Y777806D01*
X553256Y777804D01*
X555514Y777804D01*
X565404Y762000D02*
X565404Y751840D01*
X565404Y762000D02*
X562582Y762000D01*
X562476Y761998D01*
X562371Y761992D01*
X562266Y761982D01*
X562161Y761968D01*
X562057Y761951D01*
X561954Y761929D01*
X561852Y761904D01*
X561750Y761875D01*
X561650Y761842D01*
X561551Y761805D01*
X561454Y761765D01*
X561358Y761721D01*
X561263Y761673D01*
X561171Y761622D01*
X561081Y761567D01*
X560992Y761510D01*
X560906Y761449D01*
X560823Y761384D01*
X560741Y761317D01*
X560663Y761247D01*
X560587Y761173D01*
X560513Y761097D01*
X560443Y761019D01*
X560376Y760937D01*
X560311Y760854D01*
X560250Y760768D01*
X560193Y760679D01*
X560138Y760589D01*
X560087Y760497D01*
X560039Y760402D01*
X559995Y760306D01*
X559955Y760209D01*
X559918Y760110D01*
X559885Y760010D01*
X559856Y759908D01*
X559831Y759806D01*
X559809Y759703D01*
X559792Y759599D01*
X559778Y759494D01*
X559768Y759389D01*
X559762Y759284D01*
X559760Y759178D01*
X559762Y759072D01*
X559768Y758967D01*
X559778Y758862D01*
X559792Y758757D01*
X559809Y758653D01*
X559831Y758550D01*
X559856Y758448D01*
X559885Y758346D01*
X559918Y758246D01*
X559955Y758147D01*
X559995Y758050D01*
X560039Y757954D01*
X560087Y757859D01*
X560138Y757767D01*
X560193Y757677D01*
X560250Y757588D01*
X560311Y757502D01*
X560376Y757419D01*
X560443Y757337D01*
X560513Y757259D01*
X560587Y757183D01*
X560663Y757109D01*
X560741Y757039D01*
X560823Y756972D01*
X560906Y756907D01*
X560992Y756846D01*
X561081Y756789D01*
X561171Y756734D01*
X561263Y756683D01*
X561358Y756635D01*
X561454Y756591D01*
X561551Y756551D01*
X561650Y756514D01*
X561750Y756481D01*
X561852Y756452D01*
X561954Y756427D01*
X562057Y756405D01*
X562161Y756388D01*
X562266Y756374D01*
X562371Y756364D01*
X562476Y756358D01*
X562582Y756356D01*
X565404Y756356D01*
X562017Y756356D02*
X559760Y751840D01*
X554103Y754098D02*
X551845Y762000D01*
X554103Y754098D02*
X548458Y754098D01*
X550152Y756356D02*
X550152Y751840D01*
X567436Y741172D02*
X567436Y731012D01*
X567436Y741172D02*
X564614Y741172D01*
X564508Y741170D01*
X564403Y741164D01*
X564298Y741154D01*
X564193Y741140D01*
X564089Y741123D01*
X563986Y741101D01*
X563884Y741076D01*
X563782Y741047D01*
X563682Y741014D01*
X563583Y740977D01*
X563486Y740937D01*
X563390Y740893D01*
X563295Y740845D01*
X563203Y740794D01*
X563113Y740739D01*
X563024Y740682D01*
X562938Y740621D01*
X562855Y740556D01*
X562773Y740489D01*
X562695Y740419D01*
X562619Y740345D01*
X562545Y740269D01*
X562475Y740191D01*
X562408Y740109D01*
X562343Y740026D01*
X562282Y739940D01*
X562225Y739851D01*
X562170Y739761D01*
X562119Y739669D01*
X562071Y739574D01*
X562027Y739478D01*
X561987Y739381D01*
X561950Y739282D01*
X561917Y739182D01*
X561888Y739080D01*
X561863Y738978D01*
X561841Y738875D01*
X561824Y738771D01*
X561810Y738666D01*
X561800Y738561D01*
X561794Y738456D01*
X561792Y738350D01*
X561794Y738244D01*
X561800Y738139D01*
X561810Y738034D01*
X561824Y737929D01*
X561841Y737825D01*
X561863Y737722D01*
X561888Y737620D01*
X561917Y737518D01*
X561950Y737418D01*
X561987Y737319D01*
X562027Y737222D01*
X562071Y737126D01*
X562119Y737031D01*
X562170Y736939D01*
X562225Y736849D01*
X562282Y736760D01*
X562343Y736674D01*
X562408Y736591D01*
X562475Y736509D01*
X562545Y736431D01*
X562619Y736355D01*
X562695Y736281D01*
X562773Y736211D01*
X562855Y736144D01*
X562938Y736079D01*
X563024Y736018D01*
X563113Y735961D01*
X563203Y735906D01*
X563295Y735855D01*
X563390Y735807D01*
X563486Y735763D01*
X563583Y735723D01*
X563682Y735686D01*
X563782Y735653D01*
X563884Y735624D01*
X563986Y735599D01*
X564089Y735577D01*
X564193Y735560D01*
X564298Y735546D01*
X564403Y735536D01*
X564508Y735530D01*
X564614Y735528D01*
X567436Y735528D01*
X564049Y735528D02*
X561792Y731012D01*
X556135Y731012D02*
X552748Y731012D01*
X552655Y731014D01*
X552562Y731020D01*
X552469Y731029D01*
X552376Y731043D01*
X552285Y731060D01*
X552194Y731081D01*
X552104Y731106D01*
X552015Y731134D01*
X551927Y731166D01*
X551841Y731202D01*
X551756Y731241D01*
X551673Y731284D01*
X551592Y731330D01*
X551513Y731380D01*
X551436Y731432D01*
X551361Y731488D01*
X551289Y731547D01*
X551219Y731609D01*
X551151Y731673D01*
X551087Y731741D01*
X551025Y731811D01*
X550966Y731883D01*
X550910Y731958D01*
X550858Y732035D01*
X550808Y732114D01*
X550762Y732195D01*
X550719Y732278D01*
X550680Y732363D01*
X550644Y732449D01*
X550612Y732537D01*
X550584Y732626D01*
X550559Y732716D01*
X550538Y732807D01*
X550521Y732898D01*
X550507Y732991D01*
X550498Y733083D01*
X550492Y733177D01*
X550490Y733270D01*
X550490Y734399D01*
X550492Y734492D01*
X550498Y734585D01*
X550507Y734678D01*
X550521Y734771D01*
X550538Y734862D01*
X550559Y734953D01*
X550584Y735043D01*
X550612Y735132D01*
X550644Y735220D01*
X550680Y735306D01*
X550719Y735391D01*
X550762Y735474D01*
X550808Y735555D01*
X550858Y735634D01*
X550910Y735711D01*
X550966Y735786D01*
X551025Y735858D01*
X551087Y735928D01*
X551151Y735996D01*
X551219Y736060D01*
X551289Y736122D01*
X551361Y736181D01*
X551436Y736237D01*
X551513Y736289D01*
X551592Y736339D01*
X551673Y736385D01*
X551756Y736428D01*
X551841Y736467D01*
X551927Y736503D01*
X552015Y736535D01*
X552104Y736563D01*
X552194Y736588D01*
X552285Y736609D01*
X552376Y736626D01*
X552469Y736640D01*
X552562Y736649D01*
X552655Y736655D01*
X552748Y736657D01*
X552748Y736656D02*
X556135Y736656D01*
X556135Y741172D01*
X550490Y741172D01*
X667440Y739648D02*
X667440Y729488D01*
X667440Y739648D02*
X664617Y739648D01*
X664511Y739646D01*
X664406Y739640D01*
X664301Y739630D01*
X664196Y739616D01*
X664092Y739599D01*
X663989Y739577D01*
X663887Y739552D01*
X663785Y739523D01*
X663685Y739490D01*
X663586Y739453D01*
X663489Y739413D01*
X663393Y739369D01*
X663298Y739321D01*
X663206Y739270D01*
X663116Y739215D01*
X663027Y739158D01*
X662941Y739097D01*
X662858Y739032D01*
X662776Y738965D01*
X662698Y738895D01*
X662622Y738821D01*
X662548Y738745D01*
X662478Y738667D01*
X662411Y738585D01*
X662346Y738502D01*
X662285Y738416D01*
X662228Y738327D01*
X662173Y738237D01*
X662122Y738145D01*
X662074Y738050D01*
X662030Y737954D01*
X661990Y737857D01*
X661953Y737758D01*
X661920Y737658D01*
X661891Y737556D01*
X661866Y737454D01*
X661844Y737351D01*
X661827Y737247D01*
X661813Y737142D01*
X661803Y737037D01*
X661797Y736932D01*
X661795Y736826D01*
X661797Y736720D01*
X661803Y736615D01*
X661813Y736510D01*
X661827Y736405D01*
X661844Y736301D01*
X661866Y736198D01*
X661891Y736096D01*
X661920Y735994D01*
X661953Y735894D01*
X661990Y735795D01*
X662030Y735698D01*
X662074Y735602D01*
X662122Y735507D01*
X662173Y735415D01*
X662228Y735325D01*
X662285Y735236D01*
X662346Y735150D01*
X662411Y735067D01*
X662478Y734985D01*
X662548Y734907D01*
X662622Y734831D01*
X662698Y734757D01*
X662776Y734687D01*
X662858Y734620D01*
X662941Y734555D01*
X663027Y734494D01*
X663116Y734437D01*
X663206Y734382D01*
X663298Y734331D01*
X663393Y734283D01*
X663489Y734239D01*
X663586Y734199D01*
X663685Y734162D01*
X663785Y734129D01*
X663887Y734100D01*
X663989Y734075D01*
X664092Y734053D01*
X664196Y734036D01*
X664301Y734022D01*
X664406Y734012D01*
X664511Y734006D01*
X664617Y734004D01*
X667440Y734004D01*
X664053Y734004D02*
X661795Y729488D01*
X656138Y735132D02*
X652752Y735132D01*
X652752Y735133D02*
X652659Y735131D01*
X652566Y735125D01*
X652473Y735116D01*
X652380Y735102D01*
X652289Y735085D01*
X652198Y735064D01*
X652108Y735039D01*
X652019Y735011D01*
X651931Y734979D01*
X651845Y734943D01*
X651760Y734904D01*
X651677Y734861D01*
X651596Y734815D01*
X651517Y734765D01*
X651440Y734713D01*
X651365Y734657D01*
X651293Y734598D01*
X651223Y734536D01*
X651155Y734472D01*
X651091Y734404D01*
X651029Y734334D01*
X650970Y734262D01*
X650914Y734187D01*
X650862Y734110D01*
X650812Y734031D01*
X650766Y733950D01*
X650723Y733867D01*
X650684Y733782D01*
X650648Y733696D01*
X650616Y733608D01*
X650588Y733519D01*
X650563Y733429D01*
X650542Y733338D01*
X650525Y733247D01*
X650511Y733154D01*
X650502Y733061D01*
X650496Y732968D01*
X650494Y732875D01*
X650494Y732310D01*
X650496Y732204D01*
X650502Y732099D01*
X650512Y731994D01*
X650526Y731889D01*
X650543Y731785D01*
X650565Y731682D01*
X650590Y731580D01*
X650619Y731478D01*
X650652Y731378D01*
X650689Y731279D01*
X650729Y731182D01*
X650773Y731086D01*
X650821Y730991D01*
X650872Y730899D01*
X650927Y730809D01*
X650984Y730720D01*
X651045Y730634D01*
X651110Y730551D01*
X651177Y730469D01*
X651247Y730391D01*
X651321Y730315D01*
X651397Y730241D01*
X651475Y730171D01*
X651557Y730104D01*
X651640Y730039D01*
X651726Y729978D01*
X651815Y729921D01*
X651905Y729866D01*
X651997Y729815D01*
X652092Y729767D01*
X652188Y729723D01*
X652285Y729683D01*
X652384Y729646D01*
X652484Y729613D01*
X652586Y729584D01*
X652688Y729559D01*
X652791Y729537D01*
X652895Y729520D01*
X653000Y729506D01*
X653105Y729496D01*
X653210Y729490D01*
X653316Y729488D01*
X653422Y729490D01*
X653527Y729496D01*
X653632Y729506D01*
X653737Y729520D01*
X653841Y729537D01*
X653944Y729559D01*
X654046Y729584D01*
X654148Y729613D01*
X654248Y729646D01*
X654347Y729683D01*
X654444Y729723D01*
X654540Y729767D01*
X654635Y729815D01*
X654727Y729866D01*
X654817Y729921D01*
X654906Y729978D01*
X654992Y730039D01*
X655075Y730104D01*
X655157Y730171D01*
X655235Y730241D01*
X655311Y730315D01*
X655385Y730391D01*
X655455Y730469D01*
X655522Y730551D01*
X655587Y730634D01*
X655648Y730720D01*
X655705Y730809D01*
X655760Y730899D01*
X655811Y730991D01*
X655859Y731086D01*
X655903Y731182D01*
X655943Y731279D01*
X655980Y731378D01*
X656013Y731478D01*
X656042Y731580D01*
X656067Y731682D01*
X656089Y731785D01*
X656106Y731889D01*
X656120Y731994D01*
X656130Y732099D01*
X656136Y732204D01*
X656138Y732310D01*
X656138Y735132D01*
X656139Y735132D02*
X656137Y735266D01*
X656131Y735400D01*
X656121Y735533D01*
X656107Y735666D01*
X656090Y735799D01*
X656068Y735931D01*
X656042Y736062D01*
X656013Y736193D01*
X655979Y736322D01*
X655942Y736451D01*
X655901Y736578D01*
X655856Y736704D01*
X655808Y736829D01*
X655756Y736952D01*
X655700Y737074D01*
X655641Y737194D01*
X655578Y737312D01*
X655511Y737429D01*
X655442Y737543D01*
X655369Y737655D01*
X655292Y737765D01*
X655213Y737872D01*
X655130Y737977D01*
X655044Y738080D01*
X654955Y738180D01*
X654863Y738278D01*
X654769Y738372D01*
X654671Y738464D01*
X654571Y738553D01*
X654469Y738639D01*
X654363Y738722D01*
X654256Y738801D01*
X654146Y738878D01*
X654034Y738951D01*
X653920Y739020D01*
X653803Y739087D01*
X653685Y739150D01*
X653565Y739209D01*
X653444Y739265D01*
X653320Y739317D01*
X653196Y739365D01*
X653069Y739410D01*
X652942Y739451D01*
X652813Y739488D01*
X652684Y739522D01*
X652553Y739551D01*
X652422Y739577D01*
X652290Y739598D01*
X652157Y739616D01*
X652024Y739630D01*
X651891Y739640D01*
X651757Y739646D01*
X651623Y739648D01*
X652018Y829028D02*
X652018Y831286D01*
X652018Y829028D02*
X652020Y828935D01*
X652026Y828842D01*
X652035Y828749D01*
X652049Y828656D01*
X652066Y828565D01*
X652087Y828474D01*
X652112Y828384D01*
X652140Y828295D01*
X652172Y828207D01*
X652208Y828121D01*
X652247Y828036D01*
X652290Y827953D01*
X652336Y827872D01*
X652386Y827793D01*
X652438Y827716D01*
X652494Y827641D01*
X652553Y827569D01*
X652615Y827499D01*
X652679Y827431D01*
X652747Y827367D01*
X652817Y827305D01*
X652889Y827246D01*
X652964Y827190D01*
X653041Y827138D01*
X653120Y827088D01*
X653201Y827042D01*
X653284Y826999D01*
X653369Y826960D01*
X653455Y826924D01*
X653543Y826892D01*
X653632Y826864D01*
X653722Y826839D01*
X653813Y826818D01*
X653904Y826801D01*
X653997Y826787D01*
X654090Y826778D01*
X654183Y826772D01*
X654276Y826770D01*
X659920Y826770D01*
X660013Y826772D01*
X660106Y826778D01*
X660199Y826787D01*
X660292Y826801D01*
X660383Y826818D01*
X660474Y826839D01*
X660564Y826864D01*
X660653Y826892D01*
X660741Y826924D01*
X660827Y826960D01*
X660912Y826999D01*
X660995Y827042D01*
X661076Y827088D01*
X661155Y827138D01*
X661232Y827190D01*
X661307Y827246D01*
X661379Y827305D01*
X661449Y827367D01*
X661517Y827431D01*
X661581Y827499D01*
X661643Y827569D01*
X661702Y827641D01*
X661758Y827716D01*
X661810Y827793D01*
X661860Y827872D01*
X661906Y827953D01*
X661949Y828036D01*
X661988Y828121D01*
X662024Y828207D01*
X662056Y828295D01*
X662084Y828384D01*
X662109Y828474D01*
X662130Y828565D01*
X662147Y828656D01*
X662161Y828749D01*
X662170Y828842D01*
X662176Y828935D01*
X662178Y829028D01*
X662178Y831286D01*
X659920Y836353D02*
X662178Y839175D01*
X652018Y839175D01*
X652018Y836353D02*
X652018Y841998D01*
X586220Y851700D02*
X583962Y851700D01*
X586220Y851700D02*
X586313Y851702D01*
X586406Y851708D01*
X586499Y851717D01*
X586592Y851731D01*
X586683Y851748D01*
X586774Y851769D01*
X586864Y851794D01*
X586953Y851822D01*
X587041Y851854D01*
X587127Y851890D01*
X587212Y851929D01*
X587295Y851972D01*
X587376Y852018D01*
X587455Y852068D01*
X587532Y852120D01*
X587607Y852176D01*
X587679Y852235D01*
X587749Y852297D01*
X587817Y852361D01*
X587881Y852429D01*
X587943Y852499D01*
X588002Y852571D01*
X588058Y852646D01*
X588110Y852723D01*
X588160Y852802D01*
X588206Y852883D01*
X588249Y852966D01*
X588288Y853051D01*
X588324Y853137D01*
X588356Y853225D01*
X588384Y853314D01*
X588409Y853404D01*
X588430Y853495D01*
X588447Y853586D01*
X588461Y853679D01*
X588470Y853772D01*
X588476Y853865D01*
X588478Y853958D01*
X588478Y859602D01*
X588476Y859695D01*
X588470Y859788D01*
X588461Y859881D01*
X588447Y859974D01*
X588430Y860065D01*
X588409Y860156D01*
X588384Y860246D01*
X588356Y860335D01*
X588324Y860423D01*
X588288Y860509D01*
X588249Y860594D01*
X588206Y860677D01*
X588160Y860758D01*
X588110Y860837D01*
X588058Y860914D01*
X588002Y860989D01*
X587943Y861061D01*
X587881Y861131D01*
X587817Y861199D01*
X587749Y861263D01*
X587679Y861325D01*
X587607Y861384D01*
X587532Y861440D01*
X587455Y861492D01*
X587376Y861542D01*
X587295Y861588D01*
X587212Y861631D01*
X587127Y861670D01*
X587041Y861706D01*
X586953Y861738D01*
X586864Y861766D01*
X586774Y861791D01*
X586683Y861812D01*
X586592Y861829D01*
X586499Y861843D01*
X586406Y861852D01*
X586313Y861858D01*
X586220Y861860D01*
X583962Y861860D01*
X575790Y861860D02*
X575690Y861858D01*
X575591Y861852D01*
X575491Y861842D01*
X575393Y861829D01*
X575294Y861811D01*
X575197Y861790D01*
X575101Y861765D01*
X575005Y861736D01*
X574911Y861703D01*
X574818Y861667D01*
X574727Y861627D01*
X574637Y861583D01*
X574549Y861536D01*
X574463Y861486D01*
X574379Y861432D01*
X574297Y861375D01*
X574218Y861315D01*
X574140Y861251D01*
X574066Y861185D01*
X573994Y861116D01*
X573925Y861044D01*
X573859Y860970D01*
X573795Y860892D01*
X573735Y860813D01*
X573678Y860731D01*
X573624Y860647D01*
X573574Y860561D01*
X573527Y860473D01*
X573483Y860383D01*
X573443Y860292D01*
X573407Y860199D01*
X573374Y860105D01*
X573345Y860009D01*
X573320Y859913D01*
X573299Y859816D01*
X573281Y859717D01*
X573268Y859619D01*
X573258Y859519D01*
X573252Y859420D01*
X573250Y859320D01*
X575790Y861860D02*
X575901Y861858D01*
X576012Y861852D01*
X576122Y861843D01*
X576232Y861830D01*
X576342Y861813D01*
X576451Y861792D01*
X576559Y861768D01*
X576666Y861740D01*
X576773Y861709D01*
X576878Y861673D01*
X576982Y861635D01*
X577084Y861592D01*
X577185Y861547D01*
X577285Y861497D01*
X577382Y861445D01*
X577478Y861389D01*
X577572Y861330D01*
X577664Y861268D01*
X577754Y861203D01*
X577841Y861135D01*
X577926Y861063D01*
X578009Y860989D01*
X578089Y860913D01*
X578166Y860833D01*
X578241Y860751D01*
X578313Y860667D01*
X578382Y860580D01*
X578447Y860491D01*
X578510Y860399D01*
X578570Y860306D01*
X578626Y860210D01*
X578680Y860113D01*
X578729Y860014D01*
X578776Y859913D01*
X578819Y859811D01*
X578858Y859707D01*
X578894Y859602D01*
X574097Y857345D02*
X574025Y857415D01*
X573956Y857488D01*
X573890Y857564D01*
X573827Y857642D01*
X573767Y857722D01*
X573710Y857805D01*
X573655Y857889D01*
X573604Y857976D01*
X573556Y858064D01*
X573512Y858154D01*
X573471Y858245D01*
X573433Y858338D01*
X573398Y858433D01*
X573367Y858528D01*
X573340Y858625D01*
X573316Y858722D01*
X573296Y858821D01*
X573280Y858920D01*
X573267Y859019D01*
X573257Y859119D01*
X573252Y859220D01*
X573250Y859320D01*
X574097Y857344D02*
X578894Y851700D01*
X573250Y851700D01*
D12*
X705481Y770596D02*
X705545Y770522D01*
X705613Y770451D01*
X705683Y770382D01*
X705756Y770316D01*
X705831Y770253D01*
X705909Y770193D01*
X705989Y770137D01*
X706071Y770083D01*
X706155Y770032D01*
X706242Y769985D01*
X706330Y769942D01*
X706419Y769902D01*
X706510Y769865D01*
X706603Y769832D01*
X706696Y769803D01*
X706791Y769777D01*
X706887Y769755D01*
X706983Y769737D01*
X707081Y769723D01*
X707178Y769713D01*
X707276Y769706D01*
X707374Y769703D01*
X707472Y769704D01*
X707570Y769709D01*
X707668Y769718D01*
X707766Y769730D01*
X707862Y769747D01*
X707958Y769767D01*
X708054Y769791D01*
X708148Y769819D01*
X708241Y769850D01*
X708333Y769885D01*
X708423Y769924D01*
X708512Y769966D01*
X708598Y770011D01*
X708684Y770060D01*
X708767Y770112D01*
X708848Y770168D01*
X708927Y770226D01*
X709003Y770288D01*
X751135Y805641D01*
X751209Y805705D01*
X751280Y805773D01*
X751349Y805843D01*
X751415Y805916D01*
X751478Y805991D01*
X751538Y806069D01*
X751594Y806149D01*
X751648Y806231D01*
X751699Y806315D01*
X751746Y806402D01*
X751789Y806490D01*
X751829Y806579D01*
X751866Y806670D01*
X751899Y806763D01*
X751928Y806856D01*
X751954Y806951D01*
X751976Y807047D01*
X751994Y807143D01*
X752008Y807241D01*
X752018Y807338D01*
X752025Y807436D01*
X752028Y807534D01*
X752027Y807632D01*
X752022Y807730D01*
X752013Y807828D01*
X752001Y807926D01*
X751984Y808022D01*
X751964Y808118D01*
X751940Y808214D01*
X751912Y808308D01*
X751881Y808401D01*
X751846Y808493D01*
X751807Y808583D01*
X751765Y808672D01*
X751720Y808758D01*
X751671Y808844D01*
X751619Y808927D01*
X751563Y809008D01*
X751505Y809087D01*
X751443Y809163D01*
X732159Y832144D02*
X732095Y832218D01*
X732027Y832289D01*
X731957Y832358D01*
X731884Y832424D01*
X731809Y832487D01*
X731731Y832547D01*
X731651Y832603D01*
X731569Y832657D01*
X731485Y832708D01*
X731398Y832755D01*
X731310Y832798D01*
X731221Y832838D01*
X731130Y832875D01*
X731037Y832908D01*
X730944Y832937D01*
X730849Y832963D01*
X730753Y832985D01*
X730657Y833003D01*
X730559Y833017D01*
X730462Y833027D01*
X730364Y833034D01*
X730266Y833037D01*
X730168Y833036D01*
X730070Y833031D01*
X729972Y833022D01*
X729874Y833010D01*
X729778Y832993D01*
X729682Y832973D01*
X729586Y832949D01*
X729492Y832921D01*
X729399Y832890D01*
X729307Y832855D01*
X729217Y832816D01*
X729128Y832774D01*
X729042Y832729D01*
X728956Y832680D01*
X728873Y832628D01*
X728792Y832572D01*
X728713Y832514D01*
X728637Y832452D01*
X686505Y797099D01*
X686431Y797035D01*
X686360Y796967D01*
X686291Y796897D01*
X686225Y796824D01*
X686162Y796749D01*
X686102Y796671D01*
X686046Y796591D01*
X685992Y796509D01*
X685941Y796425D01*
X685894Y796338D01*
X685851Y796250D01*
X685811Y796161D01*
X685774Y796070D01*
X685741Y795977D01*
X685712Y795884D01*
X685686Y795789D01*
X685664Y795693D01*
X685646Y795597D01*
X685632Y795499D01*
X685622Y795402D01*
X685615Y795304D01*
X685612Y795206D01*
X685613Y795108D01*
X685618Y795010D01*
X685627Y794912D01*
X685639Y794814D01*
X685656Y794718D01*
X685676Y794622D01*
X685700Y794526D01*
X685728Y794432D01*
X685759Y794339D01*
X685794Y794247D01*
X685833Y794157D01*
X685875Y794068D01*
X685920Y793982D01*
X685969Y793896D01*
X686021Y793813D01*
X686077Y793732D01*
X686135Y793653D01*
X686197Y793577D01*
X688768Y790513D01*
X702909Y773660D02*
X705481Y770596D01*
X751443Y809163D02*
X748872Y812227D01*
X734731Y829080D02*
X732160Y832144D01*
X735132Y805266D02*
X712150Y785983D01*
X702508Y797474D02*
X725490Y816757D01*
X702508Y797474D02*
X712150Y785983D01*
X735132Y805266D02*
X725490Y816757D01*
D13*
X739031Y781488D02*
X739093Y781417D01*
X739157Y781350D01*
X739224Y781285D01*
X739294Y781223D01*
X739366Y781163D01*
X739441Y781107D01*
X739517Y781054D01*
X739596Y781005D01*
X739677Y780958D01*
X739760Y780915D01*
X739845Y780875D01*
X739931Y780839D01*
X740018Y780807D01*
X740107Y780778D01*
X740197Y780753D01*
X740288Y780731D01*
X740379Y780714D01*
X740471Y780700D01*
X740564Y780690D01*
X740657Y780683D01*
X740751Y780681D01*
X740844Y780683D01*
X740937Y780688D01*
X741030Y780697D01*
X741122Y780710D01*
X741214Y780727D01*
X741305Y780748D01*
X741395Y780772D01*
X741484Y780800D01*
X741572Y780832D01*
X741659Y780867D01*
X741743Y780906D01*
X741827Y780948D01*
X741908Y780994D01*
X741987Y781043D01*
X742065Y781095D01*
X742140Y781151D01*
X742212Y781209D01*
X742314Y781297D01*
X742413Y781388D01*
X742510Y781481D01*
X742604Y781577D01*
X742695Y781676D01*
X742784Y781777D01*
X742869Y781881D01*
X742952Y781987D01*
X743031Y782096D01*
X743108Y782207D01*
X743181Y782319D01*
X743251Y782434D01*
X743318Y782551D01*
X743382Y782669D01*
X743442Y782790D01*
X743499Y782912D01*
X743552Y783035D01*
X743602Y783160D01*
X743648Y783286D01*
X743691Y783414D01*
X743730Y783543D01*
X743765Y783672D01*
X743797Y783803D01*
X743825Y783935D01*
X743849Y784067D01*
X743870Y784200D01*
X743886Y784333D01*
X743900Y784467D01*
X739511Y789258D02*
X739449Y789329D01*
X739385Y789396D01*
X739318Y789461D01*
X739248Y789523D01*
X739176Y789583D01*
X739101Y789639D01*
X739025Y789692D01*
X738946Y789741D01*
X738865Y789788D01*
X738782Y789831D01*
X738698Y789871D01*
X738611Y789907D01*
X738524Y789939D01*
X738435Y789968D01*
X738345Y789993D01*
X738255Y790015D01*
X738163Y790032D01*
X738071Y790046D01*
X737978Y790056D01*
X737885Y790063D01*
X737791Y790065D01*
X737698Y790063D01*
X737605Y790058D01*
X737512Y790049D01*
X737420Y790036D01*
X737328Y790019D01*
X737237Y789998D01*
X737147Y789974D01*
X737058Y789946D01*
X736970Y789914D01*
X736884Y789879D01*
X736799Y789840D01*
X736715Y789798D01*
X736634Y789752D01*
X736555Y789703D01*
X736477Y789651D01*
X736402Y789595D01*
X736330Y789537D01*
X736232Y789452D01*
X736137Y789364D01*
X736044Y789273D01*
X735954Y789180D01*
X735867Y789083D01*
X735783Y788985D01*
X735702Y788883D01*
X735624Y788779D01*
X735550Y788673D01*
X735479Y788565D01*
X735411Y788454D01*
X735346Y788342D01*
X735285Y788227D01*
X735228Y788111D01*
X735174Y787993D01*
X735124Y787873D01*
X735077Y787752D01*
X735034Y787630D01*
X734995Y787506D01*
X734960Y787381D01*
X734929Y787255D01*
X739916Y787019D02*
X739946Y787109D01*
X739972Y787201D01*
X739994Y787294D01*
X740012Y787387D01*
X740027Y787481D01*
X740038Y787576D01*
X740044Y787671D01*
X740047Y787766D01*
X740046Y787861D01*
X740041Y787956D01*
X740031Y788051D01*
X740018Y788145D01*
X740001Y788239D01*
X739981Y788332D01*
X739956Y788424D01*
X739927Y788515D01*
X739895Y788604D01*
X739859Y788693D01*
X739820Y788779D01*
X739777Y788864D01*
X739730Y788947D01*
X739680Y789028D01*
X739627Y789107D01*
X739570Y789184D01*
X739511Y789258D01*
X738626Y783726D02*
X738597Y783636D01*
X738570Y783544D01*
X738548Y783452D01*
X738530Y783358D01*
X738515Y783264D01*
X738504Y783169D01*
X738498Y783074D01*
X738495Y782979D01*
X738496Y782884D01*
X738501Y782789D01*
X738511Y782694D01*
X738524Y782600D01*
X738541Y782506D01*
X738561Y782413D01*
X738586Y782321D01*
X738615Y782230D01*
X738647Y782141D01*
X738683Y782052D01*
X738722Y781966D01*
X738765Y781881D01*
X738812Y781798D01*
X738862Y781717D01*
X738915Y781638D01*
X738972Y781561D01*
X739031Y781487D01*
X738626Y783726D02*
X739916Y787019D01*
X727433Y782072D02*
X727358Y782006D01*
X727286Y781938D01*
X727216Y781866D01*
X727149Y781792D01*
X727085Y781716D01*
X727024Y781637D01*
X726966Y781555D01*
X726912Y781472D01*
X726861Y781386D01*
X726813Y781299D01*
X726769Y781209D01*
X726728Y781118D01*
X726691Y781026D01*
X726657Y780932D01*
X726627Y780837D01*
X726601Y780740D01*
X726579Y780643D01*
X726561Y780545D01*
X726546Y780447D01*
X726536Y780347D01*
X726529Y780248D01*
X726526Y780148D01*
X726527Y780048D01*
X726532Y779949D01*
X726541Y779849D01*
X726554Y779751D01*
X726571Y779652D01*
X726591Y779555D01*
X726615Y779458D01*
X726644Y779362D01*
X726675Y779268D01*
X726711Y779175D01*
X726750Y779083D01*
X726793Y778993D01*
X726839Y778904D01*
X726889Y778818D01*
X726942Y778733D01*
X726998Y778651D01*
X727058Y778571D01*
X727120Y778493D01*
X727434Y782072D02*
X727520Y782141D01*
X727608Y782208D01*
X727699Y782272D01*
X727792Y782333D01*
X727887Y782390D01*
X727983Y782445D01*
X728082Y782496D01*
X728182Y782543D01*
X728284Y782587D01*
X728387Y782628D01*
X728491Y782665D01*
X728597Y782699D01*
X728704Y782728D01*
X728812Y782755D01*
X728920Y782777D01*
X729029Y782796D01*
X729139Y782811D01*
X729250Y782823D01*
X729360Y782831D01*
X729471Y782834D01*
X729582Y782835D01*
X729693Y782831D01*
X729804Y782824D01*
X729914Y782812D01*
X730024Y782798D01*
X730133Y782779D01*
X730242Y782757D01*
X730350Y782731D01*
X730456Y782701D01*
X730562Y782668D01*
X730667Y782631D01*
X730770Y782591D01*
X730872Y782547D01*
X730972Y782499D01*
X731071Y782449D01*
X731168Y782395D01*
X731263Y782337D01*
X729039Y777524D02*
X728939Y777533D01*
X728839Y777544D01*
X728740Y777560D01*
X728641Y777579D01*
X728543Y777602D01*
X728446Y777628D01*
X728351Y777658D01*
X728256Y777691D01*
X728162Y777728D01*
X728070Y777768D01*
X727980Y777812D01*
X727891Y777859D01*
X727804Y777909D01*
X727719Y777962D01*
X727636Y778019D01*
X727555Y778078D01*
X727476Y778141D01*
X727400Y778206D01*
X727326Y778274D01*
X727255Y778344D01*
X727186Y778418D01*
X727120Y778493D01*
X729039Y777524D02*
X736342Y776284D01*
X732018Y772656D01*
D15*
X403216Y437808D02*
X386216Y437808D01*
X386216Y426808D02*
X403216Y426808D01*
D16*
X398216Y432308D03*
D13*
X402150Y456118D02*
X402150Y466278D01*
X399328Y466278D01*
X399222Y466276D01*
X399117Y466270D01*
X399012Y466260D01*
X398907Y466246D01*
X398803Y466229D01*
X398700Y466207D01*
X398598Y466182D01*
X398496Y466153D01*
X398396Y466120D01*
X398297Y466083D01*
X398200Y466043D01*
X398104Y465999D01*
X398009Y465951D01*
X397917Y465900D01*
X397827Y465845D01*
X397738Y465788D01*
X397652Y465727D01*
X397569Y465662D01*
X397487Y465595D01*
X397409Y465525D01*
X397333Y465451D01*
X397259Y465375D01*
X397189Y465297D01*
X397122Y465215D01*
X397057Y465132D01*
X396996Y465046D01*
X396939Y464957D01*
X396884Y464867D01*
X396833Y464775D01*
X396785Y464680D01*
X396741Y464584D01*
X396701Y464487D01*
X396664Y464388D01*
X396631Y464288D01*
X396602Y464186D01*
X396577Y464084D01*
X396555Y463981D01*
X396538Y463877D01*
X396524Y463772D01*
X396514Y463667D01*
X396508Y463562D01*
X396506Y463456D01*
X396506Y458940D01*
X396508Y458834D01*
X396514Y458729D01*
X396524Y458624D01*
X396538Y458519D01*
X396555Y458415D01*
X396577Y458312D01*
X396602Y458210D01*
X396631Y458108D01*
X396664Y458008D01*
X396701Y457909D01*
X396741Y457812D01*
X396785Y457716D01*
X396833Y457621D01*
X396884Y457529D01*
X396939Y457439D01*
X396996Y457350D01*
X397057Y457264D01*
X397122Y457181D01*
X397189Y457099D01*
X397259Y457021D01*
X397333Y456945D01*
X397409Y456871D01*
X397487Y456801D01*
X397569Y456734D01*
X397652Y456669D01*
X397738Y456608D01*
X397827Y456551D01*
X397917Y456496D01*
X398009Y456445D01*
X398104Y456397D01*
X398200Y456353D01*
X398297Y456313D01*
X398396Y456276D01*
X398496Y456243D01*
X398598Y456214D01*
X398700Y456189D01*
X398803Y456167D01*
X398907Y456150D01*
X399012Y456136D01*
X399117Y456126D01*
X399222Y456120D01*
X399328Y456118D01*
X402150Y456118D01*
X390339Y464020D02*
X387517Y466278D01*
X387517Y456118D01*
X390339Y456118D02*
X384695Y456118D01*
X690062Y845923D02*
X683532Y853706D01*
X681370Y851892D01*
X681290Y851822D01*
X681214Y851750D01*
X681139Y851675D01*
X681068Y851597D01*
X681000Y851517D01*
X680934Y851434D01*
X680872Y851349D01*
X680813Y851261D01*
X680758Y851171D01*
X680706Y851080D01*
X680657Y850986D01*
X680612Y850891D01*
X680570Y850794D01*
X680532Y850695D01*
X680498Y850595D01*
X680467Y850494D01*
X680441Y850392D01*
X680418Y850289D01*
X680399Y850185D01*
X680384Y850081D01*
X680373Y849976D01*
X680366Y849871D01*
X680362Y849765D01*
X680363Y849660D01*
X680367Y849554D01*
X680376Y849449D01*
X680388Y849344D01*
X680405Y849240D01*
X680425Y849136D01*
X680449Y849034D01*
X680477Y848932D01*
X680509Y848831D01*
X680544Y848732D01*
X680584Y848634D01*
X680626Y848537D01*
X680673Y848443D01*
X680723Y848350D01*
X680776Y848259D01*
X680833Y848170D01*
X680893Y848083D01*
X680956Y847998D01*
X681022Y847916D01*
X681092Y847836D01*
X681164Y847760D01*
X681239Y847685D01*
X681317Y847614D01*
X681397Y847546D01*
X681480Y847480D01*
X681565Y847418D01*
X681653Y847359D01*
X681743Y847304D01*
X681834Y847252D01*
X681928Y847203D01*
X682023Y847158D01*
X682120Y847116D01*
X682219Y847078D01*
X682319Y847044D01*
X682420Y847013D01*
X682522Y846987D01*
X682625Y846964D01*
X682729Y846945D01*
X682833Y846930D01*
X682938Y846919D01*
X683043Y846912D01*
X683149Y846908D01*
X683254Y846909D01*
X683360Y846913D01*
X683465Y846922D01*
X683570Y846934D01*
X683674Y846951D01*
X683778Y846971D01*
X683880Y846995D01*
X683982Y847023D01*
X684083Y847055D01*
X684182Y847090D01*
X684280Y847130D01*
X684377Y847172D01*
X684471Y847219D01*
X684564Y847269D01*
X684655Y847322D01*
X684745Y847379D01*
X684831Y847439D01*
X684916Y847502D01*
X684998Y847568D01*
X687160Y849382D01*
X684565Y847205D02*
X685738Y842295D01*
X675600Y845577D02*
X674874Y846441D01*
X670551Y842813D01*
X679243Y836844D01*
D14*
X292270Y330057D02*
X317982Y299416D01*
X386926Y357267D01*
X361214Y387908D01*
X292270Y330057D01*
D13*
X322487Y402189D02*
X319585Y405648D01*
X319515Y405728D01*
X319443Y405804D01*
X319368Y405879D01*
X319290Y405950D01*
X319210Y406018D01*
X319127Y406084D01*
X319042Y406146D01*
X318954Y406205D01*
X318864Y406260D01*
X318773Y406312D01*
X318679Y406361D01*
X318584Y406406D01*
X318487Y406448D01*
X318388Y406486D01*
X318288Y406520D01*
X318187Y406551D01*
X318085Y406577D01*
X317982Y406600D01*
X317878Y406619D01*
X317774Y406634D01*
X317669Y406645D01*
X317564Y406652D01*
X317458Y406656D01*
X317353Y406655D01*
X317247Y406651D01*
X317142Y406642D01*
X317037Y406630D01*
X316933Y406613D01*
X316829Y406593D01*
X316727Y406569D01*
X316625Y406541D01*
X316524Y406509D01*
X316425Y406474D01*
X316327Y406434D01*
X316230Y406392D01*
X316136Y406345D01*
X316043Y406295D01*
X315952Y406242D01*
X315863Y406185D01*
X315776Y406125D01*
X315691Y406062D01*
X315609Y405996D01*
X315529Y405926D01*
X315453Y405854D01*
X315378Y405779D01*
X315307Y405701D01*
X315239Y405621D01*
X315173Y405538D01*
X315111Y405453D01*
X315052Y405365D01*
X314997Y405275D01*
X314945Y405184D01*
X314896Y405090D01*
X314851Y404995D01*
X314809Y404898D01*
X314771Y404799D01*
X314737Y404699D01*
X314706Y404598D01*
X314680Y404496D01*
X314657Y404393D01*
X314638Y404289D01*
X314623Y404185D01*
X314612Y404080D01*
X314605Y403975D01*
X314601Y403869D01*
X314602Y403764D01*
X314606Y403658D01*
X314615Y403553D01*
X314627Y403448D01*
X314644Y403344D01*
X314664Y403240D01*
X314688Y403138D01*
X314716Y403036D01*
X314748Y402935D01*
X314783Y402836D01*
X314823Y402738D01*
X314865Y402641D01*
X314912Y402547D01*
X314962Y402454D01*
X315015Y402363D01*
X315072Y402273D01*
X315132Y402187D01*
X315195Y402102D01*
X315261Y402020D01*
X318163Y398561D01*
X318233Y398481D01*
X318305Y398405D01*
X318380Y398330D01*
X318458Y398259D01*
X318538Y398191D01*
X318621Y398125D01*
X318706Y398063D01*
X318794Y398004D01*
X318884Y397949D01*
X318975Y397897D01*
X319069Y397848D01*
X319164Y397803D01*
X319261Y397761D01*
X319360Y397723D01*
X319460Y397689D01*
X319561Y397658D01*
X319663Y397632D01*
X319766Y397609D01*
X319870Y397590D01*
X319974Y397575D01*
X320079Y397564D01*
X320184Y397557D01*
X320290Y397553D01*
X320395Y397554D01*
X320501Y397558D01*
X320606Y397567D01*
X320711Y397579D01*
X320815Y397596D01*
X320919Y397616D01*
X321021Y397640D01*
X321123Y397668D01*
X321224Y397700D01*
X321323Y397735D01*
X321421Y397775D01*
X321518Y397817D01*
X321612Y397864D01*
X321705Y397914D01*
X321796Y397967D01*
X321885Y398024D01*
X321972Y398084D01*
X322057Y398147D01*
X322139Y398213D01*
X322219Y398283D01*
X322295Y398355D01*
X322370Y398430D01*
X322441Y398508D01*
X322509Y398588D01*
X322575Y398671D01*
X322637Y398756D01*
X322696Y398844D01*
X322751Y398934D01*
X322803Y399025D01*
X322852Y399119D01*
X322897Y399214D01*
X322939Y399311D01*
X322977Y399410D01*
X323011Y399510D01*
X323042Y399611D01*
X323068Y399713D01*
X323091Y399816D01*
X323110Y399920D01*
X323125Y400024D01*
X323136Y400129D01*
X323143Y400234D01*
X323147Y400340D01*
X323146Y400445D01*
X323142Y400551D01*
X323133Y400656D01*
X323121Y400761D01*
X323104Y400865D01*
X323084Y400969D01*
X323060Y401071D01*
X323032Y401173D01*
X323000Y401274D01*
X322965Y401373D01*
X322925Y401471D01*
X322883Y401568D01*
X322836Y401662D01*
X322786Y401755D01*
X322733Y401846D01*
X322676Y401935D01*
X322616Y402022D01*
X322553Y402107D01*
X322487Y402189D01*
X315253Y392435D02*
X308723Y400218D01*
X310930Y388807D01*
X304399Y396590D01*
X295934Y390960D02*
X307375Y384350D01*
X297387Y381128D02*
X294485Y384587D01*
X294415Y384667D01*
X294343Y384743D01*
X294268Y384818D01*
X294190Y384889D01*
X294110Y384957D01*
X294027Y385023D01*
X293942Y385085D01*
X293854Y385144D01*
X293764Y385199D01*
X293673Y385251D01*
X293579Y385300D01*
X293484Y385345D01*
X293387Y385387D01*
X293288Y385425D01*
X293188Y385459D01*
X293087Y385490D01*
X292985Y385516D01*
X292882Y385539D01*
X292778Y385558D01*
X292674Y385573D01*
X292569Y385584D01*
X292464Y385591D01*
X292358Y385595D01*
X292253Y385594D01*
X292147Y385590D01*
X292042Y385581D01*
X291937Y385569D01*
X291833Y385552D01*
X291729Y385532D01*
X291627Y385508D01*
X291525Y385480D01*
X291424Y385448D01*
X291325Y385413D01*
X291227Y385373D01*
X291130Y385331D01*
X291036Y385284D01*
X290943Y385234D01*
X290852Y385181D01*
X290763Y385124D01*
X290676Y385064D01*
X290591Y385001D01*
X290509Y384935D01*
X290429Y384865D01*
X290353Y384793D01*
X290278Y384718D01*
X290207Y384640D01*
X290139Y384560D01*
X290073Y384477D01*
X290011Y384392D01*
X289952Y384304D01*
X289897Y384214D01*
X289845Y384123D01*
X289796Y384029D01*
X289751Y383934D01*
X289709Y383837D01*
X289671Y383738D01*
X289637Y383638D01*
X289606Y383537D01*
X289580Y383435D01*
X289557Y383332D01*
X289538Y383228D01*
X289523Y383124D01*
X289512Y383019D01*
X289505Y382914D01*
X289501Y382808D01*
X289502Y382703D01*
X289506Y382597D01*
X289515Y382492D01*
X289527Y382387D01*
X289544Y382283D01*
X289564Y382179D01*
X289588Y382077D01*
X289616Y381975D01*
X289648Y381874D01*
X289683Y381775D01*
X289723Y381677D01*
X289765Y381580D01*
X289812Y381486D01*
X289862Y381393D01*
X289915Y381302D01*
X289972Y381212D01*
X290032Y381126D01*
X290095Y381041D01*
X290161Y380959D01*
X290161Y380958D02*
X293063Y377499D01*
X293133Y377419D01*
X293205Y377343D01*
X293280Y377268D01*
X293358Y377197D01*
X293438Y377129D01*
X293521Y377063D01*
X293606Y377001D01*
X293694Y376942D01*
X293784Y376887D01*
X293875Y376835D01*
X293969Y376786D01*
X294064Y376741D01*
X294161Y376699D01*
X294260Y376661D01*
X294360Y376627D01*
X294461Y376596D01*
X294563Y376570D01*
X294666Y376547D01*
X294770Y376528D01*
X294874Y376513D01*
X294979Y376502D01*
X295084Y376495D01*
X295190Y376491D01*
X295295Y376492D01*
X295401Y376496D01*
X295506Y376505D01*
X295611Y376517D01*
X295715Y376534D01*
X295819Y376554D01*
X295921Y376578D01*
X296023Y376606D01*
X296124Y376638D01*
X296223Y376673D01*
X296321Y376713D01*
X296418Y376755D01*
X296512Y376802D01*
X296605Y376852D01*
X296696Y376905D01*
X296785Y376962D01*
X296872Y377022D01*
X296957Y377085D01*
X297039Y377151D01*
X297119Y377221D01*
X297195Y377293D01*
X297270Y377368D01*
X297341Y377446D01*
X297409Y377526D01*
X297475Y377609D01*
X297537Y377694D01*
X297596Y377782D01*
X297651Y377872D01*
X297703Y377963D01*
X297752Y378057D01*
X297797Y378152D01*
X297839Y378249D01*
X297877Y378348D01*
X297911Y378448D01*
X297942Y378549D01*
X297968Y378651D01*
X297991Y378754D01*
X298010Y378858D01*
X298025Y378962D01*
X298036Y379067D01*
X298043Y379172D01*
X298047Y379278D01*
X298046Y379383D01*
X298042Y379489D01*
X298033Y379594D01*
X298021Y379699D01*
X298004Y379803D01*
X297984Y379907D01*
X297960Y380009D01*
X297932Y380111D01*
X297900Y380212D01*
X297865Y380311D01*
X297825Y380409D01*
X297783Y380506D01*
X297736Y380600D01*
X297686Y380693D01*
X297633Y380784D01*
X297576Y380873D01*
X297516Y380960D01*
X297453Y381045D01*
X297387Y381127D01*
X290123Y371348D02*
X283592Y379131D01*
X280133Y376229D01*
X283036Y372770D02*
X286495Y375672D01*
X276004Y372764D02*
X282535Y364981D01*
X276004Y372764D02*
X272545Y369861D01*
X275448Y366402D02*
X278907Y369305D01*
M02*
