G75*
%MOIN*%
%OFA0B0*%
%FSLAX25Y25*%
%IPPOS*%
%LPD*%
%AMOC8*
5,1,8,0,0,1.08239X$1,22.5*
%
%ADD10C,0.00600*%
%ADD11R,0.03543X0.00984*%
%ADD12R,0.00984X0.03543*%
%ADD13C,0.00591*%
%ADD14R,0.09843X0.15748*%
%ADD15R,0.21654X0.15748*%
%ADD16R,0.03937X0.04331*%
%ADD17R,0.04331X0.03937*%
%ADD18R,0.10039X0.09843*%
%ADD19R,0.09055X0.06299*%
%ADD20R,0.04724X0.09843*%
%ADD21R,0.05512X0.03937*%
%ADD22R,0.02756X0.01969*%
%ADD23R,0.06299X0.07098*%
D10*
X0083800Y0142400D02*
X0109800Y0138400D01*
X0119300Y0138400D01*
X0130300Y0139900D01*
X0144800Y0142400D01*
X0156800Y0144900D01*
X0169300Y0148400D01*
X0178300Y0150900D01*
X0187800Y0154900D01*
X0200300Y0158900D01*
X0202300Y0159400D01*
X0202800Y0159400D01*
X0204800Y0158400D01*
X0206300Y0156400D01*
X0207800Y0153900D01*
X0208800Y0147900D01*
X0209300Y0143400D01*
X0209300Y0131400D01*
X0208300Y0124900D01*
X0207800Y0120400D01*
X0206300Y0114400D01*
X0204300Y0110400D01*
X0198300Y0096400D01*
X0196300Y0091400D01*
X0195800Y0087400D01*
X0196300Y0081400D01*
X0199300Y0075400D01*
X0204300Y0069400D01*
X0207300Y0066900D01*
X0211800Y0064900D01*
X0217800Y0063400D01*
X0221300Y0062900D01*
X0225800Y0061900D01*
X0228800Y0060900D01*
X0230800Y0059900D01*
X0232300Y0058900D01*
X0234300Y0056900D01*
X0235800Y0054900D01*
X0238300Y0051900D01*
X0239800Y0050400D01*
X0241800Y0049400D01*
X0249800Y0046400D01*
X0254300Y0045900D01*
X0260300Y0044900D01*
X0266800Y0044400D01*
X0274800Y0045400D01*
X0280300Y0047900D01*
X0285300Y0050400D01*
X0287800Y0051900D01*
X0293300Y0055400D01*
X0298300Y0059900D01*
X0304800Y0066400D01*
X0309300Y0070400D01*
X0315800Y0077400D01*
X0318800Y0079900D01*
X0325300Y0081400D01*
X0330300Y0085900D01*
X0334300Y0094400D01*
X0336300Y0104900D01*
X0336800Y0111900D01*
X0334800Y0124400D01*
X0333300Y0131400D01*
X0331800Y0136900D01*
X0329800Y0142900D01*
X0325300Y0152400D01*
X0321300Y0162900D01*
X0317800Y0174400D01*
X0315300Y0186400D01*
X0312800Y0200400D01*
X0312300Y0209400D01*
X0312300Y0212900D01*
X0314300Y0214400D01*
X0319300Y0218400D01*
X0334800Y0230400D01*
X0353800Y0247400D01*
X0374800Y0269900D01*
X0390800Y0288400D01*
X0401300Y0300400D01*
X0408800Y0311900D01*
X0414300Y0323400D01*
X0418800Y0332900D01*
X0420300Y0339900D01*
X0421800Y0354900D01*
X0422300Y0364900D01*
X0421800Y0372400D01*
X0420300Y0379400D01*
X0417800Y0384900D01*
X0414800Y0388400D01*
X0409800Y0392900D01*
X0402300Y0397900D01*
X0395300Y0399900D01*
X0382800Y0400900D01*
X0375300Y0400400D01*
X0364800Y0398400D01*
X0360300Y0396400D01*
X0350300Y0391900D01*
X0340800Y0388900D01*
X0332800Y0388400D01*
X0325300Y0389400D01*
X0318800Y0390400D01*
X0320300Y0396400D01*
X0334300Y0396900D01*
X0343300Y0413400D01*
X0311300Y0428900D01*
X0301800Y0412900D01*
X0304800Y0410400D01*
X0305800Y0409400D01*
X0300800Y0402900D01*
X0298300Y0404900D01*
X0284800Y0413900D01*
X0270300Y0422400D01*
X0253800Y0429400D01*
X0238800Y0433400D01*
X0217800Y0435400D01*
X0206800Y0435900D01*
X0196800Y0435400D01*
X0188800Y0433400D01*
X0178300Y0429400D01*
X0164300Y0423400D01*
X0158300Y0420400D01*
X0142800Y0409400D01*
X0132300Y0399900D01*
X0124800Y0389900D01*
X0116300Y0373400D01*
X0110800Y0359400D01*
X0109300Y0348400D01*
X0108800Y0342900D01*
X0107800Y0332900D01*
X0106300Y0323400D01*
X0103800Y0314900D01*
X0099800Y0301400D01*
X0097800Y0295400D01*
X0087800Y0279400D01*
X0080300Y0270900D01*
X0072300Y0263400D01*
X0062300Y0256400D01*
X0050800Y0244400D01*
X0041800Y0231900D01*
X0035300Y0219400D01*
X0033300Y0210400D01*
X0031800Y0200400D01*
X0031300Y0192400D01*
X0031300Y0188900D01*
X0031800Y0185900D01*
X0033300Y0181400D01*
X0035300Y0177400D01*
X0038300Y0172400D01*
X0043800Y0164900D01*
X0050300Y0159400D01*
X0058800Y0153400D01*
X0065800Y0148900D01*
X0072800Y0145400D01*
X0083800Y0142400D01*
X0149700Y0392600D02*
X0145800Y0399900D01*
X0146300Y0402400D01*
X0147800Y0405400D01*
X0149800Y0407900D01*
X0159300Y0413900D01*
X0167300Y0418400D01*
X0172800Y0420900D01*
X0176800Y0422400D01*
X0181800Y0422900D01*
X0186300Y0422400D01*
X0187300Y0421900D01*
X0191200Y0415100D01*
X0149700Y0392600D01*
D11*
X0271400Y0355388D03*
X0271400Y0353420D03*
X0271400Y0351451D03*
X0271400Y0349483D03*
X0271400Y0347514D03*
X0287542Y0347514D03*
X0287542Y0349483D03*
X0287542Y0351451D03*
X0287542Y0353420D03*
X0287542Y0355388D03*
D12*
X0283408Y0359522D03*
X0281439Y0359522D03*
X0279471Y0359522D03*
X0277502Y0359522D03*
X0275534Y0359522D03*
X0275534Y0343380D03*
X0277502Y0343380D03*
X0279471Y0343380D03*
X0281439Y0343380D03*
X0283408Y0343380D03*
D13*
X0283703Y0347219D02*
X0276026Y0347219D01*
X0275909Y0347483D01*
X0275731Y0347711D01*
X0275503Y0347889D01*
X0275239Y0348006D01*
X0275239Y0355683D01*
X0283703Y0355683D01*
X0283703Y0347219D01*
X0283703Y0347356D02*
X0275965Y0347356D01*
X0275376Y0347945D02*
X0283703Y0347945D01*
X0283703Y0348534D02*
X0275239Y0348534D01*
X0275239Y0349123D02*
X0283703Y0349123D01*
X0283703Y0349712D02*
X0275239Y0349712D01*
X0275239Y0350302D02*
X0283703Y0350302D01*
X0283703Y0350891D02*
X0275239Y0350891D01*
X0275239Y0351480D02*
X0283703Y0351480D01*
X0283703Y0352069D02*
X0275239Y0352069D01*
X0275239Y0352658D02*
X0283703Y0352658D01*
X0283703Y0353247D02*
X0275239Y0353247D01*
X0275239Y0353836D02*
X0283703Y0353836D01*
X0283703Y0354425D02*
X0275239Y0354425D01*
X0275239Y0355014D02*
X0283703Y0355014D01*
X0283703Y0355603D02*
X0275239Y0355603D01*
D14*
G36*
X0233114Y0336589D02*
X0239440Y0329049D01*
X0227378Y0318927D01*
X0221052Y0326467D01*
X0233114Y0336589D01*
G37*
G36*
X0217486Y0211211D02*
X0211160Y0218751D01*
X0223222Y0228873D01*
X0229548Y0221333D01*
X0217486Y0211211D01*
G37*
G36*
X0058486Y0177211D02*
X0052160Y0184751D01*
X0064222Y0194873D01*
X0070548Y0187333D01*
X0058486Y0177211D01*
G37*
G36*
X0392114Y0370589D02*
X0398440Y0363049D01*
X0386378Y0352927D01*
X0380052Y0360467D01*
X0392114Y0370589D01*
G37*
D15*
G36*
X0349685Y0342696D02*
X0363603Y0326109D01*
X0351539Y0315986D01*
X0337621Y0332573D01*
X0349685Y0342696D01*
G37*
G36*
X0259915Y0239104D02*
X0245997Y0255691D01*
X0258061Y0265814D01*
X0271979Y0249227D01*
X0259915Y0239104D01*
G37*
G36*
X0190685Y0308696D02*
X0204603Y0292109D01*
X0192539Y0281986D01*
X0178621Y0298573D01*
X0190685Y0308696D01*
G37*
G36*
X0100915Y0205104D02*
X0086997Y0221691D01*
X0099061Y0231814D01*
X0112979Y0215227D01*
X0100915Y0205104D01*
G37*
D16*
X0256954Y0333400D03*
X0263646Y0333400D03*
X0263646Y0341400D03*
X0256954Y0341400D03*
X0256954Y0349400D03*
X0263646Y0349400D03*
X0263646Y0357900D03*
X0256954Y0357900D03*
X0256954Y0365900D03*
X0263646Y0365900D03*
X0281800Y0367554D03*
X0281800Y0374246D03*
G36*
X0302035Y0367056D02*
X0299021Y0364526D01*
X0296237Y0367842D01*
X0299251Y0370372D01*
X0302035Y0367056D01*
G37*
G36*
X0307163Y0371358D02*
X0304149Y0368828D01*
X0301365Y0372144D01*
X0304379Y0374674D01*
X0307163Y0371358D01*
G37*
D17*
X0281300Y0336246D03*
X0281300Y0329554D03*
D18*
X0277241Y0390400D03*
X0257359Y0390400D03*
D19*
G36*
X0298308Y0350431D02*
X0305243Y0356250D01*
X0309292Y0351425D01*
X0302357Y0345606D01*
X0298308Y0350431D01*
G37*
G36*
X0317308Y0366375D02*
X0324243Y0372194D01*
X0328292Y0367369D01*
X0321357Y0361550D01*
X0317308Y0366375D01*
G37*
D20*
G36*
X0159735Y0195421D02*
X0163354Y0198457D01*
X0169679Y0190919D01*
X0166060Y0187883D01*
X0159735Y0195421D01*
G37*
G36*
X0152195Y0189094D02*
X0155814Y0192130D01*
X0162139Y0184592D01*
X0158520Y0181556D01*
X0152195Y0189094D01*
G37*
G36*
X0144655Y0182767D02*
X0148274Y0185803D01*
X0154599Y0178265D01*
X0150980Y0175229D01*
X0144655Y0182767D01*
G37*
G36*
X0158321Y0166481D02*
X0161940Y0169517D01*
X0168265Y0161979D01*
X0164646Y0158943D01*
X0158321Y0166481D01*
G37*
G36*
X0165861Y0172808D02*
X0169480Y0175844D01*
X0175805Y0168306D01*
X0172186Y0165270D01*
X0165861Y0172808D01*
G37*
G36*
X0173401Y0179135D02*
X0177020Y0182171D01*
X0183345Y0174633D01*
X0179726Y0171597D01*
X0173401Y0179135D01*
G37*
D21*
X0377069Y0375260D03*
X0377069Y0382740D03*
X0385731Y0379000D03*
D22*
X0130862Y0163700D03*
X0125744Y0163700D03*
D23*
X0114098Y0161200D03*
X0102902Y0161200D03*
M02*
