G75*
%MOIN*%
%OFA0B0*%
%FSLAX25Y25*%
%IPPOS*%
%LPD*%
%AMOC8*
5,1,8,0,0,1.08239X$1,22.5*
%
%ADD10C,0.00600*%
%ADD11C,0.01600*%
%ADD12C,0.05100*%
%ADD13C,0.00500*%
%ADD14C,0.01000*%
%ADD15C,0.00800*%
%ADD16C,0.00400*%
D10*
X0083800Y0142400D02*
X0109800Y0138400D01*
X0119300Y0138400D01*
X0130300Y0139900D01*
X0144800Y0142400D01*
X0156800Y0144900D01*
X0169300Y0148400D01*
X0178300Y0150900D01*
X0187800Y0154900D01*
X0200300Y0158900D01*
X0202300Y0159400D01*
X0202800Y0159400D01*
X0204800Y0158400D01*
X0206300Y0156400D01*
X0207800Y0153900D01*
X0208800Y0147900D01*
X0209300Y0143400D01*
X0209300Y0131400D01*
X0208300Y0124900D01*
X0207800Y0120400D01*
X0206300Y0114400D01*
X0204300Y0110400D01*
X0198300Y0096400D01*
X0196300Y0091400D01*
X0195800Y0087400D01*
X0196300Y0081400D01*
X0199300Y0075400D01*
X0204300Y0069400D01*
X0207300Y0066900D01*
X0211800Y0064900D01*
X0217800Y0063400D01*
X0221300Y0062900D01*
X0225800Y0061900D01*
X0228800Y0060900D01*
X0230800Y0059900D01*
X0232300Y0058900D01*
X0234300Y0056900D01*
X0235800Y0054900D01*
X0238300Y0051900D01*
X0239800Y0050400D01*
X0241800Y0049400D01*
X0249800Y0046400D01*
X0254300Y0045900D01*
X0260300Y0044900D01*
X0266800Y0044400D01*
X0274800Y0045400D01*
X0280300Y0047900D01*
X0285300Y0050400D01*
X0287800Y0051900D01*
X0293300Y0055400D01*
X0298300Y0059900D01*
X0304800Y0066400D01*
X0309300Y0070400D01*
X0315800Y0077400D01*
X0318800Y0079900D01*
X0325300Y0081400D01*
X0330300Y0085900D01*
X0334300Y0094400D01*
X0336300Y0104900D01*
X0336800Y0111900D01*
X0334800Y0124400D01*
X0333300Y0131400D01*
X0331800Y0136900D01*
X0329800Y0142900D01*
X0325300Y0152400D01*
X0321300Y0162900D01*
X0317800Y0174400D01*
X0315300Y0186400D01*
X0312800Y0200400D01*
X0312300Y0209400D01*
X0312300Y0212900D01*
X0314300Y0214400D01*
X0319300Y0218400D01*
X0334800Y0230400D01*
X0353800Y0247400D01*
X0374800Y0269900D01*
X0390800Y0288400D01*
X0401300Y0300400D01*
X0408800Y0311900D01*
X0414300Y0323400D01*
X0418800Y0332900D01*
X0420300Y0339900D01*
X0421800Y0354900D01*
X0422300Y0364900D01*
X0421800Y0372400D01*
X0420300Y0379400D01*
X0417800Y0384900D01*
X0414800Y0388400D01*
X0409800Y0392900D01*
X0402300Y0397900D01*
X0395300Y0399900D01*
X0382800Y0400900D01*
X0375300Y0400400D01*
X0364800Y0398400D01*
X0360300Y0396400D01*
X0350300Y0391900D01*
X0340800Y0388900D01*
X0332800Y0388400D01*
X0325300Y0389400D01*
X0318800Y0390400D01*
X0320300Y0396400D01*
X0334300Y0396900D01*
X0343300Y0413400D01*
X0311300Y0428900D01*
X0301800Y0412900D01*
X0304800Y0410400D01*
X0305800Y0409400D01*
X0300800Y0402900D01*
X0298300Y0404900D01*
X0284800Y0413900D01*
X0270300Y0422400D01*
X0253800Y0429400D01*
X0238800Y0433400D01*
X0217800Y0435400D01*
X0206800Y0435900D01*
X0196800Y0435400D01*
X0188800Y0433400D01*
X0178300Y0429400D01*
X0164300Y0423400D01*
X0158300Y0420400D01*
X0142800Y0409400D01*
X0132300Y0399900D01*
X0124800Y0389900D01*
X0116300Y0373400D01*
X0110800Y0359400D01*
X0109300Y0348400D01*
X0108800Y0342900D01*
X0107800Y0332900D01*
X0106300Y0323400D01*
X0103800Y0314900D01*
X0099800Y0301400D01*
X0097800Y0295400D01*
X0087800Y0279400D01*
X0080300Y0270900D01*
X0072300Y0263400D01*
X0062300Y0256400D01*
X0050800Y0244400D01*
X0041800Y0231900D01*
X0035300Y0219400D01*
X0033300Y0210400D01*
X0031800Y0200400D01*
X0031300Y0192400D01*
X0031300Y0188900D01*
X0031800Y0185900D01*
X0033300Y0181400D01*
X0035300Y0177400D01*
X0038300Y0172400D01*
X0043800Y0164900D01*
X0050300Y0159400D01*
X0058800Y0153400D01*
X0065800Y0148900D01*
X0072800Y0145400D01*
X0083800Y0142400D01*
X0149700Y0392600D02*
X0145800Y0399900D01*
X0146300Y0402400D01*
X0147800Y0405400D01*
X0149800Y0407900D01*
X0159300Y0413900D01*
X0167300Y0418400D01*
X0172800Y0420900D01*
X0176800Y0422400D01*
X0181800Y0422900D01*
X0186300Y0422400D01*
X0187300Y0421900D01*
X0191200Y0415100D01*
X0149700Y0392600D01*
X0380670Y0384600D02*
X0384000Y0384600D01*
X0384000Y0381491D01*
X0384000Y0376411D02*
X0384000Y0373400D01*
X0380670Y0373400D01*
D11*
X0155891Y0212298D02*
X0155103Y0207573D01*
X0150772Y0211904D01*
X0155891Y0212298D01*
X0147623Y0205211D01*
X0138961Y0199306D02*
X0130694Y0192219D01*
X0131481Y0196943D01*
X0135812Y0192613D01*
X0130694Y0192219D01*
D12*
X0122210Y0192379D02*
X0111919Y0183590D01*
X0112670Y0193130D02*
X0121460Y0182839D01*
X0263419Y0213290D02*
X0273710Y0222079D01*
X0272960Y0212539D02*
X0264170Y0222830D01*
D13*
X0246631Y0200975D02*
X0206141Y0249230D01*
X0362969Y0380825D01*
X0403459Y0332570D01*
X0246631Y0200975D01*
X0182633Y0184056D02*
X0172510Y0196120D01*
X0145367Y0173344D01*
X0155490Y0161280D01*
X0182633Y0184056D01*
X0130805Y0169650D02*
X0130594Y0169650D01*
X0130555Y0169652D01*
X0130516Y0169657D01*
X0130479Y0169666D01*
X0130442Y0169678D01*
X0130406Y0169694D01*
X0130372Y0169713D01*
X0130340Y0169735D01*
X0130310Y0169760D01*
X0130282Y0169788D01*
X0130257Y0169818D01*
X0130235Y0169850D01*
X0130216Y0169884D01*
X0130200Y0169920D01*
X0130188Y0169957D01*
X0130179Y0169994D01*
X0130174Y0170033D01*
X0130172Y0170072D01*
X0130171Y0170072D02*
X0130171Y0171550D01*
X0128881Y0171550D02*
X0128353Y0171550D01*
X0128308Y0171548D01*
X0128264Y0171542D01*
X0128220Y0171533D01*
X0128177Y0171520D01*
X0128136Y0171503D01*
X0128095Y0171483D01*
X0128057Y0171459D01*
X0128021Y0171433D01*
X0127988Y0171403D01*
X0127957Y0171371D01*
X0127928Y0171336D01*
X0127903Y0171299D01*
X0127882Y0171260D01*
X0127863Y0171219D01*
X0127848Y0171177D01*
X0127837Y0171133D01*
X0127829Y0171089D01*
X0127825Y0171044D01*
X0127825Y0171000D01*
X0127829Y0170955D01*
X0127837Y0170911D01*
X0127848Y0170867D01*
X0127863Y0170825D01*
X0127882Y0170784D01*
X0127903Y0170745D01*
X0127928Y0170708D01*
X0127957Y0170673D01*
X0127988Y0170641D01*
X0128021Y0170611D01*
X0128057Y0170585D01*
X0128095Y0170561D01*
X0128136Y0170541D01*
X0128177Y0170524D01*
X0128220Y0170511D01*
X0128264Y0170502D01*
X0128308Y0170496D01*
X0128353Y0170494D01*
X0128881Y0170494D01*
X0128881Y0169650D02*
X0128881Y0171550D01*
X0125953Y0170706D02*
X0125925Y0170735D01*
X0125898Y0170767D01*
X0125875Y0170801D01*
X0125854Y0170837D01*
X0125836Y0170874D01*
X0125822Y0170913D01*
X0125810Y0170952D01*
X0125802Y0170993D01*
X0125797Y0171034D01*
X0125795Y0171075D01*
X0125954Y0170706D02*
X0126851Y0169650D01*
X0125795Y0169650D01*
X0126850Y0171128D02*
X0126834Y0171173D01*
X0126814Y0171216D01*
X0126790Y0171258D01*
X0126764Y0171298D01*
X0126734Y0171336D01*
X0126702Y0171371D01*
X0126666Y0171404D01*
X0126629Y0171433D01*
X0126589Y0171460D01*
X0126547Y0171483D01*
X0126504Y0171503D01*
X0126459Y0171520D01*
X0126413Y0171533D01*
X0126365Y0171542D01*
X0126318Y0171548D01*
X0126270Y0171550D01*
X0126229Y0171548D01*
X0126188Y0171543D01*
X0126147Y0171534D01*
X0126108Y0171521D01*
X0126069Y0171505D01*
X0126032Y0171486D01*
X0125998Y0171464D01*
X0125965Y0171439D01*
X0125934Y0171411D01*
X0125906Y0171380D01*
X0125881Y0171347D01*
X0125859Y0171312D01*
X0125840Y0171276D01*
X0125824Y0171237D01*
X0125811Y0171198D01*
X0125802Y0171157D01*
X0125797Y0171116D01*
X0125795Y0171075D01*
X0087631Y0166975D02*
X0047141Y0215230D01*
X0203969Y0346825D01*
X0244459Y0298570D01*
X0087631Y0166975D01*
X0270717Y0343577D02*
X0270719Y0343636D01*
X0270725Y0343694D01*
X0270735Y0343752D01*
X0270748Y0343809D01*
X0270766Y0343866D01*
X0270787Y0343921D01*
X0270812Y0343974D01*
X0270840Y0344025D01*
X0270871Y0344075D01*
X0270906Y0344122D01*
X0270944Y0344167D01*
X0270985Y0344210D01*
X0271029Y0344249D01*
X0271075Y0344285D01*
X0271123Y0344319D01*
X0271174Y0344349D01*
X0271227Y0344375D01*
X0271281Y0344398D01*
X0271336Y0344417D01*
X0271393Y0344433D01*
X0271451Y0344445D01*
X0271509Y0344453D01*
X0271568Y0344457D01*
X0271626Y0344457D01*
X0271685Y0344453D01*
X0271743Y0344445D01*
X0271801Y0344433D01*
X0271858Y0344417D01*
X0271913Y0344398D01*
X0271967Y0344375D01*
X0272020Y0344349D01*
X0272071Y0344319D01*
X0272119Y0344285D01*
X0272165Y0344249D01*
X0272209Y0344210D01*
X0272250Y0344167D01*
X0272288Y0344122D01*
X0272323Y0344075D01*
X0272354Y0344025D01*
X0272382Y0343974D01*
X0272407Y0343921D01*
X0272428Y0343866D01*
X0272446Y0343809D01*
X0272459Y0343752D01*
X0272469Y0343694D01*
X0272475Y0343636D01*
X0272477Y0343577D01*
X0272475Y0343518D01*
X0272469Y0343460D01*
X0272459Y0343402D01*
X0272446Y0343345D01*
X0272428Y0343288D01*
X0272407Y0343233D01*
X0272382Y0343180D01*
X0272354Y0343129D01*
X0272323Y0343079D01*
X0272288Y0343032D01*
X0272250Y0342987D01*
X0272209Y0342944D01*
X0272165Y0342905D01*
X0272119Y0342869D01*
X0272071Y0342835D01*
X0272020Y0342805D01*
X0271967Y0342779D01*
X0271913Y0342756D01*
X0271858Y0342737D01*
X0271801Y0342721D01*
X0271743Y0342709D01*
X0271685Y0342701D01*
X0271626Y0342697D01*
X0271568Y0342697D01*
X0271509Y0342701D01*
X0271451Y0342709D01*
X0271393Y0342721D01*
X0271336Y0342737D01*
X0271281Y0342756D01*
X0271227Y0342779D01*
X0271174Y0342805D01*
X0271123Y0342835D01*
X0271075Y0342869D01*
X0271029Y0342905D01*
X0270985Y0342944D01*
X0270944Y0342987D01*
X0270906Y0343032D01*
X0270871Y0343079D01*
X0270840Y0343129D01*
X0270812Y0343180D01*
X0270787Y0343233D01*
X0270766Y0343288D01*
X0270748Y0343345D01*
X0270735Y0343402D01*
X0270725Y0343460D01*
X0270719Y0343518D01*
X0270717Y0343577D01*
X0387823Y0391450D02*
X0388351Y0391450D01*
X0387823Y0391450D02*
X0387778Y0391452D01*
X0387734Y0391458D01*
X0387690Y0391467D01*
X0387647Y0391480D01*
X0387606Y0391497D01*
X0387565Y0391517D01*
X0387527Y0391541D01*
X0387491Y0391567D01*
X0387458Y0391597D01*
X0387427Y0391629D01*
X0387398Y0391664D01*
X0387373Y0391701D01*
X0387352Y0391740D01*
X0387333Y0391781D01*
X0387318Y0391823D01*
X0387307Y0391867D01*
X0387299Y0391911D01*
X0387295Y0391956D01*
X0387295Y0392000D01*
X0387299Y0392045D01*
X0387307Y0392089D01*
X0387318Y0392133D01*
X0387333Y0392175D01*
X0387352Y0392216D01*
X0387373Y0392255D01*
X0387398Y0392292D01*
X0387427Y0392327D01*
X0387458Y0392359D01*
X0387491Y0392389D01*
X0387527Y0392415D01*
X0387565Y0392439D01*
X0387606Y0392459D01*
X0387647Y0392476D01*
X0387690Y0392489D01*
X0387734Y0392498D01*
X0387778Y0392504D01*
X0387823Y0392506D01*
X0387717Y0392506D02*
X0388140Y0392506D01*
X0387717Y0392506D02*
X0387677Y0392508D01*
X0387637Y0392514D01*
X0387598Y0392523D01*
X0387560Y0392536D01*
X0387524Y0392553D01*
X0387489Y0392573D01*
X0387456Y0392596D01*
X0387426Y0392623D01*
X0387398Y0392652D01*
X0387373Y0392683D01*
X0387352Y0392717D01*
X0387333Y0392753D01*
X0387318Y0392790D01*
X0387307Y0392829D01*
X0387299Y0392868D01*
X0387295Y0392908D01*
X0387295Y0392948D01*
X0387299Y0392988D01*
X0387307Y0393027D01*
X0387318Y0393066D01*
X0387333Y0393103D01*
X0387352Y0393139D01*
X0387373Y0393173D01*
X0387398Y0393204D01*
X0387426Y0393233D01*
X0387456Y0393260D01*
X0387489Y0393283D01*
X0387524Y0393303D01*
X0387560Y0393320D01*
X0387598Y0393333D01*
X0387637Y0393342D01*
X0387677Y0393348D01*
X0387717Y0393350D01*
X0388351Y0393350D01*
X0389853Y0393350D02*
X0390381Y0393350D01*
X0390381Y0391450D01*
X0390381Y0392294D02*
X0389853Y0392294D01*
X0389808Y0392296D01*
X0389764Y0392302D01*
X0389720Y0392311D01*
X0389677Y0392324D01*
X0389636Y0392341D01*
X0389595Y0392361D01*
X0389557Y0392385D01*
X0389521Y0392411D01*
X0389488Y0392441D01*
X0389457Y0392473D01*
X0389428Y0392508D01*
X0389403Y0392545D01*
X0389382Y0392584D01*
X0389363Y0392625D01*
X0389348Y0392667D01*
X0389337Y0392711D01*
X0389329Y0392755D01*
X0389325Y0392800D01*
X0389325Y0392844D01*
X0389329Y0392889D01*
X0389337Y0392933D01*
X0389348Y0392977D01*
X0389363Y0393019D01*
X0389382Y0393060D01*
X0389403Y0393099D01*
X0389428Y0393136D01*
X0389457Y0393171D01*
X0389488Y0393203D01*
X0389521Y0393233D01*
X0389557Y0393259D01*
X0389595Y0393283D01*
X0389636Y0393303D01*
X0389677Y0393320D01*
X0389720Y0393333D01*
X0389764Y0393342D01*
X0389808Y0393348D01*
X0389853Y0393350D01*
X0391671Y0393350D02*
X0391671Y0391872D01*
X0391672Y0391872D02*
X0391674Y0391833D01*
X0391679Y0391794D01*
X0391688Y0391757D01*
X0391700Y0391720D01*
X0391716Y0391684D01*
X0391735Y0391650D01*
X0391757Y0391618D01*
X0391782Y0391588D01*
X0391810Y0391560D01*
X0391840Y0391535D01*
X0391872Y0391513D01*
X0391906Y0391494D01*
X0391942Y0391478D01*
X0391979Y0391466D01*
X0392016Y0391457D01*
X0392055Y0391452D01*
X0392094Y0391450D01*
X0392305Y0391450D01*
D14*
X0390289Y0382772D02*
X0390289Y0380550D01*
X0393400Y0381439D01*
X0391178Y0382106D02*
X0389400Y0382106D01*
X0391067Y0378017D02*
X0391400Y0377461D01*
X0391733Y0376906D01*
X0390067Y0376572D02*
X0390028Y0376641D01*
X0389991Y0376712D01*
X0389959Y0376784D01*
X0389929Y0376858D01*
X0389903Y0376933D01*
X0389880Y0377009D01*
X0389860Y0377085D01*
X0389844Y0377163D01*
X0389832Y0377242D01*
X0389823Y0377320D01*
X0389818Y0377399D01*
X0389816Y0377479D01*
X0389818Y0377558D01*
X0389823Y0377637D01*
X0389832Y0377716D01*
X0389845Y0377794D01*
X0389400Y0377461D02*
X0393400Y0377461D01*
X0392956Y0377128D02*
X0392945Y0377079D01*
X0392931Y0377031D01*
X0392913Y0376984D01*
X0392891Y0376938D01*
X0392866Y0376895D01*
X0392838Y0376853D01*
X0392806Y0376814D01*
X0392772Y0376777D01*
X0392735Y0376743D01*
X0392696Y0376712D01*
X0392655Y0376684D01*
X0392611Y0376659D01*
X0392566Y0376637D01*
X0392519Y0376619D01*
X0392471Y0376605D01*
X0392422Y0376594D01*
X0392372Y0376587D01*
X0392322Y0376583D01*
X0392272Y0376584D01*
X0392222Y0376588D01*
X0392172Y0376596D01*
X0392123Y0376608D01*
X0392076Y0376623D01*
X0392029Y0376642D01*
X0391984Y0376665D01*
X0391941Y0376690D01*
X0391900Y0376719D01*
X0391861Y0376751D01*
X0391825Y0376786D01*
X0391792Y0376823D01*
X0391761Y0376863D01*
X0391734Y0376905D01*
X0392955Y0377128D02*
X0392968Y0377206D01*
X0392977Y0377285D01*
X0392982Y0377364D01*
X0392984Y0377443D01*
X0392982Y0377523D01*
X0392977Y0377602D01*
X0392968Y0377680D01*
X0392956Y0377759D01*
X0392940Y0377837D01*
X0392920Y0377913D01*
X0392897Y0377989D01*
X0392871Y0378064D01*
X0392841Y0378138D01*
X0392809Y0378210D01*
X0392772Y0378281D01*
X0392733Y0378350D01*
X0391066Y0378017D02*
X0391039Y0378059D01*
X0391008Y0378099D01*
X0390975Y0378136D01*
X0390939Y0378171D01*
X0390900Y0378203D01*
X0390859Y0378232D01*
X0390816Y0378257D01*
X0390771Y0378280D01*
X0390724Y0378299D01*
X0390677Y0378314D01*
X0390628Y0378326D01*
X0390578Y0378334D01*
X0390528Y0378338D01*
X0390478Y0378339D01*
X0390428Y0378335D01*
X0390378Y0378328D01*
X0390329Y0378317D01*
X0390281Y0378303D01*
X0390234Y0378285D01*
X0390189Y0378263D01*
X0390145Y0378238D01*
X0390104Y0378210D01*
X0390065Y0378179D01*
X0390028Y0378145D01*
X0389994Y0378108D01*
X0389962Y0378069D01*
X0389934Y0378027D01*
X0389909Y0377984D01*
X0389887Y0377938D01*
X0389869Y0377891D01*
X0389855Y0377843D01*
X0389844Y0377794D01*
X0390511Y0374222D02*
X0393400Y0374222D01*
X0393400Y0372000D02*
X0390511Y0372000D01*
X0390445Y0372002D01*
X0390380Y0372008D01*
X0390314Y0372018D01*
X0390250Y0372031D01*
X0390187Y0372048D01*
X0390124Y0372070D01*
X0390063Y0372094D01*
X0390004Y0372123D01*
X0389946Y0372154D01*
X0389890Y0372190D01*
X0389837Y0372228D01*
X0389786Y0372269D01*
X0389737Y0372314D01*
X0389691Y0372361D01*
X0389648Y0372411D01*
X0389608Y0372463D01*
X0389572Y0372518D01*
X0389538Y0372575D01*
X0389508Y0372633D01*
X0389481Y0372693D01*
X0389459Y0372755D01*
X0389439Y0372818D01*
X0389424Y0372882D01*
X0389412Y0372947D01*
X0389404Y0373012D01*
X0389400Y0373078D01*
X0389400Y0373144D01*
X0389404Y0373210D01*
X0389412Y0373275D01*
X0389424Y0373340D01*
X0389439Y0373404D01*
X0389459Y0373467D01*
X0389481Y0373529D01*
X0389508Y0373589D01*
X0389538Y0373647D01*
X0389572Y0373704D01*
X0389608Y0373759D01*
X0389648Y0373811D01*
X0389691Y0373861D01*
X0389737Y0373908D01*
X0389786Y0373953D01*
X0389837Y0373994D01*
X0389890Y0374032D01*
X0389946Y0374068D01*
X0390004Y0374099D01*
X0390063Y0374128D01*
X0390124Y0374152D01*
X0390187Y0374174D01*
X0390250Y0374191D01*
X0390314Y0374204D01*
X0390380Y0374214D01*
X0390445Y0374220D01*
X0390511Y0374222D01*
X0340289Y0321862D02*
X0341146Y0320841D01*
X0341182Y0320796D01*
X0341215Y0320748D01*
X0341244Y0320698D01*
X0341271Y0320646D01*
X0341294Y0320592D01*
X0341313Y0320537D01*
X0341329Y0320481D01*
X0341340Y0320424D01*
X0341349Y0320367D01*
X0341353Y0320309D01*
X0341354Y0320251D01*
X0341351Y0320193D01*
X0341344Y0320135D01*
X0341333Y0320078D01*
X0341318Y0320021D01*
X0341300Y0319966D01*
X0341279Y0319912D01*
X0341254Y0319860D01*
X0341225Y0319809D01*
X0341193Y0319760D01*
X0341158Y0319714D01*
X0341120Y0319669D01*
X0341080Y0319628D01*
X0341036Y0319589D01*
X0341037Y0319589D02*
X0339335Y0318160D01*
X0339334Y0318160D02*
X0339289Y0318124D01*
X0339241Y0318091D01*
X0339191Y0318062D01*
X0339139Y0318035D01*
X0339085Y0318012D01*
X0339030Y0317993D01*
X0338974Y0317977D01*
X0338917Y0317966D01*
X0338860Y0317957D01*
X0338802Y0317953D01*
X0338744Y0317952D01*
X0338686Y0317955D01*
X0338628Y0317962D01*
X0338571Y0317973D01*
X0338514Y0317988D01*
X0338459Y0318006D01*
X0338405Y0318027D01*
X0338353Y0318052D01*
X0338302Y0318081D01*
X0338253Y0318113D01*
X0338207Y0318148D01*
X0338162Y0318186D01*
X0338121Y0318226D01*
X0338082Y0318270D01*
X0337225Y0319291D01*
X0338927Y0320720D01*
X0339356Y0320209D01*
X0336806Y0322210D02*
X0335092Y0324253D01*
X0330206Y0322211D02*
X0327142Y0319640D01*
X0327856Y0318788D01*
X0327890Y0318751D01*
X0327926Y0318717D01*
X0327964Y0318685D01*
X0328005Y0318657D01*
X0328048Y0318631D01*
X0328093Y0318609D01*
X0328139Y0318590D01*
X0328186Y0318575D01*
X0328235Y0318563D01*
X0328284Y0318555D01*
X0328334Y0318551D01*
X0328384Y0318550D01*
X0328433Y0318553D01*
X0328483Y0318560D01*
X0328532Y0318571D01*
X0328579Y0318585D01*
X0328626Y0318602D01*
X0328671Y0318623D01*
X0328715Y0318648D01*
X0328756Y0318675D01*
X0328796Y0318706D01*
X0329817Y0319563D01*
X0329854Y0319597D01*
X0329888Y0319633D01*
X0329920Y0319671D01*
X0329948Y0319712D01*
X0329974Y0319755D01*
X0329996Y0319800D01*
X0330015Y0319846D01*
X0330030Y0319893D01*
X0330042Y0319942D01*
X0330050Y0319991D01*
X0330054Y0320041D01*
X0330055Y0320091D01*
X0330052Y0320140D01*
X0330045Y0320190D01*
X0330034Y0320239D01*
X0330020Y0320286D01*
X0330003Y0320333D01*
X0329982Y0320378D01*
X0329957Y0320422D01*
X0329930Y0320463D01*
X0329899Y0320503D01*
X0329185Y0321354D01*
X0327017Y0322554D02*
X0326166Y0321840D01*
X0326167Y0321840D02*
X0326127Y0321809D01*
X0326086Y0321782D01*
X0326042Y0321757D01*
X0325997Y0321736D01*
X0325950Y0321719D01*
X0325903Y0321705D01*
X0325854Y0321694D01*
X0325804Y0321687D01*
X0325755Y0321684D01*
X0325705Y0321685D01*
X0325655Y0321689D01*
X0325606Y0321697D01*
X0325557Y0321709D01*
X0325510Y0321724D01*
X0325464Y0321743D01*
X0325419Y0321765D01*
X0325376Y0321791D01*
X0325335Y0321819D01*
X0325297Y0321851D01*
X0325261Y0321885D01*
X0325227Y0321922D01*
X0324513Y0322773D01*
X0325534Y0323630D02*
X0326677Y0322268D01*
X0327017Y0322554D02*
X0327061Y0322593D01*
X0327101Y0322634D01*
X0327139Y0322679D01*
X0327174Y0322725D01*
X0327206Y0322774D01*
X0327235Y0322824D01*
X0327260Y0322877D01*
X0327281Y0322931D01*
X0327299Y0322986D01*
X0327314Y0323043D01*
X0327325Y0323100D01*
X0327332Y0323158D01*
X0327335Y0323216D01*
X0327334Y0323274D01*
X0327330Y0323332D01*
X0327321Y0323389D01*
X0327310Y0323446D01*
X0327294Y0323502D01*
X0327275Y0323557D01*
X0327252Y0323611D01*
X0327225Y0323663D01*
X0327196Y0323713D01*
X0327163Y0323761D01*
X0327127Y0323806D01*
X0327088Y0323850D01*
X0327047Y0323890D01*
X0327002Y0323928D01*
X0326956Y0323963D01*
X0326907Y0323995D01*
X0326856Y0324024D01*
X0326804Y0324049D01*
X0326750Y0324070D01*
X0326695Y0324088D01*
X0326638Y0324103D01*
X0326581Y0324114D01*
X0326523Y0324121D01*
X0326465Y0324124D01*
X0326407Y0324123D01*
X0326349Y0324119D01*
X0326292Y0324110D01*
X0326235Y0324099D01*
X0326179Y0324083D01*
X0326124Y0324064D01*
X0326070Y0324041D01*
X0326018Y0324014D01*
X0325968Y0323985D01*
X0325920Y0323952D01*
X0325875Y0323916D01*
X0325534Y0323630D01*
X0322921Y0323978D02*
X0322944Y0324097D01*
X0322971Y0324214D01*
X0323001Y0324331D01*
X0323035Y0324447D01*
X0323073Y0324562D01*
X0323114Y0324675D01*
X0323159Y0324787D01*
X0323208Y0324897D01*
X0323259Y0325006D01*
X0323315Y0325114D01*
X0323373Y0325219D01*
X0323435Y0325322D01*
X0323501Y0325424D01*
X0323569Y0325523D01*
X0323641Y0325621D01*
X0323715Y0325715D01*
X0323793Y0325808D01*
X0323873Y0325898D01*
X0323957Y0325985D01*
X0324043Y0326070D01*
X0324131Y0326152D01*
X0324223Y0326231D01*
X0324316Y0326307D01*
X0324412Y0326380D01*
X0324511Y0326450D01*
X0324611Y0326517D01*
X0324714Y0326580D01*
X0324818Y0326641D01*
X0324924Y0326698D01*
X0325032Y0326751D01*
X0325142Y0326801D01*
X0325253Y0326848D01*
X0325366Y0326891D01*
X0325480Y0326931D01*
X0325595Y0326966D01*
X0325712Y0326999D01*
X0325829Y0327027D01*
X0325947Y0327052D01*
X0326066Y0327073D01*
X0326185Y0327090D01*
X0326305Y0327104D01*
X0326425Y0327113D01*
X0326546Y0327119D01*
X0326667Y0327121D01*
X0332512Y0319463D02*
X0332342Y0319320D01*
X0332485Y0319150D01*
X0332655Y0319293D01*
X0332512Y0319463D01*
X0331562Y0318521D02*
X0329519Y0316807D01*
X0332296Y0316090D02*
X0333592Y0315583D01*
X0334584Y0316995D02*
X0334533Y0317052D01*
X0334480Y0317107D01*
X0334425Y0317160D01*
X0334367Y0317210D01*
X0334306Y0317257D01*
X0334244Y0317302D01*
X0334180Y0317343D01*
X0334113Y0317382D01*
X0334046Y0317417D01*
X0333976Y0317450D01*
X0333905Y0317479D01*
X0333833Y0317505D01*
X0333760Y0317527D01*
X0333686Y0317546D01*
X0333592Y0315583D02*
X0333648Y0315565D01*
X0333704Y0315551D01*
X0333762Y0315541D01*
X0333820Y0315534D01*
X0333879Y0315531D01*
X0333937Y0315532D01*
X0333996Y0315537D01*
X0334054Y0315545D01*
X0334111Y0315558D01*
X0334167Y0315574D01*
X0334223Y0315593D01*
X0334276Y0315616D01*
X0334329Y0315643D01*
X0334379Y0315673D01*
X0334427Y0315706D01*
X0334473Y0315742D01*
X0334517Y0315781D01*
X0334557Y0315822D01*
X0334595Y0315867D01*
X0334630Y0315913D01*
X0334662Y0315962D01*
X0334691Y0316013D01*
X0334716Y0316065D01*
X0334737Y0316119D01*
X0334755Y0316174D01*
X0334770Y0316231D01*
X0334781Y0316288D01*
X0334788Y0316346D01*
X0334791Y0316404D01*
X0334790Y0316462D01*
X0334786Y0316520D01*
X0334777Y0316577D01*
X0334766Y0316634D01*
X0334750Y0316690D01*
X0334731Y0316745D01*
X0334708Y0316799D01*
X0334681Y0316851D01*
X0334652Y0316901D01*
X0334619Y0316949D01*
X0334583Y0316994D01*
X0332587Y0314014D02*
X0332505Y0314023D01*
X0332424Y0314035D01*
X0332343Y0314051D01*
X0332263Y0314070D01*
X0332184Y0314093D01*
X0332106Y0314119D01*
X0332029Y0314149D01*
X0331953Y0314182D01*
X0331879Y0314218D01*
X0331807Y0314258D01*
X0331737Y0314300D01*
X0331668Y0314346D01*
X0331601Y0314395D01*
X0331537Y0314446D01*
X0331475Y0314501D01*
X0331416Y0314557D01*
X0331359Y0314617D01*
X0331304Y0314679D01*
X0331305Y0314679D02*
X0331269Y0314724D01*
X0331236Y0314772D01*
X0331207Y0314822D01*
X0331180Y0314874D01*
X0331157Y0314928D01*
X0331138Y0314983D01*
X0331122Y0315039D01*
X0331111Y0315096D01*
X0331102Y0315153D01*
X0331098Y0315211D01*
X0331097Y0315269D01*
X0331100Y0315327D01*
X0331107Y0315385D01*
X0331118Y0315442D01*
X0331133Y0315499D01*
X0331151Y0315554D01*
X0331172Y0315608D01*
X0331197Y0315660D01*
X0331226Y0315711D01*
X0331258Y0315760D01*
X0331293Y0315806D01*
X0331331Y0315851D01*
X0331371Y0315892D01*
X0331415Y0315931D01*
X0331461Y0315967D01*
X0331509Y0316000D01*
X0331559Y0316030D01*
X0331612Y0316057D01*
X0331665Y0316080D01*
X0331721Y0316099D01*
X0331777Y0316115D01*
X0331834Y0316128D01*
X0331892Y0316136D01*
X0331951Y0316141D01*
X0332009Y0316142D01*
X0332068Y0316139D01*
X0332126Y0316132D01*
X0332184Y0316122D01*
X0332240Y0316108D01*
X0332296Y0316090D01*
X0336960Y0312088D02*
X0337817Y0311067D01*
X0338552Y0312264D02*
X0335999Y0310122D01*
X0335999Y0310121D02*
X0335959Y0310090D01*
X0335918Y0310063D01*
X0335874Y0310038D01*
X0335829Y0310017D01*
X0335782Y0310000D01*
X0335735Y0309986D01*
X0335686Y0309975D01*
X0335636Y0309968D01*
X0335587Y0309965D01*
X0335537Y0309966D01*
X0335487Y0309970D01*
X0335438Y0309978D01*
X0335389Y0309990D01*
X0335342Y0310005D01*
X0335296Y0310024D01*
X0335251Y0310046D01*
X0335208Y0310072D01*
X0335167Y0310100D01*
X0335129Y0310132D01*
X0335093Y0310166D01*
X0335059Y0310203D01*
X0335060Y0310204D02*
X0334917Y0310374D01*
X0336977Y0307919D02*
X0337620Y0307153D01*
X0337619Y0307153D02*
X0337655Y0307113D01*
X0337694Y0307075D01*
X0337736Y0307040D01*
X0337780Y0307008D01*
X0337826Y0306979D01*
X0337874Y0306954D01*
X0337924Y0306932D01*
X0337975Y0306913D01*
X0338027Y0306898D01*
X0338080Y0306887D01*
X0338134Y0306879D01*
X0338188Y0306875D01*
X0338242Y0306875D01*
X0338296Y0306879D01*
X0338350Y0306887D01*
X0338403Y0306898D01*
X0338455Y0306913D01*
X0338506Y0306932D01*
X0338556Y0306954D01*
X0338604Y0306979D01*
X0338650Y0307008D01*
X0338694Y0307040D01*
X0338736Y0307075D01*
X0338775Y0307113D01*
X0338811Y0307153D01*
X0338844Y0307196D01*
X0338875Y0307241D01*
X0338902Y0307288D01*
X0338926Y0307337D01*
X0338946Y0307387D01*
X0338963Y0307439D01*
X0338976Y0307491D01*
X0338985Y0307545D01*
X0338991Y0307599D01*
X0338993Y0307653D01*
X0338991Y0307707D01*
X0338985Y0307761D01*
X0338976Y0307815D01*
X0338963Y0307867D01*
X0338946Y0307919D01*
X0338926Y0307969D01*
X0338902Y0308018D01*
X0338875Y0308065D01*
X0338844Y0308110D01*
X0338811Y0308153D01*
X0338168Y0308919D01*
X0338509Y0309205D02*
X0336977Y0307919D01*
X0338508Y0309205D02*
X0338548Y0309236D01*
X0338589Y0309263D01*
X0338633Y0309288D01*
X0338678Y0309309D01*
X0338725Y0309326D01*
X0338772Y0309340D01*
X0338821Y0309351D01*
X0338871Y0309358D01*
X0338920Y0309361D01*
X0338970Y0309360D01*
X0339020Y0309356D01*
X0339069Y0309348D01*
X0339118Y0309336D01*
X0339165Y0309321D01*
X0339211Y0309302D01*
X0339256Y0309280D01*
X0339299Y0309254D01*
X0339340Y0309226D01*
X0339378Y0309194D01*
X0339414Y0309160D01*
X0339448Y0309123D01*
X0340019Y0308442D01*
X0340153Y0305171D02*
X0340113Y0305140D01*
X0340072Y0305113D01*
X0340028Y0305088D01*
X0339983Y0305067D01*
X0339936Y0305050D01*
X0339889Y0305036D01*
X0339840Y0305025D01*
X0339790Y0305018D01*
X0339741Y0305015D01*
X0339691Y0305016D01*
X0339641Y0305020D01*
X0339592Y0305028D01*
X0339543Y0305040D01*
X0339496Y0305055D01*
X0339450Y0305074D01*
X0339405Y0305096D01*
X0339362Y0305122D01*
X0339321Y0305150D01*
X0339283Y0305182D01*
X0339247Y0305216D01*
X0339213Y0305253D01*
X0340153Y0305171D02*
X0342706Y0307314D01*
X0343908Y0305882D02*
X0345051Y0304520D01*
X0341987Y0301949D01*
X0343053Y0299986D02*
X0343174Y0299988D01*
X0343294Y0299994D01*
X0343415Y0300003D01*
X0343534Y0300017D01*
X0343654Y0300034D01*
X0343773Y0300055D01*
X0343891Y0300080D01*
X0344008Y0300108D01*
X0344124Y0300141D01*
X0344239Y0300176D01*
X0344353Y0300216D01*
X0344466Y0300259D01*
X0344577Y0300306D01*
X0344687Y0300356D01*
X0344795Y0300409D01*
X0344902Y0300466D01*
X0345006Y0300527D01*
X0345108Y0300590D01*
X0345209Y0300657D01*
X0345307Y0300727D01*
X0345403Y0300800D01*
X0345497Y0300876D01*
X0343689Y0303377D02*
X0342546Y0304739D01*
X0346799Y0303128D02*
X0346776Y0303009D01*
X0346749Y0302892D01*
X0346719Y0302775D01*
X0346685Y0302659D01*
X0346647Y0302545D01*
X0346606Y0302431D01*
X0346561Y0302319D01*
X0346512Y0302209D01*
X0346461Y0302100D01*
X0346405Y0301992D01*
X0346347Y0301887D01*
X0346285Y0301784D01*
X0346219Y0301682D01*
X0346151Y0301583D01*
X0346079Y0301485D01*
X0346005Y0301391D01*
X0345927Y0301298D01*
X0345847Y0301208D01*
X0345763Y0301121D01*
X0345677Y0301036D01*
X0345589Y0300954D01*
X0345497Y0300875D01*
X0344246Y0310924D02*
X0347310Y0313495D01*
X0342817Y0312627D01*
X0345882Y0315198D01*
X0344215Y0317184D02*
X0343072Y0318546D01*
X0344215Y0317184D02*
X0341150Y0314613D01*
X0340008Y0315975D01*
X0341996Y0317063D02*
X0342853Y0316042D01*
X0319289Y0300447D02*
X0315697Y0302654D01*
X0317246Y0298733D01*
X0316859Y0299713D02*
X0318391Y0300999D01*
X0315842Y0297554D02*
X0312249Y0299762D01*
X0313799Y0295840D01*
X0313412Y0296821D02*
X0314944Y0298106D01*
X0310182Y0292805D02*
X0307611Y0295869D01*
X0306760Y0295155D01*
X0306716Y0295116D01*
X0306676Y0295075D01*
X0306638Y0295030D01*
X0306603Y0294984D01*
X0306571Y0294935D01*
X0306542Y0294884D01*
X0306517Y0294832D01*
X0306496Y0294778D01*
X0306478Y0294723D01*
X0306463Y0294666D01*
X0306452Y0294609D01*
X0306445Y0294551D01*
X0306442Y0294493D01*
X0306443Y0294435D01*
X0306447Y0294377D01*
X0306456Y0294320D01*
X0306467Y0294263D01*
X0306483Y0294207D01*
X0306502Y0294152D01*
X0306525Y0294098D01*
X0306552Y0294046D01*
X0306581Y0293996D01*
X0306614Y0293948D01*
X0306650Y0293903D01*
X0306689Y0293859D01*
X0306730Y0293819D01*
X0306775Y0293781D01*
X0306821Y0293746D01*
X0306870Y0293714D01*
X0306921Y0293685D01*
X0306973Y0293660D01*
X0307027Y0293639D01*
X0307082Y0293621D01*
X0307139Y0293606D01*
X0307196Y0293595D01*
X0307254Y0293588D01*
X0307312Y0293585D01*
X0307370Y0293586D01*
X0307428Y0293590D01*
X0307485Y0293599D01*
X0307542Y0293610D01*
X0307598Y0293626D01*
X0307653Y0293645D01*
X0307707Y0293668D01*
X0307759Y0293695D01*
X0307809Y0293724D01*
X0307857Y0293757D01*
X0307902Y0293793D01*
X0308753Y0294507D01*
X0307902Y0293793D02*
X0307853Y0293749D01*
X0307806Y0293703D01*
X0307763Y0293653D01*
X0307722Y0293602D01*
X0307684Y0293547D01*
X0307650Y0293491D01*
X0307619Y0293433D01*
X0307592Y0293373D01*
X0307568Y0293312D01*
X0307548Y0293249D01*
X0307532Y0293185D01*
X0307519Y0293120D01*
X0307511Y0293055D01*
X0307506Y0292990D01*
X0307505Y0292924D01*
X0307508Y0292858D01*
X0307515Y0292792D01*
X0307526Y0292727D01*
X0307541Y0292663D01*
X0307559Y0292600D01*
X0307581Y0292538D01*
X0307607Y0292477D01*
X0307636Y0292418D01*
X0307669Y0292361D01*
X0307705Y0292306D01*
X0307744Y0292253D01*
X0307786Y0292203D01*
X0307832Y0292155D01*
X0307880Y0292110D01*
X0307930Y0292068D01*
X0307983Y0292029D01*
X0308038Y0291993D01*
X0308096Y0291960D01*
X0308155Y0291931D01*
X0308215Y0291906D01*
X0308278Y0291884D01*
X0308341Y0291866D01*
X0308405Y0291851D01*
X0308470Y0291841D01*
X0308536Y0291834D01*
X0308601Y0291831D01*
X0308667Y0291832D01*
X0308733Y0291837D01*
X0308798Y0291846D01*
X0308863Y0291859D01*
X0308926Y0291875D01*
X0308989Y0291896D01*
X0309050Y0291919D01*
X0309110Y0291947D01*
X0309168Y0291978D01*
X0309224Y0292012D01*
X0309278Y0292050D01*
X0309330Y0292091D01*
X0309331Y0292091D02*
X0310182Y0292805D01*
X0306434Y0289660D02*
X0305668Y0289017D01*
X0304382Y0290549D01*
X0304668Y0290209D02*
X0305434Y0290852D01*
X0304382Y0290549D02*
X0304351Y0290589D01*
X0304324Y0290630D01*
X0304299Y0290674D01*
X0304278Y0290719D01*
X0304261Y0290766D01*
X0304247Y0290813D01*
X0304236Y0290862D01*
X0304229Y0290912D01*
X0304226Y0290961D01*
X0304227Y0291011D01*
X0304231Y0291061D01*
X0304239Y0291110D01*
X0304251Y0291159D01*
X0304266Y0291206D01*
X0304285Y0291252D01*
X0304307Y0291297D01*
X0304333Y0291340D01*
X0304361Y0291381D01*
X0304393Y0291419D01*
X0304427Y0291455D01*
X0304464Y0291489D01*
X0304464Y0291488D02*
X0305145Y0292060D01*
X0305434Y0290852D02*
X0305477Y0290885D01*
X0305522Y0290916D01*
X0305569Y0290943D01*
X0305618Y0290967D01*
X0305668Y0290987D01*
X0305720Y0291004D01*
X0305772Y0291017D01*
X0305826Y0291026D01*
X0305880Y0291032D01*
X0305934Y0291034D01*
X0305988Y0291032D01*
X0306042Y0291026D01*
X0306096Y0291017D01*
X0306148Y0291004D01*
X0306200Y0290987D01*
X0306250Y0290967D01*
X0306299Y0290943D01*
X0306346Y0290916D01*
X0306391Y0290885D01*
X0306434Y0290852D01*
X0306474Y0290816D01*
X0306512Y0290777D01*
X0306547Y0290735D01*
X0306579Y0290691D01*
X0306608Y0290645D01*
X0306633Y0290597D01*
X0306655Y0290547D01*
X0306674Y0290496D01*
X0306689Y0290444D01*
X0306700Y0290391D01*
X0306708Y0290337D01*
X0306712Y0290283D01*
X0306712Y0290229D01*
X0306708Y0290175D01*
X0306700Y0290121D01*
X0306689Y0290068D01*
X0306674Y0290016D01*
X0306655Y0289965D01*
X0306633Y0289915D01*
X0306608Y0289867D01*
X0306579Y0289821D01*
X0306547Y0289777D01*
X0306512Y0289735D01*
X0306474Y0289696D01*
X0306434Y0289660D01*
X0303465Y0288039D02*
X0301323Y0290593D01*
X0302520Y0289857D02*
X0301499Y0289000D01*
X0300337Y0288025D02*
X0299316Y0287168D01*
X0299139Y0288761D02*
X0301282Y0286207D01*
X0301282Y0286208D02*
X0301313Y0286168D01*
X0301340Y0286127D01*
X0301365Y0286083D01*
X0301386Y0286038D01*
X0301403Y0285991D01*
X0301417Y0285944D01*
X0301428Y0285895D01*
X0301435Y0285845D01*
X0301438Y0285796D01*
X0301437Y0285746D01*
X0301433Y0285696D01*
X0301425Y0285647D01*
X0301413Y0285598D01*
X0301398Y0285551D01*
X0301379Y0285505D01*
X0301357Y0285460D01*
X0301331Y0285417D01*
X0301303Y0285376D01*
X0301271Y0285338D01*
X0301237Y0285302D01*
X0301200Y0285268D01*
X0301030Y0285125D01*
X0299101Y0284377D02*
X0298387Y0285228D01*
X0298673Y0284888D02*
X0297311Y0283745D01*
X0297025Y0284086D01*
X0296989Y0284131D01*
X0296956Y0284179D01*
X0296927Y0284229D01*
X0296900Y0284281D01*
X0296877Y0284335D01*
X0296858Y0284390D01*
X0296842Y0284446D01*
X0296831Y0284503D01*
X0296822Y0284560D01*
X0296818Y0284618D01*
X0296817Y0284676D01*
X0296820Y0284734D01*
X0296827Y0284792D01*
X0296838Y0284849D01*
X0296853Y0284906D01*
X0296871Y0284961D01*
X0296892Y0285015D01*
X0296917Y0285067D01*
X0296946Y0285118D01*
X0296978Y0285167D01*
X0297013Y0285213D01*
X0297051Y0285258D01*
X0297091Y0285299D01*
X0297135Y0285338D01*
X0297180Y0285374D01*
X0297228Y0285407D01*
X0297278Y0285436D01*
X0297330Y0285463D01*
X0297384Y0285486D01*
X0297439Y0285505D01*
X0297495Y0285521D01*
X0297552Y0285532D01*
X0297609Y0285541D01*
X0297667Y0285545D01*
X0297725Y0285546D01*
X0297783Y0285543D01*
X0297841Y0285536D01*
X0297898Y0285525D01*
X0297955Y0285510D01*
X0298010Y0285492D01*
X0298064Y0285471D01*
X0298117Y0285446D01*
X0298167Y0285417D01*
X0298216Y0285385D01*
X0298262Y0285350D01*
X0298307Y0285312D01*
X0298348Y0285272D01*
X0298387Y0285228D01*
X0299101Y0284378D02*
X0299132Y0284338D01*
X0299159Y0284297D01*
X0299184Y0284253D01*
X0299205Y0284208D01*
X0299222Y0284161D01*
X0299236Y0284114D01*
X0299247Y0284065D01*
X0299254Y0284015D01*
X0299257Y0283966D01*
X0299256Y0283916D01*
X0299252Y0283866D01*
X0299244Y0283817D01*
X0299232Y0283768D01*
X0299217Y0283721D01*
X0299198Y0283675D01*
X0299176Y0283630D01*
X0299150Y0283587D01*
X0299122Y0283546D01*
X0299090Y0283508D01*
X0299056Y0283472D01*
X0299019Y0283438D01*
X0298168Y0282724D01*
X0296392Y0281234D02*
X0294678Y0283277D01*
X0293657Y0282420D01*
X0293942Y0282079D01*
X0292530Y0281474D02*
X0293563Y0278860D01*
X0294761Y0278124D02*
X0291168Y0280331D01*
X0294761Y0278124D02*
X0295101Y0278410D01*
X0303213Y0286957D02*
X0303383Y0287100D01*
X0303384Y0287100D02*
X0303421Y0287134D01*
X0303455Y0287170D01*
X0303487Y0287208D01*
X0303515Y0287249D01*
X0303541Y0287292D01*
X0303563Y0287337D01*
X0303582Y0287383D01*
X0303597Y0287430D01*
X0303609Y0287479D01*
X0303617Y0287528D01*
X0303621Y0287578D01*
X0303622Y0287628D01*
X0303619Y0287677D01*
X0303612Y0287727D01*
X0303601Y0287776D01*
X0303587Y0287823D01*
X0303570Y0287870D01*
X0303549Y0287915D01*
X0303524Y0287959D01*
X0303497Y0288000D01*
X0303466Y0288040D01*
X0280349Y0266007D02*
X0278987Y0264865D01*
X0278938Y0264821D01*
X0278891Y0264775D01*
X0278848Y0264725D01*
X0278807Y0264674D01*
X0278769Y0264619D01*
X0278735Y0264563D01*
X0278704Y0264505D01*
X0278677Y0264445D01*
X0278653Y0264384D01*
X0278633Y0264321D01*
X0278617Y0264257D01*
X0278604Y0264192D01*
X0278596Y0264127D01*
X0278591Y0264062D01*
X0278590Y0263996D01*
X0278593Y0263930D01*
X0278600Y0263864D01*
X0278611Y0263799D01*
X0278626Y0263735D01*
X0278644Y0263672D01*
X0278666Y0263610D01*
X0278692Y0263549D01*
X0278721Y0263490D01*
X0278754Y0263433D01*
X0278790Y0263378D01*
X0278829Y0263325D01*
X0278871Y0263275D01*
X0278917Y0263227D01*
X0278965Y0263182D01*
X0279015Y0263140D01*
X0279068Y0263101D01*
X0279123Y0263065D01*
X0279181Y0263032D01*
X0279240Y0263003D01*
X0279300Y0262978D01*
X0279363Y0262956D01*
X0279426Y0262938D01*
X0279490Y0262923D01*
X0279555Y0262913D01*
X0279621Y0262906D01*
X0279686Y0262903D01*
X0279752Y0262904D01*
X0279818Y0262909D01*
X0279883Y0262918D01*
X0279948Y0262931D01*
X0280011Y0262947D01*
X0280074Y0262968D01*
X0280135Y0262991D01*
X0280195Y0263019D01*
X0280253Y0263050D01*
X0280309Y0263084D01*
X0280363Y0263122D01*
X0280415Y0263163D01*
X0280416Y0263162D02*
X0281777Y0264305D01*
X0281826Y0264349D01*
X0281873Y0264395D01*
X0281916Y0264445D01*
X0281957Y0264496D01*
X0281995Y0264551D01*
X0282029Y0264607D01*
X0282060Y0264665D01*
X0282087Y0264725D01*
X0282111Y0264786D01*
X0282131Y0264849D01*
X0282147Y0264913D01*
X0282160Y0264978D01*
X0282168Y0265043D01*
X0282173Y0265108D01*
X0282174Y0265174D01*
X0282171Y0265240D01*
X0282164Y0265306D01*
X0282153Y0265371D01*
X0282138Y0265435D01*
X0282120Y0265498D01*
X0282098Y0265560D01*
X0282072Y0265621D01*
X0282043Y0265680D01*
X0282010Y0265737D01*
X0281974Y0265792D01*
X0281935Y0265845D01*
X0281893Y0265895D01*
X0281847Y0265943D01*
X0281799Y0265988D01*
X0281749Y0266030D01*
X0281696Y0266069D01*
X0281641Y0266105D01*
X0281583Y0266138D01*
X0281524Y0266167D01*
X0281464Y0266192D01*
X0281401Y0266214D01*
X0281338Y0266232D01*
X0281274Y0266247D01*
X0281209Y0266257D01*
X0281143Y0266264D01*
X0281078Y0266267D01*
X0281012Y0266266D01*
X0280946Y0266261D01*
X0280881Y0266252D01*
X0280816Y0266239D01*
X0280753Y0266223D01*
X0280690Y0266202D01*
X0280629Y0266179D01*
X0280569Y0266151D01*
X0280511Y0266120D01*
X0280455Y0266086D01*
X0280401Y0266048D01*
X0280349Y0266007D01*
X0278199Y0267706D02*
X0276902Y0268214D01*
X0275911Y0266802D02*
X0275966Y0266740D01*
X0276023Y0266680D01*
X0276082Y0266624D01*
X0276144Y0266569D01*
X0276208Y0266518D01*
X0276275Y0266469D01*
X0276344Y0266423D01*
X0276414Y0266381D01*
X0276486Y0266341D01*
X0276560Y0266305D01*
X0276636Y0266272D01*
X0276713Y0266242D01*
X0276791Y0266216D01*
X0276870Y0266193D01*
X0276950Y0266174D01*
X0277031Y0266158D01*
X0277112Y0266146D01*
X0277194Y0266137D01*
X0276902Y0268214D02*
X0276846Y0268232D01*
X0276790Y0268246D01*
X0276732Y0268256D01*
X0276674Y0268263D01*
X0276615Y0268266D01*
X0276557Y0268265D01*
X0276498Y0268260D01*
X0276440Y0268252D01*
X0276383Y0268239D01*
X0276327Y0268223D01*
X0276271Y0268204D01*
X0276218Y0268181D01*
X0276165Y0268154D01*
X0276115Y0268124D01*
X0276067Y0268091D01*
X0276021Y0268055D01*
X0276021Y0268054D02*
X0275977Y0268015D01*
X0275937Y0267974D01*
X0275899Y0267929D01*
X0275864Y0267883D01*
X0275832Y0267834D01*
X0275803Y0267783D01*
X0275778Y0267731D01*
X0275757Y0267677D01*
X0275739Y0267622D01*
X0275724Y0267565D01*
X0275713Y0267508D01*
X0275706Y0267450D01*
X0275703Y0267392D01*
X0275704Y0267334D01*
X0275708Y0267276D01*
X0275717Y0267219D01*
X0275728Y0267162D01*
X0275744Y0267106D01*
X0275763Y0267051D01*
X0275786Y0266997D01*
X0275813Y0266945D01*
X0275842Y0266895D01*
X0275875Y0266847D01*
X0275911Y0266802D01*
X0278292Y0269669D02*
X0278366Y0269650D01*
X0278439Y0269628D01*
X0278511Y0269602D01*
X0278582Y0269573D01*
X0278652Y0269540D01*
X0278719Y0269505D01*
X0278786Y0269466D01*
X0278850Y0269425D01*
X0278912Y0269380D01*
X0278973Y0269333D01*
X0279031Y0269283D01*
X0279086Y0269230D01*
X0279139Y0269175D01*
X0279190Y0269118D01*
X0279190Y0269117D02*
X0279226Y0269072D01*
X0279259Y0269024D01*
X0279288Y0268974D01*
X0279315Y0268922D01*
X0279338Y0268868D01*
X0279357Y0268813D01*
X0279373Y0268757D01*
X0279384Y0268700D01*
X0279393Y0268643D01*
X0279397Y0268585D01*
X0279398Y0268527D01*
X0279395Y0268469D01*
X0279388Y0268411D01*
X0279377Y0268354D01*
X0279362Y0268297D01*
X0279344Y0268242D01*
X0279323Y0268188D01*
X0279298Y0268136D01*
X0279269Y0268085D01*
X0279237Y0268036D01*
X0279202Y0267990D01*
X0279164Y0267945D01*
X0279124Y0267904D01*
X0279080Y0267865D01*
X0279034Y0267829D01*
X0278986Y0267796D01*
X0278936Y0267766D01*
X0278883Y0267739D01*
X0278830Y0267716D01*
X0278774Y0267697D01*
X0278718Y0267681D01*
X0278661Y0267668D01*
X0278603Y0267660D01*
X0278544Y0267655D01*
X0278486Y0267654D01*
X0278427Y0267657D01*
X0278369Y0267664D01*
X0278311Y0267674D01*
X0278255Y0267688D01*
X0278199Y0267706D01*
X0275114Y0270172D02*
X0273400Y0272215D01*
X0273235Y0270337D02*
X0275278Y0272051D01*
X0269695Y0266691D02*
X0267652Y0264977D01*
X0268366Y0264126D01*
X0268366Y0264125D02*
X0268400Y0264088D01*
X0268436Y0264054D01*
X0268474Y0264022D01*
X0268515Y0263994D01*
X0268558Y0263968D01*
X0268603Y0263946D01*
X0268649Y0263927D01*
X0268696Y0263912D01*
X0268745Y0263900D01*
X0268794Y0263892D01*
X0268844Y0263888D01*
X0268894Y0263887D01*
X0268943Y0263890D01*
X0268993Y0263897D01*
X0269042Y0263908D01*
X0269089Y0263922D01*
X0269136Y0263939D01*
X0269181Y0263960D01*
X0269225Y0263985D01*
X0269266Y0264012D01*
X0269306Y0264043D01*
X0269305Y0264044D02*
X0270837Y0265329D01*
X0272550Y0262597D02*
X0273264Y0261745D01*
X0272550Y0262597D02*
X0272514Y0262642D01*
X0272481Y0262690D01*
X0272452Y0262740D01*
X0272425Y0262792D01*
X0272402Y0262846D01*
X0272383Y0262901D01*
X0272367Y0262957D01*
X0272356Y0263014D01*
X0272347Y0263071D01*
X0272343Y0263129D01*
X0272342Y0263187D01*
X0272345Y0263245D01*
X0272352Y0263303D01*
X0272363Y0263360D01*
X0272378Y0263417D01*
X0272396Y0263472D01*
X0272417Y0263526D01*
X0272442Y0263578D01*
X0272471Y0263629D01*
X0272503Y0263678D01*
X0272538Y0263724D01*
X0272576Y0263769D01*
X0272616Y0263810D01*
X0272660Y0263849D01*
X0272705Y0263885D01*
X0272753Y0263918D01*
X0272803Y0263947D01*
X0272855Y0263974D01*
X0272909Y0263997D01*
X0272964Y0264016D01*
X0273020Y0264032D01*
X0273077Y0264043D01*
X0273134Y0264052D01*
X0273192Y0264056D01*
X0273250Y0264057D01*
X0273308Y0264054D01*
X0273366Y0264047D01*
X0273423Y0264036D01*
X0273480Y0264021D01*
X0273535Y0264003D01*
X0273589Y0263982D01*
X0273641Y0263957D01*
X0273692Y0263928D01*
X0273741Y0263896D01*
X0273787Y0263861D01*
X0273832Y0263823D01*
X0273873Y0263783D01*
X0273912Y0263739D01*
X0274626Y0262888D01*
X0271562Y0260317D01*
X0270848Y0261168D01*
X0270807Y0261220D01*
X0270769Y0261274D01*
X0270735Y0261330D01*
X0270704Y0261388D01*
X0270676Y0261448D01*
X0270653Y0261509D01*
X0270632Y0261572D01*
X0270616Y0261635D01*
X0270603Y0261700D01*
X0270594Y0261765D01*
X0270589Y0261831D01*
X0270588Y0261897D01*
X0270591Y0261962D01*
X0270598Y0262028D01*
X0270608Y0262093D01*
X0270623Y0262157D01*
X0270641Y0262220D01*
X0270663Y0262283D01*
X0270688Y0262343D01*
X0270717Y0262402D01*
X0270750Y0262460D01*
X0270786Y0262515D01*
X0270825Y0262568D01*
X0270867Y0262618D01*
X0270912Y0262666D01*
X0270960Y0262712D01*
X0271010Y0262754D01*
X0271063Y0262793D01*
X0271118Y0262829D01*
X0271175Y0262862D01*
X0271234Y0262891D01*
X0271295Y0262917D01*
X0271357Y0262939D01*
X0271420Y0262957D01*
X0271484Y0262972D01*
X0271549Y0262983D01*
X0271615Y0262990D01*
X0271681Y0262993D01*
X0271747Y0262992D01*
X0271812Y0262987D01*
X0271877Y0262979D01*
X0271942Y0262966D01*
X0272006Y0262950D01*
X0272069Y0262930D01*
X0272130Y0262906D01*
X0272190Y0262879D01*
X0272248Y0262848D01*
X0272304Y0262814D01*
X0272359Y0262776D01*
X0272410Y0262735D01*
X0272460Y0262692D01*
X0272506Y0262645D01*
X0272550Y0262596D01*
X0275756Y0257048D02*
X0276810Y0256482D01*
X0276811Y0256482D02*
X0276853Y0256462D01*
X0276897Y0256445D01*
X0276942Y0256432D01*
X0276988Y0256422D01*
X0277035Y0256416D01*
X0277082Y0256414D01*
X0277129Y0256416D01*
X0277175Y0256421D01*
X0277221Y0256431D01*
X0277266Y0256444D01*
X0277310Y0256461D01*
X0277353Y0256481D01*
X0277393Y0256505D01*
X0277432Y0256532D01*
X0277468Y0256562D01*
X0277502Y0256594D01*
X0277533Y0256630D01*
X0277560Y0256668D01*
X0277585Y0256708D01*
X0277606Y0256750D01*
X0277624Y0256793D01*
X0277639Y0256838D01*
X0277649Y0256884D01*
X0277656Y0256930D01*
X0277659Y0256977D01*
X0277658Y0257024D01*
X0277653Y0257071D01*
X0277645Y0257117D01*
X0277633Y0257163D01*
X0277617Y0257207D01*
X0277597Y0257250D01*
X0277574Y0257291D01*
X0277548Y0257330D01*
X0277519Y0257367D01*
X0276004Y0255370D02*
X0275906Y0255428D01*
X0275811Y0255490D01*
X0275718Y0255554D01*
X0275626Y0255621D01*
X0275537Y0255691D01*
X0275449Y0255763D01*
X0275364Y0255839D01*
X0275282Y0255916D01*
X0275201Y0255996D01*
X0275123Y0256079D01*
X0275048Y0256163D01*
X0275019Y0256200D01*
X0274993Y0256239D01*
X0274970Y0256280D01*
X0274950Y0256323D01*
X0274934Y0256367D01*
X0274922Y0256413D01*
X0274914Y0256459D01*
X0274909Y0256506D01*
X0274908Y0256553D01*
X0274911Y0256600D01*
X0274918Y0256646D01*
X0274928Y0256692D01*
X0274943Y0256737D01*
X0274961Y0256780D01*
X0274982Y0256822D01*
X0275007Y0256862D01*
X0275034Y0256900D01*
X0275065Y0256936D01*
X0275099Y0256968D01*
X0275135Y0256998D01*
X0275174Y0257025D01*
X0275214Y0257049D01*
X0275257Y0257069D01*
X0275301Y0257086D01*
X0275346Y0257099D01*
X0275392Y0257109D01*
X0275438Y0257114D01*
X0275485Y0257116D01*
X0275532Y0257114D01*
X0275579Y0257108D01*
X0275625Y0257098D01*
X0275670Y0257085D01*
X0275714Y0257068D01*
X0275756Y0257048D01*
X0276706Y0257990D02*
X0276790Y0257948D01*
X0276872Y0257902D01*
X0276952Y0257854D01*
X0277031Y0257803D01*
X0277107Y0257748D01*
X0277181Y0257691D01*
X0277254Y0257632D01*
X0277324Y0257569D01*
X0277391Y0257504D01*
X0277456Y0257437D01*
X0277519Y0257367D01*
X0278852Y0254741D02*
X0277320Y0253455D01*
X0277963Y0252689D01*
X0277962Y0252689D02*
X0277998Y0252649D01*
X0278037Y0252611D01*
X0278079Y0252576D01*
X0278123Y0252544D01*
X0278169Y0252515D01*
X0278217Y0252490D01*
X0278267Y0252468D01*
X0278318Y0252449D01*
X0278370Y0252434D01*
X0278423Y0252423D01*
X0278477Y0252415D01*
X0278531Y0252411D01*
X0278585Y0252411D01*
X0278639Y0252415D01*
X0278693Y0252423D01*
X0278746Y0252434D01*
X0278798Y0252449D01*
X0278849Y0252468D01*
X0278899Y0252490D01*
X0278947Y0252515D01*
X0278993Y0252544D01*
X0279037Y0252576D01*
X0279079Y0252611D01*
X0279118Y0252649D01*
X0279154Y0252689D01*
X0279187Y0252732D01*
X0279218Y0252777D01*
X0279245Y0252824D01*
X0279269Y0252873D01*
X0279289Y0252923D01*
X0279306Y0252975D01*
X0279319Y0253027D01*
X0279328Y0253081D01*
X0279334Y0253135D01*
X0279336Y0253189D01*
X0279334Y0253243D01*
X0279328Y0253297D01*
X0279319Y0253351D01*
X0279306Y0253403D01*
X0279289Y0253455D01*
X0279269Y0253505D01*
X0279245Y0253554D01*
X0279218Y0253601D01*
X0279187Y0253646D01*
X0279154Y0253689D01*
X0278511Y0254455D01*
X0278851Y0254741D02*
X0278891Y0254772D01*
X0278932Y0254799D01*
X0278976Y0254824D01*
X0279021Y0254845D01*
X0279068Y0254862D01*
X0279115Y0254876D01*
X0279164Y0254887D01*
X0279214Y0254894D01*
X0279263Y0254897D01*
X0279313Y0254896D01*
X0279363Y0254892D01*
X0279412Y0254884D01*
X0279461Y0254872D01*
X0279508Y0254857D01*
X0279554Y0254838D01*
X0279599Y0254816D01*
X0279642Y0254790D01*
X0279683Y0254762D01*
X0279721Y0254730D01*
X0279757Y0254696D01*
X0279791Y0254659D01*
X0280362Y0253978D01*
X0281649Y0251753D02*
X0283078Y0250050D01*
X0284876Y0247561D02*
X0284782Y0247485D01*
X0284686Y0247412D01*
X0284588Y0247342D01*
X0284487Y0247275D01*
X0284385Y0247212D01*
X0284281Y0247151D01*
X0284174Y0247094D01*
X0284066Y0247041D01*
X0283956Y0246991D01*
X0283845Y0246944D01*
X0283732Y0246901D01*
X0283618Y0246861D01*
X0283503Y0246826D01*
X0283387Y0246793D01*
X0283270Y0246765D01*
X0283152Y0246740D01*
X0283033Y0246719D01*
X0282913Y0246702D01*
X0282794Y0246688D01*
X0282673Y0246679D01*
X0282553Y0246673D01*
X0282432Y0246671D01*
X0281375Y0248622D02*
X0284440Y0251193D01*
X0286178Y0249814D02*
X0286155Y0249695D01*
X0286128Y0249578D01*
X0286098Y0249461D01*
X0286064Y0249345D01*
X0286026Y0249231D01*
X0285985Y0249117D01*
X0285940Y0249005D01*
X0285891Y0248895D01*
X0285840Y0248786D01*
X0285784Y0248678D01*
X0285726Y0248573D01*
X0285664Y0248470D01*
X0285598Y0248368D01*
X0285530Y0248269D01*
X0285458Y0248171D01*
X0285384Y0248077D01*
X0285306Y0247984D01*
X0285226Y0247894D01*
X0285142Y0247807D01*
X0285056Y0247722D01*
X0284968Y0247640D01*
X0284876Y0247561D01*
X0279947Y0250324D02*
X0283011Y0252896D01*
X0282285Y0259205D02*
X0285350Y0261776D01*
X0284635Y0262628D01*
X0284635Y0262627D02*
X0284591Y0262676D01*
X0284545Y0262723D01*
X0284495Y0262766D01*
X0284444Y0262807D01*
X0284389Y0262845D01*
X0284333Y0262879D01*
X0284275Y0262910D01*
X0284215Y0262937D01*
X0284154Y0262961D01*
X0284091Y0262981D01*
X0284027Y0262997D01*
X0283962Y0263010D01*
X0283897Y0263018D01*
X0283832Y0263023D01*
X0283766Y0263024D01*
X0283700Y0263021D01*
X0283634Y0263014D01*
X0283569Y0263003D01*
X0283505Y0262988D01*
X0283442Y0262970D01*
X0283380Y0262948D01*
X0283319Y0262922D01*
X0283260Y0262893D01*
X0283203Y0262860D01*
X0283148Y0262824D01*
X0283095Y0262785D01*
X0283045Y0262743D01*
X0282997Y0262697D01*
X0282952Y0262649D01*
X0282910Y0262599D01*
X0282871Y0262546D01*
X0282835Y0262491D01*
X0282802Y0262433D01*
X0282773Y0262374D01*
X0282748Y0262314D01*
X0282726Y0262251D01*
X0282708Y0262188D01*
X0282693Y0262124D01*
X0282683Y0262059D01*
X0282676Y0261993D01*
X0282673Y0261928D01*
X0282674Y0261862D01*
X0282679Y0261796D01*
X0282688Y0261731D01*
X0282701Y0261666D01*
X0282717Y0261603D01*
X0282738Y0261540D01*
X0282761Y0261479D01*
X0282789Y0261419D01*
X0282820Y0261361D01*
X0282854Y0261305D01*
X0282892Y0261251D01*
X0282933Y0261199D01*
X0283647Y0260348D01*
X0268038Y0268666D02*
X0266752Y0270198D01*
X0266718Y0270235D01*
X0266682Y0270269D01*
X0266644Y0270301D01*
X0266603Y0270329D01*
X0266560Y0270355D01*
X0266515Y0270377D01*
X0266469Y0270396D01*
X0266422Y0270411D01*
X0266373Y0270423D01*
X0266324Y0270431D01*
X0266274Y0270435D01*
X0266224Y0270436D01*
X0266175Y0270433D01*
X0266125Y0270426D01*
X0266076Y0270415D01*
X0266029Y0270401D01*
X0265982Y0270384D01*
X0265937Y0270363D01*
X0265893Y0270338D01*
X0265852Y0270311D01*
X0265812Y0270280D01*
X0265813Y0270280D02*
X0264281Y0268995D01*
X0265138Y0267973D02*
X0267181Y0269687D01*
X0268038Y0268666D02*
X0265995Y0266952D01*
X0262598Y0271000D02*
X0261884Y0271851D01*
X0261883Y0271851D02*
X0261852Y0271891D01*
X0261825Y0271932D01*
X0261800Y0271976D01*
X0261779Y0272021D01*
X0261762Y0272068D01*
X0261748Y0272115D01*
X0261737Y0272164D01*
X0261730Y0272214D01*
X0261727Y0272263D01*
X0261728Y0272313D01*
X0261732Y0272363D01*
X0261740Y0272412D01*
X0261752Y0272461D01*
X0261767Y0272508D01*
X0261786Y0272554D01*
X0261808Y0272599D01*
X0261834Y0272642D01*
X0261862Y0272683D01*
X0261894Y0272721D01*
X0261928Y0272757D01*
X0261965Y0272791D01*
X0261966Y0272791D02*
X0262987Y0273648D01*
X0263027Y0273679D01*
X0263068Y0273706D01*
X0263112Y0273731D01*
X0263157Y0273752D01*
X0263204Y0273769D01*
X0263251Y0273783D01*
X0263300Y0273794D01*
X0263350Y0273801D01*
X0263399Y0273804D01*
X0263449Y0273803D01*
X0263499Y0273799D01*
X0263548Y0273791D01*
X0263597Y0273779D01*
X0263644Y0273764D01*
X0263690Y0273745D01*
X0263735Y0273723D01*
X0263778Y0273697D01*
X0263819Y0273669D01*
X0263857Y0273637D01*
X0263893Y0273603D01*
X0263927Y0273566D01*
X0263926Y0273566D02*
X0264641Y0272714D01*
X0261576Y0270143D01*
X0261191Y0275789D02*
X0261284Y0275865D01*
X0261380Y0275938D01*
X0261479Y0276008D01*
X0261579Y0276075D01*
X0261682Y0276138D01*
X0261786Y0276199D01*
X0261892Y0276256D01*
X0262000Y0276309D01*
X0262110Y0276359D01*
X0262221Y0276406D01*
X0262334Y0276449D01*
X0262448Y0276489D01*
X0262563Y0276524D01*
X0262680Y0276557D01*
X0262797Y0276585D01*
X0262915Y0276610D01*
X0263034Y0276631D01*
X0263153Y0276648D01*
X0263273Y0276662D01*
X0263393Y0276671D01*
X0263514Y0276677D01*
X0263635Y0276679D01*
X0261191Y0275789D02*
X0261099Y0275710D01*
X0261011Y0275628D01*
X0260925Y0275543D01*
X0260841Y0275456D01*
X0260761Y0275366D01*
X0260683Y0275273D01*
X0260609Y0275179D01*
X0260537Y0275081D01*
X0260469Y0274982D01*
X0260403Y0274880D01*
X0260341Y0274777D01*
X0260283Y0274672D01*
X0260227Y0274564D01*
X0260176Y0274455D01*
X0260127Y0274345D01*
X0260082Y0274233D01*
X0260041Y0274120D01*
X0260003Y0274005D01*
X0259969Y0273889D01*
X0259939Y0273772D01*
X0259912Y0273655D01*
X0259889Y0273536D01*
X0268901Y0310506D02*
X0272901Y0311839D01*
X0268901Y0313173D01*
X0269901Y0312839D02*
X0269901Y0310839D01*
X0272901Y0314928D02*
X0272901Y0317151D01*
X0272901Y0316039D02*
X0268901Y0316039D01*
X0268901Y0319939D02*
X0272901Y0319939D01*
X0272901Y0318828D02*
X0272901Y0321051D01*
X0272901Y0322795D02*
X0272901Y0323684D01*
X0272901Y0323239D02*
X0268901Y0323239D01*
X0268901Y0322795D02*
X0268901Y0323684D01*
X0268901Y0325878D02*
X0272901Y0325878D01*
X0268901Y0328101D01*
X0272901Y0328101D01*
X0272901Y0330306D02*
X0271012Y0331639D01*
X0268901Y0331639D01*
X0271012Y0331639D02*
X0272901Y0332973D01*
X0271123Y0336918D02*
X0271167Y0336961D01*
X0271214Y0337003D01*
X0271263Y0337041D01*
X0271314Y0337076D01*
X0271367Y0337109D01*
X0271422Y0337138D01*
X0271478Y0337164D01*
X0271536Y0337187D01*
X0271595Y0337206D01*
X0271655Y0337222D01*
X0271716Y0337235D01*
X0271777Y0337244D01*
X0271839Y0337249D01*
X0271901Y0337251D01*
X0271123Y0336917D02*
X0268901Y0335028D01*
X0268901Y0337251D01*
X0269457Y0341417D02*
X0269553Y0341462D01*
X0269652Y0341504D01*
X0269751Y0341543D01*
X0269852Y0341579D01*
X0269953Y0341611D01*
X0270056Y0341640D01*
X0270160Y0341666D01*
X0270264Y0341688D01*
X0270369Y0341707D01*
X0270475Y0341722D01*
X0270581Y0341734D01*
X0270688Y0341743D01*
X0270794Y0341748D01*
X0270901Y0341750D01*
X0270901Y0339529D02*
X0271008Y0339531D01*
X0271114Y0339536D01*
X0271221Y0339545D01*
X0271327Y0339557D01*
X0271433Y0339572D01*
X0271538Y0339591D01*
X0271642Y0339613D01*
X0271746Y0339639D01*
X0271849Y0339668D01*
X0271950Y0339700D01*
X0272051Y0339736D01*
X0272150Y0339775D01*
X0272249Y0339817D01*
X0272345Y0339862D01*
X0272901Y0340639D02*
X0272899Y0340696D01*
X0272893Y0340752D01*
X0272883Y0340808D01*
X0272870Y0340863D01*
X0272853Y0340917D01*
X0272832Y0340969D01*
X0272807Y0341020D01*
X0272779Y0341070D01*
X0272748Y0341117D01*
X0272713Y0341162D01*
X0272676Y0341204D01*
X0272636Y0341244D01*
X0272593Y0341281D01*
X0272547Y0341315D01*
X0272500Y0341345D01*
X0272450Y0341373D01*
X0272398Y0341396D01*
X0272346Y0341417D01*
X0272012Y0341528D02*
X0269790Y0339751D01*
X0268901Y0340639D02*
X0268903Y0340696D01*
X0268909Y0340752D01*
X0268919Y0340808D01*
X0268932Y0340863D01*
X0268949Y0340917D01*
X0268970Y0340969D01*
X0268995Y0341020D01*
X0269023Y0341070D01*
X0269054Y0341117D01*
X0269089Y0341162D01*
X0269126Y0341204D01*
X0269166Y0341244D01*
X0269209Y0341281D01*
X0269255Y0341315D01*
X0269302Y0341345D01*
X0269352Y0341373D01*
X0269404Y0341396D01*
X0269456Y0341417D01*
X0268901Y0340639D02*
X0268903Y0340582D01*
X0268909Y0340526D01*
X0268919Y0340470D01*
X0268932Y0340415D01*
X0268949Y0340361D01*
X0268970Y0340309D01*
X0268995Y0340258D01*
X0269023Y0340208D01*
X0269054Y0340161D01*
X0269089Y0340116D01*
X0269126Y0340074D01*
X0269166Y0340034D01*
X0269209Y0339997D01*
X0269255Y0339963D01*
X0269302Y0339933D01*
X0269352Y0339905D01*
X0269403Y0339882D01*
X0269456Y0339861D01*
X0270901Y0341750D02*
X0271008Y0341748D01*
X0271114Y0341743D01*
X0271221Y0341734D01*
X0271327Y0341722D01*
X0271433Y0341707D01*
X0271538Y0341688D01*
X0271642Y0341666D01*
X0271746Y0341640D01*
X0271849Y0341611D01*
X0271950Y0341578D01*
X0272051Y0341543D01*
X0272150Y0341504D01*
X0272249Y0341462D01*
X0272345Y0341417D01*
X0272901Y0340639D02*
X0272899Y0340582D01*
X0272893Y0340526D01*
X0272883Y0340470D01*
X0272870Y0340415D01*
X0272853Y0340361D01*
X0272832Y0340309D01*
X0272807Y0340258D01*
X0272779Y0340208D01*
X0272748Y0340161D01*
X0272713Y0340116D01*
X0272676Y0340074D01*
X0272636Y0340034D01*
X0272593Y0339997D01*
X0272547Y0339963D01*
X0272500Y0339933D01*
X0272450Y0339905D01*
X0272398Y0339882D01*
X0272346Y0339861D01*
X0270901Y0339529D02*
X0270794Y0339531D01*
X0270688Y0339536D01*
X0270581Y0339545D01*
X0270475Y0339557D01*
X0270369Y0339572D01*
X0270264Y0339591D01*
X0270160Y0339613D01*
X0270056Y0339639D01*
X0269953Y0339668D01*
X0269852Y0339700D01*
X0269751Y0339736D01*
X0269652Y0339775D01*
X0269553Y0339817D01*
X0269457Y0339862D01*
X0272901Y0336251D02*
X0272899Y0336181D01*
X0272893Y0336111D01*
X0272884Y0336041D01*
X0272870Y0335972D01*
X0272853Y0335904D01*
X0272832Y0335837D01*
X0272808Y0335771D01*
X0272780Y0335707D01*
X0272749Y0335644D01*
X0272714Y0335583D01*
X0272675Y0335524D01*
X0272634Y0335467D01*
X0272590Y0335413D01*
X0272543Y0335361D01*
X0272492Y0335311D01*
X0272440Y0335265D01*
X0272385Y0335221D01*
X0272327Y0335181D01*
X0272268Y0335144D01*
X0272206Y0335110D01*
X0272143Y0335079D01*
X0272078Y0335052D01*
X0272012Y0335029D01*
X0272901Y0336251D02*
X0272899Y0336311D01*
X0272894Y0336372D01*
X0272885Y0336431D01*
X0272872Y0336490D01*
X0272856Y0336549D01*
X0272836Y0336606D01*
X0272813Y0336661D01*
X0272786Y0336716D01*
X0272757Y0336768D01*
X0272724Y0336819D01*
X0272688Y0336868D01*
X0272650Y0336914D01*
X0272608Y0336958D01*
X0272564Y0337000D01*
X0272518Y0337038D01*
X0272469Y0337074D01*
X0272418Y0337107D01*
X0272366Y0337136D01*
X0272311Y0337163D01*
X0272256Y0337186D01*
X0272199Y0337206D01*
X0272140Y0337222D01*
X0272081Y0337235D01*
X0272022Y0337244D01*
X0271961Y0337249D01*
X0271901Y0337251D01*
X0278444Y0325200D02*
X0278526Y0325198D01*
X0278608Y0325192D01*
X0278690Y0325183D01*
X0278771Y0325170D01*
X0278851Y0325153D01*
X0278931Y0325132D01*
X0279009Y0325108D01*
X0279086Y0325080D01*
X0279162Y0325048D01*
X0279237Y0325014D01*
X0279309Y0324975D01*
X0279380Y0324934D01*
X0279449Y0324889D01*
X0279515Y0324841D01*
X0279580Y0324790D01*
X0279642Y0324736D01*
X0279701Y0324679D01*
X0279758Y0324620D01*
X0279812Y0324558D01*
X0279863Y0324493D01*
X0279911Y0324427D01*
X0279956Y0324358D01*
X0279997Y0324287D01*
X0280036Y0324215D01*
X0280071Y0324140D01*
X0280102Y0324064D01*
X0280130Y0323987D01*
X0280154Y0323909D01*
X0280175Y0323829D01*
X0280192Y0323749D01*
X0280205Y0323668D01*
X0280214Y0323586D01*
X0280220Y0323504D01*
X0280222Y0323422D01*
X0280222Y0322311D01*
X0280220Y0322245D01*
X0280214Y0322180D01*
X0280204Y0322114D01*
X0280191Y0322050D01*
X0280174Y0321987D01*
X0280152Y0321924D01*
X0280128Y0321863D01*
X0280099Y0321804D01*
X0280068Y0321746D01*
X0280032Y0321690D01*
X0279994Y0321637D01*
X0279953Y0321586D01*
X0279908Y0321537D01*
X0279861Y0321491D01*
X0279811Y0321448D01*
X0279759Y0321408D01*
X0279704Y0321372D01*
X0279647Y0321338D01*
X0279589Y0321308D01*
X0279529Y0321281D01*
X0279467Y0321259D01*
X0279404Y0321239D01*
X0279340Y0321224D01*
X0279275Y0321212D01*
X0279210Y0321204D01*
X0279144Y0321200D01*
X0279078Y0321200D01*
X0279012Y0321204D01*
X0278947Y0321212D01*
X0278882Y0321224D01*
X0278818Y0321239D01*
X0278755Y0321259D01*
X0278693Y0321281D01*
X0278633Y0321308D01*
X0278575Y0321338D01*
X0278518Y0321372D01*
X0278463Y0321408D01*
X0278411Y0321448D01*
X0278361Y0321491D01*
X0278314Y0321537D01*
X0278269Y0321586D01*
X0278228Y0321637D01*
X0278190Y0321690D01*
X0278154Y0321746D01*
X0278123Y0321804D01*
X0278094Y0321863D01*
X0278070Y0321924D01*
X0278048Y0321987D01*
X0278031Y0322050D01*
X0278018Y0322114D01*
X0278008Y0322180D01*
X0278002Y0322245D01*
X0278000Y0322311D01*
X0278000Y0322533D01*
X0278002Y0322591D01*
X0278008Y0322649D01*
X0278017Y0322706D01*
X0278030Y0322763D01*
X0278047Y0322819D01*
X0278068Y0322873D01*
X0278092Y0322926D01*
X0278119Y0322978D01*
X0278150Y0323027D01*
X0278184Y0323074D01*
X0278221Y0323119D01*
X0278260Y0323162D01*
X0278303Y0323201D01*
X0278348Y0323238D01*
X0278395Y0323272D01*
X0278445Y0323303D01*
X0278496Y0323330D01*
X0278549Y0323354D01*
X0278603Y0323375D01*
X0278659Y0323392D01*
X0278716Y0323405D01*
X0278773Y0323414D01*
X0278831Y0323420D01*
X0278889Y0323422D01*
X0280222Y0323422D01*
X0282449Y0321200D02*
X0283338Y0322978D01*
X0283560Y0322978D02*
X0284671Y0322978D01*
X0283560Y0322978D02*
X0283494Y0322980D01*
X0283429Y0322986D01*
X0283363Y0322996D01*
X0283299Y0323009D01*
X0283236Y0323026D01*
X0283173Y0323048D01*
X0283112Y0323072D01*
X0283053Y0323101D01*
X0282995Y0323132D01*
X0282939Y0323168D01*
X0282886Y0323206D01*
X0282835Y0323247D01*
X0282786Y0323292D01*
X0282740Y0323339D01*
X0282697Y0323389D01*
X0282657Y0323441D01*
X0282621Y0323496D01*
X0282587Y0323553D01*
X0282557Y0323611D01*
X0282530Y0323671D01*
X0282508Y0323733D01*
X0282488Y0323796D01*
X0282473Y0323860D01*
X0282461Y0323925D01*
X0282453Y0323990D01*
X0282449Y0324056D01*
X0282449Y0324122D01*
X0282453Y0324188D01*
X0282461Y0324253D01*
X0282473Y0324318D01*
X0282488Y0324382D01*
X0282508Y0324445D01*
X0282530Y0324507D01*
X0282557Y0324567D01*
X0282587Y0324625D01*
X0282621Y0324682D01*
X0282657Y0324737D01*
X0282697Y0324789D01*
X0282740Y0324839D01*
X0282786Y0324886D01*
X0282835Y0324931D01*
X0282886Y0324972D01*
X0282939Y0325010D01*
X0282995Y0325046D01*
X0283053Y0325077D01*
X0283112Y0325106D01*
X0283173Y0325130D01*
X0283236Y0325152D01*
X0283299Y0325169D01*
X0283363Y0325182D01*
X0283429Y0325192D01*
X0283494Y0325198D01*
X0283560Y0325200D01*
X0284671Y0325200D01*
X0284671Y0321200D01*
X0253700Y0331200D02*
X0253700Y0335200D01*
X0252589Y0335200D01*
X0252523Y0335198D01*
X0252458Y0335192D01*
X0252392Y0335182D01*
X0252328Y0335169D01*
X0252265Y0335152D01*
X0252202Y0335130D01*
X0252141Y0335106D01*
X0252082Y0335077D01*
X0252024Y0335046D01*
X0251968Y0335010D01*
X0251915Y0334972D01*
X0251864Y0334931D01*
X0251815Y0334886D01*
X0251769Y0334839D01*
X0251726Y0334789D01*
X0251686Y0334737D01*
X0251650Y0334682D01*
X0251616Y0334625D01*
X0251586Y0334567D01*
X0251559Y0334507D01*
X0251537Y0334445D01*
X0251517Y0334382D01*
X0251502Y0334318D01*
X0251490Y0334253D01*
X0251482Y0334188D01*
X0251478Y0334122D01*
X0251478Y0334056D01*
X0251482Y0333990D01*
X0251490Y0333925D01*
X0251502Y0333860D01*
X0251517Y0333796D01*
X0251537Y0333733D01*
X0251559Y0333671D01*
X0251586Y0333611D01*
X0251616Y0333553D01*
X0251650Y0333496D01*
X0251686Y0333441D01*
X0251726Y0333389D01*
X0251769Y0333339D01*
X0251815Y0333292D01*
X0251864Y0333247D01*
X0251915Y0333206D01*
X0251968Y0333168D01*
X0252024Y0333132D01*
X0252082Y0333101D01*
X0252141Y0333072D01*
X0252202Y0333048D01*
X0252265Y0333026D01*
X0252328Y0333009D01*
X0252392Y0332996D01*
X0252458Y0332986D01*
X0252523Y0332980D01*
X0252589Y0332978D01*
X0253700Y0332978D01*
X0252367Y0332978D02*
X0251478Y0331200D01*
X0249251Y0331200D02*
X0247917Y0331200D01*
X0247859Y0331202D01*
X0247801Y0331208D01*
X0247744Y0331217D01*
X0247687Y0331230D01*
X0247631Y0331247D01*
X0247577Y0331268D01*
X0247524Y0331292D01*
X0247473Y0331319D01*
X0247423Y0331350D01*
X0247376Y0331384D01*
X0247331Y0331421D01*
X0247288Y0331460D01*
X0247249Y0331503D01*
X0247212Y0331548D01*
X0247178Y0331595D01*
X0247147Y0331644D01*
X0247120Y0331696D01*
X0247096Y0331749D01*
X0247075Y0331803D01*
X0247058Y0331859D01*
X0247045Y0331916D01*
X0247036Y0331973D01*
X0247030Y0332031D01*
X0247028Y0332089D01*
X0247029Y0332089D02*
X0247029Y0332533D01*
X0247028Y0332533D02*
X0247030Y0332591D01*
X0247036Y0332649D01*
X0247045Y0332706D01*
X0247058Y0332763D01*
X0247075Y0332819D01*
X0247096Y0332873D01*
X0247120Y0332926D01*
X0247147Y0332978D01*
X0247178Y0333027D01*
X0247212Y0333074D01*
X0247249Y0333119D01*
X0247288Y0333162D01*
X0247331Y0333201D01*
X0247376Y0333238D01*
X0247423Y0333272D01*
X0247473Y0333303D01*
X0247524Y0333330D01*
X0247577Y0333354D01*
X0247631Y0333375D01*
X0247687Y0333392D01*
X0247744Y0333405D01*
X0247801Y0333414D01*
X0247859Y0333420D01*
X0247917Y0333422D01*
X0249251Y0333422D01*
X0249251Y0335200D01*
X0247029Y0335200D01*
X0246895Y0339400D02*
X0246895Y0341178D01*
X0246229Y0340289D02*
X0248451Y0340289D01*
X0247562Y0343400D01*
X0248340Y0347400D02*
X0249451Y0347400D01*
X0248340Y0347400D02*
X0248274Y0347402D01*
X0248209Y0347408D01*
X0248143Y0347418D01*
X0248079Y0347431D01*
X0248016Y0347448D01*
X0247953Y0347470D01*
X0247892Y0347494D01*
X0247833Y0347523D01*
X0247775Y0347554D01*
X0247719Y0347590D01*
X0247666Y0347628D01*
X0247615Y0347669D01*
X0247566Y0347714D01*
X0247520Y0347761D01*
X0247477Y0347811D01*
X0247437Y0347863D01*
X0247401Y0347918D01*
X0247367Y0347975D01*
X0247337Y0348033D01*
X0247310Y0348093D01*
X0247288Y0348155D01*
X0247268Y0348218D01*
X0247253Y0348282D01*
X0247241Y0348347D01*
X0247233Y0348412D01*
X0247229Y0348478D01*
X0247229Y0348544D01*
X0247233Y0348610D01*
X0247241Y0348675D01*
X0247253Y0348740D01*
X0247268Y0348804D01*
X0247288Y0348867D01*
X0247310Y0348929D01*
X0247337Y0348989D01*
X0247367Y0349047D01*
X0247401Y0349104D01*
X0247437Y0349159D01*
X0247477Y0349211D01*
X0247520Y0349261D01*
X0247566Y0349308D01*
X0247615Y0349353D01*
X0247666Y0349394D01*
X0247719Y0349432D01*
X0247775Y0349468D01*
X0247833Y0349499D01*
X0247892Y0349528D01*
X0247953Y0349552D01*
X0248016Y0349574D01*
X0248079Y0349591D01*
X0248143Y0349604D01*
X0248209Y0349614D01*
X0248274Y0349620D01*
X0248340Y0349622D01*
X0248117Y0349622D02*
X0249006Y0349622D01*
X0248117Y0349622D02*
X0248059Y0349624D01*
X0248001Y0349630D01*
X0247944Y0349639D01*
X0247887Y0349652D01*
X0247831Y0349669D01*
X0247777Y0349690D01*
X0247724Y0349714D01*
X0247673Y0349741D01*
X0247623Y0349772D01*
X0247576Y0349806D01*
X0247531Y0349843D01*
X0247488Y0349882D01*
X0247449Y0349925D01*
X0247412Y0349970D01*
X0247378Y0350017D01*
X0247347Y0350067D01*
X0247320Y0350118D01*
X0247296Y0350171D01*
X0247275Y0350225D01*
X0247258Y0350281D01*
X0247245Y0350338D01*
X0247236Y0350395D01*
X0247230Y0350453D01*
X0247228Y0350511D01*
X0247230Y0350569D01*
X0247236Y0350627D01*
X0247245Y0350684D01*
X0247258Y0350741D01*
X0247275Y0350797D01*
X0247296Y0350851D01*
X0247320Y0350904D01*
X0247347Y0350956D01*
X0247378Y0351005D01*
X0247412Y0351052D01*
X0247449Y0351097D01*
X0247488Y0351140D01*
X0247531Y0351179D01*
X0247576Y0351216D01*
X0247623Y0351250D01*
X0247673Y0351281D01*
X0247724Y0351308D01*
X0247777Y0351332D01*
X0247831Y0351353D01*
X0247887Y0351370D01*
X0247944Y0351383D01*
X0248001Y0351392D01*
X0248059Y0351398D01*
X0248117Y0351400D01*
X0249451Y0351400D01*
X0252789Y0351400D02*
X0253900Y0351400D01*
X0253900Y0347400D01*
X0253900Y0349178D02*
X0252789Y0349178D01*
X0252567Y0349178D02*
X0251678Y0347400D01*
X0252789Y0349178D02*
X0252723Y0349180D01*
X0252658Y0349186D01*
X0252592Y0349196D01*
X0252528Y0349209D01*
X0252465Y0349226D01*
X0252402Y0349248D01*
X0252341Y0349272D01*
X0252282Y0349301D01*
X0252224Y0349332D01*
X0252168Y0349368D01*
X0252115Y0349406D01*
X0252064Y0349447D01*
X0252015Y0349492D01*
X0251969Y0349539D01*
X0251926Y0349589D01*
X0251886Y0349641D01*
X0251850Y0349696D01*
X0251816Y0349753D01*
X0251786Y0349811D01*
X0251759Y0349871D01*
X0251737Y0349933D01*
X0251717Y0349996D01*
X0251702Y0350060D01*
X0251690Y0350125D01*
X0251682Y0350190D01*
X0251678Y0350256D01*
X0251678Y0350322D01*
X0251682Y0350388D01*
X0251690Y0350453D01*
X0251702Y0350518D01*
X0251717Y0350582D01*
X0251737Y0350645D01*
X0251759Y0350707D01*
X0251786Y0350767D01*
X0251816Y0350825D01*
X0251850Y0350882D01*
X0251886Y0350937D01*
X0251926Y0350989D01*
X0251969Y0351039D01*
X0252015Y0351086D01*
X0252064Y0351131D01*
X0252115Y0351172D01*
X0252168Y0351210D01*
X0252224Y0351246D01*
X0252282Y0351277D01*
X0252341Y0351306D01*
X0252402Y0351330D01*
X0252465Y0351352D01*
X0252528Y0351369D01*
X0252592Y0351382D01*
X0252658Y0351392D01*
X0252723Y0351398D01*
X0252789Y0351400D01*
X0253900Y0355500D02*
X0253900Y0359500D01*
X0252789Y0359500D01*
X0252723Y0359498D01*
X0252658Y0359492D01*
X0252592Y0359482D01*
X0252528Y0359469D01*
X0252465Y0359452D01*
X0252402Y0359430D01*
X0252341Y0359406D01*
X0252282Y0359377D01*
X0252224Y0359346D01*
X0252168Y0359310D01*
X0252115Y0359272D01*
X0252064Y0359231D01*
X0252015Y0359186D01*
X0251969Y0359139D01*
X0251926Y0359089D01*
X0251886Y0359037D01*
X0251850Y0358982D01*
X0251816Y0358925D01*
X0251786Y0358867D01*
X0251759Y0358807D01*
X0251737Y0358745D01*
X0251717Y0358682D01*
X0251702Y0358618D01*
X0251690Y0358553D01*
X0251682Y0358488D01*
X0251678Y0358422D01*
X0251678Y0358356D01*
X0251682Y0358290D01*
X0251690Y0358225D01*
X0251702Y0358160D01*
X0251717Y0358096D01*
X0251737Y0358033D01*
X0251759Y0357971D01*
X0251786Y0357911D01*
X0251816Y0357853D01*
X0251850Y0357796D01*
X0251886Y0357741D01*
X0251926Y0357689D01*
X0251969Y0357639D01*
X0252015Y0357592D01*
X0252064Y0357547D01*
X0252115Y0357506D01*
X0252168Y0357468D01*
X0252224Y0357432D01*
X0252282Y0357401D01*
X0252341Y0357372D01*
X0252402Y0357348D01*
X0252465Y0357326D01*
X0252528Y0357309D01*
X0252592Y0357296D01*
X0252658Y0357286D01*
X0252723Y0357280D01*
X0252789Y0357278D01*
X0253900Y0357278D01*
X0252567Y0357278D02*
X0251678Y0355500D01*
X0249451Y0355500D02*
X0247229Y0355500D01*
X0249451Y0355500D02*
X0247562Y0357722D01*
X0248229Y0359500D02*
X0248299Y0359498D01*
X0248369Y0359492D01*
X0248439Y0359483D01*
X0248508Y0359469D01*
X0248576Y0359452D01*
X0248643Y0359431D01*
X0248709Y0359407D01*
X0248773Y0359379D01*
X0248836Y0359348D01*
X0248897Y0359313D01*
X0248956Y0359274D01*
X0249013Y0359233D01*
X0249067Y0359189D01*
X0249119Y0359142D01*
X0249169Y0359091D01*
X0249215Y0359039D01*
X0249259Y0358984D01*
X0249299Y0358926D01*
X0249336Y0358867D01*
X0249370Y0358805D01*
X0249401Y0358742D01*
X0249428Y0358677D01*
X0249451Y0358611D01*
X0247562Y0357722D02*
X0247519Y0357766D01*
X0247477Y0357813D01*
X0247439Y0357862D01*
X0247404Y0357913D01*
X0247371Y0357966D01*
X0247342Y0358021D01*
X0247316Y0358077D01*
X0247293Y0358135D01*
X0247274Y0358194D01*
X0247258Y0358254D01*
X0247245Y0358315D01*
X0247236Y0358376D01*
X0247231Y0358438D01*
X0247229Y0358500D01*
X0247231Y0358560D01*
X0247236Y0358621D01*
X0247245Y0358680D01*
X0247258Y0358739D01*
X0247274Y0358798D01*
X0247294Y0358855D01*
X0247317Y0358910D01*
X0247344Y0358965D01*
X0247373Y0359017D01*
X0247406Y0359068D01*
X0247442Y0359117D01*
X0247480Y0359163D01*
X0247522Y0359207D01*
X0247566Y0359249D01*
X0247612Y0359287D01*
X0247661Y0359323D01*
X0247712Y0359356D01*
X0247764Y0359385D01*
X0247819Y0359412D01*
X0247874Y0359435D01*
X0247931Y0359455D01*
X0247990Y0359471D01*
X0248049Y0359484D01*
X0248108Y0359493D01*
X0248169Y0359498D01*
X0248229Y0359500D01*
X0247940Y0363300D02*
X0247940Y0367300D01*
X0249051Y0366411D01*
X0249051Y0363300D02*
X0246829Y0363300D01*
X0251278Y0363300D02*
X0252167Y0365078D01*
X0252389Y0365078D02*
X0253500Y0365078D01*
X0252389Y0365078D02*
X0252323Y0365080D01*
X0252258Y0365086D01*
X0252192Y0365096D01*
X0252128Y0365109D01*
X0252065Y0365126D01*
X0252002Y0365148D01*
X0251941Y0365172D01*
X0251882Y0365201D01*
X0251824Y0365232D01*
X0251768Y0365268D01*
X0251715Y0365306D01*
X0251664Y0365347D01*
X0251615Y0365392D01*
X0251569Y0365439D01*
X0251526Y0365489D01*
X0251486Y0365541D01*
X0251450Y0365596D01*
X0251416Y0365653D01*
X0251386Y0365711D01*
X0251359Y0365771D01*
X0251337Y0365833D01*
X0251317Y0365896D01*
X0251302Y0365960D01*
X0251290Y0366025D01*
X0251282Y0366090D01*
X0251278Y0366156D01*
X0251278Y0366222D01*
X0251282Y0366288D01*
X0251290Y0366353D01*
X0251302Y0366418D01*
X0251317Y0366482D01*
X0251337Y0366545D01*
X0251359Y0366607D01*
X0251386Y0366667D01*
X0251416Y0366725D01*
X0251450Y0366782D01*
X0251486Y0366837D01*
X0251526Y0366889D01*
X0251569Y0366939D01*
X0251615Y0366986D01*
X0251664Y0367031D01*
X0251715Y0367072D01*
X0251768Y0367110D01*
X0251824Y0367146D01*
X0251882Y0367177D01*
X0251941Y0367206D01*
X0252002Y0367230D01*
X0252065Y0367252D01*
X0252128Y0367269D01*
X0252192Y0367282D01*
X0252258Y0367292D01*
X0252323Y0367298D01*
X0252389Y0367300D01*
X0253500Y0367300D01*
X0253500Y0363300D01*
X0255989Y0378715D02*
X0258211Y0378715D01*
X0256322Y0380937D01*
X0256989Y0382715D02*
X0257059Y0382713D01*
X0257129Y0382707D01*
X0257199Y0382698D01*
X0257268Y0382684D01*
X0257336Y0382667D01*
X0257403Y0382646D01*
X0257469Y0382622D01*
X0257533Y0382594D01*
X0257596Y0382563D01*
X0257657Y0382528D01*
X0257716Y0382489D01*
X0257773Y0382448D01*
X0257827Y0382404D01*
X0257879Y0382357D01*
X0257929Y0382306D01*
X0257975Y0382254D01*
X0258019Y0382199D01*
X0258059Y0382141D01*
X0258096Y0382082D01*
X0258130Y0382020D01*
X0258161Y0381957D01*
X0258188Y0381892D01*
X0258211Y0381826D01*
X0256322Y0380937D02*
X0256279Y0380981D01*
X0256237Y0381028D01*
X0256199Y0381077D01*
X0256164Y0381128D01*
X0256131Y0381181D01*
X0256102Y0381236D01*
X0256076Y0381292D01*
X0256053Y0381350D01*
X0256034Y0381409D01*
X0256018Y0381469D01*
X0256005Y0381530D01*
X0255996Y0381591D01*
X0255991Y0381653D01*
X0255989Y0381715D01*
X0255991Y0381775D01*
X0255996Y0381836D01*
X0256005Y0381895D01*
X0256018Y0381954D01*
X0256034Y0382013D01*
X0256054Y0382070D01*
X0256077Y0382125D01*
X0256104Y0382180D01*
X0256133Y0382232D01*
X0256166Y0382283D01*
X0256202Y0382332D01*
X0256240Y0382378D01*
X0256282Y0382422D01*
X0256326Y0382464D01*
X0256372Y0382502D01*
X0256421Y0382538D01*
X0256472Y0382571D01*
X0256524Y0382600D01*
X0256579Y0382627D01*
X0256634Y0382650D01*
X0256691Y0382670D01*
X0256750Y0382686D01*
X0256809Y0382699D01*
X0256868Y0382708D01*
X0256929Y0382713D01*
X0256989Y0382715D01*
X0260206Y0382715D02*
X0261095Y0382715D01*
X0261153Y0382713D01*
X0261211Y0382707D01*
X0261268Y0382698D01*
X0261325Y0382685D01*
X0261381Y0382668D01*
X0261435Y0382647D01*
X0261488Y0382623D01*
X0261540Y0382596D01*
X0261589Y0382565D01*
X0261636Y0382531D01*
X0261681Y0382494D01*
X0261724Y0382455D01*
X0261763Y0382412D01*
X0261800Y0382367D01*
X0261834Y0382320D01*
X0261865Y0382271D01*
X0261892Y0382219D01*
X0261916Y0382166D01*
X0261937Y0382112D01*
X0261954Y0382056D01*
X0261967Y0381999D01*
X0261976Y0381942D01*
X0261982Y0381884D01*
X0261984Y0381826D01*
X0261984Y0379604D01*
X0261982Y0379546D01*
X0261976Y0379488D01*
X0261967Y0379431D01*
X0261954Y0379374D01*
X0261937Y0379318D01*
X0261916Y0379264D01*
X0261892Y0379211D01*
X0261865Y0379160D01*
X0261834Y0379110D01*
X0261800Y0379063D01*
X0261763Y0379018D01*
X0261724Y0378975D01*
X0261681Y0378936D01*
X0261636Y0378899D01*
X0261589Y0378865D01*
X0261540Y0378834D01*
X0261488Y0378807D01*
X0261435Y0378783D01*
X0261381Y0378762D01*
X0261325Y0378745D01*
X0261268Y0378732D01*
X0261211Y0378723D01*
X0261153Y0378717D01*
X0261095Y0378715D01*
X0260206Y0378715D01*
X0287000Y0374895D02*
X0287000Y0372673D01*
X0287000Y0373784D02*
X0291000Y0373784D01*
X0290111Y0372673D01*
X0291000Y0370678D02*
X0291000Y0369789D01*
X0290998Y0369731D01*
X0290992Y0369673D01*
X0290983Y0369616D01*
X0290970Y0369559D01*
X0290953Y0369503D01*
X0290932Y0369449D01*
X0290908Y0369396D01*
X0290881Y0369344D01*
X0290850Y0369295D01*
X0290816Y0369248D01*
X0290779Y0369203D01*
X0290740Y0369160D01*
X0290697Y0369121D01*
X0290652Y0369084D01*
X0290605Y0369050D01*
X0290555Y0369019D01*
X0290504Y0368992D01*
X0290451Y0368968D01*
X0290397Y0368947D01*
X0290341Y0368930D01*
X0290284Y0368917D01*
X0290227Y0368908D01*
X0290169Y0368902D01*
X0290111Y0368900D01*
X0287889Y0368900D01*
X0287831Y0368902D01*
X0287773Y0368908D01*
X0287716Y0368917D01*
X0287659Y0368930D01*
X0287603Y0368947D01*
X0287549Y0368968D01*
X0287496Y0368992D01*
X0287445Y0369019D01*
X0287395Y0369050D01*
X0287348Y0369084D01*
X0287303Y0369121D01*
X0287260Y0369160D01*
X0287221Y0369203D01*
X0287184Y0369248D01*
X0287150Y0369295D01*
X0287119Y0369345D01*
X0287092Y0369396D01*
X0287068Y0369449D01*
X0287047Y0369503D01*
X0287030Y0369559D01*
X0287017Y0369616D01*
X0287008Y0369673D01*
X0287002Y0369731D01*
X0287000Y0369789D01*
X0287000Y0370678D01*
X0294296Y0375216D02*
X0297719Y0372866D01*
X0300276Y0375012D02*
X0299814Y0376945D01*
X0299984Y0377088D02*
X0300835Y0377802D01*
X0299984Y0377088D02*
X0299932Y0377047D01*
X0299878Y0377009D01*
X0299822Y0376975D01*
X0299764Y0376944D01*
X0299704Y0376916D01*
X0299643Y0376893D01*
X0299580Y0376872D01*
X0299517Y0376856D01*
X0299452Y0376843D01*
X0299387Y0376834D01*
X0299321Y0376829D01*
X0299255Y0376828D01*
X0299190Y0376831D01*
X0299124Y0376838D01*
X0299059Y0376848D01*
X0298995Y0376863D01*
X0298932Y0376881D01*
X0298869Y0376903D01*
X0298809Y0376928D01*
X0298750Y0376957D01*
X0298692Y0376990D01*
X0298637Y0377026D01*
X0298584Y0377065D01*
X0298534Y0377107D01*
X0298486Y0377152D01*
X0298440Y0377200D01*
X0298398Y0377250D01*
X0298359Y0377303D01*
X0298323Y0377358D01*
X0298290Y0377415D01*
X0298261Y0377474D01*
X0298235Y0377535D01*
X0298213Y0377597D01*
X0298195Y0377660D01*
X0298180Y0377724D01*
X0298169Y0377789D01*
X0298162Y0377855D01*
X0298159Y0377921D01*
X0298160Y0377987D01*
X0298165Y0378052D01*
X0298173Y0378117D01*
X0298186Y0378182D01*
X0298202Y0378246D01*
X0298222Y0378309D01*
X0298246Y0378370D01*
X0298273Y0378430D01*
X0298304Y0378488D01*
X0298338Y0378544D01*
X0298376Y0378599D01*
X0298417Y0378650D01*
X0298460Y0378700D01*
X0298507Y0378746D01*
X0298556Y0378790D01*
X0299407Y0379505D01*
X0301978Y0376440D01*
X0296284Y0376304D02*
X0295999Y0376645D01*
X0294296Y0375216D01*
X0316691Y0351302D02*
X0316644Y0351260D01*
X0316600Y0351215D01*
X0316559Y0351168D01*
X0316521Y0351118D01*
X0316486Y0351066D01*
X0316454Y0351012D01*
X0316426Y0350955D01*
X0316402Y0350898D01*
X0316381Y0350838D01*
X0316364Y0350778D01*
X0316350Y0350717D01*
X0316341Y0350654D01*
X0316336Y0350592D01*
X0316334Y0350529D01*
X0316336Y0350466D01*
X0316343Y0350404D01*
X0316353Y0350342D01*
X0316367Y0350281D01*
X0316385Y0350220D01*
X0316407Y0350161D01*
X0316432Y0350104D01*
X0316461Y0350048D01*
X0316493Y0349994D01*
X0316529Y0349943D01*
X0316568Y0349893D01*
X0317323Y0349512D02*
X0320199Y0349024D01*
X0318496Y0347595D01*
X0318199Y0351407D02*
X0318138Y0351443D01*
X0318076Y0351475D01*
X0318012Y0351504D01*
X0317946Y0351529D01*
X0317880Y0351551D01*
X0317812Y0351569D01*
X0317743Y0351583D01*
X0317673Y0351593D01*
X0317604Y0351600D01*
X0317533Y0351603D01*
X0317463Y0351602D01*
X0317393Y0351597D01*
X0317323Y0351588D01*
X0317254Y0351576D01*
X0317186Y0351560D01*
X0317118Y0351540D01*
X0317052Y0351516D01*
X0316987Y0351489D01*
X0316924Y0351458D01*
X0316863Y0351424D01*
X0316803Y0351387D01*
X0316746Y0351346D01*
X0316691Y0351302D01*
X0316568Y0349894D02*
X0316610Y0349847D01*
X0316653Y0349803D01*
X0316700Y0349762D01*
X0316749Y0349723D01*
X0316799Y0349688D01*
X0316852Y0349655D01*
X0316907Y0349625D01*
X0316963Y0349599D01*
X0317021Y0349576D01*
X0317080Y0349556D01*
X0317139Y0349540D01*
X0317200Y0349527D01*
X0317262Y0349518D01*
X0317324Y0349512D01*
X0321098Y0351954D02*
X0321605Y0353250D01*
X0320194Y0354240D02*
X0320137Y0354190D01*
X0320081Y0354137D01*
X0320029Y0354081D01*
X0319979Y0354023D01*
X0319932Y0353963D01*
X0319887Y0353900D01*
X0319845Y0353836D01*
X0319807Y0353770D01*
X0319771Y0353702D01*
X0319739Y0353633D01*
X0319710Y0353562D01*
X0319684Y0353490D01*
X0319662Y0353417D01*
X0319643Y0353342D01*
X0321605Y0353250D02*
X0321623Y0353306D01*
X0321637Y0353362D01*
X0321647Y0353420D01*
X0321654Y0353478D01*
X0321657Y0353537D01*
X0321656Y0353595D01*
X0321651Y0353654D01*
X0321643Y0353712D01*
X0321630Y0353769D01*
X0321614Y0353825D01*
X0321595Y0353881D01*
X0321572Y0353934D01*
X0321545Y0353987D01*
X0321515Y0354037D01*
X0321482Y0354085D01*
X0321446Y0354131D01*
X0321407Y0354175D01*
X0321366Y0354215D01*
X0321321Y0354253D01*
X0321275Y0354288D01*
X0321226Y0354320D01*
X0321175Y0354349D01*
X0321123Y0354374D01*
X0321069Y0354395D01*
X0321014Y0354413D01*
X0320957Y0354428D01*
X0320900Y0354439D01*
X0320842Y0354446D01*
X0320784Y0354449D01*
X0320726Y0354448D01*
X0320668Y0354444D01*
X0320611Y0354435D01*
X0320554Y0354424D01*
X0320498Y0354408D01*
X0320443Y0354389D01*
X0320389Y0354366D01*
X0320337Y0354339D01*
X0320287Y0354310D01*
X0320239Y0354277D01*
X0320194Y0354241D01*
X0323174Y0352245D02*
X0323165Y0352163D01*
X0323153Y0352082D01*
X0323137Y0352001D01*
X0323118Y0351921D01*
X0323095Y0351842D01*
X0323069Y0351764D01*
X0323039Y0351687D01*
X0323006Y0351611D01*
X0322970Y0351537D01*
X0322930Y0351465D01*
X0322888Y0351395D01*
X0322842Y0351326D01*
X0322793Y0351259D01*
X0322742Y0351195D01*
X0322687Y0351133D01*
X0322631Y0351074D01*
X0322571Y0351017D01*
X0322509Y0350962D01*
X0322509Y0350963D02*
X0322464Y0350927D01*
X0322416Y0350894D01*
X0322366Y0350865D01*
X0322314Y0350838D01*
X0322260Y0350815D01*
X0322205Y0350796D01*
X0322149Y0350780D01*
X0322092Y0350769D01*
X0322035Y0350760D01*
X0321977Y0350756D01*
X0321919Y0350755D01*
X0321861Y0350758D01*
X0321803Y0350765D01*
X0321746Y0350776D01*
X0321689Y0350791D01*
X0321634Y0350809D01*
X0321580Y0350830D01*
X0321528Y0350855D01*
X0321477Y0350884D01*
X0321428Y0350916D01*
X0321382Y0350951D01*
X0321337Y0350989D01*
X0321296Y0351029D01*
X0321257Y0351073D01*
X0321257Y0351072D02*
X0321221Y0351118D01*
X0321188Y0351166D01*
X0321158Y0351216D01*
X0321131Y0351269D01*
X0321108Y0351322D01*
X0321089Y0351378D01*
X0321073Y0351434D01*
X0321060Y0351491D01*
X0321052Y0351549D01*
X0321047Y0351608D01*
X0321046Y0351666D01*
X0321049Y0351725D01*
X0321056Y0351783D01*
X0321066Y0351841D01*
X0321080Y0351897D01*
X0321098Y0351953D01*
X0252900Y0343400D02*
X0252900Y0339400D01*
X0252900Y0341178D02*
X0251789Y0341178D01*
X0251567Y0341178D02*
X0250678Y0339400D01*
X0251789Y0341178D02*
X0251723Y0341180D01*
X0251658Y0341186D01*
X0251592Y0341196D01*
X0251528Y0341209D01*
X0251465Y0341226D01*
X0251402Y0341248D01*
X0251341Y0341272D01*
X0251282Y0341301D01*
X0251224Y0341332D01*
X0251168Y0341368D01*
X0251115Y0341406D01*
X0251064Y0341447D01*
X0251015Y0341492D01*
X0250969Y0341539D01*
X0250926Y0341589D01*
X0250886Y0341641D01*
X0250850Y0341696D01*
X0250816Y0341753D01*
X0250786Y0341811D01*
X0250759Y0341871D01*
X0250737Y0341933D01*
X0250717Y0341996D01*
X0250702Y0342060D01*
X0250690Y0342125D01*
X0250682Y0342190D01*
X0250678Y0342256D01*
X0250678Y0342322D01*
X0250682Y0342388D01*
X0250690Y0342453D01*
X0250702Y0342518D01*
X0250717Y0342582D01*
X0250737Y0342645D01*
X0250759Y0342707D01*
X0250786Y0342767D01*
X0250816Y0342825D01*
X0250850Y0342882D01*
X0250886Y0342937D01*
X0250926Y0342989D01*
X0250969Y0343039D01*
X0251015Y0343086D01*
X0251064Y0343131D01*
X0251115Y0343172D01*
X0251168Y0343210D01*
X0251224Y0343246D01*
X0251282Y0343277D01*
X0251341Y0343306D01*
X0251402Y0343330D01*
X0251465Y0343352D01*
X0251528Y0343369D01*
X0251592Y0343382D01*
X0251658Y0343392D01*
X0251723Y0343398D01*
X0251789Y0343400D01*
X0252900Y0343400D01*
X0184072Y0284546D02*
X0185215Y0283184D01*
X0182150Y0280613D01*
X0181008Y0281975D01*
X0182996Y0283063D02*
X0183853Y0282042D01*
X0186882Y0281198D02*
X0183817Y0278627D01*
X0188310Y0279495D01*
X0185246Y0276924D01*
X0183706Y0273314D02*
X0181153Y0271171D01*
X0181113Y0271140D01*
X0181072Y0271113D01*
X0181028Y0271088D01*
X0180983Y0271067D01*
X0180936Y0271050D01*
X0180889Y0271036D01*
X0180840Y0271025D01*
X0180790Y0271018D01*
X0180741Y0271015D01*
X0180691Y0271016D01*
X0180641Y0271020D01*
X0180592Y0271028D01*
X0180543Y0271040D01*
X0180496Y0271055D01*
X0180450Y0271074D01*
X0180405Y0271096D01*
X0180362Y0271122D01*
X0180321Y0271150D01*
X0180283Y0271182D01*
X0180247Y0271216D01*
X0180213Y0271253D01*
X0178620Y0273153D02*
X0177977Y0273919D01*
X0179509Y0275205D01*
X0179168Y0274919D02*
X0179811Y0274153D01*
X0179508Y0275205D02*
X0179548Y0275236D01*
X0179589Y0275263D01*
X0179633Y0275288D01*
X0179678Y0275309D01*
X0179725Y0275326D01*
X0179772Y0275340D01*
X0179821Y0275351D01*
X0179871Y0275358D01*
X0179920Y0275361D01*
X0179970Y0275360D01*
X0180020Y0275356D01*
X0180069Y0275348D01*
X0180118Y0275336D01*
X0180165Y0275321D01*
X0180211Y0275302D01*
X0180256Y0275280D01*
X0180299Y0275254D01*
X0180340Y0275226D01*
X0180378Y0275194D01*
X0180414Y0275160D01*
X0180448Y0275123D01*
X0181019Y0274442D01*
X0179811Y0274153D02*
X0179844Y0274110D01*
X0179875Y0274065D01*
X0179902Y0274018D01*
X0179926Y0273969D01*
X0179946Y0273919D01*
X0179963Y0273867D01*
X0179976Y0273815D01*
X0179985Y0273761D01*
X0179991Y0273707D01*
X0179993Y0273653D01*
X0179991Y0273599D01*
X0179985Y0273545D01*
X0179976Y0273491D01*
X0179963Y0273439D01*
X0179946Y0273387D01*
X0179926Y0273337D01*
X0179902Y0273288D01*
X0179875Y0273241D01*
X0179844Y0273196D01*
X0179811Y0273153D01*
X0179775Y0273113D01*
X0179736Y0273075D01*
X0179694Y0273040D01*
X0179650Y0273008D01*
X0179604Y0272979D01*
X0179556Y0272954D01*
X0179506Y0272932D01*
X0179455Y0272913D01*
X0179403Y0272898D01*
X0179350Y0272887D01*
X0179296Y0272879D01*
X0179242Y0272875D01*
X0179188Y0272875D01*
X0179134Y0272879D01*
X0179080Y0272887D01*
X0179027Y0272898D01*
X0178975Y0272913D01*
X0178924Y0272932D01*
X0178874Y0272954D01*
X0178826Y0272979D01*
X0178780Y0273008D01*
X0178736Y0273040D01*
X0178694Y0273075D01*
X0178655Y0273113D01*
X0178619Y0273153D01*
X0176999Y0276122D02*
X0179552Y0278264D01*
X0178817Y0277067D02*
X0177960Y0278088D01*
X0176999Y0276121D02*
X0176959Y0276090D01*
X0176918Y0276063D01*
X0176874Y0276038D01*
X0176829Y0276017D01*
X0176782Y0276000D01*
X0176735Y0275986D01*
X0176686Y0275975D01*
X0176636Y0275968D01*
X0176587Y0275965D01*
X0176537Y0275966D01*
X0176487Y0275970D01*
X0176438Y0275978D01*
X0176389Y0275990D01*
X0176342Y0276005D01*
X0176296Y0276024D01*
X0176251Y0276046D01*
X0176208Y0276072D01*
X0176167Y0276100D01*
X0176129Y0276132D01*
X0176093Y0276166D01*
X0176059Y0276203D01*
X0176060Y0276204D02*
X0175917Y0276374D01*
X0174592Y0281583D02*
X0173296Y0282090D01*
X0172304Y0280679D02*
X0172359Y0280617D01*
X0172416Y0280557D01*
X0172475Y0280501D01*
X0172537Y0280446D01*
X0172601Y0280395D01*
X0172668Y0280346D01*
X0172737Y0280300D01*
X0172807Y0280258D01*
X0172879Y0280218D01*
X0172953Y0280182D01*
X0173029Y0280149D01*
X0173106Y0280119D01*
X0173184Y0280093D01*
X0173263Y0280070D01*
X0173343Y0280051D01*
X0173424Y0280035D01*
X0173505Y0280023D01*
X0173587Y0280014D01*
X0173296Y0282090D02*
X0173240Y0282108D01*
X0173184Y0282122D01*
X0173126Y0282132D01*
X0173068Y0282139D01*
X0173009Y0282142D01*
X0172951Y0282141D01*
X0172892Y0282136D01*
X0172834Y0282128D01*
X0172777Y0282115D01*
X0172721Y0282099D01*
X0172665Y0282080D01*
X0172612Y0282057D01*
X0172559Y0282030D01*
X0172509Y0282000D01*
X0172461Y0281967D01*
X0172415Y0281931D01*
X0172371Y0281892D01*
X0172331Y0281851D01*
X0172293Y0281806D01*
X0172258Y0281760D01*
X0172226Y0281711D01*
X0172197Y0281660D01*
X0172172Y0281608D01*
X0172151Y0281554D01*
X0172133Y0281499D01*
X0172118Y0281442D01*
X0172107Y0281385D01*
X0172100Y0281327D01*
X0172097Y0281269D01*
X0172098Y0281211D01*
X0172102Y0281153D01*
X0172111Y0281096D01*
X0172122Y0281039D01*
X0172138Y0280983D01*
X0172157Y0280928D01*
X0172180Y0280874D01*
X0172207Y0280822D01*
X0172236Y0280772D01*
X0172269Y0280724D01*
X0172305Y0280679D01*
X0174686Y0283546D02*
X0174760Y0283527D01*
X0174833Y0283505D01*
X0174905Y0283479D01*
X0174976Y0283450D01*
X0175046Y0283417D01*
X0175113Y0283382D01*
X0175180Y0283343D01*
X0175244Y0283302D01*
X0175306Y0283257D01*
X0175367Y0283210D01*
X0175425Y0283160D01*
X0175480Y0283107D01*
X0175533Y0283052D01*
X0175584Y0282995D01*
X0175583Y0282994D02*
X0175619Y0282949D01*
X0175652Y0282901D01*
X0175681Y0282851D01*
X0175708Y0282799D01*
X0175731Y0282745D01*
X0175750Y0282690D01*
X0175766Y0282634D01*
X0175777Y0282577D01*
X0175786Y0282520D01*
X0175790Y0282462D01*
X0175791Y0282404D01*
X0175788Y0282346D01*
X0175781Y0282288D01*
X0175770Y0282231D01*
X0175755Y0282174D01*
X0175737Y0282119D01*
X0175716Y0282065D01*
X0175691Y0282013D01*
X0175662Y0281962D01*
X0175630Y0281913D01*
X0175595Y0281867D01*
X0175557Y0281822D01*
X0175517Y0281781D01*
X0175473Y0281742D01*
X0175427Y0281706D01*
X0175379Y0281673D01*
X0175329Y0281643D01*
X0175276Y0281616D01*
X0175223Y0281593D01*
X0175167Y0281574D01*
X0175111Y0281558D01*
X0175054Y0281545D01*
X0174996Y0281537D01*
X0174937Y0281532D01*
X0174879Y0281531D01*
X0174820Y0281534D01*
X0174762Y0281541D01*
X0174704Y0281551D01*
X0174648Y0281565D01*
X0174592Y0281583D01*
X0172562Y0284521D02*
X0170519Y0282807D01*
X0169796Y0284706D02*
X0170817Y0285563D01*
X0170854Y0285597D01*
X0170888Y0285633D01*
X0170920Y0285671D01*
X0170948Y0285712D01*
X0170974Y0285755D01*
X0170996Y0285800D01*
X0171015Y0285846D01*
X0171030Y0285893D01*
X0171042Y0285942D01*
X0171050Y0285991D01*
X0171054Y0286041D01*
X0171055Y0286091D01*
X0171052Y0286140D01*
X0171045Y0286190D01*
X0171034Y0286239D01*
X0171020Y0286286D01*
X0171003Y0286333D01*
X0170982Y0286378D01*
X0170957Y0286422D01*
X0170930Y0286463D01*
X0170899Y0286503D01*
X0170185Y0287354D01*
X0171206Y0288211D02*
X0168142Y0285640D01*
X0168856Y0284788D01*
X0168890Y0284751D01*
X0168926Y0284717D01*
X0168964Y0284685D01*
X0169005Y0284657D01*
X0169048Y0284631D01*
X0169093Y0284609D01*
X0169139Y0284590D01*
X0169186Y0284575D01*
X0169235Y0284563D01*
X0169284Y0284555D01*
X0169334Y0284551D01*
X0169384Y0284550D01*
X0169433Y0284553D01*
X0169483Y0284560D01*
X0169532Y0284571D01*
X0169579Y0284585D01*
X0169626Y0284602D01*
X0169671Y0284623D01*
X0169715Y0284648D01*
X0169756Y0284675D01*
X0169796Y0284706D01*
X0173342Y0285320D02*
X0173485Y0285150D01*
X0173655Y0285293D01*
X0173512Y0285463D01*
X0173342Y0285320D01*
X0178225Y0285291D02*
X0179082Y0284270D01*
X0179121Y0284226D01*
X0179162Y0284186D01*
X0179207Y0284148D01*
X0179253Y0284113D01*
X0179302Y0284081D01*
X0179353Y0284052D01*
X0179405Y0284027D01*
X0179459Y0284006D01*
X0179514Y0283988D01*
X0179571Y0283973D01*
X0179628Y0283962D01*
X0179686Y0283955D01*
X0179744Y0283952D01*
X0179802Y0283953D01*
X0179860Y0283957D01*
X0179917Y0283966D01*
X0179974Y0283977D01*
X0180030Y0283993D01*
X0180085Y0284012D01*
X0180139Y0284035D01*
X0180191Y0284062D01*
X0180241Y0284091D01*
X0180289Y0284124D01*
X0180334Y0284160D01*
X0180335Y0284160D02*
X0182037Y0285589D01*
X0182036Y0285589D02*
X0182080Y0285628D01*
X0182120Y0285669D01*
X0182158Y0285714D01*
X0182193Y0285760D01*
X0182225Y0285809D01*
X0182254Y0285860D01*
X0182279Y0285912D01*
X0182300Y0285966D01*
X0182318Y0286021D01*
X0182333Y0286078D01*
X0182344Y0286135D01*
X0182351Y0286193D01*
X0182354Y0286251D01*
X0182353Y0286309D01*
X0182349Y0286367D01*
X0182340Y0286424D01*
X0182329Y0286481D01*
X0182313Y0286537D01*
X0182294Y0286592D01*
X0182271Y0286646D01*
X0182244Y0286698D01*
X0182215Y0286748D01*
X0182182Y0286796D01*
X0182146Y0286841D01*
X0181289Y0287862D01*
X0179927Y0286720D02*
X0180356Y0286209D01*
X0179927Y0286720D02*
X0178225Y0285291D01*
X0177806Y0288210D02*
X0176092Y0290253D01*
X0168017Y0288554D02*
X0167166Y0287840D01*
X0167167Y0287840D02*
X0167127Y0287809D01*
X0167086Y0287782D01*
X0167042Y0287757D01*
X0166997Y0287736D01*
X0166950Y0287719D01*
X0166903Y0287705D01*
X0166854Y0287694D01*
X0166804Y0287687D01*
X0166755Y0287684D01*
X0166705Y0287685D01*
X0166655Y0287689D01*
X0166606Y0287697D01*
X0166557Y0287709D01*
X0166510Y0287724D01*
X0166464Y0287743D01*
X0166419Y0287765D01*
X0166376Y0287791D01*
X0166335Y0287819D01*
X0166297Y0287851D01*
X0166261Y0287885D01*
X0166227Y0287922D01*
X0165513Y0288773D01*
X0166534Y0289630D02*
X0167677Y0288268D01*
X0168017Y0288554D02*
X0168061Y0288593D01*
X0168101Y0288634D01*
X0168139Y0288679D01*
X0168174Y0288725D01*
X0168206Y0288774D01*
X0168235Y0288824D01*
X0168260Y0288877D01*
X0168281Y0288931D01*
X0168299Y0288986D01*
X0168314Y0289043D01*
X0168325Y0289100D01*
X0168332Y0289158D01*
X0168335Y0289216D01*
X0168334Y0289274D01*
X0168330Y0289332D01*
X0168321Y0289389D01*
X0168310Y0289446D01*
X0168294Y0289502D01*
X0168275Y0289557D01*
X0168252Y0289611D01*
X0168225Y0289663D01*
X0168196Y0289713D01*
X0168163Y0289761D01*
X0168127Y0289806D01*
X0168088Y0289850D01*
X0168047Y0289890D01*
X0168002Y0289928D01*
X0167956Y0289963D01*
X0167907Y0289995D01*
X0167856Y0290024D01*
X0167804Y0290049D01*
X0167750Y0290070D01*
X0167695Y0290088D01*
X0167638Y0290103D01*
X0167581Y0290114D01*
X0167523Y0290121D01*
X0167465Y0290124D01*
X0167407Y0290123D01*
X0167349Y0290119D01*
X0167292Y0290110D01*
X0167235Y0290099D01*
X0167179Y0290083D01*
X0167124Y0290064D01*
X0167070Y0290041D01*
X0167018Y0290014D01*
X0166968Y0289985D01*
X0166920Y0289952D01*
X0166875Y0289916D01*
X0166534Y0289630D01*
X0163921Y0289978D02*
X0163944Y0290097D01*
X0163971Y0290214D01*
X0164001Y0290331D01*
X0164035Y0290447D01*
X0164073Y0290562D01*
X0164114Y0290675D01*
X0164159Y0290787D01*
X0164208Y0290897D01*
X0164259Y0291006D01*
X0164315Y0291114D01*
X0164373Y0291219D01*
X0164435Y0291322D01*
X0164501Y0291424D01*
X0164569Y0291523D01*
X0164641Y0291621D01*
X0164715Y0291715D01*
X0164793Y0291808D01*
X0164873Y0291898D01*
X0164957Y0291985D01*
X0165043Y0292070D01*
X0165131Y0292152D01*
X0165223Y0292231D01*
X0165316Y0292307D01*
X0165412Y0292380D01*
X0165511Y0292450D01*
X0165611Y0292517D01*
X0165714Y0292580D01*
X0165818Y0292641D01*
X0165924Y0292698D01*
X0166032Y0292751D01*
X0166142Y0292801D01*
X0166253Y0292848D01*
X0166366Y0292891D01*
X0166480Y0292931D01*
X0166595Y0292966D01*
X0166712Y0292999D01*
X0166829Y0293027D01*
X0166947Y0293052D01*
X0167066Y0293073D01*
X0167185Y0293090D01*
X0167305Y0293104D01*
X0167425Y0293113D01*
X0167546Y0293119D01*
X0167667Y0293121D01*
X0184908Y0271882D02*
X0186051Y0270520D01*
X0182987Y0267949D01*
X0184053Y0265986D02*
X0184174Y0265988D01*
X0184294Y0265994D01*
X0184415Y0266003D01*
X0184534Y0266017D01*
X0184654Y0266034D01*
X0184773Y0266055D01*
X0184891Y0266080D01*
X0185008Y0266108D01*
X0185124Y0266141D01*
X0185239Y0266176D01*
X0185353Y0266216D01*
X0185466Y0266259D01*
X0185577Y0266306D01*
X0185687Y0266356D01*
X0185795Y0266409D01*
X0185902Y0266466D01*
X0186006Y0266527D01*
X0186108Y0266590D01*
X0186209Y0266657D01*
X0186307Y0266727D01*
X0186403Y0266800D01*
X0186497Y0266876D01*
X0184689Y0269377D02*
X0183546Y0270739D01*
X0187799Y0269128D02*
X0187776Y0269009D01*
X0187749Y0268892D01*
X0187719Y0268775D01*
X0187685Y0268659D01*
X0187647Y0268545D01*
X0187606Y0268431D01*
X0187561Y0268319D01*
X0187512Y0268209D01*
X0187461Y0268100D01*
X0187405Y0267992D01*
X0187347Y0267887D01*
X0187285Y0267784D01*
X0187219Y0267682D01*
X0187151Y0267583D01*
X0187079Y0267485D01*
X0187005Y0267391D01*
X0186927Y0267298D01*
X0186847Y0267208D01*
X0186763Y0267121D01*
X0186677Y0267036D01*
X0186589Y0266954D01*
X0186497Y0266875D01*
X0160289Y0266447D02*
X0156697Y0268654D01*
X0158246Y0264733D01*
X0157859Y0265713D02*
X0159391Y0266999D01*
X0156842Y0263554D02*
X0153249Y0265762D01*
X0154799Y0261840D01*
X0154412Y0262821D02*
X0155944Y0264106D01*
X0151182Y0258805D02*
X0148611Y0261869D01*
X0147760Y0261155D01*
X0147716Y0261116D01*
X0147676Y0261075D01*
X0147638Y0261030D01*
X0147603Y0260984D01*
X0147571Y0260935D01*
X0147542Y0260884D01*
X0147517Y0260832D01*
X0147496Y0260778D01*
X0147478Y0260723D01*
X0147463Y0260666D01*
X0147452Y0260609D01*
X0147445Y0260551D01*
X0147442Y0260493D01*
X0147443Y0260435D01*
X0147447Y0260377D01*
X0147456Y0260320D01*
X0147467Y0260263D01*
X0147483Y0260207D01*
X0147502Y0260152D01*
X0147525Y0260098D01*
X0147552Y0260046D01*
X0147581Y0259996D01*
X0147614Y0259948D01*
X0147650Y0259903D01*
X0147689Y0259859D01*
X0147730Y0259819D01*
X0147775Y0259781D01*
X0147821Y0259746D01*
X0147870Y0259714D01*
X0147921Y0259685D01*
X0147973Y0259660D01*
X0148027Y0259639D01*
X0148082Y0259621D01*
X0148139Y0259606D01*
X0148196Y0259595D01*
X0148254Y0259588D01*
X0148312Y0259585D01*
X0148370Y0259586D01*
X0148428Y0259590D01*
X0148485Y0259599D01*
X0148542Y0259610D01*
X0148598Y0259626D01*
X0148653Y0259645D01*
X0148707Y0259668D01*
X0148759Y0259695D01*
X0148809Y0259724D01*
X0148857Y0259757D01*
X0148902Y0259793D01*
X0149753Y0260507D01*
X0148902Y0259793D02*
X0148853Y0259749D01*
X0148806Y0259703D01*
X0148763Y0259653D01*
X0148722Y0259602D01*
X0148684Y0259547D01*
X0148650Y0259491D01*
X0148619Y0259433D01*
X0148592Y0259373D01*
X0148568Y0259312D01*
X0148548Y0259249D01*
X0148532Y0259185D01*
X0148519Y0259120D01*
X0148511Y0259055D01*
X0148506Y0258990D01*
X0148505Y0258924D01*
X0148508Y0258858D01*
X0148515Y0258792D01*
X0148526Y0258727D01*
X0148541Y0258663D01*
X0148559Y0258600D01*
X0148581Y0258538D01*
X0148607Y0258477D01*
X0148636Y0258418D01*
X0148669Y0258361D01*
X0148705Y0258306D01*
X0148744Y0258253D01*
X0148786Y0258203D01*
X0148832Y0258155D01*
X0148880Y0258110D01*
X0148930Y0258068D01*
X0148983Y0258029D01*
X0149038Y0257993D01*
X0149096Y0257960D01*
X0149155Y0257931D01*
X0149215Y0257906D01*
X0149278Y0257884D01*
X0149341Y0257866D01*
X0149405Y0257851D01*
X0149470Y0257841D01*
X0149536Y0257834D01*
X0149601Y0257831D01*
X0149667Y0257832D01*
X0149733Y0257837D01*
X0149798Y0257846D01*
X0149863Y0257859D01*
X0149926Y0257875D01*
X0149989Y0257896D01*
X0150050Y0257919D01*
X0150110Y0257947D01*
X0150168Y0257978D01*
X0150224Y0258012D01*
X0150278Y0258050D01*
X0150330Y0258091D01*
X0150331Y0258091D02*
X0151182Y0258805D01*
X0147434Y0255660D02*
X0146668Y0255017D01*
X0145382Y0256549D01*
X0145668Y0256209D02*
X0146434Y0256852D01*
X0145382Y0256549D02*
X0145351Y0256589D01*
X0145324Y0256630D01*
X0145299Y0256674D01*
X0145278Y0256719D01*
X0145261Y0256766D01*
X0145247Y0256813D01*
X0145236Y0256862D01*
X0145229Y0256912D01*
X0145226Y0256961D01*
X0145227Y0257011D01*
X0145231Y0257061D01*
X0145239Y0257110D01*
X0145251Y0257159D01*
X0145266Y0257206D01*
X0145285Y0257252D01*
X0145307Y0257297D01*
X0145333Y0257340D01*
X0145361Y0257381D01*
X0145393Y0257419D01*
X0145427Y0257455D01*
X0145464Y0257489D01*
X0145464Y0257488D02*
X0146145Y0258060D01*
X0146434Y0256852D02*
X0146477Y0256885D01*
X0146522Y0256916D01*
X0146569Y0256943D01*
X0146618Y0256967D01*
X0146668Y0256987D01*
X0146720Y0257004D01*
X0146772Y0257017D01*
X0146826Y0257026D01*
X0146880Y0257032D01*
X0146934Y0257034D01*
X0146988Y0257032D01*
X0147042Y0257026D01*
X0147096Y0257017D01*
X0147148Y0257004D01*
X0147200Y0256987D01*
X0147250Y0256967D01*
X0147299Y0256943D01*
X0147346Y0256916D01*
X0147391Y0256885D01*
X0147434Y0256852D01*
X0147474Y0256816D01*
X0147512Y0256777D01*
X0147547Y0256735D01*
X0147579Y0256691D01*
X0147608Y0256645D01*
X0147633Y0256597D01*
X0147655Y0256547D01*
X0147674Y0256496D01*
X0147689Y0256444D01*
X0147700Y0256391D01*
X0147708Y0256337D01*
X0147712Y0256283D01*
X0147712Y0256229D01*
X0147708Y0256175D01*
X0147700Y0256121D01*
X0147689Y0256068D01*
X0147674Y0256016D01*
X0147655Y0255965D01*
X0147633Y0255915D01*
X0147608Y0255867D01*
X0147579Y0255821D01*
X0147547Y0255777D01*
X0147512Y0255735D01*
X0147474Y0255696D01*
X0147434Y0255660D01*
X0144465Y0254039D02*
X0142323Y0256593D01*
X0143520Y0255857D02*
X0142499Y0255000D01*
X0141337Y0254025D02*
X0140316Y0253168D01*
X0140139Y0254761D02*
X0142282Y0252207D01*
X0142282Y0252208D02*
X0142313Y0252168D01*
X0142340Y0252127D01*
X0142365Y0252083D01*
X0142386Y0252038D01*
X0142403Y0251991D01*
X0142417Y0251944D01*
X0142428Y0251895D01*
X0142435Y0251845D01*
X0142438Y0251796D01*
X0142437Y0251746D01*
X0142433Y0251696D01*
X0142425Y0251647D01*
X0142413Y0251598D01*
X0142398Y0251551D01*
X0142379Y0251505D01*
X0142357Y0251460D01*
X0142331Y0251417D01*
X0142303Y0251376D01*
X0142271Y0251338D01*
X0142237Y0251302D01*
X0142200Y0251268D01*
X0142030Y0251125D01*
X0140101Y0250377D02*
X0139387Y0251228D01*
X0139673Y0250888D02*
X0138311Y0249745D01*
X0138025Y0250086D01*
X0137989Y0250131D01*
X0137956Y0250179D01*
X0137927Y0250229D01*
X0137900Y0250281D01*
X0137877Y0250335D01*
X0137858Y0250390D01*
X0137842Y0250446D01*
X0137831Y0250503D01*
X0137822Y0250560D01*
X0137818Y0250618D01*
X0137817Y0250676D01*
X0137820Y0250734D01*
X0137827Y0250792D01*
X0137838Y0250849D01*
X0137853Y0250906D01*
X0137871Y0250961D01*
X0137892Y0251015D01*
X0137917Y0251067D01*
X0137946Y0251118D01*
X0137978Y0251167D01*
X0138013Y0251213D01*
X0138051Y0251258D01*
X0138091Y0251299D01*
X0138135Y0251338D01*
X0138180Y0251374D01*
X0138228Y0251407D01*
X0138278Y0251436D01*
X0138330Y0251463D01*
X0138384Y0251486D01*
X0138439Y0251505D01*
X0138495Y0251521D01*
X0138552Y0251532D01*
X0138609Y0251541D01*
X0138667Y0251545D01*
X0138725Y0251546D01*
X0138783Y0251543D01*
X0138841Y0251536D01*
X0138898Y0251525D01*
X0138955Y0251510D01*
X0139010Y0251492D01*
X0139064Y0251471D01*
X0139117Y0251446D01*
X0139167Y0251417D01*
X0139216Y0251385D01*
X0139262Y0251350D01*
X0139307Y0251312D01*
X0139348Y0251272D01*
X0139387Y0251228D01*
X0140101Y0250378D02*
X0140132Y0250338D01*
X0140159Y0250297D01*
X0140184Y0250253D01*
X0140205Y0250208D01*
X0140222Y0250161D01*
X0140236Y0250114D01*
X0140247Y0250065D01*
X0140254Y0250015D01*
X0140257Y0249966D01*
X0140256Y0249916D01*
X0140252Y0249866D01*
X0140244Y0249817D01*
X0140232Y0249768D01*
X0140217Y0249721D01*
X0140198Y0249675D01*
X0140176Y0249630D01*
X0140150Y0249587D01*
X0140122Y0249546D01*
X0140090Y0249508D01*
X0140056Y0249472D01*
X0140019Y0249438D01*
X0139168Y0248724D01*
X0137392Y0247234D02*
X0135678Y0249277D01*
X0134657Y0248420D01*
X0134942Y0248079D01*
X0133530Y0247474D02*
X0134563Y0244860D01*
X0135761Y0244124D02*
X0132168Y0246331D01*
X0135761Y0244124D02*
X0136101Y0244410D01*
X0144213Y0252957D02*
X0144383Y0253100D01*
X0144384Y0253100D02*
X0144421Y0253134D01*
X0144455Y0253170D01*
X0144487Y0253208D01*
X0144515Y0253249D01*
X0144541Y0253292D01*
X0144563Y0253337D01*
X0144582Y0253383D01*
X0144597Y0253430D01*
X0144609Y0253479D01*
X0144617Y0253528D01*
X0144621Y0253578D01*
X0144622Y0253628D01*
X0144619Y0253677D01*
X0144612Y0253727D01*
X0144601Y0253776D01*
X0144587Y0253823D01*
X0144570Y0253870D01*
X0144549Y0253915D01*
X0144524Y0253959D01*
X0144497Y0254000D01*
X0144466Y0254040D01*
X0125635Y0228628D02*
X0126350Y0227776D01*
X0123285Y0225205D01*
X0124647Y0226348D02*
X0123933Y0227199D01*
X0123892Y0227251D01*
X0123854Y0227305D01*
X0123820Y0227361D01*
X0123789Y0227419D01*
X0123761Y0227479D01*
X0123738Y0227540D01*
X0123717Y0227603D01*
X0123701Y0227666D01*
X0123688Y0227731D01*
X0123679Y0227796D01*
X0123674Y0227862D01*
X0123673Y0227928D01*
X0123676Y0227993D01*
X0123683Y0228059D01*
X0123693Y0228124D01*
X0123708Y0228188D01*
X0123726Y0228251D01*
X0123748Y0228314D01*
X0123773Y0228374D01*
X0123802Y0228433D01*
X0123835Y0228491D01*
X0123871Y0228546D01*
X0123910Y0228599D01*
X0123952Y0228649D01*
X0123997Y0228697D01*
X0124045Y0228743D01*
X0124095Y0228785D01*
X0124148Y0228824D01*
X0124203Y0228860D01*
X0124260Y0228893D01*
X0124319Y0228922D01*
X0124380Y0228948D01*
X0124442Y0228970D01*
X0124505Y0228988D01*
X0124569Y0229003D01*
X0124634Y0229014D01*
X0124700Y0229021D01*
X0124766Y0229024D01*
X0124832Y0229023D01*
X0124897Y0229018D01*
X0124962Y0229010D01*
X0125027Y0228997D01*
X0125091Y0228981D01*
X0125154Y0228961D01*
X0125215Y0228937D01*
X0125275Y0228910D01*
X0125333Y0228879D01*
X0125389Y0228845D01*
X0125444Y0228807D01*
X0125495Y0228766D01*
X0125545Y0228723D01*
X0125591Y0228676D01*
X0125635Y0228627D01*
X0122777Y0230305D02*
X0121416Y0229162D01*
X0121415Y0229163D02*
X0121363Y0229122D01*
X0121309Y0229084D01*
X0121253Y0229050D01*
X0121195Y0229019D01*
X0121135Y0228991D01*
X0121074Y0228968D01*
X0121011Y0228947D01*
X0120948Y0228931D01*
X0120883Y0228918D01*
X0120818Y0228909D01*
X0120752Y0228904D01*
X0120686Y0228903D01*
X0120621Y0228906D01*
X0120555Y0228913D01*
X0120490Y0228923D01*
X0120426Y0228938D01*
X0120363Y0228956D01*
X0120300Y0228978D01*
X0120240Y0229003D01*
X0120181Y0229032D01*
X0120123Y0229065D01*
X0120068Y0229101D01*
X0120015Y0229140D01*
X0119965Y0229182D01*
X0119917Y0229227D01*
X0119871Y0229275D01*
X0119829Y0229325D01*
X0119790Y0229378D01*
X0119754Y0229433D01*
X0119721Y0229490D01*
X0119692Y0229549D01*
X0119666Y0229610D01*
X0119644Y0229672D01*
X0119626Y0229735D01*
X0119611Y0229799D01*
X0119600Y0229864D01*
X0119593Y0229930D01*
X0119590Y0229996D01*
X0119591Y0230062D01*
X0119596Y0230127D01*
X0119604Y0230192D01*
X0119617Y0230257D01*
X0119633Y0230321D01*
X0119653Y0230384D01*
X0119677Y0230445D01*
X0119704Y0230505D01*
X0119735Y0230563D01*
X0119769Y0230619D01*
X0119807Y0230674D01*
X0119848Y0230725D01*
X0119891Y0230775D01*
X0119938Y0230821D01*
X0119987Y0230865D01*
X0121349Y0232007D01*
X0121401Y0232048D01*
X0121455Y0232086D01*
X0121511Y0232120D01*
X0121569Y0232151D01*
X0121629Y0232179D01*
X0121690Y0232202D01*
X0121753Y0232223D01*
X0121816Y0232239D01*
X0121881Y0232252D01*
X0121946Y0232261D01*
X0122012Y0232266D01*
X0122078Y0232267D01*
X0122143Y0232264D01*
X0122209Y0232257D01*
X0122274Y0232247D01*
X0122338Y0232232D01*
X0122401Y0232214D01*
X0122464Y0232192D01*
X0122524Y0232167D01*
X0122583Y0232138D01*
X0122641Y0232105D01*
X0122696Y0232069D01*
X0122749Y0232030D01*
X0122799Y0231988D01*
X0122847Y0231943D01*
X0122893Y0231895D01*
X0122935Y0231845D01*
X0122974Y0231792D01*
X0123010Y0231737D01*
X0123043Y0231680D01*
X0123072Y0231621D01*
X0123098Y0231560D01*
X0123120Y0231498D01*
X0123138Y0231435D01*
X0123153Y0231371D01*
X0123164Y0231306D01*
X0123171Y0231240D01*
X0123174Y0231174D01*
X0123173Y0231108D01*
X0123168Y0231043D01*
X0123160Y0230978D01*
X0123147Y0230913D01*
X0123131Y0230849D01*
X0123111Y0230786D01*
X0123087Y0230725D01*
X0123060Y0230665D01*
X0123029Y0230607D01*
X0122995Y0230551D01*
X0122957Y0230496D01*
X0122916Y0230445D01*
X0122873Y0230395D01*
X0122826Y0230349D01*
X0122777Y0230305D01*
X0119199Y0233706D02*
X0117902Y0234214D01*
X0116911Y0232802D02*
X0116966Y0232740D01*
X0117023Y0232680D01*
X0117082Y0232624D01*
X0117144Y0232569D01*
X0117208Y0232518D01*
X0117275Y0232469D01*
X0117344Y0232423D01*
X0117414Y0232381D01*
X0117486Y0232341D01*
X0117560Y0232305D01*
X0117636Y0232272D01*
X0117713Y0232242D01*
X0117791Y0232216D01*
X0117870Y0232193D01*
X0117950Y0232174D01*
X0118031Y0232158D01*
X0118112Y0232146D01*
X0118194Y0232137D01*
X0117902Y0234214D02*
X0117846Y0234232D01*
X0117790Y0234246D01*
X0117732Y0234256D01*
X0117674Y0234263D01*
X0117615Y0234266D01*
X0117557Y0234265D01*
X0117498Y0234260D01*
X0117440Y0234252D01*
X0117383Y0234239D01*
X0117327Y0234223D01*
X0117271Y0234204D01*
X0117218Y0234181D01*
X0117165Y0234154D01*
X0117115Y0234124D01*
X0117067Y0234091D01*
X0117021Y0234055D01*
X0117021Y0234054D02*
X0116977Y0234015D01*
X0116937Y0233974D01*
X0116899Y0233929D01*
X0116864Y0233883D01*
X0116832Y0233834D01*
X0116803Y0233783D01*
X0116778Y0233731D01*
X0116757Y0233677D01*
X0116739Y0233622D01*
X0116724Y0233565D01*
X0116713Y0233508D01*
X0116706Y0233450D01*
X0116703Y0233392D01*
X0116704Y0233334D01*
X0116708Y0233276D01*
X0116717Y0233219D01*
X0116728Y0233162D01*
X0116744Y0233106D01*
X0116763Y0233051D01*
X0116786Y0232997D01*
X0116813Y0232945D01*
X0116842Y0232895D01*
X0116875Y0232847D01*
X0116911Y0232802D01*
X0119292Y0235669D02*
X0119366Y0235650D01*
X0119439Y0235628D01*
X0119511Y0235602D01*
X0119582Y0235573D01*
X0119652Y0235540D01*
X0119719Y0235505D01*
X0119786Y0235466D01*
X0119850Y0235425D01*
X0119912Y0235380D01*
X0119973Y0235333D01*
X0120031Y0235283D01*
X0120086Y0235230D01*
X0120139Y0235175D01*
X0120190Y0235118D01*
X0120190Y0235117D02*
X0120226Y0235072D01*
X0120259Y0235024D01*
X0120288Y0234974D01*
X0120315Y0234922D01*
X0120338Y0234868D01*
X0120357Y0234813D01*
X0120373Y0234757D01*
X0120384Y0234700D01*
X0120393Y0234643D01*
X0120397Y0234585D01*
X0120398Y0234527D01*
X0120395Y0234469D01*
X0120388Y0234411D01*
X0120377Y0234354D01*
X0120362Y0234297D01*
X0120344Y0234242D01*
X0120323Y0234188D01*
X0120298Y0234136D01*
X0120269Y0234085D01*
X0120237Y0234036D01*
X0120202Y0233990D01*
X0120164Y0233945D01*
X0120124Y0233904D01*
X0120080Y0233865D01*
X0120034Y0233829D01*
X0119986Y0233796D01*
X0119936Y0233766D01*
X0119883Y0233739D01*
X0119830Y0233716D01*
X0119774Y0233697D01*
X0119718Y0233681D01*
X0119661Y0233668D01*
X0119603Y0233660D01*
X0119544Y0233655D01*
X0119486Y0233654D01*
X0119427Y0233657D01*
X0119369Y0233664D01*
X0119311Y0233674D01*
X0119255Y0233688D01*
X0119199Y0233706D01*
X0116114Y0236172D02*
X0114400Y0238215D01*
X0114235Y0236337D02*
X0116278Y0238051D01*
X0110695Y0232691D02*
X0108652Y0230977D01*
X0109366Y0230126D01*
X0109366Y0230125D02*
X0109400Y0230088D01*
X0109436Y0230054D01*
X0109474Y0230022D01*
X0109515Y0229994D01*
X0109558Y0229968D01*
X0109603Y0229946D01*
X0109649Y0229927D01*
X0109696Y0229912D01*
X0109745Y0229900D01*
X0109794Y0229892D01*
X0109844Y0229888D01*
X0109894Y0229887D01*
X0109943Y0229890D01*
X0109993Y0229897D01*
X0110042Y0229908D01*
X0110089Y0229922D01*
X0110136Y0229939D01*
X0110181Y0229960D01*
X0110225Y0229985D01*
X0110266Y0230012D01*
X0110306Y0230043D01*
X0110305Y0230044D02*
X0111837Y0231329D01*
X0113550Y0228597D02*
X0114264Y0227745D01*
X0113550Y0228597D02*
X0113514Y0228642D01*
X0113481Y0228690D01*
X0113452Y0228740D01*
X0113425Y0228792D01*
X0113402Y0228846D01*
X0113383Y0228901D01*
X0113367Y0228957D01*
X0113356Y0229014D01*
X0113347Y0229071D01*
X0113343Y0229129D01*
X0113342Y0229187D01*
X0113345Y0229245D01*
X0113352Y0229303D01*
X0113363Y0229360D01*
X0113378Y0229417D01*
X0113396Y0229472D01*
X0113417Y0229526D01*
X0113442Y0229578D01*
X0113471Y0229629D01*
X0113503Y0229678D01*
X0113538Y0229724D01*
X0113576Y0229769D01*
X0113616Y0229810D01*
X0113660Y0229849D01*
X0113705Y0229885D01*
X0113753Y0229918D01*
X0113803Y0229947D01*
X0113855Y0229974D01*
X0113909Y0229997D01*
X0113964Y0230016D01*
X0114020Y0230032D01*
X0114077Y0230043D01*
X0114134Y0230052D01*
X0114192Y0230056D01*
X0114250Y0230057D01*
X0114308Y0230054D01*
X0114366Y0230047D01*
X0114423Y0230036D01*
X0114480Y0230021D01*
X0114535Y0230003D01*
X0114589Y0229982D01*
X0114641Y0229957D01*
X0114692Y0229928D01*
X0114741Y0229896D01*
X0114787Y0229861D01*
X0114832Y0229823D01*
X0114873Y0229783D01*
X0114912Y0229739D01*
X0115626Y0228888D01*
X0112562Y0226317D01*
X0111848Y0227168D01*
X0111807Y0227220D01*
X0111769Y0227274D01*
X0111735Y0227330D01*
X0111704Y0227388D01*
X0111676Y0227448D01*
X0111653Y0227509D01*
X0111632Y0227572D01*
X0111616Y0227635D01*
X0111603Y0227700D01*
X0111594Y0227765D01*
X0111589Y0227831D01*
X0111588Y0227897D01*
X0111591Y0227962D01*
X0111598Y0228028D01*
X0111608Y0228093D01*
X0111623Y0228157D01*
X0111641Y0228220D01*
X0111663Y0228283D01*
X0111688Y0228343D01*
X0111717Y0228402D01*
X0111750Y0228460D01*
X0111786Y0228515D01*
X0111825Y0228568D01*
X0111867Y0228618D01*
X0111912Y0228666D01*
X0111960Y0228712D01*
X0112010Y0228754D01*
X0112063Y0228793D01*
X0112118Y0228829D01*
X0112175Y0228862D01*
X0112234Y0228891D01*
X0112295Y0228917D01*
X0112357Y0228939D01*
X0112420Y0228957D01*
X0112484Y0228972D01*
X0112549Y0228983D01*
X0112615Y0228990D01*
X0112681Y0228993D01*
X0112747Y0228992D01*
X0112812Y0228987D01*
X0112877Y0228979D01*
X0112942Y0228966D01*
X0113006Y0228950D01*
X0113069Y0228930D01*
X0113130Y0228906D01*
X0113190Y0228879D01*
X0113248Y0228848D01*
X0113304Y0228814D01*
X0113359Y0228776D01*
X0113410Y0228735D01*
X0113460Y0228692D01*
X0113506Y0228645D01*
X0113550Y0228596D01*
X0116756Y0223048D02*
X0117810Y0222482D01*
X0117811Y0222482D02*
X0117853Y0222462D01*
X0117897Y0222445D01*
X0117942Y0222432D01*
X0117988Y0222422D01*
X0118035Y0222416D01*
X0118082Y0222414D01*
X0118129Y0222416D01*
X0118175Y0222421D01*
X0118221Y0222431D01*
X0118266Y0222444D01*
X0118310Y0222461D01*
X0118353Y0222481D01*
X0118393Y0222505D01*
X0118432Y0222532D01*
X0118468Y0222562D01*
X0118502Y0222594D01*
X0118533Y0222630D01*
X0118560Y0222668D01*
X0118585Y0222708D01*
X0118606Y0222750D01*
X0118624Y0222793D01*
X0118639Y0222838D01*
X0118649Y0222884D01*
X0118656Y0222930D01*
X0118659Y0222977D01*
X0118658Y0223024D01*
X0118653Y0223071D01*
X0118645Y0223117D01*
X0118633Y0223163D01*
X0118617Y0223207D01*
X0118597Y0223250D01*
X0118574Y0223291D01*
X0118548Y0223330D01*
X0118519Y0223367D01*
X0117004Y0221370D02*
X0116906Y0221428D01*
X0116811Y0221490D01*
X0116718Y0221554D01*
X0116626Y0221621D01*
X0116537Y0221691D01*
X0116449Y0221763D01*
X0116364Y0221839D01*
X0116282Y0221916D01*
X0116201Y0221996D01*
X0116123Y0222079D01*
X0116048Y0222163D01*
X0116019Y0222200D01*
X0115993Y0222239D01*
X0115970Y0222280D01*
X0115950Y0222323D01*
X0115934Y0222367D01*
X0115922Y0222413D01*
X0115914Y0222459D01*
X0115909Y0222506D01*
X0115908Y0222553D01*
X0115911Y0222600D01*
X0115918Y0222646D01*
X0115928Y0222692D01*
X0115943Y0222737D01*
X0115961Y0222780D01*
X0115982Y0222822D01*
X0116007Y0222862D01*
X0116034Y0222900D01*
X0116065Y0222936D01*
X0116099Y0222968D01*
X0116135Y0222998D01*
X0116174Y0223025D01*
X0116214Y0223049D01*
X0116257Y0223069D01*
X0116301Y0223086D01*
X0116346Y0223099D01*
X0116392Y0223109D01*
X0116438Y0223114D01*
X0116485Y0223116D01*
X0116532Y0223114D01*
X0116579Y0223108D01*
X0116625Y0223098D01*
X0116670Y0223085D01*
X0116714Y0223068D01*
X0116756Y0223048D01*
X0117706Y0223990D02*
X0117790Y0223948D01*
X0117872Y0223902D01*
X0117952Y0223854D01*
X0118031Y0223803D01*
X0118107Y0223748D01*
X0118181Y0223691D01*
X0118254Y0223632D01*
X0118324Y0223569D01*
X0118391Y0223504D01*
X0118456Y0223437D01*
X0118519Y0223367D01*
X0119852Y0220741D02*
X0118320Y0219455D01*
X0118963Y0218689D01*
X0118962Y0218689D02*
X0118998Y0218649D01*
X0119037Y0218611D01*
X0119079Y0218576D01*
X0119123Y0218544D01*
X0119169Y0218515D01*
X0119217Y0218490D01*
X0119267Y0218468D01*
X0119318Y0218449D01*
X0119370Y0218434D01*
X0119423Y0218423D01*
X0119477Y0218415D01*
X0119531Y0218411D01*
X0119585Y0218411D01*
X0119639Y0218415D01*
X0119693Y0218423D01*
X0119746Y0218434D01*
X0119798Y0218449D01*
X0119849Y0218468D01*
X0119899Y0218490D01*
X0119947Y0218515D01*
X0119993Y0218544D01*
X0120037Y0218576D01*
X0120079Y0218611D01*
X0120118Y0218649D01*
X0120154Y0218689D01*
X0120187Y0218732D01*
X0120218Y0218777D01*
X0120245Y0218824D01*
X0120269Y0218873D01*
X0120289Y0218923D01*
X0120306Y0218975D01*
X0120319Y0219027D01*
X0120328Y0219081D01*
X0120334Y0219135D01*
X0120336Y0219189D01*
X0120334Y0219243D01*
X0120328Y0219297D01*
X0120319Y0219351D01*
X0120306Y0219403D01*
X0120289Y0219455D01*
X0120269Y0219505D01*
X0120245Y0219554D01*
X0120218Y0219601D01*
X0120187Y0219646D01*
X0120154Y0219689D01*
X0119511Y0220455D01*
X0119851Y0220741D02*
X0119891Y0220772D01*
X0119932Y0220799D01*
X0119976Y0220824D01*
X0120021Y0220845D01*
X0120068Y0220862D01*
X0120115Y0220876D01*
X0120164Y0220887D01*
X0120214Y0220894D01*
X0120263Y0220897D01*
X0120313Y0220896D01*
X0120363Y0220892D01*
X0120412Y0220884D01*
X0120461Y0220872D01*
X0120508Y0220857D01*
X0120554Y0220838D01*
X0120599Y0220816D01*
X0120642Y0220790D01*
X0120683Y0220762D01*
X0120721Y0220730D01*
X0120757Y0220696D01*
X0120791Y0220659D01*
X0121362Y0219978D01*
X0122649Y0217753D02*
X0124078Y0216050D01*
X0125876Y0213561D02*
X0125782Y0213485D01*
X0125686Y0213412D01*
X0125588Y0213342D01*
X0125487Y0213275D01*
X0125385Y0213212D01*
X0125281Y0213151D01*
X0125174Y0213094D01*
X0125066Y0213041D01*
X0124956Y0212991D01*
X0124845Y0212944D01*
X0124732Y0212901D01*
X0124618Y0212861D01*
X0124503Y0212826D01*
X0124387Y0212793D01*
X0124270Y0212765D01*
X0124152Y0212740D01*
X0124033Y0212719D01*
X0123913Y0212702D01*
X0123794Y0212688D01*
X0123673Y0212679D01*
X0123553Y0212673D01*
X0123432Y0212671D01*
X0122375Y0214622D02*
X0125440Y0217193D01*
X0127178Y0215814D02*
X0127155Y0215695D01*
X0127128Y0215578D01*
X0127098Y0215461D01*
X0127064Y0215345D01*
X0127026Y0215231D01*
X0126985Y0215117D01*
X0126940Y0215005D01*
X0126891Y0214895D01*
X0126840Y0214786D01*
X0126784Y0214678D01*
X0126726Y0214573D01*
X0126664Y0214470D01*
X0126598Y0214368D01*
X0126530Y0214269D01*
X0126458Y0214171D01*
X0126384Y0214077D01*
X0126306Y0213984D01*
X0126226Y0213894D01*
X0126142Y0213807D01*
X0126056Y0213722D01*
X0125968Y0213640D01*
X0125876Y0213561D01*
X0120947Y0216324D02*
X0124011Y0218896D01*
X0109038Y0234666D02*
X0107752Y0236198D01*
X0107718Y0236235D01*
X0107682Y0236269D01*
X0107644Y0236301D01*
X0107603Y0236329D01*
X0107560Y0236355D01*
X0107515Y0236377D01*
X0107469Y0236396D01*
X0107422Y0236411D01*
X0107373Y0236423D01*
X0107324Y0236431D01*
X0107274Y0236435D01*
X0107224Y0236436D01*
X0107175Y0236433D01*
X0107125Y0236426D01*
X0107076Y0236415D01*
X0107029Y0236401D01*
X0106982Y0236384D01*
X0106937Y0236363D01*
X0106893Y0236338D01*
X0106852Y0236311D01*
X0106812Y0236280D01*
X0106813Y0236280D02*
X0105281Y0234995D01*
X0106138Y0233973D02*
X0108181Y0235687D01*
X0109038Y0234666D02*
X0106995Y0232952D01*
X0103598Y0237000D02*
X0102884Y0237851D01*
X0102883Y0237851D02*
X0102852Y0237891D01*
X0102825Y0237932D01*
X0102800Y0237976D01*
X0102779Y0238021D01*
X0102762Y0238068D01*
X0102748Y0238115D01*
X0102737Y0238164D01*
X0102730Y0238214D01*
X0102727Y0238263D01*
X0102728Y0238313D01*
X0102732Y0238363D01*
X0102740Y0238412D01*
X0102752Y0238461D01*
X0102767Y0238508D01*
X0102786Y0238554D01*
X0102808Y0238599D01*
X0102834Y0238642D01*
X0102862Y0238683D01*
X0102894Y0238721D01*
X0102928Y0238757D01*
X0102965Y0238791D01*
X0102966Y0238791D02*
X0103987Y0239648D01*
X0104027Y0239679D01*
X0104068Y0239706D01*
X0104112Y0239731D01*
X0104157Y0239752D01*
X0104204Y0239769D01*
X0104251Y0239783D01*
X0104300Y0239794D01*
X0104350Y0239801D01*
X0104399Y0239804D01*
X0104449Y0239803D01*
X0104499Y0239799D01*
X0104548Y0239791D01*
X0104597Y0239779D01*
X0104644Y0239764D01*
X0104690Y0239745D01*
X0104735Y0239723D01*
X0104778Y0239697D01*
X0104819Y0239669D01*
X0104857Y0239637D01*
X0104893Y0239603D01*
X0104927Y0239566D01*
X0104926Y0239566D02*
X0105641Y0238714D01*
X0102576Y0236143D01*
X0102191Y0241789D02*
X0102284Y0241865D01*
X0102380Y0241938D01*
X0102479Y0242008D01*
X0102579Y0242075D01*
X0102682Y0242138D01*
X0102786Y0242199D01*
X0102892Y0242256D01*
X0103000Y0242309D01*
X0103110Y0242359D01*
X0103221Y0242406D01*
X0103334Y0242449D01*
X0103448Y0242489D01*
X0103563Y0242524D01*
X0103680Y0242557D01*
X0103797Y0242585D01*
X0103915Y0242610D01*
X0104034Y0242631D01*
X0104153Y0242648D01*
X0104273Y0242662D01*
X0104393Y0242671D01*
X0104514Y0242677D01*
X0104635Y0242679D01*
X0102191Y0241789D02*
X0102099Y0241710D01*
X0102011Y0241628D01*
X0101925Y0241543D01*
X0101841Y0241456D01*
X0101761Y0241366D01*
X0101683Y0241273D01*
X0101609Y0241179D01*
X0101537Y0241081D01*
X0101469Y0240982D01*
X0101403Y0240880D01*
X0101341Y0240777D01*
X0101283Y0240672D01*
X0101227Y0240564D01*
X0101176Y0240455D01*
X0101127Y0240345D01*
X0101082Y0240233D01*
X0101041Y0240120D01*
X0101003Y0240005D01*
X0100969Y0239889D01*
X0100939Y0239772D01*
X0100912Y0239655D01*
X0100889Y0239536D01*
X0146809Y0197321D02*
X0151314Y0194719D01*
X0152713Y0196474D02*
X0150142Y0199538D01*
X0151844Y0200966D02*
X0152713Y0196474D01*
X0154416Y0197902D02*
X0151844Y0200966D01*
X0154418Y0201676D02*
X0155561Y0200314D01*
X0155605Y0200265D01*
X0155651Y0200218D01*
X0155701Y0200175D01*
X0155752Y0200134D01*
X0155807Y0200096D01*
X0155863Y0200062D01*
X0155921Y0200031D01*
X0155981Y0200004D01*
X0156042Y0199980D01*
X0156105Y0199960D01*
X0156169Y0199944D01*
X0156234Y0199931D01*
X0156299Y0199923D01*
X0156364Y0199918D01*
X0156430Y0199917D01*
X0156496Y0199920D01*
X0156562Y0199927D01*
X0156627Y0199938D01*
X0156691Y0199953D01*
X0156754Y0199971D01*
X0156816Y0199993D01*
X0156877Y0200019D01*
X0156936Y0200048D01*
X0156993Y0200081D01*
X0157048Y0200117D01*
X0157101Y0200156D01*
X0157151Y0200198D01*
X0157199Y0200244D01*
X0157244Y0200292D01*
X0157286Y0200342D01*
X0157325Y0200395D01*
X0157361Y0200450D01*
X0157394Y0200508D01*
X0157423Y0200567D01*
X0157448Y0200627D01*
X0157470Y0200690D01*
X0157488Y0200753D01*
X0157503Y0200817D01*
X0157513Y0200882D01*
X0157520Y0200948D01*
X0157523Y0201013D01*
X0157522Y0201079D01*
X0157517Y0201145D01*
X0157508Y0201210D01*
X0157495Y0201275D01*
X0157479Y0201338D01*
X0157458Y0201401D01*
X0157435Y0201462D01*
X0157407Y0201522D01*
X0157376Y0201580D01*
X0157342Y0201636D01*
X0157304Y0201690D01*
X0157263Y0201742D01*
X0156121Y0203104D01*
X0156077Y0203153D01*
X0156031Y0203200D01*
X0155981Y0203243D01*
X0155930Y0203284D01*
X0155875Y0203322D01*
X0155819Y0203356D01*
X0155761Y0203387D01*
X0155701Y0203414D01*
X0155640Y0203438D01*
X0155577Y0203458D01*
X0155513Y0203474D01*
X0155448Y0203487D01*
X0155383Y0203495D01*
X0155318Y0203500D01*
X0155252Y0203501D01*
X0155186Y0203498D01*
X0155120Y0203491D01*
X0155055Y0203480D01*
X0154991Y0203465D01*
X0154928Y0203447D01*
X0154866Y0203425D01*
X0154805Y0203399D01*
X0154746Y0203370D01*
X0154689Y0203337D01*
X0154634Y0203301D01*
X0154581Y0203262D01*
X0154531Y0203220D01*
X0154483Y0203174D01*
X0154438Y0203126D01*
X0154396Y0203076D01*
X0154357Y0203023D01*
X0154321Y0202968D01*
X0154288Y0202910D01*
X0154259Y0202851D01*
X0154234Y0202791D01*
X0154212Y0202728D01*
X0154194Y0202665D01*
X0154179Y0202601D01*
X0154169Y0202536D01*
X0154162Y0202470D01*
X0154159Y0202405D01*
X0154160Y0202339D01*
X0154165Y0202273D01*
X0154174Y0202208D01*
X0154187Y0202143D01*
X0154203Y0202080D01*
X0154224Y0202017D01*
X0154247Y0201956D01*
X0154275Y0201896D01*
X0154306Y0201838D01*
X0154340Y0201782D01*
X0154378Y0201728D01*
X0154419Y0201676D01*
X0146239Y0194812D02*
X0147382Y0193450D01*
X0147381Y0193450D02*
X0147422Y0193398D01*
X0147460Y0193344D01*
X0147494Y0193288D01*
X0147525Y0193230D01*
X0147553Y0193170D01*
X0147576Y0193109D01*
X0147597Y0193046D01*
X0147613Y0192983D01*
X0147626Y0192918D01*
X0147635Y0192853D01*
X0147640Y0192787D01*
X0147641Y0192721D01*
X0147638Y0192656D01*
X0147631Y0192590D01*
X0147621Y0192525D01*
X0147606Y0192461D01*
X0147588Y0192398D01*
X0147566Y0192335D01*
X0147541Y0192275D01*
X0147512Y0192216D01*
X0147479Y0192158D01*
X0147443Y0192103D01*
X0147404Y0192050D01*
X0147362Y0192000D01*
X0147317Y0191952D01*
X0147269Y0191906D01*
X0147219Y0191864D01*
X0147166Y0191825D01*
X0147111Y0191789D01*
X0147054Y0191756D01*
X0146995Y0191727D01*
X0146934Y0191701D01*
X0146872Y0191679D01*
X0146809Y0191661D01*
X0146745Y0191646D01*
X0146680Y0191635D01*
X0146614Y0191628D01*
X0146548Y0191625D01*
X0146482Y0191626D01*
X0146417Y0191631D01*
X0146352Y0191639D01*
X0146287Y0191652D01*
X0146223Y0191668D01*
X0146160Y0191688D01*
X0146099Y0191712D01*
X0146039Y0191739D01*
X0145981Y0191770D01*
X0145925Y0191804D01*
X0145870Y0191842D01*
X0145819Y0191883D01*
X0145769Y0191926D01*
X0145723Y0191973D01*
X0145679Y0192022D01*
X0144536Y0193384D01*
X0144537Y0193384D02*
X0144496Y0193436D01*
X0144458Y0193490D01*
X0144424Y0193546D01*
X0144393Y0193604D01*
X0144365Y0193664D01*
X0144342Y0193725D01*
X0144321Y0193788D01*
X0144305Y0193851D01*
X0144292Y0193916D01*
X0144283Y0193981D01*
X0144278Y0194047D01*
X0144277Y0194113D01*
X0144280Y0194178D01*
X0144287Y0194244D01*
X0144297Y0194309D01*
X0144312Y0194373D01*
X0144330Y0194436D01*
X0144352Y0194499D01*
X0144377Y0194559D01*
X0144406Y0194618D01*
X0144439Y0194676D01*
X0144475Y0194731D01*
X0144514Y0194784D01*
X0144556Y0194834D01*
X0144601Y0194882D01*
X0144649Y0194928D01*
X0144699Y0194970D01*
X0144752Y0195009D01*
X0144807Y0195045D01*
X0144864Y0195078D01*
X0144923Y0195107D01*
X0144984Y0195133D01*
X0145046Y0195155D01*
X0145109Y0195173D01*
X0145173Y0195188D01*
X0145238Y0195199D01*
X0145304Y0195206D01*
X0145370Y0195209D01*
X0145436Y0195208D01*
X0145501Y0195203D01*
X0145566Y0195195D01*
X0145631Y0195182D01*
X0145695Y0195166D01*
X0145758Y0195146D01*
X0145819Y0195122D01*
X0145879Y0195095D01*
X0145937Y0195064D01*
X0145993Y0195030D01*
X0146048Y0194992D01*
X0146099Y0194951D01*
X0146149Y0194908D01*
X0146195Y0194861D01*
X0146239Y0194812D01*
X0143093Y0191302D02*
X0141731Y0190160D01*
X0140589Y0191522D02*
X0141951Y0192664D01*
X0144522Y0189600D01*
X0141534Y0187093D02*
X0138963Y0190157D01*
X0137601Y0189015D01*
X0138744Y0187653D02*
X0140106Y0188796D01*
X0118678Y0155700D02*
X0116900Y0155700D01*
X0118678Y0155700D02*
X0118678Y0151700D01*
X0118678Y0153922D02*
X0116900Y0153922D01*
X0114793Y0152811D02*
X0114793Y0155700D01*
X0112571Y0155700D02*
X0112571Y0152811D01*
X0112573Y0152745D01*
X0112579Y0152680D01*
X0112589Y0152614D01*
X0112602Y0152550D01*
X0112619Y0152487D01*
X0112641Y0152424D01*
X0112665Y0152363D01*
X0112694Y0152304D01*
X0112725Y0152246D01*
X0112761Y0152190D01*
X0112799Y0152137D01*
X0112840Y0152086D01*
X0112885Y0152037D01*
X0112932Y0151991D01*
X0112982Y0151948D01*
X0113034Y0151908D01*
X0113089Y0151872D01*
X0113146Y0151838D01*
X0113204Y0151808D01*
X0113264Y0151781D01*
X0113326Y0151759D01*
X0113389Y0151739D01*
X0113453Y0151724D01*
X0113518Y0151712D01*
X0113583Y0151704D01*
X0113649Y0151700D01*
X0113715Y0151700D01*
X0113781Y0151704D01*
X0113846Y0151712D01*
X0113911Y0151724D01*
X0113975Y0151739D01*
X0114038Y0151759D01*
X0114100Y0151781D01*
X0114160Y0151808D01*
X0114218Y0151838D01*
X0114275Y0151872D01*
X0114330Y0151908D01*
X0114382Y0151948D01*
X0114432Y0151991D01*
X0114479Y0152037D01*
X0114524Y0152086D01*
X0114565Y0152137D01*
X0114603Y0152190D01*
X0114639Y0152246D01*
X0114670Y0152304D01*
X0114699Y0152363D01*
X0114723Y0152424D01*
X0114745Y0152487D01*
X0114762Y0152550D01*
X0114775Y0152614D01*
X0114785Y0152680D01*
X0114791Y0152745D01*
X0114793Y0152811D01*
X0109738Y0154033D02*
X0108516Y0153367D01*
X0108960Y0151700D02*
X0109042Y0151702D01*
X0109125Y0151707D01*
X0109206Y0151716D01*
X0109288Y0151729D01*
X0109369Y0151745D01*
X0109449Y0151765D01*
X0109528Y0151788D01*
X0109606Y0151814D01*
X0109682Y0151844D01*
X0109758Y0151878D01*
X0109831Y0151914D01*
X0109904Y0151954D01*
X0109974Y0151997D01*
X0110042Y0152043D01*
X0110108Y0152092D01*
X0110172Y0152144D01*
X0110234Y0152198D01*
X0110293Y0152256D01*
X0108516Y0153367D02*
X0108466Y0153336D01*
X0108419Y0153301D01*
X0108374Y0153264D01*
X0108331Y0153223D01*
X0108291Y0153180D01*
X0108255Y0153135D01*
X0108221Y0153087D01*
X0108190Y0153037D01*
X0108163Y0152985D01*
X0108139Y0152932D01*
X0108118Y0152877D01*
X0108101Y0152821D01*
X0108088Y0152764D01*
X0108079Y0152706D01*
X0108073Y0152648D01*
X0108071Y0152589D01*
X0108073Y0152531D01*
X0108079Y0152473D01*
X0108088Y0152416D01*
X0108101Y0152359D01*
X0108118Y0152303D01*
X0108139Y0152249D01*
X0108163Y0152196D01*
X0108190Y0152144D01*
X0108221Y0152095D01*
X0108255Y0152048D01*
X0108292Y0152003D01*
X0108331Y0151960D01*
X0108374Y0151921D01*
X0108419Y0151884D01*
X0108466Y0151850D01*
X0108516Y0151819D01*
X0108567Y0151792D01*
X0108620Y0151768D01*
X0108674Y0151747D01*
X0108730Y0151730D01*
X0108787Y0151717D01*
X0108844Y0151708D01*
X0108902Y0151702D01*
X0108960Y0151700D01*
X0108293Y0155367D02*
X0108355Y0155411D01*
X0108419Y0155453D01*
X0108486Y0155491D01*
X0108553Y0155527D01*
X0108623Y0155559D01*
X0108694Y0155589D01*
X0108766Y0155614D01*
X0108839Y0155637D01*
X0108913Y0155656D01*
X0108988Y0155672D01*
X0109064Y0155684D01*
X0109140Y0155693D01*
X0109216Y0155698D01*
X0109293Y0155700D01*
X0109351Y0155698D01*
X0109409Y0155692D01*
X0109466Y0155683D01*
X0109523Y0155670D01*
X0109579Y0155653D01*
X0109633Y0155632D01*
X0109686Y0155608D01*
X0109738Y0155581D01*
X0109787Y0155550D01*
X0109834Y0155516D01*
X0109879Y0155479D01*
X0109922Y0155440D01*
X0109961Y0155397D01*
X0109998Y0155352D01*
X0110032Y0155305D01*
X0110063Y0155256D01*
X0110090Y0155204D01*
X0110114Y0155151D01*
X0110135Y0155097D01*
X0110152Y0155041D01*
X0110165Y0154984D01*
X0110174Y0154927D01*
X0110180Y0154869D01*
X0110182Y0154811D01*
X0110180Y0154752D01*
X0110174Y0154694D01*
X0110165Y0154636D01*
X0110152Y0154579D01*
X0110135Y0154523D01*
X0110114Y0154468D01*
X0110090Y0154415D01*
X0110063Y0154363D01*
X0110032Y0154313D01*
X0109998Y0154265D01*
X0109962Y0154220D01*
X0109922Y0154177D01*
X0109879Y0154136D01*
X0109834Y0154099D01*
X0109787Y0154064D01*
X0109737Y0154033D01*
X0105778Y0153922D02*
X0104444Y0153922D01*
X0104000Y0155700D02*
X0105778Y0155700D01*
X0105778Y0151700D01*
X0104000Y0151700D01*
D15*
X0308048Y0346784D02*
X0307036Y0347991D01*
X0308048Y0346784D02*
X0308089Y0346738D01*
X0308133Y0346695D01*
X0308180Y0346654D01*
X0308229Y0346617D01*
X0308281Y0346583D01*
X0308334Y0346551D01*
X0308389Y0346524D01*
X0308446Y0346500D01*
X0308504Y0346479D01*
X0308564Y0346462D01*
X0308624Y0346449D01*
X0308685Y0346440D01*
X0308747Y0346435D01*
X0308809Y0346433D01*
X0308871Y0346435D01*
X0308932Y0346442D01*
X0308993Y0346452D01*
X0309053Y0346466D01*
X0309113Y0346483D01*
X0309171Y0346505D01*
X0309227Y0346530D01*
X0309282Y0346558D01*
X0309335Y0346590D01*
X0309386Y0346625D01*
X0309435Y0346663D01*
X0326022Y0360581D01*
X0326023Y0360581D02*
X0326069Y0360622D01*
X0326112Y0360666D01*
X0326153Y0360713D01*
X0326190Y0360762D01*
X0326224Y0360814D01*
X0326256Y0360867D01*
X0326283Y0360922D01*
X0326307Y0360979D01*
X0326328Y0361037D01*
X0326345Y0361097D01*
X0326358Y0361157D01*
X0326367Y0361218D01*
X0326372Y0361280D01*
X0326374Y0361342D01*
X0326372Y0361404D01*
X0326365Y0361465D01*
X0326355Y0361526D01*
X0326341Y0361586D01*
X0326324Y0361646D01*
X0326302Y0361704D01*
X0326277Y0361760D01*
X0326249Y0361815D01*
X0326217Y0361868D01*
X0326182Y0361919D01*
X0326144Y0361968D01*
X0325131Y0363174D01*
X0319722Y0360434D02*
X0315926Y0364958D01*
X0306878Y0357366D01*
X0310674Y0352842D01*
X0319722Y0360434D01*
X0319564Y0369809D02*
X0318552Y0371016D01*
X0318511Y0371062D01*
X0318467Y0371105D01*
X0318420Y0371146D01*
X0318371Y0371183D01*
X0318319Y0371217D01*
X0318266Y0371249D01*
X0318211Y0371276D01*
X0318154Y0371300D01*
X0318096Y0371321D01*
X0318036Y0371338D01*
X0317976Y0371351D01*
X0317915Y0371360D01*
X0317853Y0371365D01*
X0317791Y0371367D01*
X0317729Y0371365D01*
X0317668Y0371358D01*
X0317607Y0371348D01*
X0317547Y0371334D01*
X0317487Y0371317D01*
X0317429Y0371295D01*
X0317373Y0371270D01*
X0317318Y0371242D01*
X0317265Y0371210D01*
X0317214Y0371175D01*
X0317165Y0371137D01*
X0300578Y0357219D01*
X0300577Y0357219D02*
X0300531Y0357178D01*
X0300488Y0357134D01*
X0300447Y0357087D01*
X0300410Y0357038D01*
X0300376Y0356986D01*
X0300344Y0356933D01*
X0300317Y0356878D01*
X0300293Y0356821D01*
X0300272Y0356763D01*
X0300255Y0356703D01*
X0300242Y0356643D01*
X0300233Y0356582D01*
X0300228Y0356520D01*
X0300226Y0356458D01*
X0300228Y0356396D01*
X0300235Y0356335D01*
X0300245Y0356274D01*
X0300259Y0356214D01*
X0300276Y0356154D01*
X0300298Y0356096D01*
X0300323Y0356040D01*
X0300351Y0355985D01*
X0300383Y0355932D01*
X0300418Y0355881D01*
X0300456Y0355832D01*
X0301469Y0354626D01*
D16*
X0130800Y0171000D02*
X0129522Y0171000D01*
X0129453Y0170998D01*
X0129384Y0170993D01*
X0129315Y0170983D01*
X0129247Y0170970D01*
X0129180Y0170953D01*
X0129114Y0170933D01*
X0129049Y0170909D01*
X0128985Y0170882D01*
X0128923Y0170851D01*
X0128863Y0170817D01*
X0128805Y0170780D01*
X0128749Y0170739D01*
X0128695Y0170696D01*
X0128643Y0170650D01*
X0128594Y0170601D01*
X0128548Y0170549D01*
X0128505Y0170495D01*
X0128464Y0170439D01*
X0128427Y0170381D01*
X0128393Y0170321D01*
X0128362Y0170259D01*
X0128335Y0170195D01*
X0128311Y0170130D01*
X0128291Y0170064D01*
X0128274Y0169997D01*
X0128261Y0169929D01*
X0128251Y0169860D01*
X0128246Y0169791D01*
X0128244Y0169722D01*
X0128244Y0167678D01*
X0128246Y0167609D01*
X0128251Y0167540D01*
X0128261Y0167471D01*
X0128274Y0167403D01*
X0128291Y0167336D01*
X0128311Y0167270D01*
X0128335Y0167205D01*
X0128362Y0167141D01*
X0128393Y0167079D01*
X0128427Y0167019D01*
X0128464Y0166961D01*
X0128505Y0166905D01*
X0128548Y0166851D01*
X0128594Y0166799D01*
X0128643Y0166750D01*
X0128695Y0166704D01*
X0128749Y0166661D01*
X0128805Y0166620D01*
X0128863Y0166583D01*
X0128923Y0166549D01*
X0128985Y0166518D01*
X0129049Y0166491D01*
X0129114Y0166467D01*
X0129180Y0166447D01*
X0129247Y0166430D01*
X0129315Y0166417D01*
X0129384Y0166407D01*
X0129453Y0166402D01*
X0129522Y0166400D01*
X0130800Y0166400D01*
X0130800Y0171000D01*
X0126150Y0169978D02*
X0124872Y0171000D01*
X0124872Y0166400D01*
X0126150Y0166400D02*
X0123594Y0166400D01*
M02*
