G75*
%MOIN*%
%OFA0B0*%
%FSLAX25Y25*%
%IPPOS*%
%LPD*%
%AMOC8*
5,1,8,0,0,1.08239X$1,22.5*
%
%ADD10R,0.06299X0.01575*%
%ADD11R,0.01575X0.01575*%
%ADD12R,0.59843X0.01575*%
%ADD13R,0.61417X0.01575*%
%ADD14R,0.66142X0.01575*%
%ADD15R,0.67717X0.01575*%
%ADD16R,0.69291X0.01575*%
%ADD17R,0.77165X0.01575*%
%ADD18R,0.56693X0.01575*%
%ADD19R,0.55118X0.01575*%
%ADD20R,0.51969X0.01575*%
%ADD21R,0.50394X0.01575*%
%ADD22R,0.48819X0.01575*%
%ADD23R,0.45669X0.01575*%
%ADD24R,0.44094X0.01575*%
%ADD25R,0.39370X0.01575*%
%ADD26R,0.34646X0.01575*%
%ADD27R,0.26772X0.01575*%
%ADD28R,0.17323X0.01575*%
%ADD29R,0.28346X0.01575*%
%ADD30R,0.37795X0.01575*%
%ADD31R,0.07874X0.01575*%
%ADD32R,0.11024X0.01575*%
%ADD33R,0.14173X0.01575*%
%ADD34R,0.62992X0.01575*%
%ADD35R,0.18898X0.01575*%
%ADD36R,0.22047X0.01575*%
%ADD37R,0.23622X0.01575*%
%ADD38R,0.25197X0.01575*%
%ADD39R,0.20472X0.01575*%
%ADD40R,0.31496X0.01575*%
%ADD41R,0.29921X0.01575*%
%ADD42R,0.33071X0.01575*%
%ADD43R,0.36220X0.01575*%
%ADD44R,0.42520X0.01575*%
%ADD45R,0.47244X0.01575*%
%ADD46R,0.15748X0.01575*%
%ADD47R,0.53543X0.01575*%
%ADD48R,0.12598X0.01575*%
%ADD49R,0.58268X0.01575*%
%ADD50R,0.09449X0.01575*%
%ADD51R,0.64567X0.01575*%
%ADD52R,0.04724X0.01575*%
%ADD53C,0.00600*%
%ADD54C,0.00800*%
%ADD55R,0.00984X0.00984*%
%ADD56R,0.00984X0.00984*%
D10*
X0084631Y0150487D03*
X0202741Y0170959D03*
X0198017Y0334739D03*
X0157072Y0336313D03*
X0157072Y0337888D03*
X0157072Y0339463D03*
X0231087Y0369384D03*
X0232662Y0367809D03*
X0386993Y0389857D03*
D11*
X0198804Y0333164D03*
X0201954Y0169384D03*
D12*
X0201166Y0279620D03*
X0075182Y0170959D03*
X0068883Y0213479D03*
X0375969Y0323715D03*
X0375969Y0325290D03*
X0383843Y0361510D03*
D13*
X0383056Y0359935D03*
X0383056Y0358361D03*
X0383056Y0356786D03*
X0376757Y0330014D03*
X0376757Y0328439D03*
X0376757Y0326865D03*
X0074394Y0172534D03*
D14*
X0073607Y0175683D03*
X0201166Y0282770D03*
D15*
X0072820Y0181983D03*
X0072820Y0178833D03*
D16*
X0072032Y0185132D03*
X0072032Y0186707D03*
X0070457Y0191431D03*
X0070457Y0194581D03*
X0201166Y0284345D03*
D17*
X0244473Y0205605D03*
D18*
X0374394Y0317416D03*
X0374394Y0318991D03*
X0385418Y0366235D03*
X0068883Y0216628D03*
X0068883Y0215054D03*
D19*
X0068095Y0218203D03*
X0200379Y0278046D03*
X0373607Y0314266D03*
X0373607Y0315841D03*
X0384631Y0367809D03*
D20*
X0386206Y0370959D03*
X0386206Y0372534D03*
X0372032Y0311117D03*
X0205103Y0372534D03*
X0068095Y0219778D03*
D21*
X0067308Y0221353D03*
X0180694Y0345762D03*
X0185418Y0355211D03*
X0188568Y0359935D03*
X0190143Y0361510D03*
X0201166Y0276471D03*
X0371245Y0307967D03*
X0371245Y0309542D03*
D22*
X0386206Y0374109D03*
X0205528Y0374109D03*
X0197229Y0369384D03*
X0195654Y0367809D03*
X0194080Y0366235D03*
X0192505Y0364660D03*
X0190930Y0363085D03*
X0187780Y0358361D03*
X0186206Y0356786D03*
X0184631Y0353636D03*
X0183056Y0352061D03*
X0183056Y0350487D03*
X0181481Y0348912D03*
X0181481Y0347337D03*
X0179906Y0344187D03*
X0179906Y0342613D03*
X0066520Y0222928D03*
D23*
X0066520Y0224502D03*
X0187780Y0285920D03*
X0200379Y0274896D03*
X0370457Y0304817D03*
D24*
X0369670Y0303243D03*
X0369670Y0301668D03*
X0386993Y0377258D03*
X0386993Y0378833D03*
X0204741Y0375683D03*
X0065733Y0226077D03*
D25*
X0064946Y0227652D03*
X0368883Y0298518D03*
X0387780Y0380408D03*
D26*
X0366520Y0293794D03*
X0180694Y0287494D03*
X0064158Y0229227D03*
D27*
X0063371Y0230802D03*
X0172032Y0293794D03*
X0173607Y0292219D03*
X0365733Y0287494D03*
D28*
X0364158Y0279620D03*
X0242898Y0336313D03*
X0242898Y0337888D03*
X0242898Y0339463D03*
X0242898Y0341038D03*
X0242898Y0342613D03*
X0242898Y0344187D03*
X0161009Y0311117D03*
X0161009Y0309542D03*
X0063371Y0232376D03*
D29*
X0199591Y0271746D03*
X0204091Y0377246D03*
D30*
X0199591Y0273321D03*
X0368095Y0296943D03*
D31*
X0364158Y0274896D03*
X0233450Y0366235D03*
X0157859Y0341038D03*
X0156284Y0334739D03*
D32*
X0157859Y0328439D03*
X0157859Y0326865D03*
X0157859Y0325290D03*
X0157859Y0323715D03*
X0236599Y0361510D03*
X0364158Y0276471D03*
D33*
X0364158Y0278046D03*
X0241324Y0350487D03*
X0239749Y0353636D03*
X0239749Y0355211D03*
X0195654Y0337888D03*
X0159434Y0317416D03*
X0159434Y0315841D03*
D34*
X0201166Y0281195D03*
X0377544Y0331589D03*
X0377544Y0333164D03*
X0377544Y0334739D03*
X0379119Y0339463D03*
X0379119Y0341038D03*
X0379119Y0342613D03*
X0380694Y0345762D03*
X0380694Y0347337D03*
X0380694Y0348912D03*
X0380694Y0350487D03*
X0382269Y0353636D03*
X0382269Y0355211D03*
D35*
X0364946Y0281195D03*
X0242111Y0311117D03*
X0242111Y0312691D03*
X0242111Y0314266D03*
X0243686Y0317416D03*
X0243686Y0318991D03*
X0243686Y0320565D03*
X0243686Y0322140D03*
X0243686Y0323715D03*
X0243686Y0325290D03*
X0243686Y0326865D03*
X0243686Y0328439D03*
X0243686Y0330014D03*
X0243686Y0331589D03*
X0243686Y0333164D03*
X0243686Y0334739D03*
X0240536Y0306392D03*
X0238961Y0303243D03*
X0193292Y0339463D03*
X0161796Y0307967D03*
X0163371Y0304817D03*
X0203792Y0378463D03*
D36*
X0164946Y0301668D03*
X0166520Y0300093D03*
X0226363Y0285920D03*
X0231087Y0290644D03*
X0232662Y0292219D03*
X0364946Y0282770D03*
X0388568Y0386707D03*
D37*
X0365733Y0284345D03*
X0168883Y0296943D03*
X0167308Y0298518D03*
D38*
X0169670Y0295369D03*
X0364946Y0285920D03*
X0388568Y0385132D03*
D39*
X0242898Y0315841D03*
X0241324Y0309542D03*
X0241324Y0307967D03*
X0239749Y0304817D03*
X0238174Y0301668D03*
X0238174Y0300093D03*
X0236599Y0298518D03*
X0236599Y0296943D03*
X0235024Y0295369D03*
X0233450Y0293794D03*
X0230300Y0289069D03*
X0228725Y0287494D03*
X0164158Y0303243D03*
X0162583Y0306392D03*
D40*
X0177544Y0289069D03*
X0366520Y0290644D03*
X0388568Y0383557D03*
D41*
X0365733Y0289069D03*
X0175182Y0290644D03*
D42*
X0186206Y0341038D03*
X0367308Y0292219D03*
D43*
X0367308Y0295369D03*
X0387780Y0381983D03*
D44*
X0368883Y0300093D03*
D45*
X0371245Y0306392D03*
X0386993Y0375683D03*
X0199591Y0370959D03*
D46*
X0240536Y0352061D03*
X0242111Y0348912D03*
X0242111Y0347337D03*
X0242111Y0345762D03*
X0160221Y0314266D03*
X0160221Y0312691D03*
X0388568Y0388282D03*
D47*
X0385418Y0369384D03*
X0372820Y0312691D03*
D48*
X0238961Y0356786D03*
X0238961Y0358361D03*
X0237387Y0359935D03*
X0158646Y0322140D03*
X0158646Y0320565D03*
X0158646Y0318991D03*
D49*
X0375182Y0320565D03*
X0375182Y0322140D03*
X0384631Y0363085D03*
X0384631Y0364660D03*
D50*
X0235812Y0363085D03*
X0234237Y0364660D03*
X0196442Y0336313D03*
X0157072Y0333164D03*
X0157072Y0331589D03*
X0157072Y0330014D03*
D51*
X0378331Y0336313D03*
X0378331Y0337888D03*
X0379906Y0344187D03*
X0381481Y0352061D03*
D52*
X0230300Y0370959D03*
D53*
X0109800Y0138400D02*
X0083800Y0142400D01*
X0072800Y0145400D01*
X0065800Y0148900D01*
X0058800Y0153400D01*
X0050300Y0159400D01*
X0043800Y0164900D01*
X0038300Y0172400D01*
X0035300Y0177400D01*
X0033300Y0181400D01*
X0031800Y0185900D01*
X0031300Y0188900D01*
X0031300Y0192400D01*
X0031800Y0200400D01*
X0033300Y0210400D01*
X0035300Y0219400D01*
X0041800Y0231900D01*
X0050800Y0244400D01*
X0062300Y0256400D01*
X0072300Y0263400D01*
X0080300Y0270900D01*
X0087800Y0279400D01*
X0097800Y0295400D01*
X0099800Y0301400D01*
X0103800Y0314900D01*
X0106300Y0323400D01*
X0107800Y0332900D01*
X0108800Y0342900D01*
X0109300Y0348400D01*
X0110800Y0359400D01*
X0116300Y0373400D01*
X0124800Y0389900D01*
X0132300Y0399900D01*
X0142800Y0409400D01*
X0158300Y0420400D01*
X0164300Y0423400D01*
X0178300Y0429400D01*
X0188800Y0433400D01*
X0196800Y0435400D01*
X0206800Y0435900D01*
X0217800Y0435400D01*
X0238800Y0433400D01*
X0253800Y0429400D01*
X0270300Y0422400D01*
X0284800Y0413900D01*
X0298300Y0404900D01*
X0300800Y0402900D01*
X0305800Y0409400D01*
X0304800Y0410400D01*
X0301800Y0412900D01*
X0311300Y0428900D01*
X0343300Y0413400D01*
X0334300Y0396900D01*
X0320300Y0396400D01*
X0318800Y0390400D01*
X0325300Y0389400D01*
X0332800Y0388400D01*
X0340800Y0388900D01*
X0350300Y0391900D01*
X0360300Y0396400D01*
X0364800Y0398400D01*
X0375300Y0400400D01*
X0382800Y0400900D01*
X0395300Y0399900D01*
X0402300Y0397900D01*
X0409800Y0392900D01*
X0414800Y0388400D01*
X0417800Y0384900D01*
X0420300Y0379400D01*
X0421800Y0372400D01*
X0422300Y0364900D01*
X0421800Y0354900D01*
X0420300Y0339900D01*
X0418800Y0332900D01*
X0414300Y0323400D01*
X0408800Y0311900D01*
X0401300Y0300400D01*
X0390800Y0288400D01*
X0374800Y0269900D01*
X0353800Y0247400D01*
X0334800Y0230400D01*
X0319300Y0218400D01*
X0314300Y0214400D01*
X0312300Y0212900D01*
X0312300Y0209400D01*
X0312800Y0200400D01*
X0315300Y0186400D01*
X0317800Y0174400D01*
X0321300Y0162900D01*
X0325300Y0152400D01*
X0329800Y0142900D01*
X0331800Y0136900D01*
X0333300Y0131400D01*
X0334800Y0124400D01*
X0336800Y0111900D01*
X0336300Y0104900D01*
X0334300Y0094400D01*
X0330300Y0085900D01*
X0325300Y0081400D01*
X0318800Y0079900D01*
X0315800Y0077400D01*
X0309300Y0070400D01*
X0304800Y0066400D01*
X0298300Y0059900D01*
X0293300Y0055400D01*
X0287800Y0051900D01*
X0285300Y0050400D01*
X0280300Y0047900D01*
X0274800Y0045400D01*
X0266800Y0044400D01*
X0260300Y0044900D01*
X0254300Y0045900D01*
X0249800Y0046400D01*
X0241800Y0049400D01*
X0239800Y0050400D01*
X0238300Y0051900D01*
X0235800Y0054900D01*
X0234300Y0056900D01*
X0232300Y0058900D01*
X0230800Y0059900D01*
X0228800Y0060900D01*
X0225800Y0061900D01*
X0221300Y0062900D01*
X0217800Y0063400D01*
X0211800Y0064900D01*
X0207300Y0066900D01*
X0204300Y0069400D01*
X0199300Y0075400D01*
X0196300Y0081400D01*
X0195800Y0087400D01*
X0196300Y0091400D01*
X0198300Y0096400D01*
X0204300Y0110400D01*
X0206300Y0114400D01*
X0207800Y0120400D01*
X0208300Y0124900D01*
X0209300Y0131400D01*
X0209300Y0143400D01*
X0208800Y0147900D01*
X0207800Y0153900D01*
X0206300Y0156400D01*
X0204800Y0158400D01*
X0202800Y0159400D01*
X0202300Y0159400D01*
X0200300Y0158900D01*
X0187800Y0154900D01*
X0178300Y0150900D01*
X0169300Y0148400D01*
X0156800Y0144900D01*
X0144800Y0142400D01*
X0130300Y0139900D01*
X0119300Y0138400D01*
X0109800Y0138400D01*
X0078376Y0149100D02*
X0078378Y0149141D01*
X0078384Y0149181D01*
X0078394Y0149221D01*
X0078407Y0149260D01*
X0078425Y0149297D01*
X0078445Y0149332D01*
X0078469Y0149366D01*
X0078497Y0149396D01*
X0078527Y0149424D01*
X0078559Y0149449D01*
X0078594Y0149471D01*
X0078631Y0149489D01*
X0078669Y0149503D01*
X0078709Y0149514D01*
X0078749Y0149521D01*
X0078790Y0149524D01*
X0078831Y0149523D01*
X0078871Y0149518D01*
X0078911Y0149509D01*
X0078950Y0149496D01*
X0078988Y0149480D01*
X0079024Y0149460D01*
X0079057Y0149437D01*
X0079089Y0149410D01*
X0079117Y0149381D01*
X0079143Y0149349D01*
X0079165Y0149315D01*
X0079185Y0149279D01*
X0079200Y0149241D01*
X0079212Y0149201D01*
X0079220Y0149161D01*
X0079224Y0149120D01*
X0079224Y0149080D01*
X0079220Y0149039D01*
X0079212Y0148999D01*
X0079200Y0148959D01*
X0079185Y0148921D01*
X0079165Y0148885D01*
X0079143Y0148851D01*
X0079117Y0148819D01*
X0079089Y0148790D01*
X0079057Y0148763D01*
X0079024Y0148740D01*
X0078988Y0148720D01*
X0078950Y0148704D01*
X0078911Y0148691D01*
X0078871Y0148682D01*
X0078831Y0148677D01*
X0078790Y0148676D01*
X0078749Y0148679D01*
X0078709Y0148686D01*
X0078669Y0148697D01*
X0078631Y0148711D01*
X0078594Y0148729D01*
X0078559Y0148751D01*
X0078527Y0148776D01*
X0078497Y0148804D01*
X0078469Y0148834D01*
X0078445Y0148868D01*
X0078425Y0148903D01*
X0078407Y0148940D01*
X0078394Y0148979D01*
X0078384Y0149019D01*
X0078378Y0149059D01*
X0078376Y0149100D01*
X0036276Y0182900D02*
X0036278Y0182941D01*
X0036284Y0182981D01*
X0036294Y0183021D01*
X0036307Y0183060D01*
X0036325Y0183097D01*
X0036345Y0183132D01*
X0036369Y0183166D01*
X0036397Y0183196D01*
X0036427Y0183224D01*
X0036459Y0183249D01*
X0036494Y0183271D01*
X0036531Y0183289D01*
X0036569Y0183303D01*
X0036609Y0183314D01*
X0036649Y0183321D01*
X0036690Y0183324D01*
X0036731Y0183323D01*
X0036771Y0183318D01*
X0036811Y0183309D01*
X0036850Y0183296D01*
X0036888Y0183280D01*
X0036924Y0183260D01*
X0036957Y0183237D01*
X0036989Y0183210D01*
X0037017Y0183181D01*
X0037043Y0183149D01*
X0037065Y0183115D01*
X0037085Y0183079D01*
X0037100Y0183041D01*
X0037112Y0183001D01*
X0037120Y0182961D01*
X0037124Y0182920D01*
X0037124Y0182880D01*
X0037120Y0182839D01*
X0037112Y0182799D01*
X0037100Y0182759D01*
X0037085Y0182721D01*
X0037065Y0182685D01*
X0037043Y0182651D01*
X0037017Y0182619D01*
X0036989Y0182590D01*
X0036957Y0182563D01*
X0036924Y0182540D01*
X0036888Y0182520D01*
X0036850Y0182504D01*
X0036811Y0182491D01*
X0036771Y0182482D01*
X0036731Y0182477D01*
X0036690Y0182476D01*
X0036649Y0182479D01*
X0036609Y0182486D01*
X0036569Y0182497D01*
X0036531Y0182511D01*
X0036494Y0182529D01*
X0036459Y0182551D01*
X0036427Y0182576D01*
X0036397Y0182604D01*
X0036369Y0182634D01*
X0036345Y0182668D01*
X0036325Y0182703D01*
X0036307Y0182740D01*
X0036294Y0182779D01*
X0036284Y0182819D01*
X0036278Y0182859D01*
X0036276Y0182900D01*
X0057976Y0243100D02*
X0057978Y0243141D01*
X0057984Y0243181D01*
X0057994Y0243221D01*
X0058007Y0243260D01*
X0058025Y0243297D01*
X0058045Y0243332D01*
X0058069Y0243366D01*
X0058097Y0243396D01*
X0058127Y0243424D01*
X0058159Y0243449D01*
X0058194Y0243471D01*
X0058231Y0243489D01*
X0058269Y0243503D01*
X0058309Y0243514D01*
X0058349Y0243521D01*
X0058390Y0243524D01*
X0058431Y0243523D01*
X0058471Y0243518D01*
X0058511Y0243509D01*
X0058550Y0243496D01*
X0058588Y0243480D01*
X0058624Y0243460D01*
X0058657Y0243437D01*
X0058689Y0243410D01*
X0058717Y0243381D01*
X0058743Y0243349D01*
X0058765Y0243315D01*
X0058785Y0243279D01*
X0058800Y0243241D01*
X0058812Y0243201D01*
X0058820Y0243161D01*
X0058824Y0243120D01*
X0058824Y0243080D01*
X0058820Y0243039D01*
X0058812Y0242999D01*
X0058800Y0242959D01*
X0058785Y0242921D01*
X0058765Y0242885D01*
X0058743Y0242851D01*
X0058717Y0242819D01*
X0058689Y0242790D01*
X0058657Y0242763D01*
X0058624Y0242740D01*
X0058588Y0242720D01*
X0058550Y0242704D01*
X0058511Y0242691D01*
X0058471Y0242682D01*
X0058431Y0242677D01*
X0058390Y0242676D01*
X0058349Y0242679D01*
X0058309Y0242686D01*
X0058269Y0242697D01*
X0058231Y0242711D01*
X0058194Y0242729D01*
X0058159Y0242751D01*
X0058127Y0242776D01*
X0058097Y0242804D01*
X0058069Y0242834D01*
X0058045Y0242868D01*
X0058025Y0242903D01*
X0058007Y0242940D01*
X0057994Y0242979D01*
X0057984Y0243019D01*
X0057978Y0243059D01*
X0057976Y0243100D01*
X0081976Y0264200D02*
X0081978Y0264241D01*
X0081984Y0264281D01*
X0081994Y0264321D01*
X0082007Y0264360D01*
X0082025Y0264397D01*
X0082045Y0264432D01*
X0082069Y0264466D01*
X0082097Y0264496D01*
X0082127Y0264524D01*
X0082159Y0264549D01*
X0082194Y0264571D01*
X0082231Y0264589D01*
X0082269Y0264603D01*
X0082309Y0264614D01*
X0082349Y0264621D01*
X0082390Y0264624D01*
X0082431Y0264623D01*
X0082471Y0264618D01*
X0082511Y0264609D01*
X0082550Y0264596D01*
X0082588Y0264580D01*
X0082624Y0264560D01*
X0082657Y0264537D01*
X0082689Y0264510D01*
X0082717Y0264481D01*
X0082743Y0264449D01*
X0082765Y0264415D01*
X0082785Y0264379D01*
X0082800Y0264341D01*
X0082812Y0264301D01*
X0082820Y0264261D01*
X0082824Y0264220D01*
X0082824Y0264180D01*
X0082820Y0264139D01*
X0082812Y0264099D01*
X0082800Y0264059D01*
X0082785Y0264021D01*
X0082765Y0263985D01*
X0082743Y0263951D01*
X0082717Y0263919D01*
X0082689Y0263890D01*
X0082657Y0263863D01*
X0082624Y0263840D01*
X0082588Y0263820D01*
X0082550Y0263804D01*
X0082511Y0263791D01*
X0082471Y0263782D01*
X0082431Y0263777D01*
X0082390Y0263776D01*
X0082349Y0263779D01*
X0082309Y0263786D01*
X0082269Y0263797D01*
X0082231Y0263811D01*
X0082194Y0263829D01*
X0082159Y0263851D01*
X0082127Y0263876D01*
X0082097Y0263904D01*
X0082069Y0263934D01*
X0082045Y0263968D01*
X0082025Y0264003D01*
X0082007Y0264040D01*
X0081994Y0264079D01*
X0081984Y0264119D01*
X0081978Y0264159D01*
X0081976Y0264200D01*
X0105276Y0299800D02*
X0105278Y0299841D01*
X0105284Y0299881D01*
X0105294Y0299921D01*
X0105307Y0299960D01*
X0105325Y0299997D01*
X0105345Y0300032D01*
X0105369Y0300066D01*
X0105397Y0300096D01*
X0105427Y0300124D01*
X0105459Y0300149D01*
X0105494Y0300171D01*
X0105531Y0300189D01*
X0105569Y0300203D01*
X0105609Y0300214D01*
X0105649Y0300221D01*
X0105690Y0300224D01*
X0105731Y0300223D01*
X0105771Y0300218D01*
X0105811Y0300209D01*
X0105850Y0300196D01*
X0105888Y0300180D01*
X0105924Y0300160D01*
X0105957Y0300137D01*
X0105989Y0300110D01*
X0106017Y0300081D01*
X0106043Y0300049D01*
X0106065Y0300015D01*
X0106085Y0299979D01*
X0106100Y0299941D01*
X0106112Y0299901D01*
X0106120Y0299861D01*
X0106124Y0299820D01*
X0106124Y0299780D01*
X0106120Y0299739D01*
X0106112Y0299699D01*
X0106100Y0299659D01*
X0106085Y0299621D01*
X0106065Y0299585D01*
X0106043Y0299551D01*
X0106017Y0299519D01*
X0105989Y0299490D01*
X0105957Y0299463D01*
X0105924Y0299440D01*
X0105888Y0299420D01*
X0105850Y0299404D01*
X0105811Y0299391D01*
X0105771Y0299382D01*
X0105731Y0299377D01*
X0105690Y0299376D01*
X0105649Y0299379D01*
X0105609Y0299386D01*
X0105569Y0299397D01*
X0105531Y0299411D01*
X0105494Y0299429D01*
X0105459Y0299451D01*
X0105427Y0299476D01*
X0105397Y0299504D01*
X0105369Y0299534D01*
X0105345Y0299568D01*
X0105325Y0299603D01*
X0105307Y0299640D01*
X0105294Y0299679D01*
X0105284Y0299719D01*
X0105278Y0299759D01*
X0105276Y0299800D01*
X0149176Y0316800D02*
X0149178Y0316841D01*
X0149184Y0316881D01*
X0149194Y0316921D01*
X0149207Y0316960D01*
X0149225Y0316997D01*
X0149245Y0317032D01*
X0149269Y0317066D01*
X0149297Y0317096D01*
X0149327Y0317124D01*
X0149359Y0317149D01*
X0149394Y0317171D01*
X0149431Y0317189D01*
X0149469Y0317203D01*
X0149509Y0317214D01*
X0149549Y0317221D01*
X0149590Y0317224D01*
X0149631Y0317223D01*
X0149671Y0317218D01*
X0149711Y0317209D01*
X0149750Y0317196D01*
X0149788Y0317180D01*
X0149824Y0317160D01*
X0149857Y0317137D01*
X0149889Y0317110D01*
X0149917Y0317081D01*
X0149943Y0317049D01*
X0149965Y0317015D01*
X0149985Y0316979D01*
X0150000Y0316941D01*
X0150012Y0316901D01*
X0150020Y0316861D01*
X0150024Y0316820D01*
X0150024Y0316780D01*
X0150020Y0316739D01*
X0150012Y0316699D01*
X0150000Y0316659D01*
X0149985Y0316621D01*
X0149965Y0316585D01*
X0149943Y0316551D01*
X0149917Y0316519D01*
X0149889Y0316490D01*
X0149857Y0316463D01*
X0149824Y0316440D01*
X0149788Y0316420D01*
X0149750Y0316404D01*
X0149711Y0316391D01*
X0149671Y0316382D01*
X0149631Y0316377D01*
X0149590Y0316376D01*
X0149549Y0316379D01*
X0149509Y0316386D01*
X0149469Y0316397D01*
X0149431Y0316411D01*
X0149394Y0316429D01*
X0149359Y0316451D01*
X0149327Y0316476D01*
X0149297Y0316504D01*
X0149269Y0316534D01*
X0149245Y0316568D01*
X0149225Y0316603D01*
X0149207Y0316640D01*
X0149194Y0316679D01*
X0149184Y0316719D01*
X0149178Y0316759D01*
X0149176Y0316800D01*
X0154876Y0351000D02*
X0154878Y0351041D01*
X0154884Y0351081D01*
X0154894Y0351121D01*
X0154907Y0351160D01*
X0154925Y0351197D01*
X0154945Y0351232D01*
X0154969Y0351266D01*
X0154997Y0351296D01*
X0155027Y0351324D01*
X0155059Y0351349D01*
X0155094Y0351371D01*
X0155131Y0351389D01*
X0155169Y0351403D01*
X0155209Y0351414D01*
X0155249Y0351421D01*
X0155290Y0351424D01*
X0155331Y0351423D01*
X0155371Y0351418D01*
X0155411Y0351409D01*
X0155450Y0351396D01*
X0155488Y0351380D01*
X0155524Y0351360D01*
X0155557Y0351337D01*
X0155589Y0351310D01*
X0155617Y0351281D01*
X0155643Y0351249D01*
X0155665Y0351215D01*
X0155685Y0351179D01*
X0155700Y0351141D01*
X0155712Y0351101D01*
X0155720Y0351061D01*
X0155724Y0351020D01*
X0155724Y0350980D01*
X0155720Y0350939D01*
X0155712Y0350899D01*
X0155700Y0350859D01*
X0155685Y0350821D01*
X0155665Y0350785D01*
X0155643Y0350751D01*
X0155617Y0350719D01*
X0155589Y0350690D01*
X0155557Y0350663D01*
X0155524Y0350640D01*
X0155488Y0350620D01*
X0155450Y0350604D01*
X0155411Y0350591D01*
X0155371Y0350582D01*
X0155331Y0350577D01*
X0155290Y0350576D01*
X0155249Y0350579D01*
X0155209Y0350586D01*
X0155169Y0350597D01*
X0155131Y0350611D01*
X0155094Y0350629D01*
X0155059Y0350651D01*
X0155027Y0350676D01*
X0154997Y0350704D01*
X0154969Y0350734D01*
X0154945Y0350768D01*
X0154925Y0350803D01*
X0154907Y0350840D01*
X0154894Y0350879D01*
X0154884Y0350919D01*
X0154878Y0350959D01*
X0154876Y0351000D01*
X0178376Y0376700D02*
X0178378Y0376741D01*
X0178384Y0376781D01*
X0178394Y0376821D01*
X0178407Y0376860D01*
X0178425Y0376897D01*
X0178445Y0376932D01*
X0178469Y0376966D01*
X0178497Y0376996D01*
X0178527Y0377024D01*
X0178559Y0377049D01*
X0178594Y0377071D01*
X0178631Y0377089D01*
X0178669Y0377103D01*
X0178709Y0377114D01*
X0178749Y0377121D01*
X0178790Y0377124D01*
X0178831Y0377123D01*
X0178871Y0377118D01*
X0178911Y0377109D01*
X0178950Y0377096D01*
X0178988Y0377080D01*
X0179024Y0377060D01*
X0179057Y0377037D01*
X0179089Y0377010D01*
X0179117Y0376981D01*
X0179143Y0376949D01*
X0179165Y0376915D01*
X0179185Y0376879D01*
X0179200Y0376841D01*
X0179212Y0376801D01*
X0179220Y0376761D01*
X0179224Y0376720D01*
X0179224Y0376680D01*
X0179220Y0376639D01*
X0179212Y0376599D01*
X0179200Y0376559D01*
X0179185Y0376521D01*
X0179165Y0376485D01*
X0179143Y0376451D01*
X0179117Y0376419D01*
X0179089Y0376390D01*
X0179057Y0376363D01*
X0179024Y0376340D01*
X0178988Y0376320D01*
X0178950Y0376304D01*
X0178911Y0376291D01*
X0178871Y0376282D01*
X0178831Y0376277D01*
X0178790Y0376276D01*
X0178749Y0376279D01*
X0178709Y0376286D01*
X0178669Y0376297D01*
X0178631Y0376311D01*
X0178594Y0376329D01*
X0178559Y0376351D01*
X0178527Y0376376D01*
X0178497Y0376404D01*
X0178469Y0376434D01*
X0178445Y0376468D01*
X0178425Y0376503D01*
X0178407Y0376540D01*
X0178394Y0376579D01*
X0178384Y0376619D01*
X0178378Y0376659D01*
X0178376Y0376700D01*
X0181976Y0396400D02*
X0181978Y0396441D01*
X0181984Y0396481D01*
X0181994Y0396521D01*
X0182007Y0396560D01*
X0182025Y0396597D01*
X0182045Y0396632D01*
X0182069Y0396666D01*
X0182097Y0396696D01*
X0182127Y0396724D01*
X0182159Y0396749D01*
X0182194Y0396771D01*
X0182231Y0396789D01*
X0182269Y0396803D01*
X0182309Y0396814D01*
X0182349Y0396821D01*
X0182390Y0396824D01*
X0182431Y0396823D01*
X0182471Y0396818D01*
X0182511Y0396809D01*
X0182550Y0396796D01*
X0182588Y0396780D01*
X0182624Y0396760D01*
X0182657Y0396737D01*
X0182689Y0396710D01*
X0182717Y0396681D01*
X0182743Y0396649D01*
X0182765Y0396615D01*
X0182785Y0396579D01*
X0182800Y0396541D01*
X0182812Y0396501D01*
X0182820Y0396461D01*
X0182824Y0396420D01*
X0182824Y0396380D01*
X0182820Y0396339D01*
X0182812Y0396299D01*
X0182800Y0396259D01*
X0182785Y0396221D01*
X0182765Y0396185D01*
X0182743Y0396151D01*
X0182717Y0396119D01*
X0182689Y0396090D01*
X0182657Y0396063D01*
X0182624Y0396040D01*
X0182588Y0396020D01*
X0182550Y0396004D01*
X0182511Y0395991D01*
X0182471Y0395982D01*
X0182431Y0395977D01*
X0182390Y0395976D01*
X0182349Y0395979D01*
X0182309Y0395986D01*
X0182269Y0395997D01*
X0182231Y0396011D01*
X0182194Y0396029D01*
X0182159Y0396051D01*
X0182127Y0396076D01*
X0182097Y0396104D01*
X0182069Y0396134D01*
X0182045Y0396168D01*
X0182025Y0396203D01*
X0182007Y0396240D01*
X0181994Y0396279D01*
X0181984Y0396319D01*
X0181978Y0396359D01*
X0181976Y0396400D01*
X0191200Y0415100D02*
X0149700Y0392600D01*
X0145800Y0399900D01*
X0146300Y0402400D01*
X0147800Y0405400D01*
X0149800Y0407900D01*
X0159300Y0413900D01*
X0167300Y0418400D01*
X0172800Y0420900D01*
X0176800Y0422400D01*
X0181800Y0422900D01*
X0186300Y0422400D01*
X0187300Y0421900D01*
X0191200Y0415100D01*
X0214376Y0429500D02*
X0214378Y0429541D01*
X0214384Y0429581D01*
X0214394Y0429621D01*
X0214407Y0429660D01*
X0214425Y0429697D01*
X0214445Y0429732D01*
X0214469Y0429766D01*
X0214497Y0429796D01*
X0214527Y0429824D01*
X0214559Y0429849D01*
X0214594Y0429871D01*
X0214631Y0429889D01*
X0214669Y0429903D01*
X0214709Y0429914D01*
X0214749Y0429921D01*
X0214790Y0429924D01*
X0214831Y0429923D01*
X0214871Y0429918D01*
X0214911Y0429909D01*
X0214950Y0429896D01*
X0214988Y0429880D01*
X0215024Y0429860D01*
X0215057Y0429837D01*
X0215089Y0429810D01*
X0215117Y0429781D01*
X0215143Y0429749D01*
X0215165Y0429715D01*
X0215185Y0429679D01*
X0215200Y0429641D01*
X0215212Y0429601D01*
X0215220Y0429561D01*
X0215224Y0429520D01*
X0215224Y0429480D01*
X0215220Y0429439D01*
X0215212Y0429399D01*
X0215200Y0429359D01*
X0215185Y0429321D01*
X0215165Y0429285D01*
X0215143Y0429251D01*
X0215117Y0429219D01*
X0215089Y0429190D01*
X0215057Y0429163D01*
X0215024Y0429140D01*
X0214988Y0429120D01*
X0214950Y0429104D01*
X0214911Y0429091D01*
X0214871Y0429082D01*
X0214831Y0429077D01*
X0214790Y0429076D01*
X0214749Y0429079D01*
X0214709Y0429086D01*
X0214669Y0429097D01*
X0214631Y0429111D01*
X0214594Y0429129D01*
X0214559Y0429151D01*
X0214527Y0429176D01*
X0214497Y0429204D01*
X0214469Y0429234D01*
X0214445Y0429268D01*
X0214425Y0429303D01*
X0214407Y0429340D01*
X0214394Y0429379D01*
X0214384Y0429419D01*
X0214378Y0429459D01*
X0214376Y0429500D01*
X0244876Y0425100D02*
X0244878Y0425141D01*
X0244884Y0425181D01*
X0244894Y0425221D01*
X0244907Y0425260D01*
X0244925Y0425297D01*
X0244945Y0425332D01*
X0244969Y0425366D01*
X0244997Y0425396D01*
X0245027Y0425424D01*
X0245059Y0425449D01*
X0245094Y0425471D01*
X0245131Y0425489D01*
X0245169Y0425503D01*
X0245209Y0425514D01*
X0245249Y0425521D01*
X0245290Y0425524D01*
X0245331Y0425523D01*
X0245371Y0425518D01*
X0245411Y0425509D01*
X0245450Y0425496D01*
X0245488Y0425480D01*
X0245524Y0425460D01*
X0245557Y0425437D01*
X0245589Y0425410D01*
X0245617Y0425381D01*
X0245643Y0425349D01*
X0245665Y0425315D01*
X0245685Y0425279D01*
X0245700Y0425241D01*
X0245712Y0425201D01*
X0245720Y0425161D01*
X0245724Y0425120D01*
X0245724Y0425080D01*
X0245720Y0425039D01*
X0245712Y0424999D01*
X0245700Y0424959D01*
X0245685Y0424921D01*
X0245665Y0424885D01*
X0245643Y0424851D01*
X0245617Y0424819D01*
X0245589Y0424790D01*
X0245557Y0424763D01*
X0245524Y0424740D01*
X0245488Y0424720D01*
X0245450Y0424704D01*
X0245411Y0424691D01*
X0245371Y0424682D01*
X0245331Y0424677D01*
X0245290Y0424676D01*
X0245249Y0424679D01*
X0245209Y0424686D01*
X0245169Y0424697D01*
X0245131Y0424711D01*
X0245094Y0424729D01*
X0245059Y0424751D01*
X0245027Y0424776D01*
X0244997Y0424804D01*
X0244969Y0424834D01*
X0244945Y0424868D01*
X0244925Y0424903D01*
X0244907Y0424940D01*
X0244894Y0424979D01*
X0244884Y0425019D01*
X0244878Y0425059D01*
X0244876Y0425100D01*
X0283076Y0407400D02*
X0283078Y0407441D01*
X0283084Y0407481D01*
X0283094Y0407521D01*
X0283107Y0407560D01*
X0283125Y0407597D01*
X0283145Y0407632D01*
X0283169Y0407666D01*
X0283197Y0407696D01*
X0283227Y0407724D01*
X0283259Y0407749D01*
X0283294Y0407771D01*
X0283331Y0407789D01*
X0283369Y0407803D01*
X0283409Y0407814D01*
X0283449Y0407821D01*
X0283490Y0407824D01*
X0283531Y0407823D01*
X0283571Y0407818D01*
X0283611Y0407809D01*
X0283650Y0407796D01*
X0283688Y0407780D01*
X0283724Y0407760D01*
X0283757Y0407737D01*
X0283789Y0407710D01*
X0283817Y0407681D01*
X0283843Y0407649D01*
X0283865Y0407615D01*
X0283885Y0407579D01*
X0283900Y0407541D01*
X0283912Y0407501D01*
X0283920Y0407461D01*
X0283924Y0407420D01*
X0283924Y0407380D01*
X0283920Y0407339D01*
X0283912Y0407299D01*
X0283900Y0407259D01*
X0283885Y0407221D01*
X0283865Y0407185D01*
X0283843Y0407151D01*
X0283817Y0407119D01*
X0283789Y0407090D01*
X0283757Y0407063D01*
X0283724Y0407040D01*
X0283688Y0407020D01*
X0283650Y0407004D01*
X0283611Y0406991D01*
X0283571Y0406982D01*
X0283531Y0406977D01*
X0283490Y0406976D01*
X0283449Y0406979D01*
X0283409Y0406986D01*
X0283369Y0406997D01*
X0283331Y0407011D01*
X0283294Y0407029D01*
X0283259Y0407051D01*
X0283227Y0407076D01*
X0283197Y0407104D01*
X0283169Y0407134D01*
X0283145Y0407168D01*
X0283125Y0407203D01*
X0283107Y0407240D01*
X0283094Y0407279D01*
X0283084Y0407319D01*
X0283078Y0407359D01*
X0283076Y0407400D01*
X0307760Y0416356D02*
X0309991Y0420830D01*
X0313344Y0421952D01*
X0317819Y0419721D01*
X0318941Y0416368D01*
X0322294Y0417490D01*
X0326768Y0415259D01*
X0327890Y0411906D01*
X0331243Y0413028D01*
X0335718Y0410797D01*
X0336840Y0407444D01*
X0334609Y0402970D01*
X0331256Y0401848D01*
X0326781Y0404079D01*
X0325659Y0407432D01*
X0322306Y0406310D01*
X0317832Y0408541D01*
X0316710Y0411894D01*
X0313357Y0410772D01*
X0308882Y0413003D01*
X0307760Y0416356D01*
X0316710Y0411894D02*
X0318941Y0416368D01*
X0327890Y0411906D02*
X0325659Y0407432D01*
X0328576Y0381900D02*
X0328578Y0381941D01*
X0328584Y0381981D01*
X0328594Y0382021D01*
X0328607Y0382060D01*
X0328625Y0382097D01*
X0328645Y0382132D01*
X0328669Y0382166D01*
X0328697Y0382196D01*
X0328727Y0382224D01*
X0328759Y0382249D01*
X0328794Y0382271D01*
X0328831Y0382289D01*
X0328869Y0382303D01*
X0328909Y0382314D01*
X0328949Y0382321D01*
X0328990Y0382324D01*
X0329031Y0382323D01*
X0329071Y0382318D01*
X0329111Y0382309D01*
X0329150Y0382296D01*
X0329188Y0382280D01*
X0329224Y0382260D01*
X0329257Y0382237D01*
X0329289Y0382210D01*
X0329317Y0382181D01*
X0329343Y0382149D01*
X0329365Y0382115D01*
X0329385Y0382079D01*
X0329400Y0382041D01*
X0329412Y0382001D01*
X0329420Y0381961D01*
X0329424Y0381920D01*
X0329424Y0381880D01*
X0329420Y0381839D01*
X0329412Y0381799D01*
X0329400Y0381759D01*
X0329385Y0381721D01*
X0329365Y0381685D01*
X0329343Y0381651D01*
X0329317Y0381619D01*
X0329289Y0381590D01*
X0329257Y0381563D01*
X0329224Y0381540D01*
X0329188Y0381520D01*
X0329150Y0381504D01*
X0329111Y0381491D01*
X0329071Y0381482D01*
X0329031Y0381477D01*
X0328990Y0381476D01*
X0328949Y0381479D01*
X0328909Y0381486D01*
X0328869Y0381497D01*
X0328831Y0381511D01*
X0328794Y0381529D01*
X0328759Y0381551D01*
X0328727Y0381576D01*
X0328697Y0381604D01*
X0328669Y0381634D01*
X0328645Y0381668D01*
X0328625Y0381703D01*
X0328607Y0381740D01*
X0328594Y0381779D01*
X0328584Y0381819D01*
X0328578Y0381859D01*
X0328576Y0381900D01*
X0382476Y0394900D02*
X0382478Y0394941D01*
X0382484Y0394981D01*
X0382494Y0395021D01*
X0382507Y0395060D01*
X0382525Y0395097D01*
X0382545Y0395132D01*
X0382569Y0395166D01*
X0382597Y0395196D01*
X0382627Y0395224D01*
X0382659Y0395249D01*
X0382694Y0395271D01*
X0382731Y0395289D01*
X0382769Y0395303D01*
X0382809Y0395314D01*
X0382849Y0395321D01*
X0382890Y0395324D01*
X0382931Y0395323D01*
X0382971Y0395318D01*
X0383011Y0395309D01*
X0383050Y0395296D01*
X0383088Y0395280D01*
X0383124Y0395260D01*
X0383157Y0395237D01*
X0383189Y0395210D01*
X0383217Y0395181D01*
X0383243Y0395149D01*
X0383265Y0395115D01*
X0383285Y0395079D01*
X0383300Y0395041D01*
X0383312Y0395001D01*
X0383320Y0394961D01*
X0383324Y0394920D01*
X0383324Y0394880D01*
X0383320Y0394839D01*
X0383312Y0394799D01*
X0383300Y0394759D01*
X0383285Y0394721D01*
X0383265Y0394685D01*
X0383243Y0394651D01*
X0383217Y0394619D01*
X0383189Y0394590D01*
X0383157Y0394563D01*
X0383124Y0394540D01*
X0383088Y0394520D01*
X0383050Y0394504D01*
X0383011Y0394491D01*
X0382971Y0394482D01*
X0382931Y0394477D01*
X0382890Y0394476D01*
X0382849Y0394479D01*
X0382809Y0394486D01*
X0382769Y0394497D01*
X0382731Y0394511D01*
X0382694Y0394529D01*
X0382659Y0394551D01*
X0382627Y0394576D01*
X0382597Y0394604D01*
X0382569Y0394634D01*
X0382545Y0394668D01*
X0382525Y0394703D01*
X0382507Y0394740D01*
X0382494Y0394779D01*
X0382484Y0394819D01*
X0382478Y0394859D01*
X0382476Y0394900D01*
X0415476Y0362700D02*
X0415478Y0362741D01*
X0415484Y0362781D01*
X0415494Y0362821D01*
X0415507Y0362860D01*
X0415525Y0362897D01*
X0415545Y0362932D01*
X0415569Y0362966D01*
X0415597Y0362996D01*
X0415627Y0363024D01*
X0415659Y0363049D01*
X0415694Y0363071D01*
X0415731Y0363089D01*
X0415769Y0363103D01*
X0415809Y0363114D01*
X0415849Y0363121D01*
X0415890Y0363124D01*
X0415931Y0363123D01*
X0415971Y0363118D01*
X0416011Y0363109D01*
X0416050Y0363096D01*
X0416088Y0363080D01*
X0416124Y0363060D01*
X0416157Y0363037D01*
X0416189Y0363010D01*
X0416217Y0362981D01*
X0416243Y0362949D01*
X0416265Y0362915D01*
X0416285Y0362879D01*
X0416300Y0362841D01*
X0416312Y0362801D01*
X0416320Y0362761D01*
X0416324Y0362720D01*
X0416324Y0362680D01*
X0416320Y0362639D01*
X0416312Y0362599D01*
X0416300Y0362559D01*
X0416285Y0362521D01*
X0416265Y0362485D01*
X0416243Y0362451D01*
X0416217Y0362419D01*
X0416189Y0362390D01*
X0416157Y0362363D01*
X0416124Y0362340D01*
X0416088Y0362320D01*
X0416050Y0362304D01*
X0416011Y0362291D01*
X0415971Y0362282D01*
X0415931Y0362277D01*
X0415890Y0362276D01*
X0415849Y0362279D01*
X0415809Y0362286D01*
X0415769Y0362297D01*
X0415731Y0362311D01*
X0415694Y0362329D01*
X0415659Y0362351D01*
X0415627Y0362376D01*
X0415597Y0362404D01*
X0415569Y0362434D01*
X0415545Y0362468D01*
X0415525Y0362503D01*
X0415507Y0362540D01*
X0415494Y0362579D01*
X0415484Y0362619D01*
X0415478Y0362659D01*
X0415476Y0362700D01*
X0403676Y0315300D02*
X0403678Y0315341D01*
X0403684Y0315381D01*
X0403694Y0315421D01*
X0403707Y0315460D01*
X0403725Y0315497D01*
X0403745Y0315532D01*
X0403769Y0315566D01*
X0403797Y0315596D01*
X0403827Y0315624D01*
X0403859Y0315649D01*
X0403894Y0315671D01*
X0403931Y0315689D01*
X0403969Y0315703D01*
X0404009Y0315714D01*
X0404049Y0315721D01*
X0404090Y0315724D01*
X0404131Y0315723D01*
X0404171Y0315718D01*
X0404211Y0315709D01*
X0404250Y0315696D01*
X0404288Y0315680D01*
X0404324Y0315660D01*
X0404357Y0315637D01*
X0404389Y0315610D01*
X0404417Y0315581D01*
X0404443Y0315549D01*
X0404465Y0315515D01*
X0404485Y0315479D01*
X0404500Y0315441D01*
X0404512Y0315401D01*
X0404520Y0315361D01*
X0404524Y0315320D01*
X0404524Y0315280D01*
X0404520Y0315239D01*
X0404512Y0315199D01*
X0404500Y0315159D01*
X0404485Y0315121D01*
X0404465Y0315085D01*
X0404443Y0315051D01*
X0404417Y0315019D01*
X0404389Y0314990D01*
X0404357Y0314963D01*
X0404324Y0314940D01*
X0404288Y0314920D01*
X0404250Y0314904D01*
X0404211Y0314891D01*
X0404171Y0314882D01*
X0404131Y0314877D01*
X0404090Y0314876D01*
X0404049Y0314879D01*
X0404009Y0314886D01*
X0403969Y0314897D01*
X0403931Y0314911D01*
X0403894Y0314929D01*
X0403859Y0314951D01*
X0403827Y0314976D01*
X0403797Y0315004D01*
X0403769Y0315034D01*
X0403745Y0315068D01*
X0403725Y0315103D01*
X0403707Y0315140D01*
X0403694Y0315179D01*
X0403684Y0315219D01*
X0403678Y0315259D01*
X0403676Y0315300D01*
X0365476Y0269000D02*
X0365478Y0269041D01*
X0365484Y0269081D01*
X0365494Y0269121D01*
X0365507Y0269160D01*
X0365525Y0269197D01*
X0365545Y0269232D01*
X0365569Y0269266D01*
X0365597Y0269296D01*
X0365627Y0269324D01*
X0365659Y0269349D01*
X0365694Y0269371D01*
X0365731Y0269389D01*
X0365769Y0269403D01*
X0365809Y0269414D01*
X0365849Y0269421D01*
X0365890Y0269424D01*
X0365931Y0269423D01*
X0365971Y0269418D01*
X0366011Y0269409D01*
X0366050Y0269396D01*
X0366088Y0269380D01*
X0366124Y0269360D01*
X0366157Y0269337D01*
X0366189Y0269310D01*
X0366217Y0269281D01*
X0366243Y0269249D01*
X0366265Y0269215D01*
X0366285Y0269179D01*
X0366300Y0269141D01*
X0366312Y0269101D01*
X0366320Y0269061D01*
X0366324Y0269020D01*
X0366324Y0268980D01*
X0366320Y0268939D01*
X0366312Y0268899D01*
X0366300Y0268859D01*
X0366285Y0268821D01*
X0366265Y0268785D01*
X0366243Y0268751D01*
X0366217Y0268719D01*
X0366189Y0268690D01*
X0366157Y0268663D01*
X0366124Y0268640D01*
X0366088Y0268620D01*
X0366050Y0268604D01*
X0366011Y0268591D01*
X0365971Y0268582D01*
X0365931Y0268577D01*
X0365890Y0268576D01*
X0365849Y0268579D01*
X0365809Y0268586D01*
X0365769Y0268597D01*
X0365731Y0268611D01*
X0365694Y0268629D01*
X0365659Y0268651D01*
X0365627Y0268676D01*
X0365597Y0268704D01*
X0365569Y0268734D01*
X0365545Y0268768D01*
X0365525Y0268803D01*
X0365507Y0268840D01*
X0365494Y0268879D01*
X0365484Y0268919D01*
X0365478Y0268959D01*
X0365476Y0269000D01*
X0321476Y0229600D02*
X0321478Y0229641D01*
X0321484Y0229681D01*
X0321494Y0229721D01*
X0321507Y0229760D01*
X0321525Y0229797D01*
X0321545Y0229832D01*
X0321569Y0229866D01*
X0321597Y0229896D01*
X0321627Y0229924D01*
X0321659Y0229949D01*
X0321694Y0229971D01*
X0321731Y0229989D01*
X0321769Y0230003D01*
X0321809Y0230014D01*
X0321849Y0230021D01*
X0321890Y0230024D01*
X0321931Y0230023D01*
X0321971Y0230018D01*
X0322011Y0230009D01*
X0322050Y0229996D01*
X0322088Y0229980D01*
X0322124Y0229960D01*
X0322157Y0229937D01*
X0322189Y0229910D01*
X0322217Y0229881D01*
X0322243Y0229849D01*
X0322265Y0229815D01*
X0322285Y0229779D01*
X0322300Y0229741D01*
X0322312Y0229701D01*
X0322320Y0229661D01*
X0322324Y0229620D01*
X0322324Y0229580D01*
X0322320Y0229539D01*
X0322312Y0229499D01*
X0322300Y0229459D01*
X0322285Y0229421D01*
X0322265Y0229385D01*
X0322243Y0229351D01*
X0322217Y0229319D01*
X0322189Y0229290D01*
X0322157Y0229263D01*
X0322124Y0229240D01*
X0322088Y0229220D01*
X0322050Y0229204D01*
X0322011Y0229191D01*
X0321971Y0229182D01*
X0321931Y0229177D01*
X0321890Y0229176D01*
X0321849Y0229179D01*
X0321809Y0229186D01*
X0321769Y0229197D01*
X0321731Y0229211D01*
X0321694Y0229229D01*
X0321659Y0229251D01*
X0321627Y0229276D01*
X0321597Y0229304D01*
X0321569Y0229334D01*
X0321545Y0229368D01*
X0321525Y0229403D01*
X0321507Y0229440D01*
X0321494Y0229479D01*
X0321484Y0229519D01*
X0321478Y0229559D01*
X0321476Y0229600D01*
X0267776Y0193000D02*
X0267778Y0193041D01*
X0267784Y0193081D01*
X0267794Y0193121D01*
X0267807Y0193160D01*
X0267825Y0193197D01*
X0267845Y0193232D01*
X0267869Y0193266D01*
X0267897Y0193296D01*
X0267927Y0193324D01*
X0267959Y0193349D01*
X0267994Y0193371D01*
X0268031Y0193389D01*
X0268069Y0193403D01*
X0268109Y0193414D01*
X0268149Y0193421D01*
X0268190Y0193424D01*
X0268231Y0193423D01*
X0268271Y0193418D01*
X0268311Y0193409D01*
X0268350Y0193396D01*
X0268388Y0193380D01*
X0268424Y0193360D01*
X0268457Y0193337D01*
X0268489Y0193310D01*
X0268517Y0193281D01*
X0268543Y0193249D01*
X0268565Y0193215D01*
X0268585Y0193179D01*
X0268600Y0193141D01*
X0268612Y0193101D01*
X0268620Y0193061D01*
X0268624Y0193020D01*
X0268624Y0192980D01*
X0268620Y0192939D01*
X0268612Y0192899D01*
X0268600Y0192859D01*
X0268585Y0192821D01*
X0268565Y0192785D01*
X0268543Y0192751D01*
X0268517Y0192719D01*
X0268489Y0192690D01*
X0268457Y0192663D01*
X0268424Y0192640D01*
X0268388Y0192620D01*
X0268350Y0192604D01*
X0268311Y0192591D01*
X0268271Y0192582D01*
X0268231Y0192577D01*
X0268190Y0192576D01*
X0268149Y0192579D01*
X0268109Y0192586D01*
X0268069Y0192597D01*
X0268031Y0192611D01*
X0267994Y0192629D01*
X0267959Y0192651D01*
X0267927Y0192676D01*
X0267897Y0192704D01*
X0267869Y0192734D01*
X0267845Y0192768D01*
X0267825Y0192803D01*
X0267807Y0192840D01*
X0267794Y0192879D01*
X0267784Y0192919D01*
X0267778Y0192959D01*
X0267776Y0193000D01*
X0194776Y0163800D02*
X0194778Y0163841D01*
X0194784Y0163881D01*
X0194794Y0163921D01*
X0194807Y0163960D01*
X0194825Y0163997D01*
X0194845Y0164032D01*
X0194869Y0164066D01*
X0194897Y0164096D01*
X0194927Y0164124D01*
X0194959Y0164149D01*
X0194994Y0164171D01*
X0195031Y0164189D01*
X0195069Y0164203D01*
X0195109Y0164214D01*
X0195149Y0164221D01*
X0195190Y0164224D01*
X0195231Y0164223D01*
X0195271Y0164218D01*
X0195311Y0164209D01*
X0195350Y0164196D01*
X0195388Y0164180D01*
X0195424Y0164160D01*
X0195457Y0164137D01*
X0195489Y0164110D01*
X0195517Y0164081D01*
X0195543Y0164049D01*
X0195565Y0164015D01*
X0195585Y0163979D01*
X0195600Y0163941D01*
X0195612Y0163901D01*
X0195620Y0163861D01*
X0195624Y0163820D01*
X0195624Y0163780D01*
X0195620Y0163739D01*
X0195612Y0163699D01*
X0195600Y0163659D01*
X0195585Y0163621D01*
X0195565Y0163585D01*
X0195543Y0163551D01*
X0195517Y0163519D01*
X0195489Y0163490D01*
X0195457Y0163463D01*
X0195424Y0163440D01*
X0195388Y0163420D01*
X0195350Y0163404D01*
X0195311Y0163391D01*
X0195271Y0163382D01*
X0195231Y0163377D01*
X0195190Y0163376D01*
X0195149Y0163379D01*
X0195109Y0163386D01*
X0195069Y0163397D01*
X0195031Y0163411D01*
X0194994Y0163429D01*
X0194959Y0163451D01*
X0194927Y0163476D01*
X0194897Y0163504D01*
X0194869Y0163534D01*
X0194845Y0163568D01*
X0194825Y0163603D01*
X0194807Y0163640D01*
X0194794Y0163679D01*
X0194784Y0163719D01*
X0194778Y0163759D01*
X0194776Y0163800D01*
X0143176Y0148600D02*
X0143178Y0148641D01*
X0143184Y0148681D01*
X0143194Y0148721D01*
X0143207Y0148760D01*
X0143225Y0148797D01*
X0143245Y0148832D01*
X0143269Y0148866D01*
X0143297Y0148896D01*
X0143327Y0148924D01*
X0143359Y0148949D01*
X0143394Y0148971D01*
X0143431Y0148989D01*
X0143469Y0149003D01*
X0143509Y0149014D01*
X0143549Y0149021D01*
X0143590Y0149024D01*
X0143631Y0149023D01*
X0143671Y0149018D01*
X0143711Y0149009D01*
X0143750Y0148996D01*
X0143788Y0148980D01*
X0143824Y0148960D01*
X0143857Y0148937D01*
X0143889Y0148910D01*
X0143917Y0148881D01*
X0143943Y0148849D01*
X0143965Y0148815D01*
X0143985Y0148779D01*
X0144000Y0148741D01*
X0144012Y0148701D01*
X0144020Y0148661D01*
X0144024Y0148620D01*
X0144024Y0148580D01*
X0144020Y0148539D01*
X0144012Y0148499D01*
X0144000Y0148459D01*
X0143985Y0148421D01*
X0143965Y0148385D01*
X0143943Y0148351D01*
X0143917Y0148319D01*
X0143889Y0148290D01*
X0143857Y0148263D01*
X0143824Y0148240D01*
X0143788Y0148220D01*
X0143750Y0148204D01*
X0143711Y0148191D01*
X0143671Y0148182D01*
X0143631Y0148177D01*
X0143590Y0148176D01*
X0143549Y0148179D01*
X0143509Y0148186D01*
X0143469Y0148197D01*
X0143431Y0148211D01*
X0143394Y0148229D01*
X0143359Y0148251D01*
X0143327Y0148276D01*
X0143297Y0148304D01*
X0143269Y0148334D01*
X0143245Y0148368D01*
X0143225Y0148403D01*
X0143207Y0148440D01*
X0143194Y0148479D01*
X0143184Y0148519D01*
X0143178Y0148559D01*
X0143176Y0148600D01*
X0200976Y0267800D02*
X0200978Y0267841D01*
X0200984Y0267881D01*
X0200994Y0267921D01*
X0201007Y0267960D01*
X0201025Y0267997D01*
X0201045Y0268032D01*
X0201069Y0268066D01*
X0201097Y0268096D01*
X0201127Y0268124D01*
X0201159Y0268149D01*
X0201194Y0268171D01*
X0201231Y0268189D01*
X0201269Y0268203D01*
X0201309Y0268214D01*
X0201349Y0268221D01*
X0201390Y0268224D01*
X0201431Y0268223D01*
X0201471Y0268218D01*
X0201511Y0268209D01*
X0201550Y0268196D01*
X0201588Y0268180D01*
X0201624Y0268160D01*
X0201657Y0268137D01*
X0201689Y0268110D01*
X0201717Y0268081D01*
X0201743Y0268049D01*
X0201765Y0268015D01*
X0201785Y0267979D01*
X0201800Y0267941D01*
X0201812Y0267901D01*
X0201820Y0267861D01*
X0201824Y0267820D01*
X0201824Y0267780D01*
X0201820Y0267739D01*
X0201812Y0267699D01*
X0201800Y0267659D01*
X0201785Y0267621D01*
X0201765Y0267585D01*
X0201743Y0267551D01*
X0201717Y0267519D01*
X0201689Y0267490D01*
X0201657Y0267463D01*
X0201624Y0267440D01*
X0201588Y0267420D01*
X0201550Y0267404D01*
X0201511Y0267391D01*
X0201471Y0267382D01*
X0201431Y0267377D01*
X0201390Y0267376D01*
X0201349Y0267379D01*
X0201309Y0267386D01*
X0201269Y0267397D01*
X0201231Y0267411D01*
X0201194Y0267429D01*
X0201159Y0267451D01*
X0201127Y0267476D01*
X0201097Y0267504D01*
X0201069Y0267534D01*
X0201045Y0267568D01*
X0201025Y0267603D01*
X0201007Y0267640D01*
X0200994Y0267679D01*
X0200984Y0267719D01*
X0200978Y0267759D01*
X0200976Y0267800D01*
X0165876Y0279800D02*
X0165878Y0279841D01*
X0165884Y0279881D01*
X0165894Y0279921D01*
X0165907Y0279960D01*
X0165925Y0279997D01*
X0165945Y0280032D01*
X0165969Y0280066D01*
X0165997Y0280096D01*
X0166027Y0280124D01*
X0166059Y0280149D01*
X0166094Y0280171D01*
X0166131Y0280189D01*
X0166169Y0280203D01*
X0166209Y0280214D01*
X0166249Y0280221D01*
X0166290Y0280224D01*
X0166331Y0280223D01*
X0166371Y0280218D01*
X0166411Y0280209D01*
X0166450Y0280196D01*
X0166488Y0280180D01*
X0166524Y0280160D01*
X0166557Y0280137D01*
X0166589Y0280110D01*
X0166617Y0280081D01*
X0166643Y0280049D01*
X0166665Y0280015D01*
X0166685Y0279979D01*
X0166700Y0279941D01*
X0166712Y0279901D01*
X0166720Y0279861D01*
X0166724Y0279820D01*
X0166724Y0279780D01*
X0166720Y0279739D01*
X0166712Y0279699D01*
X0166700Y0279659D01*
X0166685Y0279621D01*
X0166665Y0279585D01*
X0166643Y0279551D01*
X0166617Y0279519D01*
X0166589Y0279490D01*
X0166557Y0279463D01*
X0166524Y0279440D01*
X0166488Y0279420D01*
X0166450Y0279404D01*
X0166411Y0279391D01*
X0166371Y0279382D01*
X0166331Y0279377D01*
X0166290Y0279376D01*
X0166249Y0279379D01*
X0166209Y0279386D01*
X0166169Y0279397D01*
X0166131Y0279411D01*
X0166094Y0279429D01*
X0166059Y0279451D01*
X0166027Y0279476D01*
X0165997Y0279504D01*
X0165969Y0279534D01*
X0165945Y0279568D01*
X0165925Y0279603D01*
X0165907Y0279640D01*
X0165894Y0279679D01*
X0165884Y0279719D01*
X0165878Y0279759D01*
X0165876Y0279800D01*
X0239076Y0281500D02*
X0239078Y0281541D01*
X0239084Y0281581D01*
X0239094Y0281621D01*
X0239107Y0281660D01*
X0239125Y0281697D01*
X0239145Y0281732D01*
X0239169Y0281766D01*
X0239197Y0281796D01*
X0239227Y0281824D01*
X0239259Y0281849D01*
X0239294Y0281871D01*
X0239331Y0281889D01*
X0239369Y0281903D01*
X0239409Y0281914D01*
X0239449Y0281921D01*
X0239490Y0281924D01*
X0239531Y0281923D01*
X0239571Y0281918D01*
X0239611Y0281909D01*
X0239650Y0281896D01*
X0239688Y0281880D01*
X0239724Y0281860D01*
X0239757Y0281837D01*
X0239789Y0281810D01*
X0239817Y0281781D01*
X0239843Y0281749D01*
X0239865Y0281715D01*
X0239885Y0281679D01*
X0239900Y0281641D01*
X0239912Y0281601D01*
X0239920Y0281561D01*
X0239924Y0281520D01*
X0239924Y0281480D01*
X0239920Y0281439D01*
X0239912Y0281399D01*
X0239900Y0281359D01*
X0239885Y0281321D01*
X0239865Y0281285D01*
X0239843Y0281251D01*
X0239817Y0281219D01*
X0239789Y0281190D01*
X0239757Y0281163D01*
X0239724Y0281140D01*
X0239688Y0281120D01*
X0239650Y0281104D01*
X0239611Y0281091D01*
X0239571Y0281082D01*
X0239531Y0281077D01*
X0239490Y0281076D01*
X0239449Y0281079D01*
X0239409Y0281086D01*
X0239369Y0281097D01*
X0239331Y0281111D01*
X0239294Y0281129D01*
X0239259Y0281151D01*
X0239227Y0281176D01*
X0239197Y0281204D01*
X0239169Y0281234D01*
X0239145Y0281268D01*
X0239125Y0281303D01*
X0239107Y0281340D01*
X0239094Y0281379D01*
X0239084Y0281419D01*
X0239078Y0281459D01*
X0239076Y0281500D01*
X0255276Y0313500D02*
X0255278Y0313541D01*
X0255284Y0313581D01*
X0255294Y0313621D01*
X0255307Y0313660D01*
X0255325Y0313697D01*
X0255345Y0313732D01*
X0255369Y0313766D01*
X0255397Y0313796D01*
X0255427Y0313824D01*
X0255459Y0313849D01*
X0255494Y0313871D01*
X0255531Y0313889D01*
X0255569Y0313903D01*
X0255609Y0313914D01*
X0255649Y0313921D01*
X0255690Y0313924D01*
X0255731Y0313923D01*
X0255771Y0313918D01*
X0255811Y0313909D01*
X0255850Y0313896D01*
X0255888Y0313880D01*
X0255924Y0313860D01*
X0255957Y0313837D01*
X0255989Y0313810D01*
X0256017Y0313781D01*
X0256043Y0313749D01*
X0256065Y0313715D01*
X0256085Y0313679D01*
X0256100Y0313641D01*
X0256112Y0313601D01*
X0256120Y0313561D01*
X0256124Y0313520D01*
X0256124Y0313480D01*
X0256120Y0313439D01*
X0256112Y0313399D01*
X0256100Y0313359D01*
X0256085Y0313321D01*
X0256065Y0313285D01*
X0256043Y0313251D01*
X0256017Y0313219D01*
X0255989Y0313190D01*
X0255957Y0313163D01*
X0255924Y0313140D01*
X0255888Y0313120D01*
X0255850Y0313104D01*
X0255811Y0313091D01*
X0255771Y0313082D01*
X0255731Y0313077D01*
X0255690Y0313076D01*
X0255649Y0313079D01*
X0255609Y0313086D01*
X0255569Y0313097D01*
X0255531Y0313111D01*
X0255494Y0313129D01*
X0255459Y0313151D01*
X0255427Y0313176D01*
X0255397Y0313204D01*
X0255369Y0313234D01*
X0255345Y0313268D01*
X0255325Y0313303D01*
X0255307Y0313340D01*
X0255294Y0313379D01*
X0255284Y0313419D01*
X0255278Y0313459D01*
X0255276Y0313500D01*
X0254676Y0338700D02*
X0254678Y0338741D01*
X0254684Y0338781D01*
X0254694Y0338821D01*
X0254707Y0338860D01*
X0254725Y0338897D01*
X0254745Y0338932D01*
X0254769Y0338966D01*
X0254797Y0338996D01*
X0254827Y0339024D01*
X0254859Y0339049D01*
X0254894Y0339071D01*
X0254931Y0339089D01*
X0254969Y0339103D01*
X0255009Y0339114D01*
X0255049Y0339121D01*
X0255090Y0339124D01*
X0255131Y0339123D01*
X0255171Y0339118D01*
X0255211Y0339109D01*
X0255250Y0339096D01*
X0255288Y0339080D01*
X0255324Y0339060D01*
X0255357Y0339037D01*
X0255389Y0339010D01*
X0255417Y0338981D01*
X0255443Y0338949D01*
X0255465Y0338915D01*
X0255485Y0338879D01*
X0255500Y0338841D01*
X0255512Y0338801D01*
X0255520Y0338761D01*
X0255524Y0338720D01*
X0255524Y0338680D01*
X0255520Y0338639D01*
X0255512Y0338599D01*
X0255500Y0338559D01*
X0255485Y0338521D01*
X0255465Y0338485D01*
X0255443Y0338451D01*
X0255417Y0338419D01*
X0255389Y0338390D01*
X0255357Y0338363D01*
X0255324Y0338340D01*
X0255288Y0338320D01*
X0255250Y0338304D01*
X0255211Y0338291D01*
X0255171Y0338282D01*
X0255131Y0338277D01*
X0255090Y0338276D01*
X0255049Y0338279D01*
X0255009Y0338286D01*
X0254969Y0338297D01*
X0254931Y0338311D01*
X0254894Y0338329D01*
X0254859Y0338351D01*
X0254827Y0338376D01*
X0254797Y0338404D01*
X0254769Y0338434D01*
X0254745Y0338468D01*
X0254725Y0338503D01*
X0254707Y0338540D01*
X0254694Y0338579D01*
X0254684Y0338619D01*
X0254678Y0338659D01*
X0254676Y0338700D01*
X0240976Y0366300D02*
X0240978Y0366341D01*
X0240984Y0366381D01*
X0240994Y0366421D01*
X0241007Y0366460D01*
X0241025Y0366497D01*
X0241045Y0366532D01*
X0241069Y0366566D01*
X0241097Y0366596D01*
X0241127Y0366624D01*
X0241159Y0366649D01*
X0241194Y0366671D01*
X0241231Y0366689D01*
X0241269Y0366703D01*
X0241309Y0366714D01*
X0241349Y0366721D01*
X0241390Y0366724D01*
X0241431Y0366723D01*
X0241471Y0366718D01*
X0241511Y0366709D01*
X0241550Y0366696D01*
X0241588Y0366680D01*
X0241624Y0366660D01*
X0241657Y0366637D01*
X0241689Y0366610D01*
X0241717Y0366581D01*
X0241743Y0366549D01*
X0241765Y0366515D01*
X0241785Y0366479D01*
X0241800Y0366441D01*
X0241812Y0366401D01*
X0241820Y0366361D01*
X0241824Y0366320D01*
X0241824Y0366280D01*
X0241820Y0366239D01*
X0241812Y0366199D01*
X0241800Y0366159D01*
X0241785Y0366121D01*
X0241765Y0366085D01*
X0241743Y0366051D01*
X0241717Y0366019D01*
X0241689Y0365990D01*
X0241657Y0365963D01*
X0241624Y0365940D01*
X0241588Y0365920D01*
X0241550Y0365904D01*
X0241511Y0365891D01*
X0241471Y0365882D01*
X0241431Y0365877D01*
X0241390Y0365876D01*
X0241349Y0365879D01*
X0241309Y0365886D01*
X0241269Y0365897D01*
X0241231Y0365911D01*
X0241194Y0365929D01*
X0241159Y0365951D01*
X0241127Y0365976D01*
X0241097Y0366004D01*
X0241069Y0366034D01*
X0241045Y0366068D01*
X0241025Y0366103D01*
X0241007Y0366140D01*
X0240994Y0366179D01*
X0240984Y0366219D01*
X0240978Y0366259D01*
X0240976Y0366300D01*
X0212376Y0381300D02*
X0212378Y0381341D01*
X0212384Y0381381D01*
X0212394Y0381421D01*
X0212407Y0381460D01*
X0212425Y0381497D01*
X0212445Y0381532D01*
X0212469Y0381566D01*
X0212497Y0381596D01*
X0212527Y0381624D01*
X0212559Y0381649D01*
X0212594Y0381671D01*
X0212631Y0381689D01*
X0212669Y0381703D01*
X0212709Y0381714D01*
X0212749Y0381721D01*
X0212790Y0381724D01*
X0212831Y0381723D01*
X0212871Y0381718D01*
X0212911Y0381709D01*
X0212950Y0381696D01*
X0212988Y0381680D01*
X0213024Y0381660D01*
X0213057Y0381637D01*
X0213089Y0381610D01*
X0213117Y0381581D01*
X0213143Y0381549D01*
X0213165Y0381515D01*
X0213185Y0381479D01*
X0213200Y0381441D01*
X0213212Y0381401D01*
X0213220Y0381361D01*
X0213224Y0381320D01*
X0213224Y0381280D01*
X0213220Y0381239D01*
X0213212Y0381199D01*
X0213200Y0381159D01*
X0213185Y0381121D01*
X0213165Y0381085D01*
X0213143Y0381051D01*
X0213117Y0381019D01*
X0213089Y0380990D01*
X0213057Y0380963D01*
X0213024Y0380940D01*
X0212988Y0380920D01*
X0212950Y0380904D01*
X0212911Y0380891D01*
X0212871Y0380882D01*
X0212831Y0380877D01*
X0212790Y0380876D01*
X0212749Y0380879D01*
X0212709Y0380886D01*
X0212669Y0380897D01*
X0212631Y0380911D01*
X0212594Y0380929D01*
X0212559Y0380951D01*
X0212527Y0380976D01*
X0212497Y0381004D01*
X0212469Y0381034D01*
X0212445Y0381068D01*
X0212425Y0381103D01*
X0212407Y0381140D01*
X0212394Y0381179D01*
X0212384Y0381219D01*
X0212378Y0381259D01*
X0212376Y0381300D01*
X0126776Y0381200D02*
X0126778Y0381241D01*
X0126784Y0381281D01*
X0126794Y0381321D01*
X0126807Y0381360D01*
X0126825Y0381397D01*
X0126845Y0381432D01*
X0126869Y0381466D01*
X0126897Y0381496D01*
X0126927Y0381524D01*
X0126959Y0381549D01*
X0126994Y0381571D01*
X0127031Y0381589D01*
X0127069Y0381603D01*
X0127109Y0381614D01*
X0127149Y0381621D01*
X0127190Y0381624D01*
X0127231Y0381623D01*
X0127271Y0381618D01*
X0127311Y0381609D01*
X0127350Y0381596D01*
X0127388Y0381580D01*
X0127424Y0381560D01*
X0127457Y0381537D01*
X0127489Y0381510D01*
X0127517Y0381481D01*
X0127543Y0381449D01*
X0127565Y0381415D01*
X0127585Y0381379D01*
X0127600Y0381341D01*
X0127612Y0381301D01*
X0127620Y0381261D01*
X0127624Y0381220D01*
X0127624Y0381180D01*
X0127620Y0381139D01*
X0127612Y0381099D01*
X0127600Y0381059D01*
X0127585Y0381021D01*
X0127565Y0380985D01*
X0127543Y0380951D01*
X0127517Y0380919D01*
X0127489Y0380890D01*
X0127457Y0380863D01*
X0127424Y0380840D01*
X0127388Y0380820D01*
X0127350Y0380804D01*
X0127311Y0380791D01*
X0127271Y0380782D01*
X0127231Y0380777D01*
X0127190Y0380776D01*
X0127149Y0380779D01*
X0127109Y0380786D01*
X0127069Y0380797D01*
X0127031Y0380811D01*
X0126994Y0380829D01*
X0126959Y0380851D01*
X0126927Y0380876D01*
X0126897Y0380904D01*
X0126869Y0380934D01*
X0126845Y0380968D01*
X0126825Y0381003D01*
X0126807Y0381040D01*
X0126794Y0381079D01*
X0126784Y0381119D01*
X0126778Y0381159D01*
X0126776Y0381200D01*
X0117776Y0352400D02*
X0117778Y0352441D01*
X0117784Y0352481D01*
X0117794Y0352521D01*
X0117807Y0352560D01*
X0117825Y0352597D01*
X0117845Y0352632D01*
X0117869Y0352666D01*
X0117897Y0352696D01*
X0117927Y0352724D01*
X0117959Y0352749D01*
X0117994Y0352771D01*
X0118031Y0352789D01*
X0118069Y0352803D01*
X0118109Y0352814D01*
X0118149Y0352821D01*
X0118190Y0352824D01*
X0118231Y0352823D01*
X0118271Y0352818D01*
X0118311Y0352809D01*
X0118350Y0352796D01*
X0118388Y0352780D01*
X0118424Y0352760D01*
X0118457Y0352737D01*
X0118489Y0352710D01*
X0118517Y0352681D01*
X0118543Y0352649D01*
X0118565Y0352615D01*
X0118585Y0352579D01*
X0118600Y0352541D01*
X0118612Y0352501D01*
X0118620Y0352461D01*
X0118624Y0352420D01*
X0118624Y0352380D01*
X0118620Y0352339D01*
X0118612Y0352299D01*
X0118600Y0352259D01*
X0118585Y0352221D01*
X0118565Y0352185D01*
X0118543Y0352151D01*
X0118517Y0352119D01*
X0118489Y0352090D01*
X0118457Y0352063D01*
X0118424Y0352040D01*
X0118388Y0352020D01*
X0118350Y0352004D01*
X0118311Y0351991D01*
X0118271Y0351982D01*
X0118231Y0351977D01*
X0118190Y0351976D01*
X0118149Y0351979D01*
X0118109Y0351986D01*
X0118069Y0351997D01*
X0118031Y0352011D01*
X0117994Y0352029D01*
X0117959Y0352051D01*
X0117927Y0352076D01*
X0117897Y0352104D01*
X0117869Y0352134D01*
X0117845Y0352168D01*
X0117825Y0352203D01*
X0117807Y0352240D01*
X0117794Y0352279D01*
X0117784Y0352319D01*
X0117778Y0352359D01*
X0117776Y0352400D01*
D54*
X0154147Y0341930D02*
X0158878Y0340600D01*
X0163300Y0340600D01*
X0164848Y0340290D01*
X0186875Y0337808D01*
X0188700Y0337200D01*
X0191900Y0335600D01*
X0194900Y0334000D01*
X0200682Y0331398D01*
X0204300Y0341800D01*
X0205900Y0345200D01*
X0207500Y0349800D01*
X0210700Y0354400D01*
X0215500Y0360800D01*
X0223100Y0370200D01*
X0225500Y0371800D01*
X0227900Y0368800D01*
X0229700Y0364000D01*
X0231300Y0359000D01*
X0232700Y0351200D01*
X0233900Y0333600D01*
X0232900Y0316600D01*
X0231100Y0310200D01*
X0229500Y0305400D01*
X0226500Y0299200D01*
X0220100Y0291400D01*
X0215500Y0286600D01*
X0210500Y0286800D01*
X0197900Y0288200D01*
X0193100Y0289800D01*
X0189900Y0291400D01*
X0185500Y0294400D01*
X0177500Y0301000D01*
X0172700Y0307200D01*
X0169700Y0311800D01*
X0166500Y0318200D01*
X0164900Y0322800D01*
X0163300Y0329200D01*
X0160300Y0340000D01*
X0154134Y0341734D01*
X0152277Y0334307D01*
X0151900Y0316600D01*
X0152500Y0305600D01*
X0154100Y0301000D01*
X0160300Y0290000D01*
X0164900Y0285200D01*
X0172900Y0277200D01*
X0177700Y0274200D01*
X0177975Y0274063D01*
X0187575Y0270724D01*
X0211951Y0270407D01*
X0218500Y0272400D01*
X0223100Y0274000D01*
X0232150Y0280033D01*
X0243700Y0291400D01*
X0246900Y0296400D01*
X0250100Y0304000D01*
X0251500Y0307400D01*
X0253100Y0315200D01*
X0253900Y0326000D01*
X0253300Y0335600D01*
X0251700Y0344800D01*
X0248500Y0353000D01*
X0245100Y0359200D01*
X0230900Y0373400D01*
X0229900Y0374800D01*
X0226700Y0376400D01*
X0218300Y0378000D01*
X0213300Y0379200D01*
X0203700Y0379400D01*
X0194500Y0379200D01*
X0182700Y0376400D01*
X0176100Y0371600D01*
X0173100Y0369800D01*
X0163300Y0360400D01*
X0161692Y0357935D01*
X0155700Y0346200D01*
X0154147Y0341930D01*
X0154188Y0342043D02*
X0204414Y0342043D01*
X0204107Y0341245D02*
X0156585Y0341245D01*
X0155874Y0341245D02*
X0154011Y0341245D01*
X0153812Y0340446D02*
X0158713Y0340446D01*
X0160398Y0339648D02*
X0153612Y0339648D01*
X0153412Y0338849D02*
X0160620Y0338849D01*
X0160841Y0338051D02*
X0153213Y0338051D01*
X0153013Y0337252D02*
X0161063Y0337252D01*
X0161285Y0336454D02*
X0152813Y0336454D01*
X0152614Y0335655D02*
X0161507Y0335655D01*
X0161729Y0334857D02*
X0152414Y0334857D01*
X0152271Y0334058D02*
X0161951Y0334058D01*
X0162172Y0333260D02*
X0152254Y0333260D01*
X0152237Y0332461D02*
X0162394Y0332461D01*
X0162616Y0331663D02*
X0152220Y0331663D01*
X0152203Y0330864D02*
X0162838Y0330864D01*
X0163060Y0330066D02*
X0152187Y0330066D01*
X0152170Y0329267D02*
X0163281Y0329267D01*
X0163483Y0328469D02*
X0152153Y0328469D01*
X0152136Y0327670D02*
X0163682Y0327670D01*
X0163882Y0326872D02*
X0152119Y0326872D01*
X0152102Y0326073D02*
X0164082Y0326073D01*
X0164281Y0325274D02*
X0152085Y0325274D01*
X0152068Y0324476D02*
X0164481Y0324476D01*
X0164681Y0323677D02*
X0152051Y0323677D01*
X0152034Y0322879D02*
X0164880Y0322879D01*
X0165150Y0322080D02*
X0152017Y0322080D01*
X0152000Y0321282D02*
X0165428Y0321282D01*
X0165706Y0320483D02*
X0151983Y0320483D01*
X0151966Y0319685D02*
X0165984Y0319685D01*
X0166261Y0318886D02*
X0151949Y0318886D01*
X0151932Y0318088D02*
X0166556Y0318088D01*
X0166955Y0317289D02*
X0151915Y0317289D01*
X0151906Y0316491D02*
X0167355Y0316491D01*
X0167754Y0315692D02*
X0151949Y0315692D01*
X0151993Y0314894D02*
X0168153Y0314894D01*
X0168552Y0314095D02*
X0152037Y0314095D01*
X0152080Y0313297D02*
X0168952Y0313297D01*
X0169351Y0312498D02*
X0152124Y0312498D01*
X0152167Y0311700D02*
X0169765Y0311700D01*
X0170286Y0310901D02*
X0152211Y0310901D01*
X0152254Y0310103D02*
X0170807Y0310103D01*
X0171328Y0309304D02*
X0152298Y0309304D01*
X0152341Y0308506D02*
X0171848Y0308506D01*
X0172369Y0307707D02*
X0152385Y0307707D01*
X0152429Y0306909D02*
X0172926Y0306909D01*
X0173544Y0306110D02*
X0152472Y0306110D01*
X0152600Y0305312D02*
X0174162Y0305312D01*
X0174780Y0304513D02*
X0152878Y0304513D01*
X0153156Y0303715D02*
X0175398Y0303715D01*
X0176017Y0302916D02*
X0153434Y0302916D01*
X0153711Y0302118D02*
X0176635Y0302118D01*
X0177253Y0301319D02*
X0153989Y0301319D01*
X0154370Y0300521D02*
X0178081Y0300521D01*
X0179049Y0299722D02*
X0154820Y0299722D01*
X0155270Y0298924D02*
X0180017Y0298924D01*
X0180985Y0298125D02*
X0155720Y0298125D01*
X0156170Y0297327D02*
X0181953Y0297327D01*
X0182921Y0296528D02*
X0156621Y0296528D01*
X0157071Y0295730D02*
X0183888Y0295730D01*
X0184856Y0294931D02*
X0157521Y0294931D01*
X0157971Y0294133D02*
X0185892Y0294133D01*
X0187063Y0293334D02*
X0158421Y0293334D01*
X0158871Y0292536D02*
X0188235Y0292536D01*
X0189406Y0291737D02*
X0159321Y0291737D01*
X0159771Y0290939D02*
X0190823Y0290939D01*
X0192420Y0290140D02*
X0160221Y0290140D01*
X0160931Y0289341D02*
X0194476Y0289341D01*
X0196871Y0288543D02*
X0161696Y0288543D01*
X0162462Y0287744D02*
X0202000Y0287744D01*
X0209186Y0286946D02*
X0163227Y0286946D01*
X0163992Y0286147D02*
X0238363Y0286147D01*
X0237551Y0285349D02*
X0164757Y0285349D01*
X0165550Y0284550D02*
X0236740Y0284550D01*
X0235929Y0283752D02*
X0166348Y0283752D01*
X0167147Y0282953D02*
X0235117Y0282953D01*
X0234306Y0282155D02*
X0167945Y0282155D01*
X0168744Y0281356D02*
X0233494Y0281356D01*
X0232683Y0280558D02*
X0169542Y0280558D01*
X0170341Y0279759D02*
X0231739Y0279759D01*
X0230541Y0278961D02*
X0171139Y0278961D01*
X0171938Y0278162D02*
X0229343Y0278162D01*
X0228146Y0277364D02*
X0172736Y0277364D01*
X0173916Y0276565D02*
X0226948Y0276565D01*
X0225750Y0275767D02*
X0175193Y0275767D01*
X0176471Y0274968D02*
X0224552Y0274968D01*
X0223355Y0274170D02*
X0177760Y0274170D01*
X0179962Y0273371D02*
X0221292Y0273371D01*
X0218997Y0272573D02*
X0182258Y0272573D01*
X0184554Y0271774D02*
X0216444Y0271774D01*
X0213820Y0270976D02*
X0186849Y0270976D01*
X0215832Y0286946D02*
X0239174Y0286946D01*
X0239985Y0287744D02*
X0216597Y0287744D01*
X0217362Y0288543D02*
X0240797Y0288543D01*
X0241608Y0289341D02*
X0218127Y0289341D01*
X0218893Y0290140D02*
X0242420Y0290140D01*
X0243231Y0290939D02*
X0219658Y0290939D01*
X0220377Y0291737D02*
X0243916Y0291737D01*
X0244427Y0292536D02*
X0221032Y0292536D01*
X0221687Y0293334D02*
X0244938Y0293334D01*
X0245449Y0294133D02*
X0222342Y0294133D01*
X0222997Y0294931D02*
X0245960Y0294931D01*
X0246471Y0295730D02*
X0223652Y0295730D01*
X0224308Y0296528D02*
X0246954Y0296528D01*
X0247290Y0297327D02*
X0224963Y0297327D01*
X0225618Y0298125D02*
X0247626Y0298125D01*
X0247963Y0298924D02*
X0226273Y0298924D01*
X0226753Y0299722D02*
X0248299Y0299722D01*
X0248635Y0300521D02*
X0227139Y0300521D01*
X0227525Y0301319D02*
X0248971Y0301319D01*
X0249307Y0302118D02*
X0227912Y0302118D01*
X0228298Y0302916D02*
X0249644Y0302916D01*
X0249980Y0303715D02*
X0228685Y0303715D01*
X0229071Y0304513D02*
X0250311Y0304513D01*
X0250640Y0305312D02*
X0229457Y0305312D01*
X0229737Y0306110D02*
X0250969Y0306110D01*
X0251298Y0306909D02*
X0230003Y0306909D01*
X0230269Y0307707D02*
X0251563Y0307707D01*
X0251727Y0308506D02*
X0230535Y0308506D01*
X0230801Y0309304D02*
X0251891Y0309304D01*
X0252054Y0310103D02*
X0231068Y0310103D01*
X0231297Y0310901D02*
X0252218Y0310901D01*
X0252382Y0311700D02*
X0231522Y0311700D01*
X0231746Y0312498D02*
X0252546Y0312498D01*
X0252710Y0313297D02*
X0231971Y0313297D01*
X0232196Y0314095D02*
X0252873Y0314095D01*
X0253037Y0314894D02*
X0232420Y0314894D01*
X0232645Y0315692D02*
X0253136Y0315692D01*
X0253196Y0316491D02*
X0232869Y0316491D01*
X0232941Y0317289D02*
X0253255Y0317289D01*
X0253314Y0318088D02*
X0232988Y0318088D01*
X0233034Y0318886D02*
X0253373Y0318886D01*
X0253432Y0319685D02*
X0233081Y0319685D01*
X0233128Y0320483D02*
X0253491Y0320483D01*
X0253551Y0321282D02*
X0233175Y0321282D01*
X0233222Y0322080D02*
X0253610Y0322080D01*
X0253669Y0322879D02*
X0233269Y0322879D01*
X0233316Y0323677D02*
X0253728Y0323677D01*
X0253787Y0324476D02*
X0233363Y0324476D01*
X0233410Y0325274D02*
X0253846Y0325274D01*
X0253895Y0326073D02*
X0233457Y0326073D01*
X0233504Y0326872D02*
X0253846Y0326872D01*
X0253796Y0327670D02*
X0233551Y0327670D01*
X0233598Y0328469D02*
X0253746Y0328469D01*
X0253696Y0329267D02*
X0233645Y0329267D01*
X0233692Y0330066D02*
X0253646Y0330066D01*
X0253596Y0330864D02*
X0233739Y0330864D01*
X0233786Y0331663D02*
X0253546Y0331663D01*
X0253496Y0332461D02*
X0233833Y0332461D01*
X0233880Y0333260D02*
X0253446Y0333260D01*
X0253396Y0334058D02*
X0233869Y0334058D01*
X0233814Y0334857D02*
X0253346Y0334857D01*
X0253290Y0335655D02*
X0233760Y0335655D01*
X0233705Y0336454D02*
X0253152Y0336454D01*
X0253013Y0337252D02*
X0233651Y0337252D01*
X0233597Y0338051D02*
X0252874Y0338051D01*
X0252735Y0338849D02*
X0233542Y0338849D01*
X0233488Y0339648D02*
X0252596Y0339648D01*
X0252457Y0340446D02*
X0233433Y0340446D01*
X0233379Y0341245D02*
X0252318Y0341245D01*
X0252179Y0342043D02*
X0233324Y0342043D01*
X0233270Y0342842D02*
X0252041Y0342842D01*
X0251902Y0343640D02*
X0233215Y0343640D01*
X0233161Y0344439D02*
X0251763Y0344439D01*
X0251529Y0345237D02*
X0233107Y0345237D01*
X0233052Y0346036D02*
X0251218Y0346036D01*
X0250906Y0346834D02*
X0232998Y0346834D01*
X0232943Y0347633D02*
X0250595Y0347633D01*
X0250283Y0348431D02*
X0232889Y0348431D01*
X0232834Y0349230D02*
X0249971Y0349230D01*
X0249660Y0350028D02*
X0232780Y0350028D01*
X0232725Y0350827D02*
X0249348Y0350827D01*
X0249036Y0351625D02*
X0232624Y0351625D01*
X0232480Y0352424D02*
X0248725Y0352424D01*
X0248378Y0353222D02*
X0232337Y0353222D01*
X0232194Y0354021D02*
X0247940Y0354021D01*
X0247502Y0354819D02*
X0232050Y0354819D01*
X0231907Y0355618D02*
X0247064Y0355618D01*
X0246626Y0356416D02*
X0231764Y0356416D01*
X0231620Y0357215D02*
X0246189Y0357215D01*
X0245751Y0358013D02*
X0231477Y0358013D01*
X0231334Y0358812D02*
X0245313Y0358812D01*
X0244690Y0359610D02*
X0231105Y0359610D01*
X0230849Y0360409D02*
X0243891Y0360409D01*
X0243092Y0361208D02*
X0230594Y0361208D01*
X0230338Y0362006D02*
X0242294Y0362006D01*
X0241495Y0362805D02*
X0230083Y0362805D01*
X0229827Y0363603D02*
X0240697Y0363603D01*
X0239898Y0364402D02*
X0229549Y0364402D01*
X0229250Y0365200D02*
X0239100Y0365200D01*
X0238301Y0365999D02*
X0228951Y0365999D01*
X0228651Y0366797D02*
X0237503Y0366797D01*
X0236704Y0367596D02*
X0228352Y0367596D01*
X0228052Y0368394D02*
X0235906Y0368394D01*
X0235107Y0369193D02*
X0227586Y0369193D01*
X0226947Y0369991D02*
X0234309Y0369991D01*
X0233510Y0370790D02*
X0226308Y0370790D01*
X0225669Y0371588D02*
X0232712Y0371588D01*
X0231913Y0372387D02*
X0177182Y0372387D01*
X0178280Y0373185D02*
X0231115Y0373185D01*
X0230483Y0373984D02*
X0179378Y0373984D01*
X0180476Y0374782D02*
X0229913Y0374782D01*
X0228339Y0375581D02*
X0181573Y0375581D01*
X0182671Y0376379D02*
X0226742Y0376379D01*
X0222617Y0377178D02*
X0185978Y0377178D01*
X0189343Y0377976D02*
X0218425Y0377976D01*
X0215072Y0378775D02*
X0192708Y0378775D01*
X0176080Y0371588D02*
X0225182Y0371588D01*
X0223984Y0370790D02*
X0174749Y0370790D01*
X0173419Y0369991D02*
X0222931Y0369991D01*
X0222286Y0369193D02*
X0172467Y0369193D01*
X0171634Y0368394D02*
X0221640Y0368394D01*
X0220994Y0367596D02*
X0170802Y0367596D01*
X0169969Y0366797D02*
X0220349Y0366797D01*
X0219703Y0365999D02*
X0169137Y0365999D01*
X0168304Y0365200D02*
X0219057Y0365200D01*
X0218412Y0364402D02*
X0167472Y0364402D01*
X0166639Y0363603D02*
X0217766Y0363603D01*
X0217121Y0362805D02*
X0165807Y0362805D01*
X0164974Y0362006D02*
X0216475Y0362006D01*
X0215829Y0361208D02*
X0164142Y0361208D01*
X0163309Y0360409D02*
X0215207Y0360409D01*
X0214608Y0359610D02*
X0162785Y0359610D01*
X0162264Y0358812D02*
X0214009Y0358812D01*
X0213410Y0358013D02*
X0161744Y0358013D01*
X0161325Y0357215D02*
X0212811Y0357215D01*
X0212212Y0356416D02*
X0160917Y0356416D01*
X0160509Y0355618D02*
X0211613Y0355618D01*
X0211015Y0354819D02*
X0160101Y0354819D01*
X0159694Y0354021D02*
X0210436Y0354021D01*
X0209881Y0353222D02*
X0159286Y0353222D01*
X0158878Y0352424D02*
X0209325Y0352424D01*
X0208770Y0351625D02*
X0158470Y0351625D01*
X0158063Y0350827D02*
X0208214Y0350827D01*
X0207659Y0350028D02*
X0157655Y0350028D01*
X0157247Y0349230D02*
X0207302Y0349230D01*
X0207024Y0348431D02*
X0156839Y0348431D01*
X0156432Y0347633D02*
X0206746Y0347633D01*
X0206468Y0346834D02*
X0156024Y0346834D01*
X0155640Y0346036D02*
X0206191Y0346036D01*
X0205913Y0345237D02*
X0155350Y0345237D01*
X0155060Y0344439D02*
X0205542Y0344439D01*
X0205166Y0343640D02*
X0154769Y0343640D01*
X0154479Y0342842D02*
X0204790Y0342842D01*
X0203829Y0340446D02*
X0164069Y0340446D01*
X0170552Y0339648D02*
X0203551Y0339648D01*
X0203274Y0338849D02*
X0177638Y0338849D01*
X0184725Y0338051D02*
X0202996Y0338051D01*
X0202718Y0337252D02*
X0188543Y0337252D01*
X0190193Y0336454D02*
X0202440Y0336454D01*
X0202163Y0335655D02*
X0191790Y0335655D01*
X0193294Y0334857D02*
X0201885Y0334857D01*
X0201607Y0334058D02*
X0194791Y0334058D01*
X0196545Y0333260D02*
X0201329Y0333260D01*
X0201052Y0332461D02*
X0198320Y0332461D01*
X0200094Y0331663D02*
X0200774Y0331663D01*
X0259700Y0242600D02*
X0277100Y0243600D01*
X0294100Y0242600D01*
X0300300Y0239400D01*
X0305100Y0236200D01*
X0309900Y0233000D01*
X0313100Y0230000D01*
X0313900Y0227600D01*
X0312900Y0225200D01*
X0308300Y0220600D01*
X0303500Y0217400D01*
X0298700Y0214400D01*
X0290900Y0209600D01*
X0282900Y0204800D01*
X0276700Y0201600D01*
X0267300Y0197000D01*
X0257900Y0192200D01*
X0245100Y0186000D01*
X0237300Y0182800D01*
X0221500Y0176400D01*
X0201300Y0168400D01*
X0199500Y0170000D01*
X0198700Y0180200D01*
X0199700Y0190800D01*
X0201300Y0196800D01*
X0204500Y0204800D01*
X0209100Y0212600D01*
X0213900Y0219000D01*
X0226300Y0231600D01*
X0231300Y0234600D01*
X0235900Y0236400D01*
X0246900Y0239400D01*
X0259700Y0242600D01*
X0258217Y0242229D02*
X0294818Y0242229D01*
X0296365Y0241431D02*
X0255023Y0241431D01*
X0251829Y0240632D02*
X0297912Y0240632D01*
X0299460Y0239834D02*
X0248635Y0239834D01*
X0245563Y0239035D02*
X0300847Y0239035D01*
X0302045Y0238237D02*
X0242635Y0238237D01*
X0239707Y0237438D02*
X0303243Y0237438D01*
X0304440Y0236640D02*
X0236779Y0236640D01*
X0234472Y0235841D02*
X0305638Y0235841D01*
X0306836Y0235043D02*
X0232431Y0235043D01*
X0230707Y0234244D02*
X0308034Y0234244D01*
X0309231Y0233446D02*
X0229376Y0233446D01*
X0228045Y0232647D02*
X0310276Y0232647D01*
X0311128Y0231849D02*
X0226714Y0231849D01*
X0225759Y0231050D02*
X0311980Y0231050D01*
X0312832Y0230252D02*
X0224973Y0230252D01*
X0224187Y0229453D02*
X0313282Y0229453D01*
X0313548Y0228655D02*
X0223401Y0228655D01*
X0222616Y0227856D02*
X0313815Y0227856D01*
X0313674Y0227058D02*
X0221830Y0227058D01*
X0221044Y0226259D02*
X0313341Y0226259D01*
X0313009Y0225461D02*
X0220258Y0225461D01*
X0219472Y0224662D02*
X0312362Y0224662D01*
X0311564Y0223864D02*
X0218686Y0223864D01*
X0217901Y0223065D02*
X0310765Y0223065D01*
X0309967Y0222267D02*
X0217115Y0222267D01*
X0216329Y0221468D02*
X0309168Y0221468D01*
X0308370Y0220670D02*
X0215543Y0220670D01*
X0214757Y0219871D02*
X0307207Y0219871D01*
X0306009Y0219072D02*
X0213971Y0219072D01*
X0213355Y0218274D02*
X0304811Y0218274D01*
X0303613Y0217475D02*
X0212757Y0217475D01*
X0212158Y0216677D02*
X0302343Y0216677D01*
X0301066Y0215878D02*
X0211559Y0215878D01*
X0210960Y0215080D02*
X0299788Y0215080D01*
X0298507Y0214281D02*
X0210361Y0214281D01*
X0209762Y0213483D02*
X0297210Y0213483D01*
X0295912Y0212684D02*
X0209163Y0212684D01*
X0208679Y0211886D02*
X0294615Y0211886D01*
X0293317Y0211087D02*
X0208208Y0211087D01*
X0207737Y0210289D02*
X0292019Y0210289D01*
X0290717Y0209490D02*
X0207266Y0209490D01*
X0206795Y0208692D02*
X0289386Y0208692D01*
X0288056Y0207893D02*
X0206324Y0207893D01*
X0205853Y0207095D02*
X0286725Y0207095D01*
X0285394Y0206296D02*
X0205382Y0206296D01*
X0204912Y0205498D02*
X0284063Y0205498D01*
X0282705Y0204699D02*
X0204460Y0204699D01*
X0204140Y0203901D02*
X0281158Y0203901D01*
X0279611Y0203102D02*
X0203821Y0203102D01*
X0203502Y0202304D02*
X0278064Y0202304D01*
X0276506Y0201505D02*
X0203182Y0201505D01*
X0202863Y0200707D02*
X0274875Y0200707D01*
X0273243Y0199908D02*
X0202543Y0199908D01*
X0202224Y0199110D02*
X0271611Y0199110D01*
X0269979Y0198311D02*
X0201904Y0198311D01*
X0201585Y0197513D02*
X0268348Y0197513D01*
X0266740Y0196714D02*
X0201277Y0196714D01*
X0201064Y0195916D02*
X0265177Y0195916D01*
X0263613Y0195117D02*
X0200851Y0195117D01*
X0200638Y0194319D02*
X0262049Y0194319D01*
X0260485Y0193520D02*
X0200425Y0193520D01*
X0200212Y0192722D02*
X0258922Y0192722D01*
X0257328Y0191923D02*
X0199999Y0191923D01*
X0199787Y0191125D02*
X0255680Y0191125D01*
X0254031Y0190326D02*
X0199655Y0190326D01*
X0199580Y0189528D02*
X0252383Y0189528D01*
X0250734Y0188729D02*
X0199505Y0188729D01*
X0199429Y0187931D02*
X0249086Y0187931D01*
X0247437Y0187132D02*
X0199354Y0187132D01*
X0199279Y0186334D02*
X0245789Y0186334D01*
X0243967Y0185535D02*
X0199203Y0185535D01*
X0199128Y0184737D02*
X0242020Y0184737D01*
X0240074Y0183938D02*
X0199053Y0183938D01*
X0198977Y0183139D02*
X0238127Y0183139D01*
X0236167Y0182341D02*
X0198902Y0182341D01*
X0198827Y0181542D02*
X0234195Y0181542D01*
X0232224Y0180744D02*
X0198751Y0180744D01*
X0198720Y0179945D02*
X0230253Y0179945D01*
X0228281Y0179147D02*
X0198783Y0179147D01*
X0198845Y0178348D02*
X0226310Y0178348D01*
X0224339Y0177550D02*
X0198908Y0177550D01*
X0198970Y0176751D02*
X0222367Y0176751D01*
X0220371Y0175953D02*
X0199033Y0175953D01*
X0199096Y0175154D02*
X0218355Y0175154D01*
X0216339Y0174356D02*
X0199158Y0174356D01*
X0199221Y0173557D02*
X0214322Y0173557D01*
X0212306Y0172759D02*
X0199284Y0172759D01*
X0199346Y0171960D02*
X0210290Y0171960D01*
X0208274Y0171162D02*
X0199409Y0171162D01*
X0199472Y0170363D02*
X0206257Y0170363D01*
X0204241Y0169565D02*
X0199990Y0169565D01*
X0200888Y0168766D02*
X0202225Y0168766D01*
X0267144Y0243028D02*
X0286827Y0243028D01*
X0352300Y0285200D02*
X0349100Y0293000D01*
X0346100Y0307200D01*
X0345500Y0322800D01*
X0346300Y0338800D01*
X0349300Y0352800D01*
X0352500Y0360600D01*
X0357100Y0368400D01*
X0360300Y0373200D01*
X0365100Y0379600D01*
X0369900Y0382800D01*
X0377700Y0387200D01*
X0380900Y0389000D01*
X0383900Y0390400D01*
X0386900Y0391000D01*
X0396300Y0389000D01*
X0399700Y0387400D01*
X0404300Y0384200D01*
X0409100Y0379400D01*
X0412100Y0373200D01*
X0413900Y0366800D01*
X0414300Y0357800D01*
X0413900Y0351400D01*
X0412300Y0343400D01*
X0410700Y0335400D01*
X0407500Y0326200D01*
X0402700Y0316600D01*
X0396300Y0307000D01*
X0391700Y0300800D01*
X0383900Y0291400D01*
X0377300Y0283400D01*
X0367900Y0274000D01*
X0366500Y0272600D01*
X0364700Y0272200D01*
X0364500Y0272200D01*
X0360300Y0274200D01*
X0355500Y0278800D01*
X0352300Y0285200D01*
X0352239Y0285349D02*
X0378908Y0285349D01*
X0379567Y0286147D02*
X0351911Y0286147D01*
X0351584Y0286946D02*
X0380225Y0286946D01*
X0380884Y0287744D02*
X0351256Y0287744D01*
X0350929Y0288543D02*
X0381543Y0288543D01*
X0382202Y0289341D02*
X0350601Y0289341D01*
X0350273Y0290140D02*
X0382861Y0290140D01*
X0383519Y0290939D02*
X0349946Y0290939D01*
X0349618Y0291737D02*
X0384180Y0291737D01*
X0384842Y0292536D02*
X0349291Y0292536D01*
X0349029Y0293334D02*
X0385505Y0293334D01*
X0386167Y0294133D02*
X0348861Y0294133D01*
X0348692Y0294931D02*
X0386830Y0294931D01*
X0387493Y0295730D02*
X0348523Y0295730D01*
X0348355Y0296528D02*
X0388155Y0296528D01*
X0388818Y0297327D02*
X0348186Y0297327D01*
X0348017Y0298125D02*
X0389480Y0298125D01*
X0390143Y0298924D02*
X0347849Y0298924D01*
X0347680Y0299722D02*
X0390806Y0299722D01*
X0391468Y0300521D02*
X0347511Y0300521D01*
X0347342Y0301319D02*
X0392085Y0301319D01*
X0392678Y0302118D02*
X0347174Y0302118D01*
X0347005Y0302916D02*
X0393270Y0302916D01*
X0393863Y0303715D02*
X0346836Y0303715D01*
X0346668Y0304513D02*
X0394455Y0304513D01*
X0395047Y0305312D02*
X0346499Y0305312D01*
X0346330Y0306110D02*
X0395640Y0306110D01*
X0396232Y0306909D02*
X0346162Y0306909D01*
X0346080Y0307707D02*
X0396772Y0307707D01*
X0397304Y0308506D02*
X0346050Y0308506D01*
X0346019Y0309304D02*
X0397836Y0309304D01*
X0398369Y0310103D02*
X0345988Y0310103D01*
X0345958Y0310901D02*
X0398901Y0310901D01*
X0399433Y0311700D02*
X0345927Y0311700D01*
X0345896Y0312498D02*
X0399966Y0312498D01*
X0400498Y0313297D02*
X0345866Y0313297D01*
X0345835Y0314095D02*
X0401030Y0314095D01*
X0401563Y0314894D02*
X0345804Y0314894D01*
X0345773Y0315692D02*
X0402095Y0315692D01*
X0402627Y0316491D02*
X0345743Y0316491D01*
X0345712Y0317289D02*
X0403045Y0317289D01*
X0403444Y0318088D02*
X0345681Y0318088D01*
X0345651Y0318886D02*
X0403843Y0318886D01*
X0404242Y0319685D02*
X0345620Y0319685D01*
X0345589Y0320483D02*
X0404642Y0320483D01*
X0405041Y0321282D02*
X0345558Y0321282D01*
X0345528Y0322080D02*
X0405440Y0322080D01*
X0405839Y0322879D02*
X0345504Y0322879D01*
X0345544Y0323677D02*
X0406239Y0323677D01*
X0406638Y0324476D02*
X0345584Y0324476D01*
X0345624Y0325274D02*
X0407037Y0325274D01*
X0407437Y0326073D02*
X0345664Y0326073D01*
X0345704Y0326872D02*
X0407734Y0326872D01*
X0408011Y0327670D02*
X0345743Y0327670D01*
X0345783Y0328469D02*
X0408289Y0328469D01*
X0408567Y0329267D02*
X0345823Y0329267D01*
X0345863Y0330066D02*
X0408845Y0330066D01*
X0409122Y0330864D02*
X0345903Y0330864D01*
X0345943Y0331663D02*
X0409400Y0331663D01*
X0409678Y0332461D02*
X0345983Y0332461D01*
X0346023Y0333260D02*
X0409956Y0333260D01*
X0410233Y0334058D02*
X0346063Y0334058D01*
X0346103Y0334857D02*
X0410511Y0334857D01*
X0410751Y0335655D02*
X0346143Y0335655D01*
X0346183Y0336454D02*
X0410911Y0336454D01*
X0411070Y0337252D02*
X0346223Y0337252D01*
X0346263Y0338051D02*
X0411230Y0338051D01*
X0411390Y0338849D02*
X0346311Y0338849D01*
X0346482Y0339648D02*
X0411550Y0339648D01*
X0411709Y0340446D02*
X0346653Y0340446D01*
X0346824Y0341245D02*
X0411869Y0341245D01*
X0412029Y0342043D02*
X0346995Y0342043D01*
X0347166Y0342842D02*
X0412188Y0342842D01*
X0412348Y0343640D02*
X0347337Y0343640D01*
X0347508Y0344439D02*
X0412508Y0344439D01*
X0412667Y0345237D02*
X0347679Y0345237D01*
X0347851Y0346036D02*
X0412827Y0346036D01*
X0412987Y0346834D02*
X0348022Y0346834D01*
X0348193Y0347633D02*
X0413147Y0347633D01*
X0413306Y0348431D02*
X0348364Y0348431D01*
X0348535Y0349230D02*
X0413466Y0349230D01*
X0413626Y0350028D02*
X0348706Y0350028D01*
X0348877Y0350827D02*
X0413785Y0350827D01*
X0413914Y0351625D02*
X0349048Y0351625D01*
X0349219Y0352424D02*
X0413964Y0352424D01*
X0414014Y0353222D02*
X0349473Y0353222D01*
X0349801Y0354021D02*
X0414064Y0354021D01*
X0414114Y0354819D02*
X0350128Y0354819D01*
X0350456Y0355618D02*
X0414164Y0355618D01*
X0414214Y0356416D02*
X0350784Y0356416D01*
X0351111Y0357215D02*
X0414263Y0357215D01*
X0414291Y0358013D02*
X0351439Y0358013D01*
X0351766Y0358812D02*
X0414255Y0358812D01*
X0414220Y0359610D02*
X0352094Y0359610D01*
X0352422Y0360409D02*
X0414184Y0360409D01*
X0414149Y0361208D02*
X0352858Y0361208D01*
X0353329Y0362006D02*
X0414113Y0362006D01*
X0414078Y0362805D02*
X0353800Y0362805D01*
X0354271Y0363603D02*
X0414042Y0363603D01*
X0414007Y0364402D02*
X0354742Y0364402D01*
X0355213Y0365200D02*
X0413971Y0365200D01*
X0413936Y0365999D02*
X0355684Y0365999D01*
X0356155Y0366797D02*
X0413900Y0366797D01*
X0413676Y0367596D02*
X0356626Y0367596D01*
X0357097Y0368394D02*
X0413452Y0368394D01*
X0413227Y0369193D02*
X0357628Y0369193D01*
X0358161Y0369991D02*
X0413002Y0369991D01*
X0412778Y0370790D02*
X0358693Y0370790D01*
X0359225Y0371588D02*
X0412553Y0371588D01*
X0412329Y0372387D02*
X0359758Y0372387D01*
X0360290Y0373185D02*
X0412104Y0373185D01*
X0411721Y0373984D02*
X0360888Y0373984D01*
X0361487Y0374782D02*
X0411334Y0374782D01*
X0410948Y0375581D02*
X0362086Y0375581D01*
X0362684Y0376379D02*
X0410562Y0376379D01*
X0410175Y0377178D02*
X0363283Y0377178D01*
X0363882Y0377976D02*
X0409789Y0377976D01*
X0409403Y0378775D02*
X0364481Y0378775D01*
X0365080Y0379573D02*
X0408927Y0379573D01*
X0408128Y0380372D02*
X0366258Y0380372D01*
X0367455Y0381170D02*
X0407330Y0381170D01*
X0406531Y0381969D02*
X0368653Y0381969D01*
X0369851Y0382767D02*
X0405733Y0382767D01*
X0404934Y0383566D02*
X0371258Y0383566D01*
X0372673Y0384364D02*
X0404064Y0384364D01*
X0402916Y0385163D02*
X0374089Y0385163D01*
X0375504Y0385961D02*
X0401768Y0385961D01*
X0400620Y0386760D02*
X0376920Y0386760D01*
X0378337Y0387558D02*
X0399363Y0387558D01*
X0397667Y0388357D02*
X0379757Y0388357D01*
X0381233Y0389155D02*
X0395570Y0389155D01*
X0391817Y0389954D02*
X0382944Y0389954D01*
X0385662Y0390752D02*
X0388064Y0390752D01*
X0378249Y0284550D02*
X0352625Y0284550D01*
X0353024Y0283752D02*
X0377590Y0283752D01*
X0376853Y0282953D02*
X0353423Y0282953D01*
X0353823Y0282155D02*
X0376055Y0282155D01*
X0375256Y0281356D02*
X0354222Y0281356D01*
X0354621Y0280558D02*
X0374458Y0280558D01*
X0373659Y0279759D02*
X0355020Y0279759D01*
X0355420Y0278961D02*
X0372861Y0278961D01*
X0372062Y0278162D02*
X0356165Y0278162D01*
X0356999Y0277364D02*
X0371264Y0277364D01*
X0370465Y0276565D02*
X0357832Y0276565D01*
X0358665Y0275767D02*
X0369667Y0275767D01*
X0368868Y0274968D02*
X0359498Y0274968D01*
X0360363Y0274170D02*
X0368070Y0274170D01*
X0367271Y0273371D02*
X0362040Y0273371D01*
X0363717Y0272573D02*
X0366377Y0272573D01*
X0104900Y0198600D02*
X0106700Y0190600D01*
X0106700Y0174800D01*
X0103500Y0165600D01*
X0100100Y0160600D01*
X0093100Y0153400D01*
X0087900Y0149600D01*
X0081900Y0149600D01*
X0074500Y0151200D01*
X0064100Y0155800D01*
X0053500Y0162200D01*
X0048500Y0167000D01*
X0043900Y0171600D01*
X0041100Y0174200D01*
X0039100Y0178000D01*
X0037300Y0182800D01*
X0035700Y0187400D01*
X0035700Y0198400D01*
X0037500Y0207600D01*
X0040500Y0218800D01*
X0043900Y0226800D01*
X0046900Y0230000D01*
X0054700Y0233200D01*
X0071900Y0233200D01*
X0076700Y0231600D01*
X0081300Y0230000D01*
X0087700Y0227000D01*
X0094100Y0220600D01*
X0098900Y0214400D01*
X0101700Y0208000D01*
X0104900Y0198600D01*
X0104965Y0198311D02*
X0035700Y0198311D01*
X0035700Y0197513D02*
X0105145Y0197513D01*
X0105324Y0196714D02*
X0035700Y0196714D01*
X0035700Y0195916D02*
X0105504Y0195916D01*
X0105684Y0195117D02*
X0035700Y0195117D01*
X0035700Y0194319D02*
X0105863Y0194319D01*
X0106043Y0193520D02*
X0035700Y0193520D01*
X0035700Y0192722D02*
X0106223Y0192722D01*
X0106402Y0191923D02*
X0035700Y0191923D01*
X0035700Y0191125D02*
X0106582Y0191125D01*
X0106700Y0190326D02*
X0035700Y0190326D01*
X0035700Y0189528D02*
X0106700Y0189528D01*
X0106700Y0188729D02*
X0035700Y0188729D01*
X0035700Y0187931D02*
X0106700Y0187931D01*
X0106700Y0187132D02*
X0035793Y0187132D01*
X0036071Y0186334D02*
X0106700Y0186334D01*
X0106700Y0185535D02*
X0036349Y0185535D01*
X0036626Y0184737D02*
X0106700Y0184737D01*
X0106700Y0183938D02*
X0036904Y0183938D01*
X0037182Y0183139D02*
X0106700Y0183139D01*
X0106700Y0182341D02*
X0037472Y0182341D01*
X0037772Y0181542D02*
X0106700Y0181542D01*
X0106700Y0180744D02*
X0038071Y0180744D01*
X0038370Y0179945D02*
X0106700Y0179945D01*
X0106700Y0179147D02*
X0038670Y0179147D01*
X0038969Y0178348D02*
X0106700Y0178348D01*
X0106700Y0177550D02*
X0039337Y0177550D01*
X0039757Y0176751D02*
X0106700Y0176751D01*
X0106700Y0175953D02*
X0040177Y0175953D01*
X0040598Y0175154D02*
X0106700Y0175154D01*
X0106546Y0174356D02*
X0041018Y0174356D01*
X0041792Y0173557D02*
X0106268Y0173557D01*
X0105990Y0172759D02*
X0042652Y0172759D01*
X0043512Y0171960D02*
X0105712Y0171960D01*
X0105435Y0171162D02*
X0044338Y0171162D01*
X0045137Y0170363D02*
X0105157Y0170363D01*
X0104879Y0169565D02*
X0045935Y0169565D01*
X0046734Y0168766D02*
X0104601Y0168766D01*
X0104324Y0167968D02*
X0047532Y0167968D01*
X0048331Y0167169D02*
X0104046Y0167169D01*
X0103768Y0166371D02*
X0049155Y0166371D01*
X0049987Y0165572D02*
X0103481Y0165572D01*
X0102938Y0164774D02*
X0050819Y0164774D01*
X0051651Y0163975D02*
X0102395Y0163975D01*
X0101852Y0163177D02*
X0052483Y0163177D01*
X0053314Y0162378D02*
X0101309Y0162378D01*
X0100766Y0161580D02*
X0054527Y0161580D01*
X0055850Y0160781D02*
X0100223Y0160781D01*
X0099500Y0159983D02*
X0057172Y0159983D01*
X0058495Y0159184D02*
X0098723Y0159184D01*
X0097947Y0158386D02*
X0059818Y0158386D01*
X0061140Y0157587D02*
X0097171Y0157587D01*
X0096394Y0156789D02*
X0062463Y0156789D01*
X0063785Y0155990D02*
X0095618Y0155990D01*
X0094842Y0155192D02*
X0065476Y0155192D01*
X0067281Y0154393D02*
X0094065Y0154393D01*
X0093289Y0153595D02*
X0069086Y0153595D01*
X0070892Y0152796D02*
X0092274Y0152796D01*
X0091181Y0151998D02*
X0072697Y0151998D01*
X0074504Y0151199D02*
X0090088Y0151199D01*
X0088995Y0150401D02*
X0078198Y0150401D01*
X0081891Y0149602D02*
X0087903Y0149602D01*
X0104726Y0199110D02*
X0035839Y0199110D01*
X0035995Y0199908D02*
X0104455Y0199908D01*
X0104183Y0200707D02*
X0036151Y0200707D01*
X0036308Y0201505D02*
X0103911Y0201505D01*
X0103639Y0202304D02*
X0036464Y0202304D01*
X0036620Y0203102D02*
X0103367Y0203102D01*
X0103095Y0203901D02*
X0036776Y0203901D01*
X0036932Y0204699D02*
X0102824Y0204699D01*
X0102552Y0205498D02*
X0037089Y0205498D01*
X0037245Y0206296D02*
X0102280Y0206296D01*
X0102008Y0207095D02*
X0037401Y0207095D01*
X0037579Y0207893D02*
X0101736Y0207893D01*
X0101397Y0208692D02*
X0037792Y0208692D01*
X0038006Y0209490D02*
X0101048Y0209490D01*
X0100699Y0210289D02*
X0038220Y0210289D01*
X0038434Y0211087D02*
X0100349Y0211087D01*
X0100000Y0211886D02*
X0038648Y0211886D01*
X0038862Y0212684D02*
X0099651Y0212684D01*
X0099301Y0213483D02*
X0039076Y0213483D01*
X0039290Y0214281D02*
X0098952Y0214281D01*
X0098374Y0215080D02*
X0039504Y0215080D01*
X0039717Y0215878D02*
X0097755Y0215878D01*
X0097137Y0216677D02*
X0039931Y0216677D01*
X0040145Y0217475D02*
X0096519Y0217475D01*
X0095901Y0218274D02*
X0040359Y0218274D01*
X0040616Y0219072D02*
X0095283Y0219072D01*
X0094664Y0219871D02*
X0040955Y0219871D01*
X0041295Y0220670D02*
X0094030Y0220670D01*
X0093232Y0221468D02*
X0041634Y0221468D01*
X0041973Y0222267D02*
X0092433Y0222267D01*
X0091635Y0223065D02*
X0042313Y0223065D01*
X0042652Y0223864D02*
X0090836Y0223864D01*
X0090038Y0224662D02*
X0042991Y0224662D01*
X0043331Y0225461D02*
X0089239Y0225461D01*
X0088441Y0226259D02*
X0043670Y0226259D01*
X0044142Y0227058D02*
X0087577Y0227058D01*
X0085874Y0227856D02*
X0044890Y0227856D01*
X0045639Y0228655D02*
X0084170Y0228655D01*
X0082467Y0229453D02*
X0046387Y0229453D01*
X0047513Y0230252D02*
X0080577Y0230252D01*
X0078281Y0231050D02*
X0049460Y0231050D01*
X0051406Y0231849D02*
X0075954Y0231849D01*
X0073558Y0232647D02*
X0053353Y0232647D01*
D55*
X0207585Y0381804D03*
X0209539Y0429524D03*
D56*
G36*
X0250920Y0423821D02*
X0250629Y0422882D01*
X0249690Y0423173D01*
X0249981Y0424112D01*
X0250920Y0423821D01*
G37*
G36*
X0288659Y0404591D02*
X0288101Y0403781D01*
X0287291Y0404339D01*
X0287849Y0405149D01*
X0288659Y0404591D01*
G37*
G36*
X0334776Y0382653D02*
X0334824Y0381671D01*
X0333842Y0381623D01*
X0333794Y0382605D01*
X0334776Y0382653D01*
G37*
G36*
X0388647Y0394716D02*
X0388532Y0393739D01*
X0387555Y0393854D01*
X0387670Y0394831D01*
X0388647Y0394716D01*
G37*
G36*
X0415980Y0357044D02*
X0414999Y0357109D01*
X0415064Y0358090D01*
X0416045Y0358025D01*
X0415980Y0357044D01*
G37*
G36*
X0401022Y0310376D02*
X0400233Y0310963D01*
X0400820Y0311752D01*
X0401609Y0311165D01*
X0401022Y0310376D01*
G37*
G36*
X0361632Y0264646D02*
X0361019Y0265415D01*
X0361788Y0266028D01*
X0362401Y0265259D01*
X0361632Y0264646D01*
G37*
G36*
X0317384Y0226165D02*
X0316842Y0226985D01*
X0317662Y0227527D01*
X0318204Y0226707D01*
X0317384Y0226165D01*
G37*
G36*
X0263334Y0189988D02*
X0262893Y0190867D01*
X0263772Y0191308D01*
X0264213Y0190429D01*
X0263334Y0189988D01*
G37*
G36*
X0200312Y0165992D02*
X0200630Y0165062D01*
X0199700Y0164744D01*
X0199382Y0165674D01*
X0200312Y0165992D01*
G37*
G36*
X0148906Y0150601D02*
X0149149Y0149648D01*
X0148196Y0149405D01*
X0147953Y0150358D01*
X0148906Y0150601D01*
G37*
G36*
X0073769Y0151830D02*
X0074198Y0152715D01*
X0075083Y0152286D01*
X0074654Y0151401D01*
X0073769Y0151830D01*
G37*
G36*
X0038146Y0185773D02*
X0039089Y0186050D01*
X0039366Y0185107D01*
X0038423Y0184830D01*
X0038146Y0185773D01*
G37*
G36*
X0055269Y0238430D02*
X0054496Y0239037D01*
X0055103Y0239810D01*
X0055876Y0239203D01*
X0055269Y0238430D01*
G37*
G36*
X0085963Y0268693D02*
X0086671Y0268011D01*
X0085989Y0267303D01*
X0085281Y0267985D01*
X0085963Y0268693D01*
G37*
G36*
X0107071Y0305331D02*
X0108010Y0305040D01*
X0107719Y0304101D01*
X0106780Y0304392D01*
X0107071Y0305331D01*
G37*
G36*
X0116059Y0346882D02*
X0115086Y0347017D01*
X0115221Y0347990D01*
X0116194Y0347855D01*
X0116059Y0346882D01*
G37*
G36*
X0153590Y0345491D02*
X0152685Y0345874D01*
X0153068Y0346779D01*
X0153973Y0346396D01*
X0153590Y0345491D01*
G37*
G36*
X0174478Y0373292D02*
X0173939Y0374115D01*
X0174762Y0374654D01*
X0175301Y0373831D01*
X0174478Y0373292D01*
G37*
G36*
X0177699Y0393050D02*
X0177195Y0393894D01*
X0178039Y0394398D01*
X0178543Y0393554D01*
X0177699Y0393050D01*
G37*
G36*
X0130033Y0386013D02*
X0130848Y0385462D01*
X0130297Y0384647D01*
X0129482Y0385198D01*
X0130033Y0386013D01*
G37*
G36*
X0150405Y0311246D02*
X0149424Y0311191D01*
X0149369Y0312172D01*
X0150350Y0312227D01*
X0150405Y0311246D01*
G37*
G36*
X0162119Y0283144D02*
X0162806Y0283847D01*
X0163509Y0283160D01*
X0162822Y0282457D01*
X0162119Y0283144D01*
G37*
G36*
X0195949Y0267806D02*
X0196006Y0268787D01*
X0196987Y0268730D01*
X0196930Y0267749D01*
X0195949Y0267806D01*
G37*
G36*
X0235035Y0278160D02*
X0234532Y0279005D01*
X0235377Y0279508D01*
X0235880Y0278663D01*
X0235035Y0278160D01*
G37*
G36*
X0255286Y0307827D02*
X0254320Y0308009D01*
X0254502Y0308975D01*
X0255468Y0308793D01*
X0255286Y0307827D01*
G37*
G36*
X0254037Y0344109D02*
X0255011Y0344243D01*
X0255145Y0343269D01*
X0254171Y0343135D01*
X0254037Y0344109D01*
G37*
G36*
X0237182Y0369874D02*
X0237874Y0370572D01*
X0238572Y0369880D01*
X0237880Y0369182D01*
X0237182Y0369874D01*
G37*
M02*
