G75*
%MOIN*%
%OFA0B0*%
%FSLAX25Y25*%
%IPPOS*%
%LPD*%
%AMOC8*
5,1,8,0,0,1.08239X$1,22.5*
%
%ADD10C,0.00600*%
%ADD11R,0.03150X0.03150*%
%ADD12R,0.03150X0.03150*%
%ADD13C,0.06000*%
%ADD14C,0.02978*%
%ADD15C,0.01600*%
%ADD16C,0.02000*%
%ADD17C,0.00800*%
%ADD18C,0.01000*%
D10*
X0083800Y0142400D02*
X0109800Y0138400D01*
X0119300Y0138400D01*
X0130300Y0139900D01*
X0144800Y0142400D01*
X0156800Y0144900D01*
X0169300Y0148400D01*
X0178300Y0150900D01*
X0187800Y0154900D01*
X0200300Y0158900D01*
X0202300Y0159400D01*
X0202800Y0159400D01*
X0204800Y0158400D01*
X0206300Y0156400D01*
X0207800Y0153900D01*
X0208800Y0147900D01*
X0209300Y0143400D01*
X0209300Y0131400D01*
X0208300Y0124900D01*
X0207800Y0120400D01*
X0206300Y0114400D01*
X0204300Y0110400D01*
X0198300Y0096400D01*
X0196300Y0091400D01*
X0195800Y0087400D01*
X0196300Y0081400D01*
X0199300Y0075400D01*
X0204300Y0069400D01*
X0207300Y0066900D01*
X0211800Y0064900D01*
X0217800Y0063400D01*
X0221300Y0062900D01*
X0225800Y0061900D01*
X0228800Y0060900D01*
X0230800Y0059900D01*
X0232300Y0058900D01*
X0234300Y0056900D01*
X0235800Y0054900D01*
X0238300Y0051900D01*
X0239800Y0050400D01*
X0241800Y0049400D01*
X0249800Y0046400D01*
X0254300Y0045900D01*
X0260300Y0044900D01*
X0266800Y0044400D01*
X0274800Y0045400D01*
X0280300Y0047900D01*
X0285300Y0050400D01*
X0287800Y0051900D01*
X0293300Y0055400D01*
X0298300Y0059900D01*
X0304800Y0066400D01*
X0309300Y0070400D01*
X0315800Y0077400D01*
X0318800Y0079900D01*
X0325300Y0081400D01*
X0330300Y0085900D01*
X0334300Y0094400D01*
X0336300Y0104900D01*
X0336800Y0111900D01*
X0334800Y0124400D01*
X0333300Y0131400D01*
X0331800Y0136900D01*
X0329800Y0142900D01*
X0325300Y0152400D01*
X0321300Y0162900D01*
X0317800Y0174400D01*
X0315300Y0186400D01*
X0312800Y0200400D01*
X0312300Y0209400D01*
X0312300Y0212900D01*
X0314300Y0214400D01*
X0319300Y0218400D01*
X0334800Y0230400D01*
X0353800Y0247400D01*
X0374800Y0269900D01*
X0390800Y0288400D01*
X0401300Y0300400D01*
X0408800Y0311900D01*
X0414300Y0323400D01*
X0418800Y0332900D01*
X0420300Y0339900D01*
X0421800Y0354900D01*
X0422300Y0364900D01*
X0421800Y0372400D01*
X0420300Y0379400D01*
X0417800Y0384900D01*
X0414800Y0388400D01*
X0409800Y0392900D01*
X0402300Y0397900D01*
X0395300Y0399900D01*
X0382800Y0400900D01*
X0375300Y0400400D01*
X0364800Y0398400D01*
X0360300Y0396400D01*
X0350300Y0391900D01*
X0340800Y0388900D01*
X0332800Y0388400D01*
X0325300Y0389400D01*
X0318800Y0390400D01*
X0320300Y0396400D01*
X0334300Y0396900D01*
X0343300Y0413400D01*
X0311300Y0428900D01*
X0301800Y0412900D01*
X0304800Y0410400D01*
X0305800Y0409400D01*
X0300800Y0402900D01*
X0298300Y0404900D01*
X0284800Y0413900D01*
X0270300Y0422400D01*
X0253800Y0429400D01*
X0238800Y0433400D01*
X0217800Y0435400D01*
X0206800Y0435900D01*
X0196800Y0435400D01*
X0188800Y0433400D01*
X0178300Y0429400D01*
X0164300Y0423400D01*
X0158300Y0420400D01*
X0142800Y0409400D01*
X0132300Y0399900D01*
X0124800Y0389900D01*
X0116300Y0373400D01*
X0110800Y0359400D01*
X0109300Y0348400D01*
X0108800Y0342900D01*
X0107800Y0332900D01*
X0106300Y0323400D01*
X0103800Y0314900D01*
X0099800Y0301400D01*
X0097800Y0295400D01*
X0087800Y0279400D01*
X0080300Y0270900D01*
X0072300Y0263400D01*
X0062300Y0256400D01*
X0050800Y0244400D01*
X0041800Y0231900D01*
X0035300Y0219400D01*
X0033300Y0210400D01*
X0031800Y0200400D01*
X0031300Y0192400D01*
X0031300Y0188900D01*
X0031800Y0185900D01*
X0033300Y0181400D01*
X0035300Y0177400D01*
X0038300Y0172400D01*
X0043800Y0164900D01*
X0050300Y0159400D01*
X0058800Y0153400D01*
X0065800Y0148900D01*
X0072800Y0145400D01*
X0083800Y0142400D01*
X0084758Y0146907D02*
X0078469Y0148622D01*
X0079933Y0151651D01*
X0079633Y0152512D01*
X0076224Y0154160D01*
X0076224Y0155448D01*
X0073755Y0157918D01*
X0073435Y0158333D01*
X0073325Y0158347D01*
X0073247Y0158426D01*
X0072722Y0158426D01*
X0065556Y0159355D01*
X0061492Y0161069D01*
X0058268Y0163478D01*
X0052551Y0168316D01*
X0046581Y0175326D01*
X0044841Y0179910D01*
X0043405Y0184786D01*
X0043142Y0185678D01*
X0043029Y0186062D01*
X0042791Y0186871D01*
X0042043Y0187279D01*
X0041982Y0187440D01*
X0041666Y0187582D01*
X0041421Y0187827D01*
X0041122Y0187827D01*
X0040848Y0187950D01*
X0040810Y0187935D01*
X0039776Y0191448D01*
X0038976Y0191884D01*
X0038017Y0191602D01*
X0038017Y0198674D01*
X0038601Y0202571D01*
X0039626Y0207089D01*
X0039629Y0207091D01*
X0039764Y0207695D01*
X0039900Y0208297D01*
X0039898Y0208300D01*
X0042422Y0219658D01*
X0044044Y0222776D01*
X0047426Y0229102D01*
X0051257Y0234424D01*
X0053008Y0233051D01*
X0053913Y0233160D01*
X0055284Y0234909D01*
X0056926Y0234909D01*
X0057805Y0235787D01*
X0061667Y0239649D01*
X0061667Y0241643D01*
X0061749Y0241759D01*
X0061667Y0242248D01*
X0061667Y0242743D01*
X0061566Y0242844D01*
X0061017Y0246100D01*
X0062679Y0247835D01*
X0076936Y0258732D01*
X0077050Y0258732D01*
X0077419Y0259101D01*
X0077833Y0259417D01*
X0077848Y0259530D01*
X0082517Y0264199D01*
X0083878Y0262890D01*
X0084789Y0262907D01*
X0086539Y0264725D01*
X0141637Y0264725D01*
X0159531Y0282619D01*
X0159934Y0282226D01*
X0160845Y0282237D01*
X0163681Y0285143D01*
X0163670Y0286055D01*
X0160764Y0288891D01*
X0159853Y0288880D01*
X0157017Y0285973D01*
X0157028Y0285062D01*
X0157384Y0284714D01*
X0140394Y0267725D01*
X0089425Y0267725D01*
X0091700Y0270089D01*
X0091682Y0271000D01*
X0088892Y0273685D01*
X0090900Y0275961D01*
X0091216Y0276186D01*
X0091500Y0276641D01*
X0091855Y0277043D01*
X0091980Y0277409D01*
X0101510Y0292657D01*
X0101875Y0293077D01*
X0101991Y0293426D01*
X0102186Y0293738D01*
X0102278Y0294286D01*
X0103900Y0299153D01*
X0103951Y0299216D01*
X0104188Y0300019D01*
X0104283Y0300303D01*
X0107650Y0299261D01*
X0108011Y0298900D01*
X0142830Y0298900D01*
X0149488Y0305558D01*
X0152256Y0305713D01*
X0152863Y0306392D01*
X0152636Y0310447D01*
X0151957Y0311054D01*
X0149551Y0310919D01*
X0149024Y0311447D01*
X0151926Y0311609D01*
X0152533Y0312288D01*
X0152307Y0316343D01*
X0151627Y0316950D01*
X0148460Y0316773D01*
X0148460Y0342050D01*
X0148875Y0342465D01*
X0148735Y0342132D01*
X0149078Y0341288D01*
X0152818Y0339708D01*
X0153663Y0340051D01*
X0155243Y0343791D01*
X0154900Y0344636D01*
X0153313Y0345306D01*
X0153709Y0345703D01*
X0153737Y0345731D01*
X0155116Y0345148D01*
X0155961Y0345491D01*
X0157541Y0349231D01*
X0157198Y0350076D01*
X0153457Y0351656D01*
X0153242Y0351568D01*
X0135294Y0369516D01*
X0135294Y0387104D01*
X0134873Y0387526D01*
X0135444Y0388373D01*
X0135270Y0389268D01*
X0131904Y0391539D01*
X0131758Y0391510D01*
X0135714Y0396786D01*
X0141540Y0402057D01*
X0141333Y0401022D01*
X0141133Y0400361D01*
X0141155Y0400131D01*
X0141110Y0399905D01*
X0141244Y0399227D01*
X0141312Y0398539D01*
X0141420Y0398336D01*
X0141465Y0398110D01*
X0141848Y0397535D01*
X0145218Y0391227D01*
X0145220Y0391212D01*
X0145649Y0390421D01*
X0146074Y0389625D01*
X0146085Y0389616D01*
X0146092Y0389603D01*
X0146791Y0389036D01*
X0147488Y0388464D01*
X0147502Y0388460D01*
X0147514Y0388451D01*
X0148377Y0388194D01*
X0149239Y0387933D01*
X0149254Y0387934D01*
X0149268Y0387930D01*
X0150163Y0388023D01*
X0151061Y0388112D01*
X0151073Y0388118D01*
X0151088Y0388120D01*
X0151880Y0388549D01*
X0152675Y0388974D01*
X0152684Y0388985D01*
X0192638Y0410647D01*
X0192695Y0410654D01*
X0193441Y0411082D01*
X0194197Y0411492D01*
X0194233Y0411537D01*
X0194282Y0411565D01*
X0194808Y0412246D01*
X0195349Y0412914D01*
X0195366Y0412968D01*
X0195400Y0413014D01*
X0195625Y0413844D01*
X0195870Y0414668D01*
X0195864Y0414725D01*
X0195879Y0414780D01*
X0195769Y0415633D01*
X0195680Y0416488D01*
X0195653Y0416538D01*
X0195646Y0416595D01*
X0195218Y0417341D01*
X0194808Y0418097D01*
X0194763Y0418133D01*
X0191519Y0423790D01*
X0191375Y0424223D01*
X0191068Y0424576D01*
X0190835Y0424982D01*
X0190474Y0425261D01*
X0190176Y0425605D01*
X0189757Y0425814D01*
X0189386Y0426100D01*
X0188946Y0426220D01*
X0188439Y0426473D01*
X0187717Y0426871D01*
X0187623Y0426881D01*
X0187539Y0426924D01*
X0186717Y0426982D01*
X0185290Y0427140D01*
X0190182Y0429004D01*
X0197479Y0430828D01*
X0203419Y0431125D01*
X0203419Y0427494D01*
X0204063Y0426850D01*
X0208124Y0426850D01*
X0208768Y0427494D01*
X0208768Y0431206D01*
X0209324Y0431181D01*
X0209324Y0427494D01*
X0209969Y0426850D01*
X0210499Y0426850D01*
X0210499Y0419546D01*
X0202640Y0411687D01*
X0202640Y0384479D01*
X0202110Y0384479D01*
X0201465Y0383834D01*
X0201465Y0381250D01*
X0197036Y0376821D01*
X0178894Y0376821D01*
X0177805Y0378484D01*
X0176913Y0378671D01*
X0173515Y0376447D01*
X0173329Y0375555D01*
X0175552Y0372157D01*
X0176444Y0371971D01*
X0179271Y0373821D01*
X0198278Y0373821D01*
X0203587Y0379129D01*
X0206171Y0379129D01*
X0206815Y0379773D01*
X0206815Y0382357D01*
X0207371Y0382913D01*
X0207371Y0379773D01*
X0208015Y0379129D01*
X0212076Y0379129D01*
X0212720Y0379773D01*
X0212720Y0380304D01*
X0228800Y0380304D01*
X0228800Y0369516D01*
X0232545Y0365771D01*
X0235946Y0365771D01*
X0237361Y0364356D01*
X0237499Y0364044D01*
X0237783Y0363934D01*
X0237998Y0363719D01*
X0238023Y0363719D01*
X0238534Y0363214D01*
X0238695Y0363215D01*
X0239528Y0363219D01*
X0240664Y0363225D01*
X0240771Y0363226D01*
X0241645Y0364109D01*
X0242788Y0365265D01*
X0252245Y0355809D01*
X0252245Y0351351D01*
X0251354Y0351351D01*
X0250475Y0350472D01*
X0249478Y0349475D01*
X0249478Y0341979D01*
X0250357Y0341100D01*
X0250545Y0340912D01*
X0250545Y0338613D01*
X0251825Y0337332D01*
X0251825Y0314853D01*
X0253259Y0313419D01*
X0253099Y0313310D01*
X0252403Y0309627D01*
X0251851Y0309627D01*
X0250825Y0308601D01*
X0249947Y0307723D01*
X0249947Y0305243D01*
X0249784Y0304384D01*
X0249554Y0303163D01*
X0249947Y0302587D01*
X0249947Y0299724D01*
X0230744Y0280521D01*
X0230744Y0279295D01*
X0229132Y0278338D01*
X0228907Y0277455D01*
X0229502Y0276454D01*
X0219982Y0266935D01*
X0201525Y0266744D01*
X0201712Y0269999D01*
X0201106Y0270680D01*
X0197052Y0270913D01*
X0196372Y0270307D01*
X0196246Y0268128D01*
X0195719Y0268655D01*
X0195817Y0270339D01*
X0195210Y0271020D01*
X0191156Y0271253D01*
X0190476Y0270647D01*
X0190437Y0269966D01*
X0178165Y0269966D01*
X0167515Y0280616D01*
X0167908Y0281019D01*
X0167897Y0281930D01*
X0164990Y0284766D01*
X0164079Y0284755D01*
X0161243Y0281849D01*
X0161254Y0280938D01*
X0164160Y0278101D01*
X0165072Y0278113D01*
X0165419Y0278469D01*
X0176043Y0267845D01*
X0176043Y0267845D01*
X0176922Y0266966D01*
X0190264Y0266966D01*
X0190242Y0266593D01*
X0190848Y0265913D01*
X0194425Y0265706D01*
X0194944Y0265187D01*
X0195990Y0264013D01*
X0196077Y0264008D01*
X0200186Y0263771D01*
X0200228Y0263730D01*
X0200798Y0263736D01*
X0201368Y0263703D01*
X0201412Y0263743D01*
X0220617Y0263941D01*
X0221231Y0263941D01*
X0221237Y0263947D01*
X0221246Y0263948D01*
X0221675Y0264385D01*
X0231198Y0273908D01*
X0231863Y0273739D01*
X0235355Y0275812D01*
X0235580Y0276695D01*
X0233933Y0279468D01*
X0234339Y0279874D01*
X0236058Y0276979D01*
X0236941Y0276754D01*
X0240433Y0278827D01*
X0240658Y0279710D01*
X0239086Y0282358D01*
X0254875Y0298148D01*
X0255754Y0299026D01*
X0255754Y0302012D01*
X0256505Y0302524D01*
X0257116Y0305757D01*
X0257567Y0306208D01*
X0257754Y0306208D01*
X0258632Y0307086D01*
X0259962Y0308416D01*
X0259962Y0313222D01*
X0259083Y0314100D01*
X0256425Y0316758D01*
X0256425Y0338757D01*
X0257300Y0338876D01*
X0257851Y0339602D01*
X0257344Y0343303D01*
X0257775Y0343735D01*
X0258654Y0344614D01*
X0258654Y0350078D01*
X0278711Y0330021D01*
X0278711Y0329039D01*
X0279105Y0328087D01*
X0279800Y0327392D01*
X0279800Y0248814D01*
X0205575Y0174589D01*
X0188144Y0174589D01*
X0187266Y0173710D01*
X0186569Y0173014D01*
X0185690Y0172135D01*
X0185690Y0168665D01*
X0187266Y0167090D01*
X0188144Y0166211D01*
X0193917Y0166211D01*
X0194494Y0165634D01*
X0194490Y0165626D01*
X0195649Y0162241D01*
X0187069Y0159496D01*
X0186858Y0159495D01*
X0186203Y0159219D01*
X0185527Y0159002D01*
X0185366Y0158866D01*
X0176786Y0155254D01*
X0168946Y0153076D01*
X0168941Y0153076D01*
X0168066Y0152831D01*
X0167187Y0152587D01*
X0167183Y0152584D01*
X0155709Y0149372D01*
X0154762Y0149174D01*
X0154983Y0149547D01*
X0153980Y0153482D01*
X0153196Y0153947D01*
X0149261Y0152944D01*
X0148796Y0152161D01*
X0149799Y0148226D01*
X0149906Y0148162D01*
X0149220Y0148020D01*
X0149260Y0148088D01*
X0148257Y0152023D01*
X0147474Y0152488D01*
X0143539Y0151485D01*
X0143074Y0150702D01*
X0144033Y0146939D01*
X0143940Y0146920D01*
X0129598Y0144447D01*
X0118988Y0143000D01*
X0110152Y0143000D01*
X0084758Y0146907D01*
X0084627Y0146942D02*
X0144032Y0146942D01*
X0143879Y0147541D02*
X0082432Y0147541D01*
X0080238Y0148139D02*
X0143727Y0148139D01*
X0143574Y0148738D02*
X0078525Y0148738D01*
X0078814Y0149337D02*
X0143422Y0149337D01*
X0143269Y0149935D02*
X0079103Y0149935D01*
X0079393Y0150534D02*
X0143117Y0150534D01*
X0143329Y0151132D02*
X0079682Y0151132D01*
X0079905Y0151731D02*
X0144500Y0151731D01*
X0146848Y0152329D02*
X0079697Y0152329D01*
X0078773Y0152928D02*
X0149252Y0152928D01*
X0148896Y0152329D02*
X0147742Y0152329D01*
X0148332Y0151731D02*
X0148906Y0151731D01*
X0149058Y0151132D02*
X0148485Y0151132D01*
X0148637Y0150534D02*
X0149211Y0150534D01*
X0149363Y0149935D02*
X0148790Y0149935D01*
X0148942Y0149337D02*
X0149516Y0149337D01*
X0149669Y0148738D02*
X0149095Y0148738D01*
X0149247Y0148139D02*
X0149796Y0148139D01*
X0154858Y0149337D02*
X0155541Y0149337D01*
X0154884Y0149935D02*
X0157722Y0149935D01*
X0159859Y0150534D02*
X0154732Y0150534D01*
X0154579Y0151132D02*
X0161997Y0151132D01*
X0164134Y0151731D02*
X0154426Y0151731D01*
X0154274Y0152329D02*
X0166272Y0152329D01*
X0168410Y0152928D02*
X0154121Y0152928D01*
X0153906Y0153526D02*
X0170567Y0153526D01*
X0172722Y0154125D02*
X0076297Y0154125D01*
X0076224Y0154723D02*
X0174876Y0154723D01*
X0176947Y0155322D02*
X0076224Y0155322D01*
X0075752Y0155920D02*
X0178369Y0155920D01*
X0179790Y0156519D02*
X0075154Y0156519D01*
X0074555Y0157117D02*
X0181212Y0157117D01*
X0182633Y0157716D02*
X0073957Y0157716D01*
X0073449Y0158314D02*
X0184055Y0158314D01*
X0185421Y0158913D02*
X0068967Y0158913D01*
X0065186Y0159511D02*
X0187117Y0159511D01*
X0188987Y0160110D02*
X0063767Y0160110D01*
X0062348Y0160708D02*
X0190858Y0160708D01*
X0192728Y0161307D02*
X0061174Y0161307D01*
X0060373Y0161905D02*
X0194598Y0161905D01*
X0195559Y0162504D02*
X0059572Y0162504D01*
X0058771Y0163102D02*
X0195354Y0163102D01*
X0195149Y0163701D02*
X0058005Y0163701D01*
X0057298Y0164299D02*
X0194944Y0164299D01*
X0194739Y0164898D02*
X0056590Y0164898D01*
X0055883Y0165496D02*
X0194534Y0165496D01*
X0194033Y0166095D02*
X0055176Y0166095D01*
X0054468Y0166693D02*
X0187662Y0166693D01*
X0187063Y0167292D02*
X0053761Y0167292D01*
X0053054Y0167890D02*
X0186465Y0167890D01*
X0185866Y0168489D02*
X0052404Y0168489D01*
X0051894Y0169087D02*
X0185690Y0169087D01*
X0185690Y0169686D02*
X0051384Y0169686D01*
X0050875Y0170284D02*
X0185690Y0170284D01*
X0185690Y0170883D02*
X0050365Y0170883D01*
X0049855Y0171481D02*
X0185690Y0171481D01*
X0185690Y0172080D02*
X0049346Y0172080D01*
X0048836Y0172678D02*
X0186234Y0172678D01*
X0186832Y0173277D02*
X0048326Y0173277D01*
X0047817Y0173875D02*
X0187431Y0173875D01*
X0187266Y0173710D02*
X0187266Y0173710D01*
X0188029Y0174474D02*
X0047307Y0174474D01*
X0046797Y0175072D02*
X0206058Y0175072D01*
X0206657Y0175671D02*
X0046450Y0175671D01*
X0046223Y0176270D02*
X0207255Y0176270D01*
X0207854Y0176868D02*
X0045996Y0176868D01*
X0045769Y0177467D02*
X0208452Y0177467D01*
X0209051Y0178065D02*
X0045541Y0178065D01*
X0045314Y0178664D02*
X0209649Y0178664D01*
X0210248Y0179262D02*
X0045087Y0179262D01*
X0044860Y0179861D02*
X0210846Y0179861D01*
X0211445Y0180459D02*
X0044679Y0180459D01*
X0044503Y0181058D02*
X0212043Y0181058D01*
X0212642Y0181656D02*
X0044327Y0181656D01*
X0044150Y0182255D02*
X0213240Y0182255D01*
X0213839Y0182853D02*
X0043974Y0182853D01*
X0043798Y0183452D02*
X0214437Y0183452D01*
X0215036Y0184050D02*
X0043622Y0184050D01*
X0043445Y0184649D02*
X0215634Y0184649D01*
X0216233Y0185247D02*
X0043269Y0185247D01*
X0043093Y0185846D02*
X0216831Y0185846D01*
X0217430Y0186444D02*
X0042917Y0186444D01*
X0042476Y0187043D02*
X0218028Y0187043D01*
X0218627Y0187641D02*
X0041607Y0187641D01*
X0040721Y0188240D02*
X0219225Y0188240D01*
X0219824Y0188838D02*
X0040544Y0188838D01*
X0040368Y0189437D02*
X0220422Y0189437D01*
X0221021Y0190035D02*
X0040192Y0190035D01*
X0040016Y0190634D02*
X0221619Y0190634D01*
X0222218Y0191232D02*
X0039840Y0191232D01*
X0039075Y0191831D02*
X0222816Y0191831D01*
X0223415Y0192429D02*
X0038017Y0192429D01*
X0038017Y0191831D02*
X0038794Y0191831D01*
X0038017Y0193028D02*
X0224013Y0193028D01*
X0224612Y0193626D02*
X0038017Y0193626D01*
X0038017Y0194225D02*
X0225211Y0194225D01*
X0225809Y0194823D02*
X0038017Y0194823D01*
X0038017Y0195422D02*
X0226408Y0195422D01*
X0227006Y0196020D02*
X0038017Y0196020D01*
X0038017Y0196619D02*
X0227605Y0196619D01*
X0228203Y0197217D02*
X0038017Y0197217D01*
X0038017Y0197816D02*
X0228802Y0197816D01*
X0229400Y0198414D02*
X0038017Y0198414D01*
X0038068Y0199013D02*
X0229999Y0199013D01*
X0230597Y0199611D02*
X0038157Y0199611D01*
X0038247Y0200210D02*
X0231196Y0200210D01*
X0231794Y0200808D02*
X0038337Y0200808D01*
X0038427Y0201407D02*
X0232393Y0201407D01*
X0232991Y0202005D02*
X0038517Y0202005D01*
X0038609Y0202604D02*
X0233590Y0202604D01*
X0234188Y0203203D02*
X0038745Y0203203D01*
X0038880Y0203801D02*
X0234787Y0203801D01*
X0235385Y0204400D02*
X0039016Y0204400D01*
X0039152Y0204998D02*
X0235984Y0204998D01*
X0236582Y0205597D02*
X0039288Y0205597D01*
X0039423Y0206195D02*
X0237181Y0206195D01*
X0237779Y0206794D02*
X0039559Y0206794D01*
X0039696Y0207392D02*
X0238378Y0207392D01*
X0238976Y0207991D02*
X0039831Y0207991D01*
X0039962Y0208589D02*
X0239575Y0208589D01*
X0240173Y0209188D02*
X0040095Y0209188D01*
X0040228Y0209786D02*
X0240772Y0209786D01*
X0241370Y0210385D02*
X0040361Y0210385D01*
X0040494Y0210983D02*
X0241969Y0210983D01*
X0242567Y0211582D02*
X0040627Y0211582D01*
X0040760Y0212180D02*
X0243166Y0212180D01*
X0243764Y0212779D02*
X0040893Y0212779D01*
X0041026Y0213377D02*
X0244363Y0213377D01*
X0244961Y0213976D02*
X0041159Y0213976D01*
X0041292Y0214574D02*
X0245560Y0214574D01*
X0246158Y0215173D02*
X0041425Y0215173D01*
X0041558Y0215771D02*
X0246757Y0215771D01*
X0247355Y0216370D02*
X0041691Y0216370D01*
X0041824Y0216968D02*
X0247954Y0216968D01*
X0248552Y0217567D02*
X0041957Y0217567D01*
X0042090Y0218165D02*
X0249151Y0218165D01*
X0249749Y0218764D02*
X0042223Y0218764D01*
X0042356Y0219362D02*
X0250348Y0219362D01*
X0250947Y0219961D02*
X0042580Y0219961D01*
X0042891Y0220559D02*
X0251545Y0220559D01*
X0252144Y0221158D02*
X0043202Y0221158D01*
X0043513Y0221756D02*
X0252742Y0221756D01*
X0253341Y0222355D02*
X0043825Y0222355D01*
X0044138Y0222953D02*
X0253939Y0222953D01*
X0254538Y0223552D02*
X0044458Y0223552D01*
X0044778Y0224150D02*
X0255136Y0224150D01*
X0255735Y0224749D02*
X0045098Y0224749D01*
X0045418Y0225347D02*
X0256333Y0225347D01*
X0256932Y0225946D02*
X0045738Y0225946D01*
X0046058Y0226544D02*
X0257530Y0226544D01*
X0258129Y0227143D02*
X0046378Y0227143D01*
X0046698Y0227741D02*
X0258727Y0227741D01*
X0259326Y0228340D02*
X0047018Y0228340D01*
X0047338Y0228939D02*
X0259924Y0228939D01*
X0260523Y0229537D02*
X0047738Y0229537D01*
X0048169Y0230136D02*
X0261121Y0230136D01*
X0261720Y0230734D02*
X0048600Y0230734D01*
X0049031Y0231333D02*
X0262318Y0231333D01*
X0262917Y0231931D02*
X0049462Y0231931D01*
X0049893Y0232530D02*
X0263515Y0232530D01*
X0264114Y0233128D02*
X0053646Y0233128D01*
X0052910Y0233128D02*
X0050324Y0233128D01*
X0050755Y0233727D02*
X0052146Y0233727D01*
X0051383Y0234325D02*
X0051186Y0234325D01*
X0054357Y0233727D02*
X0264712Y0233727D01*
X0265311Y0234325D02*
X0054826Y0234325D01*
X0056941Y0234924D02*
X0265909Y0234924D01*
X0266508Y0235522D02*
X0057540Y0235522D01*
X0058138Y0236121D02*
X0267106Y0236121D01*
X0267705Y0236719D02*
X0058737Y0236719D01*
X0059335Y0237318D02*
X0268303Y0237318D01*
X0268902Y0237916D02*
X0059934Y0237916D01*
X0060532Y0238515D02*
X0269500Y0238515D01*
X0270099Y0239113D02*
X0061131Y0239113D01*
X0061667Y0239712D02*
X0270697Y0239712D01*
X0271296Y0240310D02*
X0061667Y0240310D01*
X0061667Y0240909D02*
X0271894Y0240909D01*
X0272493Y0241507D02*
X0061667Y0241507D01*
X0061691Y0242106D02*
X0273091Y0242106D01*
X0273690Y0242704D02*
X0061667Y0242704D01*
X0061489Y0243303D02*
X0274288Y0243303D01*
X0274887Y0243901D02*
X0061388Y0243901D01*
X0061287Y0244500D02*
X0275485Y0244500D01*
X0276084Y0245098D02*
X0061186Y0245098D01*
X0061085Y0245697D02*
X0276682Y0245697D01*
X0277281Y0246295D02*
X0061204Y0246295D01*
X0061777Y0246894D02*
X0277880Y0246894D01*
X0278478Y0247492D02*
X0062351Y0247492D01*
X0063014Y0248091D02*
X0279077Y0248091D01*
X0279675Y0248689D02*
X0063797Y0248689D01*
X0064580Y0249288D02*
X0279800Y0249288D01*
X0279800Y0249886D02*
X0065363Y0249886D01*
X0066146Y0250485D02*
X0279800Y0250485D01*
X0279800Y0251083D02*
X0066929Y0251083D01*
X0067712Y0251682D02*
X0279800Y0251682D01*
X0279800Y0252280D02*
X0068496Y0252280D01*
X0069279Y0252879D02*
X0279800Y0252879D01*
X0279800Y0253477D02*
X0070062Y0253477D01*
X0070845Y0254076D02*
X0279800Y0254076D01*
X0279800Y0254674D02*
X0071628Y0254674D01*
X0072411Y0255273D02*
X0279800Y0255273D01*
X0279800Y0255872D02*
X0073194Y0255872D01*
X0073977Y0256470D02*
X0279800Y0256470D01*
X0279800Y0257069D02*
X0074760Y0257069D01*
X0075543Y0257667D02*
X0279800Y0257667D01*
X0279800Y0258266D02*
X0076326Y0258266D01*
X0077182Y0258864D02*
X0279800Y0258864D01*
X0279800Y0259463D02*
X0077839Y0259463D01*
X0078379Y0260061D02*
X0279800Y0260061D01*
X0279800Y0260660D02*
X0078978Y0260660D01*
X0079576Y0261258D02*
X0279800Y0261258D01*
X0279800Y0261857D02*
X0080175Y0261857D01*
X0080773Y0262455D02*
X0279800Y0262455D01*
X0279800Y0263054D02*
X0084930Y0263054D01*
X0085506Y0263652D02*
X0279800Y0263652D01*
X0279800Y0264251D02*
X0221543Y0264251D01*
X0222139Y0264849D02*
X0279800Y0264849D01*
X0279800Y0265448D02*
X0222738Y0265448D01*
X0223336Y0266046D02*
X0279800Y0266046D01*
X0279800Y0266645D02*
X0223935Y0266645D01*
X0224533Y0267243D02*
X0279800Y0267243D01*
X0279800Y0267842D02*
X0225132Y0267842D01*
X0225730Y0268440D02*
X0279800Y0268440D01*
X0279800Y0269039D02*
X0226329Y0269039D01*
X0226927Y0269637D02*
X0279800Y0269637D01*
X0279800Y0270236D02*
X0227526Y0270236D01*
X0228124Y0270834D02*
X0279800Y0270834D01*
X0279800Y0271433D02*
X0228723Y0271433D01*
X0229321Y0272031D02*
X0279800Y0272031D01*
X0279800Y0272630D02*
X0229920Y0272630D01*
X0230518Y0273228D02*
X0279800Y0273228D01*
X0279800Y0273827D02*
X0232012Y0273827D01*
X0231517Y0273827D02*
X0231117Y0273827D01*
X0233020Y0274425D02*
X0279800Y0274425D01*
X0279800Y0275024D02*
X0234028Y0275024D01*
X0235036Y0275622D02*
X0279800Y0275622D01*
X0279800Y0276221D02*
X0235459Y0276221D01*
X0235506Y0276819D02*
X0236683Y0276819D01*
X0237052Y0276819D02*
X0279800Y0276819D01*
X0279800Y0277418D02*
X0238060Y0277418D01*
X0239068Y0278016D02*
X0279800Y0278016D01*
X0279800Y0278615D02*
X0240076Y0278615D01*
X0240532Y0279213D02*
X0279800Y0279213D01*
X0279800Y0279812D02*
X0240598Y0279812D01*
X0240242Y0280410D02*
X0279800Y0280410D01*
X0279800Y0281009D02*
X0239887Y0281009D01*
X0239531Y0281608D02*
X0279800Y0281608D01*
X0279800Y0282206D02*
X0239176Y0282206D01*
X0239532Y0282805D02*
X0279800Y0282805D01*
X0279800Y0283403D02*
X0240131Y0283403D01*
X0240729Y0284002D02*
X0279800Y0284002D01*
X0279800Y0284600D02*
X0241328Y0284600D01*
X0241926Y0285199D02*
X0279800Y0285199D01*
X0279800Y0285797D02*
X0242525Y0285797D01*
X0243123Y0286396D02*
X0279800Y0286396D01*
X0279800Y0286994D02*
X0243722Y0286994D01*
X0244320Y0287593D02*
X0279800Y0287593D01*
X0279800Y0288191D02*
X0244919Y0288191D01*
X0245517Y0288790D02*
X0279800Y0288790D01*
X0279800Y0289388D02*
X0246116Y0289388D01*
X0246714Y0289987D02*
X0279800Y0289987D01*
X0279800Y0290585D02*
X0247313Y0290585D01*
X0247912Y0291184D02*
X0279800Y0291184D01*
X0279800Y0291782D02*
X0248510Y0291782D01*
X0249109Y0292381D02*
X0279800Y0292381D01*
X0279800Y0292979D02*
X0249707Y0292979D01*
X0250306Y0293578D02*
X0279800Y0293578D01*
X0279800Y0294176D02*
X0250904Y0294176D01*
X0251503Y0294775D02*
X0279800Y0294775D01*
X0279800Y0295373D02*
X0252101Y0295373D01*
X0252700Y0295972D02*
X0279800Y0295972D01*
X0279800Y0296570D02*
X0253298Y0296570D01*
X0253897Y0297169D02*
X0279800Y0297169D01*
X0279800Y0297767D02*
X0254495Y0297767D01*
X0255094Y0298366D02*
X0279800Y0298366D01*
X0279800Y0298964D02*
X0255692Y0298964D01*
X0255754Y0299563D02*
X0279800Y0299563D01*
X0279800Y0300161D02*
X0255754Y0300161D01*
X0255754Y0300760D02*
X0279800Y0300760D01*
X0279800Y0301358D02*
X0255754Y0301358D01*
X0255754Y0301957D02*
X0279800Y0301957D01*
X0279800Y0302555D02*
X0256511Y0302555D01*
X0256624Y0303154D02*
X0279800Y0303154D01*
X0279800Y0303752D02*
X0256738Y0303752D01*
X0256851Y0304351D02*
X0279800Y0304351D01*
X0279800Y0304949D02*
X0256964Y0304949D01*
X0257077Y0305548D02*
X0279800Y0305548D01*
X0279800Y0306146D02*
X0257506Y0306146D01*
X0258291Y0306745D02*
X0279800Y0306745D01*
X0279800Y0307343D02*
X0258890Y0307343D01*
X0259488Y0307942D02*
X0279800Y0307942D01*
X0279800Y0308541D02*
X0259962Y0308541D01*
X0259962Y0309139D02*
X0279800Y0309139D01*
X0279800Y0309738D02*
X0259962Y0309738D01*
X0259962Y0310336D02*
X0279800Y0310336D01*
X0279800Y0310935D02*
X0259962Y0310935D01*
X0259962Y0311533D02*
X0279800Y0311533D01*
X0279800Y0312132D02*
X0259962Y0312132D01*
X0259962Y0312730D02*
X0279800Y0312730D01*
X0279800Y0313329D02*
X0259855Y0313329D01*
X0259256Y0313927D02*
X0279800Y0313927D01*
X0279800Y0314526D02*
X0258658Y0314526D01*
X0258059Y0315124D02*
X0279800Y0315124D01*
X0279800Y0315723D02*
X0257461Y0315723D01*
X0256862Y0316321D02*
X0279800Y0316321D01*
X0279800Y0316920D02*
X0256425Y0316920D01*
X0256425Y0317518D02*
X0279800Y0317518D01*
X0279800Y0318117D02*
X0256425Y0318117D01*
X0256425Y0318715D02*
X0279800Y0318715D01*
X0279800Y0319314D02*
X0256425Y0319314D01*
X0256425Y0319912D02*
X0279800Y0319912D01*
X0279800Y0320511D02*
X0256425Y0320511D01*
X0256425Y0321109D02*
X0279800Y0321109D01*
X0279800Y0321708D02*
X0256425Y0321708D01*
X0256425Y0322306D02*
X0279800Y0322306D01*
X0279800Y0322905D02*
X0256425Y0322905D01*
X0256425Y0323503D02*
X0279800Y0323503D01*
X0279800Y0324102D02*
X0256425Y0324102D01*
X0256425Y0324700D02*
X0279800Y0324700D01*
X0279800Y0325299D02*
X0256425Y0325299D01*
X0256425Y0325897D02*
X0279800Y0325897D01*
X0279800Y0326496D02*
X0256425Y0326496D01*
X0256425Y0327094D02*
X0279800Y0327094D01*
X0279499Y0327693D02*
X0256425Y0327693D01*
X0256425Y0328291D02*
X0279020Y0328291D01*
X0278773Y0328890D02*
X0256425Y0328890D01*
X0256425Y0329488D02*
X0278711Y0329488D01*
X0278645Y0330087D02*
X0256425Y0330087D01*
X0256425Y0330685D02*
X0278047Y0330685D01*
X0277448Y0331284D02*
X0256425Y0331284D01*
X0256425Y0331882D02*
X0276850Y0331882D01*
X0276251Y0332481D02*
X0256425Y0332481D01*
X0256425Y0333079D02*
X0275653Y0333079D01*
X0275054Y0333678D02*
X0256425Y0333678D01*
X0256425Y0334277D02*
X0274456Y0334277D01*
X0273857Y0334875D02*
X0256425Y0334875D01*
X0256425Y0335474D02*
X0273259Y0335474D01*
X0272660Y0336072D02*
X0256425Y0336072D01*
X0256425Y0336671D02*
X0272062Y0336671D01*
X0271463Y0337269D02*
X0256425Y0337269D01*
X0256425Y0337868D02*
X0270865Y0337868D01*
X0270266Y0338466D02*
X0256425Y0338466D01*
X0257443Y0339065D02*
X0269668Y0339065D01*
X0269069Y0339663D02*
X0257842Y0339663D01*
X0257760Y0340262D02*
X0268471Y0340262D01*
X0267872Y0340860D02*
X0257678Y0340860D01*
X0257596Y0341459D02*
X0267274Y0341459D01*
X0266675Y0342057D02*
X0257514Y0342057D01*
X0257432Y0342656D02*
X0266077Y0342656D01*
X0265478Y0343254D02*
X0257350Y0343254D01*
X0257775Y0343735D02*
X0257775Y0343735D01*
X0257893Y0343853D02*
X0264880Y0343853D01*
X0264281Y0344451D02*
X0258492Y0344451D01*
X0258654Y0345050D02*
X0263683Y0345050D01*
X0263084Y0345648D02*
X0258654Y0345648D01*
X0258654Y0346247D02*
X0262485Y0346247D01*
X0261887Y0346845D02*
X0258654Y0346845D01*
X0258654Y0347444D02*
X0261288Y0347444D01*
X0260690Y0348042D02*
X0258654Y0348042D01*
X0258654Y0348641D02*
X0260091Y0348641D01*
X0259493Y0349239D02*
X0258654Y0349239D01*
X0258654Y0349838D02*
X0258894Y0349838D01*
X0260743Y0352232D02*
X0276151Y0352232D01*
X0275552Y0352830D02*
X0260254Y0352830D01*
X0260254Y0352721D02*
X0260254Y0358823D01*
X0260303Y0358823D01*
X0261254Y0359217D01*
X0261983Y0359946D01*
X0262377Y0360897D01*
X0262377Y0361927D01*
X0261983Y0362879D01*
X0261288Y0363574D01*
X0261288Y0368266D01*
X0272236Y0379215D01*
X0284194Y0386574D01*
X0284194Y0386574D01*
X0286134Y0387768D01*
X0286631Y0387562D01*
X0287660Y0387562D01*
X0288612Y0387956D01*
X0289340Y0388685D01*
X0289734Y0389636D01*
X0289734Y0390666D01*
X0289340Y0391618D01*
X0288612Y0392346D01*
X0287660Y0392740D01*
X0286631Y0392740D01*
X0285679Y0392346D01*
X0284951Y0391618D01*
X0284557Y0390666D01*
X0284557Y0390319D01*
X0283680Y0389780D01*
X0270875Y0381900D01*
X0270679Y0381900D01*
X0270364Y0381585D01*
X0269985Y0381352D01*
X0269939Y0381160D01*
X0258288Y0369509D01*
X0258288Y0363574D01*
X0258030Y0363316D01*
X0244346Y0377001D01*
X0239031Y0377001D01*
X0238563Y0377464D01*
X0238072Y0377955D01*
X0237193Y0378834D01*
X0233633Y0378834D01*
X0231800Y0377000D01*
X0231800Y0382425D01*
X0230921Y0383304D01*
X0212720Y0383304D01*
X0212720Y0383834D01*
X0212076Y0384479D01*
X0208936Y0384479D01*
X0212034Y0387576D01*
X0245158Y0387576D01*
X0249300Y0383434D01*
X0249300Y0382561D01*
X0248605Y0381867D01*
X0248211Y0380915D01*
X0248211Y0379885D01*
X0248605Y0378933D01*
X0249333Y0378205D01*
X0250285Y0377811D01*
X0251315Y0377811D01*
X0252267Y0378205D01*
X0252995Y0378933D01*
X0253389Y0379885D01*
X0253389Y0380915D01*
X0252995Y0381867D01*
X0252300Y0382561D01*
X0252300Y0384676D01*
X0247279Y0389697D01*
X0247279Y0389697D01*
X0246400Y0390576D01*
X0210791Y0390576D01*
X0205640Y0385425D01*
X0205640Y0410444D01*
X0212621Y0417424D01*
X0213499Y0418303D01*
X0213499Y0426850D01*
X0214030Y0426850D01*
X0214674Y0427494D01*
X0214674Y0430937D01*
X0217477Y0430810D01*
X0237984Y0428857D01*
X0245933Y0426737D01*
X0244799Y0423076D01*
X0245224Y0422270D01*
X0249104Y0421069D01*
X0249910Y0421494D01*
X0251106Y0425358D01*
X0251649Y0425213D01*
X0251642Y0425209D01*
X0250441Y0421329D01*
X0250866Y0420523D01*
X0254745Y0419322D01*
X0255551Y0419747D01*
X0256622Y0423206D01*
X0268230Y0418281D01*
X0282359Y0409999D01*
X0284545Y0408541D01*
X0282592Y0405700D01*
X0282759Y0404804D01*
X0286105Y0402504D01*
X0287001Y0402670D01*
X0288997Y0405574D01*
X0289459Y0405265D01*
X0287459Y0402355D01*
X0287625Y0401459D01*
X0290972Y0399159D01*
X0291868Y0399325D01*
X0293911Y0402297D01*
X0295582Y0401183D01*
X0297247Y0399851D01*
X0297270Y0399812D01*
X0297960Y0399281D01*
X0298641Y0398736D01*
X0298685Y0398724D01*
X0298721Y0398696D01*
X0299562Y0398470D01*
X0300399Y0398227D01*
X0300444Y0398232D01*
X0300488Y0398220D01*
X0301352Y0398333D01*
X0302217Y0398429D01*
X0302257Y0398451D01*
X0302302Y0398457D01*
X0303057Y0398892D01*
X0303820Y0399312D01*
X0303849Y0399347D01*
X0303888Y0399370D01*
X0304419Y0400060D01*
X0304964Y0400741D01*
X0304976Y0400785D01*
X0308330Y0405145D01*
X0295902Y0372853D01*
X0292180Y0363929D01*
X0291950Y0363700D01*
X0291950Y0363378D01*
X0291827Y0363082D01*
X0291950Y0362782D01*
X0291950Y0360989D01*
X0291285Y0360989D01*
X0290333Y0360595D01*
X0289605Y0359867D01*
X0289211Y0358915D01*
X0289211Y0357885D01*
X0289605Y0356933D01*
X0290333Y0356205D01*
X0291285Y0355811D01*
X0292315Y0355811D01*
X0293267Y0356205D01*
X0293439Y0356378D01*
X0294111Y0355705D01*
X0295063Y0355311D01*
X0296093Y0355311D01*
X0297044Y0355705D01*
X0297467Y0356128D01*
X0297889Y0355705D01*
X0298841Y0355311D01*
X0299871Y0355311D01*
X0300822Y0355705D01*
X0301551Y0356433D01*
X0301945Y0357385D01*
X0301945Y0358415D01*
X0301551Y0359367D01*
X0300822Y0360095D01*
X0299871Y0360489D01*
X0299796Y0360489D01*
X0298660Y0362906D01*
X0299080Y0363965D01*
X0301824Y0370875D01*
X0302069Y0370285D01*
X0302797Y0369556D01*
X0303749Y0369162D01*
X0304779Y0369162D01*
X0305730Y0369556D01*
X0306458Y0370285D01*
X0306853Y0371236D01*
X0306853Y0372266D01*
X0306458Y0373218D01*
X0305764Y0373912D01*
X0305764Y0375399D01*
X0304230Y0376933D01*
X0304273Y0377044D01*
X0313404Y0400041D01*
X0325810Y0404086D01*
X0326281Y0402679D01*
X0327351Y0401448D01*
X0327713Y0401268D01*
X0320785Y0401020D01*
X0320528Y0401085D01*
X0319878Y0400988D01*
X0319221Y0400964D01*
X0318980Y0400854D01*
X0318718Y0400815D01*
X0318154Y0400477D01*
X0317557Y0400204D01*
X0317376Y0400010D01*
X0317149Y0399874D01*
X0316758Y0399346D01*
X0316310Y0398865D01*
X0316217Y0398616D01*
X0316059Y0398403D01*
X0315900Y0397766D01*
X0315670Y0397150D01*
X0315680Y0396885D01*
X0314506Y0392191D01*
X0314393Y0392004D01*
X0314286Y0391309D01*
X0314115Y0390628D01*
X0314148Y0390411D01*
X0314114Y0390195D01*
X0314281Y0389513D01*
X0314385Y0388818D01*
X0314497Y0388630D01*
X0314549Y0388418D01*
X0314965Y0387851D01*
X0315326Y0387249D01*
X0315502Y0387118D01*
X0315632Y0386942D01*
X0316232Y0386577D01*
X0316797Y0386159D01*
X0317009Y0386106D01*
X0317196Y0385993D01*
X0317891Y0385886D01*
X0318572Y0385715D01*
X0318789Y0385748D01*
X0323744Y0384985D01*
X0323785Y0384961D01*
X0324646Y0384846D01*
X0325505Y0384714D01*
X0325551Y0384726D01*
X0329356Y0384219D01*
X0329081Y0383915D01*
X0329279Y0379859D01*
X0329954Y0379247D01*
X0332780Y0379385D01*
X0334748Y0377976D01*
X0334748Y0377576D01*
X0335027Y0376902D01*
X0334281Y0376902D01*
X0334120Y0376995D01*
X0333818Y0377297D01*
X0333602Y0377297D01*
X0333415Y0377406D01*
X0333002Y0377297D01*
X0332576Y0377297D01*
X0332423Y0377144D01*
X0331469Y0376892D01*
X0331267Y0377095D01*
X0330315Y0377489D01*
X0329285Y0377489D01*
X0328333Y0377095D01*
X0327605Y0376367D01*
X0327211Y0375415D01*
X0327211Y0374385D01*
X0327605Y0373433D01*
X0328333Y0372705D01*
X0329285Y0372311D01*
X0330315Y0372311D01*
X0331267Y0372705D01*
X0331995Y0373433D01*
X0332225Y0373989D01*
X0332746Y0374127D01*
X0332971Y0373902D01*
X0339072Y0373902D01*
X0342288Y0377118D01*
X0342649Y0377319D01*
X0342712Y0377541D01*
X0342875Y0377704D01*
X0342875Y0378117D01*
X0344317Y0383216D01*
X0360547Y0388523D01*
X0360633Y0388490D01*
X0361127Y0388712D01*
X0361641Y0388880D01*
X0361683Y0388962D01*
X0371309Y0393294D01*
X0379918Y0393294D01*
X0382259Y0390953D01*
X0383138Y0390074D01*
X0389835Y0390074D01*
X0391011Y0391250D01*
X0393227Y0390990D01*
X0393942Y0391554D01*
X0394389Y0395358D01*
X0394477Y0395351D01*
X0400346Y0393674D01*
X0406971Y0389258D01*
X0411501Y0385180D01*
X0413883Y0382402D01*
X0415906Y0377950D01*
X0417232Y0371762D01*
X0417692Y0364862D01*
X0417578Y0362577D01*
X0413837Y0362825D01*
X0413151Y0362225D01*
X0412882Y0358173D01*
X0413482Y0357487D01*
X0417311Y0357233D01*
X0417283Y0356678D01*
X0413445Y0356933D01*
X0412760Y0356333D01*
X0412491Y0352281D01*
X0413091Y0351595D01*
X0416822Y0351347D01*
X0415748Y0340613D01*
X0414414Y0334386D01*
X0410147Y0325378D01*
X0404935Y0314480D01*
X0402353Y0316398D01*
X0401451Y0316265D01*
X0399030Y0313005D01*
X0399163Y0312103D01*
X0402045Y0309963D01*
X0401741Y0309496D01*
X0398832Y0311657D01*
X0397930Y0311524D01*
X0395509Y0308263D01*
X0395642Y0307362D01*
X0398813Y0305007D01*
X0397624Y0303185D01*
X0387932Y0292107D01*
X0387919Y0292101D01*
X0387329Y0291419D01*
X0386736Y0290741D01*
X0386731Y0290727D01*
X0371378Y0272975D01*
X0366421Y0267664D01*
X0364465Y0270123D01*
X0363559Y0270226D01*
X0361224Y0268369D01*
X0360927Y0268369D01*
X0357450Y0271846D01*
X0312252Y0320343D01*
X0312252Y0320373D01*
X0311831Y0320794D01*
X0311426Y0321229D01*
X0311395Y0321230D01*
X0271300Y0361325D01*
X0271300Y0370739D01*
X0271995Y0371433D01*
X0272389Y0372385D01*
X0272389Y0373415D01*
X0271995Y0374367D01*
X0271267Y0375095D01*
X0270315Y0375489D01*
X0269285Y0375489D01*
X0268333Y0375095D01*
X0267605Y0374367D01*
X0267211Y0373415D01*
X0267211Y0372385D01*
X0267605Y0371433D01*
X0268300Y0370739D01*
X0268300Y0360083D01*
X0269179Y0359204D01*
X0308008Y0320375D01*
X0307334Y0320095D01*
X0306606Y0319367D01*
X0306212Y0318416D01*
X0306212Y0317386D01*
X0306606Y0316434D01*
X0307334Y0315706D01*
X0308286Y0315312D01*
X0308641Y0315312D01*
X0353206Y0268472D01*
X0353168Y0264981D01*
X0353150Y0264962D01*
X0353159Y0264197D01*
X0353151Y0263433D01*
X0353170Y0263414D01*
X0353252Y0257072D01*
X0352371Y0256128D01*
X0337634Y0242329D01*
X0330318Y0235783D01*
X0325666Y0232181D01*
X0319404Y0234787D01*
X0319143Y0235064D01*
X0318706Y0235077D01*
X0318302Y0235245D01*
X0317950Y0235100D01*
X0317570Y0235112D01*
X0317251Y0234812D01*
X0316847Y0234645D01*
X0316701Y0234294D01*
X0310335Y0228306D01*
X0310282Y0228306D01*
X0309442Y0227466D01*
X0309213Y0227251D01*
X0309213Y0227237D01*
X0309169Y0227193D01*
X0308865Y0226889D01*
X0308865Y0224602D01*
X0308759Y0224451D01*
X0308865Y0223837D01*
X0308865Y0223213D01*
X0308996Y0223083D01*
X0309556Y0219852D01*
X0306705Y0218335D01*
X0306516Y0218358D01*
X0306030Y0217976D01*
X0305484Y0217686D01*
X0305428Y0217503D01*
X0274316Y0193044D01*
X0268902Y0190675D01*
X0269054Y0191132D01*
X0267235Y0194763D01*
X0266371Y0195050D01*
X0262740Y0193232D01*
X0262452Y0192368D01*
X0264270Y0188736D01*
X0264385Y0188698D01*
X0263751Y0188421D01*
X0263773Y0188488D01*
X0261955Y0192119D01*
X0261090Y0192406D01*
X0257459Y0190588D01*
X0257172Y0189723D01*
X0258889Y0186294D01*
X0258697Y0186210D01*
X0251011Y0184402D01*
X0250901Y0184454D01*
X0250261Y0184225D01*
X0249599Y0184069D01*
X0249534Y0183965D01*
X0210352Y0169937D01*
X0206386Y0171589D01*
X0206817Y0171589D01*
X0207696Y0172468D01*
X0282800Y0247572D01*
X0282800Y0327392D01*
X0283495Y0328087D01*
X0283889Y0329039D01*
X0283889Y0330069D01*
X0283495Y0331020D01*
X0282767Y0331748D01*
X0281815Y0332143D01*
X0280832Y0332143D01*
X0260254Y0352721D01*
X0260254Y0353429D02*
X0274954Y0353429D01*
X0274355Y0354027D02*
X0260254Y0354027D01*
X0260254Y0354626D02*
X0273757Y0354626D01*
X0273158Y0355224D02*
X0260254Y0355224D01*
X0260254Y0355823D02*
X0272560Y0355823D01*
X0271961Y0356421D02*
X0260254Y0356421D01*
X0260254Y0357020D02*
X0271363Y0357020D01*
X0270764Y0357618D02*
X0260254Y0357618D01*
X0260254Y0358217D02*
X0270166Y0358217D01*
X0269567Y0358815D02*
X0260254Y0358815D01*
X0261451Y0359414D02*
X0268969Y0359414D01*
X0269179Y0359204D02*
X0269179Y0359204D01*
X0268370Y0360012D02*
X0262010Y0360012D01*
X0262258Y0360611D02*
X0268300Y0360611D01*
X0268300Y0361210D02*
X0262377Y0361210D01*
X0262377Y0361808D02*
X0268300Y0361808D01*
X0268300Y0362407D02*
X0262178Y0362407D01*
X0261856Y0363005D02*
X0268300Y0363005D01*
X0268300Y0363604D02*
X0261288Y0363604D01*
X0261288Y0364202D02*
X0268300Y0364202D01*
X0268300Y0364801D02*
X0261288Y0364801D01*
X0261288Y0365399D02*
X0268300Y0365399D01*
X0268300Y0365998D02*
X0261288Y0365998D01*
X0261288Y0366596D02*
X0268300Y0366596D01*
X0268300Y0367195D02*
X0261288Y0367195D01*
X0261288Y0367793D02*
X0268300Y0367793D01*
X0268300Y0368392D02*
X0261413Y0368392D01*
X0262011Y0368990D02*
X0268300Y0368990D01*
X0268300Y0369589D02*
X0262610Y0369589D01*
X0263208Y0370187D02*
X0268300Y0370187D01*
X0268253Y0370786D02*
X0263807Y0370786D01*
X0264406Y0371384D02*
X0267654Y0371384D01*
X0267378Y0371983D02*
X0265004Y0371983D01*
X0265603Y0372581D02*
X0267211Y0372581D01*
X0267211Y0373180D02*
X0266201Y0373180D01*
X0266800Y0373778D02*
X0267362Y0373778D01*
X0267398Y0374377D02*
X0267615Y0374377D01*
X0267997Y0374975D02*
X0268214Y0374975D01*
X0268595Y0375574D02*
X0296949Y0375574D01*
X0297180Y0376172D02*
X0269194Y0376172D01*
X0269792Y0376771D02*
X0297410Y0376771D01*
X0297640Y0377369D02*
X0270391Y0377369D01*
X0270989Y0377968D02*
X0297871Y0377968D01*
X0298101Y0378566D02*
X0271588Y0378566D01*
X0272186Y0379165D02*
X0298331Y0379165D01*
X0298562Y0379763D02*
X0273127Y0379763D01*
X0274100Y0380362D02*
X0298792Y0380362D01*
X0299022Y0380960D02*
X0275073Y0380960D01*
X0276045Y0381559D02*
X0299253Y0381559D01*
X0299483Y0382157D02*
X0277018Y0382157D01*
X0277990Y0382756D02*
X0299713Y0382756D01*
X0299944Y0383354D02*
X0278963Y0383354D01*
X0279936Y0383953D02*
X0300174Y0383953D01*
X0300404Y0384551D02*
X0280908Y0384551D01*
X0281881Y0385150D02*
X0300635Y0385150D01*
X0300865Y0385748D02*
X0282853Y0385748D01*
X0283826Y0386347D02*
X0301095Y0386347D01*
X0301326Y0386945D02*
X0284798Y0386945D01*
X0285771Y0387544D02*
X0301556Y0387544D01*
X0301787Y0388143D02*
X0288798Y0388143D01*
X0289364Y0388741D02*
X0302017Y0388741D01*
X0302247Y0389340D02*
X0289612Y0389340D01*
X0289734Y0389938D02*
X0302478Y0389938D01*
X0302708Y0390537D02*
X0289734Y0390537D01*
X0289540Y0391135D02*
X0302938Y0391135D01*
X0303169Y0391734D02*
X0289224Y0391734D01*
X0288626Y0392332D02*
X0303399Y0392332D01*
X0303629Y0392931D02*
X0205640Y0392931D01*
X0205640Y0393529D02*
X0303860Y0393529D01*
X0304090Y0394128D02*
X0205640Y0394128D01*
X0205640Y0394726D02*
X0304320Y0394726D01*
X0304551Y0395325D02*
X0205640Y0395325D01*
X0205640Y0395923D02*
X0304781Y0395923D01*
X0305011Y0396522D02*
X0205640Y0396522D01*
X0205640Y0397120D02*
X0305242Y0397120D01*
X0305472Y0397719D02*
X0205640Y0397719D01*
X0205640Y0398317D02*
X0300088Y0398317D01*
X0301231Y0398317D02*
X0305702Y0398317D01*
X0305933Y0398916D02*
X0303101Y0398916D01*
X0303999Y0399514D02*
X0306163Y0399514D01*
X0306394Y0400113D02*
X0304461Y0400113D01*
X0304940Y0400711D02*
X0306624Y0400711D01*
X0306854Y0401310D02*
X0305380Y0401310D01*
X0305841Y0401908D02*
X0307085Y0401908D01*
X0307315Y0402507D02*
X0306301Y0402507D01*
X0306761Y0403105D02*
X0307545Y0403105D01*
X0307776Y0403704D02*
X0307222Y0403704D01*
X0307682Y0404302D02*
X0308006Y0404302D01*
X0308143Y0404901D02*
X0308236Y0404901D01*
X0313195Y0399514D02*
X0316882Y0399514D01*
X0316357Y0398916D02*
X0312958Y0398916D01*
X0312720Y0398317D02*
X0316038Y0398317D01*
X0315882Y0397719D02*
X0312483Y0397719D01*
X0312245Y0397120D02*
X0315671Y0397120D01*
X0315589Y0396522D02*
X0312007Y0396522D01*
X0311770Y0395923D02*
X0315439Y0395923D01*
X0315290Y0395325D02*
X0311532Y0395325D01*
X0311294Y0394726D02*
X0315140Y0394726D01*
X0314990Y0394128D02*
X0311057Y0394128D01*
X0310819Y0393529D02*
X0314841Y0393529D01*
X0314691Y0392931D02*
X0310581Y0392931D01*
X0310344Y0392332D02*
X0314541Y0392332D01*
X0314351Y0391734D02*
X0310106Y0391734D01*
X0309869Y0391135D02*
X0314242Y0391135D01*
X0314129Y0390537D02*
X0309631Y0390537D01*
X0309393Y0389938D02*
X0314177Y0389938D01*
X0314307Y0389340D02*
X0309156Y0389340D01*
X0308918Y0388741D02*
X0314431Y0388741D01*
X0314751Y0388143D02*
X0308680Y0388143D01*
X0308443Y0387544D02*
X0315149Y0387544D01*
X0315629Y0386945D02*
X0308205Y0386945D01*
X0307967Y0386347D02*
X0316543Y0386347D01*
X0318440Y0385748D02*
X0307730Y0385748D01*
X0307492Y0385150D02*
X0322673Y0385150D01*
X0326859Y0384551D02*
X0307254Y0384551D01*
X0307017Y0383953D02*
X0329115Y0383953D01*
X0329108Y0383354D02*
X0306779Y0383354D01*
X0306542Y0382756D02*
X0329137Y0382756D01*
X0329167Y0382157D02*
X0306304Y0382157D01*
X0306066Y0381559D02*
X0329196Y0381559D01*
X0329225Y0380960D02*
X0305829Y0380960D01*
X0305591Y0380362D02*
X0329255Y0380362D01*
X0329385Y0379763D02*
X0305353Y0379763D01*
X0305116Y0379165D02*
X0333088Y0379165D01*
X0333924Y0378566D02*
X0304878Y0378566D01*
X0304640Y0377968D02*
X0334748Y0377968D01*
X0334834Y0377369D02*
X0333478Y0377369D01*
X0333276Y0377369D02*
X0330604Y0377369D01*
X0328996Y0377369D02*
X0304403Y0377369D01*
X0304273Y0377044D02*
X0304273Y0377044D01*
X0304392Y0376771D02*
X0328009Y0376771D01*
X0327525Y0376172D02*
X0304991Y0376172D01*
X0305589Y0375574D02*
X0327277Y0375574D01*
X0327211Y0374975D02*
X0305764Y0374975D01*
X0305764Y0374377D02*
X0327214Y0374377D01*
X0327462Y0373778D02*
X0305898Y0373778D01*
X0306474Y0373180D02*
X0327859Y0373180D01*
X0328633Y0372581D02*
X0306722Y0372581D01*
X0306853Y0371983D02*
X0417185Y0371983D01*
X0417258Y0371384D02*
X0306853Y0371384D01*
X0306666Y0370786D02*
X0417297Y0370786D01*
X0417337Y0370187D02*
X0306361Y0370187D01*
X0305763Y0369589D02*
X0417377Y0369589D01*
X0417417Y0368990D02*
X0301076Y0368990D01*
X0300838Y0368392D02*
X0417457Y0368392D01*
X0417497Y0367793D02*
X0300600Y0367793D01*
X0300363Y0367195D02*
X0417537Y0367195D01*
X0417577Y0366596D02*
X0300125Y0366596D01*
X0299888Y0365998D02*
X0417617Y0365998D01*
X0417657Y0365399D02*
X0299650Y0365399D01*
X0299412Y0364801D02*
X0417689Y0364801D01*
X0417659Y0364202D02*
X0299175Y0364202D01*
X0298937Y0363604D02*
X0417629Y0363604D01*
X0417600Y0363005D02*
X0298699Y0363005D01*
X0298895Y0362407D02*
X0413358Y0362407D01*
X0413123Y0361808D02*
X0299176Y0361808D01*
X0299457Y0361210D02*
X0413084Y0361210D01*
X0413044Y0360611D02*
X0299739Y0360611D01*
X0300905Y0360012D02*
X0413004Y0360012D01*
X0412964Y0359414D02*
X0301503Y0359414D01*
X0301779Y0358815D02*
X0412925Y0358815D01*
X0412885Y0358217D02*
X0301945Y0358217D01*
X0301945Y0357618D02*
X0413368Y0357618D01*
X0412861Y0356421D02*
X0301539Y0356421D01*
X0301794Y0357020D02*
X0417300Y0357020D01*
X0412726Y0355823D02*
X0300940Y0355823D01*
X0297772Y0355823D02*
X0297162Y0355823D01*
X0293994Y0355823D02*
X0292344Y0355823D01*
X0291256Y0355823D02*
X0276802Y0355823D01*
X0276204Y0356421D02*
X0290117Y0356421D01*
X0289569Y0357020D02*
X0275605Y0357020D01*
X0275007Y0357618D02*
X0289321Y0357618D01*
X0289211Y0358217D02*
X0274408Y0358217D01*
X0273810Y0358815D02*
X0289211Y0358815D01*
X0289418Y0359414D02*
X0273211Y0359414D01*
X0272613Y0360012D02*
X0289751Y0360012D01*
X0290373Y0360611D02*
X0272014Y0360611D01*
X0271416Y0361210D02*
X0291950Y0361210D01*
X0291950Y0361808D02*
X0271300Y0361808D01*
X0271300Y0362407D02*
X0291950Y0362407D01*
X0291859Y0363005D02*
X0271300Y0363005D01*
X0271300Y0363604D02*
X0291950Y0363604D01*
X0292294Y0364202D02*
X0271300Y0364202D01*
X0271300Y0364801D02*
X0292544Y0364801D01*
X0292793Y0365399D02*
X0271300Y0365399D01*
X0271300Y0365998D02*
X0293043Y0365998D01*
X0293292Y0366596D02*
X0271300Y0366596D01*
X0271300Y0367195D02*
X0293542Y0367195D01*
X0293792Y0367793D02*
X0271300Y0367793D01*
X0271300Y0368392D02*
X0294041Y0368392D01*
X0294291Y0368990D02*
X0271300Y0368990D01*
X0271300Y0369589D02*
X0294541Y0369589D01*
X0294790Y0370187D02*
X0271300Y0370187D01*
X0271347Y0370786D02*
X0295040Y0370786D01*
X0295289Y0371384D02*
X0271946Y0371384D01*
X0272222Y0371983D02*
X0295539Y0371983D01*
X0295789Y0372581D02*
X0272389Y0372581D01*
X0272389Y0373180D02*
X0296028Y0373180D01*
X0296258Y0373778D02*
X0272238Y0373778D01*
X0271985Y0374377D02*
X0296488Y0374377D01*
X0296719Y0374975D02*
X0271386Y0374975D01*
X0267345Y0378566D02*
X0252628Y0378566D01*
X0253091Y0379165D02*
X0267944Y0379165D01*
X0268542Y0379763D02*
X0253339Y0379763D01*
X0253389Y0380362D02*
X0269141Y0380362D01*
X0269739Y0380960D02*
X0253370Y0380960D01*
X0253122Y0381559D02*
X0270321Y0381559D01*
X0271294Y0382157D02*
X0252704Y0382157D01*
X0252300Y0382756D02*
X0272266Y0382756D01*
X0273239Y0383354D02*
X0252300Y0383354D01*
X0252300Y0383953D02*
X0274211Y0383953D01*
X0275184Y0384551D02*
X0252300Y0384551D01*
X0251826Y0385150D02*
X0276157Y0385150D01*
X0277129Y0385748D02*
X0251228Y0385748D01*
X0250629Y0386347D02*
X0278102Y0386347D01*
X0279074Y0386945D02*
X0250031Y0386945D01*
X0249432Y0387544D02*
X0280047Y0387544D01*
X0281020Y0388143D02*
X0248834Y0388143D01*
X0248235Y0388741D02*
X0281992Y0388741D01*
X0282965Y0389340D02*
X0247637Y0389340D01*
X0247038Y0389938D02*
X0283937Y0389938D01*
X0283680Y0389780D02*
X0283680Y0389780D01*
X0284557Y0390537D02*
X0246440Y0390537D01*
X0245190Y0387544D02*
X0212002Y0387544D01*
X0211403Y0386945D02*
X0245788Y0386945D01*
X0246387Y0386347D02*
X0210805Y0386347D01*
X0210206Y0385748D02*
X0246985Y0385748D01*
X0247584Y0385150D02*
X0209607Y0385150D01*
X0209009Y0384551D02*
X0248182Y0384551D01*
X0248781Y0383953D02*
X0212602Y0383953D01*
X0212720Y0383354D02*
X0249300Y0383354D01*
X0249300Y0382756D02*
X0231469Y0382756D01*
X0231800Y0382157D02*
X0248896Y0382157D01*
X0248478Y0381559D02*
X0231800Y0381559D01*
X0231800Y0380960D02*
X0248230Y0380960D01*
X0248211Y0380362D02*
X0231800Y0380362D01*
X0231800Y0379763D02*
X0248261Y0379763D01*
X0248509Y0379165D02*
X0231800Y0379165D01*
X0231800Y0378566D02*
X0233366Y0378566D01*
X0232768Y0377968D02*
X0231800Y0377968D01*
X0231800Y0377369D02*
X0232169Y0377369D01*
X0228800Y0377369D02*
X0201827Y0377369D01*
X0201228Y0376771D02*
X0228800Y0376771D01*
X0228800Y0376172D02*
X0200630Y0376172D01*
X0200031Y0375574D02*
X0228800Y0375574D01*
X0228800Y0374975D02*
X0199433Y0374975D01*
X0198834Y0374377D02*
X0228800Y0374377D01*
X0228800Y0373778D02*
X0179206Y0373778D01*
X0178292Y0373180D02*
X0228800Y0373180D01*
X0228800Y0372581D02*
X0177377Y0372581D01*
X0176462Y0371983D02*
X0228800Y0371983D01*
X0228800Y0371384D02*
X0174989Y0371384D01*
X0174901Y0370961D02*
X0175087Y0371853D01*
X0172863Y0375251D01*
X0171971Y0375437D01*
X0168573Y0373213D01*
X0168387Y0372321D01*
X0170611Y0368923D01*
X0171503Y0368737D01*
X0174901Y0370961D01*
X0174633Y0370786D02*
X0228800Y0370786D01*
X0228800Y0370187D02*
X0173719Y0370187D01*
X0172804Y0369589D02*
X0228800Y0369589D01*
X0229326Y0368990D02*
X0171889Y0368990D01*
X0170567Y0368990D02*
X0135820Y0368990D01*
X0135294Y0369589D02*
X0170175Y0369589D01*
X0169784Y0370187D02*
X0135294Y0370187D01*
X0135294Y0370786D02*
X0169392Y0370786D01*
X0169000Y0371384D02*
X0135294Y0371384D01*
X0135294Y0371983D02*
X0168609Y0371983D01*
X0168441Y0372581D02*
X0135294Y0372581D01*
X0135294Y0373180D02*
X0168566Y0373180D01*
X0169437Y0373778D02*
X0135294Y0373778D01*
X0135294Y0374377D02*
X0170351Y0374377D01*
X0171266Y0374975D02*
X0135294Y0374975D01*
X0135294Y0375574D02*
X0173333Y0375574D01*
X0173458Y0376172D02*
X0135294Y0376172D01*
X0135294Y0376771D02*
X0174010Y0376771D01*
X0174924Y0377369D02*
X0135294Y0377369D01*
X0135294Y0377968D02*
X0175839Y0377968D01*
X0176753Y0378566D02*
X0135294Y0378566D01*
X0135294Y0379165D02*
X0199380Y0379165D01*
X0199978Y0379763D02*
X0135294Y0379763D01*
X0135294Y0380362D02*
X0200577Y0380362D01*
X0201175Y0380960D02*
X0135294Y0380960D01*
X0135294Y0381559D02*
X0201465Y0381559D01*
X0201465Y0382157D02*
X0135294Y0382157D01*
X0135294Y0382756D02*
X0201465Y0382756D01*
X0201465Y0383354D02*
X0135294Y0383354D01*
X0135294Y0383953D02*
X0201584Y0383953D01*
X0202640Y0384551D02*
X0135294Y0384551D01*
X0135294Y0385150D02*
X0202640Y0385150D01*
X0202640Y0385748D02*
X0135294Y0385748D01*
X0135294Y0386347D02*
X0202640Y0386347D01*
X0202640Y0386945D02*
X0135294Y0386945D01*
X0134885Y0387544D02*
X0202640Y0387544D01*
X0202640Y0388143D02*
X0151130Y0388143D01*
X0152239Y0388741D02*
X0174070Y0388741D01*
X0173652Y0388847D02*
X0174536Y0388623D01*
X0178024Y0390703D01*
X0178247Y0391586D01*
X0176168Y0395074D01*
X0175285Y0395298D01*
X0171796Y0393218D01*
X0171573Y0392335D01*
X0173652Y0388847D01*
X0173359Y0389340D02*
X0153337Y0389340D01*
X0154441Y0389938D02*
X0173002Y0389938D01*
X0172645Y0390537D02*
X0155545Y0390537D01*
X0156649Y0391135D02*
X0172288Y0391135D01*
X0171931Y0391734D02*
X0157753Y0391734D01*
X0158857Y0392332D02*
X0171575Y0392332D01*
X0171724Y0392931D02*
X0159961Y0392931D01*
X0161065Y0393529D02*
X0172318Y0393529D01*
X0173322Y0394128D02*
X0162169Y0394128D01*
X0163273Y0394726D02*
X0174326Y0394726D01*
X0176375Y0394726D02*
X0177023Y0394726D01*
X0176732Y0394128D02*
X0177379Y0394128D01*
X0177089Y0393529D02*
X0177736Y0393529D01*
X0177446Y0392931D02*
X0178093Y0392931D01*
X0177803Y0392332D02*
X0178450Y0392332D01*
X0178725Y0391871D02*
X0176646Y0395359D01*
X0176869Y0396242D01*
X0180357Y0398322D01*
X0181241Y0398098D01*
X0183320Y0394610D01*
X0183096Y0393727D01*
X0179608Y0391647D01*
X0178725Y0391871D01*
X0179267Y0391734D02*
X0178159Y0391734D01*
X0178133Y0391135D02*
X0202640Y0391135D01*
X0202640Y0390537D02*
X0177745Y0390537D01*
X0176741Y0389938D02*
X0202640Y0389938D01*
X0202640Y0389340D02*
X0175737Y0389340D01*
X0174733Y0388741D02*
X0202640Y0388741D01*
X0202640Y0391734D02*
X0179753Y0391734D01*
X0180757Y0392332D02*
X0202640Y0392332D01*
X0202640Y0392931D02*
X0181761Y0392931D01*
X0182765Y0393529D02*
X0202640Y0393529D01*
X0202640Y0394128D02*
X0183198Y0394128D01*
X0183251Y0394726D02*
X0202640Y0394726D01*
X0202640Y0395325D02*
X0182894Y0395325D01*
X0182537Y0395923D02*
X0202640Y0395923D01*
X0202640Y0396522D02*
X0182180Y0396522D01*
X0181824Y0397120D02*
X0202640Y0397120D01*
X0202640Y0397719D02*
X0181467Y0397719D01*
X0180374Y0398317D02*
X0202640Y0398317D01*
X0202640Y0398916D02*
X0171000Y0398916D01*
X0169896Y0398317D02*
X0180350Y0398317D01*
X0179346Y0397719D02*
X0168792Y0397719D01*
X0167688Y0397120D02*
X0178342Y0397120D01*
X0177338Y0396522D02*
X0166585Y0396522D01*
X0165481Y0395923D02*
X0176788Y0395923D01*
X0176666Y0395325D02*
X0164377Y0395325D01*
X0172104Y0399514D02*
X0202640Y0399514D01*
X0202640Y0400113D02*
X0173208Y0400113D01*
X0174312Y0400711D02*
X0202640Y0400711D01*
X0202640Y0401310D02*
X0175416Y0401310D01*
X0176520Y0401908D02*
X0202640Y0401908D01*
X0202640Y0402507D02*
X0177624Y0402507D01*
X0178728Y0403105D02*
X0202640Y0403105D01*
X0202640Y0403704D02*
X0179832Y0403704D01*
X0180935Y0404302D02*
X0202640Y0404302D01*
X0202640Y0404901D02*
X0182039Y0404901D01*
X0183143Y0405499D02*
X0202640Y0405499D01*
X0202640Y0406098D02*
X0184247Y0406098D01*
X0185351Y0406696D02*
X0202640Y0406696D01*
X0202640Y0407295D02*
X0186455Y0407295D01*
X0187559Y0407893D02*
X0202640Y0407893D01*
X0202640Y0408492D02*
X0188663Y0408492D01*
X0189767Y0409090D02*
X0202640Y0409090D01*
X0202640Y0409689D02*
X0190871Y0409689D01*
X0191975Y0410287D02*
X0202640Y0410287D01*
X0202640Y0410886D02*
X0193098Y0410886D01*
X0194183Y0411484D02*
X0202640Y0411484D01*
X0203037Y0412083D02*
X0194682Y0412083D01*
X0195161Y0412681D02*
X0203635Y0412681D01*
X0204234Y0413280D02*
X0195473Y0413280D01*
X0195636Y0413879D02*
X0204832Y0413879D01*
X0205431Y0414477D02*
X0195813Y0414477D01*
X0195841Y0415076D02*
X0206029Y0415076D01*
X0206628Y0415674D02*
X0195765Y0415674D01*
X0195703Y0416273D02*
X0207226Y0416273D01*
X0207825Y0416871D02*
X0195487Y0416871D01*
X0195148Y0417470D02*
X0208423Y0417470D01*
X0209022Y0418068D02*
X0194823Y0418068D01*
X0194457Y0418667D02*
X0209620Y0418667D01*
X0210219Y0419265D02*
X0194114Y0419265D01*
X0193771Y0419864D02*
X0210499Y0419864D01*
X0210499Y0420462D02*
X0193427Y0420462D01*
X0193084Y0421061D02*
X0210499Y0421061D01*
X0210499Y0421659D02*
X0192741Y0421659D01*
X0192398Y0422258D02*
X0210499Y0422258D01*
X0210499Y0422856D02*
X0192054Y0422856D01*
X0191711Y0423455D02*
X0210499Y0423455D01*
X0210499Y0424053D02*
X0191431Y0424053D01*
X0191025Y0424652D02*
X0210499Y0424652D01*
X0210499Y0425250D02*
X0190488Y0425250D01*
X0189713Y0425849D02*
X0210499Y0425849D01*
X0210499Y0426447D02*
X0188491Y0426447D01*
X0188184Y0428243D02*
X0203419Y0428243D01*
X0203419Y0428841D02*
X0189755Y0428841D01*
X0191925Y0429440D02*
X0203419Y0429440D01*
X0203419Y0430038D02*
X0194319Y0430038D01*
X0196714Y0430637D02*
X0203419Y0430637D01*
X0203419Y0427644D02*
X0186613Y0427644D01*
X0186143Y0427046D02*
X0203867Y0427046D01*
X0208320Y0427046D02*
X0209773Y0427046D01*
X0209324Y0427644D02*
X0208768Y0427644D01*
X0208768Y0428243D02*
X0209324Y0428243D01*
X0209324Y0428841D02*
X0208768Y0428841D01*
X0208768Y0429440D02*
X0209324Y0429440D01*
X0209324Y0430038D02*
X0208768Y0430038D01*
X0208768Y0430637D02*
X0209324Y0430637D01*
X0214674Y0430637D02*
X0219295Y0430637D01*
X0214674Y0430038D02*
X0225579Y0430038D01*
X0231864Y0429440D02*
X0214674Y0429440D01*
X0214674Y0428841D02*
X0238042Y0428841D01*
X0240287Y0428243D02*
X0214674Y0428243D01*
X0214674Y0427644D02*
X0242531Y0427644D01*
X0244776Y0427046D02*
X0214226Y0427046D01*
X0213499Y0426447D02*
X0245843Y0426447D01*
X0245658Y0425849D02*
X0213499Y0425849D01*
X0213499Y0425250D02*
X0245472Y0425250D01*
X0245287Y0424652D02*
X0213499Y0424652D01*
X0213499Y0424053D02*
X0245102Y0424053D01*
X0244917Y0423455D02*
X0213499Y0423455D01*
X0213499Y0422856D02*
X0244915Y0422856D01*
X0245263Y0422258D02*
X0213499Y0422258D01*
X0213499Y0421659D02*
X0247196Y0421659D01*
X0249961Y0421659D02*
X0250543Y0421659D01*
X0250582Y0421061D02*
X0213499Y0421061D01*
X0213499Y0420462D02*
X0251063Y0420462D01*
X0250728Y0422258D02*
X0250146Y0422258D01*
X0250331Y0422856D02*
X0250913Y0422856D01*
X0251099Y0423455D02*
X0250517Y0423455D01*
X0250702Y0424053D02*
X0251284Y0424053D01*
X0251469Y0424652D02*
X0250887Y0424652D01*
X0251072Y0425250D02*
X0251509Y0425250D01*
X0256143Y0421659D02*
X0260268Y0421659D01*
X0261679Y0421061D02*
X0255958Y0421061D01*
X0255772Y0420462D02*
X0263090Y0420462D01*
X0264500Y0419864D02*
X0255587Y0419864D01*
X0256328Y0422258D02*
X0258857Y0422258D01*
X0257446Y0422856D02*
X0256513Y0422856D01*
X0252997Y0419864D02*
X0213499Y0419864D01*
X0213499Y0419265D02*
X0265911Y0419265D01*
X0267322Y0418667D02*
X0213499Y0418667D01*
X0213264Y0418068D02*
X0268594Y0418068D01*
X0269615Y0417470D02*
X0212666Y0417470D01*
X0212067Y0416871D02*
X0270636Y0416871D01*
X0271657Y0416273D02*
X0211469Y0416273D01*
X0210870Y0415674D02*
X0272678Y0415674D01*
X0273699Y0415076D02*
X0210272Y0415076D01*
X0209673Y0414477D02*
X0274720Y0414477D01*
X0275741Y0413879D02*
X0209075Y0413879D01*
X0208476Y0413280D02*
X0276762Y0413280D01*
X0277783Y0412681D02*
X0207878Y0412681D01*
X0207279Y0412083D02*
X0278804Y0412083D01*
X0279825Y0411484D02*
X0206681Y0411484D01*
X0206082Y0410886D02*
X0280846Y0410886D01*
X0281867Y0410287D02*
X0205640Y0410287D01*
X0205640Y0409689D02*
X0282824Y0409689D01*
X0283722Y0409090D02*
X0205640Y0409090D01*
X0205640Y0408492D02*
X0284511Y0408492D01*
X0284100Y0407893D02*
X0205640Y0407893D01*
X0205640Y0407295D02*
X0283689Y0407295D01*
X0283277Y0406696D02*
X0205640Y0406696D01*
X0205640Y0406098D02*
X0282866Y0406098D01*
X0282630Y0405499D02*
X0205640Y0405499D01*
X0205640Y0404901D02*
X0282741Y0404901D01*
X0283488Y0404302D02*
X0205640Y0404302D01*
X0205640Y0403704D02*
X0284359Y0403704D01*
X0285230Y0403105D02*
X0205640Y0403105D01*
X0205640Y0402507D02*
X0286101Y0402507D01*
X0286121Y0402507D02*
X0287564Y0402507D01*
X0287542Y0401908D02*
X0205640Y0401908D01*
X0205640Y0401310D02*
X0287843Y0401310D01*
X0288713Y0400711D02*
X0205640Y0400711D01*
X0205640Y0400113D02*
X0289584Y0400113D01*
X0290455Y0399514D02*
X0205640Y0399514D01*
X0205640Y0398916D02*
X0298417Y0398916D01*
X0297657Y0399514D02*
X0291998Y0399514D01*
X0292409Y0400113D02*
X0296920Y0400113D01*
X0296172Y0400711D02*
X0292821Y0400711D01*
X0293232Y0401310D02*
X0295393Y0401310D01*
X0294495Y0401908D02*
X0293643Y0401908D01*
X0289209Y0404901D02*
X0288534Y0404901D01*
X0288798Y0404302D02*
X0288123Y0404302D01*
X0288386Y0403704D02*
X0287712Y0403704D01*
X0287975Y0403105D02*
X0287300Y0403105D01*
X0288946Y0405499D02*
X0289108Y0405499D01*
X0285665Y0392332D02*
X0205640Y0392332D01*
X0205640Y0391734D02*
X0285067Y0391734D01*
X0284751Y0391135D02*
X0205640Y0391135D01*
X0205640Y0390537D02*
X0210751Y0390537D01*
X0210153Y0389938D02*
X0205640Y0389938D01*
X0205640Y0389340D02*
X0209554Y0389340D01*
X0208956Y0388741D02*
X0205640Y0388741D01*
X0205640Y0388143D02*
X0208357Y0388143D01*
X0207759Y0387544D02*
X0205640Y0387544D01*
X0205640Y0386945D02*
X0207160Y0386945D01*
X0206562Y0386347D02*
X0205640Y0386347D01*
X0205640Y0385748D02*
X0205963Y0385748D01*
X0207213Y0382756D02*
X0207371Y0382756D01*
X0207371Y0382157D02*
X0206815Y0382157D01*
X0206815Y0381559D02*
X0207371Y0381559D01*
X0207371Y0380960D02*
X0206815Y0380960D01*
X0206815Y0380362D02*
X0207371Y0380362D01*
X0207381Y0379763D02*
X0206805Y0379763D01*
X0206206Y0379165D02*
X0207980Y0379165D01*
X0212112Y0379165D02*
X0228800Y0379165D01*
X0228800Y0379763D02*
X0212710Y0379763D01*
X0203024Y0378566D02*
X0228800Y0378566D01*
X0228800Y0377968D02*
X0202425Y0377968D01*
X0198781Y0378566D02*
X0177413Y0378566D01*
X0178143Y0377968D02*
X0198183Y0377968D01*
X0197584Y0377369D02*
X0178535Y0377369D01*
X0174100Y0374377D02*
X0173435Y0374377D01*
X0173708Y0374975D02*
X0173044Y0374975D01*
X0173827Y0373778D02*
X0174491Y0373778D01*
X0174219Y0373180D02*
X0174883Y0373180D01*
X0174610Y0372581D02*
X0175275Y0372581D01*
X0175002Y0371983D02*
X0176387Y0371983D01*
X0157295Y0349838D02*
X0249841Y0349838D01*
X0249478Y0349239D02*
X0157538Y0349239D01*
X0157291Y0348641D02*
X0249478Y0348641D01*
X0249478Y0348042D02*
X0157038Y0348042D01*
X0156786Y0347444D02*
X0249478Y0347444D01*
X0249478Y0346845D02*
X0156533Y0346845D01*
X0156280Y0346247D02*
X0249478Y0346247D01*
X0249478Y0345648D02*
X0156027Y0345648D01*
X0154975Y0344451D02*
X0249478Y0344451D01*
X0249478Y0343853D02*
X0155218Y0343853D01*
X0155016Y0343254D02*
X0249478Y0343254D01*
X0249478Y0342656D02*
X0154763Y0342656D01*
X0154510Y0342057D02*
X0249478Y0342057D01*
X0249998Y0341459D02*
X0154257Y0341459D01*
X0154005Y0340860D02*
X0250545Y0340860D01*
X0250357Y0341100D02*
X0250357Y0341100D01*
X0250545Y0340262D02*
X0153752Y0340262D01*
X0151507Y0340262D02*
X0148460Y0340262D01*
X0148460Y0340860D02*
X0150090Y0340860D01*
X0149008Y0341459D02*
X0148460Y0341459D01*
X0148467Y0342057D02*
X0148765Y0342057D01*
X0148460Y0339663D02*
X0250545Y0339663D01*
X0250545Y0339065D02*
X0148460Y0339065D01*
X0148460Y0338466D02*
X0250691Y0338466D01*
X0251290Y0337868D02*
X0148460Y0337868D01*
X0148460Y0337269D02*
X0251825Y0337269D01*
X0251825Y0336671D02*
X0148460Y0336671D01*
X0148460Y0336072D02*
X0251825Y0336072D01*
X0251825Y0335474D02*
X0148460Y0335474D01*
X0148460Y0334875D02*
X0251825Y0334875D01*
X0251825Y0334277D02*
X0148460Y0334277D01*
X0148460Y0333678D02*
X0251825Y0333678D01*
X0251825Y0333079D02*
X0148460Y0333079D01*
X0148460Y0332481D02*
X0251825Y0332481D01*
X0251825Y0331882D02*
X0148460Y0331882D01*
X0148460Y0331284D02*
X0251825Y0331284D01*
X0251825Y0330685D02*
X0148460Y0330685D01*
X0148460Y0330087D02*
X0251825Y0330087D01*
X0251825Y0329488D02*
X0148460Y0329488D01*
X0148460Y0328890D02*
X0251825Y0328890D01*
X0251825Y0328291D02*
X0148460Y0328291D01*
X0148460Y0327693D02*
X0251825Y0327693D01*
X0251825Y0327094D02*
X0148460Y0327094D01*
X0148460Y0326496D02*
X0251825Y0326496D01*
X0251825Y0325897D02*
X0148460Y0325897D01*
X0148460Y0325299D02*
X0251825Y0325299D01*
X0251825Y0324700D02*
X0148460Y0324700D01*
X0148460Y0324102D02*
X0251825Y0324102D01*
X0251825Y0323503D02*
X0148460Y0323503D01*
X0148460Y0322905D02*
X0251825Y0322905D01*
X0251825Y0322306D02*
X0148460Y0322306D01*
X0148460Y0321708D02*
X0251825Y0321708D01*
X0251825Y0321109D02*
X0148460Y0321109D01*
X0148460Y0320511D02*
X0251825Y0320511D01*
X0251825Y0319912D02*
X0148460Y0319912D01*
X0148460Y0319314D02*
X0251825Y0319314D01*
X0251825Y0318715D02*
X0148460Y0318715D01*
X0148460Y0318117D02*
X0251825Y0318117D01*
X0251825Y0317518D02*
X0148460Y0317518D01*
X0148460Y0316920D02*
X0151081Y0316920D01*
X0151661Y0316920D02*
X0251825Y0316920D01*
X0251825Y0316321D02*
X0152308Y0316321D01*
X0152341Y0315723D02*
X0251825Y0315723D01*
X0251825Y0315124D02*
X0152375Y0315124D01*
X0152408Y0314526D02*
X0252152Y0314526D01*
X0252751Y0313927D02*
X0152442Y0313927D01*
X0152475Y0313329D02*
X0253126Y0313329D01*
X0252990Y0312730D02*
X0152509Y0312730D01*
X0152393Y0312132D02*
X0252877Y0312132D01*
X0252763Y0311533D02*
X0150568Y0311533D01*
X0149822Y0310935D02*
X0149536Y0310935D01*
X0152090Y0310935D02*
X0252650Y0310935D01*
X0252537Y0310336D02*
X0152642Y0310336D01*
X0152676Y0309738D02*
X0252424Y0309738D01*
X0251363Y0309139D02*
X0152709Y0309139D01*
X0152743Y0308541D02*
X0250765Y0308541D01*
X0250166Y0307942D02*
X0152776Y0307942D01*
X0152810Y0307343D02*
X0249947Y0307343D01*
X0249947Y0306745D02*
X0152843Y0306745D01*
X0152643Y0306146D02*
X0249947Y0306146D01*
X0249947Y0305548D02*
X0149478Y0305548D01*
X0148880Y0304949D02*
X0249891Y0304949D01*
X0249784Y0304384D02*
X0249784Y0304384D01*
X0249778Y0304351D02*
X0148281Y0304351D01*
X0147683Y0303752D02*
X0249665Y0303752D01*
X0249560Y0303154D02*
X0147084Y0303154D01*
X0146486Y0302555D02*
X0249947Y0302555D01*
X0249947Y0301957D02*
X0145887Y0301957D01*
X0145289Y0301358D02*
X0249947Y0301358D01*
X0249947Y0300760D02*
X0144690Y0300760D01*
X0144092Y0300161D02*
X0249947Y0300161D01*
X0249785Y0299563D02*
X0153672Y0299563D01*
X0153905Y0299467D02*
X0152953Y0299861D01*
X0151923Y0299861D01*
X0150972Y0299467D01*
X0150277Y0298772D01*
X0121050Y0298772D01*
X0118268Y0295989D01*
X0117285Y0295989D01*
X0116333Y0295595D01*
X0115605Y0294867D01*
X0115211Y0293915D01*
X0115211Y0292885D01*
X0115605Y0291933D01*
X0116333Y0291205D01*
X0117285Y0290811D01*
X0118315Y0290811D01*
X0119267Y0291205D01*
X0119995Y0291933D01*
X0120389Y0292885D01*
X0120389Y0293868D01*
X0122293Y0295772D01*
X0150277Y0295772D01*
X0150972Y0295077D01*
X0151923Y0294683D01*
X0152953Y0294683D01*
X0153905Y0295077D01*
X0154633Y0295805D01*
X0155027Y0296757D01*
X0155027Y0297787D01*
X0154633Y0298738D01*
X0153905Y0299467D01*
X0154407Y0298964D02*
X0249187Y0298964D01*
X0248588Y0298366D02*
X0154787Y0298366D01*
X0155027Y0297767D02*
X0247990Y0297767D01*
X0247391Y0297169D02*
X0155027Y0297169D01*
X0154950Y0296570D02*
X0246793Y0296570D01*
X0246194Y0295972D02*
X0154702Y0295972D01*
X0154201Y0295373D02*
X0245596Y0295373D01*
X0244997Y0294775D02*
X0153175Y0294775D01*
X0151701Y0294775D02*
X0121296Y0294775D01*
X0121895Y0295373D02*
X0150675Y0295373D01*
X0150470Y0298964D02*
X0142895Y0298964D01*
X0143493Y0299563D02*
X0151204Y0299563D01*
X0145236Y0305548D02*
X0120315Y0305548D01*
X0120389Y0305369D02*
X0119995Y0306321D01*
X0119267Y0307049D01*
X0118315Y0307443D01*
X0117285Y0307443D01*
X0116333Y0307049D01*
X0115639Y0306354D01*
X0112187Y0306354D01*
X0111053Y0307488D01*
X0111569Y0309155D01*
X0111144Y0309961D01*
X0110382Y0310197D01*
X0115682Y0336660D01*
X0115800Y0336779D01*
X0115800Y0337251D01*
X0115893Y0337715D01*
X0115809Y0337841D01*
X0117825Y0339857D01*
X0118040Y0340019D01*
X0119031Y0340769D01*
X0119056Y0340950D01*
X0119201Y0342000D01*
X0119223Y0342157D01*
X0121309Y0344242D01*
X0122187Y0345121D01*
X0122187Y0353053D01*
X0121309Y0353932D01*
X0121051Y0354189D01*
X0118016Y0360811D01*
X0118951Y0363193D01*
X0128698Y0380125D01*
X0128977Y0379937D01*
X0129871Y0380111D01*
X0132142Y0383477D01*
X0131968Y0384372D01*
X0128601Y0386643D01*
X0128263Y0386577D01*
X0128712Y0387449D01*
X0128818Y0387590D01*
X0128912Y0387104D01*
X0132279Y0384833D01*
X0132294Y0384836D01*
X0132294Y0368273D01*
X0133173Y0367394D01*
X0151615Y0348952D01*
X0151139Y0347824D01*
X0149992Y0347824D01*
X0145460Y0343292D01*
X0145460Y0316761D01*
X0145331Y0316617D01*
X0145331Y0316617D01*
X0145331Y0316617D01*
X0145359Y0316122D01*
X0145400Y0315376D01*
X0145400Y0315376D01*
X0145460Y0314311D01*
X0145460Y0310768D01*
X0147367Y0308861D01*
X0147430Y0307742D01*
X0141588Y0301900D01*
X0109323Y0301900D01*
X0109823Y0303514D01*
X0109398Y0304320D01*
X0105793Y0305436D01*
X0105951Y0305969D01*
X0109396Y0304902D01*
X0110066Y0304233D01*
X0110944Y0303354D01*
X0115639Y0303354D01*
X0116333Y0302659D01*
X0117285Y0302265D01*
X0118315Y0302265D01*
X0119267Y0302659D01*
X0119995Y0303388D01*
X0120389Y0304339D01*
X0120389Y0305369D01*
X0120389Y0304949D02*
X0144637Y0304949D01*
X0144039Y0304351D02*
X0120389Y0304351D01*
X0120146Y0303752D02*
X0143440Y0303752D01*
X0142842Y0303154D02*
X0119761Y0303154D01*
X0119016Y0302555D02*
X0142243Y0302555D01*
X0141645Y0301957D02*
X0109341Y0301957D01*
X0109526Y0302555D02*
X0116584Y0302555D01*
X0115839Y0303154D02*
X0109711Y0303154D01*
X0109697Y0303752D02*
X0110546Y0303752D01*
X0109948Y0304351D02*
X0109297Y0304351D01*
X0109244Y0304949D02*
X0107364Y0304949D01*
X0107310Y0305548D02*
X0105827Y0305548D01*
X0104741Y0300161D02*
X0104236Y0300161D01*
X0104053Y0299563D02*
X0106674Y0299563D01*
X0107946Y0298964D02*
X0103837Y0298964D01*
X0103637Y0298366D02*
X0120645Y0298366D01*
X0120046Y0297767D02*
X0103438Y0297767D01*
X0103238Y0297169D02*
X0119447Y0297169D01*
X0118849Y0296570D02*
X0103039Y0296570D01*
X0102839Y0295972D02*
X0117244Y0295972D01*
X0116112Y0295373D02*
X0102640Y0295373D01*
X0102440Y0294775D02*
X0115567Y0294775D01*
X0115319Y0294176D02*
X0102259Y0294176D01*
X0102086Y0293578D02*
X0115211Y0293578D01*
X0115211Y0292979D02*
X0101790Y0292979D01*
X0101337Y0292381D02*
X0115420Y0292381D01*
X0115756Y0291782D02*
X0100963Y0291782D01*
X0100589Y0291184D02*
X0116385Y0291184D01*
X0119215Y0291184D02*
X0241406Y0291184D01*
X0242005Y0291782D02*
X0119844Y0291782D01*
X0120180Y0292381D02*
X0242603Y0292381D01*
X0243202Y0292979D02*
X0120389Y0292979D01*
X0120389Y0293578D02*
X0243800Y0293578D01*
X0244399Y0294176D02*
X0120698Y0294176D01*
X0120067Y0306146D02*
X0145834Y0306146D01*
X0146433Y0306745D02*
X0119571Y0306745D01*
X0118555Y0307343D02*
X0147031Y0307343D01*
X0147418Y0307942D02*
X0111193Y0307942D01*
X0111198Y0307343D02*
X0117045Y0307343D01*
X0116029Y0306745D02*
X0111796Y0306745D01*
X0111379Y0308541D02*
X0147385Y0308541D01*
X0147089Y0309139D02*
X0111564Y0309139D01*
X0111262Y0309738D02*
X0146490Y0309738D01*
X0145892Y0310336D02*
X0110410Y0310336D01*
X0110529Y0310935D02*
X0145460Y0310935D01*
X0145460Y0311533D02*
X0110649Y0311533D01*
X0110769Y0312132D02*
X0145460Y0312132D01*
X0145460Y0312730D02*
X0110889Y0312730D01*
X0111009Y0313329D02*
X0145460Y0313329D01*
X0145460Y0313927D02*
X0111129Y0313927D01*
X0111249Y0314526D02*
X0145448Y0314526D01*
X0145414Y0315124D02*
X0111369Y0315124D01*
X0111488Y0315723D02*
X0145381Y0315723D01*
X0145347Y0316321D02*
X0111608Y0316321D01*
X0111728Y0316920D02*
X0145460Y0316920D01*
X0145460Y0317518D02*
X0111848Y0317518D01*
X0111968Y0318117D02*
X0145460Y0318117D01*
X0145460Y0318715D02*
X0112088Y0318715D01*
X0112208Y0319314D02*
X0145460Y0319314D01*
X0145460Y0319912D02*
X0112327Y0319912D01*
X0112447Y0320511D02*
X0145460Y0320511D01*
X0145460Y0321109D02*
X0112567Y0321109D01*
X0112687Y0321708D02*
X0145460Y0321708D01*
X0145460Y0322306D02*
X0112807Y0322306D01*
X0112927Y0322905D02*
X0145460Y0322905D01*
X0145460Y0323503D02*
X0113047Y0323503D01*
X0113166Y0324102D02*
X0145460Y0324102D01*
X0145460Y0324700D02*
X0113286Y0324700D01*
X0113406Y0325299D02*
X0145460Y0325299D01*
X0145460Y0325897D02*
X0113526Y0325897D01*
X0113646Y0326496D02*
X0145460Y0326496D01*
X0145460Y0327094D02*
X0113766Y0327094D01*
X0113886Y0327693D02*
X0145460Y0327693D01*
X0145460Y0328291D02*
X0114006Y0328291D01*
X0114125Y0328890D02*
X0145460Y0328890D01*
X0145460Y0329488D02*
X0114245Y0329488D01*
X0114365Y0330087D02*
X0145460Y0330087D01*
X0145460Y0330685D02*
X0114485Y0330685D01*
X0114605Y0331284D02*
X0145460Y0331284D01*
X0145460Y0331882D02*
X0114725Y0331882D01*
X0114845Y0332481D02*
X0145460Y0332481D01*
X0145460Y0333079D02*
X0114964Y0333079D01*
X0115084Y0333678D02*
X0145460Y0333678D01*
X0145460Y0334277D02*
X0115204Y0334277D01*
X0115324Y0334875D02*
X0145460Y0334875D01*
X0145460Y0335474D02*
X0115444Y0335474D01*
X0115564Y0336072D02*
X0145460Y0336072D01*
X0145460Y0336671D02*
X0115692Y0336671D01*
X0115804Y0337269D02*
X0145460Y0337269D01*
X0145460Y0337868D02*
X0115835Y0337868D01*
X0116434Y0338466D02*
X0145460Y0338466D01*
X0145460Y0339065D02*
X0117032Y0339065D01*
X0117631Y0339663D02*
X0145460Y0339663D01*
X0145460Y0340262D02*
X0118360Y0340262D01*
X0119043Y0340860D02*
X0145460Y0340860D01*
X0145460Y0341459D02*
X0119126Y0341459D01*
X0119209Y0342057D02*
X0145460Y0342057D01*
X0145460Y0342656D02*
X0119722Y0342656D01*
X0120321Y0343254D02*
X0145460Y0343254D01*
X0146020Y0343853D02*
X0120919Y0343853D01*
X0121518Y0344451D02*
X0146619Y0344451D01*
X0147217Y0345050D02*
X0122116Y0345050D01*
X0122187Y0345648D02*
X0147816Y0345648D01*
X0148414Y0346247D02*
X0122187Y0346247D01*
X0122187Y0346845D02*
X0149013Y0346845D01*
X0149611Y0347444D02*
X0122187Y0347444D01*
X0122187Y0348042D02*
X0151231Y0348042D01*
X0151484Y0348641D02*
X0122187Y0348641D01*
X0122187Y0349239D02*
X0151328Y0349239D01*
X0150730Y0349838D02*
X0122187Y0349838D01*
X0122187Y0350436D02*
X0150131Y0350436D01*
X0149533Y0351035D02*
X0122187Y0351035D01*
X0122187Y0351633D02*
X0148934Y0351633D01*
X0148336Y0352232D02*
X0122187Y0352232D01*
X0122187Y0352830D02*
X0147737Y0352830D01*
X0147138Y0353429D02*
X0121812Y0353429D01*
X0121213Y0354027D02*
X0146540Y0354027D01*
X0145941Y0354626D02*
X0120851Y0354626D01*
X0120577Y0355224D02*
X0145343Y0355224D01*
X0144744Y0355823D02*
X0120302Y0355823D01*
X0120028Y0356421D02*
X0144146Y0356421D01*
X0143547Y0357020D02*
X0119754Y0357020D01*
X0119479Y0357618D02*
X0142949Y0357618D01*
X0142350Y0358217D02*
X0119205Y0358217D01*
X0118931Y0358815D02*
X0141752Y0358815D01*
X0141153Y0359414D02*
X0118656Y0359414D01*
X0118382Y0360012D02*
X0140555Y0360012D01*
X0139956Y0360611D02*
X0118108Y0360611D01*
X0118172Y0361210D02*
X0139358Y0361210D01*
X0138759Y0361808D02*
X0118407Y0361808D01*
X0118642Y0362407D02*
X0138161Y0362407D01*
X0137562Y0363005D02*
X0118878Y0363005D01*
X0119188Y0363604D02*
X0136964Y0363604D01*
X0136365Y0364202D02*
X0119532Y0364202D01*
X0119877Y0364801D02*
X0135767Y0364801D01*
X0135168Y0365399D02*
X0120221Y0365399D01*
X0120566Y0365998D02*
X0134570Y0365998D01*
X0133971Y0366596D02*
X0120910Y0366596D01*
X0121255Y0367195D02*
X0133373Y0367195D01*
X0132774Y0367793D02*
X0121599Y0367793D01*
X0121944Y0368392D02*
X0132294Y0368392D01*
X0132294Y0368990D02*
X0122288Y0368990D01*
X0122633Y0369589D02*
X0132294Y0369589D01*
X0132294Y0370187D02*
X0122977Y0370187D01*
X0123322Y0370786D02*
X0132294Y0370786D01*
X0132294Y0371384D02*
X0123667Y0371384D01*
X0124011Y0371983D02*
X0132294Y0371983D01*
X0132294Y0372581D02*
X0124356Y0372581D01*
X0124700Y0373180D02*
X0132294Y0373180D01*
X0132294Y0373778D02*
X0125045Y0373778D01*
X0125389Y0374377D02*
X0132294Y0374377D01*
X0132294Y0374975D02*
X0125734Y0374975D01*
X0126078Y0375574D02*
X0132294Y0375574D01*
X0132294Y0376172D02*
X0126423Y0376172D01*
X0126767Y0376771D02*
X0132294Y0376771D01*
X0132294Y0377369D02*
X0127112Y0377369D01*
X0127456Y0377968D02*
X0132294Y0377968D01*
X0132294Y0378566D02*
X0127801Y0378566D01*
X0128145Y0379165D02*
X0132294Y0379165D01*
X0132294Y0379763D02*
X0128490Y0379763D01*
X0130040Y0380362D02*
X0132294Y0380362D01*
X0132294Y0380960D02*
X0130444Y0380960D01*
X0130848Y0381559D02*
X0132294Y0381559D01*
X0132294Y0382157D02*
X0131252Y0382157D01*
X0131655Y0382756D02*
X0132294Y0382756D01*
X0132294Y0383354D02*
X0132059Y0383354D01*
X0132049Y0383953D02*
X0132294Y0383953D01*
X0132294Y0384551D02*
X0131702Y0384551D01*
X0131809Y0385150D02*
X0130815Y0385150D01*
X0130921Y0385748D02*
X0129927Y0385748D01*
X0130034Y0386347D02*
X0129040Y0386347D01*
X0129147Y0386945D02*
X0128452Y0386945D01*
X0128783Y0387544D02*
X0128827Y0387544D01*
X0132502Y0391135D02*
X0145262Y0391135D01*
X0144948Y0391734D02*
X0131925Y0391734D01*
X0132374Y0392332D02*
X0144628Y0392332D01*
X0144308Y0392931D02*
X0132823Y0392931D01*
X0133272Y0393529D02*
X0143988Y0393529D01*
X0143669Y0394128D02*
X0133721Y0394128D01*
X0134170Y0394726D02*
X0143349Y0394726D01*
X0143029Y0395325D02*
X0134618Y0395325D01*
X0135067Y0395923D02*
X0142709Y0395923D01*
X0142390Y0396522D02*
X0135516Y0396522D01*
X0136084Y0397120D02*
X0142070Y0397120D01*
X0141726Y0397719D02*
X0136745Y0397719D01*
X0137407Y0398317D02*
X0141424Y0398317D01*
X0141275Y0398916D02*
X0138068Y0398916D01*
X0138730Y0399514D02*
X0141187Y0399514D01*
X0141151Y0400113D02*
X0139391Y0400113D01*
X0140053Y0400711D02*
X0141239Y0400711D01*
X0141391Y0401310D02*
X0140714Y0401310D01*
X0141376Y0401908D02*
X0141511Y0401908D01*
X0145800Y0399900D02*
X0146300Y0402400D01*
X0147800Y0405400D01*
X0149800Y0407900D01*
X0159300Y0413900D01*
X0167300Y0418400D01*
X0172800Y0420900D01*
X0176800Y0422400D01*
X0181800Y0422900D01*
X0186300Y0422400D01*
X0187300Y0421900D01*
X0191200Y0415100D01*
X0149700Y0392600D01*
X0145800Y0399900D01*
X0145586Y0390537D02*
X0133389Y0390537D01*
X0134277Y0389938D02*
X0145907Y0389938D01*
X0146417Y0389340D02*
X0135164Y0389340D01*
X0135373Y0388741D02*
X0147151Y0388741D01*
X0148548Y0388143D02*
X0135289Y0388143D01*
X0136418Y0368392D02*
X0229924Y0368392D01*
X0230523Y0367793D02*
X0137017Y0367793D01*
X0137615Y0367195D02*
X0231121Y0367195D01*
X0231720Y0366596D02*
X0138214Y0366596D01*
X0138812Y0365998D02*
X0232318Y0365998D01*
X0236318Y0365399D02*
X0139411Y0365399D01*
X0140009Y0364801D02*
X0236916Y0364801D01*
X0237429Y0364202D02*
X0140608Y0364202D01*
X0141206Y0363604D02*
X0238140Y0363604D01*
X0238534Y0363214D02*
X0238534Y0363214D01*
X0239528Y0363219D02*
X0239528Y0363219D01*
X0241145Y0363604D02*
X0244450Y0363604D01*
X0243851Y0364202D02*
X0241737Y0364202D01*
X0241645Y0364109D02*
X0241645Y0364109D01*
X0242329Y0364801D02*
X0243253Y0364801D01*
X0245048Y0363005D02*
X0141805Y0363005D01*
X0142403Y0362407D02*
X0245647Y0362407D01*
X0246245Y0361808D02*
X0143002Y0361808D01*
X0143600Y0361210D02*
X0246844Y0361210D01*
X0247442Y0360611D02*
X0144199Y0360611D01*
X0144798Y0360012D02*
X0248041Y0360012D01*
X0248639Y0359414D02*
X0145396Y0359414D01*
X0145995Y0358815D02*
X0249238Y0358815D01*
X0249836Y0358217D02*
X0146593Y0358217D01*
X0147192Y0357618D02*
X0250435Y0357618D01*
X0251033Y0357020D02*
X0147790Y0357020D01*
X0148389Y0356421D02*
X0251632Y0356421D01*
X0252230Y0355823D02*
X0148987Y0355823D01*
X0149586Y0355224D02*
X0252245Y0355224D01*
X0252245Y0354626D02*
X0150184Y0354626D01*
X0150783Y0354027D02*
X0252245Y0354027D01*
X0252245Y0353429D02*
X0151381Y0353429D01*
X0151980Y0352830D02*
X0252245Y0352830D01*
X0252245Y0352232D02*
X0152578Y0352232D01*
X0153177Y0351633D02*
X0153401Y0351633D01*
X0153511Y0351633D02*
X0252245Y0351633D01*
X0251038Y0351035D02*
X0154928Y0351035D01*
X0156345Y0350436D02*
X0250440Y0350436D01*
X0249478Y0345050D02*
X0153920Y0345050D01*
X0153932Y0345648D02*
X0153654Y0345648D01*
X0100215Y0290585D02*
X0240808Y0290585D01*
X0240209Y0289987D02*
X0099841Y0289987D01*
X0099467Y0289388D02*
X0239611Y0289388D01*
X0239012Y0288790D02*
X0160867Y0288790D01*
X0161481Y0288191D02*
X0238414Y0288191D01*
X0237815Y0287593D02*
X0162094Y0287593D01*
X0162707Y0286994D02*
X0237217Y0286994D01*
X0236618Y0286396D02*
X0163321Y0286396D01*
X0163673Y0285797D02*
X0236020Y0285797D01*
X0235421Y0285199D02*
X0163681Y0285199D01*
X0163928Y0284600D02*
X0163151Y0284600D01*
X0163344Y0284002D02*
X0162567Y0284002D01*
X0162760Y0283403D02*
X0161983Y0283403D01*
X0162176Y0282805D02*
X0161399Y0282805D01*
X0161592Y0282206D02*
X0159118Y0282206D01*
X0158519Y0281608D02*
X0161246Y0281608D01*
X0161253Y0281009D02*
X0157921Y0281009D01*
X0157322Y0280410D02*
X0161794Y0280410D01*
X0162408Y0279812D02*
X0156724Y0279812D01*
X0156125Y0279213D02*
X0163021Y0279213D01*
X0163634Y0278615D02*
X0155527Y0278615D01*
X0154928Y0278016D02*
X0165872Y0278016D01*
X0166470Y0277418D02*
X0154330Y0277418D01*
X0153731Y0276819D02*
X0167069Y0276819D01*
X0167667Y0276221D02*
X0153133Y0276221D01*
X0152534Y0275622D02*
X0168266Y0275622D01*
X0168864Y0275024D02*
X0151936Y0275024D01*
X0151337Y0274425D02*
X0169463Y0274425D01*
X0170061Y0273827D02*
X0150739Y0273827D01*
X0150140Y0273228D02*
X0170660Y0273228D01*
X0171258Y0272630D02*
X0149542Y0272630D01*
X0148943Y0272031D02*
X0171857Y0272031D01*
X0172455Y0271433D02*
X0148345Y0271433D01*
X0147746Y0270834D02*
X0173054Y0270834D01*
X0173652Y0270236D02*
X0147148Y0270236D01*
X0146549Y0269637D02*
X0174251Y0269637D01*
X0174849Y0269039D02*
X0145951Y0269039D01*
X0145352Y0268440D02*
X0175448Y0268440D01*
X0176046Y0267842D02*
X0144754Y0267842D01*
X0144155Y0267243D02*
X0176645Y0267243D01*
X0177895Y0270236D02*
X0190452Y0270236D01*
X0190686Y0270834D02*
X0177296Y0270834D01*
X0176698Y0271433D02*
X0224480Y0271433D01*
X0225079Y0272031D02*
X0176099Y0272031D01*
X0175501Y0272630D02*
X0225677Y0272630D01*
X0226276Y0273228D02*
X0174902Y0273228D01*
X0174304Y0273827D02*
X0226874Y0273827D01*
X0227473Y0274425D02*
X0173705Y0274425D01*
X0173107Y0275024D02*
X0228071Y0275024D01*
X0228670Y0275622D02*
X0172508Y0275622D01*
X0171910Y0276221D02*
X0229268Y0276221D01*
X0229285Y0276819D02*
X0171311Y0276819D01*
X0170713Y0277418D02*
X0228929Y0277418D01*
X0229050Y0278016D02*
X0170114Y0278016D01*
X0169516Y0278615D02*
X0229598Y0278615D01*
X0230606Y0279213D02*
X0168917Y0279213D01*
X0168319Y0279812D02*
X0230744Y0279812D01*
X0230744Y0280410D02*
X0167720Y0280410D01*
X0167898Y0281009D02*
X0231231Y0281009D01*
X0231830Y0281608D02*
X0167901Y0281608D01*
X0167614Y0282206D02*
X0232428Y0282206D01*
X0233027Y0282805D02*
X0167001Y0282805D01*
X0166387Y0283403D02*
X0233625Y0283403D01*
X0234224Y0284002D02*
X0165774Y0284002D01*
X0165161Y0284600D02*
X0234822Y0284600D01*
X0234376Y0279812D02*
X0234277Y0279812D01*
X0234085Y0279213D02*
X0234731Y0279213D01*
X0234440Y0278615D02*
X0235087Y0278615D01*
X0234796Y0278016D02*
X0235442Y0278016D01*
X0235151Y0277418D02*
X0235798Y0277418D01*
X0223882Y0270834D02*
X0198422Y0270834D01*
X0196963Y0270834D02*
X0195375Y0270834D01*
X0195811Y0270236D02*
X0196367Y0270236D01*
X0196333Y0269637D02*
X0195776Y0269637D01*
X0195742Y0269039D02*
X0196298Y0269039D01*
X0196264Y0268440D02*
X0195934Y0268440D01*
X0194684Y0265448D02*
X0142360Y0265448D01*
X0142958Y0266046D02*
X0190729Y0266046D01*
X0190245Y0266645D02*
X0143557Y0266645D01*
X0141761Y0264849D02*
X0195246Y0264849D01*
X0195779Y0264251D02*
X0086082Y0264251D01*
X0083708Y0263054D02*
X0081372Y0263054D01*
X0081970Y0263652D02*
X0083086Y0263652D01*
X0089538Y0267842D02*
X0140511Y0267842D01*
X0141110Y0268440D02*
X0090114Y0268440D01*
X0090690Y0269039D02*
X0141708Y0269039D01*
X0142307Y0269637D02*
X0091266Y0269637D01*
X0091697Y0270236D02*
X0142905Y0270236D01*
X0143504Y0270834D02*
X0091686Y0270834D01*
X0091233Y0271433D02*
X0144102Y0271433D01*
X0144701Y0272031D02*
X0090611Y0272031D01*
X0089989Y0272630D02*
X0145299Y0272630D01*
X0145898Y0273228D02*
X0089367Y0273228D01*
X0089017Y0273827D02*
X0146496Y0273827D01*
X0147095Y0274425D02*
X0089545Y0274425D01*
X0090073Y0275024D02*
X0147693Y0275024D01*
X0148292Y0275622D02*
X0090601Y0275622D01*
X0091238Y0276221D02*
X0148890Y0276221D01*
X0149489Y0276819D02*
X0091658Y0276819D01*
X0091986Y0277418D02*
X0150087Y0277418D01*
X0150686Y0278016D02*
X0092360Y0278016D01*
X0092734Y0278615D02*
X0151284Y0278615D01*
X0151883Y0279213D02*
X0093108Y0279213D01*
X0093482Y0279812D02*
X0152481Y0279812D01*
X0153080Y0280410D02*
X0093856Y0280410D01*
X0094230Y0281009D02*
X0153678Y0281009D01*
X0154277Y0281608D02*
X0094604Y0281608D01*
X0094978Y0282206D02*
X0154875Y0282206D01*
X0155474Y0282805D02*
X0095352Y0282805D01*
X0095726Y0283403D02*
X0156072Y0283403D01*
X0156671Y0284002D02*
X0096100Y0284002D01*
X0096475Y0284600D02*
X0157269Y0284600D01*
X0157026Y0285199D02*
X0096849Y0285199D01*
X0097223Y0285797D02*
X0157019Y0285797D01*
X0157429Y0286396D02*
X0097597Y0286396D01*
X0097971Y0286994D02*
X0158013Y0286994D01*
X0158597Y0287593D02*
X0098345Y0287593D01*
X0098719Y0288191D02*
X0159181Y0288191D01*
X0159765Y0288790D02*
X0099093Y0288790D01*
X0201501Y0270236D02*
X0223283Y0270236D01*
X0222685Y0269637D02*
X0201691Y0269637D01*
X0201657Y0269039D02*
X0222086Y0269039D01*
X0221488Y0268440D02*
X0201622Y0268440D01*
X0201588Y0267842D02*
X0220889Y0267842D01*
X0220291Y0267243D02*
X0201553Y0267243D01*
X0252197Y0216968D02*
X0304748Y0216968D01*
X0305448Y0217567D02*
X0252795Y0217567D01*
X0253394Y0218165D02*
X0306271Y0218165D01*
X0307510Y0218764D02*
X0253992Y0218764D01*
X0254591Y0219362D02*
X0308635Y0219362D01*
X0309537Y0219961D02*
X0255189Y0219961D01*
X0255788Y0220559D02*
X0309433Y0220559D01*
X0309330Y0221158D02*
X0256386Y0221158D01*
X0256985Y0221756D02*
X0309226Y0221756D01*
X0309122Y0222355D02*
X0257583Y0222355D01*
X0258182Y0222953D02*
X0309018Y0222953D01*
X0308865Y0223552D02*
X0258780Y0223552D01*
X0259379Y0224150D02*
X0308811Y0224150D01*
X0308865Y0224749D02*
X0259977Y0224749D01*
X0260576Y0225347D02*
X0308865Y0225347D01*
X0308865Y0225946D02*
X0261174Y0225946D01*
X0261773Y0226544D02*
X0308865Y0226544D01*
X0309119Y0227143D02*
X0262371Y0227143D01*
X0262970Y0227741D02*
X0309717Y0227741D01*
X0310371Y0228340D02*
X0263568Y0228340D01*
X0264167Y0228939D02*
X0311007Y0228939D01*
X0311644Y0229537D02*
X0264765Y0229537D01*
X0265364Y0230136D02*
X0312280Y0230136D01*
X0312916Y0230734D02*
X0265962Y0230734D01*
X0266561Y0231333D02*
X0313552Y0231333D01*
X0314188Y0231931D02*
X0267159Y0231931D01*
X0267758Y0232530D02*
X0314825Y0232530D01*
X0315461Y0233128D02*
X0268356Y0233128D01*
X0268955Y0233727D02*
X0316097Y0233727D01*
X0316713Y0234325D02*
X0269553Y0234325D01*
X0270152Y0234924D02*
X0317370Y0234924D01*
X0319275Y0234924D02*
X0329208Y0234924D01*
X0328435Y0234325D02*
X0320514Y0234325D01*
X0321952Y0233727D02*
X0327662Y0233727D01*
X0326889Y0233128D02*
X0323391Y0233128D01*
X0324829Y0232530D02*
X0326116Y0232530D01*
X0329981Y0235522D02*
X0270750Y0235522D01*
X0271349Y0236121D02*
X0330696Y0236121D01*
X0331365Y0236719D02*
X0271947Y0236719D01*
X0272546Y0237318D02*
X0332034Y0237318D01*
X0332702Y0237916D02*
X0273144Y0237916D01*
X0273743Y0238515D02*
X0333371Y0238515D01*
X0334040Y0239113D02*
X0274342Y0239113D01*
X0274940Y0239712D02*
X0334709Y0239712D01*
X0335378Y0240310D02*
X0275539Y0240310D01*
X0276137Y0240909D02*
X0336047Y0240909D01*
X0336716Y0241507D02*
X0276736Y0241507D01*
X0277334Y0242106D02*
X0337385Y0242106D01*
X0338035Y0242704D02*
X0277933Y0242704D01*
X0278531Y0243303D02*
X0338674Y0243303D01*
X0339314Y0243901D02*
X0279130Y0243901D01*
X0279728Y0244500D02*
X0339953Y0244500D01*
X0340592Y0245098D02*
X0280327Y0245098D01*
X0280925Y0245697D02*
X0341231Y0245697D01*
X0341870Y0246295D02*
X0281524Y0246295D01*
X0282122Y0246894D02*
X0342509Y0246894D01*
X0343149Y0247492D02*
X0282721Y0247492D01*
X0282800Y0248091D02*
X0343788Y0248091D01*
X0344427Y0248689D02*
X0282800Y0248689D01*
X0282800Y0249288D02*
X0345066Y0249288D01*
X0345705Y0249886D02*
X0282800Y0249886D01*
X0282800Y0250485D02*
X0346344Y0250485D01*
X0346984Y0251083D02*
X0282800Y0251083D01*
X0282800Y0251682D02*
X0347623Y0251682D01*
X0348262Y0252280D02*
X0282800Y0252280D01*
X0282800Y0252879D02*
X0348901Y0252879D01*
X0349540Y0253477D02*
X0282800Y0253477D01*
X0282800Y0254076D02*
X0350180Y0254076D01*
X0350819Y0254674D02*
X0282800Y0254674D01*
X0282800Y0255273D02*
X0351458Y0255273D01*
X0352097Y0255872D02*
X0282800Y0255872D01*
X0282800Y0256470D02*
X0352690Y0256470D01*
X0353249Y0257069D02*
X0282800Y0257069D01*
X0282800Y0257667D02*
X0353244Y0257667D01*
X0353237Y0258266D02*
X0282800Y0258266D01*
X0282800Y0258864D02*
X0353229Y0258864D01*
X0353221Y0259463D02*
X0282800Y0259463D01*
X0282800Y0260061D02*
X0353213Y0260061D01*
X0353205Y0260660D02*
X0282800Y0260660D01*
X0282800Y0261258D02*
X0353198Y0261258D01*
X0353190Y0261857D02*
X0282800Y0261857D01*
X0282800Y0262455D02*
X0353182Y0262455D01*
X0353174Y0263054D02*
X0282800Y0263054D01*
X0282800Y0263652D02*
X0353154Y0263652D01*
X0353159Y0264251D02*
X0282800Y0264251D01*
X0282800Y0264849D02*
X0353151Y0264849D01*
X0353173Y0265448D02*
X0282800Y0265448D01*
X0282800Y0266046D02*
X0353180Y0266046D01*
X0353186Y0266645D02*
X0282800Y0266645D01*
X0282800Y0267243D02*
X0353192Y0267243D01*
X0353199Y0267842D02*
X0282800Y0267842D01*
X0282800Y0268440D02*
X0353205Y0268440D01*
X0352667Y0269039D02*
X0282800Y0269039D01*
X0282800Y0269637D02*
X0352097Y0269637D01*
X0351528Y0270236D02*
X0282800Y0270236D01*
X0282800Y0270834D02*
X0350958Y0270834D01*
X0350389Y0271433D02*
X0282800Y0271433D01*
X0282800Y0272031D02*
X0349820Y0272031D01*
X0349250Y0272630D02*
X0282800Y0272630D01*
X0282800Y0273228D02*
X0348681Y0273228D01*
X0348111Y0273827D02*
X0282800Y0273827D01*
X0282800Y0274425D02*
X0347542Y0274425D01*
X0346972Y0275024D02*
X0282800Y0275024D01*
X0282800Y0275622D02*
X0346403Y0275622D01*
X0345834Y0276221D02*
X0282800Y0276221D01*
X0282800Y0276819D02*
X0345264Y0276819D01*
X0344695Y0277418D02*
X0282800Y0277418D01*
X0282800Y0278016D02*
X0344125Y0278016D01*
X0343556Y0278615D02*
X0282800Y0278615D01*
X0282800Y0279213D02*
X0342986Y0279213D01*
X0342417Y0279812D02*
X0282800Y0279812D01*
X0282800Y0280410D02*
X0341847Y0280410D01*
X0341278Y0281009D02*
X0282800Y0281009D01*
X0282800Y0281608D02*
X0340709Y0281608D01*
X0340139Y0282206D02*
X0282800Y0282206D01*
X0282800Y0282805D02*
X0339570Y0282805D01*
X0339000Y0283403D02*
X0282800Y0283403D01*
X0282800Y0284002D02*
X0338431Y0284002D01*
X0337861Y0284600D02*
X0282800Y0284600D01*
X0282800Y0285199D02*
X0337292Y0285199D01*
X0336722Y0285797D02*
X0282800Y0285797D01*
X0282800Y0286396D02*
X0336153Y0286396D01*
X0335584Y0286994D02*
X0282800Y0286994D01*
X0282800Y0287593D02*
X0335014Y0287593D01*
X0334445Y0288191D02*
X0282800Y0288191D01*
X0282800Y0288790D02*
X0333875Y0288790D01*
X0333306Y0289388D02*
X0282800Y0289388D01*
X0282800Y0289987D02*
X0332736Y0289987D01*
X0332167Y0290585D02*
X0282800Y0290585D01*
X0282800Y0291184D02*
X0331597Y0291184D01*
X0331028Y0291782D02*
X0282800Y0291782D01*
X0282800Y0292381D02*
X0330459Y0292381D01*
X0329889Y0292979D02*
X0282800Y0292979D01*
X0282800Y0293578D02*
X0329320Y0293578D01*
X0328750Y0294176D02*
X0282800Y0294176D01*
X0282800Y0294775D02*
X0328181Y0294775D01*
X0327611Y0295373D02*
X0282800Y0295373D01*
X0282800Y0295972D02*
X0327042Y0295972D01*
X0326472Y0296570D02*
X0282800Y0296570D01*
X0282800Y0297169D02*
X0325903Y0297169D01*
X0325334Y0297767D02*
X0282800Y0297767D01*
X0282800Y0298366D02*
X0324764Y0298366D01*
X0324195Y0298964D02*
X0282800Y0298964D01*
X0282800Y0299563D02*
X0323625Y0299563D01*
X0323056Y0300161D02*
X0282800Y0300161D01*
X0282800Y0300760D02*
X0322486Y0300760D01*
X0321917Y0301358D02*
X0282800Y0301358D01*
X0282800Y0301957D02*
X0321347Y0301957D01*
X0320778Y0302555D02*
X0282800Y0302555D01*
X0282800Y0303154D02*
X0320209Y0303154D01*
X0319639Y0303752D02*
X0282800Y0303752D01*
X0282800Y0304351D02*
X0319070Y0304351D01*
X0318500Y0304949D02*
X0282800Y0304949D01*
X0282800Y0305548D02*
X0317931Y0305548D01*
X0317361Y0306146D02*
X0282800Y0306146D01*
X0282800Y0306745D02*
X0316792Y0306745D01*
X0316222Y0307343D02*
X0282800Y0307343D01*
X0282800Y0307942D02*
X0315653Y0307942D01*
X0315084Y0308541D02*
X0282800Y0308541D01*
X0282800Y0309139D02*
X0314514Y0309139D01*
X0313945Y0309738D02*
X0282800Y0309738D01*
X0282800Y0310336D02*
X0313375Y0310336D01*
X0312806Y0310935D02*
X0282800Y0310935D01*
X0282800Y0311533D02*
X0312236Y0311533D01*
X0311667Y0312132D02*
X0282800Y0312132D01*
X0282800Y0312730D02*
X0311097Y0312730D01*
X0310528Y0313329D02*
X0282800Y0313329D01*
X0282800Y0313927D02*
X0309959Y0313927D01*
X0309389Y0314526D02*
X0282800Y0314526D01*
X0282800Y0315124D02*
X0308820Y0315124D01*
X0307317Y0315723D02*
X0282800Y0315723D01*
X0282800Y0316321D02*
X0306719Y0316321D01*
X0306405Y0316920D02*
X0282800Y0316920D01*
X0282800Y0317518D02*
X0306212Y0317518D01*
X0306212Y0318117D02*
X0282800Y0318117D01*
X0282800Y0318715D02*
X0306336Y0318715D01*
X0306584Y0319314D02*
X0282800Y0319314D01*
X0282800Y0319912D02*
X0307151Y0319912D01*
X0307872Y0320511D02*
X0282800Y0320511D01*
X0282800Y0321109D02*
X0307274Y0321109D01*
X0306675Y0321708D02*
X0282800Y0321708D01*
X0282800Y0322306D02*
X0306076Y0322306D01*
X0305478Y0322905D02*
X0282800Y0322905D01*
X0282800Y0323503D02*
X0304879Y0323503D01*
X0304281Y0324102D02*
X0282800Y0324102D01*
X0282800Y0324700D02*
X0303682Y0324700D01*
X0303084Y0325299D02*
X0282800Y0325299D01*
X0282800Y0325897D02*
X0302485Y0325897D01*
X0301887Y0326496D02*
X0282800Y0326496D01*
X0282800Y0327094D02*
X0301288Y0327094D01*
X0300690Y0327693D02*
X0283101Y0327693D01*
X0283579Y0328291D02*
X0300091Y0328291D01*
X0299493Y0328890D02*
X0283827Y0328890D01*
X0283889Y0329488D02*
X0298894Y0329488D01*
X0298296Y0330087D02*
X0283881Y0330087D01*
X0283633Y0330685D02*
X0297697Y0330685D01*
X0297099Y0331284D02*
X0283231Y0331284D01*
X0282443Y0331882D02*
X0296500Y0331882D01*
X0295902Y0332481D02*
X0280494Y0332481D01*
X0279895Y0333079D02*
X0295303Y0333079D01*
X0294705Y0333678D02*
X0279297Y0333678D01*
X0278698Y0334277D02*
X0294106Y0334277D01*
X0293508Y0334875D02*
X0278100Y0334875D01*
X0277501Y0335474D02*
X0292909Y0335474D01*
X0292311Y0336072D02*
X0276903Y0336072D01*
X0276304Y0336671D02*
X0291712Y0336671D01*
X0291114Y0337269D02*
X0275706Y0337269D01*
X0275107Y0337868D02*
X0290515Y0337868D01*
X0289917Y0338466D02*
X0274509Y0338466D01*
X0273910Y0339065D02*
X0289318Y0339065D01*
X0288720Y0339663D02*
X0273312Y0339663D01*
X0272713Y0340262D02*
X0288121Y0340262D01*
X0287523Y0340860D02*
X0272115Y0340860D01*
X0271516Y0341459D02*
X0286924Y0341459D01*
X0286326Y0342057D02*
X0270918Y0342057D01*
X0270319Y0342656D02*
X0285727Y0342656D01*
X0285129Y0343254D02*
X0269721Y0343254D01*
X0269122Y0343853D02*
X0284530Y0343853D01*
X0283932Y0344451D02*
X0268524Y0344451D01*
X0267925Y0345050D02*
X0283333Y0345050D01*
X0282735Y0345648D02*
X0267327Y0345648D01*
X0266728Y0346247D02*
X0282136Y0346247D01*
X0281538Y0346845D02*
X0266130Y0346845D01*
X0265531Y0347444D02*
X0280939Y0347444D01*
X0280341Y0348042D02*
X0264933Y0348042D01*
X0264334Y0348641D02*
X0279742Y0348641D01*
X0279143Y0349239D02*
X0263736Y0349239D01*
X0263137Y0349838D02*
X0278545Y0349838D01*
X0277946Y0350436D02*
X0262539Y0350436D01*
X0261940Y0351035D02*
X0277348Y0351035D01*
X0276749Y0351633D02*
X0261342Y0351633D01*
X0258288Y0363604D02*
X0257743Y0363604D01*
X0258288Y0364202D02*
X0257145Y0364202D01*
X0256546Y0364801D02*
X0258288Y0364801D01*
X0258288Y0365399D02*
X0255948Y0365399D01*
X0255349Y0365998D02*
X0258288Y0365998D01*
X0258288Y0366596D02*
X0254751Y0366596D01*
X0254152Y0367195D02*
X0258288Y0367195D01*
X0258288Y0367793D02*
X0253554Y0367793D01*
X0252955Y0368392D02*
X0258288Y0368392D01*
X0258288Y0368990D02*
X0252357Y0368990D01*
X0251758Y0369589D02*
X0258367Y0369589D01*
X0258966Y0370187D02*
X0251160Y0370187D01*
X0250561Y0370786D02*
X0259564Y0370786D01*
X0260163Y0371384D02*
X0249963Y0371384D01*
X0249364Y0371983D02*
X0260761Y0371983D01*
X0261360Y0372581D02*
X0248766Y0372581D01*
X0248167Y0373180D02*
X0261958Y0373180D01*
X0262557Y0373778D02*
X0247569Y0373778D01*
X0246970Y0374377D02*
X0263155Y0374377D01*
X0263754Y0374975D02*
X0246372Y0374975D01*
X0245773Y0375574D02*
X0264352Y0375574D01*
X0264951Y0376172D02*
X0245175Y0376172D01*
X0244576Y0376771D02*
X0265549Y0376771D01*
X0266148Y0377369D02*
X0238659Y0377369D01*
X0238059Y0377968D02*
X0249906Y0377968D01*
X0248972Y0378566D02*
X0237461Y0378566D01*
X0251694Y0377968D02*
X0266747Y0377968D01*
X0277401Y0355224D02*
X0412686Y0355224D01*
X0412646Y0354626D02*
X0277999Y0354626D01*
X0278598Y0354027D02*
X0412607Y0354027D01*
X0412567Y0353429D02*
X0279197Y0353429D01*
X0279795Y0352830D02*
X0412527Y0352830D01*
X0412533Y0352232D02*
X0280394Y0352232D01*
X0280992Y0351633D02*
X0413057Y0351633D01*
X0416791Y0351035D02*
X0281591Y0351035D01*
X0282189Y0350436D02*
X0416731Y0350436D01*
X0416671Y0349838D02*
X0282788Y0349838D01*
X0283386Y0349239D02*
X0416611Y0349239D01*
X0416551Y0348641D02*
X0283985Y0348641D01*
X0284583Y0348042D02*
X0416491Y0348042D01*
X0416431Y0347444D02*
X0285182Y0347444D01*
X0285780Y0346845D02*
X0416372Y0346845D01*
X0416312Y0346247D02*
X0332606Y0346247D01*
X0332504Y0346289D02*
X0331474Y0346289D01*
X0330522Y0345895D01*
X0330428Y0345800D01*
X0319863Y0345800D01*
X0312419Y0338356D01*
X0312285Y0338356D01*
X0311333Y0337962D01*
X0310605Y0337233D01*
X0310211Y0336282D01*
X0310211Y0335252D01*
X0310605Y0334300D01*
X0311333Y0333572D01*
X0312285Y0333178D01*
X0313315Y0333178D01*
X0314267Y0333572D01*
X0314995Y0334300D01*
X0315389Y0335252D01*
X0315389Y0335386D01*
X0321603Y0341600D01*
X0330428Y0341600D01*
X0330522Y0341505D01*
X0331474Y0341111D01*
X0332504Y0341111D01*
X0333456Y0341505D01*
X0334184Y0342233D01*
X0334578Y0343185D01*
X0334578Y0344215D01*
X0334184Y0345167D01*
X0333456Y0345895D01*
X0332504Y0346289D01*
X0331372Y0346247D02*
X0286379Y0346247D01*
X0286977Y0345648D02*
X0319711Y0345648D01*
X0319113Y0345050D02*
X0287576Y0345050D01*
X0288174Y0344451D02*
X0318514Y0344451D01*
X0317916Y0343853D02*
X0288773Y0343853D01*
X0289371Y0343254D02*
X0317317Y0343254D01*
X0316719Y0342656D02*
X0289970Y0342656D01*
X0290568Y0342057D02*
X0316120Y0342057D01*
X0315522Y0341459D02*
X0291167Y0341459D01*
X0291765Y0340860D02*
X0314923Y0340860D01*
X0314325Y0340262D02*
X0292364Y0340262D01*
X0292962Y0339663D02*
X0313726Y0339663D01*
X0313128Y0339065D02*
X0293561Y0339065D01*
X0294159Y0338466D02*
X0312529Y0338466D01*
X0311239Y0337868D02*
X0294758Y0337868D01*
X0295356Y0337269D02*
X0310641Y0337269D01*
X0310372Y0336671D02*
X0295955Y0336671D01*
X0296553Y0336072D02*
X0310211Y0336072D01*
X0310211Y0335474D02*
X0297152Y0335474D01*
X0297750Y0334875D02*
X0310367Y0334875D01*
X0310629Y0334277D02*
X0298349Y0334277D01*
X0298947Y0333678D02*
X0311228Y0333678D01*
X0314372Y0333678D02*
X0414079Y0333678D01*
X0414362Y0334277D02*
X0314971Y0334277D01*
X0315233Y0334875D02*
X0414519Y0334875D01*
X0414647Y0335474D02*
X0315476Y0335474D01*
X0316075Y0336072D02*
X0414775Y0336072D01*
X0414904Y0336671D02*
X0316673Y0336671D01*
X0317272Y0337269D02*
X0415032Y0337269D01*
X0415160Y0337868D02*
X0317870Y0337868D01*
X0318469Y0338466D02*
X0415288Y0338466D01*
X0415417Y0339065D02*
X0319068Y0339065D01*
X0319666Y0339663D02*
X0415545Y0339663D01*
X0415673Y0340262D02*
X0320265Y0340262D01*
X0320863Y0340860D02*
X0415773Y0340860D01*
X0415833Y0341459D02*
X0333343Y0341459D01*
X0334007Y0342057D02*
X0415893Y0342057D01*
X0415953Y0342656D02*
X0334359Y0342656D01*
X0334578Y0343254D02*
X0416012Y0343254D01*
X0416072Y0343853D02*
X0334578Y0343853D01*
X0334480Y0344451D02*
X0416132Y0344451D01*
X0416192Y0345050D02*
X0334232Y0345050D01*
X0333702Y0345648D02*
X0416252Y0345648D01*
X0413795Y0333079D02*
X0299546Y0333079D01*
X0300144Y0332481D02*
X0413512Y0332481D01*
X0413228Y0331882D02*
X0300743Y0331882D01*
X0301341Y0331284D02*
X0412945Y0331284D01*
X0412661Y0330685D02*
X0301940Y0330685D01*
X0302538Y0330087D02*
X0412378Y0330087D01*
X0412094Y0329488D02*
X0303137Y0329488D01*
X0303735Y0328890D02*
X0411811Y0328890D01*
X0411527Y0328291D02*
X0304334Y0328291D01*
X0304933Y0327693D02*
X0411244Y0327693D01*
X0410960Y0327094D02*
X0305531Y0327094D01*
X0306130Y0326496D02*
X0410677Y0326496D01*
X0410393Y0325897D02*
X0306728Y0325897D01*
X0307327Y0325299D02*
X0410109Y0325299D01*
X0409823Y0324700D02*
X0307925Y0324700D01*
X0308524Y0324102D02*
X0409537Y0324102D01*
X0409250Y0323503D02*
X0309122Y0323503D01*
X0309721Y0322905D02*
X0408964Y0322905D01*
X0408678Y0322306D02*
X0310319Y0322306D01*
X0310918Y0321708D02*
X0408392Y0321708D01*
X0408105Y0321109D02*
X0311538Y0321109D01*
X0312115Y0320511D02*
X0407819Y0320511D01*
X0407533Y0319912D02*
X0312653Y0319912D01*
X0313211Y0319314D02*
X0407247Y0319314D01*
X0406960Y0318715D02*
X0313769Y0318715D01*
X0314327Y0318117D02*
X0406674Y0318117D01*
X0406388Y0317518D02*
X0314884Y0317518D01*
X0315442Y0316920D02*
X0406102Y0316920D01*
X0405815Y0316321D02*
X0402456Y0316321D01*
X0401834Y0316321D02*
X0316000Y0316321D01*
X0316558Y0315723D02*
X0401049Y0315723D01*
X0400604Y0315124D02*
X0317116Y0315124D01*
X0317673Y0314526D02*
X0400160Y0314526D01*
X0399715Y0313927D02*
X0318231Y0313927D01*
X0318789Y0313329D02*
X0399271Y0313329D01*
X0399071Y0312730D02*
X0319347Y0312730D01*
X0319905Y0312132D02*
X0399159Y0312132D01*
X0398998Y0311533D02*
X0399931Y0311533D01*
X0399804Y0310935D02*
X0400737Y0310935D01*
X0400610Y0310336D02*
X0401542Y0310336D01*
X0401416Y0309738D02*
X0401898Y0309738D01*
X0397994Y0311533D02*
X0320462Y0311533D01*
X0321020Y0310935D02*
X0397493Y0310935D01*
X0397048Y0310336D02*
X0321578Y0310336D01*
X0322136Y0309738D02*
X0396604Y0309738D01*
X0396159Y0309139D02*
X0322694Y0309139D01*
X0323251Y0308541D02*
X0395715Y0308541D01*
X0395557Y0307942D02*
X0323809Y0307942D01*
X0324367Y0307343D02*
X0395667Y0307343D01*
X0396473Y0306745D02*
X0324925Y0306745D01*
X0325483Y0306146D02*
X0397279Y0306146D01*
X0398085Y0305548D02*
X0326040Y0305548D01*
X0326598Y0304949D02*
X0398775Y0304949D01*
X0398385Y0304351D02*
X0327156Y0304351D01*
X0327714Y0303752D02*
X0397995Y0303752D01*
X0397597Y0303154D02*
X0328272Y0303154D01*
X0328829Y0302555D02*
X0397074Y0302555D01*
X0396550Y0301957D02*
X0329387Y0301957D01*
X0329945Y0301358D02*
X0396026Y0301358D01*
X0395503Y0300760D02*
X0330503Y0300760D01*
X0331061Y0300161D02*
X0394979Y0300161D01*
X0394455Y0299563D02*
X0331618Y0299563D01*
X0332176Y0298964D02*
X0393931Y0298964D01*
X0393408Y0298366D02*
X0332734Y0298366D01*
X0333292Y0297767D02*
X0392884Y0297767D01*
X0392360Y0297169D02*
X0333850Y0297169D01*
X0334407Y0296570D02*
X0391837Y0296570D01*
X0391313Y0295972D02*
X0334965Y0295972D01*
X0335523Y0295373D02*
X0390789Y0295373D01*
X0390266Y0294775D02*
X0336081Y0294775D01*
X0336639Y0294176D02*
X0389742Y0294176D01*
X0389218Y0293578D02*
X0337196Y0293578D01*
X0337754Y0292979D02*
X0388695Y0292979D01*
X0388171Y0292381D02*
X0338312Y0292381D01*
X0338870Y0291782D02*
X0387643Y0291782D01*
X0387123Y0291184D02*
X0339428Y0291184D01*
X0339985Y0290585D02*
X0386608Y0290585D01*
X0386091Y0289987D02*
X0340543Y0289987D01*
X0341101Y0289388D02*
X0385573Y0289388D01*
X0385055Y0288790D02*
X0341659Y0288790D01*
X0342216Y0288191D02*
X0384538Y0288191D01*
X0384020Y0287593D02*
X0342774Y0287593D01*
X0343332Y0286994D02*
X0383502Y0286994D01*
X0382985Y0286396D02*
X0343890Y0286396D01*
X0344448Y0285797D02*
X0382467Y0285797D01*
X0381949Y0285199D02*
X0345005Y0285199D01*
X0345563Y0284600D02*
X0381432Y0284600D01*
X0380914Y0284002D02*
X0346121Y0284002D01*
X0346679Y0283403D02*
X0380397Y0283403D01*
X0379879Y0282805D02*
X0347237Y0282805D01*
X0347794Y0282206D02*
X0379361Y0282206D01*
X0378844Y0281608D02*
X0348352Y0281608D01*
X0348910Y0281009D02*
X0378326Y0281009D01*
X0377808Y0280410D02*
X0349468Y0280410D01*
X0350026Y0279812D02*
X0377291Y0279812D01*
X0376773Y0279213D02*
X0350583Y0279213D01*
X0351141Y0278615D02*
X0376256Y0278615D01*
X0375738Y0278016D02*
X0351699Y0278016D01*
X0352257Y0277418D02*
X0375220Y0277418D01*
X0374703Y0276819D02*
X0352815Y0276819D01*
X0353372Y0276221D02*
X0374185Y0276221D01*
X0373667Y0275622D02*
X0353930Y0275622D01*
X0354488Y0275024D02*
X0373150Y0275024D01*
X0372632Y0274425D02*
X0355046Y0274425D01*
X0355604Y0273827D02*
X0372114Y0273827D01*
X0371597Y0273228D02*
X0356161Y0273228D01*
X0356719Y0272630D02*
X0371056Y0272630D01*
X0370497Y0272031D02*
X0357277Y0272031D01*
X0357863Y0271433D02*
X0369938Y0271433D01*
X0369380Y0270834D02*
X0358461Y0270834D01*
X0359060Y0270236D02*
X0368821Y0270236D01*
X0368263Y0269637D02*
X0364851Y0269637D01*
X0365327Y0269039D02*
X0367704Y0269039D01*
X0367145Y0268440D02*
X0365803Y0268440D01*
X0366279Y0267842D02*
X0366587Y0267842D01*
X0362819Y0269637D02*
X0359659Y0269637D01*
X0360257Y0269039D02*
X0362066Y0269039D01*
X0361314Y0268440D02*
X0360856Y0268440D01*
X0403262Y0315723D02*
X0405529Y0315723D01*
X0405243Y0315124D02*
X0404068Y0315124D01*
X0404874Y0314526D02*
X0404957Y0314526D01*
X0417057Y0372581D02*
X0330967Y0372581D01*
X0331741Y0373180D02*
X0416928Y0373180D01*
X0416800Y0373778D02*
X0332138Y0373778D01*
X0339547Y0374377D02*
X0416672Y0374377D01*
X0416544Y0374975D02*
X0340146Y0374975D01*
X0340744Y0375574D02*
X0416415Y0375574D01*
X0416287Y0376172D02*
X0341343Y0376172D01*
X0341941Y0376771D02*
X0416159Y0376771D01*
X0416031Y0377369D02*
X0342663Y0377369D01*
X0342875Y0377968D02*
X0415898Y0377968D01*
X0415626Y0378566D02*
X0343002Y0378566D01*
X0343171Y0379165D02*
X0415354Y0379165D01*
X0415082Y0379763D02*
X0343340Y0379763D01*
X0343510Y0380362D02*
X0414810Y0380362D01*
X0414538Y0380960D02*
X0343679Y0380960D01*
X0343848Y0381559D02*
X0414266Y0381559D01*
X0413994Y0382157D02*
X0344018Y0382157D01*
X0344187Y0382756D02*
X0413579Y0382756D01*
X0413066Y0383354D02*
X0344742Y0383354D01*
X0346572Y0383953D02*
X0412553Y0383953D01*
X0412040Y0384551D02*
X0348402Y0384551D01*
X0350233Y0385150D02*
X0411527Y0385150D01*
X0410870Y0385748D02*
X0352063Y0385748D01*
X0353894Y0386347D02*
X0410205Y0386347D01*
X0409540Y0386945D02*
X0355724Y0386945D01*
X0357555Y0387544D02*
X0408875Y0387544D01*
X0408210Y0388143D02*
X0359385Y0388143D01*
X0361216Y0388741D02*
X0407545Y0388741D01*
X0406848Y0389340D02*
X0362521Y0389340D01*
X0363851Y0389938D02*
X0405950Y0389938D01*
X0405052Y0390537D02*
X0390297Y0390537D01*
X0390896Y0391135D02*
X0391989Y0391135D01*
X0393411Y0391135D02*
X0404155Y0391135D01*
X0403257Y0391734D02*
X0393963Y0391734D01*
X0394033Y0392332D02*
X0402359Y0392332D01*
X0401461Y0392931D02*
X0394104Y0392931D01*
X0394174Y0393529D02*
X0400564Y0393529D01*
X0398759Y0394128D02*
X0394244Y0394128D01*
X0394315Y0394726D02*
X0396664Y0394726D01*
X0394569Y0395325D02*
X0394385Y0395325D01*
X0382676Y0390537D02*
X0365181Y0390537D01*
X0366511Y0391135D02*
X0382077Y0391135D01*
X0382259Y0390953D02*
X0382259Y0390953D01*
X0381479Y0391734D02*
X0367841Y0391734D01*
X0369171Y0392332D02*
X0380880Y0392332D01*
X0380282Y0392931D02*
X0370501Y0392931D01*
X0327629Y0401310D02*
X0317296Y0401310D01*
X0317472Y0400113D02*
X0313626Y0400113D01*
X0315461Y0400711D02*
X0318545Y0400711D01*
X0319132Y0401908D02*
X0326951Y0401908D01*
X0326431Y0402507D02*
X0320967Y0402507D01*
X0322802Y0403105D02*
X0326139Y0403105D01*
X0325938Y0403704D02*
X0324637Y0403704D01*
X0301861Y0370786D02*
X0301789Y0370786D01*
X0301551Y0370187D02*
X0302166Y0370187D01*
X0302765Y0369589D02*
X0301313Y0369589D01*
X0321462Y0341459D02*
X0330635Y0341459D01*
X0303987Y0216370D02*
X0251598Y0216370D01*
X0251000Y0215771D02*
X0303225Y0215771D01*
X0302464Y0215173D02*
X0250401Y0215173D01*
X0249803Y0214574D02*
X0301703Y0214574D01*
X0300941Y0213976D02*
X0249204Y0213976D01*
X0248606Y0213377D02*
X0300180Y0213377D01*
X0299419Y0212779D02*
X0248007Y0212779D01*
X0247409Y0212180D02*
X0298658Y0212180D01*
X0297896Y0211582D02*
X0246810Y0211582D01*
X0246211Y0210983D02*
X0297135Y0210983D01*
X0296374Y0210385D02*
X0245613Y0210385D01*
X0245014Y0209786D02*
X0295612Y0209786D01*
X0294851Y0209188D02*
X0244416Y0209188D01*
X0243817Y0208589D02*
X0294090Y0208589D01*
X0293329Y0207991D02*
X0243219Y0207991D01*
X0242620Y0207392D02*
X0292567Y0207392D01*
X0291806Y0206794D02*
X0242022Y0206794D01*
X0241423Y0206195D02*
X0291045Y0206195D01*
X0290283Y0205597D02*
X0240825Y0205597D01*
X0240226Y0204998D02*
X0289522Y0204998D01*
X0288761Y0204400D02*
X0239628Y0204400D01*
X0239029Y0203801D02*
X0288000Y0203801D01*
X0287238Y0203203D02*
X0238431Y0203203D01*
X0237832Y0202604D02*
X0286477Y0202604D01*
X0285716Y0202005D02*
X0237234Y0202005D01*
X0236635Y0201407D02*
X0284954Y0201407D01*
X0284193Y0200808D02*
X0236037Y0200808D01*
X0235438Y0200210D02*
X0283432Y0200210D01*
X0282671Y0199611D02*
X0234840Y0199611D01*
X0234241Y0199013D02*
X0281909Y0199013D01*
X0281148Y0198414D02*
X0233643Y0198414D01*
X0233044Y0197816D02*
X0280387Y0197816D01*
X0279625Y0197217D02*
X0232446Y0197217D01*
X0231847Y0196619D02*
X0278864Y0196619D01*
X0278103Y0196020D02*
X0231249Y0196020D01*
X0230650Y0195422D02*
X0277342Y0195422D01*
X0276580Y0194823D02*
X0267053Y0194823D01*
X0267505Y0194225D02*
X0275819Y0194225D01*
X0275058Y0193626D02*
X0267804Y0193626D01*
X0268104Y0193028D02*
X0274280Y0193028D01*
X0272912Y0192429D02*
X0268404Y0192429D01*
X0268704Y0191831D02*
X0271544Y0191831D01*
X0270176Y0191232D02*
X0269003Y0191232D01*
X0265917Y0194823D02*
X0230052Y0194823D01*
X0229453Y0194225D02*
X0264722Y0194225D01*
X0263527Y0193626D02*
X0228855Y0193626D01*
X0228256Y0193028D02*
X0262672Y0193028D01*
X0262473Y0192429D02*
X0227658Y0192429D01*
X0227059Y0191831D02*
X0259941Y0191831D01*
X0258746Y0191232D02*
X0226461Y0191232D01*
X0225862Y0190634D02*
X0257551Y0190634D01*
X0257275Y0190035D02*
X0225264Y0190035D01*
X0224665Y0189437D02*
X0257315Y0189437D01*
X0257615Y0188838D02*
X0224067Y0188838D01*
X0223468Y0188240D02*
X0257914Y0188240D01*
X0258214Y0187641D02*
X0222870Y0187641D01*
X0222271Y0187043D02*
X0258514Y0187043D01*
X0258814Y0186444D02*
X0221673Y0186444D01*
X0221074Y0185846D02*
X0257149Y0185846D01*
X0254605Y0185247D02*
X0220475Y0185247D01*
X0219877Y0184649D02*
X0252061Y0184649D01*
X0249587Y0184050D02*
X0219278Y0184050D01*
X0218680Y0183452D02*
X0248101Y0183452D01*
X0246429Y0182853D02*
X0218081Y0182853D01*
X0217483Y0182255D02*
X0244757Y0182255D01*
X0243086Y0181656D02*
X0216884Y0181656D01*
X0216286Y0181058D02*
X0241414Y0181058D01*
X0239742Y0180459D02*
X0215687Y0180459D01*
X0215089Y0179861D02*
X0238070Y0179861D01*
X0236399Y0179262D02*
X0214490Y0179262D01*
X0213892Y0178664D02*
X0234727Y0178664D01*
X0233055Y0178065D02*
X0213293Y0178065D01*
X0212695Y0177467D02*
X0231384Y0177467D01*
X0229712Y0176868D02*
X0212096Y0176868D01*
X0211498Y0176270D02*
X0228040Y0176270D01*
X0226369Y0175671D02*
X0210899Y0175671D01*
X0210301Y0175072D02*
X0224697Y0175072D01*
X0223025Y0174474D02*
X0209702Y0174474D01*
X0209104Y0173875D02*
X0221353Y0173875D01*
X0219682Y0173277D02*
X0208505Y0173277D01*
X0207907Y0172678D02*
X0218010Y0172678D01*
X0216338Y0172080D02*
X0207308Y0172080D01*
X0206645Y0171481D02*
X0214667Y0171481D01*
X0212995Y0170883D02*
X0208081Y0170883D01*
X0209517Y0170284D02*
X0211323Y0170284D01*
X0211090Y0159511D02*
X0224050Y0159511D01*
X0222300Y0159900D02*
X0226800Y0158900D01*
X0229800Y0156900D01*
X0232300Y0154400D01*
X0237300Y0149900D01*
X0242800Y0145900D01*
X0247800Y0141400D01*
X0255800Y0135900D01*
X0260800Y0132900D01*
X0266300Y0130400D01*
X0274300Y0127400D01*
X0282300Y0125400D01*
X0288300Y0124900D01*
X0293800Y0125400D01*
X0299800Y0127400D01*
X0304800Y0129400D01*
X0309300Y0131900D01*
X0311800Y0134900D01*
X0313800Y0138400D01*
X0316300Y0144400D01*
X0317800Y0150900D01*
X0318300Y0156900D01*
X0318186Y0158152D01*
X0320742Y0151444D01*
X0320751Y0151258D01*
X0321066Y0150594D01*
X0321327Y0149907D01*
X0321455Y0149772D01*
X0325524Y0141182D01*
X0327396Y0135567D01*
X0328829Y0130312D01*
X0330277Y0123554D01*
X0332174Y0111698D01*
X0331731Y0105496D01*
X0329890Y0095832D01*
X0326533Y0088698D01*
X0323107Y0085615D01*
X0318483Y0084548D01*
X0318305Y0084564D01*
X0317597Y0084343D01*
X0316874Y0084176D01*
X0316729Y0084073D01*
X0316558Y0084020D01*
X0315988Y0083545D01*
X0315384Y0083114D01*
X0315289Y0082962D01*
X0313326Y0081326D01*
X0313052Y0081201D01*
X0312629Y0080746D01*
X0312152Y0080348D01*
X0312012Y0080081D01*
X0306079Y0073692D01*
X0302323Y0070353D01*
X0302194Y0070300D01*
X0301643Y0069748D01*
X0301060Y0069230D01*
X0300999Y0069104D01*
X0295133Y0063238D01*
X0290507Y0059075D01*
X0285381Y0055813D01*
X0283085Y0054435D01*
X0278319Y0052052D01*
X0273534Y0049878D01*
X0266690Y0049022D01*
X0260855Y0049471D01*
X0255831Y0050308D01*
X0255717Y0050371D01*
X0254933Y0050458D01*
X0254154Y0050588D01*
X0254027Y0050559D01*
X0250878Y0050909D01*
X0243641Y0053622D01*
X0242525Y0054181D01*
X0241700Y0055005D01*
X0239409Y0057754D01*
X0238328Y0059196D01*
X0238200Y0059506D01*
X0237784Y0059922D01*
X0237431Y0060392D01*
X0237143Y0060563D01*
X0235871Y0061834D01*
X0235613Y0062220D01*
X0235231Y0062475D01*
X0234906Y0062800D01*
X0234477Y0062977D01*
X0233868Y0063383D01*
X0233676Y0063605D01*
X0233113Y0063886D01*
X0232590Y0064235D01*
X0232302Y0064292D01*
X0231376Y0064755D01*
X0231123Y0064975D01*
X0230565Y0065161D01*
X0230039Y0065424D01*
X0229705Y0065447D01*
X0227891Y0066052D01*
X0227691Y0066192D01*
X0227030Y0066339D01*
X0226387Y0066553D01*
X0226143Y0066536D01*
X0223013Y0067231D01*
X0222856Y0067324D01*
X0222125Y0067429D01*
X0221405Y0067589D01*
X0221225Y0067557D01*
X0218685Y0067920D01*
X0213303Y0069266D01*
X0209753Y0070844D01*
X0207566Y0072666D01*
X0203176Y0077935D01*
X0200811Y0082665D01*
X0200424Y0087305D01*
X0200791Y0090242D01*
X0202550Y0094640D01*
X0208475Y0108464D01*
X0210235Y0111984D01*
X0210541Y0112397D01*
X0210640Y0112794D01*
X0210824Y0113161D01*
X0210860Y0113674D01*
X0212118Y0118705D01*
X0212271Y0118983D01*
X0212338Y0119584D01*
X0212485Y0120172D01*
X0212438Y0120486D01*
X0212861Y0124296D01*
X0213762Y0130152D01*
X0213900Y0130485D01*
X0213900Y0131048D01*
X0213986Y0131605D01*
X0213900Y0131955D01*
X0213900Y0142747D01*
X0213973Y0142999D01*
X0213900Y0143655D01*
X0213900Y0144315D01*
X0213800Y0144557D01*
X0213459Y0147627D01*
X0213488Y0147754D01*
X0213358Y0148533D01*
X0213271Y0149317D01*
X0213208Y0149431D01*
X0212344Y0154616D01*
X0212215Y0155482D01*
X0212194Y0155518D01*
X0212187Y0155559D01*
X0211724Y0156301D01*
X0210590Y0158191D01*
X0210529Y0158428D01*
X0210122Y0158970D01*
X0209888Y0159361D01*
X0218012Y0160376D01*
X0222300Y0159900D01*
X0220413Y0160110D02*
X0215878Y0160110D01*
X0211234Y0157117D02*
X0229474Y0157117D01*
X0230181Y0156519D02*
X0211593Y0156519D01*
X0211962Y0155920D02*
X0230780Y0155920D01*
X0231378Y0155322D02*
X0212239Y0155322D01*
X0212328Y0154723D02*
X0231977Y0154723D01*
X0232606Y0154125D02*
X0212426Y0154125D01*
X0212526Y0153526D02*
X0233271Y0153526D01*
X0233936Y0152928D02*
X0212626Y0152928D01*
X0212725Y0152329D02*
X0234601Y0152329D01*
X0235266Y0151731D02*
X0212825Y0151731D01*
X0212925Y0151132D02*
X0235931Y0151132D01*
X0236596Y0150534D02*
X0213025Y0150534D01*
X0213124Y0149935D02*
X0237261Y0149935D01*
X0238075Y0149337D02*
X0213260Y0149337D01*
X0213335Y0148738D02*
X0238898Y0148738D01*
X0239721Y0148139D02*
X0213424Y0148139D01*
X0213468Y0147541D02*
X0240544Y0147541D01*
X0241367Y0146942D02*
X0213535Y0146942D01*
X0213601Y0146344D02*
X0242190Y0146344D01*
X0242972Y0145745D02*
X0213668Y0145745D01*
X0213734Y0145147D02*
X0243637Y0145147D01*
X0244302Y0144548D02*
X0213803Y0144548D01*
X0213900Y0143950D02*
X0244967Y0143950D01*
X0245632Y0143351D02*
X0213934Y0143351D01*
X0213902Y0142753D02*
X0246297Y0142753D01*
X0246962Y0142154D02*
X0213900Y0142154D01*
X0213900Y0141556D02*
X0247627Y0141556D01*
X0248444Y0140957D02*
X0213900Y0140957D01*
X0213900Y0140359D02*
X0249314Y0140359D01*
X0250185Y0139760D02*
X0213900Y0139760D01*
X0213900Y0139162D02*
X0251056Y0139162D01*
X0251926Y0138563D02*
X0213900Y0138563D01*
X0213900Y0137965D02*
X0252797Y0137965D01*
X0253667Y0137366D02*
X0213900Y0137366D01*
X0213900Y0136768D02*
X0254538Y0136768D01*
X0255408Y0136169D02*
X0213900Y0136169D01*
X0213900Y0135571D02*
X0256349Y0135571D01*
X0257346Y0134972D02*
X0213900Y0134972D01*
X0213900Y0134374D02*
X0258344Y0134374D01*
X0259341Y0133775D02*
X0213900Y0133775D01*
X0213900Y0133177D02*
X0260339Y0133177D01*
X0261508Y0132578D02*
X0213900Y0132578D01*
X0213900Y0131980D02*
X0262825Y0131980D01*
X0264141Y0131381D02*
X0213951Y0131381D01*
X0213900Y0130783D02*
X0265458Y0130783D01*
X0266876Y0130184D02*
X0213775Y0130184D01*
X0213675Y0129586D02*
X0268472Y0129586D01*
X0270068Y0128987D02*
X0213583Y0128987D01*
X0213491Y0128389D02*
X0271664Y0128389D01*
X0273260Y0127790D02*
X0213399Y0127790D01*
X0213307Y0127192D02*
X0275134Y0127192D01*
X0277528Y0126593D02*
X0213215Y0126593D01*
X0213122Y0125995D02*
X0279922Y0125995D01*
X0282347Y0125396D02*
X0213030Y0125396D01*
X0212938Y0124798D02*
X0330010Y0124798D01*
X0329882Y0125396D02*
X0293757Y0125396D01*
X0295584Y0125995D02*
X0329754Y0125995D01*
X0329626Y0126593D02*
X0297379Y0126593D01*
X0299175Y0127192D02*
X0329497Y0127192D01*
X0329369Y0127790D02*
X0300775Y0127790D01*
X0302272Y0128389D02*
X0329241Y0128389D01*
X0329113Y0128987D02*
X0303768Y0128987D01*
X0305134Y0129586D02*
X0328984Y0129586D01*
X0328856Y0130184D02*
X0306211Y0130184D01*
X0307289Y0130783D02*
X0328700Y0130783D01*
X0328537Y0131381D02*
X0308366Y0131381D01*
X0309366Y0131980D02*
X0328374Y0131980D01*
X0328211Y0132578D02*
X0309865Y0132578D01*
X0310364Y0133177D02*
X0328047Y0133177D01*
X0327884Y0133775D02*
X0310863Y0133775D01*
X0311361Y0134374D02*
X0327721Y0134374D01*
X0327558Y0134972D02*
X0311841Y0134972D01*
X0312183Y0135571D02*
X0327394Y0135571D01*
X0327195Y0136169D02*
X0312525Y0136169D01*
X0312867Y0136768D02*
X0326995Y0136768D01*
X0326796Y0137366D02*
X0313209Y0137366D01*
X0313551Y0137965D02*
X0326596Y0137965D01*
X0326397Y0138563D02*
X0313868Y0138563D01*
X0314117Y0139162D02*
X0326197Y0139162D01*
X0325998Y0139760D02*
X0314367Y0139760D01*
X0314616Y0140359D02*
X0325798Y0140359D01*
X0325599Y0140957D02*
X0314866Y0140957D01*
X0315115Y0141556D02*
X0325347Y0141556D01*
X0325063Y0142154D02*
X0315364Y0142154D01*
X0315614Y0142753D02*
X0324780Y0142753D01*
X0324496Y0143351D02*
X0315863Y0143351D01*
X0316112Y0143950D02*
X0324213Y0143950D01*
X0323929Y0144548D02*
X0316334Y0144548D01*
X0316472Y0145147D02*
X0323646Y0145147D01*
X0323362Y0145745D02*
X0316610Y0145745D01*
X0316749Y0146344D02*
X0323079Y0146344D01*
X0322795Y0146942D02*
X0316887Y0146942D01*
X0317025Y0147541D02*
X0322512Y0147541D01*
X0322228Y0148139D02*
X0317163Y0148139D01*
X0317301Y0148738D02*
X0321945Y0148738D01*
X0321661Y0149337D02*
X0317439Y0149337D01*
X0317577Y0149935D02*
X0321317Y0149935D01*
X0321089Y0150534D02*
X0317715Y0150534D01*
X0317819Y0151132D02*
X0320811Y0151132D01*
X0320633Y0151731D02*
X0317869Y0151731D01*
X0317919Y0152329D02*
X0320405Y0152329D01*
X0320177Y0152928D02*
X0317969Y0152928D01*
X0318019Y0153526D02*
X0319949Y0153526D01*
X0319721Y0154125D02*
X0318069Y0154125D01*
X0318119Y0154723D02*
X0319493Y0154723D01*
X0319265Y0155322D02*
X0318168Y0155322D01*
X0318218Y0155920D02*
X0319037Y0155920D01*
X0318809Y0156519D02*
X0318268Y0156519D01*
X0318280Y0157117D02*
X0318580Y0157117D01*
X0318352Y0157716D02*
X0318226Y0157716D01*
X0330139Y0124199D02*
X0212850Y0124199D01*
X0212784Y0123601D02*
X0330267Y0123601D01*
X0330365Y0123002D02*
X0212717Y0123002D01*
X0212651Y0122403D02*
X0330461Y0122403D01*
X0330557Y0121805D02*
X0212584Y0121805D01*
X0212518Y0121206D02*
X0330652Y0121206D01*
X0330748Y0120608D02*
X0212451Y0120608D01*
X0212444Y0120009D02*
X0330844Y0120009D01*
X0330940Y0119411D02*
X0212318Y0119411D01*
X0212177Y0118812D02*
X0331036Y0118812D01*
X0331131Y0118214D02*
X0211995Y0118214D01*
X0211845Y0117615D02*
X0331227Y0117615D01*
X0331323Y0117017D02*
X0211696Y0117017D01*
X0211546Y0116418D02*
X0331419Y0116418D01*
X0331514Y0115820D02*
X0211397Y0115820D01*
X0211247Y0115221D02*
X0331610Y0115221D01*
X0331706Y0114623D02*
X0211097Y0114623D01*
X0210948Y0114024D02*
X0331802Y0114024D01*
X0331897Y0113426D02*
X0210842Y0113426D01*
X0210657Y0112827D02*
X0331993Y0112827D01*
X0332089Y0112229D02*
X0210416Y0112229D01*
X0210058Y0111630D02*
X0332169Y0111630D01*
X0332126Y0111032D02*
X0209759Y0111032D01*
X0209460Y0110433D02*
X0332084Y0110433D01*
X0332041Y0109835D02*
X0209160Y0109835D01*
X0208861Y0109236D02*
X0331998Y0109236D01*
X0331955Y0108638D02*
X0208562Y0108638D01*
X0208293Y0108039D02*
X0331913Y0108039D01*
X0331870Y0107441D02*
X0208036Y0107441D01*
X0207780Y0106842D02*
X0331827Y0106842D01*
X0331784Y0106244D02*
X0207523Y0106244D01*
X0207267Y0105645D02*
X0331742Y0105645D01*
X0331645Y0105047D02*
X0207010Y0105047D01*
X0206754Y0104448D02*
X0331531Y0104448D01*
X0331417Y0103850D02*
X0206497Y0103850D01*
X0206241Y0103251D02*
X0331303Y0103251D01*
X0331189Y0102653D02*
X0205984Y0102653D01*
X0205728Y0102054D02*
X0331075Y0102054D01*
X0330961Y0101456D02*
X0205471Y0101456D01*
X0205215Y0100857D02*
X0330847Y0100857D01*
X0330733Y0100259D02*
X0204958Y0100259D01*
X0204702Y0099660D02*
X0330619Y0099660D01*
X0330505Y0099062D02*
X0204445Y0099062D01*
X0204189Y0098463D02*
X0330391Y0098463D01*
X0330277Y0097865D02*
X0203932Y0097865D01*
X0203676Y0097266D02*
X0330163Y0097266D01*
X0330049Y0096668D02*
X0203419Y0096668D01*
X0203163Y0096069D02*
X0329935Y0096069D01*
X0329720Y0095470D02*
X0202906Y0095470D01*
X0202650Y0094872D02*
X0329438Y0094872D01*
X0329157Y0094273D02*
X0202404Y0094273D01*
X0202164Y0093675D02*
X0328875Y0093675D01*
X0328593Y0093076D02*
X0201925Y0093076D01*
X0201686Y0092478D02*
X0328312Y0092478D01*
X0328030Y0091879D02*
X0201446Y0091879D01*
X0201207Y0091281D02*
X0327748Y0091281D01*
X0327467Y0090682D02*
X0200967Y0090682D01*
X0200771Y0090084D02*
X0327185Y0090084D01*
X0326903Y0089485D02*
X0200696Y0089485D01*
X0200622Y0088887D02*
X0326622Y0088887D01*
X0326077Y0088288D02*
X0200547Y0088288D01*
X0200472Y0087690D02*
X0325412Y0087690D01*
X0324747Y0087091D02*
X0200442Y0087091D01*
X0200492Y0086493D02*
X0324082Y0086493D01*
X0323417Y0085894D02*
X0200541Y0085894D01*
X0200591Y0085296D02*
X0321725Y0085296D01*
X0319131Y0084697D02*
X0200641Y0084697D01*
X0200691Y0084099D02*
X0316765Y0084099D01*
X0315926Y0083500D02*
X0200741Y0083500D01*
X0200791Y0082902D02*
X0315217Y0082902D01*
X0314498Y0082303D02*
X0200991Y0082303D01*
X0201291Y0081705D02*
X0313780Y0081705D01*
X0312964Y0081106D02*
X0201590Y0081106D01*
X0201889Y0080508D02*
X0312344Y0080508D01*
X0311853Y0079909D02*
X0202188Y0079909D01*
X0202488Y0079311D02*
X0311297Y0079311D01*
X0310741Y0078712D02*
X0202787Y0078712D01*
X0203086Y0078114D02*
X0310185Y0078114D01*
X0309630Y0077515D02*
X0203525Y0077515D01*
X0204024Y0076917D02*
X0309074Y0076917D01*
X0308518Y0076318D02*
X0204523Y0076318D01*
X0205021Y0075720D02*
X0307962Y0075720D01*
X0307407Y0075121D02*
X0205520Y0075121D01*
X0206019Y0074523D02*
X0306851Y0074523D01*
X0306295Y0073924D02*
X0206518Y0073924D01*
X0207017Y0073326D02*
X0305667Y0073326D01*
X0304994Y0072727D02*
X0207515Y0072727D01*
X0208211Y0072129D02*
X0304321Y0072129D01*
X0303647Y0071530D02*
X0208929Y0071530D01*
X0209648Y0070932D02*
X0302974Y0070932D01*
X0302275Y0070333D02*
X0210902Y0070333D01*
X0212249Y0069734D02*
X0301627Y0069734D01*
X0301014Y0069136D02*
X0213822Y0069136D01*
X0216216Y0068537D02*
X0300432Y0068537D01*
X0299834Y0067939D02*
X0218610Y0067939D01*
X0222744Y0067340D02*
X0299235Y0067340D01*
X0298637Y0066742D02*
X0225216Y0066742D01*
X0227760Y0066143D02*
X0298038Y0066143D01*
X0297440Y0065545D02*
X0229412Y0065545D01*
X0231155Y0064946D02*
X0296841Y0064946D01*
X0296243Y0064348D02*
X0232190Y0064348D01*
X0233387Y0063749D02*
X0295644Y0063749D01*
X0295036Y0063151D02*
X0234216Y0063151D01*
X0235153Y0062552D02*
X0294371Y0062552D01*
X0293706Y0061954D02*
X0235791Y0061954D01*
X0236350Y0061355D02*
X0293041Y0061355D01*
X0292376Y0060757D02*
X0236949Y0060757D01*
X0237606Y0060158D02*
X0291711Y0060158D01*
X0291046Y0059560D02*
X0238146Y0059560D01*
X0238504Y0058961D02*
X0290328Y0058961D01*
X0289388Y0058363D02*
X0238953Y0058363D01*
X0239402Y0057764D02*
X0288447Y0057764D01*
X0287507Y0057166D02*
X0239900Y0057166D01*
X0240398Y0056567D02*
X0286566Y0056567D01*
X0285626Y0055969D02*
X0240897Y0055969D01*
X0241396Y0055370D02*
X0284643Y0055370D01*
X0283645Y0054772D02*
X0241934Y0054772D01*
X0242539Y0054173D02*
X0282561Y0054173D01*
X0281364Y0053575D02*
X0243768Y0053575D01*
X0245364Y0052976D02*
X0280166Y0052976D01*
X0278969Y0052378D02*
X0246960Y0052378D01*
X0248556Y0051779D02*
X0277718Y0051779D01*
X0276401Y0051181D02*
X0250152Y0051181D01*
X0253815Y0050582D02*
X0254129Y0050582D01*
X0254188Y0050582D02*
X0275084Y0050582D01*
X0273768Y0049984D02*
X0257779Y0049984D01*
X0261970Y0049385D02*
X0269595Y0049385D01*
X0228577Y0157716D02*
X0210875Y0157716D01*
X0210558Y0158314D02*
X0227679Y0158314D01*
X0226743Y0158913D02*
X0210165Y0158913D01*
X0263598Y0188838D02*
X0264219Y0188838D01*
X0263920Y0189437D02*
X0263298Y0189437D01*
X0262998Y0190035D02*
X0263620Y0190035D01*
X0263320Y0190634D02*
X0262698Y0190634D01*
X0262399Y0191232D02*
X0263020Y0191232D01*
X0262721Y0191831D02*
X0262099Y0191831D01*
X0151545Y0153526D02*
X0077535Y0153526D01*
X0088416Y0146344D02*
X0140601Y0146344D01*
X0137130Y0145745D02*
X0092306Y0145745D01*
X0096197Y0145147D02*
X0133659Y0145147D01*
X0130187Y0144548D02*
X0100087Y0144548D01*
X0103977Y0143950D02*
X0125954Y0143950D01*
X0121565Y0143351D02*
X0107868Y0143351D01*
D11*
X0204140Y0381804D03*
X0210046Y0381804D03*
X0211999Y0429524D03*
X0206094Y0429524D03*
D12*
G36*
X0179437Y0392825D02*
X0177824Y0395530D01*
X0180529Y0397143D01*
X0182142Y0394438D01*
X0179437Y0392825D01*
G37*
G36*
X0174364Y0389801D02*
X0172751Y0392506D01*
X0175456Y0394119D01*
X0177069Y0391414D01*
X0174364Y0389801D01*
G37*
G36*
X0176224Y0373141D02*
X0174499Y0375776D01*
X0177134Y0377501D01*
X0178859Y0374866D01*
X0176224Y0373141D01*
G37*
G36*
X0171282Y0369907D02*
X0169557Y0372542D01*
X0172192Y0374267D01*
X0173917Y0371632D01*
X0171282Y0369907D01*
G37*
G36*
X0155124Y0346339D02*
X0152224Y0347565D01*
X0153450Y0350465D01*
X0156350Y0349239D01*
X0155124Y0346339D01*
G37*
G36*
X0152826Y0340899D02*
X0149926Y0342125D01*
X0151152Y0345025D01*
X0154052Y0343799D01*
X0152826Y0340899D01*
G37*
G36*
X0151409Y0312682D02*
X0148265Y0312506D01*
X0148089Y0315650D01*
X0151233Y0315826D01*
X0151409Y0312682D01*
G37*
G36*
X0151739Y0306786D02*
X0148595Y0306610D01*
X0148419Y0309754D01*
X0151563Y0309930D01*
X0151739Y0306786D01*
G37*
G36*
X0158122Y0285531D02*
X0160322Y0287785D01*
X0162576Y0285585D01*
X0160376Y0283331D01*
X0158122Y0285531D01*
G37*
G36*
X0162348Y0281407D02*
X0164548Y0283661D01*
X0166802Y0281461D01*
X0164602Y0279207D01*
X0162348Y0281407D01*
G37*
G36*
X0191366Y0266985D02*
X0191548Y0270129D01*
X0194692Y0269947D01*
X0194510Y0266803D01*
X0191366Y0266985D01*
G37*
G36*
X0197262Y0266645D02*
X0197444Y0269789D01*
X0200588Y0269607D01*
X0200406Y0266463D01*
X0197262Y0266645D01*
G37*
G36*
X0231694Y0274917D02*
X0230086Y0277625D01*
X0232794Y0279233D01*
X0234402Y0276525D01*
X0231694Y0274917D01*
G37*
G36*
X0236772Y0277932D02*
X0235164Y0280640D01*
X0237872Y0282248D01*
X0239480Y0279540D01*
X0236772Y0277932D01*
G37*
G36*
X0255509Y0303176D02*
X0252414Y0303761D01*
X0252999Y0306856D01*
X0256094Y0306271D01*
X0255509Y0303176D01*
G37*
G36*
X0256606Y0308979D02*
X0253511Y0309564D01*
X0254096Y0312659D01*
X0257191Y0312074D01*
X0256606Y0308979D01*
G37*
G36*
X0253151Y0342597D02*
X0256271Y0343025D01*
X0256699Y0339905D01*
X0253579Y0339477D01*
X0253151Y0342597D01*
G37*
G36*
X0252350Y0348448D02*
X0255470Y0348876D01*
X0255898Y0345756D01*
X0252778Y0345328D01*
X0252350Y0348448D01*
G37*
G36*
X0237399Y0368136D02*
X0239615Y0370374D01*
X0241853Y0368158D01*
X0239637Y0365920D01*
X0237399Y0368136D01*
G37*
G36*
X0233202Y0372290D02*
X0235418Y0374528D01*
X0237656Y0372312D01*
X0235440Y0370074D01*
X0233202Y0372290D01*
G37*
G36*
X0249925Y0425262D02*
X0248993Y0422254D01*
X0245985Y0423186D01*
X0246917Y0426194D01*
X0249925Y0425262D01*
G37*
G36*
X0255566Y0423516D02*
X0254634Y0420508D01*
X0251626Y0421440D01*
X0252558Y0424448D01*
X0255566Y0423516D01*
G37*
G36*
X0288137Y0406263D02*
X0286352Y0403668D01*
X0283757Y0405453D01*
X0285542Y0408048D01*
X0288137Y0406263D01*
G37*
G36*
X0293004Y0402918D02*
X0291219Y0400323D01*
X0288624Y0402108D01*
X0290409Y0404703D01*
X0293004Y0402918D01*
G37*
G36*
X0333348Y0383668D02*
X0333502Y0380522D01*
X0330356Y0380368D01*
X0330202Y0383514D01*
X0333348Y0383668D01*
G37*
G36*
X0339246Y0383956D02*
X0339400Y0380810D01*
X0336254Y0380656D01*
X0336100Y0383802D01*
X0339246Y0383956D01*
G37*
G36*
X0387405Y0395952D02*
X0387037Y0392824D01*
X0383909Y0393192D01*
X0384277Y0396320D01*
X0387405Y0395952D01*
G37*
G36*
X0393270Y0395263D02*
X0392902Y0392135D01*
X0389774Y0392503D01*
X0390142Y0395631D01*
X0393270Y0395263D01*
G37*
G36*
X0417152Y0358347D02*
X0414010Y0358555D01*
X0414218Y0361697D01*
X0417360Y0361489D01*
X0417152Y0358347D01*
G37*
G36*
X0416761Y0352454D02*
X0413619Y0352662D01*
X0413827Y0355804D01*
X0416969Y0355596D01*
X0416761Y0352454D01*
G37*
G36*
X0402713Y0310837D02*
X0400185Y0312715D01*
X0402063Y0315243D01*
X0404591Y0313365D01*
X0402713Y0310837D01*
G37*
G36*
X0399192Y0306096D02*
X0396664Y0307974D01*
X0398542Y0310502D01*
X0401070Y0308624D01*
X0399192Y0306096D01*
G37*
G36*
X0363383Y0264656D02*
X0361422Y0267121D01*
X0363887Y0269082D01*
X0365848Y0266617D01*
X0363383Y0264656D01*
G37*
G36*
X0358762Y0260980D02*
X0356801Y0263445D01*
X0359266Y0265406D01*
X0361227Y0262941D01*
X0358762Y0260980D01*
G37*
G36*
X0319131Y0226020D02*
X0317397Y0228648D01*
X0320025Y0230382D01*
X0321759Y0227754D01*
X0319131Y0226020D01*
G37*
G36*
X0314200Y0222769D02*
X0312466Y0225397D01*
X0315094Y0227131D01*
X0316828Y0224503D01*
X0314200Y0222769D01*
G37*
G36*
X0265050Y0189637D02*
X0263640Y0192453D01*
X0266456Y0193863D01*
X0267866Y0191047D01*
X0265050Y0189637D01*
G37*
G36*
X0259769Y0186992D02*
X0258359Y0189808D01*
X0261175Y0191218D01*
X0262585Y0188402D01*
X0259769Y0186992D01*
G37*
G36*
X0204244Y0168484D02*
X0205265Y0165505D01*
X0202286Y0164484D01*
X0201265Y0167463D01*
X0204244Y0168484D01*
G37*
G36*
X0198657Y0166571D02*
X0199678Y0163592D01*
X0196699Y0162571D01*
X0195678Y0165550D01*
X0198657Y0166571D01*
G37*
G36*
X0153027Y0152769D02*
X0153805Y0149717D01*
X0150753Y0148939D01*
X0149975Y0151991D01*
X0153027Y0152769D01*
G37*
G36*
X0147304Y0151310D02*
X0148082Y0148258D01*
X0145030Y0147480D01*
X0144252Y0150532D01*
X0147304Y0151310D01*
G37*
G36*
X0074538Y0150255D02*
X0075909Y0153090D01*
X0078744Y0151719D01*
X0077373Y0148884D01*
X0074538Y0150255D01*
G37*
G36*
X0069221Y0152826D02*
X0070592Y0155661D01*
X0073427Y0154290D01*
X0072056Y0151455D01*
X0069221Y0152826D01*
G37*
G36*
X0037496Y0184146D02*
X0040517Y0185035D01*
X0041406Y0182014D01*
X0038385Y0181125D01*
X0037496Y0184146D01*
G37*
G36*
X0035829Y0189811D02*
X0038850Y0190700D01*
X0039739Y0187679D01*
X0036718Y0186790D01*
X0035829Y0189811D01*
G37*
G36*
X0053328Y0234198D02*
X0050850Y0236142D01*
X0052794Y0238620D01*
X0055272Y0236676D01*
X0053328Y0234198D01*
G37*
G36*
X0056972Y0238845D02*
X0054494Y0240789D01*
X0056438Y0243267D01*
X0058916Y0241323D01*
X0056972Y0238845D01*
G37*
G36*
X0084228Y0268451D02*
X0086496Y0266267D01*
X0084312Y0263999D01*
X0082044Y0266183D01*
X0084228Y0268451D01*
G37*
G36*
X0088323Y0272706D02*
X0090591Y0270522D01*
X0088407Y0268254D01*
X0086139Y0270438D01*
X0088323Y0272706D01*
G37*
G36*
X0105629Y0304335D02*
X0108637Y0303403D01*
X0107705Y0300395D01*
X0104697Y0301327D01*
X0105629Y0304335D01*
G37*
G36*
X0107375Y0309977D02*
X0110383Y0309045D01*
X0109451Y0306037D01*
X0106443Y0306969D01*
X0107375Y0309977D01*
G37*
G36*
X0116510Y0342248D02*
X0113391Y0342681D01*
X0113824Y0345800D01*
X0116943Y0345367D01*
X0116510Y0342248D01*
G37*
G36*
X0117321Y0348098D02*
X0114202Y0348531D01*
X0114635Y0351650D01*
X0117754Y0351217D01*
X0117321Y0348098D01*
G37*
G36*
X0128364Y0385476D02*
X0130975Y0383715D01*
X0129214Y0381104D01*
X0126603Y0382865D01*
X0128364Y0385476D01*
G37*
G36*
X0131666Y0390372D02*
X0134277Y0388611D01*
X0132516Y0386000D01*
X0129905Y0387761D01*
X0131666Y0390372D01*
G37*
D13*
X0312012Y0413677D02*
X0314689Y0419047D01*
X0323639Y0414585D02*
X0320961Y0409215D01*
X0329911Y0404753D02*
X0332588Y0410123D01*
D14*
X0331852Y0382018D03*
X0329800Y0374900D03*
X0337337Y0378091D03*
X0337750Y0382306D03*
X0351800Y0379900D03*
X0338800Y0359900D03*
X0331989Y0343700D03*
X0312800Y0335767D03*
X0308801Y0317901D03*
X0281300Y0329554D03*
X0254925Y0341251D03*
X0259788Y0361412D03*
X0269800Y0372900D03*
X0250800Y0380400D03*
X0257300Y0390400D03*
X0235429Y0372301D03*
X0239626Y0368147D03*
X0210046Y0381804D03*
X0198300Y0399400D03*
X0179983Y0394984D03*
X0174910Y0391960D03*
X0170800Y0385900D03*
X0176679Y0375321D03*
X0171737Y0372087D03*
X0151989Y0342962D03*
X0130800Y0328900D03*
X0115167Y0344024D03*
X0115978Y0349874D03*
X0115877Y0353788D03*
X0131800Y0359900D03*
X0132091Y0388186D03*
X0149749Y0314166D03*
X0152438Y0297272D03*
X0160349Y0285558D03*
X0193029Y0268466D03*
X0198925Y0268130D03*
X0265753Y0191750D03*
X0260472Y0189105D03*
X0203265Y0166484D03*
X0197678Y0164571D03*
X0189879Y0170400D03*
X0151890Y0150854D03*
X0146167Y0149395D03*
X0076641Y0150987D03*
X0039451Y0183080D03*
X0056705Y0241056D03*
X0088365Y0270480D03*
X0117800Y0293400D03*
X0117800Y0304854D03*
X0230000Y0401100D03*
X0247955Y0424224D03*
X0253596Y0422478D03*
X0285947Y0405858D03*
X0290814Y0402513D03*
X0287145Y0390151D03*
X0304264Y0371751D03*
X0299356Y0357900D03*
X0295578Y0357900D03*
X0291800Y0358400D03*
X0286800Y0275400D03*
X0319578Y0228201D03*
X0314647Y0224950D03*
X0359014Y0263193D03*
X0363635Y0266869D03*
X0398867Y0308299D03*
X0402388Y0313040D03*
X0386300Y0329400D03*
X0415294Y0354129D03*
X0415685Y0360022D03*
X0391522Y0393883D03*
X0385657Y0394572D03*
X0211999Y0429524D03*
X0206094Y0429524D03*
D15*
X0308801Y0317901D02*
X0355114Y0269223D01*
X0355060Y0264199D01*
X0355162Y0256334D01*
X0353716Y0254785D01*
X0338917Y0240927D01*
X0331535Y0234322D01*
X0325956Y0230003D01*
X0318299Y0233189D01*
X0311088Y0226406D01*
X0311069Y0226406D01*
X0310765Y0226102D01*
X0310765Y0224000D01*
X0311663Y0218821D01*
X0307071Y0216378D01*
X0275300Y0191400D01*
X0259300Y0184400D01*
X0250800Y0182400D01*
X0210300Y0167900D01*
X0204300Y0170400D01*
X0189879Y0170400D01*
D16*
X0312800Y0335767D02*
X0320733Y0343700D01*
X0331989Y0343700D01*
D17*
X0310752Y0319752D02*
X0356371Y0270804D01*
X0360306Y0266869D01*
X0363635Y0266869D01*
X0310752Y0319752D02*
X0269800Y0360704D01*
X0269800Y0372900D01*
X0271300Y0380400D02*
X0283937Y0388177D01*
X0287145Y0390151D01*
X0271300Y0380400D02*
X0259788Y0368888D01*
X0259788Y0361412D01*
X0257813Y0361412D01*
X0243725Y0375501D01*
X0238415Y0375501D01*
X0237504Y0376401D01*
X0236572Y0377334D01*
X0234255Y0377334D01*
X0231821Y0374900D01*
X0231300Y0374900D01*
X0230300Y0375900D01*
X0230300Y0370137D01*
X0233166Y0367271D01*
X0236567Y0367271D01*
X0236625Y0367213D01*
X0238619Y0365219D01*
X0238634Y0365225D01*
X0239147Y0364717D01*
X0240141Y0364722D01*
X0242203Y0366806D01*
X0243369Y0366806D01*
X0253745Y0356430D01*
X0253745Y0349851D01*
X0251975Y0349851D01*
X0250978Y0348853D01*
X0250978Y0342600D01*
X0252045Y0341533D01*
X0252045Y0339234D01*
X0253325Y0337954D01*
X0253325Y0315474D01*
X0255351Y0313449D01*
X0255351Y0310819D01*
X0255351Y0309007D01*
X0254471Y0308127D01*
X0252472Y0308127D01*
X0251447Y0307101D01*
X0251447Y0305103D01*
X0251143Y0303495D01*
X0251447Y0303050D01*
X0251447Y0299103D01*
X0232244Y0279900D01*
X0232244Y0277075D01*
X0220610Y0265441D01*
X0200834Y0265237D01*
X0196697Y0265475D01*
X0196036Y0266217D01*
X0193787Y0268466D01*
X0193029Y0268466D01*
X0177543Y0268466D01*
X0164575Y0281434D01*
X0160349Y0285558D02*
X0141016Y0266225D01*
X0084270Y0266225D01*
X0083483Y0266198D01*
X0082394Y0266198D01*
X0076429Y0260232D01*
X0061676Y0248956D01*
X0059412Y0246594D01*
X0060167Y0242122D01*
X0060167Y0240270D01*
X0056305Y0236409D01*
X0053061Y0236409D01*
X0050880Y0236467D01*
X0046150Y0229898D01*
X0042717Y0223475D01*
X0041001Y0220175D01*
X0038300Y0208023D01*
X0037126Y0202849D01*
X0036517Y0198786D01*
X0036517Y0190012D01*
X0037784Y0188745D01*
X0040202Y0186327D01*
X0040800Y0186327D01*
X0040838Y0186227D01*
X0041528Y0185851D01*
X0041964Y0184370D01*
X0043418Y0179431D01*
X0045271Y0174551D01*
X0051488Y0167250D01*
X0057334Y0162304D01*
X0060741Y0159758D01*
X0065161Y0157894D01*
X0072626Y0156926D01*
X0074724Y0154827D01*
X0074724Y0152904D01*
X0076641Y0150987D01*
X0071324Y0153558D02*
X0059901Y0158376D01*
X0057476Y0160087D01*
X0048326Y0167830D01*
X0047596Y0168448D01*
X0045548Y0170696D01*
X0045501Y0170708D01*
X0045242Y0171140D01*
X0044903Y0171512D01*
X0044904Y0171525D01*
X0044372Y0172412D01*
X0044187Y0172898D01*
X0043919Y0173166D01*
X0043919Y0173423D01*
X0043802Y0173541D01*
X0041132Y0177990D01*
X0039451Y0183080D01*
X0117800Y0293400D02*
X0121672Y0297272D01*
X0152438Y0297272D01*
X0142209Y0300400D02*
X0150079Y0308270D01*
X0146960Y0311389D01*
X0146960Y0314353D01*
X0146863Y0316080D01*
X0146960Y0316188D01*
X0146960Y0342671D01*
X0150613Y0346324D01*
X0152209Y0346324D01*
X0154287Y0348402D01*
X0133794Y0368894D01*
X0133794Y0386483D01*
X0132091Y0388186D01*
X0128789Y0383290D02*
X0117596Y0363845D01*
X0116386Y0360766D01*
X0119800Y0353319D01*
X0120687Y0352432D01*
X0120687Y0345742D01*
X0117807Y0342861D01*
X0117630Y0341591D01*
X0116837Y0340991D01*
X0114300Y0338453D01*
X0114300Y0337400D01*
X0108413Y0308007D01*
X0111566Y0304854D01*
X0117800Y0304854D01*
X0108632Y0300400D02*
X0142209Y0300400D01*
X0108632Y0300400D02*
X0106667Y0302365D01*
X0115167Y0344024D02*
X0115167Y0344358D01*
X0117649Y0346840D01*
X0118442Y0347440D01*
X0118618Y0348711D01*
X0118667Y0348760D01*
X0118667Y0349063D01*
X0119012Y0351544D01*
X0118412Y0352337D01*
X0117154Y0352512D01*
X0115877Y0353788D01*
X0176679Y0375321D02*
X0197657Y0375321D01*
X0204140Y0381804D01*
X0211412Y0389076D01*
X0245779Y0389076D01*
X0250800Y0384055D01*
X0250800Y0380400D01*
X0243062Y0373901D02*
X0237757Y0373901D01*
X0235908Y0375730D01*
X0234914Y0375725D01*
X0231999Y0372810D01*
X0231999Y0371791D01*
X0232800Y0370990D01*
X0232800Y0369900D01*
X0233829Y0368871D01*
X0235939Y0368871D01*
X0236504Y0369437D01*
X0238336Y0369437D01*
X0239600Y0370701D01*
X0241737Y0370701D01*
X0255345Y0357093D01*
X0255345Y0348323D01*
X0254124Y0347102D01*
X0257154Y0345235D02*
X0254925Y0343006D01*
X0254925Y0341251D01*
X0254925Y0316137D01*
X0258462Y0312600D01*
X0258462Y0309037D01*
X0257132Y0307708D01*
X0256946Y0307708D01*
X0254254Y0305016D01*
X0254254Y0299648D01*
X0237322Y0282715D01*
X0237322Y0280090D01*
X0198925Y0268130D02*
X0198925Y0268126D01*
X0257154Y0345235D02*
X0257154Y0357546D01*
X0242399Y0372301D01*
X0235429Y0372301D01*
X0238336Y0369437D02*
X0238337Y0369437D01*
X0239626Y0368147D01*
X0243062Y0373901D02*
X0258754Y0358209D01*
X0258754Y0352100D01*
X0281300Y0329554D01*
X0281300Y0248193D01*
X0206196Y0173089D01*
X0188766Y0173089D01*
X0187190Y0171514D01*
X0187190Y0169286D01*
X0188766Y0167711D01*
X0194538Y0167711D01*
X0197678Y0164571D01*
X0265753Y0191750D02*
X0265753Y0191750D01*
X0265753Y0191750D01*
X0291800Y0358400D02*
X0293450Y0360050D01*
X0293450Y0363078D01*
X0297294Y0372294D01*
X0311119Y0408214D01*
X0313351Y0416362D01*
X0322300Y0411900D02*
X0310927Y0402201D01*
X0295182Y0362547D01*
X0295182Y0358296D01*
X0295578Y0357900D01*
X0299356Y0357900D02*
X0297026Y0362856D01*
X0297457Y0363941D01*
X0302472Y0376570D01*
X0304264Y0374778D01*
X0304264Y0371751D01*
X0302472Y0376570D02*
X0302650Y0377020D01*
X0312267Y0401241D01*
X0312280Y0401251D01*
X0331249Y0407438D01*
X0343091Y0384393D02*
X0360584Y0390113D01*
X0370987Y0394794D01*
X0380540Y0394794D01*
X0383759Y0391574D01*
X0389214Y0391574D01*
X0391522Y0393883D01*
X0343091Y0384393D02*
X0341375Y0378325D01*
X0338451Y0375402D01*
X0333593Y0375402D01*
X0333197Y0375797D01*
X0329800Y0374900D01*
X0230300Y0375900D02*
X0230300Y0381804D01*
X0210046Y0381804D01*
X0204140Y0381804D02*
X0204140Y0411065D01*
X0211999Y0418924D01*
X0211999Y0429524D01*
D18*
X0331852Y0382018D02*
X0337337Y0378091D01*
M02*
