G75*
%MOIN*%
%OFA0B0*%
%FSLAX25Y25*%
%IPPOS*%
%LPD*%
%AMOC8*
5,1,8,0,0,1.08239X$1,22.5*
%
%ADD10C,0.00600*%
%ADD11R,0.03150X0.03150*%
%ADD12R,0.03150X0.03150*%
D10*
X0083800Y0142400D02*
X0109800Y0138400D01*
X0119300Y0138400D01*
X0130300Y0139900D01*
X0144800Y0142400D01*
X0156800Y0144900D01*
X0169300Y0148400D01*
X0178300Y0150900D01*
X0187800Y0154900D01*
X0200300Y0158900D01*
X0202300Y0159400D01*
X0202800Y0159400D01*
X0204800Y0158400D01*
X0206300Y0156400D01*
X0207800Y0153900D01*
X0208800Y0147900D01*
X0209300Y0143400D01*
X0209300Y0131400D01*
X0208300Y0124900D01*
X0207800Y0120400D01*
X0206300Y0114400D01*
X0204300Y0110400D01*
X0198300Y0096400D01*
X0196300Y0091400D01*
X0195800Y0087400D01*
X0196300Y0081400D01*
X0199300Y0075400D01*
X0204300Y0069400D01*
X0207300Y0066900D01*
X0211800Y0064900D01*
X0217800Y0063400D01*
X0221300Y0062900D01*
X0225800Y0061900D01*
X0228800Y0060900D01*
X0230800Y0059900D01*
X0232300Y0058900D01*
X0234300Y0056900D01*
X0235800Y0054900D01*
X0238300Y0051900D01*
X0239800Y0050400D01*
X0241800Y0049400D01*
X0249800Y0046400D01*
X0254300Y0045900D01*
X0260300Y0044900D01*
X0266800Y0044400D01*
X0274800Y0045400D01*
X0280300Y0047900D01*
X0285300Y0050400D01*
X0287800Y0051900D01*
X0293300Y0055400D01*
X0298300Y0059900D01*
X0304800Y0066400D01*
X0309300Y0070400D01*
X0315800Y0077400D01*
X0318800Y0079900D01*
X0325300Y0081400D01*
X0330300Y0085900D01*
X0334300Y0094400D01*
X0336300Y0104900D01*
X0336800Y0111900D01*
X0334800Y0124400D01*
X0333300Y0131400D01*
X0331800Y0136900D01*
X0329800Y0142900D01*
X0325300Y0152400D01*
X0321300Y0162900D01*
X0317800Y0174400D01*
X0315300Y0186400D01*
X0312800Y0200400D01*
X0312300Y0209400D01*
X0312300Y0212900D01*
X0314300Y0214400D01*
X0319300Y0218400D01*
X0334800Y0230400D01*
X0353800Y0247400D01*
X0374800Y0269900D01*
X0390800Y0288400D01*
X0401300Y0300400D01*
X0408800Y0311900D01*
X0414300Y0323400D01*
X0418800Y0332900D01*
X0420300Y0339900D01*
X0421800Y0354900D01*
X0422300Y0364900D01*
X0421800Y0372400D01*
X0420300Y0379400D01*
X0417800Y0384900D01*
X0414800Y0388400D01*
X0409800Y0392900D01*
X0402300Y0397900D01*
X0395300Y0399900D01*
X0382800Y0400900D01*
X0375300Y0400400D01*
X0364800Y0398400D01*
X0360300Y0396400D01*
X0350300Y0391900D01*
X0340800Y0388900D01*
X0332800Y0388400D01*
X0325300Y0389400D01*
X0318800Y0390400D01*
X0320300Y0396400D01*
X0334300Y0396900D01*
X0343300Y0413400D01*
X0311300Y0428900D01*
X0301800Y0412900D01*
X0304800Y0410400D01*
X0305800Y0409400D01*
X0300800Y0402900D01*
X0298300Y0404900D01*
X0284800Y0413900D01*
X0270300Y0422400D01*
X0253800Y0429400D01*
X0238800Y0433400D01*
X0217800Y0435400D01*
X0206800Y0435900D01*
X0196800Y0435400D01*
X0188800Y0433400D01*
X0178300Y0429400D01*
X0164300Y0423400D01*
X0158300Y0420400D01*
X0142800Y0409400D01*
X0132300Y0399900D01*
X0124800Y0389900D01*
X0116300Y0373400D01*
X0110800Y0359400D01*
X0109300Y0348400D01*
X0108800Y0342900D01*
X0107800Y0332900D01*
X0106300Y0323400D01*
X0103800Y0314900D01*
X0099800Y0301400D01*
X0097800Y0295400D01*
X0087800Y0279400D01*
X0080300Y0270900D01*
X0072300Y0263400D01*
X0062300Y0256400D01*
X0050800Y0244400D01*
X0041800Y0231900D01*
X0035300Y0219400D01*
X0033300Y0210400D01*
X0031800Y0200400D01*
X0031300Y0192400D01*
X0031300Y0188900D01*
X0031800Y0185900D01*
X0033300Y0181400D01*
X0035300Y0177400D01*
X0038300Y0172400D01*
X0043800Y0164900D01*
X0050300Y0159400D01*
X0058800Y0153400D01*
X0065800Y0148900D01*
X0072800Y0145400D01*
X0083800Y0142400D01*
X0149700Y0392600D02*
X0145800Y0399900D01*
X0146300Y0402400D01*
X0147800Y0405400D01*
X0149800Y0407900D01*
X0159300Y0413900D01*
X0167300Y0418400D01*
X0172800Y0420900D01*
X0176800Y0422400D01*
X0181800Y0422900D01*
X0186300Y0422400D01*
X0187300Y0421900D01*
X0191200Y0415100D01*
X0149700Y0392600D01*
D11*
X0204140Y0381804D03*
X0210046Y0381804D03*
X0211999Y0429524D03*
X0206094Y0429524D03*
D12*
G36*
X0179437Y0392825D02*
X0177824Y0395530D01*
X0180529Y0397143D01*
X0182142Y0394438D01*
X0179437Y0392825D01*
G37*
G36*
X0174364Y0389801D02*
X0172751Y0392506D01*
X0175456Y0394119D01*
X0177069Y0391414D01*
X0174364Y0389801D01*
G37*
G36*
X0176224Y0373141D02*
X0174499Y0375776D01*
X0177134Y0377501D01*
X0178859Y0374866D01*
X0176224Y0373141D01*
G37*
G36*
X0171282Y0369907D02*
X0169557Y0372542D01*
X0172192Y0374267D01*
X0173917Y0371632D01*
X0171282Y0369907D01*
G37*
G36*
X0155124Y0346339D02*
X0152224Y0347565D01*
X0153450Y0350465D01*
X0156350Y0349239D01*
X0155124Y0346339D01*
G37*
G36*
X0152826Y0340899D02*
X0149926Y0342125D01*
X0151152Y0345025D01*
X0154052Y0343799D01*
X0152826Y0340899D01*
G37*
G36*
X0151409Y0312682D02*
X0148265Y0312506D01*
X0148089Y0315650D01*
X0151233Y0315826D01*
X0151409Y0312682D01*
G37*
G36*
X0151739Y0306786D02*
X0148595Y0306610D01*
X0148419Y0309754D01*
X0151563Y0309930D01*
X0151739Y0306786D01*
G37*
G36*
X0158122Y0285531D02*
X0160322Y0287785D01*
X0162576Y0285585D01*
X0160376Y0283331D01*
X0158122Y0285531D01*
G37*
G36*
X0162348Y0281407D02*
X0164548Y0283661D01*
X0166802Y0281461D01*
X0164602Y0279207D01*
X0162348Y0281407D01*
G37*
G36*
X0191366Y0266985D02*
X0191548Y0270129D01*
X0194692Y0269947D01*
X0194510Y0266803D01*
X0191366Y0266985D01*
G37*
G36*
X0197262Y0266645D02*
X0197444Y0269789D01*
X0200588Y0269607D01*
X0200406Y0266463D01*
X0197262Y0266645D01*
G37*
G36*
X0231694Y0274917D02*
X0230086Y0277625D01*
X0232794Y0279233D01*
X0234402Y0276525D01*
X0231694Y0274917D01*
G37*
G36*
X0236772Y0277932D02*
X0235164Y0280640D01*
X0237872Y0282248D01*
X0239480Y0279540D01*
X0236772Y0277932D01*
G37*
G36*
X0255509Y0303176D02*
X0252414Y0303761D01*
X0252999Y0306856D01*
X0256094Y0306271D01*
X0255509Y0303176D01*
G37*
G36*
X0256606Y0308979D02*
X0253511Y0309564D01*
X0254096Y0312659D01*
X0257191Y0312074D01*
X0256606Y0308979D01*
G37*
G36*
X0253151Y0342597D02*
X0256271Y0343025D01*
X0256699Y0339905D01*
X0253579Y0339477D01*
X0253151Y0342597D01*
G37*
G36*
X0252350Y0348448D02*
X0255470Y0348876D01*
X0255898Y0345756D01*
X0252778Y0345328D01*
X0252350Y0348448D01*
G37*
G36*
X0237399Y0368136D02*
X0239615Y0370374D01*
X0241853Y0368158D01*
X0239637Y0365920D01*
X0237399Y0368136D01*
G37*
G36*
X0233202Y0372290D02*
X0235418Y0374528D01*
X0237656Y0372312D01*
X0235440Y0370074D01*
X0233202Y0372290D01*
G37*
G36*
X0249925Y0425262D02*
X0248993Y0422254D01*
X0245985Y0423186D01*
X0246917Y0426194D01*
X0249925Y0425262D01*
G37*
G36*
X0255566Y0423516D02*
X0254634Y0420508D01*
X0251626Y0421440D01*
X0252558Y0424448D01*
X0255566Y0423516D01*
G37*
G36*
X0288137Y0406263D02*
X0286352Y0403668D01*
X0283757Y0405453D01*
X0285542Y0408048D01*
X0288137Y0406263D01*
G37*
G36*
X0293004Y0402918D02*
X0291219Y0400323D01*
X0288624Y0402108D01*
X0290409Y0404703D01*
X0293004Y0402918D01*
G37*
G36*
X0333348Y0383668D02*
X0333502Y0380522D01*
X0330356Y0380368D01*
X0330202Y0383514D01*
X0333348Y0383668D01*
G37*
G36*
X0339246Y0383956D02*
X0339400Y0380810D01*
X0336254Y0380656D01*
X0336100Y0383802D01*
X0339246Y0383956D01*
G37*
G36*
X0387405Y0395952D02*
X0387037Y0392824D01*
X0383909Y0393192D01*
X0384277Y0396320D01*
X0387405Y0395952D01*
G37*
G36*
X0393270Y0395263D02*
X0392902Y0392135D01*
X0389774Y0392503D01*
X0390142Y0395631D01*
X0393270Y0395263D01*
G37*
G36*
X0417152Y0358347D02*
X0414010Y0358555D01*
X0414218Y0361697D01*
X0417360Y0361489D01*
X0417152Y0358347D01*
G37*
G36*
X0416761Y0352454D02*
X0413619Y0352662D01*
X0413827Y0355804D01*
X0416969Y0355596D01*
X0416761Y0352454D01*
G37*
G36*
X0402713Y0310837D02*
X0400185Y0312715D01*
X0402063Y0315243D01*
X0404591Y0313365D01*
X0402713Y0310837D01*
G37*
G36*
X0399192Y0306096D02*
X0396664Y0307974D01*
X0398542Y0310502D01*
X0401070Y0308624D01*
X0399192Y0306096D01*
G37*
G36*
X0363383Y0264656D02*
X0361422Y0267121D01*
X0363887Y0269082D01*
X0365848Y0266617D01*
X0363383Y0264656D01*
G37*
G36*
X0358762Y0260980D02*
X0356801Y0263445D01*
X0359266Y0265406D01*
X0361227Y0262941D01*
X0358762Y0260980D01*
G37*
G36*
X0319131Y0226020D02*
X0317397Y0228648D01*
X0320025Y0230382D01*
X0321759Y0227754D01*
X0319131Y0226020D01*
G37*
G36*
X0314200Y0222769D02*
X0312466Y0225397D01*
X0315094Y0227131D01*
X0316828Y0224503D01*
X0314200Y0222769D01*
G37*
G36*
X0265050Y0189637D02*
X0263640Y0192453D01*
X0266456Y0193863D01*
X0267866Y0191047D01*
X0265050Y0189637D01*
G37*
G36*
X0259769Y0186992D02*
X0258359Y0189808D01*
X0261175Y0191218D01*
X0262585Y0188402D01*
X0259769Y0186992D01*
G37*
G36*
X0204244Y0168484D02*
X0205265Y0165505D01*
X0202286Y0164484D01*
X0201265Y0167463D01*
X0204244Y0168484D01*
G37*
G36*
X0198657Y0166571D02*
X0199678Y0163592D01*
X0196699Y0162571D01*
X0195678Y0165550D01*
X0198657Y0166571D01*
G37*
G36*
X0153027Y0152769D02*
X0153805Y0149717D01*
X0150753Y0148939D01*
X0149975Y0151991D01*
X0153027Y0152769D01*
G37*
G36*
X0147304Y0151310D02*
X0148082Y0148258D01*
X0145030Y0147480D01*
X0144252Y0150532D01*
X0147304Y0151310D01*
G37*
G36*
X0074538Y0150255D02*
X0075909Y0153090D01*
X0078744Y0151719D01*
X0077373Y0148884D01*
X0074538Y0150255D01*
G37*
G36*
X0069221Y0152826D02*
X0070592Y0155661D01*
X0073427Y0154290D01*
X0072056Y0151455D01*
X0069221Y0152826D01*
G37*
G36*
X0037496Y0184146D02*
X0040517Y0185035D01*
X0041406Y0182014D01*
X0038385Y0181125D01*
X0037496Y0184146D01*
G37*
G36*
X0035829Y0189811D02*
X0038850Y0190700D01*
X0039739Y0187679D01*
X0036718Y0186790D01*
X0035829Y0189811D01*
G37*
G36*
X0053328Y0234198D02*
X0050850Y0236142D01*
X0052794Y0238620D01*
X0055272Y0236676D01*
X0053328Y0234198D01*
G37*
G36*
X0056972Y0238845D02*
X0054494Y0240789D01*
X0056438Y0243267D01*
X0058916Y0241323D01*
X0056972Y0238845D01*
G37*
G36*
X0084228Y0268451D02*
X0086496Y0266267D01*
X0084312Y0263999D01*
X0082044Y0266183D01*
X0084228Y0268451D01*
G37*
G36*
X0088323Y0272706D02*
X0090591Y0270522D01*
X0088407Y0268254D01*
X0086139Y0270438D01*
X0088323Y0272706D01*
G37*
G36*
X0105629Y0304335D02*
X0108637Y0303403D01*
X0107705Y0300395D01*
X0104697Y0301327D01*
X0105629Y0304335D01*
G37*
G36*
X0107375Y0309977D02*
X0110383Y0309045D01*
X0109451Y0306037D01*
X0106443Y0306969D01*
X0107375Y0309977D01*
G37*
G36*
X0116510Y0342248D02*
X0113391Y0342681D01*
X0113824Y0345800D01*
X0116943Y0345367D01*
X0116510Y0342248D01*
G37*
G36*
X0117321Y0348098D02*
X0114202Y0348531D01*
X0114635Y0351650D01*
X0117754Y0351217D01*
X0117321Y0348098D01*
G37*
G36*
X0128364Y0385476D02*
X0130975Y0383715D01*
X0129214Y0381104D01*
X0126603Y0382865D01*
X0128364Y0385476D01*
G37*
G36*
X0131666Y0390372D02*
X0134277Y0388611D01*
X0132516Y0386000D01*
X0129905Y0387761D01*
X0131666Y0390372D01*
G37*
M02*
