%
M48
M72
T01C0.01378
T02C0.04000
%
T01
X76641Y150987
X39451Y183080
X56705Y241056
X88365Y270480
X117800Y293400
X117800Y304854
X130800Y328900
X115167Y344024
X115978Y349874
X115877Y353788
X131800Y359900
X151989Y342962
X149749Y314166
X152438Y297272
X160349Y285558
X193029Y268466
X198925Y268130
X254925Y341251
X259788Y361412
X269800Y372900
X250800Y380400
X257300Y390400
X235429Y372301
X239626Y368147
X210046Y381804
X198300Y399400
X179983Y394984
X174910Y391960
X170800Y385900
X176679Y375321
X171737Y372087
X132091Y388186
X206094Y429524
X211999Y429524
X230000Y401100
X247955Y424224
X253596Y422478
X285947Y405858
X290814Y402513
X287145Y390151
X304264Y371751
X299356Y357900
X295578Y357900
X291800Y358400
X312800Y335767
X308801Y317901
X331989Y343700
X338800Y359900
X329800Y374900
X331852Y382018
X337750Y382306
X337337Y378091
X351800Y379900
X385657Y394572
X391522Y393883
X415685Y360022
X415294Y354129
X386300Y329400
X402388Y313040
X398867Y308299
X363635Y266869
X359014Y263193
X319578Y228201
X314647Y224950
X286800Y275400
X281300Y329554
X265753Y191750
X260472Y189105
X203265Y166484
X197678Y164571
X189879Y170400
X151890Y150854
X146167Y149395
T02
X331249Y407438
X322300Y411900
X313351Y416362
M30
